<?xml version="1.0" encoding="UTF-8" standalone="no"?>
<!-- Created with Inkscape (http://www.inkscape.org/) -->

<svg
   xmlns:dc="http://purl.org/dc/elements/1.1/"
   xmlns:cc="http://creativecommons.org/ns#"
   xmlns:rdf="http://www.w3.org/1999/02/22-rdf-syntax-ns#"
   xmlns:svg="http://www.w3.org/2000/svg"
   xmlns="http://www.w3.org/2000/svg"
   xmlns:sodipodi="http://sodipodi.sourceforge.net/DTD/sodipodi-0.dtd"
   xmlns:inkscape="http://www.inkscape.org/namespaces/inkscape"
   version="1.1"
   id="svg10"
   width="206.72"
   height="202.24001"
   viewBox="0 0 206.72 202.24001"
   sodipodi:docname="bloedhaus.svg"
   inkscape:version="0.92.4 (5da689c313, 2019-01-14)">
  <metadata
     id="metadata16">
    <rdf:RDF>
      <cc:Work
         rdf:about="">
        <dc:format>image/svg+xml</dc:format>
        <dc:type
           rdf:resource="http://purl.org/dc/dcmitype/StillImage" />
        <dc:title></dc:title>
      </cc:Work>
    </rdf:RDF>
  </metadata>
  <defs
     id="defs14" />
  <sodipodi:namedview
     pagecolor="#ffffff"
     bordercolor="#666666"
     borderopacity="1"
     objecttolerance="10"
     gridtolerance="10"
     guidetolerance="10"
     inkscape:pageopacity="0"
     inkscape:pageshadow="2"
     inkscape:window-width="798"
     inkscape:window-height="480"
     id="namedview12"
     showgrid="false"
     inkscape:zoom="1.2359684"
     inkscape:cx="103.36"
     inkscape:cy="101.12"
     inkscape:window-x="0"
     inkscape:window-y="0"
     inkscape:window-maximized="1"
     inkscape:current-layer="g20" />
  <g
     id="g20">
    <path
       style="display:inline;fill:#800080;stroke-width:0.32000002"
       d="M 55.455078,0.04101562 C 51.099067,0.08533619 47.489896,0.62549838 42.505859,1.6152344 36.985324,2.7115094 28.951352,5.25718 27.998047,6.2128906 27.632427,6.5794254 26.856455,8.2479218 26.273438,9.9199219 25.690421,11.591922 23.304477,16.991922 20.970703,21.919922 14.053469,36.526368 12.88144,39.110793 12.347656,40.9375 c -1.030164,3.525411 -0.438265,6.08311 2.025391,8.755859 0.715654,0.776394 1.588486,2.060096 1.939453,2.853516 1.104597,2.497124 3.10231,11.114546 6.107422,26.333984 1.598574,8.096 3.479094,17.096 4.177734,20 0.698639,2.904001 1.923194,8.219441 2.720703,11.812501 1.566038,7.05556 2.131962,8.82999 2.916016,9.13086 1.104512,0.42384 2.212251,-1.34069 4.263672,-6.79492 1.055533,-2.8064 2.686349,-5.27688 3.601562,-5.45313 0.636188,-0.12252 0.776604,-0.51477 -2.957031,8.36133 -4.345383,10.33044 -5.466631,14.73881 -5.457031,21.46484 0.0069,4.83136 0.574456,7.6086 2.246094,11 1.697402,3.44366 3.963102,5.80228 6.480468,6.74414 2.384794,0.89225 4.271085,0.8755 8.3125,-0.0801 1.801449,-0.42594 4.10881,-0.92342 5.126953,-1.10547 2.910526,-0.52042 5.865956,-2.13684 8.246094,-4.50977 4.184998,-4.17233 5.115459,-9.07307 2.578125,-13.57031 -0.508989,-0.90214 -1.154339,-2.43239 -1.433593,-3.40039 -0.279258,-0.968 -1.588861,-3.70408 -2.910157,-6.08008 -3.681046,-6.61938 -4.049323,-8.36323 -2.185547,-10.30859 0.743274,-0.77584 1.083821,-0.88768 2.632813,-0.86328 0.979072,0.0154 2.500859,0.12703 3.380859,0.24804 1.37559,0.18914 1.509222,0.26637 0.958985,0.5586 -0.352,0.18695 -1.605983,0.59397 -2.78711,0.90429 -1.181126,0.31031 -2.316404,0.76812 -2.523437,1.01758 -1.030647,1.24186 1.158931,8.56863 3.511718,11.74805 0.673834,0.91057 1.320433,1.92206 1.435547,2.24804 0.115116,0.32601 0.819789,1.4644 1.566407,2.5293 l 1.060546,1.51172 c 0.02692,0.0506 0.0661,0.11705 0.0918,0.16602 0.07643,0.14564 0.142254,0.32401 0.205079,0.50976 v 3.45899 c 0,3.66683 -0.01606,3.74861 -1.367188,6.8457 -0.752096,1.72397 -1.583525,4.17142 -1.847656,5.43945 -0.548416,2.63281 -1.727776,4.52388 -3.373047,5.40625 -0.687024,0.36846 -1.271751,0.54913 -1.800781,0.56641 -0.299246,-0.0163 -0.598905,-0.0675 -0.884766,-0.1582 -0.663709,-0.28669 -1.244654,-0.94332 -1.835938,-2.02735 -0.03963,-0.11545 -0.100928,-0.21523 -0.179687,-0.30273 -0.4177,-0.72619 -0.625596,-0.7594 -2.134766,-0.58203 -4.507312,0.52975 -5.319384,1.59374 -2.501953,3.27734 2.073027,1.23877 3.014649,1.39834 8.283203,1.40234 5.261664,0.004 5.586051,0.18836 6.355469,3.60743 0.176177,0.78287 0.401587,1.47593 0.628906,1.99609 6.83e-4,0.002 0.0052,0.0214 0.0059,0.0234 7.16e-4,0.002 0.01079,0.0113 0.01172,0.0137 0.160973,0.36123 0.32176,0.64876 0.462891,0.76367 2.870173,2.33683 9.503249,7.24134 15.945313,11.79102 4.271632,3.01682 9.383007,6.70576 11.359375,8.19921 1.976368,1.49346 3.814246,2.71866 4.083984,2.72266 0.269734,0.004 2.286205,-0.76941 4.480465,-1.71875 2.19426,-0.94935 9.5326,-3.74653 16.3086,-6.21484 27.22195,-9.91618 38.75855,-14.31332 39.24219,-14.95703 0.21459,-0.28562 0.31313,-1.29405 0.24023,-2.47266 -0.0677,-1.09467 -0.26641,-4.29337 -0.44141,-7.10938 -0.175,-2.816 -1.13268,-14.45479 -2.12695,-25.86328 l -1.80469,-20.71875 c 0.006,-0.0135 0.007,-0.0275 0.0137,-0.041 l 1.61524,-1.64063 c 1.98387,-2.01436 2.62358,-3.45504 2.61328,-5.88672 -0.01,-2.31619 -0.22868,-3.299116 -2.42187,-10.810542 -1.70469,-5.838338 -2.16963,-7.24158 -3.81641,-11.546876 -0.92312,-2.413375 -1.26162,-4.827656 -1.90235,-13.572265 -0.27724,-3.784 -0.80648,-8.821704 -1.17773,-11.195313 -1.12438,-7.188644 -0.61371,-10.095323 3.11719,-17.697265 0.95114,-1.938 1.73047,-3.918905 1.73047,-4.404297 0,-0.02465 -0.01,-0.05284 -0.0117,-0.07813 5.3e-4,-0.0049 0.0117,-0.03141 0.0117,-0.03516 0,-0.0085 -0.019,-0.03432 -0.0234,-0.04687 -0.11466,-0.70379 -1.02782,-1.731103 -4.2168,-4.791016 -7.95499,-7.63303 -12.52978,-11.07165 -18.35742,-13.794922 -4.15508,-1.94168 -7.1088,-2.889603 -17.40234,-5.5878905 -4.84,-1.2687293 -10.0412,-2.6340999 -11.5586,-3.0351563 C 100.1904,5.1514275 95.284779,4.3955411 80.480469,2.4238281 67.89241,0.74728678 61.055664,-0.01596795 55.455078,0.04101562 Z m 4.035156,1.57812498 c 0.456525,0.012167 0.952353,0.1232226 1.449219,0.3496094 1.091731,0.4974274 1.363866,1.4749811 0.613281,2.1972656 -1.325453,1.2754765 -3.770635,0.9897909 -4.140625,-0.484375 -0.313845,-1.2504614 0.708552,-2.0990001 2.078125,-2.0625 z m -7.388672,0.00977 c 0.0948,-0.00774 0.189183,-0.00252 0.283204,0.00391 0.821905,0.1675413 2.015625,1.4175958 2.015625,2.1855469 0,0.3559428 -0.344239,0.8723361 -0.765625,1.1484375 -1.689292,1.1068669 -4.035157,0.8207252 -4.035157,-0.4921875 0,-0.807345 1.691116,-2.6944392 2.501953,-2.8457032 z m 14.882813,1.2519532 c 0.637482,0 1.442534,0.4990033 1.857422,1.0429687 0.137009,0.2544838 0.231125,0.5176154 0.244141,0.7734375 -0.04129,0.222686 -0.169888,0.4999657 -0.34961,0.6796875 -0.465363,0.4653641 -2.443194,0.4876921 -3.216797,0.037109 -1.231187,-0.7171002 -0.180919,-2.5332031 1.464844,-2.5332031 z m -20.162109,0.048828 c 0.382725,-0.00785 0.697844,0.2913427 1.009765,0.8945313 0.586109,1.1334093 0.628591,2.306957 0.103516,2.8320312 -0.465283,0.4652842 -2.125754,0.4879713 -2.896485,0.039063 -0.836173,-0.487027 -0.676897,-1.7024764 0.369141,-2.8222656 0.580572,-0.6215043 1.031337,-0.9355051 1.414063,-0.9433594 z m 25.855468,1.0605469 c 0.180497,0.023782 0.373398,0.075355 0.578125,0.1601562 1.086537,0.450058 1.472241,1.182695 0.951172,1.8105469 -0.479513,0.5777763 -1.258533,0.5565118 -2.136719,-0.058594 -0.522594,-0.3660391 -0.717396,-0.7907956 -0.679687,-1.1484376 0.0011,-0.011038 6.09e-4,-0.022197 0.002,-0.033203 0.07064,-0.4773933 0.568508,-0.8248952 1.285156,-0.7304687 z m -31.720703,0.515625 c 0.188787,-0.00258 0.378101,0.051464 0.5625,0.1660156 0.859206,0.5337513 1.509523,2.0599833 1.132813,2.6621094 C 42.185006,8.0809598 40.858562,8.119611 39.982422,7.4101562 39.325766,6.8784273 39.259488,6.658298 39.527344,5.90625 39.84111,5.0253007 40.390672,4.5136082 40.957031,4.5058594 Z m 37.591797,0.3203125 c 0.801944,-0.018935 1.701596,0.3411539 2.191406,1 0.53318,0.7171853 0.572793,0.9492518 0.232422,1.359375 -0.562967,0.6783316 -1.88597,0.6176357 -3.132812,-0.1425781 -0.40868,-0.2491765 -0.67754,-0.4464915 -0.833985,-0.6308594 -0.08309,-0.3398172 0.0064,-0.6983161 0.220703,-1.0117188 0.02977,-0.032057 0.04086,-0.05602 0.07422,-0.089844 0.01085,-0.01376 0.02578,-0.025538 0.03711,-0.039063 0.301095,-0.2909396 0.738138,-0.4341492 1.210937,-0.4453125 z m 5.871094,1.125 c 0.335646,-0.00967 0.772588,-0.00437 1.347656,0.00391 C 88.08809,5.9884912 89.893996,6.5398352 90.410156,7.375 90.83924,8.0692727 90.226944,9.2136521 89.154297,9.7226562 87.228358,10.636574 85.910213,10.322724 84.212891,8.5488281 83.485573,7.7886978 83.178973,7.1935824 83.251953,6.6777344 83.328665,6.1355715 83.412982,5.9801923 84.419922,5.9511719 Z m 9.914062,1.7871093 c 1.029924,0.060103 2.012495,1.5398684 1.333985,2.3574218 -0.218682,0.263498 -0.437057,0.401122 -0.691407,0.425781 -0.01313,5.75e-4 -0.02587,0.0017 -0.03906,0.002 C 94.678312,10.536269 94.380473,10.436449 94,10.214844 93.374925,9.8507708 93.266027,8.3503397 93.755859,7.9101562 c 0.05426,-0.035128 0.09938,-0.082334 0.158203,-0.109375 0.138268,-0.049955 0.279377,-0.070702 0.419922,-0.0625 z M 56.810547,7.9238281 c 1.223682,0.011501 2.651248,0.050145 4.296875,0.1152344 7.223626,0.2857146 11.704246,0.8292423 19.533203,2.3710935 7.663664,1.509299 25.020185,5.836286 25.556645,6.371094 0.36912,0.367981 0.31535,0.515478 -0.34961,0.951172 -1.54935,1.015173 -5.898599,2.36655 -8.728519,2.71289 -1.541122,0.188611 -3.042732,0.319388 -3.449219,0.302735 -0.04954,-4.65e-4 -0.09889,-0.0032 -0.148438,-0.0039 C 89.730132,20.458826 86.500835,19.740069 81.4375,18.052734 78.620537,17.113992 71.925631,15.270718 66.558594,13.957031 52.499097,10.515693 49.798224,9.5943521 50.8125,8.5800781 51.292111,8.1004675 53.139502,7.889326 56.810547,7.9238281 Z M 31.199219,8 c 1.017821,0 1.646512,0.8063634 1.121093,1.4394531 -0.115681,0.139388 -0.31247,0.2636634 -0.529296,0.3515625 -0.147077,0.027849 -0.306746,0.051244 -0.513672,0.068359 -0.189874,0.015705 -0.356229,0.013454 -0.511719,0.00195 C 30.020798,9.6711247 29.635352,9.0163304 30.080078,8.4804688 30.299178,8.2164687 30.802319,8 31.199219,8 Z m 69.576171,1.0898438 c 1.15699,-0.1246404 2.99848,1.7064032 2.26367,2.5917972 -0.0942,0.113458 -0.19943,0.198688 -0.30859,0.269531 -0.25079,0.0975 -0.55435,0.150594 -0.87109,0.148437 -0.35462,-0.06949 -0.74628,-0.265661 -1.17579,-0.603515 -0.947178,-0.745049 -1.086512,-1.6162758 -0.35351,-2.2246096 0.12785,-0.1061118 0.28003,-0.1638349 0.44531,-0.1816406 z m 7.84766,0.8300781 c 2.48186,0 3.3223,1.9854771 1.4082,3.3261721 -1.00013,0.700517 -1.63825,0.644867 -2.41797,-0.207032 -0.57975,-0.633415 -0.88637,-1.210285 -0.94922,-1.695312 -0.004,-0.03585 -0.009,-0.07204 -0.0117,-0.107422 -0.0434,-0.801654 0.63293,-1.3164061 1.97071,-1.3164061 z M 38.757812,11.199219 c 0.822031,0 1.857953,0.729268 2.279297,1.447265 0.03405,0.06895 0.06774,0.137854 0.09375,0.205078 0.01001,0.02419 0.02095,0.04829 0.0293,0.07227 0.02232,0.06414 0.03412,0.12381 0.04883,0.185547 0.01388,0.08839 0.02509,0.176919 0.0098,0.257813 -0.146512,0.773587 -1.767167,0.856942 -3.119141,0.160156 -0.60552,-0.312074 -1.152503,-0.730116 -1.214843,-0.929688 -0.190304,-0.609245 0.866154,-1.398437 1.873046,-1.398437 z m 77.185548,0.02539 c 1.22967,0.0086 2.45703,0.434558 2.45703,1.103516 0,0.277337 -0.49903,0.713731 -1.10937,0.96875 -1.14347,0.47777 -3.41938,0.627491 -3.79688,0.25 -0.43877,-0.438772 -0.18938,-1.367816 0.49609,-1.849609 0,0 0.002,0 0.002,0 0.47596,-0.332669 1.21406,-0.477781 1.95117,-0.472657 z m -71.015626,0.644532 c 0.513343,0.004 1.057667,0.216154 1.589844,0.634765 0.994345,0.782152 1.090294,1.740732 0.222656,2.205078 -0.783805,0.419483 -2.569251,0.412407 -3.300781,-0.01367 -0.745104,-0.433984 -0.709221,-1.425544 0.08008,-2.214843 0.411299,-0.4113 0.894861,-0.615307 1.408203,-0.611328 z m 77.751956,1.009765 c 0.0591,0.0088 0.11633,0.03013 0.17187,0.06445 0.0917,0.05671 0.174,0.137252 0.23633,0.220703 0.0213,0.06349 0.0449,0.126077 0.0547,0.195313 0.0127,0.0895 0.009,0.154431 0.01,0.224609 -0.18858,0.31773 -0.90105,0.45288 -1.09765,0.134766 -0.23865,-0.386145 0.21117,-0.901268 0.625,-0.839844 z m -72.199221,0.296875 c 0.05649,-9.3e-5 0.130409,0.01814 0.193359,0.02539 0.151989,0.04166 0.335188,0.139781 0.646484,0.34375 0.988234,0.647517 1.093552,1.655913 0.220704,2.123047 -0.709239,0.379573 -1.418512,0.429145 -1.728516,0.11914 -0.360864,-0.360864 -0.236124,-1.552071 0.228516,-2.1875 0.184403,-0.252189 0.300984,-0.387922 0.439453,-0.423828 z m 7.898437,1.544922 c 2.801276,0 3.957767,1.487559 2.21875,2.855469 -0.423269,0.332943 -1.020509,0.59919 -1.40625,0.644531 -0.147798,0.0013 -0.295419,-0.008 -0.443359,-0.02539 -0.831082,-0.187653 -2.132484,-0.967075 -2.712891,-1.669921 -0.08705,-0.105419 -0.146624,-0.191247 -0.191406,-0.273438 -0.0082,-0.02695 -0.02484,-0.05506 -0.03125,-0.08203 -0.01919,-0.08117 -0.02166,-0.161516 -0.02344,-0.242188 0.03318,-0.155259 0.149227,-0.322585 0.376954,-0.574218 0.429699,-0.474813 0.985258,-0.632813 2.21289,-0.632813 z m 7.355469,1.677735 c 0.917217,0.02719 2.298737,0.514141 3.115234,1.183593 0.664797,0.545073 0.694383,0.669117 0.269532,1.076172 -0.532346,0.510045 -2.029142,0.814075 -3.085938,0.626953 -1.536224,-0.272013 -2.186179,-2.017827 -1.023437,-2.75 0.164869,-0.103817 0.41887,-0.145783 0.724609,-0.136718 z m 7.273437,1.521484 c 0.821853,0 3.064087,1.229771 3.283204,1.800781 0.08867,0.231079 -0.05903,0.641062 -0.328125,0.910156 -0.531229,0.53123 -2.11142,0.614881 -3.214844,0.169922 -0.149153,-0.06015 -0.275976,-0.14442 -0.388672,-0.240234 -0.02182,-0.01982 -0.04546,-0.03809 -0.06641,-0.05859 -0.85405,-0.824134 -0.536899,-2.582031 0.714843,-2.582031 z m 40.621098,0.33789 c 0.32354,0.01881 0.61312,0.168804 0.73047,0.47461 0.11109,0.289403 0.12243,0.656289 0.0234,0.816406 -0.099,0.160118 -0.61468,0.291016 -1.14453,0.291016 -0.81602,0 -0.94793,-0.110832 -0.86133,-0.720703 0.0801,-0.563685 0.71272,-0.89267 1.25196,-0.861329 z m -5.08594,0.832032 c 0.95757,-0.04445 1.06584,0.04173 1.15234,0.925781 0.0649,0.663817 -0.11315,1.167009 -0.55664,1.568359 -0.67619,0.611946 -3.51271,1.06707 -3.93945,0.632813 -0.92587,-0.942175 1.31041,-3.032563 3.34375,-3.126953 z m 26.63867,0.363281 c 1.04598,-0.0072 1.63502,0.217787 1.92774,0.691406 0.11672,0.188882 2.948,2.659412 6.29101,5.490235 5.87155,4.971957 8.9196,8.158603 8.91992,9.326172 1.1e-4,0.304643 -0.20402,0.551231 -0.45312,0.55664 -0.0103,-1.02e-4 -0.0264,-0.0073 -0.0371,-0.0078 -0.73103,-0.04853 -4.37557,-2.618386 -8.15039,-5.753907 C 138.24261,25.239604 135.55157,23.72397 132,23.181641 131.01407,23.031088 128.69818,23.50352 121.91992,25.234375 111.6189,27.864782 107.90502,29.034185 105,30.5625 c -2.82041,1.483803 -5.549682,3.666086 -6.910156,5.523438 -1.508093,2.058883 -6.866262,12.625878 -10.259766,20.234374 -3.541033,7.939278 -4.161741,9.155169 -4.800781,9.400391 -0.11694,0.04487 -0.256293,0.07983 -0.390625,0.111328 -0.31411,0.0078 -0.73022,-0.03047 -1.298828,-0.128906 C 79.320335,65.214962 69.9884,62.53523 50.400391,56.810547 c -9.856,-2.880461 -20.907604,-6.043335 -24.558594,-7.029297 -7.026608,-1.897555 -7.702175,-2.129043 -9.601563,-3.292969 -1.709866,-1.047792 -1.587995,-1.688447 0.320313,-1.685547 2.172886,0.0032 4.469759,0.609926 25.199219,6.666016 18.236547,5.327789 29.375723,8.315809 35.974609,9.650391 3.21105,0.649418 3.354303,0.653438 3.876953,0.09766 0.298467,-0.317389 3.126829,-5.617343 6.28711,-11.777344 5.763164,-11.23353 8.603553,-16.209474 10.46289,-18.332031 1.236055,-1.411037 6.630102,-4.062967 11.511722,-5.660156 4.07026,-1.331726 19.00804,-5.072845 22.89843,-5.734375 0.99018,-0.168371 1.78257,-0.255424 2.41016,-0.259766 z m -55.767578,0.505859 c 0.366432,0.0038 0.80789,0.138707 1.28125,0.416016 1.478903,0.866387 1.854981,1.630605 1.083985,2.203125 -1.359145,1.009265 -3.378906,0.05603 -3.378906,-1.595703 0,-0.670472 0.402952,-1.029816 1.013671,-1.023438 z m 21.917968,2.285157 c 0.33668,-0.03542 0.6196,0.330889 0.6875,1.035156 0.0843,0.874259 -0.005,1.041015 -0.56836,1.041015 -0.79978,0 -1.20331,-0.842706 -0.74805,-1.564453 0.20492,-0.324862 0.4269,-0.490466 0.62891,-0.511718 z m -14.818358,0.21875 c 0.65921,0.0028 1.391634,0.233667 1.957031,0.691406 0.821884,0.665389 0.893066,0.839381 0.521485,1.287109 -1.057079,1.273699 -4.820618,0.04991 -4,-1.300781 0.27594,-0.454185 0.862274,-0.680518 1.521484,-0.677734 z m 11.316406,0.976562 c 0.07332,-0.01153 0.142814,-0.0077 0.207031,0.01367 0.527908,0.175751 0.636653,1.142799 0.189453,1.681641 -0.569075,0.685692 -1.585937,0.588029 -1.585937,-0.152344 0,-0.642129 0.676199,-1.462273 1.189453,-1.542969 z m -5.349609,0.326172 c 0.21473,0 0.428289,0.122447 0.798828,0.365234 0.907763,0.594789 1.08466,1.931324 0.294922,2.234375 -0.08654,0.03321 -0.171213,0.05594 -0.25586,0.08008 -0.359962,0.08093 -0.768974,0.104659 -1.164062,0.06836 -0.683501,-0.136514 -1.154428,-0.586444 -1.220703,-1.107422 3.8e-5,-0.142288 0.01632,-0.28733 0.04297,-0.433594 0.09221,-0.291142 0.310324,-0.584423 0.703126,-0.841797 0.370539,-0.242787 0.58605,-0.365234 0.800781,-0.365234 z m 39.794921,0.556641 c 0.58841,-0.0011 1.44642,0.432768 2.40039,1.214843 0.81643,0.669315 3.06791,2.359531 5.00391,3.75586 4.14356,2.988518 5.92962,4.690957 6.91601,6.595703 0.67834,1.309891 0.73522,1.939074 0.97852,10.832031 0.32587,11.910836 0.84022,19.457564 2.82422,41.439453 0.87367,9.680001 1.95342,21.991374 2.40039,27.359374 0.44696,5.368 1.30895,15.30408 1.91406,22.08008 1.26411,14.15569 1.76758,21.13278 1.76758,24.49805 0,2.25929 -0.0407,2.38588 -0.88086,2.81445 -1.95713,0.9983 -39.51244,14.90357 -49.39063,18.28711 -2.31453,0.79279 -4.54308,1.4414 -4.95312,1.4414 -1.355274,0 -1.424008,-0.65996 -2.367188,-22.56054 -0.527079,-12.23868 -1.373881,-21.16184 -6.582031,-69.380861 -1.840429,-17.03938 -3.345703,-31.760796 -3.345703,-32.714844 0,-1.564103 0.308417,-2.341754 3.146484,-7.900391 5.681303,-11.127409 9.158758,-16.388578 12.136718,-18.365234 2.22347,-1.47586 6.96895,-3.558634 11.91602,-5.228516 4.52096,-1.526049 14.72734,-4.165468 16.11523,-4.167968 z m -6.27148,21.568359 c -2.01593,-0.0529 -2.14994,0.301513 -1.21485,1.296875 0.93496,0.995216 2.72565,1.689402 5.79102,2.244141 2.92747,0.529782 8.18009,0.62181 8.47265,0.148437 0.28368,-0.459008 -0.63277,-1.421156 -1.94726,-2.044922 -1.38555,-0.657485 -3.51464,-1.028236 -8.42969,-1.464844 -1.12029,-0.09952 -1.9999,-0.162053 -2.67187,-0.179687 z M 106.92188,50.625 c -0.63456,-0.02841 -1.43373,0.144059 -2.17774,0.527344 -2.40468,1.238804 -6.610345,4.482375 -8.378906,6.283203 -0.236601,0.226119 -0.394757,0.410628 -0.486328,0.560547 -0.231571,0.29075 -0.381569,0.527838 -0.320312,0.626953 0.352368,0.570141 2.141085,-0.04006 4.761716,-1.626953 1.408,-0.852599 3.50939,-2.073592 4.66992,-2.712891 2.42039,-1.333322 3.27272,-2.147745 3.11524,-2.978515 -0.0797,-0.420161 -0.54904,-0.651278 -1.18359,-0.679688 z m 25.45507,3.623047 c -3.31731,0.01005 -5.22001,0.84127 -6.63672,2.900391 -1.58635,2.305683 -1.93045,3.726365 -1.94335,7.998046 -0.0132,4.377827 0.15929,5.93635 1.06054,9.574219 0.72487,2.925926 1.54979,4.447766 2.77149,5.111328 0.4679,0.254144 1.50715,0.46761 2.30859,0.47461 5.29638,0.04657 11.77212,-8.66213 10.28125,-13.826172 -0.21593,-0.747943 -0.82692,-3.017016 -1.35937,-5.041016 -1.68521,-6.405936 -2.40453,-7.203756 -6.48243,-7.191406 z m 1.49414,3.876953 c 0.36273,0.02043 0.69571,0.06873 0.98438,0.148438 2.40032,0.662758 3.68416,3.878249 3.69726,9.255859 0.005,1.992823 -0.13168,2.924773 -0.50585,3.458984 -0.47649,0.680292 -0.55157,0.696494 -1.08594,0.212891 -0.31603,-0.286007 -0.72749,-1.126225 -0.91406,-1.867188 -0.66971,-2.659629 -3.47082,-4.175553 -5.20118,-2.814453 -1.11786,0.879309 -1.63225,2.878851 -1.68945,6.578125 -0.0591,3.824429 -0.38584,4.268044 -1.93359,2.626953 -1.44904,-1.536435 -1.62305,-2.484483 -1.62305,-8.90039 0,-4.925197 0.0524,-5.406548 0.67383,-6.240235 1.02718,-1.378041 5.05854,-2.602019 7.59765,-2.458984 z m -99.570309,1.757812 c 0.244461,-0.004 0.500161,0.0032 0.767578,0.02539 3.203488,0.265661 5.279151,2.907844 5.517579,7.023438 0.146413,2.527306 -0.32861,4.177956 -1.453126,5.0625 -0.316733,0.249142 -0.738923,0.459718 -1.09375,0.566406 -0.274312,0.0385 -0.558706,0.03982 -0.851562,0.0098 -0.818142,-0.191208 -1.999752,-0.804955 -2.755859,-1.472656 -1.43006,-1.262858 -3.610962,-7.610964 -3.222657,-9.378906 0.252979,-1.151803 1.380572,-1.808248 3.091797,-1.835938 z m -5.90039,0.01367 c 0.889074,0.164262 2.091365,4.10262 2.128906,6.97461 0.0256,1.958547 -0.06263,2.411743 -0.484375,2.496094 -0.318953,0.06378 -0.652198,-0.238841 -0.875,-0.792969 -0.67433,-1.677117 -1.319519,-5.050504 -1.324219,-6.917969 -0.0041,-1.602199 0.0732,-1.848726 0.554688,-1.759766 z m 75.886719,0.675782 c -3.48245,-0.0985 -6.570193,1.721678 -7.486329,4.80664 -1.030323,3.469482 -0.188852,8.561793 2.232422,13.501953 1.977917,4.035568 3.376487,5.372146 6.726567,6.431641 2.18891,0.692259 5.21055,0.548884 7.11523,-0.337891 3.70897,-1.726803 3.89467,-4.13092 1.00391,-12.927734 -2.73634,-8.326928 -3.49377,-9.671221 -6.04297,-10.712891 -1.18237,-0.483145 -2.38802,-0.728884 -3.54883,-0.761718 z m -1.2793,4.707031 c 3.0664,0 3.57967,0.0833 4.53711,0.728515 2.80933,1.893208 5.4585,7.284477 5.5332,11.261719 0.0354,1.886205 -0.0447,2.2481 -0.51757,2.34375 -0.57942,0.117216 -0.92913,-0.501948 -1.33203,-2.355469 -0.28763,-1.323223 -1.97889,-3.316525 -3.27344,-3.857421 -0.57951,-0.242134 -1.76848,-0.439453 -2.64063,-0.439453 -2.06025,0 -3.40905,1.056968 -3.91601,3.070312 -0.19511,0.774855 -0.54173,1.408203 -0.77149,1.408203 -0.46968,0 -2.770855,-5.654695 -3.169919,-7.742187 -0.03262,-0.207091 -0.06767,-0.418045 -0.08203,-0.59375 -0.01066,-0.130501 -0.01106,-0.202354 -0.01953,-0.31836 -0.02955,-1.44172 0.515645,-2.740892 1.388672,-3.138672 0.44735,-0.203824 2.344139,-0.367187 4.263669,-0.367187 z m -53.044919,1.351562 c 0.702776,-0.139277 1.332434,2.188558 1.472656,4.519532 0.01466,0.35028 0.02416,0.699055 0.02734,1.037109 -0.0063,0.682336 -0.05178,1.3409 -0.171875,1.890625 -0.345674,1.582282 -1.236496,1.911722 -1.582032,0.583984 -0.129002,-0.495692 -0.242653,-2.482084 -0.251953,-4.414062 -0.01443,-3.003625 0.05865,-3.528558 0.50586,-3.617188 z m 4.580078,0.103516 c 1.301141,-0.03351 3.95552,0.568779 5.486328,1.292969 1.971203,0.932528 3.168898,2.217876 3.636719,3.902344 0.43631,1.570997 0.414316,2.357434 -0.144532,5.03125 -0.366041,1.751325 -0.680039,2.431118 -1.439453,3.11914 -0.374826,0.33959 -0.819597,0.626956 -1.160156,0.773438 -0.308738,0.05081 -0.633067,0.05702 -0.972656,0.0059 -2.282858,-0.625171 -6.128185,-4.3479 -6.996094,-6.960937 -0.76781,-2.311659 -0.371072,-5.735346 0.642578,-6.802735 0.02457,-0.02013 0.0468,-0.04372 0.07227,-0.0625 0.03241,-0.0298 0.06605,-0.05705 0.09961,-0.08203 0.110202,-0.07009 0.235406,-0.119967 0.361328,-0.167969 0.116118,-0.02554 0.249847,-0.0446 0.414063,-0.04883 z m 14.945312,5.046875 c 0.13226,0.02091 0.27709,0.08949 0.425781,0.212891 0.706451,0.5863 1.445313,4.511252 1.445313,7.669921 0,2.811019 -0.280262,3.526146 -0.916016,2.335938 -0.312258,-0.58458 -1.537507,-7.427148 -1.626953,-9.011719 0.01177,-0.327619 0.04275,-0.599968 0.0918,-0.822265 0.119161,-0.283329 0.327,-0.424772 0.580078,-0.384766 z m 5,0.21875 c 0.677261,0 1.971429,0.371051 2.892578,0.830078 5.307334,2.644756 7.780598,11.797367 3.837891,14.201172 -2.179511,1.328809 -5.652344,0.391179 -7.197266,-1.943359 C 73.288745,83.98065 73.18488,83.402882 72.90625,78.806641 72.533437,72.656872 72.686182,72 74.488281,72 Z M 33.279297,85.279297 c 0.264,0 0.805172,0.642441 1.201172,1.427734 0.788378,1.563405 1.01218,5.268561 0.388672,6.433594 -0.182192,0.340429 -0.54643,0.619141 -0.808594,0.619141 -0.795619,0 -1.17434,-1.589531 -1.21875,-5.119141 -0.03514,-2.792125 0.03863,-3.361328 0.4375,-3.361328 z m 6.222656,0.480469 c 2.588947,0 4.011525,1.967582 4.015625,5.552734 0.0021,1.857418 -0.692869,3.447807 -1.980469,4.53125 -1.094358,0.920842 -0.911174,0.912272 -2.976562,0.154297 l -1.599609,-0.587891 0.01758,-3.986328 c 0.02239,-4.935236 0.345677,-5.664062 2.523437,-5.664062 z m 16.744141,8.65625 c 0.07068,0.0064 0.139123,0.01991 0.205078,0.04297 0.127957,0.0664 0.238391,0.204936 0.402344,0.423828 0.753568,1.006077 0.361333,3.115619 -0.939454,5.048829 -0.6177,0.918019 -2.366725,3.036989 -3.886718,4.708979 -4.182579,4.60085 -5.079282,6.0282 -5.248047,8.36133 -0.13454,1.86 -0.08489,2.0198 1.197265,3.83789 0.735962,1.04359 1.546334,2.48781 1.800782,3.20899 0.604169,1.71243 0.599671,3.91999 -0.0098,4.42578 -0.551152,0.45741 -1.42937,-0.009 -3.818359,-2.0293 -1.877587,-1.58784 -2.596122,-1.42594 -2.328125,0.5293 0.102739,0.74957 0.923837,3.6391 1.824218,6.41992 0.955841,2.95211 1.357878,4.16574 1.767579,4.77735 l 0.02344,0.0684 0.02734,0.0137 c 0.268126,0.36723 0.549257,0.49715 0.998047,0.68164 2.827715,1.16241 3.86094,3.45065 1.99414,4.41601 -1.146288,0.59275 -1.967577,0.61994 -2.634765,0.0879 -0.275875,-0.22 -1.717817,-2.05607 -3.205078,-4.08007 -3.090287,-4.20555 -4.767656,-5.93505 -6.363282,-6.0586 -0.0391,-0.003 -0.08298,-0.0215 -0.121093,-0.0215 -0.02132,0 -0.05761,0.0132 -0.08203,0.0156 -0.607493,0.005 -1.212129,0.23152 -1.886718,0.64844 -1.472266,0.90991 -1.844574,0.57443 -1.607422,-1.44336 0.320151,-2.72398 1.340912,-5.1703 4.611328,-11.06055 1.71009,-3.08 3.571845,-6.9261 4.136719,-8.54687 0.564874,-1.62077 1.240161,-3.36094 1.501953,-3.86719 1.403325,-2.71373 7.605128,-8.748398 10.382812,-10.103515 0.681459,-0.332456 1.024032,-0.496174 1.257813,-0.505859 z m -1.796875,3.183593 c -0.148992,0 -1.26224,0.833015 -2.472657,1.84961 -4.940421,4.149311 -8.206692,9.323311 -8.730468,13.830081 -0.153404,1.32 -0.166215,2.70256 -0.0293,3.07031 0.136919,0.36776 0.929847,1.26776 1.761719,2 1.369738,1.20565 2.060546,1.60047 2.060546,1.17578 10e-7,-0.0855 -0.50314,-1.10643 -1.11914,-2.26758 -2.308871,-4.35216 -1.429653,-6.71741 5.570312,-14.99804 2.954783,-3.495406 3.693536,-4.660161 2.958985,-4.660161 z m 71.169921,0.740235 c -0.11386,-0.0056 -0.17969,0.06471 -0.17969,0.220703 0,0.165056 0.3057,0.883886 0.67774,1.597653 0.57528,1.10369 0.64184,1.60691 0.45312,3.36914 -0.18802,1.75567 -0.14593,2.07227 0.27539,2.07227 0.58651,0 1.33503,-1.32993 1.62891,-2.89649 0.17874,-0.95275 0.046,-1.32796 -0.91602,-2.58789 -0.81303,-1.064804 -1.59786,-1.758637 -1.93945,-1.775386 z m -82.115234,1.330078 c 0.169398,0.104692 0.09327,0.754058 -0.179687,1.535158 -0.260298,0.74487 -0.946895,2.3637 -1.525391,3.5957 -0.919533,1.9583 -1.08079,2.14778 -1.289062,1.50977 -0.169939,-0.52058 -0.0023,-1.13293 0.585937,-2.13672 0.453571,-0.77395 0.825532,-1.66958 0.826172,-1.99024 0.0016,-0.80069 1.220297,-2.737232 1.582031,-2.513668 z m 30.091797,0.24414 c 0.143451,-0.0018 0.312608,0.09782 0.509766,0.294918 0.716234,0.71604 1.063408,2.7291 1.080078,6.25977 0.01227,2.59601 -0.06055,2.98766 -0.605469,3.2793 -1.005971,0.53838 -1.922474,0.3832 -2.701172,-0.45703 -0.709312,-0.76536 -1.478515,-2.74714 -1.478515,-3.8086 0,-0.24737 0.02564,-0.39376 0.109375,-0.45703 0.05119,-0.008 0.115937,-0.0107 0.177734,-0.0137 0.150879,0.018 0.362584,0.10249 0.714844,0.29101 1.1032,0.59042 1.557,-0.1483 1.5625,-2.54101 0.0044,-1.92454 0.200508,-2.842154 0.630859,-2.847658 z m 4.595703,0.0078 c 0.302155,0.0038 0.680137,0.133175 1.359375,0.392575 2.644231,1.00984 4.289063,4.29199 4.289063,8.55469 0,2.43913 -0.574039,4.18234 -1.550782,4.70508 -0.322193,0.17243 -0.586945,0.27323 -0.84375,0.30469 -0.05673,0.001 -0.112596,0.008 -0.169921,0.006 -0.01238,-6e-5 -0.0247,4e-4 -0.03711,0 -0.05463,-0.003 -0.110964,-0.0136 -0.166015,-0.0195 -0.34308,-0.052 -0.71274,-0.22301 -1.232422,-0.54687 -2.722064,-1.69635 -3.359375,-3.44191 -3.359375,-9.19531 0,-3.18347 0.03079,-3.32758 0.80664,-3.83594 0.375874,-0.24626 0.602143,-0.368999 0.904297,-0.365235 z M 62.955078,110.87305 c 0.900197,0.0646 1.739559,0.58169 2.427734,1.51172 0.53058,0.71704 0.56882,0.95128 0.228516,1.36132 -0.126758,0.15274 -0.302275,0.25854 -0.503906,0.33594 -0.203933,0.037 -0.452001,0.0656 -0.78711,0.0859 -0.185285,0.0112 -0.368507,0.005 -0.550781,-0.002 -1.703046,-0.21089 -3.727215,-1.40167 -3.089843,-2.41211 0.183093,-0.29027 0.793725,-0.6469 1.357421,-0.79297 0.310138,-0.0804 0.617904,-0.10943 0.917969,-0.0879 z m -22.576172,9.53906 c -0.227475,-0.008 -0.50207,0.21034 -1.042968,0.72461 -0.546158,0.51927 -1.204898,1.34777 -1.462891,1.8418 -0.42138,0.8069 -0.409537,1.01843 0.109375,2.07617 0.317706,0.64761 1.435155,1.8628 2.482422,2.70117 2.023478,1.61985 2.735822,1.87213 2.732422,0.96484 -0.004,-1.06624 -1.958641,-7.60228 -2.41211,-8.06445 -0.148831,-0.15169 -0.269764,-0.23912 -0.40625,-0.24414 z m 35.164063,3.86523 c 0.803002,-0.0487 1.576172,1.93188 1.576172,4.49805 0,1.14137 -0.163442,2.43249 -0.363282,2.87109 -0.500784,1.09909 -1.126941,1.25789 -1.707031,0.42969 -0.64931,-0.92702 -0.692087,-6.55481 -0.05664,-7.42383 0.179219,-0.24509 0.365472,-0.36376 0.550781,-0.375 z m 4.919922,1.47266 c 1.351761,-0.0781 2.817489,0.95906 3.552734,2.71875 1.120323,2.68131 0.284532,7.68522 -1.492187,8.92969 -0.461333,0.32312 -0.744528,0.48175 -1.015626,0.46289 -0.05396,-0.009 -0.107863,-0.0209 -0.162109,-0.0352 -0.266849,-0.0919 -0.551879,-0.3593 -1.011719,-0.85156 -1.236352,-1.32352 -1.773437,-3.49402 -1.773437,-7.16016 0,-2.7439 0.07919,-3.20286 0.621094,-3.59961 0.394068,-0.28851 0.830663,-0.43882 1.28125,-0.46484 z m 121.093749,8.12695 c -0.30238,0.0252 -0.64733,0.22731 -1.33594,0.63086 -1.7098,1.00201 -4.06054,3.51017 -4.06054,4.33203 0,0.33739 0.28776,1.54704 0.64062,2.68946 l 0.58789,1.89843 c 0.004,0.14558 -0.006,0.30998 -0.0156,0.47461 l -1.20899,5.10157 c -0.71482,3.01809 -1.27925,6.213 -1.28125,7.25 -0.004,2.26856 0.88749,5.97888 1.49219,6.21093 0.25355,0.0973 1.18535,-0.53008 2.17578,-1.46679 1.0854,-1.02653 2.02121,-1.56888 2.84961,-1.625 0.2934,0.014 0.57676,0.0543 0.84375,0.13281 0.71176,0.27434 1.34274,0.97238 1.92578,2.11523 0.70555,1.38299 1.11863,1.60545 1.46094,0.53516 0.007,-0.0227 0.0146,-0.0438 0.0215,-0.0684 0.14549,-0.48321 0.28169,-1.18056 0.41993,-2.16797 0.22961,-1.64018 0.38081,-2.80838 0.46679,-3.78906 0.0227,-0.20423 0.0403,-0.4142 0.0488,-0.625 0.0692,-1.20092 -0.002,-2.14126 -0.23828,-3.33398 -0.006,-0.0262 -0.009,-0.0662 -0.0156,-0.0898 -0.16385,-0.80831 -0.39796,-1.74394 -0.71679,-2.98242 -0.89678,-3.48332 -1.40861,-6.09352 -1.56836,-8.08008 -0.0106,-0.41859 -0.0248,-0.78577 -0.0293,-1.29492 -0.002,-0.19026 -0.006,-0.27018 -0.008,-0.44336 0.0181,-0.44012 0.0545,-0.85489 0.12305,-1.21875 0.3639,-1.93145 -0.0221,-2.89753 -1.4961,-3.75586 -0.52026,-0.30295 -0.77965,-0.45485 -1.08203,-0.42969 z m -146.685546,1.80274 c 0.532855,0 1.581638,2.68668 2.060547,5.27734 0.197846,1.07025 0.301641,2.07249 0.332031,3.00977 0.0039,0.1434 0.0083,0.28656 0.0098,0.42968 0.0162,2.92077 -0.795236,5.08062 -2.357422,6.03321 -1.119488,0.68264 -1.170242,0.69285 -1.691407,0.36133 -0.283446,-0.1803 -0.226427,-1.7939 0.230469,-6.63477 0.733024,-7.76643 0.850925,-8.47656 1.416016,-8.47656 z m 6.564453,1.75976 c 0.815676,0 1.401772,1.80201 1.509765,4.64063 0.132312,3.47777 -0.537239,5.57846 -2.113281,6.63281 -1.267273,0.84779 -1.729528,0.90061 -2.259765,0.26172 -0.544601,-0.65621 2.155809,-11.53516 2.863281,-11.53516 z m -19.289063,0.10547 c 0.529478,0.0769 1.147875,0.89868 1.958985,2.43555 0.769567,1.45814 0.855469,1.95635 0.855469,4.98047 -10e-7,3.02901 -0.08591,3.52063 -0.861329,4.99023 -0.473082,0.8966 -1.192691,1.84297 -1.599609,2.10352 -1.2888,0.82523 -1.752437,0.86879 -2.753906,0.25976 -0.95351,-0.57987 -2.626953,-3.01003 -2.626953,-3.81445 0,-0.22201 0.537097,-1.27271 1.193359,-2.33594 0.790723,-1.28107 1.467937,-3.02405 2.007812,-5.16601 0.610134,-2.42071 1.145416,-3.55204 1.826172,-3.45313 z m 84.824216,2.1211 c -1.0509,0.0392 -1.98519,0.41624 -2.91601,1.14843 -2.42684,1.90895 -0.6116,6.45382 3.36914,8.4375 1.98053,0.98694 3.56609,1.05047 4.95898,0.20117 4.14598,-2.52795 2.25338,-7.86353 -3.36914,-9.49804 -0.73854,-0.2147 -1.41242,-0.31261 -2.04297,-0.28906 z m -107.914059,1.20312 c -0.454367,-0.0184 -0.938859,0.0586 -1.486329,0.22266 -1.016266,0.30448 -1.593173,0.63846 -1.896484,1.43945 l -0.154297,0.13281 0.0098,0.43164 c -0.165584,0.84523 -0.171714,2.06131 -0.08984,3.95703 l 0.173828,3.98633 -1.152343,2.32032 c -1.013474,2.04345 -1.150038,2.60713 -1.148438,4.7207 0.0019,2.57736 1.026495,6.32563 1.935547,7.08008 0.411445,0.34147 0.58576,0.28569 1.060547,-0.34375 0.473451,-0.62763 0.760022,-0.72294 1.724609,-0.56641 0.63637,0.10327 1.770803,0.62265 2.521485,1.1543 1.913791,1.3554 1.988506,1.32795 1.853515,-0.69922 -0.03278,-0.49225 0.336967,-1.6448 0.822266,-2.56055 1.174154,-2.2156 1.137702,-4.51667 -0.160157,-10.03515 -0.700089,-2.97676 -0.990234,-5.01108 -0.990234,-6.9375 0,-2.57032 -0.04805,-2.76445 -0.851562,-3.39649 -0.741185,-0.58302 -1.414597,-0.87551 -2.171875,-0.90625 z m 31.130859,0.9043 c 0.454387,0.0606 0.87673,0.376 1.164062,0.93164 0.997675,1.92929 0.340533,5.28438 -1.464843,7.47461 -1.165097,1.41344 -1.927227,1.87026 -2.513672,1.50781 -0.909117,-0.56186 0.252122,-7.9889 1.457031,-9.32031 0.417783,-0.46165 0.903035,-0.65433 1.357422,-0.59375 z m 77.63477,1.64844 c 0.3736,-0.0236 0.8268,0.0646 1.32421,0.30859 1.33016,0.6525 1.71641,1.48204 0.95313,2.04883 -0.26071,0.19359 -0.50645,0.31495 -0.75,0.3789 -0.24416,0.0415 -0.49827,0.0311 -0.75195,-0.004 -0.3181,-0.0879 -0.65438,-0.27861 -1.03516,-0.57813 -1.2659,-0.99576 -0.86105,-2.08366 0.25977,-2.15429 z m -85.082036,0.58398 c -0.532471,-0.0224 -1.210192,0.67648 -1.986328,2.07422 -1.187194,2.138 -1.360706,3.48125 -0.513672,3.97461 1.062045,0.61858 1.981973,0.38966 2.613282,-0.64844 0.778288,-1.27979 1.101401,-3.46184 0.677734,-4.57617 -0.204207,-0.5371 -0.471533,-0.81078 -0.791016,-0.82422 z m 132.798826,0.084 c -0.52708,-0.0196 -1.04173,0.0572 -1.48828,0.24219 -0.87341,0.36178 -1.36044,0.72696 -1.625,1.5918 l -0.36133,0.36133 0.10547,1.96484 c -0.0199,0.61405 -0.0382,1.22305 -0.0312,2.08594 0.0322,4.01448 0.005,4.18711 -1.00195,6.33594 -1.44787,3.09021 -1.55934,5.35346 -0.43945,8.94531 0.46896,1.50412 1.06944,2.8184 1.33398,2.91992 0.26454,0.10151 0.80669,-0.12182 1.20508,-0.49609 1.00041,-0.93984 1.71511,-0.85864 3.73828,0.42968 0.95984,0.61122 1.88845,1.06406 2.06445,1.00586 0.17596,-0.0582 0.27997,-0.71755 0.23047,-1.46679 -0.0645,-0.97647 0.11606,-1.69351 0.63672,-2.52735 1.00506,-1.60955 0.98537,-5.76373 -0.0469,-9.80273 -0.45151,-1.76666 -0.79894,-4.27463 -0.89844,-6.48828 -0.15117,-3.36336 -0.21511,-3.6519 -0.95313,-4.23243 -0.67865,-0.53382 -1.59028,-0.83645 -2.46875,-0.86914 z m -120.160154,0.23047 c -0.186387,0 -0.339844,0.14432 -0.339844,0.32031 0,0.176 0.06497,0.32032 0.142579,0.32032 0.07761,0 0.229116,-0.14432 0.33789,-0.32032 0.108774,-0.176 0.04576,-0.32031 -0.140625,-0.32031 z m -49.1542966,8.62891 c -0.4403027,0.0319 -0.9173998,0.25953 -1.4140625,0.64844 -0.010127,0.005 -0.021182,0.008 -0.03125,0.0137 -0.4207699,0.22519 -0.7704285,0.60485 -1.0820313,1.17773 -0.9365573,1.3882 -1.3950979,3.5597 -1.9277344,8.6543 -0.2808298,2.6861 -0.77854861,5.74801 -1.10742182,6.80469 l -0.51953126,1.67383 -0.09960937,0.22265 0.07617187,0.15625 0.81835938,1.9375 c 0.4800275,1.1378 1.1353729,2.35941 1.4570312,2.71484 0.7512643,0.83014 0.7699618,0.82949 3.015625,-0.34765 l 1.6152344,-0.84766 c 0.1714638,-0.0294 0.3376185,-0.0431 0.4980469,-0.041 l 1.2714844,0.63476 c 1.2722771,0.6354 1.5308481,0.67501 1.8046871,0.27539 0.861444,-1.25711 -0.6237705,-16.14399 -2.1289059,-21.33984 -0.4675912,-1.61416 -1.2697173,-2.40866 -2.2460937,-2.33789 z m 53.3554686,18.98633 c -0.46557,0.0316 -1.183792,0.64706 -3.40625,2.43554 -2.343754,1.88611 -2.456605,2.25699 -1.433594,4.72461 0.366659,0.88443 0.310448,1.69484 -0.439453,6.24024 -0.88015,5.3349 -1.107279,10.13467 -0.548828,11.60351 0.182219,0.47925 0.369231,0.72509 0.634766,0.75977 l 0.04883,0.0859 0.117187,-0.0918 c 0.285361,-0.0486 0.653392,-0.2866 1.185547,-0.73438 1.347789,-1.13409 2.302334,-1.27907 4.451172,-0.68164 1.034861,0.28771 2.161109,0.52344 2.503906,0.52344 1.254858,0 1.236746,-1.23705 -0.160156,-10.56055 -0.435094,-2.904 -0.89453,-7.06442 -1.021484,-9.24609 -0.222025,-3.81553 -0.265226,-3.99245 -1.095703,-4.61133 -0.369027,-0.275 -0.556596,-0.46621 -0.835938,-0.44726 z m 104.220702,4.27929 c -0.35187,-0.005 -0.78774,0.26095 -1.55078,0.89844 -0.72836,0.60853 -1.89779,1.42696 -2.59766,1.82031 -1.54781,0.86992 -1.76064,1.58267 -1.24804,4.18555 0.34523,1.75302 0.3071,2.56827 -0.31446,6.60352 -0.83517,5.42205 -0.97899,9.98928 -0.36132,11.48046 0.23628,0.57045 0.50249,1.03711 0.59179,1.03711 0.0893,0 0.72051,-0.50509 1.40235,-1.12109 1.38806,-1.25403 1.90656,-1.32587 4.54492,-0.63867 3.18092,0.82853 3.09389,0.89482 3.08789,-2.32031 -0.003,-1.54 -0.29501,-4.8153 -0.64844,-7.2793 -0.35343,-2.464 -0.76855,-6.46653 -0.92383,-8.89258 -0.28137,-4.39592 -0.47311,-5.05353 -1.65039,-5.68359 -0.10748,-0.0575 -0.21474,-0.0883 -0.33203,-0.0898 z"
       id="path30"
       inkscape:connector-curvature="0" />
  </g>
</svg>
