<?xml version="1.0" encoding="UTF-8" standalone="no"?>
<svg
   xmlns:dc="http://purl.org/dc/elements/1.1/"
   xmlns:cc="http://creativecommons.org/ns#"
   xmlns:rdf="http://www.w3.org/1999/02/22-rdf-syntax-ns#"
   xmlns:svg="http://www.w3.org/2000/svg"
   xmlns="http://www.w3.org/2000/svg"
   xmlns:sodipodi="http://sodipodi.sourceforge.net/DTD/sodipodi-0.dtd"
   xmlns:inkscape="http://www.inkscape.org/namespaces/inkscape"
   version="1.1"
   id="svg20"
   width="271.99371"
   height="313.754"
   viewBox="0 0 271.99371 313.75399"
   sodipodi:docname="housy_happy.svg"
   inkscape:version="1.0.1 (1.0.1+r75)"
   inkscape:export-filename="/media/chemo/DATA/Coding/Sammel-App/Sammel-App/sammel_app/assets/images/housy_happy.png"
   inkscape:export-xdpi="448"
   inkscape:export-ydpi="448">
  <metadata
     id="metadata26">
    <rdf:RDF>
      <cc:Work
         rdf:about="">
        <dc:format>image/svg+xml</dc:format>
        <dc:type
           rdf:resource="http://purl.org/dc/dcmitype/StillImage" />
        <dc:title></dc:title>
      </cc:Work>
    </rdf:RDF>
  </metadata>
  <defs
     id="defs24" />
  <sodipodi:namedview
     pagecolor="#ffffff"
     bordercolor="#666666"
     borderopacity="1"
     objecttolerance="10"
     gridtolerance="10"
     guidetolerance="10"
     inkscape:pageopacity="0"
     inkscape:pageshadow="2"
     inkscape:window-width="1848"
     inkscape:window-height="1016"
     id="namedview22"
     showgrid="false"
     inkscape:zoom="1.1040419"
     inkscape:cx="135.95538"
     inkscape:cy="156.81167"
     inkscape:window-x="72"
     inkscape:window-y="27"
     inkscape:window-maximized="1"
     inkscape:current-layer="g30"
     inkscape:document-rotation="0"
     fit-margin-top="50"
     lock-margins="true"
     fit-margin-left="50"
     fit-margin-right="50"
     fit-margin-bottom="50" />
  <g
     id="g30"
     transform="translate(49.875374,49.931671)">
    <path
       style="display:inline;fill:#800080;stroke-width:0.32"
       d="M 45.986328,0.06835937 C 45.387162,0.06739412 44.735655,0.08915584 44.054688,0.12304688 40.222165,0.18797467 36.939456,0.6094374 32.640625,1.3222656 26.238129,2.3839217 17.760607,4.9497456 16.289062,6.2714844 16.008527,6.5234607 15.59552,7.5548755 15.371094,8.5644531 14.759375,11.316265 13.488473,14.30678 9.8027344,21.671875 c -1.8354643,3.667751 -3.7180502,7.600152 -4.1835938,8.738281 -0.4655437,1.138128 -1.7300152,3.837388 -2.8105468,5.998047 -1.84406439,3.68744 -1.97354598,4.093963 -2.1054688,6.607422 -0.12966784,2.470493 -0.0697327,2.80438 0.7617188,4.332031 0.4956625,0.910694 1.4038219,2.098074 2.0195312,2.638672 0.9633088,0.845799 1.2909727,1.547352 2.3398438,5.019531 1.6711485,5.532166 3.368187,13.20425 5.8476562,26.433594 1.154521,6.16 2.23859,11.528546 2.410156,11.929688 0.171566,0.401142 0.637727,0.854583 1.035157,1.007812 0.872537,0.336406 0.735782,0.388648 -2.873047,1.074219 -3.7644301,0.71513 -7.1500096,2.433469 -9.5371098,4.839848 -2.43995075,2.45965 -2.88510936,3.74688 -2.4179687,7.01171 0.18079612,1.26357 0.4022191,4.9608 0.4921875,8.2168 0.18289213,6.61896 0.6319684,9.26263 2.0449219,12.03906 3.0819522,6.056 9.9200831,7.54415 17.4062501,3.78711 1.237639,-0.62113 2.319867,-1.06096 2.404297,-0.97656 0.08443,0.0844 -0.154393,0.58482 -0.529297,1.11133 -2.872306,4.03378 -1.847942,10.38968 2.447266,15.19141 0.819853,0.91653 1.048978,1.41091 0.892578,1.92187 -0.658924,2.15271 -0.761729,3.25045 -0.587891,6.31641 l 0.193359,3.39062 -1.365234,2.96094 c -1.137748,2.46992 -1.336837,3.19431 -1.205078,4.36328 0.183032,1.62385 2.186278,7.16688 2.591797,7.17188 0.15067,0.002 0.550751,-0.34776 0.888672,-0.77735 0.337921,-0.4296 0.889902,-0.86909 1.228515,-0.97656 0.636267,-0.20194 2.160336,0.44446 3.492188,1.48242 1.202829,0.9374 1.510543,0.75064 1.533203,-0.92578 0.01363,-1.00795 0.371852,-2.27322 1.060547,-3.75586 0.933422,-2.00949 1.021983,-2.45532 0.882812,-4.40039 -0.186989,-2.61343 0.233271,-2.82458 1.589844,-0.80469 0.450693,0.67106 0.836248,1.08725 1.208984,1.29102 0.01897,0.0122 0.04663,0.0407 0.0625,0.0469 0.0071,0.003 0.02491,-0.004 0.0332,-0.002 0.486925,0.21714 0.956085,0.0608 1.515624,-0.46484 0.577077,-0.54217 0.983513,-0.66018 1.732422,-0.50782 0.537856,0.10943 1.40671,0.28701 1.931641,0.39453 0.812669,0.16647 0.99935,0.0756 1.259766,-0.60937 0.812797,-2.13782 1.625,-0.79244 1.625,2.69141 0,1.37008 -0.429621,4.189 -1.109375,7.27539 -0.610301,2.77103 -1.201972,5.8349 -1.316407,6.80859 -0.19384,1.64925 -0.143144,1.84405 0.746094,2.86328 0.524992,0.60175 1.051359,1.40506 1.169922,1.78516 0.46048,1.4763 1.052636,1.55073 2.429687,0.30664 1.546525,-1.39719 2.551202,-1.47322 4.214844,-0.32031 2.078147,1.44015 2.185547,1.19705 2.185547,-4.92969 0,-8.01084 0.890895,-10.30664 3.998047,-10.30664 1.496128,0 3.546975,0.82649 4.298828,1.73242 0.704563,0.84894 0.133917,1.96916 -1.554687,3.05273 -0.870615,0.55867 -1.642314,1.18591 -1.714844,1.39453 -0.07253,0.20864 0.06313,0.93702 0.300781,1.61915 0.719712,2.06579 0.530739,5.11432 -0.568359,9.16015 -1.18944,4.37839 -1.363222,7.29475 -0.492188,8.25977 0.322915,0.35776 0.665459,1.23742 0.761719,1.95508 0.213751,1.59363 0.664463,1.64631 1.609375,0.1875 1.049104,-1.61966 1.964723,-1.71874 4.404297,-0.48047 1.126022,0.57154 2.246961,0.96128 2.492187,0.86718 0.378672,-0.1453 0.769724,-2.68954 0.94336,-6.14843 0.0088,-0.176 -0.07543,-1.76149 -0.1875,-3.52149 -0.242301,-3.8051 0.08055,-4.96874 1.751953,-6.31445 2.159146,-1.73844 4.842828,-1.76845 5.271484,-0.0606 0.116749,0.46515 -0.02272,2.26298 -0.310547,3.9961 -0.723533,4.35662 -0.686977,6.9083 0.119141,8.23046 0.352349,0.57791 0.861614,1.13498 1.130859,1.23829 0.269245,0.10332 1.329666,-0.18916 2.357422,-0.65039 2.252698,-1.01095 2.68408,-1.03039 4.060547,-0.17969 l 1.066406,0.66015 0.1875,-0.90039 c 0.439044,-2.11412 0.93733,-3.32011 1.646485,-3.98632 1.035837,-0.97312 1.475423,-0.4602 1.759765,2.05664 0.123683,1.09476 0.350075,2.56748 0.501954,3.27148 0.35869,1.66265 0.03425,3.35536 -1.347657,7.04492 -1.512806,4.03906 -1.562533,6.33588 -0.166015,7.67383 0.712042,0.68218 0.961643,1.2149 0.964843,2.06055 0.0024,0.62707 0.09114,1.46337 0.197266,1.85937 0.106121,0.396 0.241761,0.72071 0.300781,0.72071 0.05902,0 0.552747,-0.64746 1.097656,-1.43946 1.293902,-1.88062 2.312218,-1.93855 4.238282,-0.24023 0.748506,0.66 1.461552,1.33886 1.583984,1.50976 0.485731,0.67804 0.638549,-0.20603 0.28125,-1.625 -0.370109,-1.46983 -0.356826,-1.52154 0.644531,-2.55468 1.472224,-1.51895 1.586896,-3.35555 0.449219,-7.22266 -1.40311,-4.76935 -1.579588,-5.8917 -1.15039,-7.32422 0.413353,-1.37966 1.18889,-1.66268 2.089843,-0.76172 0.544487,0.54448 0.762191,1.27848 0.896485,3.01563 0.115888,1.49908 0.863452,1.57226 1.765625,0.17187 1.047333,-1.6257 1.960403,-1.72775 4.402343,-0.48828 1.12602,0.57154 2.25035,0.96219 2.49805,0.86719 0.55203,-0.21183 0.9822,-3.75949 0.9082,-7.48828 -0.0286,-1.44094 0.0782,-2.69918 0.23633,-2.79688 0.15813,-0.0977 1.16724,0.76299 2.24219,1.91211 1.77923,1.90201 1.95313,2.21376 1.95313,3.49414 -1e-5,0.77355 -0.43099,2.57971 -0.95899,4.01172 -1.09306,2.96453 -1.18394,4.0186 -0.43359,5.08984 0.29022,0.41435 0.77847,1.56197 1.08398,2.55079 0.70565,2.28396 1.4381,2.53604 1.81641,0.62304 0.21292,-1.07664 0.45474,-1.44086 1.11719,-1.67383 1.20616,-0.42419 3.24316,0.43393 5.29687,2.23047 1.39436,1.21975 1.7148,1.37848 1.88477,0.93555 0.11256,-0.29333 0.0473,-1.04488 -0.14454,-1.66992 -0.29241,-0.95277 -0.24754,-1.33436 0.2754,-2.35938 0.77517,-1.51946 0.81666,-4.21541 0.11328,-7.22656 -0.28265,-1.20992 -0.45146,-2.98521 -0.38086,-3.98828 0.10498,-1.49104 0.31326,-2.0177 1.18945,-3.01562 1.65192,-1.88144 1.99958,-3.0802 2.26953,-7.81641 0.13543,-2.376 0.34774,-4.57286 0.47266,-4.88086 0.3365,-0.82967 1.37061,-0.68224 2.84765,0.40625 0.72122,0.53149 2.03211,1.44494 2.91211,2.0293 3.94498,2.61966 4.826,7.37759 2.01172,10.86523 l -0.72656,0.89844 1.27734,2.40625 c 0.70253,1.32257 1.38154,2.47219 1.50977,2.55469 0.12823,0.0825 0.65909,-0.1659 1.17969,-0.55079 1.11017,-0.82079 2.32046,-0.72564 5.01367,0.39063 1.32923,0.55094 1.8008,0.62347 2.15429,0.33008 0.72731,-0.6036 0.86361,-2.88784 0.375,-6.30664 -0.56322,-3.94072 -0.58739,-6.49578 -0.0703,-7.375 0.21741,-0.36967 1.07686,-1.56994 1.91016,-2.66797 1.01756,-1.34083 1.7949,-2.85547 2.36914,-4.60938 0.75575,-2.30815 0.85611,-3.11339 0.85547,-6.93164 -3.5e-4,-2.376 -0.23521,-6.0462 -0.52149,-8.1582 -0.73775,-5.4426 -4.57806,-48.74421 -5.6875,-64.132813 -0.35783,-4.96335 -0.34554,-5.27564 0.20703,-5.679688 0.76816,-0.561689 2.31757,-0.539505 6.01954,0.08594 2.92931,0.494905 3.11747,0.489185 5.2207,-0.136719 1.20006,-0.35713 2.8925,-0.74431 3.76172,-0.861328 3.97293,-0.534857 8.63538,-2.883915 11.2832,-5.683594 1.96792,-2.080781 2.48462,-3.039516 3.00977,-5.582031 0.33285,-1.61151 0.32879,-2.211573 -0.0234,-3.347656 -1.39552,-4.501187 -6.24175,-10.763888 -13.68945,-17.691407 l -3.28125,-3.050781 h -1.70118 c -2.22721,0 -4.04109,0.565453 -8.69726,2.710938 -2.11179,0.973075 -4.21882,1.767578 -4.68164,1.767578 -0.80253,0 -0.85694,-0.110759 -1.19922,-2.412109 -0.1974,-1.327187 -0.35652,-3.81072 -0.35352,-5.519532 0.01,-5.576237 1.24127,-9.336619 4.23633,-12.935547 l 1.60938,-1.935547 -0.85157,-1.738281 c -1.2103,-2.467756 -3.25093,-4.512158 -8.18554,-8.203125 -2.3678,-1.771058 -5.17604,-4.065354 -6.24024,-5.097656 -4.2611,-4.133384 -9.87173,-6.538236 -22.89453,-9.8144531 C 102.31192,8.7153625 97.272703,7.3361826 94.720703,6.5585938 90.528751,5.2813152 88.814044,4.9738212 76.960938,3.3847656 62.487292,1.4443944 54.314396,0.44536369 48.224609,0.18359375 48.027918,0.1682949 47.69711,0.13176047 47.517578,0.11914062 47.049174,0.08621507 46.536934,0.0692464 45.986328,0.06835937 Z M 41.027344,1.5996094 c 0.341804,0 1.049049,0.427957 1.572265,0.9511718 0.812576,0.8125765 0.898775,1.0497094 0.589844,1.6269532 -0.198919,0.3716848 -0.849133,0.8798061 -1.445312,1.1289062 -2.321978,0.9701833 -3.89879,0.2652067 -3.292969,-1.4726562 0.387632,-1.1119593 1.680543,-2.234375 2.576172,-2.234375 z m 6.83789,0.066406 c 2.898278,-0.1690583 4.033629,1.7845427 1.728516,2.9765625 -2.052637,1.0614601 -3.618548,0.2804682 -3.451172,-1.7226562 0.09645,-1.1543225 0.104691,-1.1595293 1.722656,-1.2539063 z m 7.904297,0.9472656 c 0.3908,-0.019883 0.761185,0.2267683 1.304688,0.7304688 1.007977,0.9341634 1.056571,1.321418 0.226562,1.765625 C 56.33928,5.6239545 54.219829,5.5134735 53.730469,4.9238281 53.360591,4.4781532 53.442779,4.2824101 54.335938,3.484375 54.966531,2.92094 55.378731,2.633164 55.769531,2.613281 Z M 35.59375,2.707031 c 0.207169,0.049781 0.422674,0.2066985 0.726562,0.4921876 1.035089,0.9724143 1.161769,1.7811395 0.425782,2.7167968 -0.474976,0.6038329 -0.93189,0.8046875 -1.835938,0.8046875 -0.661895,0 -1.298683,-0.09751 -1.416015,-0.2148437 C 32.850746,5.8624649 33.784372,3.46592 34.914062,2.8613279 35.188046,2.7146961 35.386581,2.6572504 35.59375,2.707031 Z m 25.089844,0.9707032 c 0.723478,0.014255 2.836163,0.9236712 3.146484,1.4257812 0.127955,0.2070339 -0.0196,0.6551844 -0.328125,0.9960938 -0.694243,0.7671305 -2.45637,0.8190207 -3.181641,0.09375 -0.524035,-0.5240342 -0.443985,-1.8555213 0.148438,-2.4628906 0.03739,-0.038329 0.11149,-0.054771 0.214844,-0.052734 z M 29.724609,4.2636719 c 0.135368,-0.00365 0.271141,0.048582 0.40625,0.1035156 L 30.623047,4.9375 c 0.537177,0.6245046 0.7416,1.2034956 0.673828,1.9003906 -0.07773,0.799311 -0.258241,1.0195489 -0.896484,1.0917969 -1.019099,0.1153604 -2.240235,-0.7359317 -2.240235,-1.5625 0,-0.3500198 0.380864,-1.0156298 0.845703,-1.4804687 l 0.601563,-0.6035157 c 0.03912,-0.00667 0.07772,-0.018467 0.117187,-0.019531 z m 37.884766,0.2421875 c 0.444553,-0.00156 0.92835,0.1531389 1.527344,0.4628906 1.021107,0.5280358 1.230822,1.4345664 0.476562,2.0605469 C 68.964296,7.5679065 66.836044,7.7664642 66.160156,7.3515625 65.376598,6.8705673 65.45833,5.5754314 66.310547,4.9785156 66.75803,4.6650867 67.164822,4.5074217 67.609375,4.5058594 Z M 75.507812,5.46875 c 2.135811,0.1681297 3.851563,1.3706437 3.851563,3.0078125 0,0.547872 -0.171612,1.1677063 -0.382813,1.3789063 C 78.520488,10.311541 76.802336,10.293804 75.083984,9.8144531 72.137834,8.9925965 70.952676,6.2703758 73.279297,5.6679688 74.036294,5.4719677 74.795876,5.4127068 75.507812,5.46875 Z m 7.6875,2.078125 c 0.09793,0.022021 0.206791,0.069554 0.335938,0.1386719 0.34599,0.1851696 0.873651,0.7089176 1.171875,1.1640625 0.234791,0.3583371 0.346975,0.5584294 0.361328,0.71875 0.0019,0.024892 0.0033,0.049738 0.0039,0.074219 -0.01988,0.1549639 -0.154869,0.2770387 -0.427734,0.4765626 -0.68296,0.499392 -0.711372,0.500849 -1.636719,0.126953 -0.945658,-0.3821044 -1.186143,-1.2415526 -0.599609,-2.1367187 0.306826,-0.4682743 0.497211,-0.6285622 0.791015,-0.5625 z M 47.199219,7.8730469 c 10.090813,0.053343 19.131695,1.5126018 37.705078,6.0898441 10.064765,2.480369 11.000122,2.853945 9.646484,3.84375 -0.999146,0.730593 -4.005039,1.736318 -7.03125,2.353515 -5.551792,1.132291 -6.127009,1.100424 -11.839843,-0.675781 -6.931264,-2.155033 -16.493952,-4.71514 -26.855469,-7.1875 C 38.657531,9.8710035 37.220636,9.2212099 39.919922,8.265625 40.770642,7.9644588 42.888909,7.8502629 47.199219,7.8730469 Z M 19.591797,8.0117188 c 0.395847,0.019968 0.887632,0.1331797 1.480469,0.3398437 1.219147,0.4249971 1.30585,1.1509757 0.1875,1.5761719 -1.744279,0.6631736 -3.271006,0.00913 -2.876954,-1.2324219 0.155792,-0.4908558 0.549239,-0.7168734 1.208985,-0.6835937 z m 69.800781,0.6816406 c 0.802816,-0.153097 2.499094,1.5125006 2.38086,2.3378906 -0.148995,1.040144 -1.985824,1.073059 -2.658204,0.04687 -0.65329,-0.997049 -0.509059,-2.2347976 0.277344,-2.3847656 z m 7.59375,1.2910156 c 2.672551,-0.1738007 3.683042,1.565338 1.550781,2.667969 -1.960356,1.013738 -3.299229,0.364445 -3.11914,-1.511719 0.09749,-1.015597 0.165313,-1.065008 1.568359,-1.15625 z m -69.412109,1.03125 c 0.79406,-0.0552 1.313614,0.348202 2.03125,1.404297 0.578869,0.851882 0.68684,1.244038 0.425781,1.558594 -0.427946,0.515642 -0.73947,0.512221 -2.273438,-0.03516 -2.420546,-0.863745 -2.921281,-2.120844 -1.085937,-2.726562 0.343055,-0.113219 0.637657,-0.182771 0.902344,-0.201172 z m 76.871091,0.210937 c 1.46463,0.0112 3.07422,0.463871 3.07422,1.140626 0,0.255387 -0.61137,0.742501 -1.35937,1.082031 -1.32644,0.602091 -3.76049,0.844975 -4.1875,0.417969 -0.41458,-0.414582 -0.20466,-1.613914 0.37304,-2.136719 0.39494,-0.357411 1.22083,-0.510628 2.09961,-0.503907 z m -70.765622,0.292969 c 0.696767,0 2.848941,2.228918 2.734374,2.832031 -0.0748,0.39375 -0.505928,0.547576 -1.697265,0.603516 -1.841098,0.08645 -3.357422,-0.592925 -3.357422,-1.503906 0,-0.645267 1.545184,-1.931641 2.320313,-1.931641 z m 77.337892,1.146485 C 111.45145,12.653781 112,13.08591 112,13.503906 c 0,0.1408 -0.36078,0.25586 -0.80078,0.25586 -0.85618,0 -1.11518,-0.769764 -0.35742,-1.060547 0.0554,-0.02126 0.1138,-0.03146 0.17578,-0.0332 z m -71.667971,0.453125 c 0.803648,0 1.678993,1.110737 1.556641,1.974609 -0.08088,0.571043 -0.338429,0.768087 -1.09375,0.841797 -1.389344,0.135578 -1.938071,-0.585687 -1.412109,-1.855469 0.224419,-0.541803 0.638011,-0.960937 0.949218,-0.960937 z m 7.171875,1.671875 c 0.306263,-0.01868 0.671513,0.06429 1.253907,0.238281 1.72289,0.514703 3.74414,1.541724 3.74414,1.902344 0,0.153593 -0.227462,0.367779 -0.505859,0.474609 -0.917929,0.352243 -4.114743,0.177119 -5.173828,-0.283203 -1.249459,-0.543066 -1.32851,-1.239588 -0.22461,-1.962891 0.352557,-0.231003 0.599988,-0.350463 0.90625,-0.36914 z m 7.800782,0.953125 c 0.170366,0.0039 0.346191,0.01724 0.523437,0.04101 2.204771,0.295721 3.537467,2.585582 2.251953,3.871094 -0.28908,0.289078 -0.52432,0.438148 -0.820312,0.457031 -0.03573,0.0019 -0.07299,-2.67e-4 -0.109375,0 -0.328069,-0.01382 -0.737905,-0.169393 -1.376953,-0.484375 -1.166685,-0.575049 -2.63086,-2.156804 -2.63086,-2.841797 0,-0.629529 0.969544,-1.069977 2.16211,-1.042968 z m 7.158203,1.910156 c 0.239206,-0.0068 0.593443,0.129557 1.273437,0.400391 2.103008,0.837601 3.13844,2.009222 2.25586,2.554687 -0.698172,0.431495 -2.832239,0.498981 -3.570313,0.113281 -0.934605,-0.488403 -1.189692,-1.725444 -0.539062,-2.615234 0.216741,-0.296412 0.340871,-0.446302 0.580078,-0.453125 z m 40.585941,0.353515 c 0.39538,-0.09031 0.64269,0.07629 1.1875,0.621094 0.45362,0.453627 0.7275,0.983433 0.60742,1.177735 -0.25983,0.420402 -2.39175,0.463004 -3.02735,0.06055 -0.61176,-0.387363 -0.22524,-1.233361 0.77149,-1.6875 0.18135,-0.08263 0.32914,-0.141772 0.46094,-0.171876 z m -4.027348,0.78711 c 0.213389,0.01295 0.379307,0.07267 0.488282,0.18164 0.940026,0.940025 -0.07552,2.677619 -1.988282,3.402344 -1.392128,0.527463 -3.099609,0.439052 -3.099609,-0.160156 0,-0.85653 0.588818,-1.6539 1.746094,-2.369141 1.156349,-0.714664 2.213351,-1.093534 2.853515,-1.054687 z m 25.181638,0.777344 c 0.4476,-0.0174 0.78989,9.56e-4 1.01953,0.05859 1.33055,0.333947 5.47137,3.619204 11.11915,8.820313 5.07944,4.677728 5.97362,5.73484 5.62304,6.648437 -0.40874,1.065149 -1.57855,0.409777 -6.10156,-3.419921 -1.584,-1.341196 -3.45616,-2.853236 -4.16016,-3.359376 -0.704,-0.50614 -1.85654,-1.457127 -2.56054,-2.113281 -1.69837,-1.582948 -3.49564,-2.471985 -5.9043,-2.919922 -2.80195,-0.521077 -6.16432,0.03289 -13.07227,2.15625 -3.11516,0.957538 -6.77384,1.952611 -8.13086,2.210938 -4.820526,0.917656 -8.729441,2.963996 -12.275386,6.425781 -2.606058,2.544205 -5.041105,6.09358 -6.394532,9.320313 -0.507616,1.210221 -1.365123,2.918828 -1.90625,3.798828 -1.301351,2.1163 -1.556809,2.724532 -3.394531,8.095703 -2.196909,6.420973 -3.314379,8.473576 -5.27539,9.685547 -0.551369,0.340765 -1.416602,0.60844 -1.923829,0.59375 -0.507227,-0.01469 -6.466187,-1.677025 -13.242187,-3.69336 C 39.816503,56.874507 21.770821,51.653212 13.126953,49.291016 6.2855241,47.421391 4.3522288,46.622989 3.4550781,45.300781 2.6751857,44.15139 7.0010195,44.550614 12.154297,46.103516 c 19.850394,5.98177 45.024581,13.038431 53.03125,14.865234 3.354425,0.765347 3.983008,0.829988 4.439453,0.451172 1.299357,-1.078371 4.073043,-5.856527 7.876953,-13.56836 2.260202,-4.582207 4.862268,-9.77181 5.783203,-11.53125 3.219536,-6.150913 6.613703,-8.39672 17.355464,-11.492187 11.14092,-3.210488 19.4469,-5.134039 22.58008,-5.255859 z m -55.175778,0.267578 c 0.253795,0 1.01222,0.28245 1.6875,0.626953 1.247949,0.636655 1.86047,1.508671 1.388672,1.980469 -0.759738,0.759741 -3.401097,0.47299 -3.958985,-0.429688 -0.32168,-0.520494 0.350279,-2.177734 0.882813,-2.177734 z m 21.947266,2.296875 c 0.143403,-0.01566 0.303629,0.02784 0.478515,0.136719 0.771568,0.480338 0.868595,1.221251 0.242188,1.847656 -0.803081,0.803081 -1.433335,0.643415 -1.427735,-0.361328 0.0055,-0.990786 0.276822,-1.576057 0.707032,-1.623047 z m -14.976563,0.0098 c 0.36592,-0.02154 0.764553,0.200765 1.671875,0.761719 0.851514,0.52645 1.596307,1.202761 1.654297,1.503906 0.08893,0.461798 -0.160936,0.546969 -1.597656,0.542969 -2.977996,-0.0082 -4.37761,-1.448256 -2.455079,-2.527344 0.29882,-0.167723 0.507011,-0.268324 0.726563,-0.28125 z M 86.720703,23.4375 c 0.116033,-0.0018 0.226233,0.02417 0.326172,0.08594 0.436868,0.269998 0.392263,1.549141 -0.07031,2.011718 -0.467808,0.467811 -1.426578,0.503644 -1.699218,0.0625 -0.448857,-0.726266 0.631127,-2.14733 1.443359,-2.160156 z m -5.382812,0.242188 c 0.764979,0 2.18164,1.254485 2.18164,1.93164 0,0.333033 -0.278711,0.755308 -0.61914,0.9375 -0.688733,0.368599 -2.993759,0.449601 -3.326172,0.117188 -0.749302,-0.749302 0.571777,-2.986328 1.763672,-2.986328 z m 39.728519,0.640624 c 0.68632,10e-7 9.26149,6.086943 11.20117,7.951172 1.87062,1.79784 3.19544,3.659227 3.67773,5.167969 0.21469,0.671635 0.41681,4.899629 0.50391,10.560547 0.19006,12.346079 0.64151,18.832619 3.55273,51.039062 4.6132,51.035418 5.38497,60.449348 5.2168,63.621098 l -0.0996,1.85937 -3.19922,1.26953 c -6.26072,2.48088 -24.46996,9.27686 -34.08008,12.72071 -5.368,1.92366 -10.683414,3.96222 -11.812496,4.52929 -2.180041,1.09491 -5.032455,1.53472 -6.328125,0.97656 -1.708982,-0.73618 -1.754826,-1.05532 -1.853516,-12.88867 -0.05031,-6.03226 -0.25549,-13.27189 -0.455078,-16.08789 -1.065321,-15.03061 -2.109286,-25.32991 -6.259766,-61.759763 -1.801942,-15.816105 -3.133862,-28.585877 -3.28125,-31.447266 -0.168496,-3.271206 0.476276,-5.426462 2.798829,-9.351562 0.885212,-1.496 2.560935,-4.59286 3.724609,-6.88086 3.806698,-7.484681 6.637533,-11.095784 10.199219,-13.013671 2.252406,-1.212872 10.200044,-4.17704 14.716794,-5.488282 3.9339,-1.142036 10.86945,-2.777344 11.77735,-2.777344 z m -4.61524,22.398438 c -3.04309,-0.01388 -3.49023,0.09593 -3.49023,0.4375 0,0.743901 1.41341,1.551475 3.8125,2.177734 1.4123,0.368665 3.32041,0.547069 5.78711,0.542969 4.24401,-0.0071 6.19121,-0.447786 6.33398,-1.433594 0.20259,-1.39881 -0.51709,-1.542036 -8.45508,-1.673828 -1.67031,-0.02773 -2.97392,-0.04615 -3.98828,-0.05078 z m -19.91992,5.441406 c -0.814551,0 -13.011719,5.957632 -13.011719,6.355469 0,0.142115 0.108235,0.368152 0.240235,0.501953 0.09397,0.09525 0.721956,0.130195 1.464843,0.13086 0.117807,0.0016 0.231564,0.0058 0.363282,-0.0039 0.192207,-0.0043 0.342131,0.0074 0.544921,-0.0039 1.910282,-0.106467 2.686577,-0.392139 7.439454,-2.740234 2.999443,-1.481837 5.308593,-2.813084 5.308593,-3.060547 0,-0.515059 -1.324992,-1.179688 -2.349609,-1.179688 z m 25.0293,1.925782 c -1.27005,-0.02544 -2.66976,0.08328 -3.59375,0.339843 -1.6931,0.470122 -3.82786,2.530712 -4.70313,4.541016 -1.39614,3.20664 -1.1992,9.529405 0.53516,17.193359 0.4218,1.863856 0.77484,2.631783 1.58008,3.439453 0.91434,0.917104 1.24079,1.041016 2.76562,1.041016 3.29728,0 7.51987,-2.988003 9.51563,-6.732422 1.03415,-1.940259 1.04469,-2.009595 0.92187,-5.537109 -0.0793,-2.276447 -0.29584,-3.919452 -0.59765,-4.53125 -1.03521,-2.098397 -1.3274,-0.53554 -0.79297,4.226562 0.18515,1.649815 0.14218,2.582395 -0.14649,3.279297 -0.73072,1.764115 -1.60547,1.086095 -1.60547,-1.244141 0,-1.620183 -1.48198,-3.667058 -3.02343,-4.175781 -0.98468,-0.324973 -1.29244,-0.293349 -2.18164,0.22461 -2.23209,1.300214 -3.32847,5.081313 -2.34571,8.085937 0.61776,1.888675 0.49698,2.244141 -0.76367,2.244141 -1.23262,0 -2.10959,-1.17173 -2.58789,-3.458985 -0.39309,-1.879763 -0.25157,-11.517317 0.18555,-12.615234 0.1212,-0.304438 0.72746,-0.865957 1.3457,-1.248047 1.28199,-0.79231 3.65011,-0.931759 7.96094,-0.470703 2.21519,0.236922 2.61822,0.204142 2.78125,-0.220703 0.21894,-0.570557 -1.41786,-3.199294 -2.43555,-3.912109 -0.0713,-0.04992 -0.19101,-0.0906 -0.30469,-0.132813 l -0.15625,-0.181641 h -0.54101 c -0.51031,-0.08772 -1.13838,-0.140793 -1.8125,-0.154296 z m 30.66015,1.730468 c 2.01842,-0.119689 4.26677,1.585601 4.25196,3.347656 -0.0185,2.201722 -2.9705,5.786262 -5.83789,7.087891 -1.68932,0.766854 -4.33286,0.841257 -4.60547,0.130859 -0.10575,-0.275596 0.096,-0.808427 0.45312,-1.199218 0.99208,-1.085667 1.60333,-2.490504 2.17188,-4.990235 0.61391,-2.699168 1.59057,-4.032205 3.16797,-4.328125 0.13178,-0.02472 0.26387,-0.04085 0.39843,-0.04883 z M 17.060547,59.644531 c 1.287807,-0.234025 3.145504,7.63676 2.265625,9.929688 -0.07004,0.18253 -0.140878,0.302506 -0.214844,0.378906 -0.02412,0.01752 -0.04719,0.04408 -0.07227,0.05469 -0.0169,0.0092 -0.03332,0.0215 -0.05078,0.02539 -0.0116,0.0027 -0.02336,0.0027 -0.03516,0.0039 -0.211078,0.0042 -0.467941,-0.360358 -0.84375,-1.148437 -1.108324,-2.324173 -1.924647,-8.730075 -1.171875,-9.195313 0.04025,-0.02487 0.0815,-0.04128 0.123047,-0.04883 z m 5.601562,0.195313 c 2.536018,0 4.386672,0.987555 5.636719,3.005859 0.794691,1.283095 0.959726,1.929648 1.080078,4.222656 0.107698,2.05192 0.01022,3.053271 -0.404297,4.138672 -0.512241,1.341285 -0.621739,1.431922 -1.720703,1.419922 -3.556035,-0.03882 -7.278509,-4.751707 -7.193359,-9.107422 0.02064,-1.056 0.192177,-2.314828 0.380859,-2.798828 0.320071,-0.82103 0.468922,-0.880859 2.220703,-0.880859 z m 69.486329,0.648437 c -3.50689,-0.01311 -5.838042,1.639539 -6.703126,4.753907 -1.145091,4.122402 1.047422,13.444184 3.980469,16.923828 1.028134,1.219738 3.151011,2.530298 5.066407,3.128906 1.702255,0.531994 4.739636,0.577279 6.353512,0.09375 0.68175,-0.204256 1.81112,-0.860966 2.50977,-1.458984 2.24658,-1.922989 2.43546,-4.586617 0.59961,-8.431641 -0.54049,-1.131993 -1.47565,-3.773805 -2.07813,-5.871094 -2.16893,-7.55017 -3.835827,-9.116652 -9.728512,-9.138672 z m 68.193362,1.050781 c 0.41749,0.04604 0.76221,0.490268 1.11718,1.339844 0.75035,1.79584 0.0135,3.859551 -2.21289,6.1875 -0.72886,0.762115 -1.71419,1.589959 -2.18945,1.839844 -1.18246,0.621715 -1.7727,0.569058 -2.17969,-0.191406 -0.78105,-1.459414 0.60514,-4.33647 3.91407,-8.13086 0.64474,-0.739342 1.13328,-1.090957 1.55078,-1.044922 z m -67.626956,3.777344 c 0.109957,-9.18e-4 0.200685,0.0051 0.30664,0.0059 0.302187,0.0056 0.603642,0.01223 0.861328,0.02539 0.280628,0.01847 0.54229,0.04224 0.748047,0.08008 2.365229,0.434973 5.668501,4.726906 6.990231,9.082032 0.5543,1.826349 0.59584,4.904159 0.0742,5.425781 -0.79607,0.796071 -1.21484,0.420214 -1.21484,-1.087891 0,-1.889914 -0.728139,-3.398827 -2.279298,-4.726562 -1.949731,-1.668896 -4.333236,-2.20459 -5.994141,-1.345703 -1.146906,0.593088 -1.646343,1.739366 -1.652343,3.798828 -0.0092,3.131453 -0.84491,2.963627 -2.367188,-0.478516 -1.700784,-3.84577 -2.368009,-8.909335 -1.314453,-9.962891 0.420031,-0.420031 3.530562,-0.797114 5.841797,-0.816406 z m -53.955078,0.884766 c 0.278983,-0.03246 0.598126,0.249405 0.916015,0.917969 0.580653,1.221187 0.793017,5.712166 0.347657,7.361328 -0.775125,2.870271 -1.628626,1.135077 -2.095704,-4.263672 -0.203311,-2.349996 0.218268,-3.944207 0.832032,-4.015625 z m 3.320312,0.519531 1.759766,0.0625 c 3.117517,0.110691 6.743388,1.696642 8.160156,3.570313 0.557994,0.737945 0.6316,1.274131 0.568359,4.179687 -0.07979,3.665859 -0.469532,5.305514 -1.373047,5.789063 -1.764918,0.944553 -4.889856,-0.07931 -7.15625,-2.345704 -2.557584,-2.557584 -2.806717,-3.523038 -2.240234,-8.697265 z M 164.5,67.582031 c 0.81058,-0.142707 1.58008,1.158679 1.58008,2.673828 0,2.558249 -3.3314,6.021273 -7.54102,7.837891 -1.75308,0.75652 -4.7501,1.189732 -5.03515,0.728516 -0.10105,-0.163507 0.84534,-1.152589 2.10351,-2.199219 1.25816,-1.046631 3.64752,-3.487828 5.31055,-5.423828 1.66303,-1.936 3.27523,-3.563168 3.58203,-3.617188 z m -23.49414,2.025391 c 1.0242,-0.02126 4.67198,0.329054 8.04492,0.789062 3.96037,0.540125 5.18729,1.68259 4.08789,3.808594 -0.28284,0.546953 -0.54644,0.991128 -0.58594,0.986328 -0.0395,-0.0048 -0.61015,-0.507901 -1.26757,-1.11914 -1.07749,-1.001801 -1.37814,-1.111565 -3.04102,-1.111328 -1.01458,1.44e-4 -2.89266,0.219048 -4.17383,0.486328 -2.54374,0.530685 -3.3859,0.343941 -3.75976,-0.833985 -0.23211,-0.731315 0.0566,-2.746433 0.42578,-2.974609 0.0308,-0.01902 0.12322,-0.02821 0.26953,-0.03125 z m -82.957032,1.572266 c 0.21896,-0.0033 0.534181,0.395138 0.939453,1.224609 0.881104,1.80336 1.55147,6.186057 1.257813,8.226562 -0.135799,0.94361 -0.419086,1.77381 -0.628906,1.84375 -0.48376,0.161254 -0.889787,-1.365941 -1.541016,-5.787109 -0.523365,-3.553101 -0.509055,-5.500498 -0.02734,-5.507812 z m 5.796875,0.859374 c 2.541519,0.06539 5.410794,2.382661 6.986328,5.71875 1.768896,3.745524 1.22537,8.5731 -1.099609,9.775391 -2.796681,1.446221 -6.737322,-0.836669 -7.871094,-4.560547 -0.67634,-2.221447 -0.694054,-7.191192 -0.0332,-9.373047 0.392784,-1.296813 0.544233,-1.449248 1.515625,-1.542968 0.166052,-0.01602 0.332519,-0.02194 0.501953,-0.01758 z m 104.748047,0.601563 c 0.72459,0 1.64648,1.601808 1.64648,2.861328 0,1.19351 -0.92306,3.105215 -1.96875,4.076172 -1.17382,1.089926 -4.36311,2.911126 -5.99218,3.421875 -3.52297,1.104521 -4.13972,0.956001 -2.33203,-0.558594 1.61191,-1.35056 3.01195,-2.970152 5.77539,-6.68164 1.36243,-1.829839 2.54938,-3.119141 2.87109,-3.119141 z m -27.10547,6.800781 c 0.19695,0.02814 0.41868,0.201372 0.51758,0.498047 0.0697,0.208999 -0.10025,0.380859 -0.37891,0.380859 -0.27867,0 -0.50781,-0.229147 -0.50781,-0.507812 0,-0.282549 0.1722,-0.399229 0.36914,-0.371094 z M 22.433594,85.630859 c 0.325862,-0.01035 0.977568,1.948022 1.408203,4.289063 0.519586,2.824601 0.967428,2.850177 1.277344,0.07422 0.112674,-1.009226 0.352507,-2.218601 0.53125,-2.6875 0.691913,-1.815117 3.378112,-1.91962 5.720703,-0.222657 1.16626,0.844832 1.800794,1.811781 2.388672,3.636719 0.186125,0.577792 0.320038,0.510043 1.382812,-0.691406 1.162912,-1.31465 2.519751,-2.234155 2.833984,-1.919922 0.3693,0.369299 -0.367238,1.616107 -1.990234,3.369141 -1.887129,2.038323 -4.279897,3.330284 -7.193359,3.882812 -1.993363,0.378033 -5.854105,0.358225 -8.3125,-0.04297 -2.474116,-0.403757 -2.517632,-0.433763 -1.404297,-1.011718 1.29061,-0.669984 1.881428,-1.968199 2.49414,-5.484375 0.273922,-1.571955 0.635229,-2.994602 0.802735,-3.16211 0.01866,-0.01866 0.03882,-0.02861 0.06055,-0.0293 z m 19.910156,8.416016 c 2.08406,-0.01252 3.811605,0.601994 3.994141,1.851563 0.12311,0.842758 -0.759917,1.391505 -6.097657,3.785156 -2.358669,1.057716 -4.641172,2.327136 -5.408203,3.007816 -1.252406,1.11141 -1.331043,1.28658 -1.408203,3.11914 -0.04496,1.06787 -0.307295,2.37692 -0.582031,2.9082 -0.678701,1.31247 -2.321476,2.64063 -3.265625,2.64063 -0.667389,0 -0.775391,-0.15078 -0.775391,-1.08008 0,-0.59387 0.214516,-1.6912 0.478516,-2.43946 0.644433,-1.82651 0.626681,-3.48401 -0.04102,-3.74023 -0.906914,-0.34801 -2.643972,0.89258 -6.564453,4.69141 -3.016294,2.92269 -3.803528,3.868 -3.798828,4.54882 0.0033,0.47255 -0.134997,1.22824 -0.306641,1.67969 C 17.81345,117.00509 16,115.25658 16,112.54297 c 0,-1.55549 0.766831,-2.6552 2.460938,-3.53125 1.455421,-0.75263 3.2353,-2.90994 3.480468,-4.2168 0.301931,-1.60944 -0.02905,-3.66526 -0.871094,-5.398436 -0.390783,-0.804348 -0.616773,-1.557056 -0.501953,-1.671875 0.114821,-0.114819 2.22223,0.110691 4.683594,0.5 6.114684,0.967142 7.066741,0.770916 10.953125,-2.263671 1.614144,-1.260364 4.054612,-1.901539 6.138672,-1.914063 z m 73.41602,0.367187 c -0.97132,-0.03643 -2.23636,0.176865 -3.05274,0.597657 -1.83137,0.943965 -4.22656,3.721855 -4.22656,4.90039 0,0.987201 1.00098,0.621851 2.69726,-0.982421 1.19883,-1.133803 2.20771,-1.738718 3.76172,-2.25586 2.14909,-0.715177 2.7456,-1.260261 2.0918,-1.914062 -0.21145,-0.211447 -0.68869,-0.323846 -1.27148,-0.345704 z m -53.039067,4.466797 c 0.577226,0 1.600856,4.160151 1.597656,6.494141 -9.79e-4,0.73933 -0.143017,1.85634 -0.316406,2.48047 -0.173386,0.62413 -0.515348,1.40474 -0.757812,1.73633 -0.09686,0.13246 -0.168368,0.22563 -0.232422,0.29687 -0.04444,0.008 -0.0832,0.0312 -0.13086,0.0312 -0.09339,0 -0.160352,-0.0203 -0.230468,-0.0391 -0.05917,-0.0853 -0.127661,-0.2104 -0.216797,-0.37695 -0.203424,-0.38011 -0.282512,-1.03175 -0.177735,-1.44922 0.104778,-0.41747 -0.05344,-1.59951 -0.351562,-2.625 -0.799668,-2.75077 -0.326291,-6.548831 0.816406,-6.548831 z m 4.177735,0.701172 c 0.903139,0.241573 2.050949,0.956279 3.058593,1.992189 1.653363,1.69973 2.717491,4.06702 3.105469,6.90625 0.231328,1.69287 -0.366566,4.08477 -1.160156,4.64062 -0.919283,0.64389 -2.340814,0.5932 -3.957032,-0.14062 -2.242644,-1.01824 -2.688481,-2.43517 -2.675781,-8.48438 0.0052,-2.45478 0.143377,-4.596498 0.306641,-4.759762 0.03477,-0.03477 0.08598,-0.04887 0.126953,-0.07617 0.177795,-0.0328 0.405261,-0.05396 0.707031,-0.07617 0.173806,-0.0128 0.330562,-0.0071 0.488282,-0.002 z M 6.6464844,101.57422 c 0.174155,0.0171 0.3659805,0.0648 0.5742187,0.13867 0.1220668,0.0743 0.2475335,0.16017 0.421875,0.28906 1.4180701,1.0484 2.6537899,1.57954 5.3847659,2.31446 2.561533,0.68932 3.537149,1.26817 3.162109,1.875 -0.101734,0.16461 -1.250106,0.96349 -2.552734,1.77539 -2.455736,1.53061 -4.3885158,2.01961 -5.9589846,1.50976 -3.6307408,-1.17871 -5.4499696,-3.94524 -3.9765625,-6.04883 0.2756301,-0.39351 1.0867378,-1.01559 1.8027343,-1.38085 0.5781402,-0.29496 0.8876191,-0.43791 1.1425782,-0.47266 z m 44.0429686,9.44922 c 0.828476,0.005 1.676271,0.33506 2.359375,0.95898 0.567222,0.51808 1.03125,1.16553 1.03125,1.43946 0,0.82162 -1.784717,0.66416 -4.240234,-0.37305 -1.321024,-0.55801 -1.531636,-1.16848 -0.580078,-1.67774 0.442754,-0.23695 0.932601,-0.35068 1.429687,-0.34765 z m -45.0078124,0.68164 c 0.2705686,0.001 0.5676242,0.0126 0.890625,0.0332 2.3381785,0.14889 5.3040454,1.50696 6.3417964,2.9043 0.6134,0.82595 0.621617,0.9194 0.121094,1.41992 -0.723598,0.7236 -3.8228584,0.86209 -5.675781,0.25391 -2.6757184,-0.87824 -3.988132,-1.82155 -4.0976562,-2.94336 -0.1174005,-1.20249 0.5259417,-1.67807 2.4199218,-1.66797 z m 40.3847654,3.18945 c 3.553309,0.0148 7.910075,0.41594 8.253906,0.75977 0.112,0.112 -0.256305,0.62336 -0.818359,1.13672 -1.23697,1.1298 -1.272064,1.69406 -0.199219,3.24218 1.622717,2.34158 1.038969,6.36719 -0.923828,6.36719 -1.052544,0 -3.244748,-1.47252 -4.136718,-2.7793 -1.584054,-2.32074 -1.785204,-4.53099 -0.59961,-6.60547 0.486201,-0.8507 0.481189,-0.9299 -0.103516,-1.35937 -0.81174,-0.59621 -1.017729,-0.57798 -1.757812,0.16211 -0.688944,0.68894 -1.294477,2.55445 -1.304688,4.02148 -0.01224,1.75808 -0.544945,2.01415 -0.947265,0.45508 -0.727462,-2.81906 -1.039032,-3.5252 -1.763672,-4 -1.406438,-0.92153 -2.299025,-0.31596 -7.685547,5.22266 -2.816,2.89552 -5.653651,5.53818 -6.30664,5.87304 -2.415591,1.23881 -2.057257,0.57741 1.023437,-1.88671 1.754833,-1.40361 2.821607,-2.55196 3.517578,-3.78516 2.708291,-4.79882 6.849063,-6.85302 13.751953,-6.82422 z m -41.2812498,4.14649 c 0.1674129,0 1.1395691,0.22088 2.1601563,0.49218 1.5921779,0.42323 2.4961529,0.44079 6.3769535,0.12305 3.48299,-0.28523 4.788629,-0.28236 5.679687,0.0117 0.636405,0.21003 1.158203,0.50149 1.158203,0.64844 0,0.30144 -4.289231,1.99605 -6.816406,2.69336 v 0.002 c -4.3674946,1.2051 -7.2841797,0.71644 -8.3808594,-1.4043 -0.5402579,-1.04474 -0.6451549,-2.5664 -0.1777344,-2.5664 z M 134.8125,120 c -0.2805,-0.0886 -0.96086,0.47262 -1.82031,1.59961 -2.17206,2.84819 -6.19872,5.67921 -10.24219,7.20117 -3.66703,1.38026 -6.13424,1.78235 -12.11133,1.97852 -7.10824,0.23328 -6.49808,0.4197 -14.158201,-4.29883 -2.083293,-1.28328 -2.779216,-1.46208 -3.53711,-0.90625 -0.50726,0.37202 -0.612979,0.8047 -0.568359,2.32226 0.08689,2.9555 0.41988,3.50076 2.392578,3.92383 0.92759,0.19893 2.317363,0.67573 3.087891,1.06055 1.994092,0.99589 5.001611,4.33046 7.583981,8.4082 4.77659,7.54254 8.00753,11.29285 10.33399,11.99414 2.87995,0.86815 7.43635,-0.35286 11.82226,-3.16797 3.1917,-2.04861 5.24056,-4.25108 6.22657,-6.6914 0.43373,-1.07343 0.59967,-1.86757 0.67382,-4.29102 0.11517,-1.26609 0.12534,-2.77502 0.0586,-4.62304 0.002,-0.93566 0.007,-1.6245 0.008,-2.83008 0.002,-5.456 0.12584,-10.31483 0.27539,-10.79883 0.16693,-0.54023 0.14291,-0.82768 -0.0254,-0.88086 z M 64.5,123.88477 c 0.292714,0.0613 0.588958,0.39563 0.865234,0.99609 0.75961,1.65094 0.939807,3.34446 0.552735,5.20898 -0.19745,0.95111 -0.607995,2.03654 -0.91211,2.41211 -0.521747,0.64433 -0.578835,0.65326 -1.015625,0.12696 -0.603136,-0.72674 -0.864502,-7.1125 -0.332031,-8.10743 0.261147,-0.48795 0.549083,-0.69799 0.841797,-0.63671 z m 4.707031,1.59961 c 0.422683,-0.046 0.923877,0.10231 1.69336,0.42382 0.805882,0.33672 1.294107,0.85259 1.742187,1.83985 1.235116,2.72135 0.565728,8.14534 -1.173828,9.51367 -0.459788,0.36167 -0.927912,0.6582 -1.041016,0.6582 -0.643741,0 -1.794728,-1.25506 -2.458984,-2.68164 -0.647116,-1.38978 -0.763025,-2.13808 -0.765625,-4.93359 -0.0029,-3.07335 0.05048,-3.34736 0.783203,-4.08008 0.454861,-0.45486 0.798021,-0.6942 1.220703,-0.74023 z m -62.9296872,0.46874 c 0.419084,-0.0318 1.2351661,0.0785 2.2265624,0.3125 1.6742138,0.39514 3.0372968,0.47674 5.5761718,0.33204 3.387826,-0.19309 5.759766,-0.004 5.759766,0.45703 0,0.32944 -4.039473,1.86378 -6.84961,2.60156 -3.1449581,0.82573 -6.0679172,0.7856 -6.9472652,-0.0937 -0.5412202,-0.54127 -0.6432507,-0.9347 -0.5058594,-1.95903 C 5.6316534,126.89864 5.8407401,126.19246 6,126.0332 6.043188,125.99 6.1376491,125.9637 6.2773438,125.9531 Z m 124.1074262,4.22461 c 0.17123,0.0108 0.28418,0.12087 0.42578,0.3086 0.66264,0.87852 1.66992,4.50414 1.66992,6.01172 0,2.97151 -0.97732,3.68514 -4.96094,3.62304 -2.9622,-0.0462 -3.70015,0.21646 -7.84961,2.78321 -1.55442,0.96152 -3.44896,2.03008 -4.20898,2.375 -0.76002,0.34491 -1.66949,0.62504 -2.02149,0.62304 -1.40577,-0.006 -2.40856,-1.22794 -2.87109,-3.50195 -0.12529,-0.616 -1.09152,-2.44395 -2.14844,-4.0625 -1.26523,-1.93754 -1.9384,-3.30394 -1.9707,-4 l -0.0488,-1.05859 1.91992,0.0976 c 0.59091,0.0296 2.78311,0.0561 4.47657,0.0879 1.50739,0.0987 3.24447,0.12117 4.93164,0.0762 4.0842,0.0244 5.10296,-0.0771 6.9121,-0.64844 1.232,-0.38908 3.032,-1.21142 4,-1.82813 1.01195,-0.64471 1.45876,-0.90474 1.74415,-0.88672 z m -83.453129,10.62305 c 2.059219,0 4.374035,1.91815 5.59375,4.63867 1.033707,2.30563 1.039411,6.70283 0.01172,8.95703 -0.918634,2.01497 -1.799542,2.9718 -3.417968,3.71875 -1.474669,0.6806 -1.958233,0.73847 -2.248047,0.26954 -0.324874,-0.52566 -1.091057,-9.11425 -1.097656,-12.30469 -0.0088,-4.25634 0.214961,-5.2793 1.158203,-5.2793 z m -13.59375,12.85742 c 0.620329,0.12485 0.888094,1.09947 0.388671,1.8125 -0.509801,0.72784 -1.858941,0.93271 -2.226562,0.33789 -0.270366,-0.43747 0.868885,-2.01382 1.552734,-2.14843 0.10183,-0.02 0.196538,-0.0198 0.285157,-0.002 z m 18.644531,5.38086 c 0.841916,0 1.253106,0.19857 1.642578,0.79297 1.255783,1.91657 1.263798,5.11242 0.01758,6.95117 -0.790954,1.16703 -1.74552,1.67348 -1.322266,0.70118 0.144532,-0.33203 0.32803,-1.14626 0.40625,-1.8086 0.178102,-1.50799 -0.386802,-2.4106 -2.492187,-3.98242 -0.796602,-0.59472 -1.434301,-1.17043 -1.548828,-1.38477 0.0017,-0.0852 0.01631,-0.17145 0.05469,-0.2539 0.430727,-0.43632 2.182157,-1.01563 3.242188,-1.01563 z m 92.666018,9.01758 c 0.10762,0.008 0.18723,0.031 0.23047,0.0742 0.77663,0.77663 -0.49845,5.44068 -2.04102,7.46875 -0.76843,1.01028 -1.39844,1.34538 -1.39844,0.74414 0,-0.16257 0.17042,-1.02712 0.37696,-1.92187 0.34166,-1.48016 0.3085,-1.75843 -0.35352,-3.08399 -0.67896,-1.35949 -0.69203,-1.49647 -0.19922,-2.04101 0.51181,-0.56554 2.63142,-1.29741 3.38477,-1.24024 z m -8.21875,2.92578 c 0.5341,-0.0248 0.79676,0.0573 0.79687,0.23242 -8.7e-4,0.007 -0.001,0.012 -0.002,0.0195 -0.0258,0.24336 -0.52353,0.65265 -1.50195,1.19726 -1.8185,1.0122 -2.403,1.93226 -1.96289,3.08984 0.18559,0.48817 0.27978,0.94483 0.20898,1.01563 -0.26559,0.26559 -2.0603,-1.52068 -2.43359,-2.42188 -0.74757,-1.8048 0.24108,-2.51702 4.25976,-3.07031 0.24267,-0.0334 0.45363,-0.0541 0.63477,-0.0625 z m -68.855471,4.11719 c 1.726007,0.2571 1.522336,2.43254 -0.345703,3.69141 -0.584526,0.39391 -1.176381,0.70869 -1.345704,0.7207 -0.01185,3.5e-4 -0.02544,0.004 -0.03711,0.004 -0.665742,-0.0227 -0.588068,-1.18013 0.193359,-2.77343 0.685041,-1.39677 0.99036,-1.72368 1.535157,-1.64258 z m 52.228511,2.82031 c 0.57576,0 1.71137,1.65727 1.71289,2.43164 -0.018,0.13327 -0.0477,0.24208 -0.0781,0.34766 -0.25969,0.44715 -0.9909,0.47819 -1.40234,-0.0176 -0.21233,-0.25584 -0.46976,-0.98158 -0.57227,-1.61328 -0.15064,-0.92827 -0.0857,-1.14844 0.33984,-1.14844 z m -5.89257,1.44922 c 0.17636,0.0408 0.33007,0.1612 0.33007,0.33008 0,0.0776 -0.22561,0.14062 -0.5,0.14062 -0.27438,0 -0.40742,-0.14535 -0.29687,-0.32422 0.0913,-0.14777 0.29044,-0.18723 0.4668,-0.14648 z m -3.73633,1.15625 c 0.12125,-0.004 0.22928,0.0107 0.31836,0.0449 0.61055,0.23429 1.50781,2.88056 1.50781,4.44727 0,0.842 -0.14091,1.22265 -0.45312,1.22265 -0.61277,0 -3.69713,-3.53689 -3.70313,-4.24609 -0.005,-0.57239 1.48134,-1.4431 2.33008,-1.46875 z m -13.832033,5.41992 c 0.517234,-0.001 0.639332,0.21325 0.894531,0.94531 0.500534,1.43584 0.456463,2.05061 -0.197266,2.80665 -1.445375,1.67159 -4.166391,0.58851 -4.333984,-1.72461 -0.07503,-1.03553 0.912497,-1.68904 2.96875,-1.96485 0.280122,-0.0376 0.495557,-0.062 0.667969,-0.0625 z"
       id="path42"
       inkscape:connector-curvature="0" />
  </g>
</svg>
