<?xml version="1.0" encoding="UTF-8" standalone="no"?>
<!-- Created with Inkscape (http://www.inkscape.org/) -->

<svg
   xmlns:dc="http://purl.org/dc/elements/1.1/"
   xmlns:cc="http://creativecommons.org/ns#"
   xmlns:rdf="http://www.w3.org/1999/02/22-rdf-syntax-ns#"
   xmlns:svg="http://www.w3.org/2000/svg"
   xmlns="http://www.w3.org/2000/svg"
   xmlns:sodipodi="http://sodipodi.sourceforge.net/DTD/sodipodi-0.dtd"
   xmlns:inkscape="http://www.inkscape.org/namespaces/inkscape"
   version="1.1"
   id="svg10"
   width="299.20001"
   height="345.92001"
   viewBox="0 0 299.20001 345.92001"
   sodipodi:docname="bloedhaus.svg"
   inkscape:version="0.92.4 (5da689c313, 2019-01-14)">
  <metadata
     id="metadata16">
    <rdf:RDF>
      <cc:Work
         rdf:about="">
        <dc:format>image/svg+xml</dc:format>
        <dc:type
           rdf:resource="http://purl.org/dc/dcmitype/StillImage" />
        <dc:title></dc:title>
      </cc:Work>
    </rdf:RDF>
  </metadata>
  <defs
     id="defs14" />
  <sodipodi:namedview
     pagecolor="#ffffff"
     bordercolor="#666666"
     borderopacity="1"
     objecttolerance="10"
     gridtolerance="10"
     guidetolerance="10"
     inkscape:pageopacity="0"
     inkscape:pageshadow="2"
     inkscape:window-width="1680"
     inkscape:window-height="1027"
     id="namedview12"
     showgrid="false"
     inkscape:zoom="2.3936169"
     inkscape:cx="149.60001"
     inkscape:cy="172.96001"
     inkscape:window-x="-8"
     inkscape:window-y="-8"
     inkscape:window-maximized="1"
     inkscape:current-layer="g20" />
  <g
     id="g20">
    <path
       style="display:inline;fill:#800080;stroke-width:0.32000002"
       d="m 111.11328,82.744141 c -10.11891,0.330199 -20.549641,2.277742 -29.744139,6.4375 -1.411077,8.918263 -7.930309,16.773529 -10.851171,25.610529 -3.610155,7.03004 -8.238084,13.6617 -0.408595,19.46174 5.696119,17.32943 6.931599,35.86536 12,53.30859 1.790704,4.41544 2.520657,24.34674 7.554686,11.49416 2.271796,-3.52134 -2.655137,-10.13246 3.777345,-9.64658 7.386354,-6.47455 -7.44598,-6.94732 -4.640625,-10.34961 5.220467,1.29956 -1.913547,-15.38647 8.115826,-9.06738 1.181679,6.25446 2.624667,8.05715 8.837343,3.93264 6.16079,-2.24579 17.3603,-0.007 17.31844,8.1363 -2.31017,3.6189 5.53821,10.33938 4.12721,4.20458 -0.17178,-12.14412 5.44972,7.64085 0.0428,8.14761 0.6668,7.24328 -14.62,3.47796 -8.16918,8.26806 1.24337,5.6024 -3.30782,11.08943 2.05582,15.41362 2.86078,6.10351 -0.39127,11.16481 -2.66862,16.06901 1.17444,6.29569 -7.5393,10.65631 -7.73541,3.78343 -5.21882,0.3531 -11.158735,1.39579 -2.63269,4.87867 5.51483,2.24234 12.80356,-4.44314 12.6188,5.85153 10.11404,8.77572 22.03707,15.32685 32.32048,23.96233 9.56344,-5.08249 20.34262,-7.60913 30.32813,-11.86132 10.09881,-3.6992 20.30189,-7.24381 30.23468,-11.29445 -0.55575,-18.93238 -3.19215,-37.92783 -4.44758,-56.88719 9.55152,-4.8294 0.60592,-17.38908 -0.14867,-25.24433 -5.19508,-8.36818 -2.8215,-19.52673 -4.83495,-29.0471 -2.54912,-8.64243 1.69509,-15.62971 5.43309,-22.17719 -7.40857,-7.36691 -15.08313,-15.70636 -25.1065,-19.58257 -8.78271,-4.010654 -18.75554,-4.512759 -27.63632,-8.240563 -15.15594,-1.833001 -30.41813,-4.701733 -45.7402,-5.562016 z m 2.48047,1.736328 c 8.47019,2.045663 -4.92433,6.635721 -1.58832,0.120271 l 1.58818,-0.120259 z m -6.71484,0.03516 c 6.98257,4.029827 -8.262995,6.713967 -1.48665,0.32715 z m 14.5039,0.919922 c 7.4555,5.154576 -8.32485,3.738863 0,0 z m -20.29883,0.0293 c 6.18841,6.99569 -8.033203,5.435226 0,0 z M 126.125,86.53321 c 7.72303,2.641781 -2.82793,4.721417 0,0 z m -30.589844,0.505859 c 5.808894,6.997385 -7.016964,3.423405 0,0 z m 37.996094,0.416016 c 8.17447,5.798787 -8.88859,2.327248 0,0 z m 6.35156,1.359375 c 10.06286,0.03004 2.46854,8.41367 -2.39975,1.817561 -0.74838,-1.421812 0.81533,-2.792352 2.39975,-1.817561 z m 8.43555,1.519531 c 6.35121,3.45473 -3.56375,4.71824 0,0 z M 84.529297,90.65821 c 6.941718,1.432837 -2.888073,4.20657 0,0 z m 28.154293,0.05078 c 16.60352,0.582737 32.91113,4.870402 48.84326,9.186837 -8.37884,5.156273 -18.096,4.561743 -26.85501,0.592173 -10.01192,-3.385536 -20.81854,-4.477862 -30.59957,-8.251666 1.95534,-2.300192 5.8965,-1.215911 8.61132,-1.527344 z m 41.96485,0.810547 c 8.67982,4.949332 -3.36549,4.954271 0,0 z m 6.15234,1.441407 c 10.44734,-1.586339 0.39822,8.972486 0,0 z m -67.294921,0.90039 c 7.683891,6.426546 -8.832054,1.776054 0,0 z m 75.183591,0.28125 c 12.54712,0.46875 -6.75294,5.842195 0,-2e-6 z m -69.767575,0.306641 c 9.311645,4.38315 -7.762971,5.017607 0,0 z m 77.542965,1.044922 c 4.18495,1.50249 -2.71542,2.295716 0,0 z m -71.9414,0.326171 c 5.84511,2.721122 -3.55799,5.829012 0,0 z m 6.80859,1.828126 c 9.20028,-0.594943 1.97461,7.205416 -1.57226,1.220702 l 0.37447,-0.860434 z m 7.86719,1.425781 c 12.31084,2.773905 -4.24598,5.667435 0,0 z m 7.77734,1.406255 c 10.73469,4.46988 -5.46154,5.13077 0,0 z m 40.82617,0.41015 c 4.80978,2.60557 -5.49517,2.83667 0,4e-5 z m -4.1582,0.69922 c 3.24478,5.19192 -10.92756,5.03888 -1.58789,0.49805 z m 26.91602,0.73047 c 4.97949,6.00841 13.7345,9.60189 16.62498,16.63571 -8.12681,-2.74787 -13.97956,-14.47767 -23.60155,-12.84079 -10.41423,3.4354 -23.05331,3.82976 -30.98227,12.10054 -6.05995,9.69186 -10.40736,20.60239 -14.97146,30.87885 -21.80646,-5.54523 -43.152477,-13.02016 -65.042925,-18.35206 -11.629514,-6.2372 6.998514,-1.44345 10.85998,0.27044 17.427165,4.71726 34.635755,10.77215 52.392535,13.94003 5.68244,-10.62483 10.10786,-22.0763 17.38634,-31.72352 9.14152,-5.49506 20.17865,-7.14306 30.407,-9.91244 2.2789,-0.53203 4.59633,-0.83008 6.92737,-0.99676 z m -57.51367,0.25781 c 9.2915,3.01917 -2.81481,5.85283 0,0 z m 22.71484,2.1211 c 2.977,4.77749 -3.87088,2.66406 0,0 z m -15.68164,0.26172 c 10.355,3.46511 -5.43907,4.48706 0,0 z m 12.25781,0.95898 c 2.70498,3.56536 -4.90215,4.10332 0,0 z m -5.63672,0.55274 c 6.52571,4.75811 -6.35818,3.41459 0,0 z m 40.60742,0.6875 c 4.89645,5.44814 15.85658,8.28917 14.29506,17.05773 0.0378,25.58386 3.80537,50.97809 5.54676,76.47408 1.06206,15.63054 3.28023,31.2698 3.63865,46.88615 -18.60415,6.90656 -37.19483,14.20947 -55.99985,20.48303 -2.25644,-9.22824 -0.5714,-19.63675 -1.75599,-29.28922 -2.6627,-32.47972 -6.78759,-64.82318 -10.08595,-97.24263 4.74757,-8.26801 8.21745,-17.54489 14.77539,-24.54297 9.10743,-5.02348 19.40846,-7.88114 29.58593,-9.82617 z m -9.6914,21.21484 c 0.82943,4.85289 12.95113,4.72753 16.49414,4.9199 -1.64798,-5.68258 -11.80732,-3.49027 -16.49414,-4.9199 z m -16.79297,4.74414 c -3.91464,1.24913 -18.76616,12.61955 -7.71298,7.98159 1.62498,-2.37841 14.81679,-6.26071 7.71298,-7.98159 z m 27.44922,3.83594 c -13.32446,-1.18011 -11.13714,13.62872 -9.04086,22.2091 3.48661,12.22674 20.06925,-3.47006 14.50634,-12.00219 -0.97934,-3.44155 -0.74814,-9.66408 -5.46548,-10.20691 z m -0.125,4.17773 c 7.58618,-0.73549 4.44338,23.6773 1.83829,9.24442 -7.43507,-6.01537 -7.22025,5.48108 -6.26212,9.32394 -5.55121,0.7537 -3.8226,-11.95628 -3.51182,-16.24805 2.21845,-1.75083 5.18059,-2.27802 7.93565,-2.32031 z m -105.890628,0.94727 c 3.559082,3.08378 3.328908,18.18844 0.384243,6.96239 -0.231982,-2.178 -1.361886,-4.90217 -0.384243,-6.96239 z m 4.341797,1.05273 c 11.006823,-3.84563 10.921891,20.23939 0.810547,9.80851 -0.413399,-2.19062 -3.961124,-9.12476 -0.810547,-9.80851 z m 73.142581,0.4375 c -14.3666,-1.92053 -9.39561,17.05814 -3.48242,23.26172 7.45389,4.79022 18.0687,1.42347 12.87573,-8.59469 -2.12529,-4.92472 -2.26174,-14.63713 -9.39331,-14.66703 z m -2.59375,4.91602 c 8.41476,-4.01557 13.22956,18.36139 8.61134,13.83398 0.72888,-8.83241 -13.51887,-9.08516 -9.90433,0.56055 -1.88337,-4.15609 -9.33613,-16.72372 1.29299,-14.39453 z m -52.91797,0.35547 c 3.08918,3.21668 0.32852,17.33893 -0.72559,5.64097 0.19822,-1.6951 -0.84071,-4.43429 0.72559,-5.64097 z m 3.83789,0.76758 c 6.49755,0.20089 11.97982,3.35132 9.50949,10.25992 -0.15097,10.15305 -14.27155,-1.69243 -10.30533,-8.30629 0.16629,-0.31777 -0.003,-1.88772 0.79584,-1.95363 z m 15.42773,4.37695 c 3.05289,3.00236 2.84866,20.33642 0.39339,7.85915 -0.0337,-2.32114 -1.51578,-5.90639 -0.39339,-7.85915 z m 3.38477,1.05273 c 8.74431,-1.62384 14.48431,13.375 7.40785,15.6278 -9.62211,0.56757 -6.58815,-9.39305 -7.40785,-15.6278 z m -39.501954,12.72461 c 4.31888,3.50534 0.78012,16.20156 -0.478972,4.97579 0.135583,-1.40766 -0.825233,-3.94965 0.478972,-4.97579 z m 22.884764,6.78711 c -11.961172,-0.1071 -12.730109,11.66221 -17.253515,19.96072 -4.04433,9.83464 -8.923677,19.43889 -7.172149,30.49699 1.687551,9.86324 8.541324,17.74339 18.768384,12.33546 10.2433,0.97205 21.09341,-11.32953 13.27869,-19.96014 0.45706,-6.141 -11.96374,-15.5705 -3.93586,-19.51076 8.68865,3.73063 16.01984,-6.83226 8.1724,-11.318 0.4094,-8.77349 -3.78,-10.96338 -11.85795,-12.00427 z m 0.38867,2.54883 c 5.43091,6.82757 -16.525269,15.14965 -8.15358,23.23457 3.98339,5.24836 2.16947,11.39882 -2.987041,4.06621 -4.907584,-4.38933 0.816481,10.71816 1.816931,13.43036 4.46442,0.45507 6.39805,4.77907 0.83163,5.15188 -4.339643,-4.5139 -8.237712,-16.00489 -13.548952,-8.57833 -1.165538,-9.35606 8.374739,-16.09908 9.503155,-25.43431 2.991167,-4.7608 7.527487,-9.35545 12.537857,-11.87038 z m -0.3789,2.04101 c -6.52547,4.40904 -13.966605,11.53853 -13.206278,20.1689 2.406437,2.9291 8.035028,7.57926 3.053928,0.97957 -5.015607,-7.63397 7.62191,-14.72988 10.15235,-21.14847 z m -17.837893,1.10547 c 0.968385,3.07989 4.658842,0.98288 0,10e-6 z m 89.843753,2.52149 c -6.77156,-1.375 -11.20918,12.24432 -4.282,3.91175 0.53586,-1.27401 9.38924,-2.41052 4.282,-3.91175 z m -51.2168,0.11914 c 9.93967,-1.23187 9.0828,22.1703 0.17773,10.91406 -0.33264,-3.48017 -1.05299,-7.76844 -0.17773,-10.91406 z m -12.98438,10.7832 c 8.21004,7.2983 -11.32836,1.24721 0,0 z m -23.052729,8.89063 c -7.444219,5.33507 -1.434301,7.09447 3.143498,11.15322 -1.106774,-3.65776 -1.906213,-7.5158 -3.143498,-11.15322 z m 34.826169,4.22656 c 4.17285,4.18174 -0.93769,15.59075 -1.18778,4.59142 0.14201,-1.44315 -0.33323,-3.82554 1.18778,-4.59142 z m 4.78711,1.76953 c 8.32976,0.40503 2.40847,21.18082 -1.78883,8.01345 0.14853,-2.36487 -1.58916,-7.39046 1.78883,-8.01345 z m 120.77539,8.08398 c -3.07961,2.54202 -7.31636,3.45079 -3.70735,9.59107 -1.22634,7.2357 -4.54347,12.59171 -1.66565,18.11792 0.63726,6.73888 2.21308,-4.87729 7.71679,-1.30859 2.94094,7.3888 2.49332,2.28158 2.65579,-1.5367 2.94143,-7.2342 -4.72935,-14.86626 -1.35807,-22.39462 -1.02371,-1.02025 -1.93191,-2.67067 -3.64151,-2.46908 z m -146.44922,1 c 2.24232,4.16048 5.24048,15.84086 -1.97265,16.43168 1.06327,-5.27246 0.54831,-11.68132 1.97265,-16.43168 z m 6.26563,1.59376 c 3.37076,3.40435 2.73702,15.28702 -3.18197,12.65101 1.86634,-4.20197 2.4993,-8.56279 3.18197,-12.65101 z m -19.755861,0.70507 c 8.834391,4.8912 0.671241,24.89013 -4.427695,11.01705 3.648493,-2.70835 3.372771,-6.87305 4.427695,-11.01705 z m 85.740231,2.46289 c -11.75024,2.11726 4.06223,18.10029 7.90173,7.16881 0.45578,-4.28756 -4.18709,-6.91292 -7.90173,-7.16881 z m -107.921871,1.17188 c -7.839004,0.54598 -1.172212,8.58813 -4.794922,12.82031 -3.285551,5.12859 0.315291,10.4978 1.199028,13.85056 1.343821,-9.49073 10.230116,6.33829 6.628179,-3.75866 6.139554,-4.78016 -2.418231,-14.22686 0.439535,-20.58425 -0.844,-1.09955 -2.00802,-2.22875 -3.47182,-2.32796 z m 31.138671,0.74609 c 5.91715,4.31565 -6.221071,18.36081 -2.74578,5.61861 0.26286,-2.13282 0.23147,-4.82941 2.74578,-5.61861 z m 5.48828,1.2793 c -2.97323,5.04961 1.67203,3.69609 0,0 z m -13.279295,0.64062 c -2.049797,2.6474 -5.843772,8.53015 0.234378,7.05077 1.093971,-2.12458 2.38792,-5.47744 -0.234378,-7.05077 z m 84.607425,0.0645 c 8.82701,0.73927 -0.37262,6.11431 -0.38701,0.18281 z m 48.95312,0.51172 c -7.88437,0.38366 -1.32799,8.54178 -4.90234,12.77934 -3.28667,5.12865 0.31469,10.49817 1.19804,13.85056 1.5664,-9.42625 9.99608,6.35291 6.83972,-3.84803 5.47223,-5.04125 -2.2496,-14.05988 0.29034,-20.45212 -0.86923,-1.05443 -1.92734,-2.28583 -3.42576,-2.32975 z m -126.16406,0.37695 c -1.78151,1.54192 0.53321,2.57658 0,0 z m -44.550782,8.52734 c -5.717131,3.60476 -1.801595,13.09259 -5.40625,19.2461 1.982665,4.44927 2.119658,8.27604 6.501956,3.78515 3.61029,-0.58367 4.635797,5.40585 4.646482,-1.57617 0.25329,-6.63885 -1.555534,-14.91807 -2.745843,-20.77123 -0.926635,-0.47196 -1.969186,-0.63669 -2.996345,-0.68385 z m 53.585942,18.71289 c -0.97176,4.19166 -7.96739,2.45642 -3.70711,8.33788 -0.90551,7.75642 -4.03127,14.29402 -0.47298,19.288 1.53205,-6.07186 7.3227,-1.64092 8.79902,-1.46987 1.27378,-7.63595 -3.22391,-16.26763 -1.65042,-24.56096 l -1.31032,-0.98372 -1.6582,-0.61133 z m 104.06054,4.20118 c -0.80455,4.82187 -7.8768,1.62992 -3.96679,8.3769 -0.74918,7.68502 -3.77679,14.27444 -0.27385,19.20694 1.53307,-6.07064 7.32264,-1.63976 8.79902,-1.4689 1.21585,-7.44784 -2.69593,-15.9808 -1.49393,-24.13453 l -1.41351,-1.3131 -1.65095,-0.66736 z"
       id="path28"
       inkscape:connector-curvature="0" />
  </g>
</svg>
