<?xml version="1.0" encoding="UTF-8" standalone="no"?>
<!-- Created with Inkscape (http://www.inkscape.org/) -->

<svg
   xmlns:dc="http://purl.org/dc/elements/1.1/"
   xmlns:cc="http://creativecommons.org/ns#"
   xmlns:rdf="http://www.w3.org/1999/02/22-rdf-syntax-ns#"
   xmlns:svg="http://www.w3.org/2000/svg"
   xmlns="http://www.w3.org/2000/svg"
   xmlns:sodipodi="http://sodipodi.sourceforge.net/DTD/sodipodi-0.dtd"
   xmlns:inkscape="http://www.inkscape.org/namespaces/inkscape"
   version="1.1"
   id="svg183"
   width="764.79999"
   height="764.79999"
   viewBox="0 0 764.79999 764.79999"
   sodipodi:docname="info.svg"
   inkscape:version="0.92.4 (5da689c313, 2019-01-14)">
  <metadata
     id="metadata189">
    <rdf:RDF>
      <cc:Work
         rdf:about="">
        <dc:format>image/svg+xml</dc:format>
        <dc:type
           rdf:resource="http://purl.org/dc/dcmitype/StillImage" />
        <dc:title></dc:title>
      </cc:Work>
    </rdf:RDF>
  </metadata>
  <defs
     id="defs187" />
  <sodipodi:namedview
     pagecolor="#ffffff"
     bordercolor="#666666"
     borderopacity="1"
     objecttolerance="10"
     gridtolerance="10"
     guidetolerance="10"
     inkscape:pageopacity="0"
     inkscape:pageshadow="2"
     inkscape:window-width="1680"
     inkscape:window-height="1027"
     id="namedview185"
     showgrid="false"
     inkscape:zoom="0.70710678"
     inkscape:cx="558.07047"
     inkscape:cy="452.22865"
     inkscape:window-x="-8"
     inkscape:window-y="-8"
     inkscape:window-maximized="1"
     inkscape:current-layer="g193" />
  <g
     id="g193">
    <path
       style="display:inline;fill:#800080;stroke-width:0.31999999"
       d="m 381.57031,0.25976562 c -2.98462,5.6421e-4 -5.91465,0.0227072 -8.29101,0.0742188 -4.9395,0.10707273 -6.83602,0.22236107 -4.95899,0.30273437 l 3.03907,0.13085937 -2.39844,0.0859375 C 345.20014,1.7035529 325.94972,4.174929 301.75977,9.4804688 274.35232,15.4917 250.3463,23.200202 226.88867,33.523438 218.96137,37.012087 202.51318,45.306651 195.10352,49.552734 179.02216,58.768113 161.86924,70.290311 146.94727,81.900391 120.28232,102.64711 97.109752,126.3275 76.947266,153.4375 40.988924,201.78623 19.748222,249.79876 7.7167969,309.91992 4.1946194,327.52027 1.1473715,352.25951 0.8984375,365.27734 l -0.0605469,3.20313 -0.1796875,-3.04102 c -0.12088922,-2.056 -0.23992042,0.1718 -0.36914062,6.88086 -0.21178673,10.99583 0.0735213,31.65255 0.37109375,26.87891 l 0.1796875,-2.87891 0.0605469,3.04297 c 0.0666074,3.35203 0.75976988,12.54494 1.50781248,19.9961 2.7479863,27.37238 9.5713729,58.86654 18.6874999,86.24023 11.855628,35.59981 28.330101,67.48698 51.580078,99.83984 28.535129,39.70727 62.351869,71.6026 105.083989,99.11133 33.69005,21.68794 69.59983,37.18168 109.15234,47.0957 28.94693,7.25568 53.61701,11.02902 79.48828,12.15821 4.92342,0.21488 5.43426,0.2793 3.03906,0.3789 -1.71181,0.0712 0.23601,0.19781 4.80078,0.3125 4.224,0.106 8.31141,0.14519 9.08399,0.0879 0.77254,-0.0573 4.22823,-0.13076 7.67969,-0.16406 4.9294,-0.0475 5.65879,-0.10341 3.39648,-0.25976 l -2.88086,-0.19922 3.37891,-0.0606 c 16.13555,-0.28886 41.64603,-3.24923 60.14062,-6.97851 31.19088,-6.28939 59.93213,-15.37109 85.83789,-27.125 44.89056,-20.36775 89.78048,-53.01219 122.82227,-89.31836 37.13616,-40.805 64.82326,-87.87791 80.92969,-137.59766 7.51869,-23.20988 13.8986,-51.66166 16.79297,-74.88086 1.11062,-8.90969 2.37748,-23.68395 2.47851,-28.91406 l 0.0586,-3.08594 0.17969,2.7207 c 0.27581,4.15943 0.52684,-16.40326 0.32617,-26.7207 -0.0959,-4.928 -0.22411,-7.73623 -0.28711,-6.24023 -0.10182,2.41523 -0.1427,2.17067 -0.35742,-2.19141 -1.86269,-37.84275 -11.22138,-82.04082 -25.11523,-118.60742 -7.50458,-19.75097 -17.17198,-39.65136 -27.9043,-57.44141 -13.1392,-21.77978 -27.74129,-41.62762 -44.73047,-60.79883 -5.30819,-5.98997 -22.01519,-22.6958 -27.99023,-27.988278 C 623.82767,86.108108 609.15301,74.805321 593.04297,64.042969 550.37097,35.535804 506.55072,17.847282 452.2832,7.2246094 433.80685,3.6079262 412.60694,1.1937757 396.73242,0.8984375 l -3.29297,-0.0605469 3.04102,-0.1796875 C 399.97542,0.45270638 390.52419,0.258073 381.57031,0.25976562 Z m -0.0254,37.23828138 c 9.70317,0.02487 20.49007,0.289843 26.29492,0.724609 35.68509,2.672707 62.31752,8.436849 94.1875,20.384766 29.62599,11.106643 59.04296,26.865365 83.57227,44.767578 24.22797,17.68228 49.02695,41.59211 68.16016,65.7168 10.50727,13.2484 20.74449,28.62929 29.51562,44.34765 15.26118,27.34898 27.08164,56.76038 34.27344,85.28125 3.82932,15.18602 6.87871,33.39086 8.36133,49.91992 2.21568,24.70176 1.7839,54.91479 -1.10743,77.60743 -2.67171,20.96915 -5.6771,35.63712 -10.68945,52.17187 -14.31485,47.22183 -37.23475,90.0903 -66.88672,125.09961 -13.54617,15.9936 -29.14109,31.52333 -44.73047,44.54297 -4.95756,4.14036 -5.51022,4.51934 -6.24804,4.28516 -0.34534,-0.1096 -1.40223,-1.52114 -2.35743,-3.15039 -2.47952,-4.22906 -4.73747,-6.93366 -11.71874,-14.04102 C 576.96335,629.85369 576,628.72421 576,627.92578 c 0,-1.09856 0.53656,-1.63141 2.64844,-2.6289 0.84076,-0.39712 1.92115,-1.23535 2.40039,-1.86329 0.8343,-1.09321 0.87544,-1.32756 0.98047,-5.52343 0.18045,-7.20784 -0.80802,-9.73104 -4.92188,-12.5625 -2.90771,-2.00131 -4.94726,-4.01946 -4.94726,-4.89454 0,-0.38186 0.21646,-1.2119 0.48046,-1.84374 0.66807,-1.59893 0.59867,-4.90815 -0.16015,-7.64649 -0.88883,-3.20746 -0.83385,-6.75262 0.18359,-11.69141 0.45354,-2.2015 1.09785,-4.88805 1.43164,-5.96875 1.03091,-3.3377 1.25947,-5.96953 0.86328,-9.93359 l -0.35937,-3.60937 1.24219,-3 c 0.68381,-1.64989 1.46679,-3.35326 1.74023,-3.78516 0.42374,-0.66928 0.5129,-2.67547 0.5957,-13.57813 0.10224,-13.46271 -0.12915,-17.2636 -1.17187,-19.30273 -0.64784,-1.26692 -3.88017,-4.52539 -5.80664,-5.85352 -0.616,-0.42467 -2.27169,-1.70089 -3.67969,-2.83593 -1.408,-1.13507 -3.74312,-2.61451 -5.18945,-3.28711 -2.26631,-1.05392 -2.72332,-1.40524 -3.30274,-2.54102 -1.35584,-2.65766 -5.5538,-6.52826 -10.96875,-10.11328 -6.70051,-4.43613 -12.00676,-7.103 -18.00586,-9.04883 -7.39395,-2.39824 -8.62292,-2.60273 -16.85156,-2.80078 -8.42058,-0.20266 -12.9761,0.14222 -20.07031,1.51563 -8.22384,1.5921 -13.52835,4.2566 -18.77539,9.43164 -2.89405,2.85434 -3.42565,3.56154 -4.91797,6.55859 -0.92016,1.848 -2.50225,4.8727 -3.51562,6.7207 -1.01336,1.848 -1.94694,3.72016 -2.07618,4.16016 -0.20701,0.70461 -1.96527,4.50227 -4.58008,9.89453 -0.46272,0.9542 -1.59075,2.70428 -2.50585,3.88867 -0.91507,1.18435 -1.81712,2.44229 -2.00586,2.79492 -0.46845,0.87527 -0.80924,4.84305 -0.53907,6.28321 0.28099,1.49785 2.28585,3.55508 3.75196,3.84961 4.04251,0.81203 4.11596,0.9639 4.10156,8.55273 -0.007,3.65529 -0.18459,6.81807 -0.47266,8.41602 -0.72579,4.02586 -1.1833,11.94062 -1.06445,18.40039 l 0.10937,5.92187 1.3379,2.00196 c 1.75613,2.62835 1.99164,3.92966 2.2832,12.60937 l 0.24219,7.22266 1.18554,1.72265 c 1.17527,1.70803 1.18169,1.73647 0.86914,3.64063 -0.17331,1.056 -0.3164,3.08369 -0.3164,4.50586 -0.002,2.14304 0.13605,2.85548 0.80859,4.16015 1.06355,2.06323 1.47626,4.26403 1.21484,6.48829 -0.27149,2.30995 -1.21165,3.31339 -3.63085,3.87304 -0.96489,0.22323 -2.99015,0.95454 -4.5,1.625 -1.50986,0.67047 -3.59849,1.46156 -4.64063,1.75782 -2.3248,0.66093 -4.48743,1.99263 -6.11719,3.76757 -1.61766,1.7618 -2.36536,3.04291 -3.58984,6.15235 -0.63418,1.61044 -1.6635,3.38853 -2.75781,4.76172 -0.96041,1.20512 -1.88756,2.71688 -2.06055,3.35937 -0.17303,0.6425 -0.46729,3.32402 -0.65234,5.95899 -0.45178,6.43209 -0.77834,8.52884 -2.2793,14.63476 -1.0073,4.0977 -1.31491,6.04062 -1.45703,9.19531 -0.2432,5.39891 0.18752,7.89988 2.05469,11.94922 1.76505,3.82787 2.0766,6.19325 1.23046,9.33203 -0.81286,3.01542 -1.01338,6.86948 -0.41601,8.01172 0.27239,0.52077 2.10997,2.67511 4.08203,4.78711 7.83146,8.38714 8.06316,8.90159 4.42578,9.81055 -2.94758,0.73655 -6.03869,0.9766 -6.91015,0.53711 -0.7127,-0.35939 -6.20052,-6.58414 -9.26368,-10.50781 -2.28244,-2.92363 -4.29907,-6.12404 -5.96093,-9.45899 -1.60358,-3.21804 -2.00506,-4.48984 -3.4336,-10.86133 l -1.0039,-4.47851 L 421.53906,668 c 0.12115,-14.43766 0.27936,-19.73257 0.70899,-23.83984 0.38768,-3.70624 0.56359,-8.33167 0.59179,-15.51954 l 0.041,-10.24023 -1.36719,-5.43945 c -0.75143,-2.992 -2.88847,-9.97749 -4.75,-15.52149 -5.66333,-16.86624 -11.94518,-30.04776 -18.44726,-38.71093 -2.59776,-3.46115 -9.08031,-10.22844 -12.86914,-13.43555 -5.59472,-4.73571 -13.39378,-9.06131 -18.41016,-10.21094 -10.70327,-2.45293 -9.43365,-2.31606 -20.47656,-2.21484 -9.69626,0.0889 -10.23237,0.12706 -14.08008,0.98828 -7.84375,1.75558 -12.06511,2.8866 -16.64063,4.46094 -14.86803,5.11584 -26.21793,12.16144 -36.01172,22.35351 -7.09175,7.38016 -8.95784,11.20747 -10.71484,21.9707 -0.66445,4.07037 -0.68627,4.94291 -0.54687,21.75977 0.12687,15.30445 0.23114,18.24537 0.83007,23.25977 1.65566,13.86163 3.96915,24.5212 6.67383,30.75 0.68542,1.57849 2.86995,5.57913 4.85352,8.89062 4.71261,7.86745 6.20353,10.98835 6.37305,13.33203 0.13992,1.93431 -0.51565,3.75364 -1.75782,4.87696 -1.04941,0.949 -4.55592,2.36709 -9.69922,3.91992 -8.42557,2.54381 -11.54909,4.15399 -18.04101,9.30078 -2.09025,1.65715 -4.05901,3.09502 -4.375,3.19531 -0.67561,0.21443 -5.21356,-1.47107 -6.75195,-2.50781 -0.58725,-0.39574 -1.11343,-0.9604 -1.16993,-1.25391 -0.39245,-2.03785 14.13282,-12.87325 20.09766,-14.99218 1.32,-0.46893 3.33647,-1.1954 4.48047,-1.61329 l 2.08008,-0.75976 0.54492,-3.19922 c 0.29987,-1.75971 0.46282,-3.70431 0.36133,-4.32031 -0.10149,-0.616 -0.86809,-2.34385 -1.70313,-3.83985 -2.89654,-5.18928 -4.81877,-9.30146 -5.28516,-11.3125 -0.25784,-1.11181 -0.74467,-2.65877 -1.08398,-3.43554 -0.33931,-0.77677 -0.71956,-2.56271 -0.84375,-3.97071 -0.14743,-1.67155 -0.50377,-3.15433 -1.02539,-4.26953 -0.82257,-1.75859 -1.32076,-5.58595 -1.35156,-10.38086 -0.0107,-1.6617 -0.20008,-2.54145 -0.8125,-3.75 l -0.80078,-1.57812 v -26.87305 c 0,-26.61542 0.007,-26.88416 0.66406,-27.99805 0.36496,-0.61856 0.86955,-2.30331 1.12109,-3.74414 0.30647,-1.75552 0.77331,-3.13318 1.41602,-4.17773 0.52751,-0.85731 0.95898,-1.65158 0.95898,-1.76563 0,-0.11405 0.79437,-1.54031 1.76563,-3.16797 1.23466,-2.06908 2.88181,-4.12377 5.47461,-6.83007 l 3.70898,-3.8711 -0.13867,-8.39648 c -0.12397,-7.59609 -0.20318,-8.58867 -0.83398,-10.38867 -0.45325,-1.29331 -0.69727,-2.75053 -0.69727,-4.16602 0,-1.9896 0.12382,-2.39456 1.42383,-4.67578 2.18421,-3.8328 2.56726,-5.07957 2.57226,-8.36719 0.004,-2.67497 -0.0808,-3.05976 -1.20117,-5.40625 -0.66343,-1.38951 -1.8355,-3.47813 -2.60351,-4.64062 -1.66123,-2.51453 -2.95981,-5.08385 -4.22071,-8.35352 -0.77193,-2.00169 -1.34619,-2.84116 -3.46484,-5.05469 -2.16313,-2.26 -2.97766,-2.86442 -5.49024,-4.07031 -2.56849,-1.23276 -3.23458,-1.73471 -5.14257,-3.87695 -8.77701,-9.85468 -12.20036,-12.47962 -19.70704,-15.11524 -1.53704,-0.53965 -3.13165,-1.2012 -3.54296,-1.4707 -1.00275,-0.65702 -5.58734,-1.24564 -8.22852,-1.05664 -2.60198,0.18617 -4.834,1.15809 -7.68555,3.34961 -1.15025,0.88404 -2.51731,1.82408 -3.03906,2.08984 -2.43708,1.24144 -12.62655,3.30991 -20.12305,4.08399 -1.74579,0.18029 -4.46798,0.63082 -6.04882,1.00195 -2.43896,0.57261 -3.08386,0.86906 -4.25782,1.95117 -0.76092,0.70138 -1.7977,1.89769 -2.30273,2.66016 -0.81457,1.22976 -0.94161,1.76844 -1.125,4.76562 -0.2418,3.95204 -0.98387,7.8424 -1.80469,9.44727 -0.31954,0.62477 -1.14981,1.78222 -1.84375,2.57422 -0.69394,0.792 -2.35016,2.90568 -3.67969,4.69726 -2.54071,3.42368 -3.22858,5.01981 -4.74804,10.98438 -0.61281,2.40557 -0.70522,3.75187 -0.79492,11.65625 -0.0799,7.04445 -0.009,9.1615 0.33789,9.99219 0.24219,0.57965 1.35475,2.02998 2.4707,3.22265 2.77074,2.96125 3.58081,4.11194 4.33984,6.16797 1.07101,2.90109 3.36695,7.59453 5.78907,11.83594 2.6089,4.56848 2.77157,5.42269 1.28515,6.68164 -3.06141,2.59286 -4.93756,4.55524 -6.22265,6.50586 -1.62287,2.46336 -2.99677,3.58077 -6.70118,5.45117 -1.408,0.71091 -3.35231,1.8289 -4.32031,2.48438 -3.83349,2.59591 -3.84847,2.59828 -11.65234,2.90429 -3.88706,0.15245 -7.79562,0.36126 -8.68555,0.46289 -2.92632,0.33418 -4.58058,1.37974 -7.65625,4.83789 -1.54377,1.73574 -3.25727,3.45533 -3.80664,3.82227 -0.54938,0.36698 -1.60575,1.06791 -2.34766,1.55664 -0.7419,0.48877 -2.19456,1.79633 -3.22851,2.90625 -1.46358,1.5711 -2.19236,2.09779 -3.29102,2.375 -0.77614,0.19587 -2.63929,0.78411 -4.13867,1.30664 -1.4994,0.52249 -3.02916,0.94922 -3.40039,0.94922 -0.76007,0 -1.87457,-1.24474 -6.73047,-7.51953 -25.329179,-32.73037 -46.421475,-74.55366 -58.501952,-116 -6.442947,-22.1048 -10.140993,-43.91585 -12.072266,-71.20117 -0.63688,-8.99795 -0.528554,-38.41089 0.175782,-47.83985 1.812435,-24.26295 5.385393,-46.04998 10.652344,-64.95898 13.267353,-47.63146 37.40828,-93.99874 67.810542,-130.24024 21.53233,-25.66797 47.37552,-49.05978 73.4336,-66.468746 31.57671,-21.095881 67.65863,-37.451675 105.11914,-47.646484 20.17561,-5.490755 45.5756,-9.19081 71.36133,-10.396484 3.73144,-0.174474 9.16247,-0.245394 14.98437,-0.230469 z m 93.29883,79.925783 -0.0723,0.0176 c -0.002,-1e-5 -0.006,0 -0.008,0 -2.29037,0.002 -9.55674,2.2875 -13.96289,4.39257 -2.4048,1.14891 -3.47571,1.89457 -5.12109,3.57032 -5.77212,5.87864 -6.96465,14.59192 -2.51758,18.39843 1.48083,1.26753 3.10118,1.79688 5.49414,1.79688 2.2049,0 3.23554,-0.37338 3.92383,-1.42383 0.73821,-1.12663 0.38657,-2.68463 -1.02149,-4.5293 l -1.11523,-1.45898 c -0.007,-0.0183 -0.0147,-0.0364 -0.0215,-0.0547 l 0.10937,-3.11133 c 0.15363,-4.43267 0.41967,-4.73662 6.0293,-6.90234 2.69802,-1.04162 3.36392,-1.17392 5.91992,-1.16992 2.18864,0.003 3.31968,0.17325 4.71094,0.70703 6.00209,2.30331 8.77513,10.63428 6.0039,18.04102 -1.7247,4.60971 -7.70504,10.51388 -16.24609,16.03906 -0.82917,0.53639 -1.52614,1.0822 -1.9336,1.47851 -0.024,0.0111 -0.0849,0.0492 -0.10156,0.0547 -0.002,7.7e-4 0.006,0.0345 0.004,0.0371 -0.16326,0.16911 -0.27735,0.31264 -0.27735,0.38867 0,0.61258 2.87788,11.03068 3.23829,11.72266 0.25568,0.49093 0.4956,0.45783 2.75976,-0.37305 3.94582,-1.44802 4.24114,-1.57603 4.24414,-1.83789 0.001,-0.13636 -0.73909,-1.7827 -1.64453,-3.66015 -0.90544,-1.87746 -1.56474,-3.62622 -1.46484,-3.88672 0.1,-0.2605 2.67616,-1.75423 5.72461,-3.31836 8.8793,-4.55589 13.65773,-8.04554 15.39648,-11.24024 1.52947,-2.8101 2.19676,-6.08664 2.22656,-10.9414 0.0263,-4.31867 0.0251,-4.32148 -1.29882,-7.79297 -2.53539,-6.64818 -4.36725,-9.11682 -8.29688,-11.17774 -2.57733,-1.35169 -8.83421,-3.54503 -10.52734,-3.71679 z m -215.96289,27.80078 c -2.21354,0.003 -9.06587,2.11148 -12.75195,3.92383 -5.92354,2.91246 -9.36934,7.23172 -9.92579,12.43945 -0.47995,4.49174 0.55133,7.12056 3.2793,8.35938 1.44465,0.65604 4.04661,0.80194 5.01953,0.28125 0.89641,-0.47974 0.76569,-1.42241 -0.50976,-3.70313 l -1.12696,-2.01562 0.20899,-3.13477 c 0.11517,-1.72404 0.39796,-3.6004 0.6289,-4.16992 0.79512,-1.96092 6.28569,-4.59268 11.02344,-5.2832 7.24673,-1.05622 13.14335,3.06445 14.8711,10.39257 0.96328,4.08569 0.46321,7.74054 -1.65235,12.07227 -1.84287,3.77338 -7.69968,9.46416 -15.24414,14.8125 -1.59729,1.13233 -2.14062,1.7064 -2.14062,2.26367 0,0.74552 2.07737,8.65592 2.41797,9.20703 0.0988,0.15983 0.22901,0.29102 0.29101,0.29102 0.40282,0 3.69141,-1.41124 3.69141,-1.58399 0,-0.11737 -0.5051,-1.46257 -1.1211,-2.99023 -0.616,-1.52765 -1.11914,-3.20497 -1.11914,-3.72656 0,-1.21554 0.717,-1.75183 6.87891,-5.13868 11.426,-6.28022 14.72695,-9.28524 15.81641,-14.40234 0.20609,-0.968 0.45383,-3.84644 0.55273,-6.39844 l 0.18164,-4.64062 -1.45117,-3.42969 c -2.4786,-5.86001 -4.6267,-8.45791 -8.58984,-10.38867 -3.26752,-1.59187 -7.6645,-3.03911 -9.22852,-3.03711 z m 214.40039,36.85547 c -0.26662,0 -1.37025,0.72643 -2.45313,1.61328 -2.18725,1.7913 -2.83072,2.9973 -3.29101,6.17383 -0.27171,1.87491 -0.22853,2.09545 0.84766,4.42773 1.22429,2.65334 2.65201,4.29181 4.125,4.73242 2.94256,0.88022 8.2468,-0.0904 10.42187,-1.90625 0.88544,-0.73918 1.05484,-1.09001 1.02734,-2.14062 -0.0481,-1.83327 -1.01458,-3.72391 -3.60351,-7.06055 -2.23993,-2.88686 -5.8171,-5.83984 -7.07422,-5.83984 z m -215.36914,29.17187 c -0.69898,-0.0951 -1.33512,0.29474 -2.25195,1.12305 -1.7076,1.54272 -2.20507,2.57478 -2.43555,5.04297 -0.16042,1.71787 -0.0761,2.27828 0.53711,3.54492 0.40054,0.82741 1.26198,2.06452 1.91406,2.75 1.18444,1.24534 1.18738,1.24805 3.73633,1.24805 2.97618,0 5.63331,-0.69776 6.69141,-1.75586 0.61122,-0.61122 0.69987,-0.91756 0.48242,-1.67578 -0.67692,-2.36028 -2.93721,-5.53661 -6.04297,-8.49024 -1.16933,-1.11206 -1.93188,-1.69203 -2.63086,-1.78711 z m 145.50586,14.14453 c -14.6374,-0.1728 -29.16012,1.67735 -44.53711,5.53711 -24.84928,6.23739 -46.73269,17.93055 -65.34766,34.91993 -5.50275,5.02221 -9.5845,9.14002 -9.83203,9.91992 -0.28542,0.8993 -2.84394,3.52031 -3.78711,3.8789 -0.50868,0.1934 -1.22137,1.25317 -2.27539,3.39063 -0.84357,1.71069 -2.61471,4.91622 -3.93555,7.12109 -3.3249,5.55024 -5.24366,9.21152 -7.08593,13.51563 -5.84677,13.6598 -9.09367,31.60937 -8.10547,44.82422 1.22371,16.36426 5.67091,30.96904 14.17969,46.57617 1.34285,2.46311 8.48638,11.99638 12.31836,16.43945 7.71009,8.93962 17.98365,17.71453 28.75,24.55469 13.24377,8.41412 24.40351,13.34037 41.83007,18.46289 5.41603,1.59207 8.20173,2.56043 8.4961,2.95508 0.65769,0.88183 0.33389,2.26754 -2.61328,11.14843 -3.06067,9.22301 -4.99745,13.97868 -8.56446,21.03711 -3.03827,6.01219 -5.88843,10.41336 -9.6914,14.96289 -2.93706,3.51368 -3.81521,5.01436 -3.50391,5.98243 0.45741,1.4223 0.99507,2.1445 1.88672,2.5332 2.0783,0.90608 8.5427,0.14424 14.35351,-1.69141 10.70864,-3.38285 22.47238,-11.52766 33.98438,-23.52734 5.90726,-6.1575 10.19039,-11.26516 18.6582,-22.25195 1.79475,-2.32867 3.53509,-4.37888 3.86719,-4.55664 0.33212,-0.17772 3.46061,-0.68888 6.95117,-1.13477 11.9561,-1.52727 18.05709,-2.69845 28.26563,-5.43164 10.15047,-2.71763 17.78065,-5.57458 27.35937,-10.24219 8.8369,-4.30611 15.09902,-8.17676 25.78906,-15.93945 1.86394,-1.35353 3.67308,-2.46094 4.01954,-2.46094 0.36928,0 1.28421,-0.75792 2.21093,-1.83203 0.86957,-1.0079 3.72961,-4.14084 6.35547,-6.96094 2.62588,-2.8201 6.133,-6.74656 7.79297,-8.72656 1.65997,-1.98 3.20242,-3.59961 3.42774,-3.59961 0.22528,0 0.8089,-0.54117 1.29687,-1.20117 0.48796,-0.66 1.28973,-1.63152 1.7832,-2.16016 0.49344,-0.52867 1.12597,-1.60906 1.4043,-2.40039 0.27831,-0.79136 0.83999,-1.94419 1.24805,-2.5625 0.40806,-0.6183 0.85038,-1.48222 0.98437,-1.91992 0.13398,-0.43769 1.43908,-3.31648 2.89844,-6.39648 3.46985,-7.32319 5.02097,-11.26957 6.52734,-16.59961 2.98096,-10.54772 3.75284,-15.86493 4.62305,-31.8418 0.068,-1.2479 -0.069,-2.91062 -0.31641,-3.83984 -0.24003,-0.90144 -0.43645,-2.14886 -0.43945,-2.77149 -0.01,-2.95414 -3.13076,-16.43273 -5.23828,-22.62304 -3.56809,-10.48057 -10.37529,-22.68233 -17.98828,-32.24415 -3.6664,-4.605 -13.66391,-14.54037 -18.61719,-18.50195 -6.23939,-4.99019 -14.24806,-10.56357 -19.28125,-13.41797 -0.792,-0.44916 -2.10065,-1.39773 -2.9082,-2.10937 -0.80752,-0.71165 -2.20634,-1.57483 -3.10938,-1.91797 -0.90304,-0.34312 -2.33046,-1.12337 -3.17187,-1.73438 -0.84141,-0.61101 -2.32302,-1.36407 -3.29102,-1.67187 -0.968,-0.30781 -2.40722,-0.93104 -3.19922,-1.38672 -2.52579,-1.45321 -9.03218,-3.56293 -11.03906,-3.57812 -0.528,-0.004 -4.20016,-0.8722 -8.16016,-1.92969 -15.83339,-4.22822 -30.58525,-6.4229 -45.22265,-6.59571 z m 207.51172,16.50391 -5.22461,1.3125 c -13.66528,3.4329 -22.82376,7.43242 -28.48242,12.4375 -0.82317,0.7281 -2.27489,2.36438 -3.22657,3.63672 -4.77046,6.37781 -6.96112,12.3192 -6.95312,18.85937 0.006,5.05393 1.21364,8.23096 4.29687,11.3086 3.15943,3.15374 6.04487,4.13941 11.5,3.92969 3.75792,-0.14447 5.37368,-0.75818 6.51563,-2.47266 1.45961,-2.19143 0.63118,-6.02689 -1.91797,-8.87695 -1.74718,-1.95336 -1.83789,-2.29252 -1.83789,-6.91602 0,-7.63098 1.32661,-9.7531 7.20117,-11.53125 0.88,-0.26636 2.56911,-0.94356 3.75391,-1.50391 3.16688,-1.4978 5.08542,-1.93379 9.36523,-2.13086 6.98957,-0.32184 11.05675,1.1187 15.39063,5.45508 2.94602,2.94772 4.50909,5.72774 5.55859,9.88086 0.35528,1.40593 0.59831,2.80851 0.74805,4.20703 0.0386,0.98296 0.0567,2.0665 0.0547,3.38477 -0.001,0.99765 -0.009,1.6642 -0.0176,2.35937 -0.48705,5.10283 -2.35785,10.07735 -5.60157,14.76954 -3.83872,5.55293 -14.13517,14.38224 -25.35546,21.74218 -2.7503,1.80407 -4.67965,3.27226 -4.59375,3.4961 0.0814,0.21225 1.32276,4.6259 2.75976,9.80859 1.43699,5.18272 2.83132,10.17952 3.09766,11.10352 0.26634,0.924 0.63695,1.67968 0.82226,1.67968 0.59623,0 13.05664,-4.61136 13.05664,-4.83203 0,-0.11712 -1.36706,-3.1117 -3.03906,-6.65429 -1.672,-3.5426 -3.04101,-6.72277 -3.04101,-7.06641 0,-0.49597 1.69962,-1.48138 8.24023,-4.78125 16.08006,-8.11273 25.3991,-14.57095 29.16406,-20.20898 1.58972,-2.38064 3.01562,-6.33511 3.93555,-10.91602 0.62667,-3.12055 0.72575,-4.59346 0.71875,-10.66016 l -0.008,-7.04101 -1.53125,-4.32031 c -1.88871,-5.32863 -5.70788,-13.24692 -7.67188,-15.90626 -0.8074,-1.09322 -2.30102,-2.64753 -3.31836,-3.45312 -3.5944,-2.84622 -13.19549,-6.9722 -21.90429,-9.41211 z M 407.0957,245.7793 c 1.00654,-0.034 1.19865,0.0914 1.35547,0.49804 0.73981,1.91868 3.27733,22.81379 3.70703,30.52344 0.35174,6.31032 0.96289,32.13244 0.96289,40.59766 -9.9e-4,5.65556 0.44326,9.83855 1.59766,15.05468 l 0.5957,2.69336 -1.85742,4.66602 c -5.3479,13.43546 -6.29973,17.08349 -8.8125,33.78711 -0.63542,4.224 -1.32761,7.84257 -1.53906,8.04101 -3.1e-4,2.6e-4 -0.002,-2.5e-4 -0.002,0 -0.21328,0.19945 -3.36512,2.10735 -7.00586,4.24024 -3.64188,2.13357 -6.76737,3.87891 -6.94727,3.87891 -0.6416,0 -0.91008,-1.18015 -1.27148,-5.59961 -0.20148,-2.46399 -1.03098,-12.0393 -1.84375,-21.2793 -0.81277,-9.24 -1.49648,-17.73686 -1.51758,-18.88086 l -0.0352,-1.95117 v -0.12891 l 2.04297,-0.0957 2.04688,-0.0977 -2.04102,-0.96484 c -1.12298,-0.53108 -2.08768,-1.01151 -2.14258,-1.06641 -0.0549,-0.055 -0.23428,-1.01579 -0.40039,-2.13672 -0.16608,-1.12092 -1.02075,-6.86181 -1.89844,-12.75781 -2.02557,-13.6069 -2.43523,-17.23282 -3.03711,-26.88086 -0.269,-4.312 -0.74012,-10.86454 -1.04687,-14.56054 -0.36086,-4.34827 -0.5595,-9.99526 -0.5625,-16 -0.004,-8.16256 0.0657,-9.45811 0.57031,-10.76563 0.8352,-2.16424 3.4762,-4.51829 6.83399,-6.0918 4.40797,-2.06565 13.39129,-4.05639 20.9414,-4.64062 0.54563,-0.0422 0.97113,-0.0707 1.30664,-0.082 z m -264.66211,12.67382 -4.41601,1.05274 c -8.88564,2.11637 -18.66535,5.42973 -24.09766,8.16602 -4.38672,2.20961 -8.79195,5.5206 -11.41406,8.57812 -7.654777,8.92588 -10.849254,20.93077 -7.763672,29.17773 1.371211,3.6649 4.230244,6.93451 7.511722,8.58985 3.61066,1.8214 10.69931,2.04948 13.96289,0.44922 1.48711,-0.72919 1.94554,-1.15599 2.52148,-2.34571 1.27007,-2.62364 0.27517,-6.15559 -2.72461,-9.66992 -0.80041,-0.9377 -1.54385,-2.05798 -1.65234,-2.49023 -0.1085,-0.43226 -0.13319,-3.0495 -0.0547,-5.81446 0.108,-3.80269 0.27826,-5.33842 0.69531,-6.30664 1.10304,-2.56078 3.5182,-4.33559 7.41211,-5.44726 1.04848,-0.29933 2.34187,-0.80833 2.875,-1.13086 0.53313,-0.32252 2.33313,-1.05706 4,-1.63281 2.95288,-1.01998 3.17034,-1.0481 8.47071,-1.0586 5.27238,-0.0104 5.52393,0.0197 8.17382,0.96875 3.47276,1.2437 5.84791,2.82356 8.41993,5.60156 2.40898,2.60193 4.00351,5.49144 5.20507,9.43165 0.80853,2.65128 0.87654,3.30237 0.89844,8.62695 0.0207,5.03973 -0.0693,6.10059 -0.70898,8.48047 -0.97251,3.6179 -3.42014,8.49231 -5.96289,11.86914 -4.797,6.37056 -17.28585,16.80938 -28.78125,24.05859 -1.96049,1.23632 -3.60847,2.28393 -3.66407,2.32813 -0.0741,0.0589 5.35167,19.97383 6.86133,25.18359 0.0893,0.308 0.27275,0.56055 0.40821,0.56055 0.40807,0 14.25366,-5.13632 14.49414,-5.37696 0.1226,-0.12265 -1.3668,-3.57821 -3.3086,-7.67968 -1.9418,-4.10144 -3.45533,-7.64996 -3.36523,-7.88477 0.0901,-0.23482 3.52185,-2.09306 7.62695,-4.13086 15.42317,-7.65609 25.04106,-13.81577 30.88672,-19.7793 2.93599,-2.99516 4.31711,-5.32201 5.70312,-9.60937 1.90286,-5.88614 2.22252,-8.37879 2.22852,-17.37891 l 0.006,-8 -1.08008,-3.19922 c -3.14184,-9.31513 -7.08747,-17.2053 -10.48047,-20.96093 -3.60865,-3.99436 -12.66653,-8.37749 -24.82422,-12.01172 z m 465.63868,99.17383 -1.875,1.40625 c -2.73472,2.04931 -6.17447,5.43607 -6.83204,6.72657 -0.6865,1.34732 -1.52944,5.03512 -1.90234,8.32031 l -0.27344,2.40039 1.53711,3.25976 c 3.05408,6.48265 5.18197,8.80321 8.86914,9.67188 0.41483,0.0978 1.5203,0.17663 2.77539,0.23633 0.0546,0.003 0.1176,0.003 0.17383,0.006 0.70332,0.0314 1.40593,0.0681 2.14649,0.0742 3.49401,0.0289 4.18554,-0.0652 6.7832,-0.91407 3.59914,-1.17616 5.16419,-1.96603 6.77344,-3.41992 2.23616,-2.02023 2.2809,-4.52291 0.16211,-8.99414 -1.15296,-2.43315 -6.58111,-9.92576 -8.98047,-12.39453 -1.29562,-1.33309 -4.85241,-3.82372 -8.03321,-5.62695 z m -469.03321,28.64258 -2.3457,1.77539 c -3.68136,2.78598 -6.63738,5.73387 -7.42383,7.4043 -0.84668,1.79834 -1.74605,5.98474 -2.04687,9.51953 l -0.2168,2.55078 1.9082,3.85156 c 2.16327,4.36272 4.39963,7.52998 6.09375,8.63282 1.11196,0.72391 3.63919,1.56527 5.63281,1.875 0.528,0.082 2.54252,0.0996 4.47852,0.0391 2.87639,-0.0899 4.06962,-0.29129 6.52539,-1.09961 3.81356,-1.25523 6.33012,-2.5957 7.91016,-4.21484 1.07104,-1.09725 1.21354,-1.35431 1.23437,-3.05664 0.0646,-0.51502 0.0618,-1.06211 -0.008,-1.64649 -0.0394,-1.70606 -0.2496,-2.38017 -1.35156,-4.67383 -1.3844,-2.88156 -7.34212,-11.16731 -9.96875,-13.86523 -1.35905,-1.39594 -5.53956,-4.34099 -8.66016,-6.09961 z m 254.99414,15.33008 c 0.10695,0 0.27108,0.0306 0.46485,0.0762 l 2.77539,1.18555 c 4.05895,1.73418 5.14702,2.45108 7.2539,4.77929 2.57836,2.84917 7.95321,10.43052 8.3711,11.8086 0.2032,0.67021 0.36509,3.4996 0.37109,6.4707 0.01,4.81213 -0.0558,5.44412 -0.74023,7.14063 -0.90413,2.24096 -3.74401,5.40178 -6.51758,7.2539 l -1.92383,1.28516 -3.4043,-0.0352 c -7.06624,-0.0728 -10.44297,-1.59692 -12.88281,-5.81445 -3.17878,-5.49485 -4.05865,-6.90737 -6.10742,-9.80469 -1.27421,-1.80195 -2.16992,-3.39489 -2.16992,-3.86523 -0.007,-2.34444 3.38328,-12.89086 4.71679,-14.67383 1.02822,-1.37479 4.35865,-3.52833 7.48829,-4.8418 l 2.29492,-0.96289 c 0.002,-2e-5 0.007,-0.002 0.01,-0.002 z m 171.97461,215.82227 c 1.50215,0.0944 3.7479,1.78473 4.6543,4.01757 0.49958,1.23066 0.40724,1.87247 -0.35938,2.48047 -0.96259,0.76346 -1.78858,0.41855 -3.63281,-1.51953 -1.97264,-2.07303 -2.3553,-2.82177 -2.05469,-4.01953 0.17964,-0.71569 0.70979,-1.00189 1.39258,-0.95898 z"
       id="path197"
       inkscape:connector-curvature="0"
       inkscape:export-xdpi="300"
       inkscape:export-ydpi="300" />
  </g>
</svg>
