<?xml version="1.0" encoding="UTF-8" standalone="no"?>
<svg
   xmlns:dc="http://purl.org/dc/elements/1.1/"
   xmlns:cc="http://creativecommons.org/ns#"
   xmlns:rdf="http://www.w3.org/1999/02/22-rdf-syntax-ns#"
   xmlns:svg="http://www.w3.org/2000/svg"
   xmlns="http://www.w3.org/2000/svg"
   xmlns:sodipodi="http://sodipodi.sourceforge.net/DTD/sodipodi-0.dtd"
   xmlns:inkscape="http://www.inkscape.org/namespaces/inkscape"
   version="1.1"
   id="svg274"
   width="810.07977"
   height="917.07959"
   viewBox="0 0 810.07978 917.07959"
   sodipodi:docname="Sammeln.svg"
   inkscape:export-filename="/media/chemo/DATA/Coding/Sammel-App/Sammel-App/sammel_app/assets/images/Sammeln_centered.png"
   inkscape:export-xdpi="52.34"
   inkscape:export-ydpi="52.34"
   inkscape:version="1.0.1 (1.0.1+r75)">
  <metadata
     id="metadata280">
    <rdf:RDF>
      <cc:Work
         rdf:about="">
        <dc:format>image/svg+xml</dc:format>
        <dc:type
           rdf:resource="http://purl.org/dc/dcmitype/StillImage" />
        <dc:title></dc:title>
      </cc:Work>
    </rdf:RDF>
  </metadata>
  <defs
     id="defs278" />
  <sodipodi:namedview
     pagecolor="#ffffff"
     bordercolor="#666666"
     borderopacity="1"
     objecttolerance="10"
     gridtolerance="10"
     guidetolerance="10"
     inkscape:pageopacity="0"
     inkscape:pageshadow="2"
     inkscape:window-width="1848"
     inkscape:window-height="1016"
     id="namedview276"
     showgrid="false"
     inkscape:zoom="0.82728368"
     inkscape:cx="409.80128"
     inkscape:cy="432.2414"
     inkscape:window-x="72"
     inkscape:window-y="27"
     inkscape:window-maximized="1"
     inkscape:current-layer="g284"
     inkscape:document-rotation="0"
     fit-margin-left="40"
     fit-margin-top="40"
     fit-margin-bottom="40"
     fit-margin-right="40" />
  <g
     id="g284"
     transform="translate(126.28129,-40.238607)">
    <path
       style="display:inline;fill:#800080;stroke-width:0.32"
       d="m 115.02633,122.74816 c -0.69921,0.4767 -0.61483,0.70035 0.92678,2.43043 1.47211,1.65214 1.26453,2.07934 -2.10878,4.32571 -1.48597,0.98956 -2.79996,1.95347 -2.91827,2.1423 -0.32989,0.52658 0.31152,1.5656 1.66672,2.69962 1.05205,0.88037 1.84485,2.13847 5.54696,8.81584 4.64425,8.37671 5.38544,9.36029 7.23329,9.58778 1.22376,0.15066 4.08466,-1.44616 5.13172,-2.86426 1.02317,-1.38577 1.0107,-2.49033 -0.0589,-5.80114 -1.23054,-3.80889 -1.69702,-6.36949 -1.25096,-6.85136 0.56464,-0.60991 1.73764,-0.0604 4.56924,2.13908 2.64671,2.05587 9.4206,7.80091 10.38434,8.80692 0.4994,0.52128 0.47279,0.54017 -4.25913,3.01373 l -4.76258,2.49091 -5.56846,6.87612 c -6.47382,7.9966 -8.05346,9.58917 -10.90613,10.99345 -1.67413,0.82411 -2.44345,1.01391 -4.18325,1.02789 -2.38299,0.0192 -6.17001,-0.98361 -6.26322,-1.65765 -0.0391,-0.28265 0.70005,-0.90318 2.07909,-1.74648 2.98827,-1.82745 4.34954,-3.27376 5.11857,-5.43325 0.79588,-2.23493 0.52922,-3.60336 -0.92325,-4.7268 -1.30236,-1.00733 -2.73311,-0.97854 -6.42261,0.12763 -3.48003,1.04339 -4.35124,0.98755 -6.04302,-0.38365 -1.8595,-1.50717 -4.273064,-6.50482 -4.51643,-9.35372 -0.203748,-2.38475 0.562656,-6.07913 1.945667,-9.37454 1.108053,-2.64023 1.257023,-3.33228 0.775113,-3.63419 -0.785354,-0.49202 -5.277829,2.811 -7.415051,5.45156 -1.747914,2.15959 -2.91019,5.5686 -2.927917,8.59114 l -0.01188,2.23081 2.59699,5.2742 c 1.999537,4.06082 2.615212,5.56323 2.674934,6.52899 0.163761,2.64795 -1.674775,8.54879 -3.84174,12.33718 -1.104851,1.93157 -6.640413,9.21036 -11.299152,14.85532 -5.098335,6.17759 -6.415672,7.98824 -7.146517,9.82585 -1.388728,3.49172 -1.019757,4.83007 4.965996,17.9908 6.957538,15.29734 7.880406,17.994 7.370654,21.57454 -0.684434,4.80766 -4.155167,9.1313 -10.533941,13.12875 -8.736927,5.47526 -21.435564,6.68222 -27.045527,2.56894 -1.053867,-0.77271 -1.483293,-1.38745 -2.749346,-3.92562 l -1.500635,-3.0078 0.174074,-2.75913 c 0.498439,-7.90524 2.551875,-15.36267 6.085028,-22.1021 5.248698,-10.01183 7.132589,-13.87892 6.99601,-14.36275 -0.346568,-1.22763 -1.082826,-0.92559 -22.014773,9.08961 -42.2449043,20.21266 -105.888076,51.32578 -107.697394,52.64858 -2.613026,1.91039 -6.012102,5.38478 -8.405524,8.59091 -2.650729,3.55081 -4.457639,8.34157 -4.650542,12.33049 l -0.123866,2.54719 4.148109,9.02566 c 7.445053,16.20219 26.629699,56.44757 26.902921,56.43641 0.146623,-0.006 1.480198,-0.88371 2.962517,-1.95075 3.453296,-2.48579 7.425229,-4.20773 11.809254,-5.11814 4.01093,-0.83294 6.486051,-0.66421 10.401453,0.70635 1.688311,0.59099 3.118446,1.04973 3.177611,1.01953 0.0592,-0.0302 -1.776824,-3.98109 -4.079722,-8.78065 -5.388465,-11.2304 -12.438404,-26.68078 -12.504339,-27.40229 -0.07513,-0.82198 1.309691,-1.85323 5.733396,-4.27302 2.171649,-1.18788 29.1349186,-14.39313 59.917285,-29.34401 l 55.967321,-27.18354 2.314847,0.1207 c 3.051674,0.15992 5.065509,0.72407 5.461283,1.52785 0.941844,1.91279 -1.42034,4.09636 -16.914257,15.63252 -9.368941,6.97573 -12.840669,9.82067 -14.567419,11.94067 -2.448688,3.00635 -4.522135,9.76443 -4.652087,15.16143 -0.04912,2.03982 0.05024,2.42326 1.306069,4.9737 1.229957,2.49793 1.478325,2.82599 2.593406,3.42765 3.633777,1.96064 8.997871,1.80816 17.804622,-0.50714 6.354912,-1.67073 8.263637,-2.51637 53.989769,-23.89125 8.05337,-3.76458 18.00036,-8.33839 22.10342,-10.16518 4.10307,-1.8268 18.04989,-8.05585 30.99346,-13.84156 36.28729,-16.22029 63.47287,-28.21799 74.0566,-32.68352 2.20137,-0.92881 3.49033,-1.32429 3.82602,-1.17418 0.53974,0.24139 1.94924,4.3899 1.74445,5.13448 -0.0598,0.21729 -1.77915,0.48335 -4.09001,0.63364 -3.72822,0.24247 -4.01692,0.31005 -4.43918,1.02544 -0.94113,1.59447 -8.88991,42.69253 -8.96167,46.33411 -0.0286,1.44939 0.52772,1.897 2.75022,2.20748 1.965,0.27449 16.04767,1.17483 19.71113,1.26018 l 2.62706,0.0606 0.49502,-0.9622 c 0.6902,-1.34284 6.16032,-45.69067 5.98511,-48.52372 -0.0418,-0.67574 0.0885,-1.30844 0.29073,-1.40803 0.49941,-0.2459 4.32017,0.0983 4.62689,0.41694 0.32169,0.33402 -0.007,3.86697 -1.5803,17.06252 -1.83461,15.38256 -1.83683,15.72201 -0.1609,16.20034 0.9528,0.27194 10.4273,0.0241 11.66457,-0.30528 0.69051,-0.1838 0.90067,-0.42553 0.97731,-1.12343 0.0537,-0.48873 -0.88782,-5.05721 -2.09293,-10.15302 -5.6299,-23.80639 -8.01355,-34.2543 -7.9134,-34.68966 0.0599,-0.2604 0.61267,-0.97774 1.22911,-1.59358 0.61643,-0.61592 1.19557,-1.50613 1.28737,-1.97932 0.14571,-0.75103 0.25448,-0.83999 0.84715,-0.69798 0.90682,0.21726 0.9153,0.24728 5.04983,17.1353 4.47743,18.2886 4.37167,17.91051 5.14827,18.4671 0.6779,0.48587 5.09178,0.61159 9.70443,0.27671 2.60208,-0.18891 2.86622,-0.26513 3.07831,-0.88875 0.32099,-0.94367 -0.537,-3.15607 -8.39646,-21.65939 -6.57951,-15.48992 -7.73457,-18.32546 -7.95865,-19.54991 -0.0592,-0.32381 0.45577,-1.26125 1.143,-2.08237 0.68723,-0.82113 1.31248,-1.80491 1.39081,-2.18483 0.1348,-0.6539 0.1791,-0.67166 0.82063,-0.35839 0.51208,0.25013 0.92437,0.91805 1.68835,2.7347 0.55615,1.32235 3.25843,7.76888 6.00422,14.32503 6.14353,14.66893 6.92939,16.31424 7.93994,16.60265 0.86456,0.24675 7.77751,0.1758 9.02625,-0.0925 0.66202,-0.14226 0.8628,-0.36912 0.94461,-1.06601 0.10743,-0.91527 0.2619,-0.53104 -10.98416,-27.17112 -2.46829,-5.84707 -4.75038,-11.38377 -5.07232,-12.30424 -0.57826,-1.6532 -0.5708,-1.69063 0.54318,-3.12811 0.62025,-0.80038 1.27197,-1.82467 1.45076,-2.2753 0.19264,-0.48557 0.55961,-0.84118 0.90065,-0.87233 0.51458,-0.047 0.73706,0.32931 2.10523,3.55481 0.84146,1.98383 2.93793,6.92677 4.65761,10.98449 5.70574,13.46327 8.21974,18.85614 8.94615,19.18555 0.68948,0.31267 7.17789,0.32295 8.57138,0.0139 1.23199,-0.27325 1.38217,-1.17974 0.56128,-3.37433 -2.35902,-6.30655 -15.97527,-37.5638 -16.77429,-38.5058 -0.47642,-0.56141 -0.42523,-0.67818 0.62707,-1.41471 0.63075,-0.44148 3.51559,-3.00013 6.4111,-5.68653 2.89545,-2.68642 5.99692,-5.4853 6.89301,-6.21994 0.89603,-0.73473 1.7299,-1.62919 1.85167,-1.98722 0.19803,-0.5823 0.1387,-0.68335 -0.56278,-0.96163 -0.84304,-0.33446 -14.97383,-0.0825 -18.59842,0.33197 -2.55729,0.2924 -3.9378,0.90106 -6.35505,2.79827 -3.2818,2.57574 -11.61483,10.56922 -12.14524,11.65147 -0.13466,0.27497 -0.0292,0.71687 0.24869,1.04446 0.40232,0.47458 0.36091,0.64672 -0.25619,1.04487 -1.11459,0.71922 -1.00549,1.90142 0.41391,4.45728 0.78072,1.40583 1.09846,2.2218 0.90212,2.31847 -0.16688,0.0821 -2.02097,0.25008 -4.12073,0.37228 l -3.81846,0.22128 -1.61669,1.41217 c -2.2509,1.96601 -3.60481,3.781 -3.60727,4.83279 -10e-4,0.49103 0.52242,1.96499 1.16359,3.27392 0.8694,1.77246 1.08244,2.46778 0.83935,2.73038 -0.34029,0.36767 -8.90465,0.864 -9.83189,0.56977 -0.29203,-0.0927 -1.25803,-0.98336 -2.14628,-1.98016 -2.18985,-2.4574 -3.58898,-3.44298 -5.96728,-4.20468 -5.1769,-1.65807 -11.70461,-1.03244 -22.03508,2.11124 -6.29805,1.91656 -12.34036,4.52425 -32.75358,14.14003 -33.12283,15.60274 -49.92397,23.2758 -60.28091,27.52671 -6.88161,2.82447 -13.50805,5.16793 -15.94663,5.6423 -1.22834,0.23897 -1.26768,0.22165 -0.68988,-0.31341 0.33697,-0.3118 17.07374,-8.69746 37.19296,-18.63582 34.44417,-17.0144 49.6282,-24.75981 50.5099,-25.76339 0.60765,-0.69164 0.43646,-1.42319 -1.04872,-4.49084 -1.649,-3.40619 -1.68611,-4.67242 -0.21289,-7.19703 1.73654,-2.9759 2.77288,-3.69921 10.93813,-7.65219 4.03962,-1.95565 9.83207,-4.52851 12.87329,-5.71611 6.161,-2.40589 18.43651,-8.326 20.90365,-10.08166 2.9594,-2.10595 11.87696,-6.91834 27.33475,-14.75048 22.48013,-11.39021 34.20936,-16.4622 40.52725,-17.52361 1.54301,-0.25923 2.83102,0.35312 5.26665,2.50321 l 1.81667,1.60257 73.02935,148.09355 c 100.59142,203.98523 199.91263,407.25071 204.43185,418.37559 0.60772,1.49599 1.08558,2.936 1.06009,3.20078 -0.036,0.37352 -3.00226,2.00357 -13.22869,7.27136 -20.67175,10.64897 -205.53854,102.08801 -205.98838,101.88692 -0.57484,-0.25699 8.46687,15.52699 9.95209,17.3731 0.28134,0.3497 0.52275,0.44886 0.54805,0.22434 0.0316,-0.28032 17.14604,-8.88283 56.66442,-28.48253 31.14054,-15.44455 71.91844,-35.80412 90.61669,-45.24179 23.14089,-11.68 39.31146,-19.66762 50.63894,-25.01493 22.41533,-10.58141 26.00337,-12.62283 31.5216,-17.94194 5.39378,-5.19921 8.29063,-12.04776 7.82751,-18.50583 -0.38427,-5.35858 -5.38429,-16.69445 -31.70785,-71.90713 -13.23908,-27.76841 -19.27106,-40.82663 -25.06189,-54.24496 -3.44423,-7.98084 -4.38646,-9.93742 -5.5487,-11.53411 -1.65326,-2.27128 -67.72149,-135.5625 -152.25102,-307.16264 -46.86906,-95.14728 -60.88849,-123.97814 -69.9164,-143.77005 -5.39288,-11.82284 -11.63853,-21.055517 -19.89396,-29.410957 -4.60439,-4.660122 -6.44949,-5.453102 -11.59906,-4.991098 -9.29735,0.83414 -16.36704,3.307737 -37.52273,13.129124 -15.50207,7.196581 -86.51499,42.161191 -96.03164,47.283221 l -7.18965,3.87107 -2.23753,-0.19796 c -9.05737,-0.80185 -18.21675,-3.49424 -41.41428,-12.16779 -20.5764,-7.69353 -27.58083,-10.04658 -28.34922,-9.52276 z m -32.775255,20.12237 c -0.222155,0.0939 -0.402676,0.31343 -0.711127,0.73109 -2.39862,3.24862 -2.60984,17.85961 -0.368791,25.50512 0.548612,1.87164 0.692642,2.11999 1.394292,2.39835 0.430579,0.17083 0.916162,0.24555 1.078604,0.16556 0.590294,-0.29066 1.602989,-4.28783 1.863485,-7.35731 0.349422,-4.11722 0.506776,-15.17947 0.252123,-17.69517 -0.235546,-2.32683 -0.992422,-3.43124 -2.550569,-3.72087 -0.472192,-0.0878 -0.735887,-0.1207 -0.958043,-0.0268 z m 40.391115,18.66733 c -1.35336,0.66193 -3.27727,2.01902 -3.85796,2.82924 -0.66118,0.9225 -0.54544,1.8243 0.29352,2.28507 0.89473,0.4914 2.59629,-0.24485 4.36058,-1.88806 2.04219,-1.90206 2.19301,-3.76158 0.29457,-3.61091 -0.25337,0.0201 -0.63962,0.16396 -1.09071,0.38466 z m 41.2196,-13.89358 c 0.0752,-0.0548 0.28208,-0.0625 0.57772,-0.0559 0.4764,0.0107 6.86594,0.79449 14.19914,1.74277 14.37461,1.85884 20.42099,3.11581 28.83456,5.99424 5.57332,1.90672 8.907,3.48989 11.9443,5.67015 3.48721,2.50323 6.62018,5.17504 7.73805,6.6027 1.06419,1.35909 1.0648,1.36705 0.71707,3.58738 -0.46826,2.98991 -2.27868,7.01497 -4.4071,9.79627 -1.47087,1.92206 -2.15788,2.53823 -4.3352,3.885 -3.07541,1.90225 -7.28263,3.966 -9.03962,4.43367 -3.9912,1.06235 -8.89564,0.86313 -12.9601,-0.52632 -4.88641,-1.67042 -7.64626,-4.01086 -9.73087,-8.25351 -1.27897,-2.602 -1.46559,-3.47877 -1.94857,-9.18779 l -0.37395,-4.42036 -1.46251,-2.52367 c -0.80416,-1.38794 -2.20457,-3.36038 -3.11254,-4.38465 -2.17734,-2.45613 -8.10351,-6.99377 -12.61786,-9.65996 -3.29007,-1.94311 -4.24821,-2.53574 -4.02249,-2.70002 z m -77.896955,60.10919 c 0.154589,-0.0516 0.315842,-0.0725 0.503608,-0.0782 0.48397,-0.0145 1.068945,0.14848 1.299261,0.36169 0.558627,0.51715 -0.290579,2.59893 -1.518094,3.72137 -1.640498,1.49978 -3.661565,2.6636 -4.123345,2.37428 -0.558772,-0.35007 0.358788,-2.38444 2.099427,-4.65418 0.872498,-1.13773 1.275353,-1.57007 1.739143,-1.725 z m 32.858575,-5.57929 c 0.23149,-0.10615 0.50473,-0.0581 1.04355,0.0413 0.5988,0.11046 1.37902,0.48311 1.73317,0.82728 0.54314,0.52776 0.58306,0.81369 0.26047,1.83327 -0.21037,0.66489 -0.80222,1.59885 -1.31591,2.07609 -1.61467,1.50009 -3.37083,1.90851 -3.86801,0.89881 -0.36775,-0.74686 0.3964,-3.44527 1.35782,-4.79412 0.36808,-0.51639 0.55751,-0.77625 0.78891,-0.88265 z m 28.69046,-12.04575 0.90043,0.30771 c 1.14243,0.38858 1.49309,1.42586 0.7945,2.35189 -0.66066,0.87569 -3.10225,2.12976 -3.57237,1.83525 -0.45307,-0.28383 0.0346,-1.8104 1.05432,-3.29707 z m -91.402877,45.82484 c -0.627052,0.30206 -1.184743,0.65226 -1.63017,1.04435 -1.567737,1.37996 -2.678947,3.91273 -2.510394,5.72519 0.135945,1.45884 0.205482,1.60039 1.270763,2.58981 1.807259,1.6784 6.991862,2.62217 10.257225,1.86808 1.768353,-0.40836 4.272015,-1.67473 5.234329,-2.64702 2.161295,-2.18373 0.250297,-6.40756 -4.157592,-9.1908 -1.738477,-1.09773 -5.747325,-0.69909 -8.464255,0.61044 z M 204.39133,163.6658 c -0.35519,0.18383 -0.65972,0.40768 -0.93425,0.65378 l -0.002,9.4e-4 -0.16636,0.0645 -0.0365,0.11156 c -0.16468,0.17028 -0.3116,0.35267 -0.43485,0.54938 -1.35979,2.17046 -2.2327,6.80422 -1.68357,8.93417 0.78258,3.03567 4.88296,4.65168 9.38308,3.69618 1.5307,-0.32502 5.9999,-2.76079 7.10231,-3.8716 2.57585,-2.59548 1.98669,-5.87514 -1.52815,-8.51527 -3.42104,-2.56965 -8.78387,-3.13724 -11.69997,-1.62358 z m -95.67296,48.62625 c 0.0864,-0.0207 0.15811,0.003 0.19348,0.0745 0.19163,0.38918 -0.19916,0.88137 -0.53344,0.67196 -0.15984,-0.10014 -0.13466,-0.35024 0.0567,-0.55694 0.0956,-0.10344 0.19717,-0.16848 0.28333,-0.18951 z m -5.60819,50.02319 c 1.7363,-0.85494 2.42822,-1.08323 2.32028,-0.76586 -0.21207,0.62354 -5.19074,3.4695 -5.38371,3.0776 -0.244499,-0.49654 0.46906,-1.03428 3.06343,-2.31174 z m -148.759477,100.8491 c -3.45483,1.81475 -6.619077,4.36421 -8.65297,7.05819 -2.419241,3.20436 -4.315552,8.01682 -4.774118,12.11048 -0.285387,2.54777 0.06562,6.18163 0.728703,7.55045 0.618631,1.27721 4.052375,5.40227 8.168311,9.811 5.58145,5.97848 5.770263,6.27226 6.424966,10.07725 0.549003,3.19064 0.585349,3.28591 3.83737,9.70332 2.911607,5.74564 3.358307,6.80066 3.928932,9.30122 1.764652,7.73266 10.844488,28.82254 17.591466,40.85958 3.925799,7.00387 7.760096,13.21563 9.7935879,15.86627 0.7646743,0.99673 2.1711188,2.87141 3.1252137,4.16723 4.60552508,6.2551 22.7255674,26.49091 27.4385524,30.64231 0.981881,0.86489 2.457116,2.43837 3.28042,3.49648 1.718587,2.20874 9.307565,10.0937 16.043669,16.67045 9.175683,8.9586 17.593528,15.87617 31.925448,26.23416 15.911482,11.49958 21.853838,16.94253 26.860446,24.60915 0.90201,1.38125 1.98412,2.7653 2.40513,3.07622 1.69954,1.25513 4.04112,-0.062 5.85057,-3.29225 0.66488,-1.18676 1.05853,-1.60139 1.47783,-1.55713 0.31462,0.0332 2.15833,1.59677 4.09724,3.47525 6.34504,6.14722 8.69616,7.41305 12.20867,6.57845 1.14455,-0.27194 2.43688,-0.393 2.87451,-0.26809 1.0747,0.30669 1.73301,1.67788 1.09798,2.28737 -0.59838,0.57437 -0.37644,1.72872 0.58081,3.01443 3.23694,4.34763 22.41199,25.9377 40.05594,45.10291 3.30101,3.58562 12.71049,13.8515 17.45993,19.04711 1.29852,1.42049 3.33129,3.6302 4.5165,4.9103 1.18522,1.28012 5.14549,5.58834 8.80127,9.57554 3.65578,3.9872 7.27117,7.90658 8.03266,8.7087 0.76153,0.80209 3.00509,3.22755 4.98612,5.39098 8.60255,9.3946 42.79096,46.14376 48.58915,52.22843 28.05887,29.44522 41.97598,43.22624 64.18421,63.54872 13.97317,12.78667 16.82527,14.91426 23.31878,17.40314 3.83044,1.46816 4.90893,2.20054 10.75163,7.30678 2.21438,1.93527 6.39779,5.4814 9.29641,7.87963 15.68763,12.97943 19.83603,15.90852 25.15441,17.75764 2.68333,0.93294 3.90033,1.55647 5.02863,2.57688 3.87312,3.50273 6.96796,5.21895 9.44443,5.23563 1.70552,0.0114 2.99308,-0.8677 3.23836,-2.20848 0.19643,-1.07381 0.0654,-1.38484 -4.17249,-9.89318 -4.27339,-8.5794 -10.05972,-18.95653 -15.00899,-26.91356 -7.75125,-12.46191 -11.88636,-19.45495 -14.86257,-25.1395 -4.10335,-7.83738 -7.11842,-12.31985 -15.32072,-22.77603 -2.16474,-2.75959 -5.38752,-6.87013 -7.1627,-9.13491 -7.24682,-9.24545 -16.07838,-20.10241 -22.06367,-27.12345 -11.02834,-12.93615 -16.04637,-18.63964 -30.98493,-35.2139 -5.63353,-6.25032 -11.23944,-12.48066 -12.45694,-13.84297 -4.51002,-5.04637 -44.52765,-49.0102 -60.97935,-66.99248 -2.84599,-3.11076 -7.9022,-8.64663 -11.23478,-12.3025 -3.33243,-3.656 -8.74075,-9.57926 -12.01996,-13.16336 -3.27921,-3.58408 -7.63119,-8.34502 -9.66948,-10.57835 -3.39935,-3.72514 -25.34126,-27.69956 -40.27923,-44.0133 -3.40483,-3.71839 -8.21164,-8.97492 -10.68302,-11.68159 -7.34269,-8.04199 -38.56149,-42.07345 -47.334312,-51.59886 -4.475049,-4.85897 -9.354472,-10.16012 -10.843135,-11.78126 -5.9837,-6.51636 -23.097473,-24.93964 -33.307971,-35.85526 -3.580705,-3.82797 -7.533343,-8.05953 -8.784842,-9.4051 -9.328701,-10.02982 -29.288204,-30.54129 -35.198871,-36.17163 -7.9176985,-7.54217 -11.46096884,-10.42086 -19.1365509,-15.54594 -5.4129341,-3.6143 -8.3626331,-5.97946 -14.1283881,-11.33054 -4.938027,-4.58286 -6.776231,-5.88206 -10.15234,-7.17733 -3.520049,-1.35049 -5.717705,-1.31695 -9.866007,0.15116 -1.18548,0.41956 -2.368355,0.94326 -3.519963,1.54818 z M 327.44072,179.47648 c -1.19356,0.6559 -2.70222,1.87686 -4.85405,3.88355 -2.39355,2.23209 -2.98788,3.11972 -2.77056,4.13125 0.16954,0.78895 6.69589,16.55807 9.79146,23.65683 1.63634,3.75242 1.99663,4.38884 2.71946,4.81551 0.45802,0.27033 0.93307,0.44184 1.05633,0.38116 0.12321,-0.0607 1.29609,-1.17777 2.60585,-2.48053 5.55866,-5.52845 6.64902,-8.57324 5.09446,-14.22324 -0.90135,-3.27594 -4.57452,-12.0621 -6.72545,-16.08601 -2.1104,-3.94821 -3.04368,-4.81806 -5.0384,-4.69688 -0.56073,0.034 -1.16302,0.22474 -1.87913,0.61832 z M -25.948124,375.93081 c 1.703585,-0.88832 2.581596,-0.85386 3.829573,-0.18102 1.405713,0.75791 5.061673,3.90613 5.1066,4.39769 0.0551,0.60287 -0.763703,1.5037 -4.441701,4.87575 -1.820487,1.66912 -3.54297,3.14883 -3.827603,3.28883 -0.40006,0.197 -1.006565,-0.25349 -2.67297,-1.98425 -2.006876,-2.08433 -3.057644,-3.26149 -4.397637,-4.9253 -0.497666,-0.61793 -0.455284,-0.74725 0.52671,-1.57429 0.587977,-0.49517 2.322846,-1.70535 3.854482,-2.69038 0.795324,-0.51147 1.454627,-0.91094 2.022497,-1.20704 z m -16.266733,13.29555 c 1.061198,-0.52141 2.103735,0.31424 4.281392,2.92958 2.880927,3.45999 3.065711,4.39411 1.301462,6.58699 -2.29771,2.85595 -2.843022,2.60699 -5.700228,-2.59233 -2.125122,-3.86711 -2.238178,-4.53937 -0.993421,-5.96582 0.401039,-0.45954 0.75702,-0.78471 1.110876,-0.95833 z M 18.59394,366.22925 c -1.250108,0.61109 -2.8146,1.38923 -4.781057,2.37379 -10.8386935,5.42752 -12.4495555,6.37288 -12.96867863,7.60485 -0.35369713,0.83935 -0.32614664,0.92996 0.44096963,1.45267 0.5144825,0.35058 1.0122643,0.4284 1.3429934,0.21172 0.2890934,-0.18934 0.9589928,-0.25509 1.4884437,-0.14727 0.7903875,0.16095 1.143316,0.50399 1.9754074,1.92498 0.7197414,1.22908 0.8924519,1.72065 0.5958736,1.69208 -0.6049668,-0.0583 0.6132967,1.47542 2.0170865,2.54017 0.6273469,0.4758 2.0101084,1.72088 3.0734874,2.76672 5.23366,5.14725 7.555413,7.33048 8.011883,7.53462 0.275475,0.12319 0.516092,0.21465 0.535944,0.20417 0.02009,-0.0102 -0.288746,-0.78024 -0.685729,-1.71097 -1.211091,-2.8394 -1.094456,-3.24135 1.392212,-4.84805 1.709074,-1.10427 2.30335,-1.36104 2.96894,-1.28336 0.457608,0.0534 1.664119,0.20846 2.682099,0.34479 2.200084,0.29466 2.710022,0.0958 3.30178,-1.29269 l 0.446625,-1.04721 -2.180874,-3.18228 c -2.477497,-3.61767 -3.275887,-4.37924 -4.256155,-4.05882 -0.515675,0.16852 -0.700043,0.5261 -0.730094,1.40882 -0.0221,0.6499 -0.187693,1.6465 -0.367283,2.2164 -0.313861,0.99602 -0.43425,1.0822 -3.121352,2.21181 -1.638513,0.68882 -3.06052,1.11095 -3.43551,1.0211 -0.96015,-0.23007 -4.711565,-8.59824 -4.250139,-9.48049 0.31019,-0.59311 3.053033,-2.40268 5.896137,-3.88943 1.433927,-0.74987 1.606152,-0.75207 3.892768,-0.0881 2.72779,0.79212 3.828221,0.68574 4.604201,-0.44271 0.933464,-1.3575 0.717774,-2.46967 -0.826439,-4.27374 -0.737956,-0.86182 -1.630554,-1.66555 -1.985004,-1.78528 -0.412645,-0.13945 -1.328559,0.1877 -5.07853,2.02168 z M 213.68662,271.3423 c -1.15558,0.66163 -2.36226,1.94089 -2.68575,3.11416 -0.22616,0.82022 -0.0677,1.29865 1.35767,4.10579 1.40285,2.76299 4.93548,8.51926 9.75409,15.8966 0.76547,1.17197 1.62263,2.23568 1.90547,2.36219 0.60904,0.27236 1.19444,0.0266 1.73304,-0.72489 0.43837,-0.61163 0.26667,-2.15263 -0.7952,-7.10188 -0.69213,-3.22592 -0.84749,-3.60918 -3.2545,-8.02882 -3.42861,-6.29529 -5.53794,-9.69973 -6.1914,-9.99196 -0.45433,-0.20318 -1.13009,-0.0281 -1.82345,0.36883 z m -112.52567,58.60948 c -1.14159,0.60703 -1.893451,1.7656 -1.797756,3.31261 0.142847,2.30966 1.710706,3.5245 4.425086,3.42922 1.79364,-0.063 4.17012,-1.50287 4.43973,-2.69117 0.26781,-1.18028 -0.23966,-2.16722 -1.69965,-3.30604 -1.78572,-1.39282 -3.89957,-1.52507 -5.36737,-0.74464 z m -36.19407,22.84423 c -1.719669,0.84007 -2.053938,1.57506 -1.545791,3.39102 0.82662,2.95397 0.726929,3.22461 -1.739604,4.66425 -1.837115,1.07227 -2.216196,1.41876 -2.392776,2.19705 -0.115375,0.50848 -0.124345,1.10038 -0.01936,1.31359 0.332343,0.67496 1.916881,0.9345 3.246963,0.53255 2.74813,-0.83047 2.58639,-1.03789 5.314573,6.81851 1.06425,3.06481 2.154224,5.73455 2.563756,6.28112 1.072012,1.43073 2.297627,1.84789 5.481037,1.86863 3.660079,0.0238 5.046482,-0.58429 6.907669,-3.03336 2.052919,-2.70138 3.40642,-7.46743 2.845785,-10.01805 -0.152877,-0.69549 -0.374609,-0.88167 -1.167976,-0.97932 -1.5682,-0.19306 -2.13128,0.62197 -3.087968,4.4726 -0.485701,1.95493 -1.154548,3.83218 -1.487679,4.17226 -0.745353,0.76085 -1.922875,1.03677 -3.184894,0.74749 -0.915107,-0.20979 -1.023304,-0.36412 -2.585152,-3.63635 -1.705893,-3.57406 -2.960393,-7.73983 -2.626616,-8.72115 0.16098,-0.47338 0.700396,-0.7466 3.046553,-1.55015 l 2.850013,-0.97663 0.286286,-1.10757 c 0.157284,-0.60877 0.225064,-1.22746 0.151653,-1.37656 -0.351795,-0.71446 -1.896431,-0.78116 -3.947106,-0.1682 -1.206227,0.36053 -2.420126,0.55433 -2.696439,0.43075 -0.359003,-0.16052 -0.744986,-0.92961 -1.354933,-2.69422 -1.288912,-3.72879 -1.914745,-4.06633 -4.857985,-2.62824 z m -29.922301,16.94982 c -0.412172,0.21187 -0.886931,0.51898 -1.452135,0.92403 -2.051062,1.46971 -2.820713,2.72239 -2.403188,3.90464 0.23493,0.66524 0.68297,0.94681 2.231062,1.40068 1.39392,0.40867 2.175712,0.86179 2.782662,1.61459 1.250382,1.55082 5.982109,9.30165 7.24904,11.87466 l 1.10178,2.23759 -0.665005,1.90798 c -0.711851,2.04498 -0.621512,2.66093 0.443625,3.02321 0.834397,0.28386 1.12336,0.14136 6.074926,-3.00018 4.148378,-2.63175 4.854204,-3.36596 4.306505,-4.47826 -0.147366,-0.29942 -0.914007,-0.7402 -1.703424,-0.97908 -1.35825,-0.41102 -1.606358,-0.65518 -4.619885,-4.57205 -4.466019,-5.80476 -4.360673,-5.62426 -4.373204,-7.49319 -0.01306,-1.94862 1.319373,-4.96449 2.625274,-5.94287 1.347368,-1.00947 3.216868,-1.09041 4.447181,-0.19122 0.901706,0.65897 1.279753,1.31795 3.426894,5.97367 2.841632,6.1616 3.344765,7.9758 2.87245,10.37439 -0.402277,2.0429 -0.142326,2.78599 1.12724,3.21781 0.84919,0.28883 1.091494,0.20491 3.530227,-1.22667 3.744927,-2.19833 5.50435,-3.5148 5.844055,-4.37104 0.409141,-1.03126 0.236933,-1.24305 -1.448807,-1.76195 l -1.469916,-0.45182 -3.08359,-5.55056 c -1.695585,-3.05354 -3.701296,-6.69197 -4.457806,-8.08508 -1.098632,-2.02316 -1.623562,-2.69809 -2.610469,-3.35174 -4.067264,-2.6939 -6.353465,-2.04864 -11.721347,3.31146 -1.784943,1.78235 -3.46736,3.26119 -3.737588,3.28592 -0.270228,0.0247 -0.91668,-0.41297 -1.437056,-0.97308 -0.956821,-1.02984 -1.642577,-1.2567 -2.879563,-0.62203 z M 142.00913,317.09011 c -0.60736,0.24556 -1.34934,0.74768 -2.34935,1.52473 -1.17422,0.91237 -3.57207,3.26638 -5.32697,5.23109 l -3.18991,3.57141 -2.82839,1.15321 c -5.25877,2.14342 -8.29428,5.4282 -8.34795,9.03499 -0.0468,3.14536 2.05102,6.25191 5.1948,7.69387 l 0.97294,0.44617 0.12506,2.1242 c 0.0691,1.16778 0.2389,2.35244 0.37786,2.63323 0.32655,0.65864 2.19413,1.86798 3.32009,2.14894 0.48185,0.12055 0.77784,0.34121 0.65647,0.49315 -2.51905,3.15286 -2.77281,4.0372 -1.86602,6.48555 l 0.62471,1.68876 1.96667,0.63828 c 1.87084,0.60672 2.77564,1.42699 2.34021,2.122 -0.36794,0.58727 0.39172,1.54027 1.57071,1.96969 0.64236,0.23394 1.32373,0.34964 1.51306,0.25642 0.1893,-0.0932 0.88976,-1.11192 1.55637,-2.26416 1.04509,-1.80647 1.71549,-2.50341 4.8726,-5.06179 5.58583,-4.52652 7.07043,-6.97879 6.37078,-10.53024 -0.66262,-3.36353 -3.23061,-5.72749 -6.20006,-5.70759 -2.94046,0.0197 -9.99014,2.88488 -10.30204,4.1866 -0.10208,0.42608 -0.42161,0.69108 -0.9798,0.81333 -1.24524,0.27281 -1.64738,0.0306 -1.39765,-0.84445 0.12067,-0.42282 0.14407,-0.92331 0.0513,-1.11163 -0.24103,-0.4895 0.53844,-1.28512 3.12821,-3.1927 4.20018,-3.09377 5.56926,-5.05049 5.45618,-7.79832 -0.0521,-1.26948 -0.27077,-1.91312 -1.10352,-3.24036 -0.57151,-0.91088 -1.22958,-1.96287 -1.46279,-2.33849 -0.34777,-0.56011 -0.25429,-0.90814 0.51929,-1.93422 0.51879,-0.68812 1.56632,-1.75446 2.32832,-2.36776 1.15639,-0.93065 1.48454,-1.0795 1.98656,-0.90417 1.01239,0.35358 8.86224,13.15428 9.29133,15.15133 0.0957,0.44555 -0.0926,1.2172 -0.41838,1.71471 -0.8364,1.27747 -0.75122,2.35047 0.22956,2.88911 0.76046,0.41767 0.84403,0.38788 4.43408,-1.6238 5.78962,-3.24419 6.74434,-4.07256 6.14256,-5.33002 -0.10342,-0.2169 -0.82582,-0.58287 -1.60485,-0.81428 -1.3662,-0.40582 -1.55089,-0.59702 -5.19839,-5.38878 -2.07983,-2.73232 -3.8569,-5.3191 -3.94887,-5.74713 -0.48043,-2.23606 1.05713,-6.0648 2.93851,-7.31843 1.18,-0.78627 3.19936,-0.68465 4.40447,0.22166 1.2971,0.97547 6.33815,12.25498 6.29137,14.07697 -0.0118,0.46053 -0.15825,1.49006 -0.32579,2.28741 -0.36444,1.73448 -0.083,2.42881 1.18241,2.90979 0.90414,0.34366 1.06253,0.29194 3.55698,-1.17234 3.73721,-2.19381 5.4984,-3.51011 5.83791,-4.36584 0.40332,-1.01658 0.27175,-1.1791 -1.45128,-1.79336 -1.84845,-0.65901 -1.95122,-0.80854 -6.68511,-9.67267 -3.48713,-6.52959 -3.7644,-6.96472 -4.9325,-7.73595 -4.07597,-2.69111 -6.35689,-2.04699 -11.72485,3.31318 -1.78495,1.78236 -3.46666,3.26123 -3.7376,3.28593 -0.27093,0.0247 -0.89553,-0.41442 -1.38813,-0.97541 -0.82301,-0.93739 -1.459,-1.2411 -2.47123,-0.83179 z m 46.2568,-22.45439 c -1.92856,0.99966 -2.94799,2.13381 -2.82322,3.17098 0.14597,1.21334 1.45138,2.32409 2.76157,2.34992 0.56053,0.011 1.29553,0.21638 1.63149,0.45718 0.83551,0.5988 4.32924,6.06163 7.09313,11.08931 l 2.27462,4.13759 c 2e-4,0.0136 -4.8e-4,0.028 -0.001,0.0419 l -0.69456,1.16708 c -0.38866,0.65373 -0.67918,1.62084 -0.64638,2.14919 0.0504,0.81273 0.18735,1.01214 0.89439,1.29472 0.9163,0.36623 1.13923,0.25351 7.48266,-3.78887 3.78956,-2.41494 4.11795,-3.49175 1.33066,-4.34967 -1.32522,-0.4079 -1.62992,-0.6917 -3.65915,-3.4123 -1.21737,-1.63217 -2.94168,-3.79712 -3.83229,-4.81182 l -1.61861,-1.84596 -0.005,-1.89374 c -0.003,-1.04171 0.2997,-2.60537 0.67282,-3.47496 1.26917,-2.95803 3.31307,-4.1532 5.64186,-3.30051 l 1.27244,0.46633 2.60683,5.3782 c 3.10289,6.40008 3.66941,8.32369 3.15261,10.70017 -0.43574,2.00374 -0.1655,2.77079 1.14876,3.27032 0.90414,0.34366 1.06077,0.29281 3.55522,-1.17147 3.73721,-2.1938 5.49842,-3.51012 5.83791,-4.36584 0.40331,-1.01657 0.27175,-1.1791 -1.45128,-1.79336 -1.81503,-0.64709 -1.84217,-0.6855 -6.58962,-9.43014 -3.16169,-5.82371 -3.78304,-6.80565 -4.90711,-7.74626 -3.65947,-3.06223 -6.37291,-2.36459 -11.814,3.03486 -1.77303,1.75946 -3.4407,3.21816 -3.70674,3.24246 -0.26605,0.0243 -1.0062,-0.37605 -1.64458,-0.89051 l -1.16126,-0.93474 -1.91979,0.84086 c -0.3119,0.13676 -0.60665,0.27631 -0.88216,0.4191 z m -97.367611,49.35836 c -1.691015,0.79141 -3.299593,1.90784 -4.218942,3.01135 -1.330595,1.59713 -2.357118,4.58071 -2.384097,6.93224 -0.03209,2.7946 0.710274,5.44138 2.609904,9.31063 1.566718,3.1909 1.823232,3.56041 3.135373,4.50619 3.126351,2.25356 6.775695,3.30484 9.64462,2.77715 0.923963,-0.16992 2.442623,-0.78112 3.795863,-1.52727 2.7406,-1.51118 4.22605,-3.31008 5.18924,-6.2801 0.77951,-2.40368 0.76092,-3.8316 -0.0599,-4.50315 -0.72033,-0.58936 -2.56981,-0.76146 -2.97774,-0.2776 -0.16599,0.19688 -0.54573,1.43698 -0.844,2.75592 -0.69181,3.05925 -1.11952,3.59199 -3.29895,4.11929 -3.559434,0.86118 -5.601617,0.0175 -7.048662,-2.91677 -0.786649,-1.59534 -0.829854,-1.8678 -0.375855,-2.3904 0.281723,-0.32428 2.737713,-2.10192 5.456286,-3.9515 6.018011,-4.09438 6.003971,-4.07346 4.400121,-6.79067 -2.50529,-4.24438 -6.310922,-6.43763 -10.022005,-5.77634 -0.942263,0.1679 -1.986642,0.5262 -3.001276,1.00103 z m 84.228721,-41.34311 c -3.26686,1.60859 -4.49434,2.91929 -5.42825,5.7991 -1.3125,4.04717 -0.79827,7.60807 1.88984,13.08317 1.54691,3.15064 1.83173,3.56359 3.17159,4.58415 2.80342,2.13539 7.07601,3.3353 9.83338,2.76257 1.82816,-0.37973 5.43246,-2.55056 6.70416,-4.03911 1.59049,-1.86171 3.0364,-6.35911 2.43694,-7.57654 -0.43592,-0.8853 -1.21545,-1.3064 -2.50213,-1.34996 -0.63491,-0.0215 -0.85396,0.38258 -1.75274,3.23604 l -0.97535,3.0949 c -0.0631,0.073 -0.12481,0.14754 -0.1926,0.21459 l -1.37431,0.48513 c -2.87368,1.01542 -5.19079,0.59082 -6.90502,-1.26327 -1.69043,-1.82832 -2.19122,-3.02123 -1.54968,-3.69992 0.29023,-0.30701 2.80668,-2.10821 5.59199,-4.0031 5.61769,-3.82181 5.96271,-4.2229 5.11815,-5.93812 -1.46406,-2.97336 -4.2887,-5.72538 -6.62005,-6.45 -2.32499,-0.72265 -4.43175,-0.42377 -7.44591,1.06039 z m -65.1874,34.27934 c -1.06445,0.51966 -2.24524,1.31425 -3.27886,2.25889 -1.59396,1.45611 -1.72361,2.17043 -0.63812,3.51448 0.87486,1.08329 0.9525,1.12409 2.07374,1.12985 0.99423,0.005 1.64433,0.80176 3.29283,4.03897 1.15689,2.27187 1.37857,2.54327 2.34873,2.87323 1.2805,0.43553 1.26975,0.4184 0.93123,1.41373 -0.15551,0.45718 -0.0381,1.44509 0.2809,2.34788 0.71712,2.02946 0.66807,2.77028 -0.29111,4.33419 -0.89659,1.46188 -0.94396,2.18489 -0.16569,2.53295 0.57204,0.25582 1.82583,-0.0567 5.23315,-1.30972 5.28006,-1.9417 6.8722,-3.11865 6.16573,-4.55339 -0.1676,-0.34032 -1.06463,-0.89334 -1.99364,-1.22805 l -1.68824,-0.60777 -2.45539,-4.14218 c -1.63487,-2.75752 -2.71174,-4.29194 -3.22043,-4.59495 -0.68284,-0.40704 -0.76402,-0.57809 -0.77895,-1.60844 -0.009,-0.63377 -0.53156,-2.41063 -1.16034,-3.94823 -1.08105,-2.64351 -1.19345,-2.8089 -2.06724,-3.05321 -0.57403,-0.16049 -1.52365,0.0825 -2.5883,0.60177 z m 67.07058,-31.40982 c 0.35629,-0.16151 0.74496,-0.2455 1.18437,-0.27404 1.87251,-0.1216 6.25347,2.25249 5.92705,3.21215 -0.0769,0.22607 -0.97348,0.95775 -1.99186,1.62736 -1.01835,0.66964 -3.24675,2.01859 -4.95346,2.99638 l -3.0302,1.73371 c -0.04,7.2e-4 -0.0849,0.008 -0.12319,0.006 l -0.89828,-0.66148 c -0.77965,-0.57565 -0.89898,-0.77679 -0.68051,-1.13444 0.14597,-0.2391 0.34425,-0.47532 0.44169,-0.52665 0.0975,-0.0513 0.69799,-1.38817 1.33448,-2.9713 0.94687,-2.35511 1.72094,-3.52358 2.78989,-4.00796 z m -84.845724,41.82762 c 0.342211,-0.16512 0.724216,-0.26654 1.166355,-0.32829 1.994691,-0.27859 6.492571,1.98689 6.119989,3.08229 -0.08379,0.24637 -0.896851,0.95571 -1.806375,1.57519 -0.909497,0.6195 -3.068752,1.93406 -4.798395,2.92221 -3.050254,1.74261 -3.172638,1.78613 -4.09055,1.43724 -1.170645,-0.44492 -1.439868,-0.93789 -0.831849,-1.52145 0.255993,-0.24628 0.978977,-1.72597 1.607177,-3.28844 0.929862,-2.31279 1.606909,-3.38365 2.633636,-3.87879 z m 36.082154,-13.95463 c 0.8249,-0.38333 1.55684,-0.30312 2.64063,0.12792 2.46389,0.97995 3.54926,2.67869 2.55412,3.99779 -0.59248,0.78541 -3.38929,2.21857 -5.09172,2.60946 -1.44582,0.33197 -3.04613,0.006 -3.54979,-0.72307 -0.54639,-0.79105 0.5188,-3.68697 1.76491,-4.79861 0.65873,-0.58816 1.18688,-0.98351 1.68185,-1.21349 z m -92.174427,54.02913 c -0.140951,0.0965 -0.26391,0.25213 -0.361886,0.47208 -0.141027,0.31535 -0.283414,1.83418 -0.317572,3.37408 -0.03416,1.5399 -0.240532,3.47631 -0.458638,4.30345 -0.358355,1.359 -0.577593,1.62403 -2.280831,2.74715 -2.042996,1.34718 -4.905769,2.52203 -5.719035,2.34796 -0.279277,-0.0596 -0.538306,-0.017 -0.576193,0.0943 -0.05847,0.1717 2.073787,2.66015 2.538441,2.96275 0.239292,0.1557 12.354786,-6.22655 12.470584,-6.56933 0.160496,-0.47511 -2.903381,-7.9187 -3.69335,-8.9731 -0.590236,-0.78796 -1.17872,-1.04861 -1.601682,-0.75923 z M 226.1745,300.01101 c -0.67041,0.39911 -1.06922,1.09183 -1.09963,1.9892 -0.0684,2.01931 2.07811,4.34127 4.18867,4.53182 1.96205,0.17718 2.98981,-0.72995 3.02809,-2.67093 0.0445,-2.26101 -2.1543,-4.26832 -4.63768,-4.23235 -0.57644,0.008 -1.07714,0.14285 -1.4794,0.38228 z m -86.7549,49.37074 c 1.33767,-0.60638 2.71629,-0.69464 4.20759,-0.29315 2.17435,0.58539 2.38448,1.43377 0.82775,3.34349 -1.15255,1.4139 -1.66343,1.76316 -5.53567,3.79032 -2.76852,1.44937 -4.49515,2.21117 -4.92131,2.16851 -1.69879,-0.17026 -1.1418,-2.30529 1.46056,-5.59795 1.32718,-1.67929 2.62344,-2.8048 3.96105,-3.41125 z M -22.377414,444.3566 c 0.08965,-0.0707 0.209413,-0.10432 0.363051,-0.0895 0.73573,0.0708 1.979546,1.71209 2.00768,2.64928 0.02931,0.97608 -0.167783,1.14979 -0.92126,0.81281 -1.212673,-0.54232 -2.076041,-2.87664 -1.449482,-3.37262 z m 10.767187,7.04656 c 0.136067,-0.0636 0.391347,0.11617 0.785084,0.45813 1.878157,1.63113 8.4578712,8.91073 9.387669,10.3862 0.78449706,1.24489 1.00382734,1.93193 1.11518283,3.47627 l 0.13937489,1.92338 3.07610008,3.91275 c 3.5611795,4.52975 10.1655102,11.88631 23.4768042,26.14679 5.206512,5.57777 10.430793,11.19173 11.609291,12.47515 1.178472,1.28342 6.449212,6.95493 11.711566,12.60329 18.719413,20.09252 27.831317,30.38884 29.955576,33.8485 1.387149,2.25916 0.951808,2.46979 -2.149864,1.04119 C 65.185645,552.00446 31.480625,522.12852 13.789745,501.20596 7.9134974,494.25627 4.7002418,490.22004 1.0577314,485.20384 -4.847544,477.07152 -6.2450962,474.88817 -8.7549095,469.8825 l -2.4387755,-4.86447 0.311016,-2.01234 c 0.325398,-2.1109 0.144894,-5.20838 -0.517153,-8.86725 -0.333869,-1.8452 -0.437219,-2.62945 -0.210407,-2.73527 z m 100.913279,-45.24359 -39.2908,19.44666 0.453691,0.66485 c 0.248947,0.36505 1.157695,1.235 2.020794,1.93311 l 1.569751,1.26914 67.849952,-33.30662 c 50.30102,-24.69136 67.97783,-33.26172 68.33983,-33.13855 0.36543,0.12432 0.1666,0.48253 -0.78959,1.42508 -1.94943,1.92165 -8.45949,13.46495 -10.08516,17.88236 -1.2642,3.43515 -2.9782,11.11914 -3.76556,16.88671 -0.38261,2.80276 -0.3481,8.59216 0.0699,11.72603 0.31845,2.38739 1.04524,3.59442 2.18511,3.63304 1.30169,0.0441 1.60949,-1.15976 1.25268,-4.88384 -0.5139,-5.36312 0.19099,-12.77879 1.93981,-20.43546 1.09417,-4.79048 3.30159,-9.78397 7.64895,-17.2989 2.60039,-4.49508 2.84521,-4.75106 11.813,-12.31734 3.3413,-2.8191 4.20633,-3.40061 7.45434,-5.01809 3.35095,-1.66882 3.7379,-1.79872 4.38859,-1.4686 0.98435,0.49946 1.63134,2.54209 1.55114,4.89221 -0.0726,2.12787 -1.83934,7.69133 -3.49111,10.98892 -2.29999,4.59163 -4.66818,6.80024 -6.41996,5.99132 -0.45005,-0.20782 -1.85652,-1.40785 -3.12736,-2.66834 -1.65577,-1.64228 -2.64254,-2.37479 -3.4834,-2.58232 -1.45188,-0.35834 -1.8441,-0.17627 -2.38614,1.10961 -0.53915,1.27907 0.61733,8.32258 2.14922,13.09261 0.57547,1.79189 0.96379,3.48598 0.86534,3.76474 -0.10676,0.30236 -2.06766,1.59963 -4.86219,3.21705 -5.51925,3.19444 -6.52587,4.12706 -6.28883,5.8244 0.13228,0.94707 0.30395,1.23469 0.96577,1.62532 1.09195,0.64451 2.05844,0.6224 7.18187,-0.16405 3.17653,-0.48762 4.60093,-0.55841 5.11578,-0.25267 0.39251,0.23313 1.82997,1.6902 3.19465,3.23828 4.17916,4.74091 5.46853,5.37158 8.60695,4.20244 2.5149,-0.93688 6.39202,-3.4351 8.42553,-5.42881 0.91344,-0.89558 3.0198,-3.38212 4.68064,-5.52676 l 3.01983,-3.89913 1.39422,-0.16618 c 2.17775,-0.25895 21.98576,1.20798 28.7289,2.12755 2.29261,0.31266 3.40718,0.77834 3.1435,1.3128 -0.0246,0.0498 -37.02208,18.38562 -82.21609,40.74835 -54.6342,27.03391 -82.28768,40.59837 -82.52188,40.47659 -0.728667,-0.37903 0.475141,1.46666 1.809531,2.77298 0.763284,0.74728 2.153309,2.22858 3.087759,3.2909 0.93454,1.06227 1.8344,1.9434 1.9988,1.95919 0.16436,0.0158 69.14938,-33.87462 153.3012,-75.31051 84.15137,-41.43678 153.45112,-75.45863 154.00091,-75.60498 0.54977,-0.14635 1.28403,-0.0659 1.6297,0.1794 0.93082,0.66096 28.30615,56.26498 28.10771,57.09281 -0.10076,0.42058 -1.04227,1.09796 -3.28035,2.36195 -1.72671,0.97518 -67.06387,33.26719 -145.1946,71.75863 l -142.05582,69.98451 0.75227,1.11216 c 1.65339,2.43968 7.46853,8.16436 6.69257,6.58846 -0.15886,-0.32262 22.98298,-11.75624 141.5095,-69.91798 77.93463,-38.24303 142.74418,-69.95016 144.02056,-70.45993 1.88532,-0.75294 2.42883,-0.84983 2.89699,-0.51428 0.92629,0.66376 25.10564,49.70529 24.90991,50.52302 -0.21065,0.88007 -5.10793,3.60932 -11.25375,6.27278 l -4.8492,2.1026 -1.8217,-1.06454 c -1.00166,-0.58578 -5.40925,-3.71294 -9.79561,-6.94805 -4.38635,-3.2351 -8.99171,-6.49213 -10.23407,-7.23722 -2.93332,-1.75925 -6.58877,-3.25726 -7.69794,-3.15658 -0.0187,10e-4 -0.15594,0.0585 -0.18906,0.067 l -0.002,9.3e-4 -0.0117,-0.005 -0.002,9.4e-4 -0.0805,0.0397 c -0.98306,0.28977 -5.98251,2.47022 -11.77623,5.14979 -6.15193,2.84518 -11.45711,5.18904 -11.78797,5.20999 -0.65264,0.0413 -1.61731,-0.96977 -3.10806,-3.25697 -0.5233,-0.80293 -1.2952,-1.71225 -1.71387,-2.02103 -1.04647,-0.77265 -4.50875,-1.78277 -7.11056,-2.07423 -6.71213,-0.75187 -20.42324,1.42412 -36.42274,5.78202 -4.01648,1.094 -5.06999,1.52615 -13.39334,5.48233 -8.67223,4.12199 -9.10589,4.35967 -10.8037,5.94885 -2.9894,2.79821 -3.93472,4.42799 -3.52755,6.08235 0.37815,1.53625 1.60428,2.31291 4.13132,2.61595 4.79045,0.57447 14.2209,0.36365 22.16235,-0.49539 1.85905,-0.20112 1.99875,-0.0353 2.35604,2.82172 0.13653,1.09154 0.48703,3.28428 0.78,4.87354 1.00408,5.44749 0.94718,12.25415 -0.10679,12.77313 -0.96886,0.47705 -1.7705,-0.70695 -8.33303,-12.30316 -2.70907,-4.78696 -3.4855,-5.76591 -5.03355,-6.34948 -1.43824,-0.54216 -2.12366,0.0618 -3.72709,3.28515 -0.81612,1.64064 -1.74249,3.41949 -2.05847,3.95478 -0.54644,0.9257 -1.39758,1.38933 -17.44277,9.48786 -14.98741,7.56462 -16.98192,8.63786 -17.88824,9.62664 -0.56107,0.61208 -2.64906,2.13986 -4.63968,3.39486 -4.72928,2.98148 -5.46391,3.66339 -6.58755,6.1152 -0.5176,1.12946 -1.12876,2.14505 -1.35721,2.25753 -0.62276,0.30664 -1.27671,-0.55672 -2.0744,-2.73618 -1.04538,-2.85618 -2.36621,-3.19429 -3.36027,-0.85992 -0.45531,1.06915 -0.43475,1.15145 1.08665,4.28494 0.85298,1.75695 1.48573,3.36857 1.4063,3.58112 -0.22515,0.6023 -4.26677,4.77742 -7.90505,8.16597 -5.77185,5.37567 -10.21346,8.55698 -27.95126,20.01991 -14.12361,9.12726 -15.44612,9.90677 -27.68679,16.33019 -10.96814,5.75567 -12.08778,6.48463 -11.57328,7.52952 0.63643,1.29251 -0.86712,1.98792 51.57686,-23.83521 27.31611,-13.4503 49.97223,-24.72948 50.34665,-25.06472 0.79586,-0.71284 0.49419,-1.65835 -0.74739,-2.34025 -1.07912,-0.59265 -0.84005,-1.08407 1.11009,-2.273 2.11401,-1.28884 13.12668,-5.97023 17.19189,-7.30919 4.22937,-1.393 5.40963,-2.00771 6.17238,-3.20906 0.79061,-1.24521 0.67082,-2.16458 -0.38212,-2.93809 -1.89279,-1.39051 -4.15133,-1.47575 -9.207,-0.34532 -6.57665,1.47052 -9.24076,2.95277 -14.36071,7.98769 -2.78965,2.74329 -3.11091,2.97623 -4.59928,3.35754 -3.88666,0.99584 -14.03958,1.54308 -14.41687,0.77683 -0.38899,-0.79 -0.015,-2.39932 0.76607,-3.29445 0.41213,-0.47232 2.43294,-1.92591 4.48931,-3.23157 2.05641,-1.30562 4.26015,-2.77952 4.89924,-3.27447 2.03078,-1.57283 5.24855,-3.34023 19.37322,-10.63868 7.58486,-3.91924 14.43179,-7.60722 15.21364,-8.19648 0.82397,-0.62094 2.00139,-1.97736 2.80085,-3.22527 0.80205,-1.25201 1.53447,-2.09546 1.75228,-2.01664 0.20593,0.0745 2.08367,3.22635 4.17179,7.00456 2.08814,3.7782 4.18043,7.31693 4.64872,7.86262 1.67471,1.95195 4.83628,3.16143 6.33365,2.42413 1.44435,-0.7112 2.42871,-4.29649 2.46741,-8.98704 0.0102,-1.23942 -0.27412,-4.45858 -0.63243,-7.15154 -0.3583,-2.69296 -0.57465,-5.10646 -0.47999,-5.36523 0.18667,-0.51046 0.58101,-0.363 4.67374,1.7589 2.53883,1.31627 4.49806,1.72139 5.6216,1.16371 1.23631,-0.61432 2.81288,-3.33661 4.3248,-7.47417 l 1.43107,-3.91583 1.54373,-0.75565 c 2.93618,-1.43462 14.28613,-4.92899 15.91238,-4.89833 0.39605,0.007 2.35552,0.5323 4.35331,1.16558 1.99781,0.63326 3.96444,1.10068 4.37154,1.03905 1.15518,-0.17485 1.96142,-1.36849 2.11283,-3.12815 0.10357,-1.20388 0.35068,-1.7743 0.9772,-2.25547 2.1048,-1.61655 21.08769,-10.25247 22.43561,-10.20684 1.95906,0.0664 5.96435,2.4152 12.5646,7.36763 3.70971,2.78357 7.73885,5.77536 8.95365,6.64854 2.30267,1.65512 2.64808,2.028 2.33721,2.61114 -0.0311,0.0337 -0.0634,0.0671 -0.10003,0.10177 -1.12776,1.00071 -250.86296,124.26674 -251.29471,124.03439 -0.7746,-0.41685 0.44068,1.33945 2.92221,4.22364 2.6524,3.08278 4.38295,4.6578 4.28246,3.90003 -0.0624,-0.47083 54.66921,-27.46011 192.74659,-95.04452 73.13546,-35.79746 77.01051,-37.66257 77.6,-37.35423 0.75853,0.39677 11.13311,20.86597 21.64535,42.70815 6.45985,13.42219 6.8372,14.28637 6.58073,15.04043 -0.26179,0.76979 -1.29283,1.30057 -27.18722,14.05086 -27.94103,13.75689 -35.16971,17.14235 -35.42742,16.58867 -0.0815,-0.17454 0.24737,-1.79617 0.72952,-3.60302 0.4821,-1.80682 0.87162,-3.92456 0.86727,-4.70714 -0.0108,-1.93755 -1.3084,-6.20686 -3.26844,-10.75415 -0.95719,-2.22065 -1.55002,-3.95831 -1.4374,-4.2102 0.18477,-0.4131 0.46173,-0.50025 3.80603,-1.18829 1.3636,-0.28053 18.6437,-8.74691 19.6124,-9.60911 0.85305,-0.75931 0.46039,-1.83896 -0.7225,-1.98458 -0.74954,-0.0923 -2.49436,0.60603 -9.62657,3.85619 -7.89063,3.59578 -9.01895,4.03514 -11.97941,4.66202 -2.36429,0.50064 -11.71901,3.41481 -13.02915,4.05991 -0.50166,0.24673 -0.13694,-1.67369 1.22839,-6.48945 2.73271,-9.6387 2.99445,-11.51026 1.92155,-13.72113 -1.18849,-2.44926 -2.66286,-2.35006 -7.76143,0.52127 -4.6467,2.61687 -6.40936,3.9074 -9.30745,6.81224 -5.80511,5.81856 -18.39704,19.9756 -19.28601,21.6835 -0.64117,1.23186 -0.87996,3.28422 -0.47664,4.10332 0.56957,1.15673 1.88422,1.88508 3.78857,2.10113 2.40024,0.27232 4.74337,-0.24336 10.32968,-2.27351 2.54918,-0.92646 4.93151,-1.63303 5.29239,-1.56968 0.88534,0.15546 2.52328,3.38255 2.09989,4.13654 -0.50904,0.90661 -8.95873,4.52918 -11.75987,5.04158 -5.30049,0.96962 -10.04328,0.59897 -18.69229,-1.45923 -13.8725,-3.30122 -13.85794,-3.30137 -19.3861,-0.41879 -3.84822,2.00659 -4.00667,2.12174 -4.22105,3.06898 -0.25546,1.12901 -0.27078,1.10299 3.92838,6.2449 2.0032,2.45301 2.76171,3.57603 2.71647,4.01362 -0.0872,0.84344 -3.42265,2.70073 -16.66406,9.27424 l -10.80974,5.36623 -3.23649,-0.39184 c -1.78006,-0.21487 -3.31778,-0.55257 -3.41595,-0.75195 -0.0982,-0.19939 -0.0106,-0.81014 0.19432,-1.3562 0.45318,-1.20735 0.23513,-2.41569 -0.53654,-2.96875 -0.83196,-0.59629 -2.40365,-0.18028 -7.85302,2.07726 -2.6686,1.10554 -5.1553,1.99916 -5.52467,1.98664 -1.51729,-0.0514 -8.87694,-4.98355 -12.64954,-8.47746 -3.95862,-3.66619 -5.97775,-4.39231 -7.27236,-2.61505 -1.4024,1.92525 -2.7475,8.62023 -2.41063,11.99391 0.26648,2.66877 1.85436,6.9329 4.10107,11.00816 2.83954,5.15058 3.39997,5.71903 6.53859,6.62945 4.25089,1.23303 8.17645,1.35553 10.34092,0.32253 0.56685,-0.27019 1.86212,-1.22874 2.87626,-2.13033 1.91772,-1.70495 7.43162,-4.98699 8.91306,-5.30528 0.53382,-0.11469 2.32825,0.4828 4.96787,1.65324 2.27327,1.00798 4.53018,1.81916 5.01412,1.80463 2.951,-0.0886 3.79417,-2.7135 2.45218,-7.63847 -0.26738,-0.98128 -0.38139,-2.01898 -0.25232,-2.30751 0.34073,-0.76193 27.33473,-14.16544 28.39203,-14.09765 0.87608,0.0562 3.02592,1.53654 4.88581,3.36564 1.6359,1.60888 2.98716,2.14523 4.06667,1.61368 1.6557,-0.81525 1.60987,-3.35601 -0.14737,-8.0544 -1.3103,-3.50339 -1.84083,-3.76635 -6.1264,-3.03778 -1.35068,0.22962 -2.84056,-0.86174 -5.55845,-4.06854 -2.04416,-2.41182 -2.2184,-2.69737 -2.00623,-3.31837 0.28659,-0.83871 3.11894,-2.24686 4.78898,-2.3798 1.824,-0.14523 5.59377,0.51896 11.36399,2.00237 13.40418,3.44591 18.80756,3.30374 30.0019,-0.7917 2.4935,-0.91224 4.76337,-1.58298 5.04469,-1.48907 0.28133,0.0939 1.79277,1.62641 3.3596,3.40524 1.56679,1.77886 3.775,4.16205 4.90636,5.29526 1.24724,1.2498 2.03751,2.2576 2.00822,2.56195 -0.0402,0.41695 -14.81012,7.80412 -87.33595,43.67645 -58.03995,28.70742 -87.40497,43.11163 -87.63923,42.98979 -0.80386,-0.41812 0.52698,1.46172 3.27613,4.62848 1.61065,1.85533 3.20891,3.47081 3.55063,3.58984 0.50898,0.17711 0.58491,0.14446 0.42558,-0.17912 -0.16498,-0.33494 18.22542,-9.42855 120.97875,-59.82181 66.64479,-32.68457 122.99668,-60.21935 125.22523,-61.18998 3.70682,-1.61453 4.10401,-1.72799 4.68034,-1.32709 0.46528,0.32371 4.07684,7.43331 13.81668,27.19804 12.43771,25.23926 13.17358,26.80299 12.92989,27.5193 -0.24602,0.72341 -4.10805,2.6563 -81.33433,40.6821 -61.37771,30.22206 -81.19926,39.87908 -81.57758,39.75036 -0.38066,-0.12946 -0.61699,-1.62784 -0.99321,-6.28814 -0.27163,-3.36482 -0.79953,-8.44162 -1.17323,-11.28291 -0.37367,-2.84129 -0.56672,-5.49619 -0.42955,-5.89948 0.21891,-0.64364 1.28277,-1.27479 8.71569,-5.17111 8.09304,-4.24242 16.71486,-8.30276 17.85109,-8.40661 1.06828,-0.0975 1.70128,1.19334 0.97136,1.98179 -0.20179,0.21794 -3.56999,2.12754 -7.48455,4.24486 -3.91454,2.11729 -7.3821,4.13502 -7.70525,4.48197 -0.63767,0.68457 -0.79082,1.75415 -0.37227,2.60418 0.95029,1.92993 6.3445,4.33426 9.66498,4.30848 3.50514,-0.0272 4.89359,-0.50351 12.76908,-4.38468 9.49669,-4.68058 9.6431,-4.86117 8.055,-9.97928 -0.47494,-1.53067 -0.73658,-2.94962 -0.59186,-3.20928 0.34227,-0.61419 21.72806,-10.79664 26.11171,-12.43274 1.82295,-0.68039 4.25383,-1.45169 5.40069,-1.71225 1.2643,-0.28721 4.13246,-1.40694 7.2856,-2.845 l 5.20033,-2.37121 0.45937,-1.7066 c 0.56014,-2.07983 1.14464,-2.6063 11.99758,-10.7929 9.02464,-6.80744 10.19014,-7.99965 9.39618,-9.6121 -0.65018,-1.32044 -1.28226,-0.98518 -8.81411,4.6927 -3.33495,2.51409 -8.35476,6.27472 -11.15555,8.35577 -6.37341,4.73566 -6.88698,5.19142 -7.12779,6.32679 -0.36702,1.73071 -0.91647,2.18636 -3.87957,3.22303 -1.49352,0.52254 -3.07636,0.985 -3.51767,1.02673 -2.17878,0.2059 -12.09654,4.33551 -26.52162,11.04314 l -8.82711,4.10476 -1.02482,-0.39233 c -0.56357,-0.2159 -1.16759,-0.68229 -1.34146,-1.03542 -0.38854,-0.78907 -0.14153,-0.94517 12.64616,-7.999 10.03417,-5.53502 10.62423,-5.89251 14.29222,-8.6441 1.43262,-1.07467 3.24144,-2.37162 4.01902,-2.8824 0.77758,-0.51082 2.20274,-1.94086 3.16827,-3.17761 2.05213,-2.62885 4.09253,-4.57136 10.37879,-9.88909 5.47351,-4.63022 6.34465,-5.5533 6.73616,-7.13977 1.10188,-4.46474 -4.29155,-4.38353 -20.02987,0.30315 -4.00903,1.19384 -9.22801,2.63395 -11.59751,3.2004 -3.86818,0.92472 -5.11606,1.38899 -12.21016,4.5427 -4.34561,1.93183 -13.03373,6.12651 -19.30838,9.32011 -10.05963,5.11999 -11.74674,6.06233 -14.26629,7.97166 -4.38706,3.32451 -12.50901,10.21999 -16.97845,14.41452 -2.21393,2.07768 -4.19456,3.86146 -4.40117,3.96323 -0.20639,0.10224 -1.08207,0.0281 -1.94685,-0.16474 -1.11876,-0.24945 -2.18657,-0.18258 -3.69973,0.23249 -7.31461,2.00644 -31.09369,12.89317 -32.18071,14.73312 -0.65403,1.107 -0.40464,1.62789 1.52302,3.19925 3.51592,2.86608 3.44159,3.90672 -0.47672,6.69406 -1.37725,0.97977 -3.10458,2.07947 -3.83812,2.44067 -1.2834,0.63305 -1.39257,0.62049 -2.93475,-0.30965 -1.01087,-0.60972 -1.97636,-0.91917 -2.61705,-0.84054 -0.88636,0.10878 -1.06161,0.25618 -1.36975,1.16208 -0.29667,0.87225 -0.24899,1.13447 0.30179,1.64749 1.05716,0.98471 1.20859,1.59756 0.73556,2.9883 -0.57323,1.68536 -0.0278,2.10738 2.43514,1.88148 1.70546,-0.1564 2.04561,-0.0363 5.48236,1.93765 2.01515,1.15741 4.68616,2.74672 5.93471,3.53276 2.44352,1.53834 3.70312,1.87324 4.88185,1.29285 1.73558,-0.8546 1.8072,-1.37368 1.20933,-8.8008 -0.30223,-3.75467 -0.27608,-5.13722 0.10865,-5.63766 0.34554,-0.44939 4.36384,-2.6362 12.47281,-6.7903 11.50237,-5.89252 12.01242,-6.12767 13.24231,-6.06761 2.07839,0.10151 1.96617,0.68261 -0.40399,2.07554 -2.44782,1.43864 -3.15203,2.29097 -2.68131,3.24696 0.46162,0.9375 1.54099,0.72508 6.6648,-1.31147 2.29643,-0.9127 4.34934,-1.60012 4.5619,-1.52782 0.61803,0.21021 0.33805,1.34228 -2.6241,10.61859 -3.07468,9.62865 -3.4713,11.92386 -2.50904,14.52203 0.35201,0.95046 0.51266,1.9398 0.36789,2.26369 -0.32179,0.71991 -58.36369,29.7575 -59.02833,29.53111 -0.71557,-0.24371 -0.0274,0.71886 3.05294,4.27249 3.29787,3.8046 4.06013,4.50136 4.13037,3.77243 0.0357,-0.37099 21.73662,-11.10101 106.46137,-52.64305 58.5289,-28.69772 110.62426,-54.15205 115.76777,-56.56584 9.15311,-4.29546 9.36649,-4.37948 10.00536,-3.94908 0.50036,0.33706 3.35614,5.93565 12.23434,23.98445 12.07403,24.5457 13.56836,27.85715 12.91705,28.62066 -0.20793,0.24381 -49.02267,24.54266 -108.47777,53.9995 -59.45508,29.45688 -108.14103,53.68701 -108.19034,53.8449 -0.086,0.27527 3.65922,5.28308 5.3085,7.09797 l 0.793,0.87225 2.5374,-1.5629 c 2.75281,-1.69722 39.84876,-19.67503 41.76145,-20.23873 0.64244,-0.18935 1.24809,-0.18439 1.34508,0.0126 0.097,0.19703 0.26176,2.01472 0.36666,4.0386 0.26638,5.13906 0.92553,7.53927 3.15827,11.48981 3.30228,5.84298 7.18435,10.63458 9.15932,11.30633 1.08994,0.37072 4.15685,-0.1236 6.43863,-1.03683 0.6927,-0.27721 1.1134,-0.27226 1.25424,0.0138 0.39857,0.80944 -1.42671,2.57238 -5.73854,5.54478 -2.34708,1.61796 -4.85602,3.50557 -5.57481,4.19275 -1.22595,1.17231 -1.35116,1.23399 -2.02905,1.00356 -0.85188,-0.28976 -2.49297,-2.80755 -4.67651,-7.17622 -1.26176,-2.5245 -1.46731,-3.16176 -1.36477,-4.22638 0.16467,-1.70951 -0.56209,-2.77808 -1.78857,-2.62873 -0.71135,0.0867 -1.08727,0.31821 -1.50543,0.92631 -1.05241,1.5306 -0.8248,2.36803 2.47231,9.10191 2.80484,5.72846 3.10349,6.23131 4.10783,6.89237 1.39446,0.91784 4.24481,0.9679 7.35568,0.12699 5.34985,-1.44613 21.1374,-8.88848 23.82195,-11.22907 1.36724,-1.19211 2.08672,-3.13036 1.41832,-3.8268 -0.78512,-0.81798 -1.75665,-0.58267 -7.23354,1.75697 -2.75751,1.17798 -5.14108,2.0996 -5.29704,2.04656 -0.51116,-0.17389 0.34281,-1.32606 2.06268,-2.78343 2.60071,-2.20375 3.61085,-3.55213 3.40016,-4.5327 -0.39221,-1.82549 -2.01863,-1.67979 -10.2253,0.91589 -2.35111,0.74364 -4.6336,1.38534 -5.07315,1.42688 -1.56514,0.14792 -5.5104,-4.82826 -8.33347,-10.5134 -1.4887,-2.99803 -1.82568,-3.94876 -2.06955,-5.82564 -0.46836,-3.60475 0.14101,-7.05035 1.84283,-10.41025 0.49617,-0.9796 0.81464,-1.17399 6.48357,-3.96534 l 5.96109,-2.9352 2.27435,0.88737 c 2.62601,1.02693 3.62906,1.72646 6.77996,4.72322 1.25933,1.19771 3.86313,3.56983 5.78696,5.27096 2.18294,1.93024 4.02189,3.84137 4.88929,5.0838 1.7623,2.52426 2.57066,3.11546 4.24803,3.10058 3.19349,-0.0284 13.58736,-5.87259 16.32371,-9.17848 0.70344,-0.84985 1.45834,-1.52742 1.67928,-1.50612 0.51163,0.0492 2.63835,4.33972 2.93805,5.92701 0.13841,0.73305 -0.0683,1.95249 -0.54279,3.20848 -0.66806,1.7683 -0.92225,2.10346 -2.00144,2.62482 -3.93502,1.90257 -8.1712,2.61769 -16.72605,2.82583 -3.57532,0.087 -4.60986,0.46791 -4.91388,1.80781 -0.18956,0.83539 -0.0328,1.30493 1.17439,3.50808 1.70009,3.10276 3.21067,4.25432 6.37731,4.86053 2.37537,0.45474 7.3121,0.40701 9.52936,-0.0921 2.0071,-0.4518 4.55325,-1.73915 6.08509,-3.07686 1.5623,-1.36434 5.17672,-5.61491 9.71292,-11.42261 3.01906,-3.86529 3.71458,-4.99301 5.05944,-8.19731 3.4271,-8.16549 4.87388,-11.13172 7.57182,-15.53668 2.786,-4.54881 3.48124,-6.20292 3.01175,-7.15638 -0.37729,-0.76626 -1.61902,-0.96217 -3.23574,-0.50978 -0.81383,0.22777 -1.58977,0.37685 -1.72453,0.33101 -0.69493,-0.23636 2.666,-1.97844 20.01885,-10.37531 16.89841,-8.17698 19.07784,-9.16967 20.3203,-9.24581 1.69347,-0.10375 2.20359,0.19053 3.73492,2.1602 0.65519,0.84275 1.55926,1.8073 2.01076,2.1427 0.4515,0.33541 0.77833,0.7353 0.7257,0.89012 -0.0527,0.15482 -7.56658,4.07155 -16.69729,8.70278 -17.57255,8.91304 -20.47439,10.50598 -20.67551,11.34523 -0.20218,0.84378 0.59306,1.28801 1.87074,1.04476 0.65372,-0.12447 9.42562,-4.03622 19.49322,-8.69271 20.36196,-9.41793 25.64446,-11.67563 27.24678,-11.64404 1.23151,0.0243 1.74512,0.27428 5.09305,2.46895 3.57788,2.3454 3.95032,2.36112 8.02337,0.35557 3.78273,-1.86261 4.68169,-2.78496 4.89858,-5.02667 0.39873,-4.12058 0.62982,-4.7376 1.73673,-4.62148 0.74186,0.0778 1.36067,0.92715 4.60054,6.31015 2.42146,4.02316 4.07348,5.99375 5.39807,6.44431 1.61363,0.54886 2.47189,-0.3062 11.73572,-11.67843 5.04609,-6.19452 5.17165,-6.31148 6.11228,-5.67441 0.99411,0.67329 6.50069,11.85655 6.23018,12.65283 -0.24485,0.72073 -30.83965,16.02418 -130.91157,65.48336 l -76.81057,37.96261 0.94561,1.92045 c 0.51973,1.05551 1.25724,2.20974 1.64045,2.56668 0.42984,0.40034 0.71313,0.48539 0.73849,0.222 0.0306,-0.31753 27.03393,-13.79332 105.34287,-52.57126 99.1943,-49.12015 105.31561,-52.18648 105.55266,-52.88357 0.22034,-0.64801 -0.21631,-1.76281 -3.50992,-8.97197 -2.06865,-4.52792 -3.77929,-8.56467 -3.8008,-8.97025 -0.0215,-0.40563 0.28265,-1.00876 0.67465,-1.34017 1.12594,-0.95149 2.11367,-2.31545 2.06483,-2.84979 -0.082,-0.89723 -1.30607,-1.53851 -3.34871,-1.75168 -1.11195,-0.11592 -2.19596,-0.3661 -2.40915,-0.55539 -0.21328,-0.18923 -36.09185,-72.56848 -79.72972,-160.84359 C 372.70838,240.01797 384.03605,262.82807 383.25016,262.56077 c -0.63517,-0.21605 -11.30162,4.96002 -127.67479,61.95853 -69.8401,34.207 -144.66271,70.94495 -166.272577,81.64094 z m -96.6815863,53.31156 c -0.3408547,0.0934 -0.6676526,1.09512 -0.9587013,2.94302 l -0.4407349,2.80118 1.437644,2.8799 c 4.4716028,8.95979 18.0082825,26.75285 30.9056255,40.62376 2.314788,2.48953 4.42914,4.57864 4.699819,4.64153 1.22353,0.28431 6.508175,4.82713 8.123549,6.98327 0.400616,0.5347 0.873791,0.98512 1.050798,1.00218 0.177011,0.0171 0.733221,0.50288 1.237248,1.08019 0.504013,0.57731 1.180242,1.1623 1.501443,1.29841 0.321211,0.13612 0.899707,0.65338 1.28661,1.14949 0.386911,0.49612 1.685835,1.78248 2.885999,2.85905 1.200175,1.07657 2.744472,2.78089 3.432411,3.78737 0.74436,1.08909 1.627904,2.01014 2.180298,2.27474 0.510511,0.24456 1.030302,0.65549 1.157038,0.91287 0.190437,0.38676 7.007039,6.34966 7.893422,6.90498 0.519554,0.32551 1.02792,-0.21241 0.88442,-0.93623 -0.230005,-1.16022 -2.429454,-5.4519 -3.759246,-7.33397 -0.668426,-0.94602 -2.197686,-2.76241 -3.39766,-4.03524 -2.514736,-2.6674 -5.939053,-6.51515 -7.282056,-8.18354 -0.508922,-0.63222 -1.288308,-1.45272 -1.731472,-1.82304 -1.384064,-1.15658 -3.568878,-3.2334 -3.71606,-3.53231 -0.07741,-0.15722 -0.660894,-0.65935 -1.298174,-1.1155 -1.432646,-1.02548 -4.18343,-3.83582 -5.31084,-5.42704 -0.463713,-0.65448 -1.452683,-1.69347 -2.196683,-2.30803 -0.744033,-0.61454 -1.730817,-1.66681 -2.193892,-2.33772 -0.463073,-0.67091 -1.309263,-1.5537 -1.880852,-1.96284 -1.444197,-1.03373 -4.813668,-4.67378 -5.36795,-5.79947 -0.252568,-0.51293 -3.753652,-4.55955 -7.780247,-8.99193 -14.74775501,-16.23392 -16.39552,-18.36372 -16.6370083,-21.49656 -0.1863932,-2.41795 -3.4805928,-7.1993 -4.7247215,-6.85857 z M 328.61213,294.39255 c 28.9216,-14.21218 52.1658,-25.49777 52.55402,-25.3657 0.37036,0.12599 3.77484,6.79836 13.26757,26.00325 12.08364,24.44663 12.75453,25.87276 12.50837,26.59694 -0.24721,0.72724 -2.46269,1.85549 -44.64239,22.70446 -24.41053,12.06587 -44.68429,21.95504 -45.05283,21.97695 -0.88904,0.0529 -0.73727,-0.15825 2.46683,-3.45703 3.69329,-3.80246 8.74362,-9.42344 11.11629,-12.37052 4.37712,-5.43683 8.40876,-12.95903 17.0435,-31.79984 0.64886,-1.41577 1.58407,-2.96757 2.07898,-3.44893 0.55709,-0.54182 3.78157,-2.37431 8.4637,-4.81188 l 7.56215,-3.93691 2.86945,0.13281 c 6.78979,0.31432 8.27484,0.0634 9.00436,-1.51644 0.39887,-0.86384 0.38062,-0.92746 -0.39772,-1.3869 -0.50724,-0.29938 -3.03117,-0.51398 -6.66381,-0.56562 l -5.84745,-0.0837 -7.10226,3.72135 c -8.69405,4.55466 -11.46158,6.33043 -12.20578,7.83226 -0.29667,0.59868 -1.43957,3.17191 -2.54003,5.71801 -2.51614,5.82149 -7.86575,16.63915 -10.37749,20.98492 -2.22205,3.84456 -6.54677,9.68141 -7.13218,9.62504 -0.22103,-0.0213 -1.20598,-0.61786 -2.18959,-1.32533 -1.6991,-1.22215 -2.75557,-1.59952 -10.54432,-3.77752 -1.10496,-0.30898 -1.60607,-0.6071 -1.50915,-0.89405 0.0801,-0.23731 3.35017,-2.19132 7.30361,-4.36475 6.22263,-3.42101 7.19301,-4.03587 7.43585,-4.71072 0.35168,-0.97747 -0.32188,-1.73761 -1.50857,-1.70205 -1.32804,0.0399 -4.12623,0.99033 -10.84052,3.68109 -10.51089,4.21226 -11.64799,4.57886 -13.34959,4.32436 -0.82903,-0.12396 -3.6956,-1.07387 -6.36963,-2.11252 -4.23126,-1.64345 -6.1922,-2.64392 -10.67388,-5.44665 -0.91431,-0.5718 -1.03442,-0.55727 -2.66794,0.34272 -1.30487,0.71886 -2.26294,0.99407 -4.04606,1.16062 -2.15844,0.20165 -2.85342,0.44845 -9.06369,3.22199 -3.69875,1.65184 -9.25296,4.0617 -12.34351,5.35509 -8.51748,3.56457 -9.5338,4.29486 -14.79708,10.64302 -5.1058,6.15821 -7.84729,8.97917 -13.45394,13.83942 -5.8367,5.05959 -7.15562,6.40629 -8.06797,8.24184 -1.4501,2.91741 -2.4337,3.99305 -4.54007,4.96335 -2.02531,0.93293 -8.43151,2.9231 -10.55682,3.28013 -1.55419,0.26113 -1.89656,-0.0989 -3.40832,-3.57936 -1.15808,-2.66618 -1.34371,-4.52482 -0.45759,-4.59904 0.23515,-0.0197 0.94643,0.27101 1.57968,0.64814 1.9809,1.17974 3.16676,1.09672 6.32504,-0.45839 2.70516,-1.3309 2.79542,-1.40632 3.7988,-3.15278 2.64803,-4.60899 6.10214,-14.22815 6.06366,-16.88407 -0.0104,-0.72072 -0.37728,-2.51877 -0.81502,-3.99414 -0.43776,-1.47538 -0.73408,-2.87343 -0.65887,-3.10664 0.20711,-0.64221 64.17959,-32.45925 112.38224,-56.14626 z m -58.31944,47.76761 c 1.9067,-0.92347 4.06003,-1.83981 5.15071,-2.11384 0.85193,-0.21403 2.78796,-0.50196 4.3032,-0.64281 l 2.75564,-0.25746 5.63215,2.44081 c 7.25344,3.14312 7.42612,3.22966 7.26853,3.6728 -0.14521,0.40835 -13.79778,7.50054 -17.62242,9.15396 -1.38277,0.59782 -2.59424,0.94936 -2.85698,0.82984 -0.25075,-0.11409 -1.4378,-1.89033 -2.63827,-3.94763 -1.9738,-3.38255 -2.35737,-3.87206 -4.00777,-5.11512 -1.36216,-1.02596 -1.78289,-1.4978 -1.65788,-1.85926 0.10562,-0.30538 1.76639,-1.23777 3.67308,-2.16128 z m -12.52834,6.29732 c 1.48031,-0.72888 2.08287,-0.839 3.76457,-0.69328 1.10107,0.0954 2.83903,0.53917 3.86087,0.98788 l 1.85815,0.81584 1.67812,3.40806 c 1.53815,3.12383 1.65144,3.48656 1.35882,4.34688 -0.53013,1.55865 -2.20215,2.31937 -16.25876,7.40921 -9.10162,3.29567 -21.63092,7.68645 -22.75567,7.974 -2.14034,0.54719 -0.83912,-1.08853 6.21357,-7.81204 7.38991,-7.04494 16.95952,-14.8014 20.28033,-16.43655 z m -30.91627,29.53499 c 0.18214,-0.0897 0.3737,-0.16139 0.52962,-0.19334 0.31183,-0.0639 0.1145,0.10689 -0.43815,0.37906 -0.55264,0.27213 -0.80836,0.32449 -0.5676,0.11621 0.12043,-0.10409 0.29404,-0.21221 0.47618,-0.30187 z m -30.79249,15.83694 c 0.55979,-0.27898 0.93293,-0.31957 0.91163,-0.0984 -0.0453,0.47041 -0.55573,0.72173 -1.29139,0.63587 -0.42964,-0.0502 -0.33744,-0.1799 0.37976,-0.5375 z m 6.53059,-2.50808 c 0.46564,-0.22928 0.76473,-0.21019 0.80067,0.0521 0.0662,0.48308 -0.56483,1.04348 -1.00559,0.89355 -0.60248,-0.20493 -0.51962,-0.58886 0.20492,-0.9456 z m 18.50657,-6.60674 c 0.7193,-0.33669 1.58685,-0.64613 2.10058,-0.6947 0.93069,-0.0879 1.50925,0.61501 1.21565,1.4783 -0.0962,0.28278 -0.24817,0.54578 -0.33723,0.58405 -0.49372,0.21012 -4.04527,-0.22403 -4.19045,-0.51209 -0.0786,-0.15514 0.49226,-0.51882 1.2115,-0.85561 z m 8.24159,-2.91081 c 1.03239,-0.49719 3.22442,-1.42051 5.6519,-2.36932 11.72203,-4.58175 16.7595,-6.64884 24.67739,-10.13289 9.57448,-4.21297 10.40771,-4.50127 10.91091,-3.76799 0.43705,0.63687 0.0507,4.33457 -0.86181,8.2509 -1.13056,4.8523 -3.36153,12.31513 -4.03307,13.48725 -0.96647,1.687 -2.06159,2.04917 -5.24364,1.73942 -1.53593,-0.1495 -9.1742,-0.79828 -16.97339,-1.44352 -7.7992,-0.64526 -14.36238,-1.3438 -14.58551,-1.55034 -0.52907,-0.48969 -0.64322,-3.34524 -0.15456,-3.87309 0.0518,-0.0566 0.26763,-0.17469 0.61176,-0.34046 z m -17.37764,8.68728 c 2.38463,-1.21219 2.48057,-1.23146 5.69921,-1.10598 4.1302,0.1611 5.34628,0.35692 5.6119,0.89635 0.24999,0.50772 -2.97084,4.66545 -5.77817,7.45833 -1.29012,1.2835 -2.73807,2.36573 -4.4322,3.31665 -2.26159,1.26943 -2.59582,1.37925 -3.31627,1.09082 -1.88023,-0.75273 -5.2743,-4.81334 -4.99567,-5.97624 0.22205,-0.92669 4.51771,-4.31086 7.21118,-5.67991 z m 69.01999,-31.51845 c 7.85661,-3.85184 22.72552,-10.7116 23.69007,-10.80276 0.8692,-0.0821 9.09922,1.66724 12.91164,2.74466 3.08736,0.87254 3.15038,1.25496 0.52788,3.24296 -1.64331,1.24575 -2.90188,2.62496 -5.39576,5.91373 -3.88186,5.119 -4.73331,6.87402 -4.30455,8.87712 0.17435,0.81441 0.13226,1.62106 -0.0997,1.87998 -1.04154,1.16266 -38.57836,19.40893 -39.37276,19.13875 -0.15276,-0.0519 0.22315,-1.43631 0.8346,-3.07567 1.96854,-5.27775 3.72947,-12.80866 5.10599,-21.83555 0.34425,-2.25756 0.59373,-2.91857 1.35925,-3.59743 0.286,-0.25329 2.12445,-1.20187 4.74332,-2.48579 z m 171.12802,-62.13708 c -0.14674,0.0622 -0.25321,0.24105 -0.32295,0.53348 -0.13622,0.5682 0.81718,2.68091 5.43372,12.05661 3.07854,6.25219 5.80001,11.54818 6.04952,11.76864 0.54062,0.47759 0.92795,0.3398 1.10297,-0.3907 0.31646,-1.3206 -6.55577,-16.35422 -9.73943,-21.30511 -1.28055,-1.99141 -2.08421,-2.85078 -2.5238,-2.66295 z M 259.893,422.31537 c -0.83579,0.41153 -1.68649,0.92672 -1.88936,1.14584 -0.54007,0.58325 -2.92197,9.05281 -3.24104,11.52326 -0.15052,1.1654 -0.37215,2.16654 -0.49138,2.22525 -0.11919,0.0588 -1.11494,-0.43465 -2.2137,-1.09575 -2.32848,-1.40101 -4.66017,-1.94953 -7.37991,-1.73698 -1.75054,0.13684 -2.435,0.39479 -6.96888,2.61722 l -5.02805,2.46463 -3.25691,3.5282 c -5.60892,6.07471 -11.42142,12.99827 -13.18583,15.70593 -0.93297,1.43177 -2.51164,3.88331 -3.50621,5.44922 -1.8683,2.94155 -3.40886,4.83087 -4.29824,5.26881 -0.28154,0.13855 -1.2569,0.11796 -2.16858,-0.0447 -2.51791,-0.44923 -3.2481,0.0706 -8.16582,5.81033 -3.74715,4.37357 -4.33011,4.94016 -5.00324,4.85834 -0.4385,-0.0533 -2.10917,-1.29227 -3.93557,-2.91699 -4.09412,-3.64207 -5.80687,-4.4102 -8.35466,-3.75193 -2.88818,0.74628 -9.45899,4.90334 -12.99952,8.2231 -3.47711,3.26033 -4.30796,5.55265 -4.3321,11.9647 -0.014,3.70253 -0.007,3.73189 1.45865,7.02121 1.42598,3.19928 1.50839,3.31737 2.6148,3.78939 l 1.14214,0.48913 6.39497,-3.03995 6.39235,-3.04089 5.84635,-5.75025 c 3.2154,-3.16335 6.17348,-5.9135 6.5744,-6.11095 0.4843,-0.23846 2.20607,-0.0377 5.12718,0.59731 10.54499,2.29226 14.35572,1.42134 16.99632,-3.88633 0.63149,-1.26931 0.73778,-3.65146 0.21239,-4.74607 -0.167,-0.34826 -0.17488,-1.10792 -0.0185,-1.6868 0.2347,-0.86881 0.82473,-1.4689 3.38566,-3.44356 1.7063,-1.31572 4.07189,-3.27631 5.25609,-4.35808 1.18399,-1.08198 2.41882,-2.00018 2.74209,-2.0403 0.32324,-0.0401 2.21322,0.13121 4.20084,0.38288 1.98764,0.25167 6.00925,0.56232 8.93848,0.68869 6.58994,0.28435 6.82751,0.3086 7.30039,0.74421 0.21118,0.1945 1.22231,1.75448 2.24726,3.46747 1.78519,2.98358 2.65336,3.9839 3.56669,4.10442 0.5916,0.078 1.57264,-0.43915 2.28802,-1.2072 0.73909,-0.79354 3.42916,-8.21185 3.99793,-11.02512 0.71057,-3.51456 0.48895,-9.49413 -0.66817,-18.03882 -0.60711,-4.48319 -1.1351,-9.14041 -1.17367,-10.35091 -0.0762,-2.39039 1.25262,-7.02748 2.73546,-9.54356 0.74758,-1.26854 0.92336,-1.40915 1.73178,-1.38179 1.17723,0.0399 3.0101,1.53356 6.81682,5.55413 7.24974,7.65704 8.8668,9.26141 12.38268,12.27285 2.03606,1.74397 4.43145,4.09467 5.32253,5.22534 2.24826,2.85272 2.28217,2.88634 2.89579,2.83027 1.36,-0.12428 1.81414,-1.66509 1.15865,-3.93406 -0.17364,-0.60112 -1.35436,-3.5229 -2.62186,-6.49199 l -2.30362,-5.39907 -0.16416,-3.72901 c -0.0902,-2.05157 -0.28878,-5.19365 -0.44043,-6.98268 -0.15714,-1.85392 -0.10883,-3.33391 0.1101,-3.4417 0.2226,-0.10956 1.25291,0.65687 2.45209,1.82306 1.96044,1.90654 2.18554,2.24558 4.23915,6.41626 2.10788,4.28089 2.15614,4.42733 1.76012,5.28569 -0.22402,0.48558 -0.83638,1.09325 -1.36126,1.3517 -1.29914,0.6397 -2.11819,1.57783 -2.14804,2.45972 -0.0343,1.0132 1.30308,1.44201 2.93352,0.93941 1.93213,-0.59548 2.08821,-0.42706 3.46816,3.78938 1.35138,4.12899 2.6945,6.57265 3.8711,7.03943 1.87754,0.74488 2.13309,-0.70488 0.8343,-4.74315 -1.25573,-3.9043 -1.86536,-7.29964 -1.48169,-8.25732 0.31337,-0.78231 2.81206,-2.55784 7.09986,-5.04382 l 2.80154,-1.6233 2.35082,0.67121 2.35342,0.67209 2.65109,-1.30985 c 3.00446,-1.48382 4.15484,-2.41344 7.7783,-6.28788 5.07727,-5.42894 8.70356,-7.44365 16.03381,-8.90948 3.69116,-0.73808 3.83386,-0.79429 12.42793,-4.87416 9.58267,-4.54912 10.89169,-5.38028 10.60146,-6.73098 -0.23202,-1.07999 -1.83908,-1.8873 -3.73579,-1.87457 -1.82134,0.0122 -4.50077,0.98853 -15.48629,5.63988 -8.96229,3.79474 -10.80836,4.48917 -10.98476,4.13091 -0.11656,-0.23669 0.82992,-1.15092 2.53931,-2.45209 0.42809,-0.32586 2.55568,-1.70869 4.72856,-3.07287 4.74851,-2.98116 10.33384,-6.96334 11.0636,-7.88813 0.85367,-1.08182 0.79277,-1.88138 -0.17221,-2.26424 -1.0165,-0.40324 -2.51133,0.28144 -6.20159,2.84027 -1.42494,0.98806 -4.45307,2.95526 -6.7289,4.37351 -2.27584,1.41819 -5.50357,3.66585 -7.17205,4.99446 -7.55767,6.0181 -21.17583,16.28931 -21.70457,16.36932 -0.65496,0.0992 -1.67482,-0.81603 -4.7415,-4.25308 -3.06934,-3.44009 -4.38405,-4.47749 -5.56954,-4.40053 -2.04044,0.13251 -2.81285,1.61074 -3.26213,6.24556 -0.40391,4.16655 -0.52541,4.74196 -0.97741,4.57633 -0.21909,-0.0803 -1.15524,-1.13807 -2.0785,-2.35099 -2.56872,-3.37445 -8.12158,-9.57345 -9.35414,-10.44189 -2.04745,-1.44256 -4.14828,-0.58411 -4.19355,1.71437 -0.0114,0.57748 0.38432,2.88698 0.8806,5.13096 0.50379,2.27797 0.99082,5.87835 1.10147,8.15279 0.10902,2.24051 0.37776,5.35036 0.59811,6.90939 0.23607,1.67051 0.24333,2.91064 0.0182,3.02148 -0.56334,0.27738 -3.86414,-2.83565 -9.19375,-8.67037 -8.88452,-9.72652 -9.55007,-10.09941 -14.0665,-7.87555 z m -24.4614,19.10922 3.38316,-1.45903 c 4.53129,-1.9566 7.10282,-2.44415 9.41041,-1.78387 1.892,0.54133 2.52084,1.27751 4.95932,5.80469 l 2.31645,4.29768 -0.20394,5.21867 c -0.24136,6.19537 -0.38485,7.71101 -0.84405,8.91921 -0.46202,1.21723 -2.15972,2.05326 -3.27053,1.61261 -0.80763,-0.3204 -0.86134,-0.44816 -2.41808,-5.67579 -1.37065,-4.60271 -1.97059,-6.12057 -4.31224,-10.90201 l -2.72195,-5.55447 -1.1686,-0.30412 c -1.01524,-0.2637 -1.33215,-0.19192 -2.408,0.54346 -1.73127,1.18338 -5.11809,4.46841 -10.14351,9.84074 -2.87396,3.07236 -4.60692,4.70447 -5.23954,4.93114 -0.8913,0.31931 -0.85818,0.22857 0.57831,-1.58446 0.83814,-1.0578 3.89964,-4.61869 6.80379,-7.91326 z M 33.177915,542.35861 c -0.555892,-0.0535 16.022859,34.08554 54.145282,111.49742 48.611173,98.71045 85.684853,172.83738 115.385933,230.7064 11.59898,22.59924 13.27653,25.39294 16.97907,28.27948 6.01255,4.68745 15.12968,5.79561 23.35177,2.83983 5.11676,-1.83944 55.63986,-25.58728 107.92761,-50.7308 14.02955,-6.74637 20.02782,-9.51543 20.15908,-9.30793 0.10273,0.16247 0.13387,0.042 0.0707,-0.26772 -0.0633,-0.30977 -0.61158,-0.92231 -1.21892,-1.36135 -0.60736,-0.43905 -2.24685,-1.76071 -3.64458,-2.93618 -1.39775,-1.17546 -3.16179,-2.63495 -3.91787,-3.24356 -0.75607,-0.60861 -2.45771,-2.09882 -3.78293,-3.30999 -1.3252,-1.21117 -2.67649,-2.35025 -3.00154,-2.5322 -0.0785,-0.0439 -0.26502,-0.0225 -0.5813,0.0707 l -0.0408,-0.0344 -0.41354,0.20362 c -2.61324,0.95858 -12.75119,5.90704 -56.46015,27.35872 l -56.76613,27.85987 c -0.0826,0.01 -0.16566,0.0295 -0.24827,0.0352 l -1.22229,-0.38218 c -0.73136,-0.22841 -1.96024,-0.82758 -2.73023,-1.33125 l -1.39984,-0.91521 -4.59435,-9.33061 C 212.95396,848.52229 113.56919,645.50395 100.29493,618.17208 91.172747,599.3894 83.98112,584.29811 84.159607,584.31534 c 0.177072,0.017 0.278934,-0.0525 0.22798,-0.15594 -0.168124,-0.34143 -7.159428,-6.04578 -9.260831,-7.55536 -1.134199,-0.81477 -3.695331,-2.6839 -5.689823,-4.15404 -1.994511,-1.47017 -3.792092,-2.75229 -3.995392,-2.84836 -0.203311,-0.0961 -1.832796,-1.3001 -3.620841,-2.67573 -1.78805,-1.37563 -3.771095,-2.88596 -4.407178,-3.35747 -3.308311,-2.45236 -5.260654,-4.01819 -6.730429,-5.39639 -0.895558,-0.83976 -2.24941,-1.94693 -3.008088,-2.46148 -0.758676,-0.51455 -3.062968,-2.59397 -5.120964,-4.62139 -2.057994,-2.02743 -4.206533,-4.01929 -4.776267,-4.42539 -0.569726,-0.40609 -1.77047,-1.53457 -2.667149,-2.50743 -0.896672,-0.97291 -1.766487,-1.78207 -1.932525,-1.79807 z M 238.88668,446.21313 c 0.50958,-0.25091 0.90836,-0.17046 1.40806,0.28635 1.71756,1.57013 6.28743,15.38407 5.73259,17.32815 -0.11424,0.40028 -0.35471,0.78874 -0.53371,0.86149 -1.29168,0.52428 -7.29791,0.20912 -13.48047,-0.70768 -2.26922,-0.33653 -4.56976,-0.55806 -5.1121,-0.49152 -0.80396,0.0987 -1.57373,0.64601 -4.16973,2.96098 -2.94953,2.63031 -8.9029,7.42711 -9.72862,7.84038 -0.66459,0.3328 -0.70999,-0.53271 -0.0862,-1.62956 1.08098,-1.90057 2.96246,-3.91131 7.8883,-8.4255 2.63597,-2.41575 6.31336,-6.02819 8.17323,-8.02807 5.77118,-6.20574 9.16825,-9.63048 9.9086,-9.99502 z m -59.78252,31.73991 c 1.61913,-0.81677 2.95055,-1.28785 3.53411,-1.14802 0.88554,0.21218 2.93756,1.82898 5.17929,4.08106 2.25803,2.26845 2.28496,2.46641 0.6209,4.46203 -1.53497,1.84081 -3.64909,3.45329 -7.91304,6.04075 -4.01478,2.43627 -4.70543,3.18615 -4.09051,4.43503 0.14592,0.29648 0.15693,0.78101 0.0249,1.07627 -0.26255,0.587 -5.72282,3.69554 -6.57044,3.74033 -0.84816,0.0448 -1.21106,-0.30879 -2.04662,-1.99441 -0.65137,-1.31381 -0.79358,-2.16335 -0.79363,-4.78192 -6e-5,-5.39265 0.71669,-7.36943 3.68969,-10.17886 2.16814,-2.04888 5.6668,-4.37093 8.36536,-5.73226 z m 122.22185,-56.6959 c 0.067,-0.0488 0.13664,-0.0695 0.21092,-0.0624 0.70603,0.068 3.54083,3.18358 4.38424,4.8187 0.72726,1.41001 0.75477,1.6395 0.25875,2.25866 -0.60489,0.75508 -4.08724,2.89918 -4.99675,3.07647 -0.89147,0.1738 -1.01331,-0.50337 -0.80294,-4.40288 0.19391,-3.59375 0.47889,-5.34521 0.94577,-5.68844 z m -97.65678,58.52466 0.90664,2.00494 c 0.49822,1.1026 0.84573,2.25639 0.77224,2.56313 -0.0735,0.30675 -0.31765,0.64842 -0.54096,0.75838 -0.50293,0.24764 -5.40327,-1.31278 -5.64132,-1.79623 -0.25372,-0.51529 0.64289,-1.35142 2.69249,-2.50797 z M 67.976238,547.26681 c -0.141561,0.086 -0.252569,0.23776 -0.327725,0.45745 -0.201241,0.59161 -0.104864,0.74778 0.963623,1.54583 1.804423,1.3477 2.73215,0.60367 1.281573,-1.02723 -0.797158,-0.89625 -1.492633,-1.23384 -1.917451,-0.97603 z M 318.10277,424.71982 c 1.66969,-0.84868 2.24879,-1.03117 2.29291,-0.71975 0.0325,0.22922 -0.31184,0.77935 -0.76563,1.22171 -1.90954,1.86145 -4.77319,3.09751 -4.90704,2.11794 -0.0825,-0.60408 0.87596,-1.34726 3.37976,-2.6199 z m -106.4235,57.45964 c 0.10717,-0.0561 0.20794,-0.0923 0.29671,-0.1004 0.77721,-0.071 0.755,0.38558 -0.0663,1.42599 -0.96694,1.22471 -1.55284,1.5286 -1.83662,0.95227 -0.2195,-0.44578 0.85773,-1.88205 1.60626,-2.27785 z m 41.85592,-14.25044 c 0.0905,-0.0512 0.19184,-0.0933 0.30472,-0.12395 0.83386,-0.22836 1.25424,0.57139 1.01026,1.91908 -0.30032,1.65887 -0.84308,1.82045 -1.51737,0.45106 -0.51812,-1.05225 -0.43138,-1.88826 0.20238,-2.24622 z m 81.89811,-6.82344 c 1.31937,-0.64185 3.05729,-1.47107 5.37102,-2.57277 l 9.30515,-4.42941 5.38726,-1.37256 c 12.38778,-3.15502 17.09962,-4.13346 17.99203,-3.73437 0.65746,0.29397 0.30065,1.95605 -1.5614,7.23685 l -1.40882,3.99195 -1.9843,0.95744 c -3.72945,1.79958 -15.17617,4.42476 -22.5525,5.17224 -3.52655,0.35735 -13.06844,0.35705 -14.75658,-9.6e-4 -1.43808,-0.30496 -1.54952,-0.72917 -0.56503,-2.16442 0.62762,-0.915 0.81463,-1.15928 4.77318,-3.08397 z m 44.37295,-12.76414 c 0.12351,-0.0351 0.25838,-0.0447 0.41603,-0.0394 0.8176,0.0277 6.79283,4.49739 7.50648,5.61512 0.38681,0.60585 0.31771,0.71471 -0.84674,1.34436 -1.31274,0.70992 -7.58849,2.73644 -9.85569,3.18308 -0.7107,0.14004 -1.35388,0.12873 -1.42974,-0.0253 -0.20744,-0.42129 2.20359,-7.29816 3.0909,-8.81726 0.48098,-0.82344 0.74831,-1.15516 1.11876,-1.26059 z m 7.14717,-0.77395 c 0.47845,-0.3872 2.4007,-0.11941 5.73372,0.82985 1.90375,0.54222 2.23912,0.75285 2.66606,1.68288 0.26865,0.5852 0.55755,1.43053 0.6419,1.8784 0.38951,2.06809 -1.91671,1.58112 -6.11346,-1.29163 -2.44122,-1.67104 -3.40664,-2.71229 -2.9282,-3.09951 z m -25.54621,19.81971 c 0.51012,-0.21574 1.25253,-0.46764 2.22675,-0.75682 5.49979,-1.63258 5.97242,-1.47764 4.85202,1.59925 -0.37366,1.02606 -0.97171,2.26073 -1.32871,2.74424 -0.61792,0.83685 -0.69635,0.86452 -1.64197,0.54289 -1.60031,-0.54432 -5.11318,-3.09599 -4.94469,-3.59136 0.0487,-0.14337 0.32645,-0.32252 0.8366,-0.5382 z m -200.55518,100.71379 0.92517,-0.45555 3.26466,3.65444 c 1.79511,2.00975 3.51584,4.07903 3.82396,4.60038 l 0.56111,0.9494 -1.81697,1.74376 c -0.99881,0.9597 -3.24503,3.08161 -4.99187,4.71341 -1.74686,1.63177 -3.4739,3.11251 -3.83717,3.29148 -0.82574,0.40661 -1.62919,-0.26616 -4.9883,-4.17511 -2.69313,-3.13406 -3.69001,-4.79807 -3.34108,-5.57834 0.29529,-0.66028 9.21778,-8.16141 10.4006,-8.74386 z m -58.69482,33.70578 c -0.42807,0.3426 3.06682,7.45179 69.34616,141.74534 60.34924,122.27813 70.06255,141.81918 70.78348,142.38739 0.82034,0.64658 0.88778,0.63822 3.64898,-0.50357 1.54694,-0.63967 24.75862,-11.84706 51.58078,-24.90606 26.82214,-13.05903 48.8442,-23.72328 48.93898,-23.69672 0.0948,0.0265 0.22169,0.0236 0.28217,-0.006 0.2108,-0.10369 -0.76411,-0.63884 -3.94713,-2.16673 -2.16324,-1.03842 -3.22028,-1.38641 -3.25068,-1.07064 -0.0669,0.69439 -93.83126,46.57875 -94.62897,46.30742 -0.92146,-0.31341 -7.55785,-13.18516 -16.31648,-31.65144 -6.36833,-13.42667 -8.01992,-17.11661 -7.89698,-17.6296 0.14147,-0.5904 3.52794,-2.30177 37.61885,-19.00446 34.69184,-16.99703 37.44651,-18.39064 37.22998,-18.83037 -0.1286,-0.2612 -1.03311,-1.2592 -2.0112,-2.2187 -0.97804,-0.95949 -2.35719,-2.34386 -3.06284,-3.07674 -1.92056,-1.9947 -2.545,-2.37458 -2.98935,-1.81325 -0.20657,0.26104 -16.3279,8.24108 -35.82573,17.73404 -31.55019,15.36086 -35.52458,17.23693 -36.11756,17.03517 -0.59284,-0.20166 -2.06681,-3.07402 -13.37996,-26.05023 -11.27673,-22.90221 -12.68178,-25.88157 -12.43121,-26.36063 0.32331,-0.61822 13.69787,-7.52313 38.89021,-20.07894 9.05905,-4.51502 15.9119,-8.06877 15.84091,-8.21361 -0.21107,-0.43058 -4.58586,-5.16313 -5.91633,-6.40029 -0.71942,-0.66897 -1.39434,-1.05471 -1.5816,-0.90409 -0.66651,0.53617 -45.05266,22.24631 -48.52781,23.7359 -2.26901,0.97259 -3.78173,1.46993 -4.07335,1.33951 -0.30632,-0.13699 -4.9941,-9.40853 -13.80383,-27.30014 -11.87326,-24.1133 -13.31041,-27.15364 -13.05757,-27.63711 0.28068,-0.53666 31.35147,-16.55321 34.22845,-17.64418 1.17411,-0.44526 1.23166,-0.52086 0.89302,-1.19733 -0.19912,-0.39759 -1.84942,-2.20168 -3.6669,-4.0072 l -3.3053,-3.28175 -16.45289,8.01862 c -13.0794,6.37356 -16.57018,7.97821 -17.01338,7.82648 -0.79408,-0.27187 -28.50011,-56.96066 -28.23814,-57.77749 0.13045,-0.40674 2.12125,-1.51919 8.08805,-4.51807 5.04575,-2.53589 7.86307,-4.08197 7.77117,-4.26408 -0.13712,-0.27168 -0.81882,-1.04879 -5.08924,-5.81262 l -1.84617,-2.06045 -6.29067,3.12358 c -4.58957,2.27993 -6.53358,3.12178 -7.18939,3.11112 l -0.8996,-0.0142 -5.7158,-11.06433 c -4.44215,-8.59936 -5.66284,-11.15321 -5.47318,-11.45589 0.18325,-0.29259 0.1211,-0.37361 -0.25044,-0.32734 -0.27208,0.0339 -1.32473,0.16752 -2.34012,0.29668 -1.01537,0.12919 -2.14085,0.24864 -2.50066,0.26686 -0.02,9.3e-4 -0.037,0.005 -0.0508,0.0162 z m 37.36988,-15.84921 c 0.12981,-0.0946 0.22178,-0.1384 0.2664,-0.12221 0.5298,0.19021 7.35667,8.43429 7.88792,9.52452 0.76978,1.58145 0.54309,2.54212 -1.04006,4.396 -2.36576,2.77031 -3.83845,3.14889 -5.98049,1.53839 -1.66897,-1.25482 -4.57276,-4.86098 -5.60979,-6.96706 -0.92065,-1.86975 -0.9297,-1.95535 -0.28606,-2.93315 1.1026,-1.67509 3.85339,-4.7739 4.7622,-5.4363 z m 149.20573,-70.34619 c 1.40758,-0.75718 2.75066,-0.85911 5.38257,-1.03279 5.42905,-0.35832 8.85166,-0.34766 9.19758,0.0299 0.14796,0.16124 -0.12837,1.05757 -0.61398,1.98954 l -0.88381,1.69352 -14.80853,7.22856 c -15.41493,7.52412 -22.28486,10.68808 -21.94062,10.10678 0.11108,-0.18777 2.19622,-1.82025 4.63325,-3.62899 5.12766,-3.80567 7.58732,-5.92392 13.26627,-11.42188 2.88719,-2.79517 4.35973,-4.20742 5.76729,-4.96462 z m -152.77985,91.21627 c 0.13631,-0.0316 0.28788,0.0585 0.38022,0.24603 0.12309,0.24998 0.0205,0.55594 -0.22951,0.67904 -0.50697,0.24963 -0.72277,-0.41206 -0.27781,-0.85159 0.0394,-0.0385 0.0814,-0.0632 0.12699,-0.0737 z m 165.33248,-42.95761 c 0.33736,-0.16612 1.11843,0.33682 2.59104,1.66755 1.15932,1.04764 3.88124,3.25804 6.05032,4.91271 2.32217,1.77145 3.8916,3.16642 3.81475,3.39229 -0.14715,0.43268 -6.7269,3.98473 -8.80049,4.75131 -2.10504,0.7782 -2.27417,0.65639 -3.77529,-2.70201 -1.23131,-2.75475 -1.30604,-3.09186 -1.20161,-5.48667 0.14779,-3.38856 0.72537,-6.24177 1.32128,-6.53518 z m 122.88645,-54.6741 c 0.3356,-0.1501 0.62698,-0.26124 0.85975,-0.32313 1.26935,-0.33789 1.48677,0.20491 0.98163,2.4622 -0.61096,2.73006 -4.73725,15.14166 -5.56312,16.73338 -0.57786,1.11366 -0.99636,1.50723 -2.19197,2.06988 -1.90911,0.89845 -3.46313,1.1668 -4.10181,0.70695 -0.27951,-0.20126 -1.29703,-1.42049 -2.26151,-2.70937 -0.96439,-1.28896 -1.97981,-2.44517 -2.25795,-2.5696 -0.27817,-0.12442 -1.14255,-0.23652 -1.92015,-0.24754 -0.7933,-0.0113 -1.35794,-0.18067 -1.28602,-0.38782 0.13776,-0.39674 6.17536,-6.96906 9.18452,-9.99772 1.69483,-1.70575 6.20758,-4.68647 8.55669,-5.7372 z m -20.24399,21.78945 c 3.3367,-1.64298 3.77295,-1.7889 4.38685,-1.46775 0.80342,0.42037 1.3628,1.43887 1.32951,2.42154 -0.0199,0.58704 -0.31803,0.83969 -1.82625,1.54365 -0.9914,0.46264 -2.78532,1.18976 -3.98684,1.61694 -5.71174,2.03075 -6.26084,1.94525 -4.59098,-0.71982 0.96285,-1.53658 1.06008,-1.60832 4.68772,-3.39455 z m -98.99632,52.31127 2.31272,-1.09954 c 2.75894,-1.31168 11.95634,-3.47772 12.52624,-2.95016 0.20233,0.18743 0.13696,0.77435 -0.15337,1.37305 -0.27873,0.57478 -0.91474,2.08897 -1.41287,3.36475 -0.75838,1.94231 -1.08308,2.40457 -1.98794,2.84677 -1.2165,0.59454 -3.10435,0.55702 -6.48482,-0.12692 -3.33997,-0.67575 -3.81905,-0.92457 -4.34489,-2.25826 z m 25.13996,-6.49201 c 0.16723,-0.0823 0.36687,-0.0198 0.44462,0.1381 0.0778,0.1579 0.0841,0.31344 0.0145,0.34774 -0.0697,0.0343 -0.26845,-0.0265 -0.44378,-0.13637 -0.17538,-0.10979 -0.1825,-0.26715 -0.0153,-0.34947 z m 87.29686,-41.85462 c 0.19592,-0.0954 0.41056,-0.1219 0.62309,-0.0477 0.41653,0.14535 0.43086,0.4129 0.0656,1.2783 -0.5871,1.39098 -0.91395,1.54388 -1.36039,0.6372 -0.33204,-0.67433 0.084,-1.58146 0.67173,-1.86777 z m 7.18466,-2.76264 c 1.12589,-0.61847 3.5866,-1.34151 6.81392,-1.99013 4.01111,-0.80615 4.7112,-0.14694 6.78561,6.37502 1.07879,3.39174 1.28241,5.89794 0.6636,8.19642 -0.55514,2.06208 -3.09014,7.03687 -4.45128,8.73385 -1.45686,1.81634 -1.9035,1.9949 -3.55418,1.43003 -2.36278,-0.80858 -8.80952,-7.34183 -10.36871,-10.50836 l -0.6747,-1.37024 1.82384,-5.01051 c 1.14554,-3.14534 2.09929,-5.22883 2.56201,-5.59822 0.10434,-0.0841 0.23904,-0.16951 0.39993,-0.25783 z m -88.81978,46.6451 1.28788,-0.63416 0.89861,1.60833 c 0.8054,1.44102 0.84002,1.63716 0.33439,1.88613 -0.69863,0.34401 -3.45071,-0.91472 -3.6584,-1.67321 -0.11782,-0.43033 0.13613,-0.69402 1.13752,-1.18709 z m 48.22191,31.68368 19.57598,-9.51502 19.57338,-9.51591 3.78499,-0.74905 c 2.08078,-0.41256 5.70745,-1.35556 8.06191,-2.0952 11.76211,-3.69502 17.88523,-4.99011 17.44322,-3.69056 -0.0454,0.13332 -1.93887,1.78176 -4.20718,3.66305 -5.06931,4.20423 -7.61462,6.57105 -10.49946,9.76782 -4.81126,5.33137 -13.40312,10.83821 -28.63113,18.35178 l -6.38246,3.14939 -1.63689,-0.86165 c -0.90002,-0.47482 -3.08442,-1.92842 -4.85518,-3.22831 -3.72304,-2.73302 -4.35345,-3.05303 -5.19421,-2.63904 -1.44989,0.71392 -1.13904,1.6438 2.18321,6.52076 1.9236,2.82368 2.12289,3.21983 1.92375,3.80528 -0.19003,0.55869 -2.07709,1.59526 -13.03235,7.15724 l -12.80996,6.5035 -1.51644,-0.55955 c -2.20249,-0.81049 -4.87785,-0.66382 -11.03573,0.60087 -1.73332,0.35599 -2.02921,-0.1933 -0.82575,-1.53099 3.26307,-3.62686 16.06599,-15.26516 23.63922,-21.48649 z m -49.68898,28.79674 c 5.77447,-2.83775 13.24827,-6.25667 13.69675,-6.10414 0.42755,0.14538 0.47529,0.27841 0.23793,0.66004 -0.47441,0.76276 -4.43707,3.92479 -9.43936,7.53032 -4.9593,3.57457 -9.15357,6.15797 -9.68312,5.9653 -0.17924,-0.0653 -0.73069,-0.94005 -1.22497,-1.94399 -0.8495,-1.72522 -0.86441,-1.86235 -0.26152,-2.52071 0.35613,-0.38897 3.20971,-1.88404 6.67432,-3.58682 z m 11.10099,2.01648 c 0.74053,-0.3702 1.0722,9.1e-4 0.52763,0.58919 -0.55551,0.60013 -2.02668,1.25604 -2.16864,0.96773 -0.14292,-0.29037 0.69339,-1.08364 1.64118,-1.55702 z m -20.5452,15.18236 c 0.57961,-0.28317 1.11214,-0.495 1.51387,-0.5952 1.23547,-0.30822 1.38026,-0.26436 1.73839,0.54604 0.21472,0.48589 0.4874,2.18299 0.60678,3.77015 0.11937,1.58716 0.0865,3.01079 -0.0726,3.16418 -0.15876,0.15382 -0.91347,-0.10781 -1.67616,-0.57886 -0.76272,-0.47105 -2.32002,-1.30615 -3.46163,-1.85717 -2.84439,-1.37288 -2.90083,-1.81628 -0.43678,-3.42935 0.58361,-0.38188 1.20872,-0.73623 1.78813,-1.01979 z m 81.6698,-26.80744 1.02006,0.31195 c 1.15188,0.35209 2.6594,1.90469 2.80893,2.89263 0.0546,0.36103 -0.0924,0.97564 -0.32715,1.365 -0.87843,1.45674 -13.1011,7.24538 -15.62893,7.4017 -1.71945,0.10635 -5.00237,-0.47599 -5.76572,-1.02309 -0.37314,-0.26752 -0.54218,-0.5762 -0.45523,-0.83171 0.0759,-0.22322 4.23634,-2.59108 9.24383,-5.26134 z m -38.64615,23.88181 c 0.77234,0.0744 1.39695,7.77736 0.82295,10.14262 -0.27168,1.11946 -0.53455,1.44786 -1.70135,2.11568 -1.74686,0.99974 -2.46533,1.12564 -2.77978,0.48704 -0.51904,-1.05412 2.8588,-12.82234 3.65818,-12.74534 z m 67.88997,14.37953 c -0.31218,0.16047 -0.58487,0.47302 -0.78291,0.90365 -0.38474,0.83672 -0.32095,1.07843 0.99494,3.71399 1.77435,3.55394 2.31538,3.93811 6.9586,4.9357 l 3.49109,0.74979 3.04046,6.17485 c 2.2464,4.56218 3.0568,6.46612 3.1044,7.29067 0.0761,1.31836 -0.60694,3.48358 -1.12229,3.55696 -0.56889,0.081 -2.58039,-1.18233 -8.02362,-5.0383 -8.87928,-6.29001 -12.86487,-8.17511 -17.10751,-8.09151 -1.69505,0.0334 -2.51956,0.25939 -4.97234,1.36635 -4.58194,2.0678 -5.36735,3.33388 -6.15308,9.92449 -0.27339,2.29326 -0.63295,4.47229 -0.79908,4.8412 -0.27213,0.60424 -0.73352,0.66426 -4.65681,0.61882 -2.39534,-0.0278 -5.49428,0.17897 -6.8867,0.45847 -2.98625,0.59942 -5.91285,0.62588 -9.78789,0.0888 -4.77831,-0.66231 -5.11198,-0.60022 -10.18582,1.8892 -3.58006,1.75612 -4.54345,2.33804 -4.87892,2.94879 -1.03812,1.89019 0.36508,2.11451 6.24369,0.99457 5.87682,-1.11964 6.94722,-1.20098 7.79593,-0.5927 0.90436,0.64817 1.69568,2.98764 1.35221,3.99744 -0.46678,1.37236 -3.61126,3.15551 -21.6236,12.26272 -14.635,7.39959 -17.09343,8.57029 -17.26559,8.22065 -0.24653,-0.50065 2.00078,-4.11081 3.93518,-6.32444 1.88115,-2.15271 4.09326,-3.93769 7.05577,-5.69046 2.85229,-1.68759 3.47457,-2.58108 2.55199,-3.66877 -2.36228,-2.78512 -10.83051,3.98171 -16.99696,13.58109 -2.81424,4.38098 -3.34272,6.55682 -1.81797,7.48511 1.1232,0.68384 2.25496,0.21522 18.37629,-7.58758 16.1805,-7.83144 20.85422,-10.33527 28.14212,-15.08272 2.79583,-1.82121 4.04771,-2.50648 4.37678,-2.39457 0.25357,0.0863 1.2475,1.274 2.20775,2.64004 3.97829,5.65914 6.4158,8.04207 8.3383,8.14893 2.47249,0.13748 5.88657,-3.24859 7.12883,-7.07186 0.39007,-1.20062 0.74151,-3.55051 0.78044,-5.2239 0.0389,-1.67274 0.21048,-4.07311 0.38196,-5.33462 0.17148,-1.26151 0.19963,-3.41732 0.0624,-4.78978 -0.32828,-3.28365 -0.0568,-6.18159 0.78303,-8.36666 l 0.66482,-1.73155 c 0.0252,-0.0241 0.0563,-0.0472 0.0826,-0.0711 7.2e-4,-7e-4 0.003,-10e-4 0.004,-0.002 l 2.09552,-0.86856 c 3.7768,-1.56775 6.64428,-1.14615 11.5973,1.70245 0.82697,0.47562 4.40335,2.87834 7.94753,5.33917 3.54419,2.46086 7.17538,4.74542 8.06965,5.07875 1.52905,0.56994 1.69963,0.56085 2.86001,-0.18257 1.58439,-1.01507 2.67433,-2.9799 3.10707,-5.59665 l 0.33826,-2.041 -2.03839,-4.63053 c -3.11111,-7.06764 -3.91752,-9.2361 -3.68672,-9.91466 0.17376,-0.51075 2.62091,-1.79571 15.1896,-7.98001 8.82265,-4.34086 15.21138,-7.34733 15.54018,-7.31226 0.48762,0.052 0.57637,0.26818 0.70238,1.70057 0.61248,6.96239 2.29868,9.74554 5.70314,9.41599 1.08133,-0.10468 3.06586,-0.9917 10.64094,-4.75842 5.1218,-2.54679 10.98356,-5.56669 13.0261,-6.71006 l 3.71364,-2.07893 1.08363,-2.08799 c 0.59607,-1.1487 1.13681,-2.52312 1.20221,-3.05422 0.0728,-0.59134 -0.42395,-2.56427 -1.28179,-5.08798 -1.4431,-4.24549 -1.51183,-4.93071 -0.73157,-7.22465 0.32443,-0.95392 0.31548,-1.58768 -0.0306,-2.29046 -1.35772,-2.75738 0.73063,-3.65964 6.51938,-2.81823 4.2987,0.62483 5.2934,0.45234 5.25254,-0.90781 -0.0211,-0.70458 -0.22626,-0.97909 -1.18179,-1.57773 -2.14885,-1.34625 -7.38045,-1.8882 -10.54586,-1.09245 -2.52439,0.63458 -3.25111,1.37124 -4.2716,4.34133 l -0.90086,2.6228 -3.57763,1.55044 c -4.70026,2.03585 -16.51227,6.5674 -16.99665,6.52074 -0.20877,-0.0201 -0.55657,-0.39638 -0.77285,-0.83657 -0.70647,-1.43477 -1.82652,-1.46164 -4.46022,-0.10495 -2.34593,1.20839 -7.05239,4.83824 -9.11925,7.03089 -2.27728,2.41592 -0.55246,3.96232 2.98929,2.67972 1.07336,-0.38869 2.30894,-0.7845 2.74461,-0.88117 2.19661,-0.48738 -1.32925,1.41725 -16.36095,8.84196 -18.79626,9.28416 -16.39529,8.59559 -21.18314,6.06981 -3.17983,-1.67743 -6.58506,-2.87657 -7.65183,-2.69595 -0.1114,0.0188 -0.21898,0.0553 -0.32297,0.10897 z m 67.96314,-18.21655 c 4.39309,-2.18298 6.69321,-3.2305 6.98458,-3.18664 0.45147,0.0679 0.88437,0.71867 1.97948,2.97667 2.15489,4.44267 1.78859,5.26772 -3.85604,8.66935 -4.67891,2.81968 -19.11087,10.18552 -20.32631,10.3743 -1.30559,0.20284 -1.77819,-0.22916 -2.11863,-1.93284 -0.40122,-2.00767 -0.21538,-6.87804 0.29533,-7.74333 0.37297,-0.63187 2.3522,-1.72409 11.94666,-6.59438 1.93276,-0.98111 3.63055,-1.83548 5.09494,-2.56311 z m -94.73282,57.30913 c 1.39374,-0.7012 2.93626,-1.37657 3.88836,-1.65335 1.58644,-0.46113 2.0304,0.11528 2.06603,2.67934 0.0363,2.61417 -0.52119,4.67531 -1.76494,6.52287 -1.27433,1.8929 -1.76805,2.18312 -2.71576,1.59412 -1.59242,-0.98969 -2.39476,-1.90218 -3.71532,-4.225 l -1.12346,-1.97656 c -0.0668,-0.23235 -0.0981,-0.4399 -0.0931,-0.63123 l 0.46518,-0.5011 c 0.35448,-0.38058 1.59937,-1.10789 2.99309,-1.80904 z m 46.29569,7.53068 c 8.51937,-4.20047 19.56718,-9.63512 33.88194,-16.67214 34.2397,-16.83258 67.00738,-32.84653 72.81826,-35.58754 l 10.56634,-4.9851 6.8335,13.69247 c 3.75911,7.53089 6.93067,14.15558 7.04824,14.72097 0.21249,1.02236 0.20376,1.03432 -1.80273,2.12641 -1.72146,0.93692 -2.3639,1.1157 -4.37481,1.21364 -3.18003,0.15494 -3.19274,0.15752 -9.0845,1.91076 -4.31855,1.28508 -5.3059,1.47588 -5.98781,1.161 -0.44911,-0.20738 -0.90745,-0.56078 -1.01805,-0.78535 -0.42134,-0.8557 -3.00566,-2.48019 -4.77708,-3.00336 -2.31304,-0.68307 -3.93263,-0.4769 -5.89097,0.75193 -2.81123,1.76403 -2.27537,3.43937 0.91712,2.86624 2.79032,-0.50094 3.67428,-0.39961 5.19266,0.60208 2.43391,1.60563 1.61435,2.26102 -2.40594,1.92269 -2.99695,-0.2522 -3.20844,-0.19876 -9.85613,2.54109 -2.20161,0.9074 -4.27885,1.67418 -4.61536,1.7022 -0.33649,0.028 -1.59985,-0.48045 -2.80746,-1.12996 -1.20759,-0.64953 -2.77258,-1.32401 -3.47867,-1.49828 -1.19926,-0.29598 -1.40619,-0.24173 -3.13468,0.81853 l -1.84909,1.13472 -1.08868,-0.805 c -1.27102,-0.94117 -3.42025,-1.65779 -5.01406,-1.67188 -2.13577,-0.0189 -8.72618,2.92617 -31.24138,13.96146 -12.01092,5.88693 -22.06593,10.93962 -22.34402,11.2285 -0.77567,0.80585 -0.56119,2.3443 0.47365,3.39811 1.19183,1.21368 2.12382,1.22453 6.11659,0.0644 5.28587,-1.53581 5.9485,-1.30109 4.19149,1.48691 -1.53497,2.43564 -2.71739,4.94151 -5.45381,11.5613 -1.97872,4.78678 -2.81388,6.38698 -4.40579,8.43714 -3.25617,4.1935 -3.93625,4.4601 -3.41472,1.33305 l 0.27838,-1.67189 -2.51394,-4.85791 c -2.37745,-4.59791 -2.56308,-4.87656 -3.47711,-5.187 -1.38841,-0.47156 -2.7456,0.3279 -5.18265,3.05264 -2.36319,2.64213 -5.20231,4.62979 -9.99859,6.99145 -3.46595,1.70774 -3.93247,1.71327 -5.05526,0.0705 -0.93121,-1.36251 -4.74166,-5.11159 -9.23315,-9.08639 -4.65366,-4.11831 -7.06734,-6.59571 -7.13358,-7.32049 -0.0353,-0.38376 2.76423,-1.88535 28.32192,-14.48765 z m 80.4279,-14.67276 c 0.53242,-0.26216 2.06217,0.60118 2.01081,1.13469 -0.0452,0.46895 -3.68232,2.31937 -3.85794,1.96271 -0.16901,-0.34321 1.31794,-2.83689 1.84711,-3.09744 z m 14.08322,2.84701 c 0.49388,-0.25321 1.20465,-0.52718 2.17052,-0.84888 4.57119,-1.52233 5.68948,-1.36856 5.2452,0.72643 -0.21411,1.00938 -0.35774,1.1325 -2.58608,2.20259 -1.29734,0.62328 -2.55645,1.14819 -2.7979,1.16647 -0.50524,0.0381 -2.56594,-1.43088 -2.86739,-2.04309 -0.20781,-0.42205 0.0121,-0.78215 0.83541,-1.2038 z m 17.50678,-6.09487 2.45206,-1.17471 c 4.05811,-1.94258 10.71534,-3.29704 13.48756,-2.74428 0.72744,0.14506 0.73796,0.17665 0.31058,1.06406 -0.53842,1.11796 -5.61923,7.82225 -7.83357,10.33613 -0.88676,1.00673 -1.77304,1.90931 -1.96883,2.00571 -1.1054,0.5443 -2.7393,-1.46086 -4.77017,-5.85435 z m -120.9483,61.99259 c 0.74519,-0.45353 2.78934,-0.79488 6.16792,-1.0472 4.34689,-0.32468 5.66681,-0.56501 8.60372,-1.5652 1.90815,-0.64977 3.56542,-1.14904 3.6815,-1.10956 0.52875,0.17985 -0.0117,0.98691 -1.80714,2.7055 -1.06824,1.02255 -2.61461,2.1867 -3.43721,2.58723 -3.01723,1.46705 -8.00727,1.53031 -11.58762,0.14767 -1.81326,-0.70025 -2.36639,-1.26493 -1.62118,-1.71843 z m -72.13286,54.6694 c 0.16272,-0.0712 0.26928,-0.0765 0.30401,-0.006 0.0337,0.0684 -0.0259,1.00912 -0.13154,2.08945 -0.18002,1.84047 -0.11212,2.11824 1.0562,4.40877 0.80429,1.57685 2.00722,3.33565 3.38943,4.95585 1.17855,1.38147 2.50078,3.0183 2.93803,3.63676 1.02326,1.44726 0.74291,1.56152 -0.72942,0.30043 -1.96667,-1.68457 -9.88341,-9.91436 -10.44087,-10.85382 -0.50976,-0.85894 -0.47908,-0.93065 1.03245,-2.43072 1.09672,-1.08832 2.09322,-1.88778 2.58173,-2.10067 z m -13.73598,12.10385 c 1.04685,-0.51546 3.65109,0.9917 6.96935,4.03345 5.70983,5.23406 15.01071,15.54064 17.11971,18.97082 0.57868,0.94118 0.9881,1.74277 0.90978,1.78134 -0.1377,0.0678 -4.50406,-3.86089 -15.37096,-13.83191 -8.88627,-8.15369 -10.82767,-10.36292 -9.6279,-10.95368 z"
       id="path294"
       inkscape:connector-curvature="0"
       inkscape:export-filename="/media/chemo/DATA/Coding/Sammel-App/Sammel-App/sammel_app/assets/images/Sammeln.png"
       inkscape:export-xdpi="57.34"
       inkscape:export-ydpi="57.34" />
  </g>
</svg>
