<?xml version="1.0" encoding="UTF-8" standalone="no"?>
<svg
   xmlns:dc="http://purl.org/dc/elements/1.1/"
   xmlns:cc="http://creativecommons.org/ns#"
   xmlns:rdf="http://www.w3.org/1999/02/22-rdf-syntax-ns#"
   xmlns:svg="http://www.w3.org/2000/svg"
   xmlns="http://www.w3.org/2000/svg"
   xmlns:sodipodi="http://sodipodi.sourceforge.net/DTD/sodipodi-0.dtd"
   xmlns:inkscape="http://www.inkscape.org/namespaces/inkscape"
   version="1.1"
   id="svg10"
   width="887.10034"
   height="1064.5068"
   viewBox="0 0 887.10031 1064.5068"
   sodipodi:docname="Sammeln.svg"
   inkscape:export-filename="/media/chemo/DATA/Coding/Sammel-App/Sammel-App/sammel_app/assets/images/Sammeln_centered.png"
   inkscape:export-xdpi="111.04597"
   inkscape:export-ydpi="111.04597"
   inkscape:version="1.0.1 (1.0.1+r75)">
  <metadata
     id="metadata16">
    <rdf:RDF>
      <cc:Work
         rdf:about="">
        <dc:format>image/svg+xml</dc:format>
        <dc:type
           rdf:resource="http://purl.org/dc/dcmitype/StillImage" />
        <dc:title></dc:title>
      </cc:Work>
    </rdf:RDF>
  </metadata>
  <defs
     id="defs14" />
  <sodipodi:namedview
     pagecolor="#ffffff"
     bordercolor="#666666"
     borderopacity="1"
     objecttolerance="10"
     gridtolerance="10"
     guidetolerance="10"
     inkscape:pageopacity="0"
     inkscape:pageshadow="2"
     inkscape:window-width="1848"
     inkscape:window-height="1016"
     id="namedview12"
     showgrid="false"
     inkscape:zoom="0.61958644"
     inkscape:cx="293.84632"
     inkscape:cy="606.28866"
     inkscape:window-x="72"
     inkscape:window-y="27"
     inkscape:window-maximized="1"
     inkscape:current-layer="g20"
     inkscape:document-rotation="0"
     fit-margin-top="100"
     fit-margin-left="100"
     fit-margin-right="100"
     fit-margin-bottom="100"
     lock-margins="true" />
  <g
     id="g20"
     transform="translate(162.52468,81.136341)">
    <path
       style="fill:#7e007e;stroke-width:0.32"
       d="m 391.6594,883.36518 c -2.89306,-0.1255 -6.42631,-2.47154 -9.43385,-6.26401 -1.76526,-2.22594 -4.49263,-4.28968 -6.57118,-4.97222 -3.04084,-0.9985 -8.0462,-5.16002 -14.87725,-12.36909 -6.4342,-6.79027 -17.38602,-18.92369 -22.4814,-24.90695 -3.45528,-4.05738 -5.48199,-5.7902 -8.85212,-7.5685 -6.03253,-3.18315 -7.30911,-4.23708 -13.49871,-11.14452 -4.49102,-5.01188 -4.04099,-4.47182 -15.11343,-18.13675 -22.57389,-27.85935 -34.87195,-44.31831 -61.54892,-82.37328 -8.31523,-11.86176 -41.42072,-60.052 -53.38226,-77.70626 -1.4239,-2.10157 -4.22493,-6.21113 -6.22449,-9.13234 -1.99956,-2.92122 -6.66383,-9.79756 -10.36504,-15.28077 -3.70121,-5.4832 -10.44786,-15.46585 -14.99257,-22.18364 -17.81269,-26.32997 -33.37462,-49.87459 -33.88917,-51.27304 -0.0425,-0.11544 0.41101,-0.43713 1.00776,-0.71491 1.30599,-0.60792 1.64509,-1.89914 0.71835,-2.73539 -1.10651,-0.99846 -2.21295,-0.79392 -2.76044,0.51027 l -0.35228,0.83919 -0.84288,-1.33711 c -0.46358,-0.73543 -1.23763,-2.12569 -1.72012,-3.0895 l -0.87725,-1.75236 0.84892,-1.03873 c 0.70158,-0.85847 0.78575,-1.20985 0.48494,-2.02451 -0.79428,-2.14998 -2.54365,-2.8323 -6.43918,-2.5106 -1.03364,0.0854 -2.33234,0.008 -2.886,-0.17164 -1.50224,-0.48773 -5.82477,-4.85811 -8.950547,-9.04962 -3.07489,-4.12326 -3.970154,-5.05798 -4.979552,-5.19901 -0.791222,-0.11054 -1.143757,0.1692 -2.932506,2.32694 -0.714529,0.86197 -1.839721,1.91644 -2.50043,2.34325 -2.322183,1.50025 -3.657936,0.79046 -5.06847,-2.69327 -1.326929,-3.27724 -3.636324,-7.31305 -6.238914,-10.90287 -4.59111,-6.33264 -8.865698,-10.92118 -22.305553,-23.94382 -5.470769,-5.30094 -10.938882,-10.65721 -12.151372,-11.90285 -5.909434,-6.07094 -15.367542,-17.1813 -19.893074,-23.36824 -1.078538,-1.47449 -4.313829,-5.88126 -7.189547,-9.79285 -2.875713,-3.91158 -5.928955,-8.38296 -6.7849755,-9.93639 -0.8560177,-1.55343 -2.2007572,-3.53991 -2.9883169,-4.41443 -2.1147914,-2.34825 -4.2036453,-5.26685 -11.2634666,-15.7376 -10.75393,-15.94966 -17.14683,-26.81473 -20.789372,-35.33264 -5.251804,-12.28109 -10.641231,-28.46573 -13.107239,-39.3615 -0.434228,-1.91859 -0.956451,-3.94205 -1.160498,-4.49661 -0.204046,-0.55455 -0.510766,-1.80999 -0.681597,-2.78986 -0.170834,-0.97989 -0.818902,-4.43319 -1.440152,-7.67402 -0.621249,-3.24083 -1.142814,-6.27113 -1.159034,-6.734 -0.168211,-4.80059 -0.329756,-5.58308 -2.81323,-13.62678 -2.487213,-8.0558 -2.504374,-8.13391 -2.390994,-10.88385 0.102072,-2.47581 0.0056,-3.05558 -0.909207,-5.46202 -1.0228,-2.69069 -1.350114,-3.23311 -5.471772,-9.06834 -5.254056,-7.43842 -7.082659,-11.24698 -6.959947,-14.49597 0.281117,-7.44282 4.686955,-14.69733 12.187092,-20.06685 2.339625,-1.67501 3.122359,-2.0618 6.871792,-3.39575 7.486653,-2.6636 11.501594,-2.77088 16.040948,-0.42878 3.25863,1.68131 5.958625,4.25426 10.913129,10.39963 5.321368,6.60043 8.1757477,9.6934 12.150668,13.16632 5.6401593,4.92784 9.2877714,8.44416 12.7433166,12.2846 6.8465634,7.60918 21.1741024,26.83299 38.4781514,51.62758 2.91588,4.17811 6.288683,8.99791 7.495116,10.71067 2.368299,3.36225 10.024773,14.43477 18.701689,27.04569 2.986013,4.33984 17.78202,26.05428 32.880014,48.25431 25.67157,37.74739 35.73107,52.57766 50.71479,74.76655 3.34737,4.95702 9.61685,14.23478 13.93216,20.61724 16.42532,24.29347 19.79028,29.27369 24.17117,35.77389 2.48128,3.68165 8.23994,12.22673 12.79703,18.98908 4.55708,6.76234 8.76632,12.9622 9.35387,13.77746 0.58754,0.81526 2.08417,3.02647 3.32582,4.91381 1.24166,1.88733 5.12262,7.67094 8.62435,12.85247 8.03602,11.89092 15.34095,22.73022 19.70224,29.23485 1.86588,2.78287 5.58808,8.31802 8.27153,12.30035 2.68347,3.98232 5.86549,8.71888 7.07116,10.52569 1.20567,1.80681 3.72086,5.56122 5.58932,8.34314 5.67969,8.45641 21.05783,31.45032 25.52942,38.17241 1.60352,2.41056 4.47375,6.72481 6.37831,9.58721 6.84224,10.28341 13.78914,21.07223 23.16366,35.97413 8.42052,13.38541 26.91005,45.28884 34.61157,59.72178 2.49964,4.68441 3.31781,6.51019 4.59095,10.24487 2.95391,8.66512 7.56039,20.79238 11.02261,29.01876 4.08721,9.71134 11.58453,28.25353 12.42142,30.72041 4.924,14.51422 7.039,21.8472 6.6325,22.99579 -0.39209,1.1079 -0.93973,1.4598 -2.18746,1.4057 z m -24.57738,-26.39851 c 0.0581,-4.19803 -17.22015,-29.73845 -22.3081,-32.9755 -1.46348,-0.93108 -3.62641,-1.61022 -4.31795,-1.35577 -0.22333,0.0822 -0.58819,0.54359 -0.8108,1.02539 -0.85961,1.86047 0.57359,3.87015 17.21423,24.13815 4.25699,5.18494 7.92037,9.62931 8.14086,9.87637 0.51263,0.5744 2.07135,0.0438 2.08175,-0.70866 z m 0.75888,-23.3353 c 0.34261,-0.74149 -0.45266,-2.58842 -3.10138,-7.20267 -4.55988,-7.94364 -4.7565,-8.65632 -3.52349,-12.77217 0.70298,-2.34655 0.64469,-2.8098 -0.37136,-2.95178 -0.52779,-0.0737 -1.42607,0.34261 -3.48593,1.61578 -5.26459,3.25394 -5.19906,2.94659 -1.72161,8.07561 3.11832,4.59933 6.27343,8.87051 8.36159,11.31934 2.24803,2.63635 3.27312,3.14751 3.84218,1.91589 z M 135.86941,531.84059 c 4.25291,-3.29086 4.07362,-4.87217 -1.57281,-13.87195 -2.81836,-4.49216 -3.898,-5.7308 -4.72872,-5.42514 -0.24197,0.089 -1.60381,1.06964 -3.02629,2.17913 -5.60593,4.37243 -6.26388,5.45953 -5.14488,8.5007 0.85098,2.31276 3.13611,6.29595 4.69271,8.17983 3.06819,3.71327 5.41109,3.81807 9.77999,0.43743 z m 21.84471,-15.85266 c 4.78555,-3.04778 9.26398,-6.11639 10.19331,-6.98435 0.74302,-0.69403 0.47918,-1.38145 -2.19071,-5.70767 -2.57815,-4.17765 -4.8379,-7.3812 -5.46184,-7.74301 -0.25427,-0.14744 -1.05614,-0.0496 -1.78192,0.21747 -3.0338,1.11628 -14.0651,7.80282 -15.05682,9.12654 -0.74073,0.98877 -0.043,3.06529 2.29244,6.82226 4.31444,6.94061 5.22527,7.96562 6.62169,7.45181 0.50259,-0.18493 2.92531,-1.61729 5.38382,-3.18304 z M 66.87368,473.1282 c 0.271626,-1.84747 -2.53664,-7.07531 -8.984922,-16.72625 -1.257199,-1.88162 -3.470037,-5.21025 -4.917415,-7.39696 C 49.709721,444.07731 31.33649,417.25351 21.72587,403.38851 0.92368598,373.37772 -5.7988171,363.17929 -8.7536827,357.14924 c -0.8091035,-1.65115 -0.9003221,-2.11139 -0.7558196,-3.81359 0.259217,-3.05359 -1.0341477,-5.75905 -6.3436027,-13.26956 -4.081705,-5.77379 -4.875885,-6.64094 -5.778076,-6.30898 -0.793097,0.29182 -0.778273,0.17538 -1.132355,8.8934 -0.09921,2.44256 -0.409774,4.39874 -0.914792,5.76201 -0.420527,1.1352 -0.786211,2.54931 -0.812628,3.14249 -0.05888,1.32184 2.385298,8.51847 4.723815,13.9088 2.388178,5.5048 8.82406,17.88368 11.979082,23.04075 0.6087274,0.995 2.8719907,4.69399 5.0294705,8.21997 13.8505605,22.63602 43.7396375,58.97872 59.0101105,71.7515 6.370935,5.32888 10.271485,7.03718 10.622158,4.65217 z M 41.093017,445.61844 c -0.957149,-1.10122 -2.090554,-2.44659 -2.518683,-2.98972 -0.428124,-0.54311 -0.932185,-1.01882 -1.120128,-1.0571 -0.187944,-0.0383 -0.497718,-0.49361 -0.688387,-1.0118 -0.192724,-0.52378 -0.873696,-1.31223 -1.533513,-1.77558 -0.936914,-0.6579 -1.324688,-1.20123 -1.841401,-2.58003 -0.648313,-1.73 -1.194219,-2.53787 -3.935627,-5.82446 -0.778,-0.93272 -1.821048,-2.3115 -2.317877,-3.06395 -0.496833,-0.75245 -1.16179,-1.50513 -1.477682,-1.67262 -0.315896,-0.1675 -0.867427,-0.81045 -1.22563,-1.42879 -0.358205,-0.61834 -0.914018,-1.33446 -1.235141,-1.59138 -0.321122,-0.25691 -1.128859,-1.38597 -1.794976,-2.50903 -0.666117,-1.12307 -1.348961,-2.07 -1.517439,-2.10433 -0.168483,-0.0343 -0.449634,-0.45189 -0.624788,-0.92792 -0.175158,-0.47604 -0.473853,-0.89716 -0.663788,-0.93588 -0.6494,-0.13231 -3.097325,-2.77214 -3.805642,-4.10397 -0.508314,-0.95577 -0.877689,-1.31356 -1.312501,-1.27135 -0.378523,0.0368 -0.896492,-0.362 -1.383306,-1.06495 -0.428016,-0.61805 -1.382671,-1.97537 -2.1214635,-3.01629 -8.7675471,-12.35297 -19.2708073,-30.75315 -25.7363105,-45.08626 -2.020804,-4.47983 -3.650338,-9.74482 -3.325526,-10.74467 0.93041,-2.86409 1.404994,-4.01 1.640841,-3.96194 0.473701,0.0965 2.511366,3.936 2.675317,5.04099 0.08649,0.58292 0.06464,1.60073 -0.04854,2.26179 -0.607125,3.54573 1.391972,7.02029 19.0571219,33.12255 2.0331539,3.00422 3.9164526,6.05961 4.1851112,6.78976 0.5160702,1.40256 0.7333425,1.72822 3.3903409,5.08187 2.585583,3.2635 3.620314,4.72755 3.932564,5.56419 0.157781,0.42244 0.78802,1.25248 1.400762,1.84443 0.612737,0.59195 1.695175,2.10213 2.405407,3.35592 1.728019,3.05053 2.700705,4.40081 4.593626,6.37687 0.873976,0.91234 1.686462,1.92355 1.805503,2.24707 0.119054,0.32357 0.681803,1.01897 1.250566,1.54538 0.568764,0.5264 1.16171,1.30388 1.317662,1.72771 0.155958,0.42386 0.565731,0.96946 0.91062,1.21249 0.344892,0.24302 0.969748,1.08294 1.388581,1.86651 0.418835,0.78357 1.139476,1.89936 1.60143,2.47953 0.461955,0.58017 1.459788,2.05428 2.217408,3.2758 0.757623,1.22152 2.276609,3.57794 3.375525,5.23649 2.927492,4.41835 5.920435,11.29008 5.055883,11.60819 -0.129604,0.0477 -1.018768,-0.8143 -1.975917,-1.91552 z M -28.990304,329.44996 c 0.25671,-0.94146 0.183983,-1.44247 -0.379382,-2.61361 -1.685492,-3.50382 -4.878682,-3.20848 -4.552811,0.4211 0.31835,3.54586 4.104275,5.22882 4.932193,2.19251 z m -9.493929,-57.84856 c 2.664225,-2.83241 2.574,-4.39399 -0.540637,-9.35697 -1.886175,-3.00551 -2.828022,-3.90404 -4.357312,-4.15695 -1.279262,-0.21157 -3.386263,1.01759 -4.206062,2.45368 -1.032765,1.80914 -0.923622,2.92896 0.720378,7.39119 1.570122,4.26172 2.535726,5.92871 3.536857,6.10595 1.249733,0.22126 3.330533,-0.82494 4.846776,-2.4369 z m 20.348485,-12.79005 c 2.876322,-1.90727 5.614884,-3.82544 6.085691,-4.2626 1.274058,-1.18299 1.034321,-2.10204 -1.215448,-4.65949 -2.903681,-3.30079 -4.531344,-4.53819 -6.238316,-4.74257 -1.360641,-0.16293 -1.790865,-0.044 -5.64473,1.55974 -4.629673,1.92663 -7.067407,3.20472 -7.372685,3.86544 -0.286989,0.62113 0.109186,1.48715 1.948435,4.25924 4.390806,6.61776 5.649255,8.02132 6.8093,7.59448 0.218941,-0.0806 2.751434,-1.70696 5.627753,-3.61424 z M 367.30548,785.10189 c -0.15938,-0.20322 -1.3513,-2.35721 -2.64869,-4.78665 -1.29738,-2.42943 -3.61551,-6.63494 -5.15138,-9.34556 -1.53588,-2.71065 -2.75238,-5.01525 -2.70335,-5.12137 0.0491,-0.10617 48.12174,-17.9944 106.82824,-39.75173 110.1191,-40.81148 128.44446,-47.72397 128.85048,-48.6036 0.71194,-1.54236 -26.43416,-76.40782 -128.53189,-354.47463 L 376.20944,84.056805 374.35061,81.873964 c -1.98445,-2.330408 -2.8678,-2.962807 -4.16135,-2.979107 -2.07795,-0.02619 -9.06262,1.637083 -15.4028,3.667919 -14.52782,4.653401 -46.27649,16.840116 -53.88283,20.682894 -4.86111,2.45586 -15.13658,6.22098 -22.58439,8.27527 -3.23319,0.89182 -9.40025,2.89247 -13.70461,4.44589 -8.66603,3.1275 -9.59172,3.64612 -11.45075,6.4148 -1.26977,1.89106 -1.25016,3.12735 0.10409,6.56207 1.05163,2.66723 1.09158,2.90266 0.6512,3.85484 -0.80511,1.74126 -3.12343,2.73725 -29.7286,12.77183 -23.97585,9.04291 -27.05828,10.32886 -24.93658,10.40319 0.76883,0.0269 13.29274,-4.19753 39.0866,-13.18439 21.74607,-7.57656 28.68494,-9.78328 34.44633,-10.95468 11.58124,-2.3547 18.42578,-2.4129 23.83512,-0.20271 2.7223,1.11231 4.11649,2.22843 6.08616,4.87227 0.82241,1.10392 1.66913,2.11479 1.8816,2.24638 0.61173,0.37892 6.48915,0.54685 7.06214,0.2018 0.41989,-0.25285 0.414,-0.71072 -0.0313,-2.42692 -0.30187,-1.16338 -0.4596,-2.50076 -0.35055,-2.97196 0.24887,-1.07517 1.86121,-2.72169 4.53745,-4.63362 l 2.07373,-1.48151 2.87374,0.03 c 1.58056,0.0165 3.04021,-0.1157 3.24368,-0.29379 0.21685,-0.1898 0.22058,-0.73188 0.009,-1.30987 -0.56515,-1.54463 -0.60553,-3.36504 -0.0932,-4.22308 0.25766,-0.43153 0.56737,-1.22986 0.6882,-1.77405 0.18496,-0.83293 1.00577,-1.60624 5.18936,-4.88903 9.53065,-7.47855 12.03172,-8.8104 16.51472,-8.79429 4.49602,0.0162 17.84591,1.2753 18.75982,1.76942 1.7507,0.9465 1.6421,2.70083 -0.24729,3.99529 -2.56289,1.7559 -15.3875,11.24757 -15.53018,11.49412 -0.0844,0.1459 0.92518,3.622 2.2436,7.72466 5.92485,18.43689 10.23914,32.91124 10.31374,34.60225 0.0301,0.68358 -0.22021,1.30198 -0.71016,1.7541 -0.66008,0.60913 -1.07165,0.69807 -3.22384,0.69659 -4.03233,-0.003 -7.38908,-0.58314 -8.25175,-1.42672 -0.65168,-0.63722 -1.1643,-2.00499 -3.59384,-9.58883 -1.55858,-4.86507 -3.78458,-12.02252 -4.94666,-15.90546 -1.84913,-6.17846 -2.18777,-7.09446 -2.7126,-7.33688 -0.5256,-0.24284 -0.70405,-0.17003 -1.44568,0.5899 -1.12985,1.15763 -1.5461,-0.47629 7.00979,27.51508 2.31875,7.58594 4.29538,14.25202 4.3925,14.81352 0.19228,1.11149 -0.16616,2.00578 -1.08198,2.69926 -1.04176,0.78886 -10.07278,0.17547 -11.44409,-0.77731 -0.99485,-0.69119 -1.81378,-3.03289 -6.00123,-17.16066 -1.9296,-6.51014 -3.86733,-12.81696 -4.30607,-14.01517 l -0.79738,-2.17867 -0.84355,0.31039 c -1.63729,0.60244 -1.69348,1.12364 -0.55528,5.15257 0.57528,2.03648 3.01134,10.11443 5.41345,17.951 6.31883,20.61448 6.44146,21.18203 4.81554,22.29076 -0.7695,0.52473 -5.48875,0.47877 -10.24732,-0.0998 -2.59294,-0.31524 -3.31042,-0.54069 -3.96533,-1.24602 -0.99799,-1.07483 -0.91357,-0.60269 -3.4211,-19.13325 -1.08009,-7.98173 -2.10602,-14.67478 -2.27991,-14.87342 -0.37038,-0.42317 -1.30072,-0.14411 -1.94857,0.58445 -0.58232,0.65487 -0.7104,-0.61906 2.4455,24.32827 1.51746,11.99551 2.58476,21.6356 2.43728,22.01442 -0.66699,1.71334 -2.26685,1.90079 -10.38961,1.21727 -4.26884,-0.3592 -5.20571,-0.70603 -5.72585,-2.11964 -0.49704,-1.35083 -0.28215,-2.60238 2.74594,-15.99332 3.7636,-16.64338 3.57293,-15.42423 2.49051,-15.92436 -1.07729,-0.49776 -1.50618,0.18862 -2.22715,3.56432 -1.08972,5.10224 -5.67801,25.25337 -8.05615,35.38152 -2.59793,11.06416 -2.49859,10.92846 -7.51439,10.26456 -2.67254,-0.35374 -16.78245,-2.76013 -18.93357,-3.22905 -4.11375,-0.89674 -4.38718,-1.87285 -2.44913,-8.74282 4.2101,-14.92388 10.90653,-36.46413 12.42223,-39.9583 0.75853,-1.74868 0.94536,-2.52383 0.62408,-2.58929 -0.72295,-0.14731 -23.63426,7.14801 -71.6901,22.82727 -13.47853,4.39766 -28.00169,9.13014 -32.27371,10.51662 -4.27201,1.38649 -14.43994,4.81967 -22.5954,7.6293 -49.22042,16.95691 -50.47741,17.36562 -56.317981,18.31264 -8.72297,1.41435 -13.507176,1.36693 -17.525402,-0.17372 -2.873745,-1.10184 -3.726397,-2.03445 -5.023209,-5.49427 -0.928374,-2.47677 -1.044707,-3.10599 -0.895316,-4.8426 0.381324,-4.43346 2.341969,-10.04917 4.84339,-13.87252 2.111059,-3.22667 5.029867,-5.24827 22.463128,-15.55814 6.93068,-4.09874 11.32674,-6.99673 12.41045,-8.18129 1.15062,-1.25767 0.45529,-1.88046 -2.72071,-2.43688 l -2.77873,-0.48682 -57.883901,20.95775 c -57.2431633,20.72576 -67.147181,24.4436 -67.800394,25.45133 -0.246576,0.38039 -0.06245,1.40796 0.712276,3.97518 l 1.044806,3.46217 -1.080687,-0.91331 c -4.310239,-3.64269 -9.172171,-5.90698 -13.753498,-6.40525 -3.875062,-0.42147 -12.344406,1.11903 -16.427116,2.98794 l -2.486177,1.13807 -2.270941,-6.62871 c -1.249021,-3.6458 -3.720617,-10.88743 -5.492446,-16.09251 l -3.22151,-9.46379 0.271667,-2.30907 c 0.750874,-6.3822 4.228655,-12.01857 10.726056,-17.38352 4.49016,-3.70756 4.995582,-3.93496 25.648716,-11.53951 26.879573,-9.89713 102.081464,-36.88873 108.818343,-39.05726 6.532647,-2.1028 7.346243,-2.13906 8.002081,-0.35664 0.450549,1.22449 0.441689,1.24066 -5.819517,10.6106 -6.176823,9.24367 -7.311768,11.38725 -8.988816,16.97728 -2.104755,7.01563 -2.526376,9.9333 -1.792266,12.4025 0.874721,2.94214 2.145496,4.7218 4.145017,5.80491 5.848322,3.16793 16.758003,2.63705 24.239457,-1.17951 5.8089,-2.96333 8.78128,-5.72008 10.42399,-9.66772 1.64148,-3.94473 1.33203,-5.55964 -4.2978,-22.42852 -4.48253,-13.43118 -4.85207,-15.20012 -3.85266,-18.44211 0.62532,-2.02845 2.37792,-4.1457 8.25683,-9.97478 7.95091,-7.883517 12.6952,-13.025565 14.29844,-15.497206 1.70872,-2.634243 3.51692,-6.821413 3.92282,-9.083861 0.29476,-1.642986 0.27035,-1.743837 -1.83964,-7.599478 -2.10964,-5.854567 -2.13504,-5.959502 -1.88924,-7.802347 0.33067,-2.479566 2.13001,-6.668752 3.56974,-8.310962 1.46015,-1.665517 4.62698,-3.954722 7.11981,-5.14669 1.70796,-0.816677 2.01548,-0.873133 2.79474,-0.51308 1.54971,0.716032 1.46517,1.413706 -0.73491,6.06479 -2.65144,5.605262 -2.978,7.819957 -1.74695,11.847501 0.92639,3.030817 1.964,4.709506 3.40761,5.512942 0.79674,0.443424 1.50757,0.436862 4.19991,-0.03877 3.70365,-0.654292 5.4099,-0.593187 6.52467,0.23367 1.46524,1.08679 2.00615,2.123128 2.09911,4.021598 0.0476,0.971311 0.20768,1.822025 0.35582,1.890473 0.14815,0.06844 1.27073,-0.440393 2.49466,-1.130738 3.06751,-1.730227 4.8757,-1.828618 6.06622,-0.330083 0.38566,0.485438 0.88394,0.815377 1.10729,0.733196 0.22335,-0.08218 2.18583,-1.909693 4.36107,-4.06114 l 3.95499,-3.911719 3.74467,-1.563915 c 2.05955,-0.860144 3.80787,-1.701479 3.88512,-1.869624 0.19891,-0.432967 -0.91582,-1.748723 -5.1038,-6.024283 -3.5565,-3.630842 -4.70971,-4.450592 -5.07523,-3.607633 -0.0946,0.218117 0.15456,1.941652 0.55363,3.830075 0.86607,4.098183 0.69424,5.400295 -0.93558,7.089937 -1.62453,1.684143 -5.26805,3.071892 -6.84491,2.607103 -2.03492,-0.599812 -2.92364,-2.052115 -6.70944,-10.964241 -2.97194,-6.996203 -3.59732,-8.263784 -4.55607,-9.234782 -0.61121,-0.619019 -1.29959,-1.628061 -1.52972,-2.242321 -0.56291,-1.503788 0.0281,-2.235759 3.06045,-3.78859 3.3695,-1.725468 3.23025,-1.489328 2.16426,-3.670017 -1.08198,-2.213412 -0.9823,-2.890336 0.50623,-3.43804 0.81682,-0.300549 1.5971,-0.139038 4.18426,0.86609 1.74911,0.679542 4.46401,1.892819 6.0331,2.69617 7.19304,3.682716 30.04635,14.956998 34.68421,17.110824 8.49806,3.946534 17.39513,7.128481 22.85128,8.172534 l 1.95718,0.374513 8.15616,-3.317403 c 10.70378,-4.353617 79.92198,-29.819487 97.87043,-36.007272 19.86822,-6.84959 26.51971,-8.698065 33.90785,-9.423154 8.57742,-0.841801 12.34199,-0.316619 15.14577,2.112931 2.93738,2.545282 8.59257,10.331685 12.68932,17.471397 3.58096,6.240739 5.99794,12.091712 9.44515,22.864464 6.75188,21.099973 169.64334,462.922191 172.38656,467.576411 0.85561,1.45167 1.68137,3.77774 4.06842,11.46006 4.22949,13.61188 8.74191,26.89597 18.78943,55.31428 19.11875,54.0752 23.93442,68.7155 24.50019,74.48393 0.72466,7.38818 -2.885,15.07234 -9.60427,20.44543 -6.38552,5.10619 -9.98327,6.71002 -33.61579,14.98557 -10.95483,3.83612 -30.30831,10.99336 -54.92452,20.31203 -20.90518,7.91384 -65.17469,24.47282 -98.37673,36.79773 -51.51371,19.12234 -60.40982,22.35471 -60.65713,22.03939 z M 287.47425,164.12924 c -0.18238,-1.70325 -0.53735,-1.85451 -2.97431,-1.26742 -1.25122,0.30144 -2.45476,0.70545 -2.67453,0.89779 -0.80343,0.70321 0.19173,1.27793 2.424,1.39989 2.80989,0.15353 3.33366,-0.0138 3.22483,-1.03029 z M 255.3764,111.31232 c 2.85363,-1.48811 5.63204,-4.53077 7.47493,-8.18592 0.80182,-1.59026 1.53955,-3.465345 1.63941,-4.166841 0.17637,-1.238762 0.14767,-1.319905 -0.99748,-2.820107 -1.60611,-2.104076 -6.96621,-7.107529 -9.36987,-8.746443 -3.85001,-2.62511 -12.63757,-6.577356 -20.45642,-9.200364 -3.67647,-1.233355 -21.51593,-5.545842 -22.08115,-5.337869 -0.74652,0.274681 -0.26391,0.914823 2.68512,3.561574 3.44145,3.088736 5.86789,5.915503 7.69778,8.967971 2.42349,4.042542 2.68883,5.170675 2.52633,10.740547 l -0.14404,4.937002 1.3285,3.61057 c 1.28913,3.50356 1.38167,3.66123 3.12323,5.31868 3.89278,3.70482 11.09656,5.80649 16.83754,4.91231 1.646,-0.25637 7.43816,-2.39278 9.73621,-3.59095 z m -7.77582,-5.44486 c -3.96606,0.40243 -7.69306,-0.93446 -9.18558,-3.29493 -1.65029,-2.609952 -1.39179,-5.780773 0.8316,-10.199717 1.83616,-3.649345 3.39661,-4.393546 8.15112,-3.887381 3.13873,0.334153 5.82475,1.56024 8.04226,3.671106 3.72999,3.550502 3.76262,7.885482 0.0796,10.566572 -1.61765,1.17757 -6.10821,2.96062 -7.91896,3.14435 z m -92.45139,16.62816 c 0.48383,-0.72757 -0.0373,-1.70215 -0.83992,-1.57072 -0.65291,0.10693 -1.61765,1.76545 -1.38877,2.38749 0.19109,0.51935 1.71046,-0.0375 2.22866,-0.81684 z m 3.19028,-36.033309 c 0.004,-0.300891 -0.37828,-0.724519 -0.8814,-0.976318 -0.48881,-0.244647 -1.01193,-0.773189 -1.16248,-1.174548 -0.57632,-1.536489 -0.97703,-1.533824 -2.9489,0.01958 -0.99087,0.78058 -2.02773,1.500231 -2.30416,1.599225 -1.66579,0.596558 -1.5582,1.534937 0.23953,2.08913 1.84834,0.569792 2.73175,0.517699 5.00649,-0.295236 1.58062,-0.564879 2.04524,-0.850721 2.05092,-1.26183 z M 272.30783,819.38201 c -73.17755,25.66389 -70.57613,24.83552 -77.21918,24.58858 -8.43421,-0.3135 -15.16685,-3.72889 -19.06368,-9.67074 -2.56446,-3.91026 -6.74929,-14.41708 -29.22985,-73.38718 -27.6847,-72.6214 -104.496641,-280.0207 -103.802446,-280.27613 0.162739,-0.0599 0.344859,0.0242 0.40473,0.18694 0.05986,0.16268 0.776194,0.82086 1.591842,1.46258 0.815652,0.64173 3.304696,2.98877 5.531201,5.21562 2.226516,2.22688 5.09197,5.04575 6.36769,6.26417 2.165887,2.06861 6.56147,6.82408 10.465671,11.32253 2.668613,3.0748 5.481411,7.56883 6.983306,11.15728 2.275546,5.43692 4.358617,7.8946 7.829694,9.23775 2.371288,0.9176 3.738685,1.0138 6.543669,0.46033 l 2.31964,-0.45767 13.415143,36.68478 c 7.37833,20.17662 31.52162,86.25771 53.65177,146.84687 24.52392,67.14299 40.45257,110.41555 40.78963,110.81108 1.04675,1.22843 2.89115,2.30134 3.92567,2.28359 0.71431,-0.0122 13.62387,-4.64923 41.5217,-14.91421 l 40.4851,-14.89645 1.44724,1.93955 c 3.40015,4.55677 11.44197,14.42941 12.39432,15.21604 0.57577,0.47559 0.38044,0.54913 -26.35284,9.92468 z m -66.14396,-4.70644 c -0.63797,0.002 -1.58329,-0.27334 -2.1007,-0.61243 l -0.94074,-0.61653 -45.39833,-123.1555 c -24.96909,-67.73553 -47.65798,-129.6124 -50.41979,-137.50415 -4.96086,-14.1755 -5.01914,-14.36819 -4.82926,-15.96869 l 0.1922,-1.62003 -1.2257,-1.40944 c -0.67414,-0.77517 -1.24668,-1.46622 -1.27231,-1.53562 -0.0256,-0.0694 0.98251,0.41308 2.24031,1.07218 1.25781,0.65913 2.87364,1.34706 3.59075,1.52876 1.18914,0.30131 1.3815,0.48926 2.18677,2.13659 1.25789,2.57326 5.62069,9.72904 9.18817,15.07026 2.56206,3.83592 3.03356,4.70009 2.93791,5.38467 -0.0881,0.63026 1.68472,5.5559 7.80621,21.68942 6.79902,17.9192 8.00709,20.91438 8.53436,21.15944 0.48355,0.22474 1.67871,-0.0805 5.61732,-1.43468 l 5.00308,-1.72014 0.56923,0.65442 c 0.31307,0.35991 2.13874,3.08621 4.05703,6.05839 1.91827,2.9722 4.13584,6.30568 4.9279,7.4077 0.79205,1.10202 1.40325,2.08346 1.3582,2.18096 -0.0451,0.0976 -3.24002,1.42156 -7.09992,2.94233 -4.90724,1.93345 -7.13048,2.93417 -7.39195,3.32737 -0.34885,0.52457 0.58928,3.18228 13.98291,39.61357 7.89626,21.47817 14.51093,39.12273 14.69927,39.21011 0.18833,0.0874 8.23843,-2.70454 17.88909,-6.20424 l 17.54669,-6.36305 1.3441,1.79906 c 0.73927,0.98949 2.47956,3.56632 3.86733,5.7263 1.38777,2.15999 3.029,4.54815 3.64718,5.30703 0.61819,0.75888 1.39414,1.84299 1.72435,2.40917 l 0.60037,1.02938 -2.11575,0.99589 c -1.16366,0.54775 -9.95187,3.95448 -19.52936,7.57046 -14.56328,5.49841 -17.44592,6.66584 -17.61099,7.13226 -0.25705,0.72638 15.14404,43.55612 22.17277,61.66143 4.89414,12.60684 4.96419,12.76444 5.72221,12.87322 0.55806,0.0801 8.90464,-2.84195 30.59664,-10.71142 l 29.82925,-10.82152 1.0763,1.51988 c 0.59198,0.83593 2.04768,2.69685 3.23489,4.13537 1.82218,2.2079 5.7694,7.30664 7.20909,9.31222 0.39925,0.55618 0.31441,0.59994 -6.33302,3.26791 -3.70573,1.48729 -12.82743,4.95599 -20.27044,7.70824 -12.70755,4.69896 -36.60442,13.95782 -42.85101,16.60272 -1.81794,0.76971 -3.21035,1.18764 -3.96259,1.19077 z m 159.8357,-509.35012 c 5.58683,-2.14539 22.44266,-8.53112 37.45741,-14.19036 l 1.6e-4,4.6e-4 c 15.01478,-5.65929 27.37068,-10.44377 27.45756,-10.63214 0.0869,-0.18842 -5.63102,-16.07133 -12.70648,-35.29538 -12.01565,-32.64707 -12.91107,-34.97433 -13.57077,-35.27914 -0.6645,-0.30703 -5.20295,1.33195 -76.74681,27.71585 l -212.56432,77.63587 -47.189445,17.15734 -3.335783,-5.08063 c -1.834687,-2.79434 -3.378352,-5.18004 -3.430362,-5.30156 -0.238163,-0.55634 330.40522,-121.54369 342.94354,-125.4882 4.38258,-1.37874 4.53137,-1.40221 5.63964,-0.88983 l 1.13831,0.52625 9.05329,24.02464 c 4.97931,13.21354 44.53658,120.17237 87.90504,237.68627 71.42702,193.54313 78.84179,213.77121 78.74615,214.82534 -0.0581,0.64001 -0.3378,1.47094 -0.62164,1.84648 -0.63743,0.84342 -6.00066,3.04292 -7.48087,3.06792 l -2.5e-4,-1.7e-4 c -0.69634,0.0118 -36.30196,12.92828 -113.01844,40.99929 -74.01619,27.08292 -112.13541,40.91558 -112.39562,40.78601 -0.51532,-0.25662 -1.61521,-2.02546 -5.60771,-9.01831 -1.81391,-3.17707 -3.50074,-6.09957 -3.74853,-6.49446 l -0.45053,-0.718 21.45937,-8.14029 c 11.80266,-4.47715 21.63748,-8.34062 21.85518,-8.58541 l 23.56794,-8.23803 c 0,0 39.48748,-14.30692 81.95571,-29.98503 73.66373,-27.19464 77.23049,-28.53936 77.55383,-29.23921 0.32161,-0.69622 -0.34957,-2.60466 -13.17653,-37.46538 -11.20296,-30.44703 -13.61582,-36.79006 -14.10229,-37.07209 -0.51872,-0.30082 -1.95767,0.14509 -12.39606,3.84127 -26.39314,9.34574 -112.6839,40.67666 -170.36047,61.85539 l -61.34869,22.52716 -0.40167,-0.6194 c -0.22093,-0.34067 -1.84341,-2.85081 -3.60552,-5.57809 -1.76213,-2.72727 -3.92482,-5.89046 -4.80599,-7.02932 -0.88118,-1.13886 -1.66693,-2.24675 -1.74613,-2.46198 -0.11778,-0.32011 14.83306,-5.94568 82.14007,-30.90694 45.25623,-16.78357 82.49515,-30.67166 82.75314,-30.86243 0,0 17.38484,-6.61383 25.02299,-9.13483 0.45008,-0.0482 13.45659,-4.71593 28.9034,-10.37276 26.41266,-9.6727 28.10507,-10.32792 28.41945,-11.0067 0.31568,-0.68121 -0.46367,-2.89076 -13.92905,-39.49099 -13.26881,-36.06156 -14.30839,-38.78235 -14.90787,-38.95392 -1.03248,-0.29554 -30.23357,10.25498 -138.82207,50.15726 -54.35063,19.97205 -105.6029,38.71487 -113.89378,41.65109 l -15.07435,5.33857 -2.86832,-4.4002 c -1.57758,-2.4201 -3.97867,-6.00407 -5.33575,-7.96436 l -2.46742,-3.56416 123.83133,-45.73737 c 68.10721,-25.15555 124.04183,-45.93239 124.29911,-46.17078 l 11.17074,-3.82194 c 0.24173,0.007 3.02838,-0.92738 6.19258,-2.07681 5.00542,-1.81819 5.7828,-2.17423 5.98228,-2.73864 v 10e-6 c 0.19165,-0.54226 -1.82579,-6.21293 -12.29286,-34.55325 -11.01717,-29.82976 -12.59684,-33.93903 -13.14372,-34.19172 -0.54898,-0.25364 -5.98459,1.68078 -46.53945,16.56229 -45.73117,16.78092 -45.91704,16.85187 -45.69693,17.45009 l -32.43801,11.92288 c -0.21466,-0.58342 -1.01543,-0.29741 -82.22601,29.36753 -45.10506,16.4762 -82.15281,29.87772 -82.32834,29.78116 -0.40237,-0.22139 -10.32271,-15.01446 -10.63138,-15.85335 -0.0239,-0.0648 56.5473,-20.9406 125.71373,-46.39045 134.81645,-49.60587 166.37194,-61.38312 167.00061,-62.3285 0.35256,-0.53017 -0.53731,-3.05056 -13.88286,-39.32069 -13.54166,-36.8031 -14.29654,-38.77126 -14.99317,-39.09317 -0.70205,-0.3244 -7.44823,2.12753 -156.9934,57.06019 l -156.25982,57.3992 -1.34759,-1.965 c -0.74117,-1.08072 -2.37306,-3.53795 -3.62642,-5.4605 -1.25336,-1.92254 -3.04783,-4.54002 -3.98771,-5.81658 -0.93986,-1.27658 -1.77724,-2.50694 -1.86085,-2.73416 -0.12827,-0.3486 8.80496,-3.73593 57.22708,-21.69944 31.55849,-11.7075 67.67817,-25.19143 80.26596,-29.96429 z M 134.90494,579.34016 c -0.28933,-0.33261 -0.84363,-1.24108 -1.23178,-2.01883 -0.72204,-1.44673 -0.65727,-1.37816 1.03747,1.09857 1.01126,1.4779 1.11767,1.98182 0.19431,0.92026 z m 18.49411,-293.76523 c -1.85747,-0.37806 -2.70597,-1.16826 -3.07957,-2.86798 -0.3033,-1.3799 -0.40832,-1.50027 -2.03734,-2.33495 -1.59129,-0.81536 -1.75493,-0.99606 -2.22604,-2.45825 -0.77348,-2.40061 -0.71398,-2.35503 -2.30869,-1.76826 -0.79718,0.29332 -2.97864,0.93254 -4.84768,1.42051 -5.70869,1.49038 -7.12376,1.41906 -7.79039,-0.39268 -0.31534,-0.85704 -0.20067,-1.24656 0.82663,-2.80785 1.60737,-2.4429 1.4867,-3.12582 -1.8502,-10.47036 -0.81542,-1.79473 -1.56918,-3.29002 -1.67502,-3.32284 -0.10586,-0.0329 -0.62386,-0.14947 -1.15115,-0.25921 -0.72831,-0.15158 -1.18844,-0.57357 -1.91458,-1.75591 -1.13065,-1.84096 -1.16522,-2.77505 -0.14878,-4.02007 0.3768,-0.46155 0.62566,-1.00069 0.55302,-1.19811 -0.0726,-0.19741 -0.86692,-0.45888 -1.76508,-0.58102 -2.26816,-0.30849 -3.46893,-1.19872 -4.1612,-3.08511 -1.76132,-4.79843 2.90846,-8.26848 7.72411,-5.73988 0.8065,0.42349 1.8294,1.28322 2.2731,1.91053 0.77764,1.09946 0.8849,1.54063 1.03354,4.25098 0.0347,0.63326 0.21267,0.71468 1.34077,0.61339 2.54411,-0.22841 3.52826,0.99894 4.5607,5.68777 0.76249,3.46278 0.77385,3.49439 2.27175,6.31337 0.66682,1.25494 1.68574,3.30564 2.26429,4.55711 0.97115,2.10077 1.15406,2.31691 2.38316,2.816 0.7322,0.29733 1.53366,0.8374 1.78102,1.20014 0.28059,0.41147 0.66685,0.57967 1.02695,0.44717 0.90111,-0.33156 0.8009,-0.74591 -0.52238,-2.15977 l -1.22882,-1.31294 -0.056,-2.29115 -0.056,-2.29116 -1.40528,-1.07506 c -3.8582,-2.95161 -4.87078,-8.21343 -2.34468,-12.18399 1.39925,-2.19935 3.60912,-3.64963 7.905,-5.18785 l 3.85037,-1.3787 3.03508,-2.79912 c 3.0068,-2.77302 6.79974,-5.53873 8.4196,-6.13937 1.26979,-0.47041 2.79447,-0.15085 3.5267,0.73995 0.36022,0.43824 0.89314,0.80009 1.18425,0.80411 0.29112,0.004 1.93808,-1.14102 3.6599,-2.54456 3.28447,-2.67731 4.94638,-3.52034 7.34762,-3.72717 1.96619,-0.16936 3.47613,0.42262 5.35574,2.09975 l 1.68508,1.50353 2.51153,6.14107 c 2.36905,5.79267 3.57063,7.98676 3.48489,6.36345 -0.0186,-0.3519 -0.45024,-2.20635 -0.95924,-4.12102 -1.53758,-5.78387 -1.35378,-9.26047 0.69463,-13.13894 1.69063,-3.20107 5.1657,-5.38024 9.40441,-5.89741 1.99119,-0.24294 4.53884,0.0924 5.82598,0.76686 1.13759,0.59607 1.67426,0.29321 1.29703,-0.73201 -0.99648,-2.7082 0.0222,-4.19474 4.04891,-5.90821 2.87169,-1.222 3.35353,-1.2026 4.64396,0.18673 0.42192,0.45425 0.95867,0.75543 1.1928,0.66928 0.23412,-0.0861 1.88718,-1.32178 3.67348,-2.74586 2.90466,-2.31568 3.48497,-2.66055 5.49248,-3.26422 2.77672,-0.83498 4.62011,-0.45064 6.81395,1.42068 1.6527,1.40972 2.51953,3.10312 6.65933,13.00913 l 2.17661,5.20824 1.25133,0.52729 c 0.68828,0.28999 1.44567,0.77766 1.68314,1.08371 0.58264,0.75087 0.52912,2.16919 -0.11391,3.01771 -0.68162,0.89949 -4.36753,2.91215 -7.65725,4.18117 -2.4611,0.94935 -2.65002,0.97294 -3.79216,0.47708 -1.19074,-0.51712 -1.21303,-0.51319 -2.36306,0.41654 -0.63853,0.51622 -3.32262,2.00007 -5.96463,3.29744 -4.53148,2.22518 -4.85872,2.3461 -5.77548,2.1336 -2.2358,-0.51752 -3.01201,-2.96114 -1.56586,-4.92958 l 0.91963,-1.25175 -1.76999,-4.16974 c -0.97348,-2.29336 -2.51987,-5.65001 -3.4364,-7.45923 -1.41286,-2.78901 -1.79857,-3.33448 -2.53501,-3.58516 -0.99915,-0.3401 -2.0684,-0.055 -1.86517,0.49736 0.076,0.20653 0.68659,1.24773 1.35689,2.31377 2.17202,3.4544 2.55262,5.45288 1.28473,6.74603 -0.33691,0.34363 -2.90377,1.86447 -5.70412,3.37963 -2.80034,1.51516 -5.22496,2.98493 -5.38804,3.26614 -0.20889,0.36024 -0.1225,0.80287 0.29238,1.49812 1.02139,1.71162 1.89475,2.26572 3.72629,2.36413 2.76044,0.14833 3.08763,-0.0973 4.32356,-3.24657 1.00689,-2.56558 1.19023,-2.82476 2.28241,-3.22663 0.95015,-0.3496 1.46681,-0.30793 2.58434,0.20841 1.21118,0.55962 1.46925,0.84234 1.94221,2.12772 0.52858,1.43655 0.50507,1.56581 -0.76165,4.18518 -1.53966,3.1838 -2.63829,4.45885 -5.09044,5.90788 -4.01302,2.37138 -8.01663,2.57841 -12.07463,0.6244 -1.28552,-0.61901 -2.47,-1.07664 -2.63219,-1.01696 -0.16218,0.0597 -0.18445,0.67052 -0.0495,1.35743 0.15539,0.79083 0.0494,1.56739 -0.28896,2.11717 -0.62941,1.02266 -4.29086,3.08797 -7.95482,4.48705 -2.27849,0.87001 -2.5238,0.8989 -3.61277,0.42563 -1.34286,-0.58367 -1.53512,-0.54774 -2.50934,0.46895 -0.95155,0.99301 -6.68314,3.77965 -9.90274,4.81458 l -2.57708,0.82842 0.1748,2.05934 c 0.38958,4.58956 -1.24567,6.92507 -7.82138,11.17069 -3.04955,1.96895 -3.96305,2.7286 -5.09121,4.23371 -1.78235,2.37791 -2.44647,2.80103 -3.9243,2.50024 z m 8.93888,-14.57679 c 0.91577,-0.92438 0.54544,-1.74602 -0.92843,-2.05991 -1.69487,-0.36095 -3.96171,0.73013 -5.95445,2.86601 -1.41604,1.51776 -1.65978,2.20383 -0.91189,2.56679 0.48267,0.23425 7.0264,-2.59729 7.79477,-3.37289 z m 7.0505,-10.62379 0.77381,-1.5034 -1.60775,-3.72896 c -1.76252,-4.08796 -4.16549,-9.16951 -4.79617,-10.14247 -0.5003,-0.77182 -1.90664,-0.32069 -3.19344,1.02439 l -0.8619,0.90095 1.04863,2.84994 c 0.939,2.55199 1.01705,3.02445 0.74676,4.51931 -0.33494,1.85226 -1.39715,3.51563 -3.2586,5.10282 -0.67807,0.57816 -1.16596,1.23298 -1.08421,1.45514 0.15833,0.43031 0.67773,0.40089 3.17312,-0.17973 2.09765,-0.48807 4.07022,-0.2702 6.03617,0.66672 0.89207,0.42513 1.7632,0.72025 1.93586,0.65582 0.17261,-0.0645 0.66212,-0.79366 1.08772,-1.62053 z m 14.2495,-5.73662 c 0.65132,-1.80147 0.4165,-3.14874 -1.62849,-9.34313 -1.64269,-4.97578 -1.97203,-5.75367 -2.64836,-6.25532 -1.00524,-0.74561 -2.69678,-0.4791 -3.66309,0.57712 -0.93805,1.02533 -2.03951,3.79449 -1.92705,4.84475 0.0504,0.47019 1.39256,2.96052 3.10244,5.75623 2.90525,4.75019 3.06077,4.94416 4.32195,5.3902 1.6618,0.58776 1.91592,0.48685 2.4426,-0.96983 z m 50.15273,-18.45364 c 0.65133,-1.80148 0.4165,-3.14874 -1.62849,-9.34313 -1.64269,-4.97578 -1.97203,-5.75367 -2.64836,-6.25532 -1.00524,-0.74561 -2.69678,-0.4791 -3.6631,0.57712 -0.95479,1.04365 -2.03877,3.80131 -1.92218,4.89012 0.0563,0.5257 1.25175,2.76829 2.99923,5.62634 2.59588,4.24563 3.03926,4.81905 4.15908,5.37874 1.59395,0.79669 2.16675,0.61156 2.70382,-0.87387 z m -37.98047,13.90021 c -0.27662,-0.72572 -1.84465,-2.63829 -2.35589,-2.87452 -0.41668,-0.19252 -0.54437,-0.13014 -0.65323,0.3191 -0.19749,0.81503 0.91675,2.80365 1.69587,3.02667 0.85206,0.24391 1.49783,0.0122 1.31324,-0.47127 z m -42.67965,4.5684 c 0.78669,-1.027 -1.98217,-3.05276 -3.43961,-2.5165 -1.72748,0.63563 -3.43722,3.06472 -2.72771,3.87535 0.1858,0.21226 0.83065,0.35047 1.43301,0.3071 1.40802,-0.10137 4.32103,-1.12642 4.73432,-1.66591 z m 51.47699,-22.37438 c 1.09663,-0.76578 0.63026,-1.666 -1.25575,-2.42397 -2.08861,-0.83941 -2.94661,-0.40854 -4.31371,2.16625 -0.89744,1.69023 -1.02238,2.60705 -0.39477,2.89703 0.30121,0.13917 4.89899,-1.89549 5.96423,-2.63931 z m -87.14523,53.76291 c -0.92027,0.0948 -2.24973,0.0548 -2.95436,-0.0888 -1.95056,-0.39743 -5.7501,-2.38383 -7.27805,-3.80499 -0.7507,-0.69822 -1.56109,-1.19732 -1.80085,-1.1091 -0.23978,0.0882 -0.70336,1.07761 -1.03018,2.19863 -0.80262,2.75298 -2.26683,5.40372 -3.91312,7.08416 -1.072146,1.09439 -1.812825,1.5554 -3.467971,2.15849 -1.86218,0.6788 -2.408486,0.72539 -4.743015,0.40657 -3.171027,-0.43305 -4.749168,-1.10943 -5.711885,-2.44808 -0.997745,-1.38735 -1.128215,-1.79383 -2.529742,-7.88123 -0.68206,-2.96247 -1.39216,-5.56004 -1.578001,-5.77236 -0.185842,-0.21233 -1.07238,-0.29962 -1.970076,-0.194 -0.897696,0.10563 -1.962487,0.019 -2.3662,-0.19257 -0.40371,-0.21153 -0.983355,-0.29288 -1.2881,-0.18075 -0.503705,0.18534 -0.449459,0.48321 0.596476,3.27552 0.632803,1.6894 1.991751,5.02136 3.019857,7.40435 l 1.869285,4.33271 1.264519,0.53283 c 0.695484,0.29304 1.372018,0.77694 1.50339,1.07531 1.121576,2.54713 0.448124,3.32446 -5.37125,6.19979 -3.646621,1.80179 -4.858309,2.07735 -6.194302,1.40871 -1.030193,-0.51559 -1.823329,-0.40748 -2.146815,0.29264 -0.19316,0.41806 -4.374313,2.69723 -8.689667,4.73681 -1.933811,0.91399 -2.410555,1.02963 -3.457324,0.83865 -1.057257,-0.1929 -1.613478,-0.0544 -4.303374,1.07174 l -3.089184,1.29329 -1.551244,-2.13087 c -1.9289,-2.64963 -1.958176,-2.73302 -1.404778,-4.00146 0.249079,-0.57088 0.66492,-2.49682 0.924086,-4.27988 0.504911,-3.47378 1.093478,-4.57517 2.526912,-4.72866 1.410858,-0.15107 2.004296,0.61954 3.401669,4.41728 1.13348,3.08053 1.330693,3.4387 1.847485,3.35482 1.151706,-0.18693 1.230875,-1.01204 0.331591,-3.45608 -0.888458,-2.41462 -4.989277,-11.14066 -5.674859,-12.0754 -0.216629,-0.29537 -1.180915,-0.87174 -2.142843,-1.28083 -2.019272,-0.85875 -3.003654,-2.15192 -2.858206,-3.75477 0.115773,-1.27582 1.297742,-2.50402 3.790345,-3.93861 2.412092,-1.38825 3.565002,-1.39688 5.093396,-0.0381 0.557402,0.49553 1.167896,0.84454 1.35667,0.7756 0.188718,-0.0691 1.778777,-1.26734 3.533338,-2.66307 5.644395,-4.49004 9.007694,-4.92292 12.693963,-1.63377 0.906761,0.80907 1.839964,1.40064 2.073797,1.3146 0.233834,-0.086 0.48171,-0.60768 0.550832,-1.1592 0.159211,-1.27047 1.085991,-2.19432 3.223887,-3.21375 1.949553,-0.92961 2.202495,-1.49874 1.700029,-3.82498 -0.474283,-2.19573 -0.02302,-2.78856 2.989311,-3.92708 2.232607,-0.84387 2.623761,-0.90244 3.511301,-0.52605 1.232084,0.52249 1.756894,1.38211 2.325378,3.80889 0.569856,2.43268 0.951626,2.7531 2.815383,2.36317 3.293044,-0.68897 5.099175,0.23167 4.998678,2.54794 -0.0778,1.79317 -0.560345,2.31497 -2.865308,3.09838 -1.134304,0.38551 -2.340501,0.71355 -2.680459,0.72894 -1.661225,0.0752 -1.631516,1.81415 0.13035,7.62944 1.060887,3.50164 1.091045,3.55965 1.97167,3.79244 0.491858,0.13003 1.106366,0.15838 1.365576,0.063 0.502194,-0.18478 1.564393,-2.45578 2.537733,-5.42574 0.71483,-2.18117 1.829496,-3.20791 3.647096,-3.35944 1.63866,-0.13662 1.92078,-0.67553 1.2784,-2.44177 -0.71845,-1.97576 -1.17198,-5.48988 -0.99883,-7.74122 0.0891,-1.15807 0.62659,-2.96015 1.34987,-4.52554 1.02172,-2.21132 1.47304,-2.80826 3.01124,-3.98282 0.99516,-0.75991 2.51588,-1.6416 3.37939,-1.95933 6.60559,-2.43052 11.67143,-0.14488 14.77725,6.66732 1.04716,2.29679 1.06566,3.44719 0.0719,4.46861 -0.33621,0.34554 -2.88422,1.84841 -5.66226,3.33969 -2.77805,1.49128 -5.15652,2.8461 -5.28549,3.01071 -0.34871,0.44501 0.5386,2.59661 1.39331,3.37856 0.47391,0.43357 1.37807,0.71636 2.47967,0.77555 2.7854,0.14968 3.08174,-0.0816 4.42696,-3.4551 1.24904,-3.1323 1.62438,-3.50053 3.34795,-3.28453 2.6413,0.33102 3.99585,2.39636 3.26436,4.97732 -0.63585,2.24348 -1.98973,4.60007 -3.5103,6.11007 -1.65333,1.64183 -5.28791,3.283 -7.85626,3.54743 z m -45.241522,9.59233 c 0.668719,-1.84958 0.425426,-3.23123 -1.670707,-9.4877 l -1.948495,-5.81584 -1.064362,-0.49178 c -0.655124,-0.30269 -1.398679,-0.36877 -1.933898,-0.17183 -1.489519,0.54806 -3.436627,4.04317 -3.24571,5.82613 0.131985,1.23266 6.007386,10.60713 6.718838,10.72021 0.333623,0.053 0.919934,0.27174 1.30292,0.48603 0.962104,0.53833 1.340861,0.31922 1.841414,-1.06522 z m 43.794112,-30.75609 c 0.39375,-0.27598 0.62161,-0.74326 0.54385,-1.11533 -0.18175,-0.86975 -3.11339,-2.04013 -4.15249,-1.6578 -1.05455,0.38802 -3.10879,4.54257 -2.55753,5.17241 0.33737,0.38544 0.68699,0.29691 2.93574,-0.74339 1.40402,-0.64951 2.85771,-1.39467 3.23043,-1.65589 z m 137.5923,-28.81316 c -1.27051,0.0637 -2.71375,-0.56695 -3.99171,-1.74437 -0.79745,-0.73473 -1.15706,-1.37204 -1.55618,-2.75823 -0.46034,-1.59862 -0.4362,-1.9879 0.21328,-3.43866 0.62473,-1.39551 0.65007,-1.69205 0.17224,-2.01765 -1.09681,-0.74745 -1.77234,-1.67884 -2.97194,-4.09745 -0.6686,-1.34804 -2.42076,-4.84618 -3.89372,-7.77362 -1.47295,-2.92744 -3.27823,-6.89318 -4.01177,-8.81273 -1.50888,-3.94875 -1.48771,-4.74504 0.17477,-6.56749 1.1485,-1.25902 3.6883,-2.46895 4.84904,-2.31002 1.35669,0.18575 2.22964,1.67075 5.50852,9.37072 l 2.99548,7.03444 0.50244,4.75925 c 0.48725,4.61544 0.43841,6.19291 -0.21677,7.00145 -0.55809,0.68869 -0.055,1.19907 2.21642,2.24856 1.85228,0.85584 2.3474,1.25115 2.95471,2.3591 1.74246,3.17877 0.25519,6.58617 -2.94481,6.7467 z M 43.709189,294.94289 c -0.773692,-0.064 -1.625746,-0.25189 -1.893441,-0.41753 -0.267704,-0.16564 -1.505308,-1.80601 -2.750247,-3.64525 l -2.263508,-3.34408 0.861803,-0.3171 c 0.687592,-0.253 0.929349,-0.6349 1.19596,-1.8892 0.413316,-1.94442 0.795409,-2.5695 1.806668,-2.95549 1.816451,-0.69329 2.825496,0.34699 5.963909,6.14861 1.386,2.56216 1.540652,3.67474 0.673316,4.84409 -0.877325,1.18282 -2.062945,1.70263 -3.59446,1.57595 z m -1.446775,-16.07314 c -0.570583,-0.0735 -1.715053,-0.40599 -2.543258,-0.73884 -2.480231,-0.99679 -2.718121,-0.97355 -5.798387,0.5665 -1.523059,0.76147 -2.805164,1.35621 -2.849113,1.32161 -0.103316,-0.0813 -1.387996,-1.75247 -2.946725,-3.83317 l -1.23169,-1.64413 4.284579,-1.82425 c 5.769188,-2.45634 10.560404,-3.86896 11.574879,-3.41256 0.902477,0.40599 3.484897,4.17074 3.596934,5.24375 0.130621,1.25102 -0.237492,2.31422 -1.109369,3.20415 -1.030958,1.05228 -1.656999,1.28711 -2.977864,1.1169 z m 322.257466,-121.9493 -1.11025,-0.41731 -1.70461,-4.85107 c -1.74382,-4.96286 -7.1441,-22.84465 -7.60052,-25.16775 -0.36489,-1.85704 0.2915,-2.95493 2.97937,-4.98346 6.61935,-4.99556 8.79593,-5.6207 11.54482,-3.31578 1.12116,0.94005 1.22838,1.1687 3.5576,7.58702 5.70857,15.73001 5.78962,20.77615 0.42016,26.14548 -1.52814,1.52811 -5.97761,5.0527 -6.72636,5.3282 -0.13748,0.0506 -0.7496,-0.0958 -1.36021,-0.32533 z m -269.882509,2.59671 c -4.006151,0.59395 -10.271079,-1.3515 -11.915998,-3.70026 -1.122628,-1.60301 -1.22781,-3.42118 -0.324284,-5.60594 1.354241,-3.27464 3.976132,-5.15606 7.857006,-5.63802 4.073105,-0.50584 6.070372,0.11028 8.590741,2.65015 2.121054,2.13744 3.428824,5.1628 3.104214,7.18121 -0.14339,0.89157 -0.58573,1.83126 -1.11757,2.37411 -1.040685,1.06222 -4.145482,2.43502 -6.194109,2.73875 z M 121.49372,86.585056 c -2.33094,-0.07585 -3.19449,-2.685387 -3.422,-10.340819 -0.31804,-10.701712 2.39373,-20.600108 5.74883,-20.984143 1.23981,-0.141914 2.44129,0.501443 3.30905,1.771878 1.14601,1.677826 1.17417,3.425394 0.18644,11.586142 -1.30665,10.796076 -2.46983,15.674983 -4.09736,17.186188 -0.46161,0.428625 -0.88059,0.784787 -0.93104,0.79146 -0.0505,0.0067 -0.40772,0.0019 -0.79392,-0.01071 z"
       id="path22"
       inkscape:connector-curvature="0"
       sodipodi:nodetypes="ssssssssssssssssscsscscscssscssssssssssssssssscsssssssssssssssssssssssssssssssssssssssssssssssssssssssssssssssssssssssssssssssssssssssssssssssssssssssssssscsssssssssssssssssssssssssssssssssscsssssscsssssssscssssssssssscsscsssssssssscssssssssssccsssssssssssssssssssssssssssscsssscssscssscsscssssssssssssssssscsssssssssssssscssssssssscssssssscssssssssssssssccsssssscssssssssscsssccsssscssscssccsssssssssssssssssssssscssssscsssssscssscsssssssssscssssssssscsssscsssssscsssssssscccscscccsssscsssssssssscsccsssssscsssssccsscscscsscsccssssssccsssssssscsssssccsssscsssssssscssssscssssssssssscccssscscssssscsssssssssssssscsssscsscscsssssssssssssssssssssssscsssccsssssscssscsssssscsssssssssssssssssssssssssssssssssssscsssscssssssssscscsssssscsssssssssssscsssssssssssssssssscsssssssssssssssssscssssssssssssssssssscssscsssssssscssssssssssscssssssscsssscssssssssssssssssssss" />
  </g>
</svg>
