<?xml version="1.0" encoding="UTF-8" standalone="no"?>
<svg
   xmlns:dc="http://purl.org/dc/elements/1.1/"
   xmlns:cc="http://creativecommons.org/ns#"
   xmlns:rdf="http://www.w3.org/1999/02/22-rdf-syntax-ns#"
   xmlns:svg="http://www.w3.org/2000/svg"
   xmlns="http://www.w3.org/2000/svg"
   xmlns:sodipodi="http://sodipodi.sourceforge.net/DTD/sodipodi-0.dtd"
   xmlns:inkscape="http://www.inkscape.org/namespaces/inkscape"
   version="1.1"
   id="svg10"
   width="787.10034"
   height="864.50684"
   viewBox="0 0 787.10034 864.50683"
   sodipodi:docname="Sammeln.svg"
   inkscape:export-filename="/media/chemo/DATA/Coding/Sammel-App/Sammel-App/sammel_app/assets/images/Sammeln_centered.png"
   inkscape:export-xdpi="111.04597"
   inkscape:export-ydpi="111.04597"
   inkscape:version="1.0.1 (1.0.1+r75)">
  <metadata
     id="metadata16">
    <rdf:RDF>
      <cc:Work
         rdf:about="">
        <dc:format>image/svg+xml</dc:format>
        <dc:type
           rdf:resource="http://purl.org/dc/dcmitype/StillImage" />
        <dc:title></dc:title>
      </cc:Work>
    </rdf:RDF>
  </metadata>
  <defs
     id="defs14" />
  <sodipodi:namedview
     pagecolor="#ffffff"
     bordercolor="#666666"
     borderopacity="1"
     objecttolerance="10"
     gridtolerance="10"
     guidetolerance="10"
     inkscape:pageopacity="0"
     inkscape:pageshadow="2"
     inkscape:window-width="1848"
     inkscape:window-height="1016"
     id="namedview12"
     showgrid="false"
     inkscape:zoom="0.87622754"
     inkscape:cx="396.04467"
     inkscape:cy="453.61635"
     inkscape:window-x="72"
     inkscape:window-y="27"
     inkscape:window-maximized="1"
     inkscape:current-layer="g20"
     inkscape:document-rotation="0"
     fit-margin-top="0"
     fit-margin-left="50"
     fit-margin-right="50"
     fit-margin-bottom="0" />
  <g
     id="g20"
     transform="translate(112.52468,-18.863659)">
    <path
       style="fill:#7e007e;stroke-width:0.32"
       d="m 391.6594,883.36518 c -2.89306,-0.1255 -6.42631,-2.47154 -9.43385,-6.26401 -1.76526,-2.22594 -4.49263,-4.28968 -6.57118,-4.97222 -3.04084,-0.9985 -8.0462,-5.16002 -14.87725,-12.36909 -6.4342,-6.79027 -17.38602,-18.92369 -22.4814,-24.90695 -3.45528,-4.05738 -5.48199,-5.7902 -8.85212,-7.5685 -6.03253,-3.18315 -7.30911,-4.23708 -13.49871,-11.14452 -4.49102,-5.01188 -4.04099,-4.47182 -15.11343,-18.13675 -22.57389,-27.85935 -34.87195,-44.31831 -61.54892,-82.37328 -8.31523,-11.86176 -41.42072,-60.052 -53.38226,-77.70626 -1.4239,-2.10157 -4.22493,-6.21113 -6.22449,-9.13234 -1.99956,-2.92122 -6.66383,-9.79756 -10.36504,-15.28077 -3.70121,-5.4832 -10.44786,-15.46585 -14.99257,-22.18364 -17.81269,-26.32997 -33.37462,-49.87459 -33.88917,-51.27304 -0.0425,-0.11544 0.41101,-0.43713 1.00776,-0.71491 1.30599,-0.60792 1.64509,-1.89914 0.71835,-2.73539 -1.10651,-0.99846 -2.21295,-0.79392 -2.76044,0.51027 l -0.35228,0.83919 -0.84288,-1.33711 c -0.46358,-0.73543 -1.23763,-2.12569 -1.72012,-3.0895 l -0.87725,-1.75236 0.84892,-1.03873 c 0.70158,-0.85847 0.78575,-1.20985 0.48494,-2.02451 -0.79428,-2.14998 -2.54365,-2.8323 -6.43918,-2.5106 -1.03364,0.0854 -2.33234,0.008 -2.886,-0.17164 -1.50224,-0.48773 -5.82477,-4.85811 -8.950547,-9.04962 -3.07489,-4.12326 -3.970154,-5.05798 -4.979552,-5.19901 -0.791222,-0.11054 -1.143757,0.1692 -2.932506,2.32694 -0.714529,0.86197 -1.839721,1.91644 -2.50043,2.34325 -2.322183,1.50025 -3.657936,0.79046 -5.06847,-2.69327 -1.326929,-3.27724 -3.636324,-7.31305 -6.238914,-10.90287 -4.59111,-6.33264 -8.865698,-10.92118 -22.305553,-23.94382 -5.470769,-5.30094 -10.938882,-10.65721 -12.151372,-11.90285 -5.909434,-6.07094 -15.367542,-17.1813 -19.893074,-23.36824 -1.078538,-1.47449 -4.313829,-5.88126 -7.189547,-9.79285 -2.875713,-3.91158 -5.928955,-8.38296 -6.7849755,-9.93639 -0.8560177,-1.55343 -2.2007572,-3.53991 -2.9883169,-4.41443 -2.1147914,-2.34825 -4.2036453,-5.26685 -11.2634666,-15.7376 -10.75393,-15.94966 -17.14683,-26.81473 -20.789372,-35.33264 -5.251804,-12.28109 -10.641231,-28.46573 -13.107239,-39.3615 -0.434228,-1.91859 -0.956451,-3.94205 -1.160498,-4.49661 -0.204046,-0.55455 -0.510766,-1.80999 -0.681597,-2.78986 -0.170834,-0.97989 -0.818902,-4.43319 -1.440152,-7.67402 -0.621249,-3.24083 -1.142814,-6.27113 -1.159034,-6.734 -0.168211,-4.80059 -0.329756,-5.58308 -2.81323,-13.62678 -2.487213,-8.0558 -2.504374,-8.13391 -2.390994,-10.88385 0.102072,-2.47581 0.0056,-3.05558 -0.909207,-5.46202 -1.0228,-2.69069 -1.350114,-3.23311 -5.471772,-9.06834 -5.254056,-7.43842 -7.082659,-11.24698 -6.959947,-14.49597 0.281117,-7.44282 4.686955,-14.69733 12.187092,-20.06685 2.339625,-1.67501 3.122359,-2.0618 6.871792,-3.39575 7.486653,-2.6636 11.501594,-2.77088 16.040948,-0.42878 3.25863,1.68131 5.958625,4.25426 10.913129,10.39963 5.321368,6.60043 8.1757477,9.6934 12.150668,13.16632 5.6401593,4.92784 9.2877714,8.44416 12.7433166,12.2846 6.8465634,7.60918 21.1741024,26.83299 38.4781514,51.62758 2.91588,4.17811 6.288683,8.99791 7.495116,10.71067 2.368299,3.36225 10.024773,14.43477 18.701689,27.04569 2.986013,4.33984 17.78202,26.05428 32.880014,48.25431 25.67157,37.74739 35.73107,52.57766 50.71479,74.76655 3.34737,4.95702 9.61685,14.23478 13.93216,20.61724 16.42532,24.29347 19.79028,29.27369 24.17117,35.77389 2.48128,3.68165 8.23994,12.22673 12.79703,18.98908 4.55708,6.76234 8.76632,12.9622 9.35387,13.77746 0.58754,0.81526 2.08417,3.02647 3.32582,4.91381 1.24166,1.88733 5.12262,7.67094 8.62435,12.85247 8.03602,11.89092 15.34095,22.73022 19.70224,29.23485 1.86588,2.78287 5.58808,8.31802 8.27153,12.30035 2.68347,3.98232 5.86549,8.71888 7.07116,10.52569 1.20567,1.80681 3.72086,5.56122 5.58932,8.34314 5.67969,8.45641 21.05783,31.45032 25.52942,38.17241 1.60352,2.41056 4.47375,6.72481 6.37831,9.58721 6.84224,10.28341 13.78914,21.07223 23.16366,35.97413 8.42052,13.38541 26.91005,45.28884 34.61157,59.72178 2.49964,4.68441 3.31781,6.51019 4.59095,10.24487 2.95391,8.66512 7.56039,20.79238 11.02261,29.01876 4.08721,9.71134 11.58453,28.25353 12.42142,30.72041 4.924,14.51422 7.039,21.8472 6.6325,22.99579 -0.39209,1.1079 -0.93973,1.4598 -2.18746,1.4057 z m -24.57738,-26.39851 c 0.0581,-4.19803 -17.22015,-29.73845 -22.3081,-32.9755 -1.46348,-0.93108 -3.62641,-1.61022 -4.31795,-1.35577 -0.22333,0.0822 -0.58819,0.54359 -0.8108,1.02539 -0.85961,1.86047 0.57359,3.87015 17.21423,24.13815 4.25699,5.18494 7.92037,9.62931 8.14086,9.87637 0.51263,0.5744 2.07135,0.0438 2.08175,-0.70866 z m 0.75888,-23.3353 c 0.34261,-0.74149 -0.45266,-2.58842 -3.10138,-7.20267 -4.55988,-7.94364 -4.7565,-8.65632 -3.52349,-12.77217 0.70298,-2.34655 0.64469,-2.8098 -0.37136,-2.95178 -0.52779,-0.0737 -1.42607,0.34261 -3.48593,1.61578 -5.26459,3.25394 -5.19906,2.94659 -1.72161,8.07561 3.11832,4.59933 6.27343,8.87051 8.36159,11.31934 2.24803,2.63635 3.27312,3.14751 3.84218,1.91589 z M 135.86941,531.84059 c 4.25291,-3.29086 4.07362,-4.87217 -1.57281,-13.87195 -2.81836,-4.49216 -3.898,-5.7308 -4.72872,-5.42514 -0.24197,0.089 -1.60381,1.06964 -3.02629,2.17913 -5.60593,4.37243 -6.26388,5.45953 -5.14488,8.5007 0.85098,2.31276 3.13611,6.29595 4.69271,8.17983 3.06819,3.71327 5.41109,3.81807 9.77999,0.43743 z m 21.84471,-15.85266 c 4.78555,-3.04778 9.26398,-6.11639 10.19331,-6.98435 0.74302,-0.69403 0.47918,-1.38145 -2.19071,-5.70767 -2.57815,-4.17765 -4.8379,-7.3812 -5.46184,-7.74301 -0.25427,-0.14744 -1.05614,-0.0496 -1.78192,0.21747 -3.0338,1.11628 -14.0651,7.80282 -15.05682,9.12654 -0.74073,0.98877 -0.043,3.06529 2.29244,6.82226 4.31444,6.94061 5.22527,7.96562 6.62169,7.45181 0.50259,-0.18493 2.92531,-1.61729 5.38382,-3.18304 z M 66.87368,473.1282 c 0.271626,-1.84747 -2.53664,-7.07531 -8.984922,-16.72625 -1.257199,-1.88162 -3.470037,-5.21025 -4.917415,-7.39696 C 49.709721,444.07731 31.33649,417.25351 21.72587,403.38851 0.92368598,373.37772 -5.7988171,363.17929 -8.7536827,357.14924 c -0.8091035,-1.65115 -0.9003221,-2.11139 -0.7558196,-3.81359 0.259217,-3.05359 -1.0341477,-5.75905 -6.3436027,-13.26956 -4.081705,-5.77379 -4.875885,-6.64094 -5.778076,-6.30898 -0.793097,0.29182 -0.778273,0.17538 -1.132355,8.8934 -0.09921,2.44256 -0.409774,4.39874 -0.914792,5.76201 -0.420527,1.1352 -0.786211,2.54931 -0.812628,3.14249 -0.05888,1.32184 2.385298,8.51847 4.723815,13.9088 2.388178,5.5048 8.82406,17.88368 11.979082,23.04075 0.6087274,0.995 2.8719907,4.69399 5.0294705,8.21997 13.8505605,22.63602 43.7396375,58.97872 59.0101105,71.7515 6.370935,5.32888 10.271485,7.03718 10.622158,4.65217 z M 41.093017,445.61844 c -0.957149,-1.10122 -2.090554,-2.44659 -2.518683,-2.98972 -0.428124,-0.54311 -0.932185,-1.01882 -1.120128,-1.0571 -0.187944,-0.0383 -0.497718,-0.49361 -0.688387,-1.0118 -0.192724,-0.52378 -0.873696,-1.31223 -1.533513,-1.77558 -0.936914,-0.6579 -1.324688,-1.20123 -1.841401,-2.58003 -0.648313,-1.73 -1.194219,-2.53787 -3.935627,-5.82446 -0.778,-0.93272 -1.821048,-2.3115 -2.317877,-3.06395 -0.496833,-0.75245 -1.16179,-1.50513 -1.477682,-1.67262 -0.315896,-0.1675 -0.867427,-0.81045 -1.22563,-1.42879 -0.358205,-0.61834 -0.914018,-1.33446 -1.235141,-1.59138 -0.321122,-0.25691 -1.128859,-1.38597 -1.794976,-2.50903 -0.666117,-1.12307 -1.348961,-2.07 -1.517439,-2.10433 -0.168483,-0.0343 -0.449634,-0.45189 -0.624788,-0.92792 -0.175158,-0.47604 -0.473853,-0.89716 -0.663788,-0.93588 -0.6494,-0.13231 -3.097325,-2.77214 -3.805642,-4.10397 -0.508314,-0.95577 -0.877689,-1.31356 -1.312501,-1.27135 -0.378523,0.0368 -0.896492,-0.362 -1.383306,-1.06495 -0.428016,-0.61805 -1.382671,-1.97537 -2.1214635,-3.01629 -8.7675471,-12.35297 -19.2708073,-30.75315 -25.7363105,-45.08626 -2.020804,-4.47983 -3.650338,-9.74482 -3.325526,-10.74467 0.93041,-2.86409 1.404994,-4.01 1.640841,-3.96194 0.473701,0.0965 2.511366,3.936 2.675317,5.04099 0.08649,0.58292 0.06464,1.60073 -0.04854,2.26179 -0.607125,3.54573 1.391972,7.02029 19.0571219,33.12255 2.0331539,3.00422 3.9164526,6.05961 4.1851112,6.78976 0.5160702,1.40256 0.7333425,1.72822 3.3903409,5.08187 2.585583,3.2635 3.620314,4.72755 3.932564,5.56419 0.157781,0.42244 0.78802,1.25248 1.400762,1.84443 0.612737,0.59195 1.695175,2.10213 2.405407,3.35592 1.728019,3.05053 2.700705,4.40081 4.593626,6.37687 0.873976,0.91234 1.686462,1.92355 1.805503,2.24707 0.119054,0.32357 0.681803,1.01897 1.250566,1.54538 0.568764,0.5264 1.16171,1.30388 1.317662,1.72771 0.155958,0.42386 0.565731,0.96946 0.91062,1.21249 0.344892,0.24302 0.969748,1.08294 1.388581,1.86651 0.418835,0.78357 1.139476,1.89936 1.60143,2.47953 0.461955,0.58017 1.459788,2.05428 2.217408,3.2758 0.757623,1.22152 2.276609,3.57794 3.375525,5.23649 2.927492,4.41835 5.920435,11.29008 5.055883,11.60819 -0.129604,0.0477 -1.018768,-0.8143 -1.975917,-1.91552 z M -28.990304,329.44996 c 0.25671,-0.94146 0.183983,-1.44247 -0.379382,-2.61361 -1.685492,-3.50382 -4.878682,-3.20848 -4.552811,0.4211 0.31835,3.54586 4.104275,5.22882 4.932193,2.19251 z m -9.493929,-57.84856 c 2.664225,-2.83241 2.574,-4.39399 -0.540637,-9.35697 -1.886175,-3.00551 -2.828022,-3.90404 -4.357312,-4.15695 -1.279262,-0.21157 -3.386263,1.01759 -4.206062,2.45368 -1.032765,1.80914 -0.923622,2.92896 0.720378,7.39119 1.570122,4.26172 2.535726,5.92871 3.536857,6.10595 1.249733,0.22126 3.330533,-0.82494 4.846776,-2.4369 z m 20.348485,-12.79005 c 2.876322,-1.90727 5.614884,-3.82544 6.085691,-4.2626 1.274058,-1.18299 1.034321,-2.10204 -1.215448,-4.65949 -2.903681,-3.30079 -4.531344,-4.53819 -6.238316,-4.74257 -1.360641,-0.16293 -1.790865,-0.044 -5.64473,1.55974 -4.629673,1.92663 -7.067407,3.20472 -7.372685,3.86544 -0.286989,0.62113 0.109186,1.48715 1.948435,4.25924 4.390806,6.61776 5.649255,8.02132 6.8093,7.59448 0.218941,-0.0806 2.751434,-1.70696 5.627753,-3.61424 z M 367.30548,785.10189 c -0.15938,-0.20322 -1.3513,-2.35721 -2.64869,-4.78665 -1.29738,-2.42943 -3.61551,-6.63494 -5.15138,-9.34556 -1.53588,-2.71065 -2.75238,-5.01525 -2.70335,-5.12137 0.0491,-0.10617 48.12174,-17.9944 106.82824,-39.75173 110.1191,-40.81148 128.44446,-47.72397 128.85048,-48.6036 0.71194,-1.54236 -26.43416,-76.40782 -128.53189,-354.47463 L 376.20944,84.056805 374.35061,81.873964 c -1.98445,-2.330408 -2.8678,-2.962807 -4.16135,-2.979107 -2.07795,-0.02619 -9.06262,1.637083 -15.4028,3.667919 -14.52782,4.653401 -46.27649,16.840116 -53.88283,20.682894 -4.86111,2.45586 -15.13658,6.22098 -22.58439,8.27527 -3.23319,0.89182 -9.40025,2.89247 -13.70461,4.44589 -8.66603,3.1275 -9.59172,3.64612 -11.45075,6.4148 -1.26977,1.89106 -1.25016,3.12735 0.10409,6.56207 1.05163,2.66723 1.09158,2.90266 0.6512,3.85484 -0.80511,1.74126 -3.12343,2.73725 -29.7286,12.77183 -23.97585,9.04291 -27.05828,10.32886 -24.93658,10.40319 0.76883,0.0269 13.29274,-4.19753 39.0866,-13.18439 21.74607,-7.57656 28.68494,-9.78328 34.44633,-10.95468 11.58124,-2.3547 18.42578,-2.4129 23.83512,-0.20271 2.7223,1.11231 4.11649,2.22843 6.08616,4.87227 0.82241,1.10392 1.66913,2.11479 1.8816,2.24638 0.61173,0.37892 6.48915,0.54685 7.06214,0.2018 0.41989,-0.25285 0.414,-0.71072 -0.0313,-2.42692 -0.30187,-1.16338 -0.4596,-2.50076 -0.35055,-2.97196 0.24887,-1.07517 1.86121,-2.72169 4.53745,-4.63362 l 2.07373,-1.48151 2.87374,0.03 c 1.58056,0.0165 3.04021,-0.1157 3.24368,-0.29379 0.21685,-0.1898 0.22058,-0.73188 0.009,-1.30987 -0.56515,-1.54463 -0.60553,-3.36504 -0.0932,-4.22308 0.25766,-0.43153 0.56737,-1.22986 0.6882,-1.77405 0.18496,-0.83293 1.00577,-1.60624 5.18936,-4.88903 9.53065,-7.47855 12.03172,-8.8104 16.51472,-8.79429 4.49602,0.0162 17.84591,1.2753 18.75982,1.76942 1.7507,0.9465 1.6421,2.70083 -0.24729,3.99529 -2.56289,1.7559 -15.3875,11.24757 -15.53018,11.49412 -0.0844,0.1459 0.92518,3.622 2.2436,7.72466 5.92485,18.43689 10.23914,32.91124 10.31374,34.60225 0.0301,0.68358 -0.22021,1.30198 -0.71016,1.7541 -0.66008,0.60913 -1.07165,0.69807 -3.22384,0.69659 -4.03233,-0.003 -7.38908,-0.58314 -8.25175,-1.42672 -0.65168,-0.63722 -1.1643,-2.00499 -3.59384,-9.58883 -1.55858,-4.86507 -3.78458,-12.02252 -4.94666,-15.90546 -1.84913,-6.17846 -2.18777,-7.09446 -2.7126,-7.33688 -0.5256,-0.24284 -0.70405,-0.17003 -1.44568,0.5899 -1.12985,1.15763 -1.5461,-0.47629 7.00979,27.51508 2.31875,7.58594 4.29538,14.25202 4.3925,14.81352 0.19228,1.11149 -0.16616,2.00578 -1.08198,2.69926 -1.04176,0.78886 -10.07278,0.17547 -11.44409,-0.77731 -0.99485,-0.69119 -1.81378,-3.03289 -6.00123,-17.16066 -1.9296,-6.51014 -3.86733,-12.81696 -4.30607,-14.01517 l -0.79738,-2.17867 -0.84355,0.31039 c -1.63729,0.60244 -1.69348,1.12364 -0.55528,5.15257 0.57528,2.03648 3.01134,10.11443 5.41345,17.951 6.31883,20.61448 6.44146,21.18203 4.81554,22.29076 -0.7695,0.52473 -5.48875,0.47877 -10.24732,-0.0998 -2.59294,-0.31524 -3.31042,-0.54069 -3.96533,-1.24602 -0.99799,-1.07483 -0.91357,-0.60269 -3.4211,-19.13325 -1.08009,-7.98173 -2.10602,-14.67478 -2.27991,-14.87342 -0.37038,-0.42317 -1.30072,-0.14411 -1.94857,0.58445 -0.58232,0.65487 -0.7104,-0.61906 2.4455,24.32827 1.51746,11.99551 2.58476,21.6356 2.43728,22.01442 -0.66699,1.71334 -2.26685,1.90079 -10.38961,1.21727 -4.26884,-0.3592 -5.20571,-0.70603 -5.72585,-2.11964 -0.49704,-1.35083 -0.28215,-2.60238 2.74594,-15.99332 3.7636,-16.64338 3.57293,-15.42423 2.49051,-15.92436 -1.07729,-0.49776 -1.50618,0.18862 -2.22715,3.56432 -1.08972,5.10224 -5.67801,25.25337 -8.05615,35.38152 -2.59793,11.06416 -2.49859,10.92846 -7.51439,10.26456 -2.67254,-0.35374 -16.78245,-2.76013 -18.93357,-3.22905 -4.11375,-0.89674 -4.38718,-1.87285 -2.44913,-8.74282 4.2101,-14.92388 10.90653,-36.46413 12.42223,-39.9583 0.75853,-1.74868 0.94536,-2.52383 0.62408,-2.58929 -0.72295,-0.14731 -23.63426,7.14801 -71.6901,22.82727 -13.47853,4.39766 -28.00169,9.13014 -32.27371,10.51662 -4.27201,1.38649 -14.43994,4.81967 -22.5954,7.6293 -49.22042,16.95691 -50.47741,17.36562 -56.317981,18.31264 -8.72297,1.41435 -13.507176,1.36693 -17.525402,-0.17372 -2.873745,-1.10184 -3.726397,-2.03445 -5.023209,-5.49427 -0.928374,-2.47677 -1.044707,-3.10599 -0.895316,-4.8426 0.381324,-4.43346 2.341969,-10.04917 4.84339,-13.87252 2.111059,-3.22667 5.029867,-5.24827 22.463128,-15.55814 6.93068,-4.09874 11.32674,-6.99673 12.41045,-8.18129 1.15062,-1.25767 0.45529,-1.88046 -2.72071,-2.43688 l -2.77873,-0.48682 -57.883901,20.95775 c -57.2431633,20.72576 -67.147181,24.4436 -67.800394,25.45133 -0.246576,0.38039 -0.06245,1.40796 0.712276,3.97518 l 1.044806,3.46217 -1.080687,-0.91331 c -4.310239,-3.64269 -9.172171,-5.90698 -13.753498,-6.40525 -3.875062,-0.42147 -12.344406,1.11903 -16.427116,2.98794 l -2.486177,1.13807 -2.270941,-6.62871 c -1.249021,-3.6458 -3.720617,-10.88743 -5.492446,-16.09251 l -3.22151,-9.46379 0.271667,-2.30907 c 0.750874,-6.3822 4.228655,-12.01857 10.726056,-17.38352 4.49016,-3.70756 4.995582,-3.93496 25.648716,-11.53951 26.879573,-9.89713 102.081464,-36.88873 108.818343,-39.05726 6.532647,-2.1028 7.346243,-2.13906 8.002081,-0.35664 0.450549,1.22449 0.441689,1.24066 -5.819517,10.6106 -6.176823,9.24367 -7.311768,11.38725 -8.988816,16.97728 -2.104755,7.01563 -2.526376,9.9333 -1.792266,12.4025 0.874721,2.94214 2.145496,4.7218 4.145017,5.80491 5.848322,3.16793 16.758003,2.63705 24.239457,-1.17951 5.8089,-2.96333 8.78128,-5.72008 10.42399,-9.66772 1.64148,-3.94473 1.33203,-5.55964 -4.2978,-22.42852 -4.48253,-13.43118 -4.85207,-15.20012 -3.85266,-18.44211 0.62532,-2.02845 2.37792,-4.1457 8.25683,-9.97478 7.95091,-7.883517 12.6952,-13.025565 14.29844,-15.497206 1.70872,-2.634243 3.51692,-6.821413 3.92282,-9.083861 0.29476,-1.642986 0.27035,-1.743837 -1.83964,-7.599478 -2.10964,-5.854567 -2.13504,-5.959502 -1.88924,-7.802347 0.33067,-2.479566 2.13001,-6.668752 3.56974,-8.310962 1.46015,-1.665517 4.62698,-3.954722 7.11981,-5.14669 1.70796,-0.816677 2.01548,-0.873133 2.79474,-0.51308 1.54971,0.716032 1.46517,1.413706 -0.73491,6.06479 -2.65144,5.605262 -2.978,7.819957 -1.74695,11.847501 0.92639,3.030817 1.964,4.709506 3.40761,5.512942 0.79674,0.443424 1.50757,0.436862 4.19991,-0.03877 3.70365,-0.654292 5.4099,-0.593187 6.52467,0.23367 1.46524,1.08679 2.00615,2.123128 2.09911,4.021598 0.0476,0.971311 0.20768,1.822025 0.35582,1.890473 0.14815,0.06844 1.27073,-0.440393 2.49466,-1.130738 3.06751,-1.730227 4.8757,-1.828618 6.06622,-0.330083 0.38566,0.485438 0.88394,0.815377 1.10729,0.733196 0.22335,-0.08218 2.18583,-1.909693 4.36107,-4.06114 l 3.95499,-3.911719 3.74467,-1.563915 c 2.05955,-0.860144 3.80787,-1.701479 3.88512,-1.869624 0.19891,-0.432967 -0.91582,-1.748723 -5.1038,-6.024283 -3.5565,-3.630842 -4.70971,-4.450592 -5.07523,-3.607633 -0.0946,0.218117 0.15456,1.941652 0.55363,3.830075 0.86607,4.098183 0.69424,5.400295 -0.93558,7.089937 -1.62453,1.684143 -5.26805,3.071892 -6.84491,2.607103 -2.03492,-0.599812 -2.92364,-2.052115 -6.70944,-10.964241 -2.97194,-6.996203 -3.59732,-8.263784 -4.55607,-9.234782 -0.61121,-0.619019 -1.29959,-1.628061 -1.52972,-2.242321 -0.56291,-1.503788 0.0281,-2.235759 3.06045,-3.78859 3.3695,-1.725468 3.23025,-1.489328 2.16426,-3.670017 -1.08198,-2.213412 -0.9823,-2.890336 0.50623,-3.43804 0.81682,-0.300549 1.5971,-0.139038 4.18426,0.86609 1.74911,0.679542 4.46401,1.892819 6.0331,2.69617 7.19304,3.682716 30.04635,14.956998 34.68421,17.110824 8.49806,3.946534 17.39513,7.128481 22.85128,8.172534 l 1.95718,0.374513 8.15616,-3.317403 c 10.70378,-4.353617 79.92198,-29.819487 97.87043,-36.007272 19.86822,-6.84959 26.51971,-8.698065 33.90785,-9.423154 8.57742,-0.841801 12.34199,-0.316619 15.14577,2.112931 2.93738,2.545282 8.59257,10.331685 12.68932,17.471397 3.58096,6.240739 5.99794,12.091712 9.44515,22.864464 6.75188,21.099973 169.64334,462.922191 172.38656,467.576411 0.85561,1.45167 1.68137,3.77774 4.06842,11.46006 4.22949,13.61188 8.74191,26.89597 18.78943,55.31428 19.11875,54.0752 23.93442,68.7155 24.50019,74.48393 0.72466,7.38818 -2.885,15.07234 -9.60427,20.44543 -6.38552,5.10619 -9.98327,6.71002 -33.61579,14.98557 -10.95483,3.83612 -30.30831,10.99336 -54.92452,20.31203 -20.90518,7.91384 -65.17469,24.47282 -98.37673,36.79773 -51.51371,19.12234 -60.40982,22.35471 -60.65713,22.03939 z M 287.47425,164.12924 c -0.18238,-1.70325 -0.53735,-1.85451 -2.97431,-1.26742 -1.25122,0.30144 -2.45476,0.70545 -2.67453,0.89779 -0.80343,0.70321 0.19173,1.27793 2.424,1.39989 2.80989,0.15353 3.33366,-0.0138 3.22483,-1.03029 z M 255.3764,111.31232 c 2.85363,-1.48811 5.63204,-4.53077 7.47493,-8.18592 0.80182,-1.59026 1.53955,-3.465345 1.63941,-4.166841 0.17637,-1.238762 0.14767,-1.319905 -0.99748,-2.820107 -1.60611,-2.104076 -6.96621,-7.107529 -9.36987,-8.746443 -3.85001,-2.62511 -12.63757,-6.577356 -20.45642,-9.200364 -3.67647,-1.233355 -21.51593,-5.545842 -22.08115,-5.337869 -0.74652,0.274681 -0.26391,0.914823 2.68512,3.561574 3.44145,3.088736 5.86789,5.915503 7.69778,8.967971 2.42349,4.042542 2.68883,5.170675 2.52633,10.740547 l -0.14404,4.937002 1.3285,3.61057 c 1.28913,3.50356 1.38167,3.66123 3.12323,5.31868 3.89278,3.70482 11.09656,5.80649 16.83754,4.91231 1.646,-0.25637 7.43816,-2.39278 9.73621,-3.59095 z m -7.77582,-5.44486 c -3.96606,0.40243 -7.69306,-0.93446 -9.18558,-3.29493 -1.65029,-2.609952 -1.39179,-5.780773 0.8316,-10.199717 1.83616,-3.649345 3.39661,-4.393546 8.15112,-3.887381 3.13873,0.334153 5.82475,1.56024 8.04226,3.671106 3.72999,3.550502 3.76262,7.885482 0.0796,10.566572 -1.61765,1.17757 -6.10821,2.96062 -7.91896,3.14435 z m -92.45139,16.62816 c 0.48383,-0.72757 -0.0373,-1.70215 -0.83992,-1.57072 -0.65291,0.10693 -1.61765,1.76545 -1.38877,2.38749 0.19109,0.51935 1.71046,-0.0375 2.22866,-0.81684 z m 3.19028,-36.033309 c 0.004,-0.300891 -0.37828,-0.724519 -0.8814,-0.976318 -0.48881,-0.244647 -1.01193,-0.773189 -1.16248,-1.174548 -0.57632,-1.536489 -0.97703,-1.533824 -2.9489,0.01958 -0.99087,0.78058 -2.02773,1.500231 -2.30416,1.599225 -1.66579,0.596558 -1.5582,1.534937 0.23953,2.08913 1.84834,0.569792 2.73175,0.517699 5.00649,-0.295236 1.58062,-0.564879 2.04524,-0.850721 2.05092,-1.26183 z M 272.30783,819.38201 c -73.17755,25.66389 -70.57613,24.83552 -77.21918,24.58858 -8.43421,-0.3135 -15.16685,-3.72889 -19.06368,-9.67074 -2.56446,-3.91026 -6.74929,-14.41708 -29.22985,-73.38718 -27.6847,-72.6214 -104.496641,-280.0207 -103.802446,-280.27613 0.162739,-0.0599 0.344859,0.0242 0.40473,0.18694 0.05986,0.16268 0.776194,0.82086 1.591842,1.46258 0.815652,0.64173 3.304696,2.98877 5.531201,5.21562 2.226516,2.22688 5.09197,5.04575 6.36769,6.26417 2.165887,2.06861 6.56147,6.82408 10.465671,11.32253 2.668613,3.0748 5.481411,7.56883 6.983306,11.15728 2.275546,5.43692 4.358617,7.8946 7.829694,9.23775 2.371288,0.9176 3.738685,1.0138 6.543669,0.46033 l 2.31964,-0.45767 13.415143,36.68478 c 7.37833,20.17662 31.52162,86.25771 53.65177,146.84687 24.52392,67.14299 40.45257,110.41555 40.78963,110.81108 1.04675,1.22843 2.89115,2.30134 3.92567,2.28359 0.71431,-0.0122 13.62387,-4.64923 41.5217,-14.91421 l 40.4851,-14.89645 1.44724,1.93955 c 3.40015,4.55677 11.44197,14.42941 12.39432,15.21604 0.57577,0.47559 0.38044,0.54913 -26.35284,9.92468 z m -66.14396,-4.70644 c -0.63797,0.002 -1.58329,-0.27334 -2.1007,-0.61243 l -0.94074,-0.61653 -45.39833,-123.1555 c -24.96909,-67.73553 -47.65798,-129.6124 -50.41979,-137.50415 -4.96086,-14.1755 -5.01914,-14.36819 -4.82926,-15.96869 l 0.1922,-1.62003 -1.2257,-1.40944 c -0.67414,-0.77517 -1.24668,-1.46622 -1.27231,-1.53562 -0.0256,-0.0694 0.98251,0.41308 2.24031,1.07218 1.25781,0.65913 2.87364,1.34706 3.59075,1.52876 1.18914,0.30131 1.3815,0.48926 2.18677,2.13659 1.25789,2.57326 5.62069,9.72904 9.18817,15.07026 2.56206,3.83592 3.03356,4.70009 2.93791,5.38467 -0.0881,0.63026 1.68472,5.5559 7.80621,21.68942 6.79902,17.9192 8.00709,20.91438 8.53436,21.15944 0.48355,0.22474 1.67871,-0.0805 5.61732,-1.43468 l 5.00308,-1.72014 0.56923,0.65442 c 0.31307,0.35991 2.13874,3.08621 4.05703,6.05839 1.91827,2.9722 4.13584,6.30568 4.9279,7.4077 0.79205,1.10202 1.40325,2.08346 1.3582,2.18096 -0.0451,0.0976 -3.24002,1.42156 -7.09992,2.94233 -4.90724,1.93345 -7.13048,2.93417 -7.39195,3.32737 -0.34885,0.52457 0.58928,3.18228 13.98291,39.61357 7.89626,21.47817 14.51093,39.12273 14.69927,39.21011 0.18833,0.0874 8.23843,-2.70454 17.88909,-6.20424 l 17.54669,-6.36305 1.3441,1.79906 c 0.73927,0.98949 2.47956,3.56632 3.86733,5.7263 1.38777,2.15999 3.029,4.54815 3.64718,5.30703 0.61819,0.75888 1.39414,1.84299 1.72435,2.40917 l 0.60037,1.02938 -2.11575,0.99589 c -1.16366,0.54775 -9.95187,3.95448 -19.52936,7.57046 -14.56328,5.49841 -17.44592,6.66584 -17.61099,7.13226 -0.25705,0.72638 15.14404,43.55612 22.17277,61.66143 4.89414,12.60684 4.96419,12.76444 5.72221,12.87322 0.55806,0.0801 8.90464,-2.84195 30.59664,-10.71142 l 29.82925,-10.82152 1.0763,1.51988 c 0.59198,0.83593 2.04768,2.69685 3.23489,4.13537 1.82218,2.2079 5.7694,7.30664 7.20909,9.31222 0.39925,0.55618 0.31441,0.59994 -6.33302,3.26791 -3.70573,1.48729 -12.82743,4.95599 -20.27044,7.70824 -12.70755,4.69896 -36.60442,13.95782 -42.85101,16.60272 -1.81794,0.76971 -3.21035,1.18764 -3.96259,1.19077 z M 578.69394,677.65446 c -0.69634,0.0118 -36.30196,12.92828 -113.01844,40.99929 -74.01619,27.08292 -112.13541,40.91558 -112.39562,40.78601 -0.51532,-0.25662 -1.61521,-2.02546 -5.60771,-9.01831 -1.81391,-3.17707 -3.50074,-6.09957 -3.74853,-6.49446 l -0.45053,-0.718 21.45937,-8.14029 c 11.80266,-4.47715 21.63748,-8.34062 21.85518,-8.58541 0.25002,-0.28116 0.25984,-1.40365 0.0267,-3.04755 -0.47764,-3.36735 -0.36422,-4.85795 0.70752,-9.29987 0.48511,-2.01056 0.86155,-3.7112 0.83653,-3.77919 -0.025,-0.068 0.73982,-2.90542 1.69967,-6.30534 0.95986,-3.3999 1.78859,-6.39614 1.84163,-6.65829 0.16464,-0.81373 -0.874,-1.11245 -2.19168,-0.63038 -0.68176,0.25086 -2.17049,0.63664 -3.30727,0.86005 -1.68506,0.33114 -2.32541,0.28811 -3.46627,-0.23292 -1.24376,-0.56802 -1.50272,-0.8596 -2.32874,-2.62222 l -0.92935,-1.9831 -8.61946,3.17152 c -5.82114,2.14188 -8.6865,3.31685 -8.82597,3.6192 -0.11359,0.24624 -0.0253,2.98799 0.19622,6.09282 0.5368,7.52405 0.49866,9.14615 -0.251,10.6761 -1.95281,3.98528 -6.68396,3.89629 -10.3241,-0.1942 -0.81719,-0.9183 -3.40263,-3.51112 -5.7454,-5.76178 -4.12208,-3.96005 -4.31537,-4.10034 -5.9874,-4.34598 -0.95027,-0.13957 -2.02991,-0.41779 -2.39919,-0.61822 -1.58464,-0.86008 -2.6008,-3.33649 -2.19211,-5.34228 0.22529,-1.10578 0.12938,-1.71259 -0.52049,-3.29283 -0.95829,-2.33016 -0.84092,-3.94666 0.38696,-5.32994 1.8539,-2.08855 4.39742,-2.11963 6.99034,-0.0855 1.85294,1.45367 2.16742,1.47267 3.95645,0.23938 0.52357,-0.36095 1.27942,-0.86704 1.67967,-1.12465 0.40025,-0.25761 0.73118,-0.71824 0.7354,-1.02357 0.004,-0.30536 -0.86672,-1.67585 -1.93545,-3.04559 -2.16161,-2.77044 -2.63696,-3.77951 -2.5544,-5.42232 0.0885,-1.76086 0.85819,-2.90823 2.6848,-4.00235 1.90734,-1.14245 20.37876,-7.66181 24.27425,-8.56743 8.95139,-2.08101 12.32967,-2.45777 14.0988,-1.57235 1.2389,0.62006 1.66808,0.43916 3.41361,-1.43863 0.79147,-0.85147 1.60781,-1.61216 1.81412,-1.69042 0.20603,-0.079 0.77991,-0.59819 1.27472,-1.15532 0.49481,-0.55714 1.11112,-1.09078 1.36959,-1.18589 0.25846,-0.0951 0.5546,-0.33895 0.65808,-0.54192 0.10348,-0.20297 0.66952,-0.7288 1.25786,-1.16854 0.58835,-0.43972 1.29554,-1.0198 1.57156,-1.28901 0.49871,-0.4865 4.37432,-3.57546 7.88731,-6.28641 1.01009,-0.77947 3.34923,-2.34542 5.1981,-3.47986 3.30858,-2.0301 3.61938,-2.15751 19.70293,-8.07936 8.98739,-3.31009 17.20999,-6.19208 18.27173,-6.40637 1.06172,-0.21427 3.06761,-0.62847 4.45751,-0.92051 1.38992,-0.292 4.18681,-0.61389 6.21533,-0.7153 5.67236,-0.28363 6.58881,-0.35548 7.95903,-0.62432 0.69963,-0.13726 2.59141,-0.41698 4.20393,-0.62163 9.32227,-1.18303 15.13061,-1.01497 18.78813,0.54359 1.59682,0.68045 2.10313,1.09078 2.91637,2.36348 2.05666,3.21857 1.32662,7.2878 -1.86249,10.38146 -0.71144,0.69017 -3.28806,2.86175 -5.72581,4.82573 -2.43776,1.96402 -4.77243,3.8975 -5.18818,4.29663 -2.67573,2.5689 -3.70558,3.71352 -4.29487,4.77341 -1.03014,1.85287 -2.7564,3.43906 -5.33092,4.89835 -1.29304,0.73291 -3.0106,1.83345 -3.81679,2.44563 -0.8062,0.61218 -2.00022,1.47688 -2.65337,1.92158 -1.20258,0.81875 -1.52739,1.59976 -0.80427,1.93387 0.21794,0.1007 2.75553,-0.46005 5.63904,-1.24611 5.45339,-1.48658 6.91925,-1.79837 7.56359,-1.60866 0.68013,0.20021 3.68276,0.0177 4.47847,-0.27225 0.53953,-0.19533 0.9867,-0.82413 1.4781,-2.07297 0.66296,-1.68489 0.88945,-1.92218 3.81466,-3.99634 3.17866,-2.25391 5.88621,-4.10995 9.53027,-6.53307 1.13003,-0.75141 2.78062,-1.89513 3.66797,-2.5416 0.88734,-0.6465 2.48179,-1.76364 3.54322,-2.48255 1.06143,-0.71891 2.03924,-1.44664 2.17288,-1.6172 0.13365,-0.17056 1.39458,-0.97478 2.80208,-1.78713 4.25155,-2.45388 6.41659,-2.18748 7.83944,0.96455 0.68586,1.51937 0.71382,1.85196 0.2979,3.53141 -0.53614,2.16422 -2.0997,4.04876 -4.8972,5.90258 -0.99752,0.66099 -2.47762,1.69084 -3.28915,2.28851 -0.81153,0.59769 -2.39844,1.70595 -3.52648,2.46281 -3.61047,2.42241 -5.2464,3.60318 -7.90816,5.70783 -2.36085,1.86671 -2.61644,2.17382 -2.75513,3.31062 -0.17544,1.43796 -0.8501,2.87289 -1.62493,3.45614 -0.29373,0.22108 -3.28165,1.27482 -6.63982,2.34168 -5.20385,1.65322 -6.47891,1.9523 -8.63183,2.02464 -1.38935,0.0467 -3.23407,0.24577 -4.09938,0.44247 -4.37729,0.995 -23.49738,7.19802 -24.68658,8.00892 -0.52223,0.35613 -0.57465,0.70242 -0.29149,1.9255 1.61481,6.97461 1.26543,9.2556 -1.75184,11.4377 -1.20577,0.87199 -3.06156,1.6695 -8.78882,3.77684 -7.09217,2.60955 -7.32103,2.67266 -9.88391,2.72405 -4.45914,0.0895 -6.34636,-0.45336 -9.86998,-2.839 -4.10402,-2.77863 -6.98421,-6.46547 -7.32706,-9.3792 -0.10448,-0.88776 -0.096,-1.73393 0.0188,-1.88044 0.45358,-0.57886 -0.22484,-1.41978 -1.07226,-1.32905 -1.33961,0.14344 -5.22296,2.02428 -5.52378,2.67533 -0.14618,0.31638 0.14871,4.55261 0.6553,9.41388 0.5066,4.86125 1.02302,10.44547 1.14762,12.40937 0.34,5.35908 0.004,5.1582 5.66653,3.39125 2.60742,-0.81366 39.48748,-14.30692 81.95571,-29.98503 73.66373,-27.19464 77.23049,-28.53936 77.55383,-29.23921 0.32161,-0.69622 -0.34957,-2.60466 -13.17653,-37.46538 -11.20296,-30.44703 -13.61582,-36.79006 -14.10229,-37.07209 -0.51872,-0.30082 -1.95767,0.14509 -12.39606,3.84127 -26.39314,9.34574 -112.6839,40.67666 -170.36047,61.85539 l -61.34869,22.52716 -0.40167,-0.6194 c -0.22093,-0.34067 -1.84341,-2.85081 -3.60552,-5.57809 -1.76213,-2.72727 -3.92482,-5.89046 -4.80599,-7.02932 -0.88118,-1.13886 -1.66693,-2.24675 -1.74613,-2.46198 -0.11778,-0.32011 14.83306,-5.94568 82.14007,-30.90694 45.25623,-16.78357 82.49515,-30.67166 82.75314,-30.86243 0.25801,-0.19073 0.36811,-0.62127 0.24471,-0.95666 -0.21247,-0.57745 -6.7091,-11.27257 -7.47254,-12.30175 -0.50497,-0.68069 -1.51624,-0.62317 -6.25781,0.35593 -6.97297,1.43987 -11.86464,1.09165 -18.87914,-1.34386 -2.09119,-0.72609 -9.38528,-4.42753 -13.71176,-6.95813 -6.66888,-3.90072 -9.61984,-5.02737 -10.14483,-3.87324 -0.20723,0.45559 0.0497,1.04392 1.51344,3.46521 0.9697,1.60403 1.99359,3.12144 2.27536,3.37197 0.28177,0.25056 1.35686,0.52049 2.38912,0.5999 4.06979,0.31301 5.75372,2.2355 7.38946,8.43628 1.86722,7.07827 1.87414,9.87551 0.0293,11.80573 -1.25914,1.31741 -2.05191,1.60911 -3.86464,1.42199 -1.93328,-0.19956 -3.1659,-1.20522 -5.68864,-4.64112 -2.22308,-3.02777 -2.92023,-3.79401 -3.60109,-3.95783 -0.2264,-0.0545 -6.03801,1.96881 -12.91473,4.49623 -10.35467,3.80572 -12.53645,4.6896 -12.69733,5.14411 -0.10683,0.30186 -0.0127,1.45638 0.20915,2.5656 0.98958,4.94758 0.52705,8.15388 -1.39674,9.68222 -1.45595,1.1567 -4.07845,1.76713 -5.35129,1.24566 -1.06736,-0.4373 -6.9475,-4.66166 -7.1123,-5.10956 -0.0487,-0.13234 -0.71069,-0.60419 -1.47107,-1.04854 l -1.38253,-0.8079 -2.38846,1.09333 c -2.2025,1.00821 -3.43914,1.88191 -4.96762,3.50972 -0.33716,0.3591 -1.82291,1.08168 -3.47061,1.68795 -2.66585,0.98089 -3.00592,1.03229 -4.55216,0.68856 -2.31966,-0.51574 -9.28151,-3.79165 -10.87695,-5.11819 -2.38124,-1.9799 -3.60402,-4.31386 -6.79335,-12.96672 -2.49547,-6.77053 -2.94365,-8.24516 -3.37641,-11.11102 -0.83668,-5.54061 -0.28649,-12.37828 1.41408,-17.57387 0.74257,-2.26872 1.84236,-3.32212 4.02809,-3.85815 1.21295,-0.29747 1.70891,-0.21559 3.04998,0.50353 2.03053,1.08881 3.06602,2.16792 6.16433,6.42407 4.25527,5.84545 11.27437,13.40395 12.46268,13.42037 0.29912,0.004 1.8868,-0.39364 3.52817,-0.88394 3.24414,-0.9691 7.60775,-1.82547 8.58802,-1.68544 1.22271,0.1747 2.42742,1.05195 3.32938,2.42444 0.8029,1.22178 0.92666,1.64992 0.97298,3.36598 0.0292,1.0814 0.17607,2.08639 0.32639,2.23332 0.15027,0.1469 1.08324,0.58284 2.07318,0.96874 l 1.79989,0.70163 3.63749,-1.34374 c 6.79465,-2.50968 20.63952,-8.17477 20.95111,-8.57238 0.25392,-0.32407 -0.27199,-1.43793 -2.89944,-6.14109 -3.42415,-6.12924 -3.81407,-7.2501 -3.23195,-9.29086 0.56026,-1.96421 1.74498,-2.80981 6.38221,-4.55528 5.91716,-2.2273 6.37775,-2.22711 11.34154,0.004 2.21559,0.99576 6.43478,3.14902 9.37596,4.785 5.01029,2.78686 12.0194,6.12834 12.50522,5.96163 0.11918,-0.0407 0.80017,0.14208 1.51352,0.40663 3.24583,1.20356 7.51272,1.30996 11.53989,0.28771 3.11364,-0.7904 4.01248,-1.37495 3.64596,-2.37107 -0.33355,-0.9065 -1.01163,-0.91833 -4.46129,-0.0778 -1.80711,0.44032 -4.63218,0.8858 -6.27794,0.98995 -2.66143,0.16843 -3.26932,0.0724 -5.49843,-0.86854 -4.06741,-1.71695 -5.90912,-4.04464 -6.21039,-7.8492 -0.13841,-1.74757 0.0288,-2.54784 1.01416,-4.85475 0.64892,-1.51927 1.32381,-2.81524 1.49977,-2.87998 0.17595,-0.0647 2.39862,-2.62649 4.93927,-5.69278 6.53943,-7.89239 13.99057,-16.13782 15.76568,-17.4463 0.3688,-0.27188 0.77227,-0.66147 0.8966,-0.86577 0.57151,-0.9392 5.66334,-3.58742 9.88269,-5.13993 l 4.38281,-1.61265 1.76211,0.6117 c 1.54088,0.5349 1.89497,0.82282 2.8202,2.29309 1.21064,1.92375 1.94212,4.45949 1.99776,6.9254 0.0453,2.00742 -0.55956,5.41885 -2.15532,12.15599 -0.65652,2.77186 -1.10424,5.28285 -0.99493,5.57995 0.24322,0.661 1.3304,0.63491 5.38629,-0.12922 1.65487,-0.31179 3.19291,-0.51034 3.41789,-0.44122 1.23196,0.37854 5.36179,-0.25462 8.89665,-1.36403 14.83654,-4.65636 15.33323,-4.76529 17.19518,-3.77206 0.67175,0.35834 1.00477,0.87735 1.59879,2.49175 0.78455,2.13225 0.68877,3.0705 -0.44357,4.34424 -1.27189,1.43074 -13.90791,6.56392 -20.35525,8.26904 -1.52008,0.40198 -2.70377,0.84788 -2.74133,1.03253 -0.0364,0.17883 0.62211,2.68036 1.46324,5.55898 2.25967,7.73332 2.96642,12.16105 2.44177,15.29783 -0.59848,3.57841 -0.55336,3.84784 0.62336,3.72185 0.45008,-0.0482 13.45659,-4.71593 28.9034,-10.37276 26.41266,-9.6727 28.10507,-10.32792 28.41945,-11.0067 0.31568,-0.68121 -0.46367,-2.89076 -13.92905,-39.49099 -13.26881,-36.06156 -14.30839,-38.78235 -14.90787,-38.95392 -1.03248,-0.29554 -30.23357,10.25498 -138.82207,50.15726 -54.35063,19.97205 -105.6029,38.71487 -113.89378,41.65109 l -15.07435,5.33857 -2.86832,-4.4002 c -1.57758,-2.4201 -3.97867,-6.00407 -5.33575,-7.96436 l -2.46742,-3.56416 123.83133,-45.73737 c 68.10721,-25.15555 124.04183,-45.93239 124.29911,-46.17078 0.61212,-0.56713 0.70883,-0.43208 -5.79516,-8.09128 -7.79798,-9.183 -10.02754,-11.6794 -12.06385,-13.50763 -3.02553,-2.71638 -3.4289,-2.87085 -5.90276,-2.26021 -2.77265,0.6844 -18.00192,6.25874 -18.33087,6.70956 -0.13739,0.18834 -0.29936,0.91413 -0.35993,1.61288 -0.0606,0.69875 -0.37437,1.81156 -0.69729,2.4729 -0.52956,1.08452 -0.78681,1.27592 -2.62348,1.95172 -1.36557,0.50246 -2.27198,0.66749 -2.75174,0.50103 -0.39346,-0.13653 -2.36912,-1.33255 -4.39038,-2.65779 -2.83099,-1.85622 -3.98598,-2.42576 -5.02927,-2.48011 -1.90755,-0.0994 -10.1672,0.94888 -13.06591,1.65818 l -1.63065,0.39903 -1.26298,4.31956 c -0.69462,2.37576 -1.80245,5.2813 -2.46183,6.45672 l -1.19888,2.13718 -2.37619,0.87431 -2.37618,0.87432 -1.9642,-0.99456 c -1.08028,-0.54702 -2.20201,-1.19737 -2.49271,-1.44522 -0.81632,-0.696 -1.39082,0.10275 -1.22177,1.69864 0.8044,7.59352 0.62159,13.63753 -0.51781,17.11864 -0.86012,2.62778 -1.70737,3.52102 -3.95314,4.16773 -2.27067,0.65382 -3.83157,0.19903 -5.97624,-1.74128 -2.93658,-2.65674 -3.53164,-3.6836 -6.96197,-12.01368 -1.74372,-4.23433 -3.34198,-7.98089 -3.55171,-8.32568 -0.45105,-0.74158 -0.98413,-0.59173 -2.59144,0.72837 -0.93644,0.76911 -3.58318,1.912 -13.09309,5.65369 -13.52876,5.32296 -21.39506,8.73751 -22.93836,9.95694 -0.58117,0.45923 -2.2849,1.45854 -3.78606,2.22068 -5.22356,2.65211 -6.8061,3.98127 -5.44762,4.5755 0.48964,0.21418 2.79046,0.57266 7.74571,1.20683 2.19787,0.28125 3.47645,0.3045 4.10144,0.0745 0.35362,-0.13011 1.62255,-1.28166 2.81986,-2.55896 2.62209,-2.79733 5.0429,-4.42583 8.43398,-5.67357 2.62524,-0.96595 7.61294,-1.96569 8.29232,-1.66213 0.21322,0.0953 0.57173,0.10549 0.79666,0.0227 0.59742,-0.21982 4.16327,0.12809 5.99813,0.58524 2.01149,0.50111 3.9928,1.89906 5.40461,3.81323 1.54898,2.10015 1.70517,3.83352 0.56275,6.24543 l -0.85509,1.8053 -3.66842,1.34127 c -2.4471,0.89508 -4.47383,1.43624 -6.08753,1.62723 -1.59992,0.18935 -4.29532,0.9067 -7.96062,2.11861 -6.20383,2.05128 -5.94935,1.85071 -5.51056,4.34282 0.24497,1.39133 -0.32515,2.60401 -1.74372,3.70897 -0.83554,0.6508 -10.81563,4.44227 -47.11723,17.89989 -47.65852,17.66783 -58.24086,21.37511 -60.44396,21.17519 -2.859,-0.25942 -4.33037,-3.16474 -3.12515,-6.17082 0.72113,-1.79867 -0.45033,-1.22968 20.57493,-9.99292 3.73979,-1.55873 7.49243,-3.24473 8.3392,-3.74663 0.84677,-0.50193 2.63879,-1.46978 3.98226,-2.15079 2.28779,-1.15969 4.53915,-2.43246 9.59686,-5.42541 2.2234,-1.31572 6.44728,-3.68922 10.46539,-5.88075 1.33364,-0.72738 2.68342,-1.5232 2.99951,-1.76847 0.31609,-0.24526 1.17982,-0.80087 1.91939,-1.23467 3.44906,-2.02308 8.8155,-5.67869 9.75902,-6.64783 1.1045,-1.13449 2.87307,-2.78452 3.0572,-2.85227 0.74681,-0.27479 7.10975,-7.04685 6.98018,-7.42897 -2.95426,-8.71233 -3.03361,-9.14992 -2.10594,-11.61273 0.57574,-1.52848 0.61259,-1.56028 2.69609,-2.3269 1.80619,-0.66459 2.25943,-0.71478 3.12714,-0.34628 0.57186,0.24288 1.28459,0.90225 1.63289,1.51067 0.87342,1.52565 1.50573,1.67703 2.50681,0.60014 0.44481,-0.47845 2.34507,-1.63305 4.26009,-2.58841 3.16151,-1.57718 4.92588,-2.72059 5.50647,-3.56846 0.7892,-1.15247 3.51894,-2.31829 17.58959,-7.51225 8.14116,-3.00512 15.69449,-5.90956 16.78527,-6.45429 l 1.98319,-0.99039 1.13344,-2.78143 c 0.62341,-1.52975 1.05406,-3.01368 0.95697,-3.29756 -0.16273,-0.47558 -0.88461,-0.75079 -5.0801,-1.93619 -0.82585,-0.23337 -2.44452,-0.86712 -3.59705,-1.40842 -1.76652,-0.82964 -2.28586,-1.26567 -3.30785,-2.77726 -1.11519,-1.64939 -1.22927,-1.95842 -1.42279,-3.85522 -0.25275,-2.4746 0.0636,-3.79084 1.33172,-5.54188 0.57766,-0.79762 0.86661,-1.54582 0.73504,-1.90339 -0.21466,-0.58342 -1.01543,-0.29741 -82.22601,29.36753 -45.10506,16.4762 -82.15281,29.87772 -82.32834,29.78116 -0.40237,-0.22139 -10.32271,-15.01446 -10.63138,-15.85335 -0.0239,-0.0648 56.5473,-20.9406 125.71373,-46.39045 134.81645,-49.60587 166.37194,-61.38312 167.00061,-62.3285 0.35256,-0.53017 -0.53731,-3.05056 -13.88286,-39.32069 -13.54166,-36.8031 -14.29654,-38.77126 -14.99317,-39.09317 -0.70205,-0.3244 -7.44823,2.12753 -156.9934,57.06019 l -156.25982,57.3992 -1.34759,-1.965 c -0.74117,-1.08072 -2.37306,-3.53795 -3.62642,-5.4605 -1.25336,-1.92254 -3.04783,-4.54002 -3.98771,-5.81658 -0.93986,-1.27658 -1.77724,-2.50694 -1.86085,-2.73416 -0.12827,-0.3486 8.80496,-3.73593 57.22708,-21.69944 31.55849,-11.7075 67.67817,-25.19143 80.26596,-29.96429 21.10861,-8.00367 22.88001,-8.72 22.79817,-9.21939 -0.0848,-0.51737 -1.18627,-0.94992 -12.46922,-4.89661 -5.44213,-1.9036 -10.46191,-3.49974 -11.86605,-3.77303 l -1.36527,-0.2657 -0.99804,1.25629 c -0.54894,0.69094 -1.61719,2.07566 -2.37392,3.07714 -1.26531,1.67459 -2.98254,3.59233 -5.1959,5.80257 -1.3316,1.32976 -3.57279,2.55637 -6.9232,3.78916 -3.75272,1.38081 -4.89002,1.47705 -6.90251,0.58407 -2.51878,-1.1176 -3.90953,-2.76929 -7.72128,-9.16996 -1.04994,-1.76307 -2.11332,-3.38727 -2.36308,-3.60936 -0.46681,-0.41509 -3.08903,-0.87632 -3.7013,-0.65103 -0.7724,0.2842 -6.46466,-0.60598 -7.88322,-1.23281 -3.55727,-1.57188 -4.81232,-6.68061 -2.43045,-9.89324 0.84345,-1.13763 2.99699,-2.42032 7.17314,-4.27246 1.59009,-0.70521 2.90837,-1.45944 2.98995,-1.71065 0.0803,-0.24713 -0.23962,-1.99527 -0.71083,-3.88479 -0.47122,-1.88951 -1.24884,-6.14432 -1.72805,-9.45512 -0.4792,-3.31082 -0.9536,-6.24339 -1.05422,-6.51684 -0.37374,-1.01573 -1.20151,-0.0467 -2.80133,3.2793 -4.16085,8.65031 -5.54583,13.70372 -6.83345,24.93343 -0.84143,7.33834 -0.90891,11.11564 -0.35366,19.79515 0.1887,2.94972 -0.40207,4.3573 -2.20912,5.26344 -2.2515,1.12904 -4.19705,0.50235 -5.6516,-1.82047 -1.22344,-1.95373 -1.69162,-4.83286 -1.95596,-12.02957 -0.20111,-5.47472 0.13415,-10.4916 1.13065,-16.91823 0.65115,-4.19948 0.78809,-5.07611 1.01725,-6.51184 0.9067,-5.68073 2.4745,-10.18666 6.2778,-18.04256 2.01215,-4.1562 2.34753,-5.08947 1.91838,-5.33833 -0.70127,-0.40666 -21.89,7.07326 -83.78449,29.57713 l -47.189445,17.15734 -3.335783,-5.08063 c -1.834687,-2.79434 -3.378352,-5.18004 -3.430362,-5.30156 -0.238163,-0.55634 330.40522,-121.54369 342.94354,-125.4882 4.38258,-1.37874 4.53137,-1.40221 5.63964,-0.88983 l 1.13831,0.52625 9.05329,24.02464 c 4.97931,13.21354 44.53658,120.17237 87.90504,237.68627 71.42702,193.54313 78.84179,213.77121 78.74615,214.82534 -0.0581,0.64001 -0.3378,1.47094 -0.62164,1.84648 -0.63743,0.84342 -6.00066,3.04292 -7.48087,3.06792 z M 438.1212,691.37288 c 0.35237,-0.76264 0.3695,-0.68967 -0.35838,-1.52646 l -0.57634,-0.66257 -5.18649,1.91262 c -2.85232,1.05271 -5.65494,2.17813 -6.22725,2.50306 -1.05502,0.59909 -1.38024,1.50056 -0.66123,1.83278 0.77945,0.36013 4.54629,-0.48955 8.59051,-1.93772 3.37843,-1.20964 4.17478,-1.59205 4.41934,-2.12126 z m -16.95022,-17.44161 c 0.31089,-0.27042 0.56549,-0.69532 0.5658,-0.94421 2.8e-4,-0.24888 -0.72304,-1.87413 -1.60706,-3.61175 -2.37938,-4.67594 -3.08542,-6.73918 -2.9111,-8.50727 0.27072,-2.74626 3.08646,-4.4587 5.55815,-3.38028 1.2658,0.55228 1.50381,0.78777 6.41234,6.34451 1.94032,2.19652 3.84987,4.21743 4.24349,4.49091 0.67701,0.47039 0.9211,0.42122 4.52531,-0.91169 6.73155,-2.48945 17.05375,-6.92131 19.04936,-8.17888 2.42757,-1.52982 5.8945,-3.86379 7.65186,-5.15131 0.73858,-0.54109 2.16385,-1.99648 3.16723,-3.23417 1.0034,-1.23766 1.91296,-2.28293 2.02123,-2.32276 0.10826,-0.0398 0.64941,-0.53788 1.20257,-1.10677 1.40464,-1.44463 2.29009,-2.24786 4.1071,-3.72577 1.19661,-0.9733 1.53982,-1.44308 1.42979,-1.95702 -0.12201,-0.56995 -0.42254,-0.65795 -1.91086,-0.55984 -1.73558,0.1144 -4.7213,0.53128 -9.19468,1.28376 -2.38199,0.40066 -5.65802,0.62127 -6.30653,0.42467 -0.74332,-0.22534 -4.39065,0.19336 -6.70671,0.76987 -1.28849,0.32077 -10.24255,3.47902 -19.89789,7.01832 -17.02877,6.24218 -17.60749,6.47547 -19.29667,7.79094 -2.75801,2.14711 -4.86071,3.84331 -5.40866,4.36298 -0.27805,0.26369 -1.05702,0.85719 -1.73105,1.31889 -0.67402,0.46173 -1.32063,0.99794 -1.43692,1.19156 -0.11629,0.19364 -0.76011,0.73744 -1.43071,1.20846 -0.67061,0.471 -1.78048,1.41624 -2.46637,2.10053 -0.6859,0.68429 -1.54923,1.46553 -1.91853,1.73607 -0.58741,0.4303 -1.17988,0.96748 -3.45163,3.12956 -0.2778,0.26438 -1.12597,1.08681 -1.88484,1.82761 -0.75886,0.74083 -1.67965,1.57442 -2.04619,1.85247 -0.97427,0.7391 -1.71407,1.82836 -1.54812,2.27937 0.0796,0.21623 1.05066,0.49337 2.15803,0.61588 1.16105,0.12849 3.08085,0.73652 4.53494,1.43633 l 2.52157,1.21358 10.72024,-4.15645 c 5.89614,-2.28603 10.97461,-4.37768 11.28551,-4.6481 z m -61.32953,10.4301 c 0.57176,-0.50044 0.24572,-1.1592 -0.55577,-1.12292 -0.88122,0.0399 -1.77082,0.74747 -1.58265,1.25887 0.22969,0.62424 1.3514,0.55291 2.13842,-0.13595 z M 465.52754,587.845 c 2.40149,-5.26476 2.81531,-7.89551 1.94546,-12.36805 -0.77965,-4.00889 -2.58679,-9.74975 -3.25654,-10.34527 -0.70926,-0.63071 -3.98127,-0.67355 -6.2069,-0.0813 l -1.73063,0.46053 -0.85922,2.76165 c -2.37064,7.61965 -2.23909,6.88861 -1.56759,8.71034 1.04804,2.83965 4.71985,8.84332 7.80343,12.75412 0.99382,1.26043 1.43815,1.60193 1.87505,1.44117 0.31494,-0.11588 1.21355,-1.61579 1.99694,-3.33317 z m -123.99437,13.7816 c 0.49391,-1.81139 0.0455,-2.12046 -2.97641,-2.05158 -4.55661,0.10385 -4.89603,0.74215 -1.35194,2.54254 2.85554,1.45059 3.82905,1.34018 4.32835,-0.49096 z m 107.3593,-48.11037 c 0.26462,-0.8944 0.93567,-3.09765 1.49121,-4.89611 0.55554,-1.79847 0.97996,-3.36667 0.94316,-3.48492 -0.0371,-0.11814 0.39849,-1.86916 0.96734,-3.89092 1.0284,-3.65509 1.0576,-4.81942 0.12129,-4.83239 -0.81457,-0.0113 -4.4498,2.778 -6.1899,4.74943 -0.89894,1.01844 -2.43339,2.69769 -3.40988,3.73167 -0.9765,1.03395 -1.77832,2.05475 -1.78184,2.26843 -0.004,0.2137 0.38907,0.87323 0.87248,1.46562 0.48335,0.59241 1.5209,2.33847 2.30562,3.88011 0.78472,1.54165 1.62019,2.92363 1.85658,3.07107 0.23637,0.14745 0.86023,0.10969 1.38629,-0.0839 0.77599,-0.28552 1.04737,-0.6589 1.43765,-1.97812 z M 334.4532,587.31156 c 0.009,-0.6366 -5.07026,-7.03718 -5.93424,-7.47825 -0.49906,-0.25477 -0.60018,-0.21756 -0.82918,0.3051 -0.73481,1.67699 0.88148,8.42274 2.15958,9.01327 0.28721,0.13269 1.3493,-0.0873 2.54455,-0.5271 1.61859,-0.59555 2.0532,-0.87266 2.05929,-1.31302 z M 499.33827,466.96268 c 0.19165,-0.54226 -1.82579,-6.21293 -12.29286,-34.55325 -11.01717,-29.82976 -12.59684,-33.93903 -13.14372,-34.19172 -0.54898,-0.25364 -5.98459,1.68078 -46.53945,16.56229 -45.73117,16.78092 -45.91704,16.85187 -45.69693,17.45009 0.16687,0.4535 0.58737,0.57494 1.71679,0.49574 4.4594,-0.31267 14.23336,-0.54753 16.13975,-0.38782 1.20987,0.10135 2.3011,0.14798 2.42493,0.10357 0.12343,-0.0454 0.65253,-0.0256 1.17491,0.0418 0.52241,0.0674 1.49367,0.10415 2.15838,0.0817 2.77646,-0.0939 7.62889,0.86726 12.30706,2.43774 3.08638,1.03606 8.68017,4.70464 9.85996,6.46644 0.45342,0.67708 1.30309,2.24274 1.88819,3.47925 0.6845,1.44667 1.27488,2.32291 1.65589,2.45775 0.42761,0.15131 3.12582,-0.65423 9.71226,-2.89958 8.7578,-2.98558 13.48061,-4.37097 14.69135,-4.3095 0.76592,0.0389 5.07867,3.00632 7.65879,5.26977 2.56117,2.24678 3.23074,2.98805 15.33832,16.98075 6.74056,7.79005 8.17189,9.31257 8.77152,9.33042 0.24173,0.007 3.02838,-0.92738 6.19258,-2.07681 5.00542,-1.81819 5.7828,-2.17423 5.98228,-2.73864 z M 323.0953,510.00356 c -0.10344,-0.48326 -0.46943,-0.71088 -1.32641,-0.8248 -2.40447,-0.31964 -3.37897,-0.49418 -4.56049,-0.81683 -0.66549,-0.18175 -1.79077,-0.35555 -2.50063,-0.38623 -1.54807,-0.0669 -2.82309,0.73853 -5.36483,3.38906 -0.88097,0.91864 -2.19286,2.25311 -2.91531,2.96548 -2.13459,2.10471 -1.40145,2.51742 2.18543,1.23025 1.18753,-0.42608 2.74139,-0.86029 3.45308,-0.9648 0.71169,-0.1045 3.51652,-1.03032 6.23298,-2.05732 4.78188,-1.80786 4.93448,-1.88852 4.79618,-2.53481 z m 55.31502,-34.89168 c 0.0989,-0.45165 -1.13666,-9.84213 -1.38719,-10.54343 -0.19035,-0.53178 -2.49546,-0.89974 -3.44632,-0.54987 l -0.83758,0.30819 2.23262,5.49663 c 1.22793,3.02316 2.36191,5.59796 2.51995,5.72179 0.39595,0.31027 0.79724,0.12094 0.91851,-0.43334 z m 32.47945,-25.72216 c 0.01,-0.72391 -2.10835,-3.35015 -2.709,-3.35845 -0.56517,-0.008 -1.60177,2.31548 -1.4988,3.3592 0.0916,0.92893 0.44266,1.10719 1.94983,0.99026 1.71896,-0.13333 2.24931,-0.36612 2.25797,-0.99101 z m -15.78535,2.74847 c 0.38366,-0.33582 2.07173,-5.8978 2.14212,-7.05809 0.0175,-0.28773 0.11382,-0.82186 0.21415,-1.18696 0.31349,-1.14094 -0.63867,-1.44339 -3.97545,-1.26276 -5.00191,0.27071 -10.70733,0.59592 -12.33755,0.70322 -4.75853,0.31318 -8.48202,1.22759 -14.70348,3.61084 -5.92732,2.27057 -6.11653,2.36539 -5.98142,2.99762 0.10988,0.51437 0.91783,0.84233 3.80806,1.54587 4.00655,0.97525 7.81538,1.64879 10.41061,1.84098 0.91575,0.0678 2.34769,0.17898 3.18207,0.24704 0.8344,0.0681 1.73672,0.0429 2.00517,-0.0558 0.26846,-0.0988 0.6111,-0.0832 0.76144,0.0346 0.1503,0.11778 0.74155,0.14993 1.31382,0.0714 0.57231,-0.0785 1.2902,-0.10344 1.59536,-0.0554 0.30512,0.048 1.44457,0.004 2.53207,-0.099 1.08751,-0.10248 3.23985,-0.29957 4.783,-0.43791 3.17641,-0.28481 3.67137,-0.38913 4.25003,-0.89559 z M 327.31233,319.29143 c 0.78237,-0.61467 0.89983,-0.94728 0.79774,-2.25884 -0.0679,-0.87182 0.18264,-2.31945 0.57831,-3.34195 1.2766,-3.29913 6.98324,-11.66715 9.05029,-13.27109 1.24521,-0.96623 0.0833,-1.83985 -8.04638,-6.0497 -3.52026,-1.82289 -3.36577,-1.85154 -18.14374,3.36382 -6.72231,2.37235 -12.32672,4.47838 -12.45428,4.68004 -0.12756,0.20163 -0.57708,3.17878 -0.99893,6.61588 -0.80128,6.52865 -1.68104,11.50594 -3.10021,17.53991 -0.70017,2.97687 -0.79661,4.73476 -0.26922,4.90776 0.0533,0.0175 4.17865,-1.38536 9.16742,-3.11741 11.70095,-4.06251 22.24345,-8.14482 23.41899,-9.06844 z m 76.14481,-28.15588 c 15.01478,-5.65929 27.37068,-10.44377 27.45756,-10.63214 0.0869,-0.18842 -5.63102,-16.07133 -12.70648,-35.29538 -12.01565,-32.64707 -12.91107,-34.97433 -13.57077,-35.27914 -0.6645,-0.30703 -5.20295,1.33195 -76.74681,27.71585 -75.09826,27.69466 -90.08016,33.34119 -90.5613,34.13154 -0.13525,0.22217 -0.0332,1.27773 0.22672,2.34568 0.69265,2.84566 0.99419,6.37875 0.68483,8.02403 -0.14899,0.79241 -0.37391,1.99002 -0.4998,2.66137 -0.7597,4.05108 -3.63595,12.4321 -5.91529,17.23641 l -1.07791,2.27197 -4.86236,1.81031 -4.86235,1.8103 0.30626,1.115 0.30617,1.11503 2.26728,-0.14434 c 3.20361,-0.20397 6.50553,-0.6372 7.41954,-0.97351 1.18937,-0.43762 1.97165,-1.48664 3.30286,-4.429 0.66927,-1.47929 1.35544,-2.74201 1.52482,-2.80605 0.16926,-0.0644 0.8614,-0.69746 1.53778,-1.40759 0.67639,-0.71014 1.42927,-1.37456 1.67307,-1.47649 0.24378,-0.10196 0.88775,-0.64536 1.43102,-1.20759 0.54327,-0.56224 1.13956,-1.08331 1.32508,-1.15795 0.18551,-0.0746 0.65012,-0.47999 1.03244,-0.90081 0.38232,-0.42082 0.89585,-0.84513 1.14117,-0.94292 0.24535,-0.0977 0.89054,-0.63781 1.43381,-1.20005 0.54326,-0.56224 1.14679,-1.08598 1.34117,-1.16387 0.19437,-0.0779 1.10003,-0.9526 2.01257,-1.94383 0.91253,-0.99122 1.77074,-1.84404 1.90713,-1.89514 0.13636,-0.0512 1.3223,-1.41519 2.63535,-3.03131 3.28441,-4.04248 3.19335,-3.92616 4.38959,-5.60746 0.58745,-0.82565 1.13822,-1.52698 1.22399,-1.55854 0.0858,-0.0316 0.53962,-0.56927 1.00864,-1.19496 0.46902,-0.62568 1.79409,-1.8118 2.94461,-2.63582 1.78702,-1.2799 2.69962,-1.70272 6.26323,-2.90182 2.29427,-0.77193 5.98651,-1.89166 8.20499,-2.48819 2.21848,-0.59652 6.9141,-2.01326 10.43472,-3.1483 4.73079,-1.5252 6.68037,-2.03018 7.47132,-1.93521 3.10727,0.3731 3.71097,0.33018 4.95604,-0.35231 1.39463,-0.76447 3.08299,-0.83567 4.30598,-0.18157 0.40614,0.21723 1.76797,1.50369 3.02624,2.85882 2.54928,2.74545 4.87824,4.87442 6.47713,5.92092 0.58387,0.38214 1.0939,0.78263 1.1334,0.88999 0.14897,0.40487 7.86987,5.46205 8.44851,5.53377 0.99434,0.12323 3.67028,-0.3084 6.82174,-1.10037 1.63079,-0.40982 5.49339,-1.37996 8.58354,-2.15586 3.17384,-0.79692 6.29027,-1.39939 7.16245,-1.38464 2.25689,0.0381 3.94601,0.85528 4.98294,2.41062 0.76116,1.1417 0.86148,1.50905 0.7717,2.82586 -0.19701,2.88988 -1.23111,3.7634 -7.08221,5.98251 -2.05711,0.78025 -4.04351,1.63683 -4.41418,1.90363 -1.05416,0.75877 -0.45915,1.61673 2.17901,3.14199 1.31015,0.75745 3.16042,2.03176 4.11175,2.83178 0.95128,0.80002 1.89663,1.44943 2.10071,1.44315 1.64317,-0.0507 10.08471,-17.82399 15.85828,-33.3889 1.25727,-3.38947 2.61172,-6.60647 3.00985,-7.14886 1.14709,-1.56271 3.66266,-2.80847 13.08379,-6.47942 10.71852,-4.17645 9.4611,-4.10344 18.78986,-1.09095 4.00226,1.29245 4.79799,1.71372 5.73768,3.03769 1.66721,2.34901 0.93349,5.26434 -1.63602,6.50038 -2.842,1.36714 -4.22452,1.22765 -11.53412,-1.16365 -1.5467,-0.50601 -1.55698,-0.50437 -4.1552,0.66475 -1.43257,0.64461 -4.5907,1.90277 -7.01807,2.79592 -4.32202,1.59028 -4.43211,1.65018 -5.31571,2.89359 -0.49627,0.69832 -1.73524,3.49414 -2.7533,6.21293 -2.06346,5.51069 -6.41982,15.71991 -9.88013,23.15419 -2.63224,5.65526 -5.37593,10.18993 -7.53628,12.45573 -0.20298,0.21287 -0.89044,1.05507 -1.5277,1.87155 -0.63726,0.81649 -1.43404,1.77859 -1.77062,2.13805 -1.66446,1.77751 -1.94398,2.22048 -1.67884,2.66037 0.2109,0.34991 0.77237,0.34381 2.26151,-0.0246 1.08953,-0.26952 2.16085,-0.48013 2.38068,-0.46799 0.21985,0.0121 4.97075,-1.7333 10.55737,-3.87925 5.58683,-2.14539 22.44266,-8.53112 37.45741,-14.19036 z m -118.47552,35.15007 c 0.50907,-1.78945 1.03245,-3.79709 1.16306,-4.46146 0.13063,-0.66435 0.41324,-2.1043 0.628,-3.19987 0.2148,-1.09559 0.59373,-2.98738 0.84209,-4.20398 0.71694,-3.51175 1.06205,-6.56491 0.81726,-7.2302 -0.12415,-0.33739 -0.48672,-0.59301 -0.80572,-0.56804 -0.31899,0.025 -3.17733,0.90966 -6.35184,1.96598 -3.17451,1.05633 -6.83528,2.15797 -8.13505,2.44808 -1.29978,0.2901 -4.53294,1.09435 -7.18481,1.78721 -4.87669,1.27413 -11.01602,2.78407 -13.92459,3.42468 -1.72574,0.3801 -2.34718,1.11895 -1.63017,1.93814 0.33147,0.37871 7.40847,3.01808 9.48719,3.53826 0.45505,0.11386 2.83504,0.93101 5.28888,1.81589 2.45385,0.88488 6.21865,2.21421 8.36626,2.95413 2.1476,0.73988 5.14865,1.80688 6.66899,2.37104 1.52035,0.56421 3.00741,0.94658 3.30457,0.84974 0.33943,-0.11061 0.8845,-1.38584 1.46588,-3.4296 z m -53.19326,5.80826 c 3.10299,-2.30331 6.01528,-5.88947 5.63096,-6.93394 -0.11124,-0.30234 -0.30726,-0.51109 -0.43558,-0.46387 -0.12833,0.0472 -1.15378,-0.19064 -2.27877,-0.52858 -2.59176,-0.77854 -3.18662,-0.70371 -5.49476,0.69112 -2.47095,1.49323 -3.51344,2.46782 -3.47796,3.2515 0.0438,0.9662 2.62764,4.97859 3.35134,5.20413 0.78716,0.24531 0.64205,0.31078 2.70477,-1.22036 z m 56.0741,-40.16673 c 0.15217,-0.32935 -0.21512,-1.6938 -1.10659,-4.11074 -1.26855,-3.43894 -1.40489,-3.67687 -2.76154,-4.81367 -0.78495,-0.65773 -2.18938,-1.5022 -3.12096,-1.87661 -1.6326,-0.65614 -1.74907,-0.65266 -3.22441,0.096 -0.84182,0.42716 -2.70096,1.67657 -4.13141,2.77646 -1.43043,1.09988 -3.62379,2.76408 -4.87414,3.69821 -1.25034,0.93413 -2.46281,1.90764 -2.69435,2.16333 -0.23158,0.25571 -0.59011,0.53234 -0.79674,0.61473 -0.20665,0.0824 -0.82022,0.60984 -1.36348,1.17208 -0.54327,0.56223 -1.19252,1.1028 -1.44275,1.20123 -0.25022,0.0985 -0.65365,0.46157 -0.89649,0.80696 -0.24282,0.3454 -0.74196,0.85393 -1.10919,1.13009 -1.82259,1.37059 -3.28898,3.10829 -3.08675,3.65789 0.26359,0.7164 0.60306,0.7191 3.27465,0.026 1.18539,-0.30752 2.67213,-0.61394 3.30386,-0.68093 1.1055,-0.11723 4.44603,-0.77795 10.80666,-2.13743 1.6517,-0.35302 3.40439,-0.68289 3.89487,-0.73305 2.77094,-0.28335 9.00067,-2.28041 9.32876,-2.99052 z M 311.506,283.1035 c 0.007,-0.50507 -0.3867,-0.9629 -1.76725,-2.0558 -0.32345,-0.25605 -1.51123,-1.19996 -2.63945,-2.09758 -2.76482,-2.19966 -3.09347,-2.45577 -4.11252,-3.20445 -0.56272,-0.41344 -1.97544,-0.74776 -3.92172,-0.9281 -2.48042,-0.22982 -3.45198,-0.15684 -5.26154,0.39522 -2.6113,0.79665 -2.73341,1.07704 -1.33997,3.07653 0.49217,0.70623 1.72509,3.2534 2.73985,5.66033 1.39749,3.3149 1.97399,4.40398 2.37692,4.49054 0.2926,0.0628 3.5439,-0.99162 7.22515,-2.34325 5.79635,-2.1285 6.69415,-2.52928 6.70053,-2.99344 z m -87.62521,11.81808 c 0.8564,-0.93609 2.712,-5.59156 3.82852,-9.60529 1.26966,-4.56427 1.42213,-8.6268 0.35923,-9.57196 -0.74248,-0.66022 -3.56745,0.48769 -6.08019,2.47067 -1.11304,0.87839 -2.15498,1.64536 -2.3154,1.70439 -0.16042,0.059 -0.64656,0.45687 -1.08031,0.88411 -0.43375,0.42723 -1.79391,1.58927 -3.02258,2.5823 -2.71933,2.1978 -3.36327,2.90637 -3.1552,3.47187 0.0879,0.2388 0.53162,0.39437 0.9861,0.34571 1.95812,-0.20967 4.18512,1.8095 7.46509,6.76842 1.40785,2.1285 1.81811,2.25775 3.01474,0.94978 z m -88.97585,284.41858 c -0.28933,-0.33261 -0.84363,-1.24108 -1.23178,-2.01883 -0.72204,-1.44673 -0.65727,-1.37816 1.03747,1.09857 1.01126,1.4779 1.11767,1.98182 0.19431,0.92026 z m 139.54943,-131.1881 c -2.11647,-0.30967 -3.25522,-1.85502 -5.97556,-8.10922 -1.6091,-3.69938 -1.96491,-4.31761 -2.58193,-4.48614 -5.21647,-1.42476 -15.87624,-5.02406 -17.23261,-5.81864 -0.62769,-0.36772 -2.06992,-0.007 -2.39746,0.59896 -0.23442,0.43395 -2.63286,2.40273 -5.35541,4.39604 -1.10804,0.81121 -2.16797,1.64667 -2.35542,1.85656 -0.18746,0.20987 -0.20874,1.47566 -0.0473,2.8128 0.16146,1.33717 0.16926,3.21057 0.0173,4.16314 -0.31259,1.95998 -2.09583,5.41932 -3.33881,6.47699 -1.05418,0.89702 -4.33708,2.15294 -5.97913,2.28739 -2.486,0.20358 -7.25249,-1.4563 -13.6303,-4.74658 l -2.77722,-1.43277 -1.25672,1.09594 c -0.69119,0.60277 -1.80859,1.68114 -2.48311,2.39635 -0.67451,0.71523 -1.79229,1.84746 -2.48396,2.51608 -0.69166,0.66861 -2.09001,2.08085 -3.10746,3.13825 l -1.84989,1.9226 -7.82041,2.87752 -7.82042,2.87751 -1.22722,-0.40088 c -0.67498,-0.22048 -1.76084,-0.89501 -2.41304,-1.49895 -1.0943,-1.01331 -1.32099,-1.46932 -2.93757,-5.9091 -1.98341,-5.4472 -2.27944,-7.18932 -2.14461,-12.62087 0.1748,-7.04086 0.84009,-9.71421 3.21629,-12.92417 2.55275,-3.44844 8.20871,-7.19347 14.18504,-9.39245 3.5597,-1.30979 3.83295,-1.36324 5.28071,-1.03297 2.99638,0.68354 5.38145,2.77322 8.96198,7.85211 0.95077,1.34862 1.86691,2.56037 2.03586,2.69276 0.64816,0.50788 0.96054,0.20516 4.75193,-4.60484 2.2505,-2.85513 3.66578,-4.0877 5.4636,-4.7582 1.59705,-0.59616 1.99905,-0.61376 3.40256,-0.15287 0.87531,0.28742 1.74812,0.46494 1.93958,0.3945 0.56328,-0.20726 1.6689,-1.91472 4.4917,-6.93683 3.00998,-5.35515 4.26309,-7.16475 8.5064,-12.28377 2.73291,-3.29692 4.37864,-5.191 8.19007,-9.42612 3.77699,-4.19681 8.58358,-6.5843 14.30462,-7.10525 3.43156,-0.31247 5.64329,0.11129 8.30651,1.59145 0.99879,0.55511 2.0588,0.92003 2.35557,0.81094 0.29677,-0.1091 0.61715,-0.69791 0.71198,-1.30842 0.36926,-2.37764 2.74786,-10.34426 3.2689,-10.94856 0.66936,-0.7763 5.43771,-2.6031 7.16325,-2.74431 1.32843,-0.10871 3.25842,0.79089 4.84466,2.25823 1.24534,1.15199 3.88009,4.97582 8.17533,11.86496 4.01333,6.43695 3.86994,6.24799 4.55064,5.99753 0.88071,-0.32406 0.56452,-5.34477 -0.80805,-12.8302 -1.43464,-7.82423 -1.37265,-9.72485 0.36659,-11.23769 0.96465,-0.8391 2.9205,-1.45847 4.23027,-1.3396 2.39706,0.2175 3.9679,2.0332 9.23433,10.6736 1.26773,2.07991 2.09766,3.16135 2.42968,3.16592 0.31856,0.004 0.72372,-0.61224 1.10014,-1.67438 0.32773,-0.92478 0.97051,-2.02927 1.42843,-2.45445 1.11403,-1.0344 3.04549,-1.71037 4.50799,-1.57762 2.14228,0.19436 3.32086,1.50441 8.00041,8.8927 l 2.65868,4.1977 1.00221,-0.41873 c 0.93154,-0.38922 2.93763,-1.74941 6.51966,-4.42071 1.41603,-1.05598 3.38637,-2.45232 7.43746,-5.27067 1.0452,-0.72715 2.61221,-1.88949 3.48227,-2.58296 3.11017,-2.47896 6.76413,-4.89665 8.91198,-5.89671 2.11933,-0.98681 4.75322,-2.49203 8.452,-4.83012 2.94731,-1.86311 4.95941,-2.76696 6.25732,-2.81083 1.39277,-0.0471 3.00438,0.7834 4.03317,2.07836 1.62828,2.04953 0.87508,5.77409 -1.42894,7.06631 -1.4538,0.81534 -2.0211,1.62641 -1.53011,2.18741 0.24236,0.27686 0.72083,0.29554 1.37792,0.0538 0.55363,-0.20371 2.37086,-0.56548 4.03826,-0.80392 1.66739,-0.23845 3.05636,-0.44264 3.08657,-0.45376 0.31248,-0.11497 3.22065,1.12333 4.23026,1.80126 2.58391,1.73497 3.90837,5.04552 2.84828,7.11945 -0.85053,1.66395 -2.07942,2.24733 -12.8228,6.08728 -8.89468,3.17913 -10.40902,3.64579 -11.48443,3.53883 -3.73747,-0.37172 -5.52492,-0.10919 -9.70477,1.42537 l -4.0553,1.48895 -1.67404,1.93717 c -3.53999,4.09645 -4.4006,4.95015 -6.49479,6.44258 -1.52694,1.08816 -3.03118,1.86296 -5.12608,2.64033 l -2.96484,1.10051 -2.66103,-1.37463 -2.66107,-1.37465 -2.60396,1.17363 c -1.43218,0.64549 -3.06628,1.53924 -3.63129,1.98612 -1.29049,1.02067 -1.28912,1.92236 0.0114,7.37178 2.0065,8.40814 2.11193,9.79234 0.85064,11.17099 -0.82602,0.90286 -2.46018,1.54708 -3.69021,1.45467 -1.9567,-0.14692 -3.86581,-2.60864 -5.52943,-7.12999 -1.22117,-3.31885 -1.89142,-3.45627 -1.69994,-0.34857 0.18842,3.05846 -1.21664,4.93482 -4.05384,5.41346 -1.73161,0.29211 -2.6492,-0.39512 -4.30335,-3.22296 -3.19883,-5.46859 -4.13737,-6.8717 -7.55928,-11.30123 -3.43587,-4.44758 -5.23781,-7.10295 -12.34656,-18.19402 -3.9799,-6.20937 -4.19365,-6.47531 -4.97382,-6.18824 -0.68852,0.25334 -1.69128,3.29114 -1.98576,6.01576 -0.19697,1.82239 0.60663,11.25143 1.61529,18.95307 0.71712,5.47562 1.06633,10.47683 1.03744,14.85793 -0.0283,4.28611 -0.224,6.00184 -1.02144,8.95362 -0.34761,1.28675 -0.60378,2.41627 -0.56926,2.51009 0.0969,0.26346 -1.16326,4.47289 -2.08746,6.97259 -0.45621,1.23398 -1.19743,2.58552 -1.64711,3.00344 -1.05805,0.98329 -3.73776,1.94142 -4.93847,1.76575 z m 42.44891,-37.63636 c -0.0417,-0.11337 -0.31707,-0.29152 -0.61187,-0.39585 -0.87076,-0.30816 -1.11378,0.78956 -0.32927,1.48717 0.58709,0.52202 0.61592,0.51594 0.81282,-0.17197 0.11228,-0.39227 0.17004,-0.80598 0.12832,-0.91935 z m -126.23214,39.65091 c 0.25415,-2.92422 0.34413,-3.19368 1.43565,-4.29966 0.785,-0.79539 2.13822,-1.62457 4.34575,-2.66282 3.27559,-1.5406 6.50563,-3.69455 7.45045,-4.96836 0.67821,-0.91441 0.41659,-1.58973 -1.86762,-4.82064 -2.66779,-3.77352 -2.74338,-3.81339 -5.36536,-2.83063 -3.37092,1.26356 -6.42209,3.37059 -8.2484,5.69636 -1.36693,1.74081 -1.73073,3.6033 -1.74788,8.94842 -0.011,3.42081 0.53735,5.73214 1.46109,6.15893 0.67896,0.31371 2.47817,-0.55286 2.53629,-1.22159 z m 72.10517,-30.28173 c -0.98155,-4.5989 -3.31248,-12.93994 -3.75855,-13.44958 -0.49379,-0.56416 -1.31271,-0.14602 -2.65208,1.35421 -0.65059,0.72872 -1.99653,2.24126 -2.99097,3.36118 -2.89257,3.25764 -4.43432,4.90486 -5.21805,5.57499 -0.49245,0.42107 -0.63516,0.78977 -0.437,1.12905 0.32062,0.54894 7.21965,3.61001 11.81315,5.24144 4.07276,1.44649 4.20884,1.31175 3.2435,-3.21129 z m 10.67595,-6.06865 0.11117,-4.54947 -2.34634,-5.95691 c -1.59458,-4.04844 -2.55915,-6.15144 -3.0106,-6.56418 -1.00823,-0.92175 -2.33384,-1.52733 -2.89298,-1.32159 -0.45043,0.16573 -0.21755,1.01097 2.32435,8.43631 1.5537,4.53867 3.17278,9.68634 3.59794,11.43922 1.37845,5.68316 2.05236,5.23214 2.21646,-1.48338 z m 40.71018,-14.27092 c 0.26481,-0.57313 -1.52341,-5.70631 -2.02336,-5.80815 -1.14375,-0.23304 -0.91431,6.11256 0.24036,6.64604 0.44636,0.20627 1.53748,-0.3065 1.783,-0.83789 z M 153.39905,285.57493 c -1.85747,-0.37806 -2.70597,-1.16826 -3.07957,-2.86798 -0.3033,-1.3799 -0.40832,-1.50027 -2.03734,-2.33495 -1.59129,-0.81536 -1.75493,-0.99606 -2.22604,-2.45825 -0.77348,-2.40061 -0.71398,-2.35503 -2.30869,-1.76826 -0.79718,0.29332 -2.97864,0.93254 -4.84768,1.42051 -5.70869,1.49038 -7.12376,1.41906 -7.79039,-0.39268 -0.31534,-0.85704 -0.20067,-1.24656 0.82663,-2.80785 1.60737,-2.4429 1.4867,-3.12582 -1.8502,-10.47036 -0.81542,-1.79473 -1.56918,-3.29002 -1.67502,-3.32284 -0.10586,-0.0329 -0.62386,-0.14947 -1.15115,-0.25921 -0.72831,-0.15158 -1.18844,-0.57357 -1.91458,-1.75591 -1.13065,-1.84096 -1.16522,-2.77505 -0.14878,-4.02007 0.3768,-0.46155 0.62566,-1.00069 0.55302,-1.19811 -0.0726,-0.19741 -0.86692,-0.45888 -1.76508,-0.58102 -2.26816,-0.30849 -3.46893,-1.19872 -4.1612,-3.08511 -1.76132,-4.79843 2.90846,-8.26848 7.72411,-5.73988 0.8065,0.42349 1.8294,1.28322 2.2731,1.91053 0.77764,1.09946 0.8849,1.54063 1.03354,4.25098 0.0347,0.63326 0.21267,0.71468 1.34077,0.61339 2.54411,-0.22841 3.52826,0.99894 4.5607,5.68777 0.76249,3.46278 0.77385,3.49439 2.27175,6.31337 0.66682,1.25494 1.68574,3.30564 2.26429,4.55711 0.97115,2.10077 1.15406,2.31691 2.38316,2.816 0.7322,0.29733 1.53366,0.8374 1.78102,1.20014 0.28059,0.41147 0.66685,0.57967 1.02695,0.44717 0.90111,-0.33156 0.8009,-0.74591 -0.52238,-2.15977 l -1.22882,-1.31294 -0.056,-2.29115 -0.056,-2.29116 -1.40528,-1.07506 c -3.8582,-2.95161 -4.87078,-8.21343 -2.34468,-12.18399 1.39925,-2.19935 3.60912,-3.64963 7.905,-5.18785 l 3.85037,-1.3787 3.03508,-2.79912 c 3.0068,-2.77302 6.79974,-5.53873 8.4196,-6.13937 1.26979,-0.47041 2.79447,-0.15085 3.5267,0.73995 0.36022,0.43824 0.89314,0.80009 1.18425,0.80411 0.29112,0.004 1.93808,-1.14102 3.6599,-2.54456 3.28447,-2.67731 4.94638,-3.52034 7.34762,-3.72717 1.96619,-0.16936 3.47613,0.42262 5.35574,2.09975 l 1.68508,1.50353 2.51153,6.14107 c 2.36905,5.79267 3.57063,7.98676 3.48489,6.36345 -0.0186,-0.3519 -0.45024,-2.20635 -0.95924,-4.12102 -1.53758,-5.78387 -1.35378,-9.26047 0.69463,-13.13894 1.69063,-3.20107 5.1657,-5.38024 9.40441,-5.89741 1.99119,-0.24294 4.53884,0.0924 5.82598,0.76686 1.13759,0.59607 1.67426,0.29321 1.29703,-0.73201 -0.99648,-2.7082 0.0222,-4.19474 4.04891,-5.90821 2.87169,-1.222 3.35353,-1.2026 4.64396,0.18673 0.42192,0.45425 0.95867,0.75543 1.1928,0.66928 0.23412,-0.0861 1.88718,-1.32178 3.67348,-2.74586 2.90466,-2.31568 3.48497,-2.66055 5.49248,-3.26422 2.77672,-0.83498 4.62011,-0.45064 6.81395,1.42068 1.6527,1.40972 2.51953,3.10312 6.65933,13.00913 l 2.17661,5.20824 1.25133,0.52729 c 0.68828,0.28999 1.44567,0.77766 1.68314,1.08371 0.58264,0.75087 0.52912,2.16919 -0.11391,3.01771 -0.68162,0.89949 -4.36753,2.91215 -7.65725,4.18117 -2.4611,0.94935 -2.65002,0.97294 -3.79216,0.47708 -1.19074,-0.51712 -1.21303,-0.51319 -2.36306,0.41654 -0.63853,0.51622 -3.32262,2.00007 -5.96463,3.29744 -4.53148,2.22518 -4.85872,2.3461 -5.77548,2.1336 -2.2358,-0.51752 -3.01201,-2.96114 -1.56586,-4.92958 l 0.91963,-1.25175 -1.76999,-4.16974 c -0.97348,-2.29336 -2.51987,-5.65001 -3.4364,-7.45923 -1.41286,-2.78901 -1.79857,-3.33448 -2.53501,-3.58516 -0.99915,-0.3401 -2.0684,-0.055 -1.86517,0.49736 0.076,0.20653 0.68659,1.24773 1.35689,2.31377 2.17202,3.4544 2.55262,5.45288 1.28473,6.74603 -0.33691,0.34363 -2.90377,1.86447 -5.70412,3.37963 -2.80034,1.51516 -5.22496,2.98493 -5.38804,3.26614 -0.20889,0.36024 -0.1225,0.80287 0.29238,1.49812 1.02139,1.71162 1.89475,2.26572 3.72629,2.36413 2.76044,0.14833 3.08763,-0.0973 4.32356,-3.24657 1.00689,-2.56558 1.19023,-2.82476 2.28241,-3.22663 0.95015,-0.3496 1.46681,-0.30793 2.58434,0.20841 1.21118,0.55962 1.46925,0.84234 1.94221,2.12772 0.52858,1.43655 0.50507,1.56581 -0.76165,4.18518 -1.53966,3.1838 -2.63829,4.45885 -5.09044,5.90788 -4.01302,2.37138 -8.01663,2.57841 -12.07463,0.6244 -1.28552,-0.61901 -2.47,-1.07664 -2.63219,-1.01696 -0.16218,0.0597 -0.18445,0.67052 -0.0495,1.35743 0.15539,0.79083 0.0494,1.56739 -0.28896,2.11717 -0.62941,1.02266 -4.29086,3.08797 -7.95482,4.48705 -2.27849,0.87001 -2.5238,0.8989 -3.61277,0.42563 -1.34286,-0.58367 -1.53512,-0.54774 -2.50934,0.46895 -0.95155,0.99301 -6.68314,3.77965 -9.90274,4.81458 l -2.57708,0.82842 0.1748,2.05934 c 0.38958,4.58956 -1.24567,6.92507 -7.82138,11.17069 -3.04955,1.96895 -3.96305,2.7286 -5.09121,4.23371 -1.78235,2.37791 -2.44647,2.80103 -3.9243,2.50024 z m 8.93888,-14.57679 c 0.91577,-0.92438 0.54544,-1.74602 -0.92843,-2.05991 -1.69487,-0.36095 -3.96171,0.73013 -5.95445,2.86601 -1.41604,1.51776 -1.65978,2.20383 -0.91189,2.56679 0.48267,0.23425 7.0264,-2.59729 7.79477,-3.37289 z m 7.0505,-10.62379 0.77381,-1.5034 -1.60775,-3.72896 c -1.76252,-4.08796 -4.16549,-9.16951 -4.79617,-10.14247 -0.5003,-0.77182 -1.90664,-0.32069 -3.19344,1.02439 l -0.8619,0.90095 1.04863,2.84994 c 0.939,2.55199 1.01705,3.02445 0.74676,4.51931 -0.33494,1.85226 -1.39715,3.51563 -3.2586,5.10282 -0.67807,0.57816 -1.16596,1.23298 -1.08421,1.45514 0.15833,0.43031 0.67773,0.40089 3.17312,-0.17973 2.09765,-0.48807 4.07022,-0.2702 6.03617,0.66672 0.89207,0.42513 1.7632,0.72025 1.93586,0.65582 0.17261,-0.0645 0.66212,-0.79366 1.08772,-1.62053 z m 14.2495,-5.73662 c 0.65132,-1.80147 0.4165,-3.14874 -1.62849,-9.34313 -1.64269,-4.97578 -1.97203,-5.75367 -2.64836,-6.25532 -1.00524,-0.74561 -2.69678,-0.4791 -3.66309,0.57712 -0.93805,1.02533 -2.03951,3.79449 -1.92705,4.84475 0.0504,0.47019 1.39256,2.96052 3.10244,5.75623 2.90525,4.75019 3.06077,4.94416 4.32195,5.3902 1.6618,0.58776 1.91592,0.48685 2.4426,-0.96983 z m 50.15273,-18.45364 c 0.65133,-1.80148 0.4165,-3.14874 -1.62849,-9.34313 -1.64269,-4.97578 -1.97203,-5.75367 -2.64836,-6.25532 -1.00524,-0.74561 -2.69678,-0.4791 -3.6631,0.57712 -0.95479,1.04365 -2.03877,3.80131 -1.92218,4.89012 0.0563,0.5257 1.25175,2.76829 2.99923,5.62634 2.59588,4.24563 3.03926,4.81905 4.15908,5.37874 1.59395,0.79669 2.16675,0.61156 2.70382,-0.87387 z m -37.98047,13.90021 c -0.27662,-0.72572 -1.84465,-2.63829 -2.35589,-2.87452 -0.41668,-0.19252 -0.54437,-0.13014 -0.65323,0.3191 -0.19749,0.81503 0.91675,2.80365 1.69587,3.02667 0.85206,0.24391 1.49783,0.0122 1.31324,-0.47127 z m -42.67965,4.5684 c 0.78669,-1.027 -1.98217,-3.05276 -3.43961,-2.5165 -1.72748,0.63563 -3.43722,3.06472 -2.72771,3.87535 0.1858,0.21226 0.83065,0.35047 1.43301,0.3071 1.40802,-0.10137 4.32103,-1.12642 4.73432,-1.66591 z m 51.47699,-22.37438 c 1.09663,-0.76578 0.63026,-1.666 -1.25575,-2.42397 -2.08861,-0.83941 -2.94661,-0.40854 -4.31371,2.16625 -0.89744,1.69023 -1.02238,2.60705 -0.39477,2.89703 0.30121,0.13917 4.89899,-1.89549 5.96423,-2.63931 z m -87.14523,53.76291 c -0.92027,0.0948 -2.24973,0.0548 -2.95436,-0.0888 -1.95056,-0.39743 -5.7501,-2.38383 -7.27805,-3.80499 -0.7507,-0.69822 -1.56109,-1.19732 -1.80085,-1.1091 -0.23978,0.0882 -0.70336,1.07761 -1.03018,2.19863 -0.80262,2.75298 -2.26683,5.40372 -3.91312,7.08416 -1.072146,1.09439 -1.812825,1.5554 -3.467971,2.15849 -1.86218,0.6788 -2.408486,0.72539 -4.743015,0.40657 -3.171027,-0.43305 -4.749168,-1.10943 -5.711885,-2.44808 -0.997745,-1.38735 -1.128215,-1.79383 -2.529742,-7.88123 -0.68206,-2.96247 -1.39216,-5.56004 -1.578001,-5.77236 -0.185842,-0.21233 -1.07238,-0.29962 -1.970076,-0.194 -0.897696,0.10563 -1.962487,0.019 -2.3662,-0.19257 -0.40371,-0.21153 -0.983355,-0.29288 -1.2881,-0.18075 -0.503705,0.18534 -0.449459,0.48321 0.596476,3.27552 0.632803,1.6894 1.991751,5.02136 3.019857,7.40435 l 1.869285,4.33271 1.264519,0.53283 c 0.695484,0.29304 1.372018,0.77694 1.50339,1.07531 1.121576,2.54713 0.448124,3.32446 -5.37125,6.19979 -3.646621,1.80179 -4.858309,2.07735 -6.194302,1.40871 -1.030193,-0.51559 -1.823329,-0.40748 -2.146815,0.29264 -0.19316,0.41806 -4.374313,2.69723 -8.689667,4.73681 -1.933811,0.91399 -2.410555,1.02963 -3.457324,0.83865 -1.057257,-0.1929 -1.613478,-0.0544 -4.303374,1.07174 l -3.089184,1.29329 -1.551244,-2.13087 c -1.9289,-2.64963 -1.958176,-2.73302 -1.404778,-4.00146 0.249079,-0.57088 0.66492,-2.49682 0.924086,-4.27988 0.504911,-3.47378 1.093478,-4.57517 2.526912,-4.72866 1.410858,-0.15107 2.004296,0.61954 3.401669,4.41728 1.13348,3.08053 1.330693,3.4387 1.847485,3.35482 1.151706,-0.18693 1.230875,-1.01204 0.331591,-3.45608 -0.888458,-2.41462 -4.989277,-11.14066 -5.674859,-12.0754 -0.216629,-0.29537 -1.180915,-0.87174 -2.142843,-1.28083 -2.019272,-0.85875 -3.003654,-2.15192 -2.858206,-3.75477 0.115773,-1.27582 1.297742,-2.50402 3.790345,-3.93861 2.412092,-1.38825 3.565002,-1.39688 5.093396,-0.0381 0.557402,0.49553 1.167896,0.84454 1.35667,0.7756 0.188718,-0.0691 1.778777,-1.26734 3.533338,-2.66307 5.644395,-4.49004 9.007694,-4.92292 12.693963,-1.63377 0.906761,0.80907 1.839964,1.40064 2.073797,1.3146 0.233834,-0.086 0.48171,-0.60768 0.550832,-1.1592 0.159211,-1.27047 1.085991,-2.19432 3.223887,-3.21375 1.949553,-0.92961 2.202495,-1.49874 1.700029,-3.82498 -0.474283,-2.19573 -0.02302,-2.78856 2.989311,-3.92708 2.232607,-0.84387 2.623761,-0.90244 3.511301,-0.52605 1.232084,0.52249 1.756894,1.38211 2.325378,3.80889 0.569856,2.43268 0.951626,2.7531 2.815383,2.36317 3.293044,-0.68897 5.099175,0.23167 4.998678,2.54794 -0.0778,1.79317 -0.560345,2.31497 -2.865308,3.09838 -1.134304,0.38551 -2.340501,0.71355 -2.680459,0.72894 -1.661225,0.0752 -1.631516,1.81415 0.13035,7.62944 1.060887,3.50164 1.091045,3.55965 1.97167,3.79244 0.491858,0.13003 1.106366,0.15838 1.365576,0.063 0.502194,-0.18478 1.564393,-2.45578 2.537733,-5.42574 0.71483,-2.18117 1.829496,-3.20791 3.647096,-3.35944 1.63866,-0.13662 1.92078,-0.67553 1.2784,-2.44177 -0.71845,-1.97576 -1.17198,-5.48988 -0.99883,-7.74122 0.0891,-1.15807 0.62659,-2.96015 1.34987,-4.52554 1.02172,-2.21132 1.47304,-2.80826 3.01124,-3.98282 0.99516,-0.75991 2.51588,-1.6416 3.37939,-1.95933 6.60559,-2.43052 11.67143,-0.14488 14.77725,6.66732 1.04716,2.29679 1.06566,3.44719 0.0719,4.46861 -0.33621,0.34554 -2.88422,1.84841 -5.66226,3.33969 -2.77805,1.49128 -5.15652,2.8461 -5.28549,3.01071 -0.34871,0.44501 0.5386,2.59661 1.39331,3.37856 0.47391,0.43357 1.37807,0.71636 2.47967,0.77555 2.7854,0.14968 3.08174,-0.0816 4.42696,-3.4551 1.24904,-3.1323 1.62438,-3.50053 3.34795,-3.28453 2.6413,0.33102 3.99585,2.39636 3.26436,4.97732 -0.63585,2.24348 -1.98973,4.60007 -3.5103,6.11007 -1.65333,1.64183 -5.28791,3.283 -7.85626,3.54743 z m -45.241522,9.59233 c 0.668719,-1.84958 0.425426,-3.23123 -1.670707,-9.4877 l -1.948495,-5.81584 -1.064362,-0.49178 c -0.655124,-0.30269 -1.398679,-0.36877 -1.933898,-0.17183 -1.489519,0.54806 -3.436627,4.04317 -3.24571,5.82613 0.131985,1.23266 6.007386,10.60713 6.718838,10.72021 0.333623,0.053 0.919934,0.27174 1.30292,0.48603 0.962104,0.53833 1.340861,0.31922 1.841414,-1.06522 z m 43.794112,-30.75609 c 0.39375,-0.27598 0.62161,-0.74326 0.54385,-1.11533 -0.18175,-0.86975 -3.11339,-2.04013 -4.15249,-1.6578 -1.05455,0.38802 -3.10879,4.54257 -2.55753,5.17241 0.33737,0.38544 0.68699,0.29691 2.93574,-0.74339 1.40402,-0.64951 2.85771,-1.39467 3.23043,-1.65589 z m 137.5923,-28.81316 c -1.27051,0.0637 -2.71375,-0.56695 -3.99171,-1.74437 -0.79745,-0.73473 -1.15706,-1.37204 -1.55618,-2.75823 -0.46034,-1.59862 -0.4362,-1.9879 0.21328,-3.43866 0.62473,-1.39551 0.65007,-1.69205 0.17224,-2.01765 -1.09681,-0.74745 -1.77234,-1.67884 -2.97194,-4.09745 -0.6686,-1.34804 -2.42076,-4.84618 -3.89372,-7.77362 -1.47295,-2.92744 -3.27823,-6.89318 -4.01177,-8.81273 -1.50888,-3.94875 -1.48771,-4.74504 0.17477,-6.56749 1.1485,-1.25902 3.6883,-2.46895 4.84904,-2.31002 1.35669,0.18575 2.22964,1.67075 5.50852,9.37072 l 2.99548,7.03444 0.50244,4.75925 c 0.48725,4.61544 0.43841,6.19291 -0.21677,7.00145 -0.55809,0.68869 -0.055,1.19907 2.21642,2.24856 1.85228,0.85584 2.3474,1.25115 2.95471,2.3591 1.74246,3.17877 0.25519,6.58617 -2.94481,6.7467 z M 43.709189,294.94289 c -0.773692,-0.064 -1.625746,-0.25189 -1.893441,-0.41753 -0.267704,-0.16564 -1.505308,-1.80601 -2.750247,-3.64525 l -2.263508,-3.34408 0.861803,-0.3171 c 0.687592,-0.253 0.929349,-0.6349 1.19596,-1.8892 0.413316,-1.94442 0.795409,-2.5695 1.806668,-2.95549 1.816451,-0.69329 2.825496,0.34699 5.963909,6.14861 1.386,2.56216 1.540652,3.67474 0.673316,4.84409 -0.877325,1.18282 -2.062945,1.70263 -3.59446,1.57595 z m -1.446775,-16.07314 c -0.570583,-0.0735 -1.715053,-0.40599 -2.543258,-0.73884 -2.480231,-0.99679 -2.718121,-0.97355 -5.798387,0.5665 -1.523059,0.76147 -2.805164,1.35621 -2.849113,1.32161 -0.103316,-0.0813 -1.387996,-1.75247 -2.946725,-3.83317 l -1.23169,-1.64413 4.284579,-1.82425 c 5.769188,-2.45634 10.560404,-3.86896 11.574879,-3.41256 0.902477,0.40599 3.484897,4.17074 3.596934,5.24375 0.130621,1.25102 -0.237492,2.31422 -1.109369,3.20415 -1.030958,1.05228 -1.656999,1.28711 -2.977864,1.1169 z m 322.257466,-121.9493 -1.11025,-0.41731 -1.70461,-4.85107 c -1.74382,-4.96286 -7.1441,-22.84465 -7.60052,-25.16775 -0.36489,-1.85704 0.2915,-2.95493 2.97937,-4.98346 6.61935,-4.99556 8.79593,-5.6207 11.54482,-3.31578 1.12116,0.94005 1.22838,1.1687 3.5576,7.58702 5.70857,15.73001 5.78962,20.77615 0.42016,26.14548 -1.52814,1.52811 -5.97761,5.0527 -6.72636,5.3282 -0.13748,0.0506 -0.7496,-0.0958 -1.36021,-0.32533 z m -269.882509,2.59671 c -4.006151,0.59395 -10.271079,-1.3515 -11.915998,-3.70026 -1.122628,-1.60301 -1.22781,-3.42118 -0.324284,-5.60594 1.354241,-3.27464 3.976132,-5.15606 7.857006,-5.63802 4.073105,-0.50584 6.070372,0.11028 8.590741,2.65015 2.121054,2.13744 3.428824,5.1628 3.104214,7.18121 -0.14339,0.89157 -0.58573,1.83126 -1.11757,2.37411 -1.040685,1.06222 -4.145482,2.43502 -6.194109,2.73875 z M 121.49372,86.585056 c -2.33094,-0.07585 -3.19449,-2.685387 -3.422,-10.340819 -0.31804,-10.701712 2.39373,-20.600108 5.74883,-20.984143 1.23981,-0.141914 2.44129,0.501443 3.30905,1.771878 1.14601,1.677826 1.17417,3.425394 0.18644,11.586142 -1.30665,10.796076 -2.46983,15.674983 -4.09736,17.186188 -0.46161,0.428625 -0.88059,0.784787 -0.93104,0.79146 -0.0505,0.0067 -0.40772,0.0019 -0.79392,-0.01071 z"
       id="path22"
       inkscape:connector-curvature="0" />
  </g>
</svg>
