<?xml version="1.0" encoding="UTF-8" standalone="no"?>
<!-- Created with Inkscape (http://www.inkscape.org/) -->

<svg
   xmlns:dc="http://purl.org/dc/elements/1.1/"
   xmlns:cc="http://creativecommons.org/ns#"
   xmlns:rdf="http://www.w3.org/1999/02/22-rdf-syntax-ns#"
   xmlns:svg="http://www.w3.org/2000/svg"
   xmlns="http://www.w3.org/2000/svg"
   xmlns:sodipodi="http://sodipodi.sourceforge.net/DTD/sodipodi-0.dtd"
   xmlns:inkscape="http://www.inkscape.org/namespaces/inkscape"
   version="1.1"
   id="svg94"
   width="299.20001"
   height="345.92001"
   viewBox="0 0 299.20001 345.92001"
   sodipodi:docname="ws2.svg"
   inkscape:version="0.92.4 (5da689c313, 2019-01-14)">
  <metadata
     id="metadata100">
    <rdf:RDF>
      <cc:Work
         rdf:about="">
        <dc:format>image/svg+xml</dc:format>
        <dc:type
           rdf:resource="http://purl.org/dc/dcmitype/StillImage" />
        <dc:title></dc:title>
      </cc:Work>
    </rdf:RDF>
  </metadata>
  <defs
     id="defs98" />
  <sodipodi:namedview
     pagecolor="#ffffff"
     bordercolor="#666666"
     borderopacity="1"
     objecttolerance="10"
     gridtolerance="10"
     guidetolerance="10"
     inkscape:pageopacity="0"
     inkscape:pageshadow="2"
     inkscape:window-width="1680"
     inkscape:window-height="1027"
     id="namedview96"
     showgrid="false"
     inkscape:zoom="2.2599155"
     inkscape:cx="149.60001"
     inkscape:cy="172.96001"
     inkscape:window-x="-8"
     inkscape:window-y="-8"
     inkscape:window-maximized="1"
     inkscape:current-layer="g104" />
  <g
     id="g104">
    <path
       style="display:inline;fill:#800080;stroke-width:0.32000002"
       d="m 136.15625,65.748047 c -0.31236,-0.07411 -0.70082,0.321811 -1.21289,0.880859 -1.69905,1.854944 -6.48853,3.0251 -15.48828,3.78711 -5.78773,0.490048 -7.83725,0.338507 -8.90235,-0.66211 -1.55536,-1.461178 -1.5973,-1.101922 -1.53711,12.902344 0.0845,19.62749 1.15612,39.78306 2.16993,40.79687 0.0816,0.0816 0.97556,0.16581 1.98633,0.1875 2.28483,0.0491 2.26394,-0.009 2.34374,6.2793 0.0745,5.87141 0.35161,8.10604 1.10938,8.94336 0.72895,0.80549 1.33621,0.83774 1.73438,0.0937 0.16555,-0.30934 0.34955,-5.33366 0.41015,-11.16601 0.12708,-12.22223 -0.0506,-11.55175 3.27344,-12.38672 3.04201,-0.76413 7.81712,-1.48142 9.86914,-1.48242 2.0451,-0.001 2.53559,0.42028 2.97461,2.55859 0.32135,1.56518 1.00439,2.79922 1.77734,3.21289 1.06507,0.57001 1.46607,-0.0941 1.66797,-2.76367 0.24794,-3.27835 1.48515,-4.68214 2.58399,-2.92969 0.68438,1.09148 0.81502,2.30057 1.1621,10.76367 0.32856,8.01148 0.64648,10.27539 1.43946,10.27539 0.057,0 0.11195,-0.007 0.16406,-0.0273 0.0521,-0.0198 0.10095,-0.0517 0.14844,-0.0937 0.66478,-0.58865 0.88967,-3.46916 1.03906,-11.87891 0.19771,-11.12983 0.16942,-11.31627 -2.63281,-17.64844 -3.20805,-7.249177 -3.4875,-8.515764 -3.99024,-18.031245 -0.89504,-16.940648 -1.15275,-21.388992 -2.08984,-21.611328 z m 34.59961,0.914062 c -0.99137,0.380426 -1.56489,6.390935 -2.0918,21.917969 L 168.37891,97 l -2.32813,3.58008 c -6.3509,9.77038 -6.40359,9.95475 -7.35547,25.58789 -0.4964,8.15245 -0.17376,9.87297 1.75586,9.38867 0.5131,-0.12878 0.84343,-0.49609 0.97071,-1.07617 0.10622,-0.48416 0.31861,-4.83969 0.47265,-9.67969 0.15404,-4.84 0.42215,-9.16156 0.5957,-9.60156 0.50523,-1.28087 1.52509,-2.0259 2.45313,-1.79297 1.1969,0.3004 1.79904,1.48192 2.17578,4.26563 0.38913,2.87521 0.62418,3.28906 1.86914,3.28906 1.08372,0 1.57227,-0.74738 1.57227,-2.4043 0,-1.65729 1.41327,-3.03711 3.11133,-3.03711 1.66695,0 10.02485,2.07103 10.32617,2.55859 0.1316,0.21295 0.17053,5.16015 0.0859,10.99415 -0.10466,7.21414 -0.0425,10.88978 0.19336,11.48828 0.21734,0.5514 0.58692,0.8789 0.98828,0.8789 1.60209,0 2.04231,-2.47149 2.59766,-14.55859 0.21243,-4.62373 0.55508,-8.69729 0.8125,-9.65234 0.47894,-1.77697 2.79452,-5.03293 3.42774,-4.82032 0.27836,0.0935 0.34545,1.77635 0.25586,6.41211 -0.10515,5.44166 -0.0516,6.39302 0.40624,7.0918 0.69111,1.05475 2.04102,1.10784 2.24805,0.0879 0.1753,-0.86359 0.27639,-2.27985 1.28906,-18.16016 1.24362,-19.50223 1.93934,-34.824375 1.62696,-35.80859 -0.2908,-0.916224 -1.03036,-0.834588 -2.69727,0.294922 -1.70095,1.152583 -2.48456,1.182884 -7.41601,0.294922 -9.01725,-1.623657 -13.14094,-2.940662 -15.22461,-4.861328 -0.78484,-0.723443 -1.57806,-1.196607 -1.83594,-1.097657 z m -38.53906,8.896485 c 0.45297,0.0011 0.78855,0.0241 0.98047,0.07227 1.39782,0.350829 1.63505,1.89514 1.66015,10.824219 0.0212,7.542896 -0.007,7.933673 -0.65039,8.798828 -0.97548,1.311795 -2.77594,1.852893 -9.24609,2.777344 -10.52875,1.504345 -11.84768,1.441121 -12.36328,-0.591797 -0.40992,-1.616234 -1.23828,-11.299604 -1.23828,-14.484375 0,-2.867533 0.0412,-3.045113 0.90039,-3.904297 0.66116,-0.661156 1.53358,-1.037986 3.28125,-1.419922 4.64588,-1.015305 13.50497,-2.080213 16.67578,-2.072265 z m 43.00781,1.255859 c 0.35616,0.0092 0.80268,0.04057 1.38867,0.08594 2.84621,0.220352 10.57065,1.815649 14.36133,2.964843 4.15006,1.258147 4.03986,1.021355 3.79101,8.101563 -0.31434,8.944365 -1.10359,12.903113 -2.74804,13.783203 -0.33861,0.18121 -0.6612,0.31859 -0.7168,0.30469 -0.66779,-0.16701 -9.28028,-2.156354 -13.30078,-3.072268 -2.85999,-0.651536 -5.37698,-1.293767 -5.59375,-1.427734 -0.49666,-0.306948 -0.94125,-14.231492 -0.54492,-17.074219 0.22009,-1.578669 0.45109,-2.084589 1.29687,-2.84375 0.74524,-0.668924 0.99792,-0.84998 2.06641,-0.822266 z m -96.201172,1.90625 c -0.655414,0.04494 -1.355232,0.811182 -1.90625,2.201172 -1.450125,3.658051 -12.313301,10.127589 -16.712891,9.953125 -0.750163,-0.02972 -1.710406,-0.04171 -2.132813,-0.02539 l -0.767578,0.03125 0.216797,3.81836 c 0.118736,2.100982 0.939687,10.922551 1.824219,19.601561 0.884528,8.67902 1.69062,18.1546 1.792969,21.0586 0.182745,5.1851 0.173535,5.29143 -0.533203,5.91992 -0.623752,0.55473 -1.131071,0.63459 -3.802735,0.59179 -5.303681,-0.085 -9.015572,-0.9416 -9.595703,-2.21484 -0.469152,-1.02968 -1.346841,-5.9893 -2.759766,-15.5918 -1.544115,-10.49409 -2.412913,-13.98437 -3.484375,-13.98437 -0.551798,0 -0.723184,0.70146 -1.167968,4.80078 -0.536451,4.94417 -1.725448,8.56965 -4.300782,13.11328 -0.588822,1.03886 -0.8125,1.905 -0.8125,3.13477 0,6.7678 6.450144,50.90756 8.138672,55.69336 0.714201,2.02427 1.704587,6.9047 2.919922,14.39257 0.615187,3.79026 1.277703,7.5246 1.472656,8.29883 0.428839,1.70308 1.479875,2.55622 2.486329,2.01758 0.620609,-0.33214 0.661415,-0.63453 0.666015,-4.90234 0.0027,-2.50181 0.122249,-4.73303 0.265625,-4.95899 0.418682,-0.65984 1.142045,-0.16449 2.84375,1.94922 4.674871,5.8067 4.897591,6.38059 6.322266,16.30274 0.825635,5.75009 1.543571,9.02789 2.134765,9.74023 0.517728,0.62383 1.799703,0.50519 2.177735,-0.20117 0.541248,-1.01133 0.382651,-4.94453 -0.480469,-11.88672 -0.933098,-7.50503 -1.104236,-11.64183 -0.525391,-12.68945 C 64.053076,203.52678 72.791764,200 75.40625,200 c 1.171732,0 2.881608,-0.81404 4.351562,-2.07227 1.598506,-1.36829 3.110797,-1.84995 4.400391,-1.40039 1.565597,0.54577 1.750235,1.64175 3.203125,18.99219 2.541722,30.35326 2.948595,33.12109 4.861328,33.12109 0.373357,0 0.675826,-0.0515 0.919922,-0.17968 0.122048,-0.0641 0.230065,-0.14789 0.324219,-0.25391 0.470769,-0.5301 0.611031,-1.62568 0.605469,-3.69726 -0.0045,-1.68872 -0.149334,-4.50878 -0.320313,-6.26758 -0.436119,-4.48616 0.13494,-5.92188 2.353516,-5.92188 1.509943,0 21.679181,5.75715 22.470701,6.41407 0.22993,0.19082 0.44235,2.43576 0.58008,6.14257 0.33604,9.04473 0.82073,11.48786 2.44336,12.3086 1.05897,0.53564 1.17164,0.52368 1.91992,-0.22461 0.2138,-0.21379 0.35725,-0.41825 0.45313,-0.77344 0.0319,-0.1184 0.0598,-0.25405 0.082,-0.41211 0.0889,-0.63225 0.10642,-1.62904 0.10742,-3.375 0.001,-2.156 -0.16227,-7.90871 -0.36133,-12.7832 l -0.36133,-8.86328 2.15235,-3.77735 c 2.52602,-4.43188 4.47737,-7.13672 5.14648,-7.13672 0.80645,0 1.0921,1.42666 1.54297,7.70704 0.27126,3.77855 0.58493,6.22684 0.83594,6.52929 0.5947,0.71657 1.83805,0.59868 2.27343,-0.21484 0.72504,-1.35472 1.20593,-19.5426 0.62305,-23.57422 -0.16167,-1.11821 -0.53061,-2.29337 -0.81836,-2.61133 -0.28775,-0.31796 -2.56355,-1.25568 -5.05859,-2.08398 -6.76266,-2.24504 -7.05389,-2.44186 -7.39453,-5.00977 -0.22593,-1.70311 -1.47528,-3.46289 -2.45899,-3.46289 -0.34059,0 -1.35058,0.50509 -2.24609,1.12109 -0.89551,0.616 -1.98065,1.11915 -2.41016,1.11915 -1.07104,0 -4.43933,-0.77142 -10.50781,-2.40626 -8.900247,-2.39772 -11.184785,-3.52267 -15.085937,-7.42382 -4.813284,-4.81328 -16.307467,-18.53468 -16.646484,-19.87305 -0.267987,-1.05796 0.123397,-1.29829 2.453125,-1.51367 1.133011,-0.10475 2.178698,-0.26557 2.324218,-0.35547 0.261655,-0.1617 0.184473,-1.92068 -0.429687,-9.70703 -0.363715,-4.61122 -1.1229,-10.94108 -1.595703,-13.31446 -0.40664,-2.04125 -0.927312,-2.31532 -5.060547,-2.66406 -2.846247,-0.24015 -3.093254,-0.3187 -3.921875,-1.24609 -1.242179,-1.39024 -1.662616,-3.20133 -1.666016,-7.18359 -0.0034,-3.98032 0.439525,-4.97659 2.441407,-5.48438 2.947545,-0.74766 11.218101,4.10055 12.58789,7.37891 0.233139,0.55799 0.722046,4.52052 1.085938,8.80468 0.72896,8.58219 1.317174,12.43743 2.072265,13.58985 0.638426,0.97436 0.91861,0.95523 1.775391,-0.1211 0.673929,-0.84662 0.693934,-1.07419 0.519531,-6 -0.0997,-2.816 -0.338794,-7.45129 -0.533203,-10.30078 -0.481645,-7.05958 -0.457917,-7.13545 3.292969,-10.14062 3.935946,-3.15344 8.760053,-6.2793 9.691406,-6.2793 1.615962,0 2.034502,1.89982 2.359372,10.7207 0.28877,7.84056 0.51827,8.99348 1.85938,9.33008 0.1932,0.0485 0.36563,0.0783 0.52148,0.084 1.09098,0.0395 1.31907,-1.11628 1.41016,-5.50391 0.10908,-5.25413 -0.66875,-19.34108 -1.08984,-19.73633 -0.15647,-0.14685 -3.30791,-1.84534 -7.003911,-3.77539 -7.926778,-4.13938 -11.434123,-6.22437 -12.279297,-7.29883 -0.800807,-1.01806 -1.160777,-3.2302 -1.949219,-11.978512 -1.068368,-11.854274 -1.668596,-16.761033 -2.140625,-17.521485 -0.318368,-0.512897 -0.694642,-0.745715 -1.08789,-0.71875 z m 147.187502,4.191406 c -0.21239,0.05464 -0.40722,0.228203 -0.56836,0.529297 -0.44212,0.826096 -1.49838,7.500844 -2.5957,16.398438 -1.36533,11.070656 -1.5999,12.548406 -2.11915,13.359376 -0.65076,1.01635 -6.52191,3.79624 -14.33398,6.78711 -3.67723,1.40783 -6.76676,2.64177 -6.86719,2.74219 -0.35316,0.35317 -1.63991,13.1728 -1.85156,18.45312 -0.18809,4.69282 -0.14925,5.44053 0.32227,6.16016 0.98734,1.50687 2.48415,0.84182 3.05078,-1.35547 0.16816,-0.65208 0.45568,-3.92163 0.63867,-7.26563 0.35064,-6.40778 0.62613,-7.96166 1.62109,-9.17578 l 0.60938,-0.74414 1.38281,0.72852 c 1.98097,1.04563 10.82031,8.68047 10.82031,9.3457 0,0.1489 -0.36078,3.98197 -0.80078,8.51758 -0.85004,8.76237 -1.01064,13.8566 -0.46875,14.86914 0.1822,0.34043 0.59163,0.61914 0.91016,0.61914 1.49126,0 2.18248,-2.30616 3.06836,-10.24024 1.03396,-9.26031 1.74494,-11.79599 3.97461,-14.17968 1.55509,-1.66252 4.69826,-3.43108 8.27734,-4.65625 5.13375,-1.75735 6.4403,-0.26079 6.0918,6.97656 -0.17687,3.67294 -0.81758,5.27976 -2.49219,6.25 -0.96789,0.56078 -1.85936,0.67033 -6.56055,0.80859 L 222.88086,148 l -0.2207,4.48047 c -0.0606,1.232 -0.19011,3.0146 -0.34961,4.89453 -0.1595,1.87993 -0.34983,3.85625 -0.53125,5.47656 -0.91316,8.15587 -0.88231,9.86808 0.21093,11.82617 0.74932,1.34209 0.81862,1.67301 0.4961,2.38086 -0.24312,0.53359 -0.7823,0.93612 -1.53711,1.14453 -1.47795,0.40809 -4.52808,2.72123 -10.38867,7.88086 -6.00002,5.28238 -7.3553,6.18475 -9.5293,6.34571 -1.56188,0.11565 -1.83821,0.26961 -3.69922,2.05664 -2.37427,2.27989 -3.44294,2.67639 -11.86523,4.41211 -7.58841,1.56386 -12.79118,2.38079 -15.16016,2.38086 -1.92571,6e-5 -2.06518,-0.0546 -3.26562,-1.2793 -0.69007,-0.704 -1.38569,-1.2793 -1.54493,-1.2793 -0.15923,0 -0.65313,0.28511 -1.09765,0.63477 -0.60983,0.47969 -0.89412,1.12831 -1.15625,2.64062 -0.47453,2.73773 -1.58391,3.75211 -5.36133,4.9043 -3.58724,1.09417 -4.44105,1.8902 -4.81055,4.48438 -0.1484,1.04195 -0.26953,6.58095 -0.26953,12.30859 0,9.43061 0.0526,10.49694 0.56641,11.28125 0.83818,1.27947 2.05453,1.17733 2.63867,-0.2207 0.35065,-0.83923 1.43359,-8.95515 1.43359,-10.74414 0,-0.18101 0.20214,-0.33008 0.44727,-0.33008 0.5941,0 3.24479,6.09504 3.68359,8.46875 0.22929,1.24063 0.27389,5.69426 0.13477,13.44922 -0.11443,6.37401 -0.1163,11.82657 -0.006,12.11914 0.28906,0.74419 2.94991,0.73662 3.23633,-0.01 0.11234,-0.29275 0.34388,-3.07789 0.51367,-6.18945 0.33738,-6.18251 0.7032,-8.69294 1.43164,-9.80469 0.52706,-0.80438 2.5981,-1.49981 8.31836,-2.79492 10.50349,-2.37811 18.11723,-3.36997 18.45312,-2.40235 0.0847,0.24405 -0.0273,2.45983 -0.24804,4.92383 -0.58293,6.50613 -0.5638,9.91472 0.0586,10.53711 0.5399,0.5399 1.64396,0.65327 2.30078,0.23633 0.56229,-0.35693 1.21834,-4.07518 1.81641,-10.29297 1.41881,-14.75084 1.7884,-16.92936 3.0664,-18.08594 1.82479,-1.65141 2.52316,-4.14956 3.17383,-11.35351 0.7581,-8.39336 1.29248,-11.32611 2.11719,-11.64258 0.80133,-0.3075 4.10959,0.98315 10.22266,3.98828 6.61091,3.24987 10.56541,5.68572 11.08593,6.82813 0.38198,0.83836 -0.0176,5.42582 -1.33007,15.22656 -0.34175,2.552 -0.62491,5.6141 -0.62891,6.80469 -0.007,2.09118 0.0274,2.18503 1.00781,2.78125 1.24023,0.75423 1.96585,0.46137 2.47461,-0.99805 0.1965,-0.56367 0.7944,-4.02875 1.32813,-7.69922 1.16433,-8.00725 1.77626,-10.14073 3.62109,-12.61914 2.22052,-2.98311 6.6924,-7.15039 7.67187,-7.15039 1.36591,0 1.56495,0.84369 1.31446,5.57031 -0.24115,4.5505 -0.0218,5.62891 1.15039,5.62891 0.77397,0 1.74902,-1.50048 2.38867,-3.67969 0.2583,-0.88 1.12006,-5.40805 1.91602,-10.0625 0.79596,-4.65446 1.69786,-8.97407 2.0039,-9.59961 0.50502,-1.03229 0.69433,-1.14677 2.05078,-1.23437 0.82198,-0.0531 1.63332,-0.26954 1.80274,-0.48047 0.59718,-0.7435 2.23849,-9.57531 4.67969,-25.18164 4.88993,-31.26074 4.85118,-30.89312 3.57617,-34.28321 -0.8942,-2.3776 -1.35649,-5.35856 -1.64844,-10.61718 -0.24152,-4.35032 -0.4731,-5.4622 -1.16602,-5.59571 -1.07656,-0.20743 -2.02051,3.83973 -4.4121,18.92774 -0.95649,6.03425 -1.66613,9.64691 -1.92774,9.80859 -0.22778,0.14077 -2.65805,0.36181 -5.39844,0.49024 -6.73066,0.31545 -6.61728,0.38144 -6.55468,-3.86914 0.0258,-1.75035 0.85134,-9.30321 1.83398,-16.78321 2.90486,-22.11209 3.59719,-28.793268 3.08203,-29.755857 -0.28225,-0.527396 -0.65121,-0.610576 -2.48633,-0.566406 -2.60966,0.06281 -3.46268,-0.334416 -7.95117,-3.693359 -3.95261,-2.957918 -6.92668,-6.038992 -7.47461,-7.744141 -0.52631,-1.637887 -1.32181,-2.531122 -1.95898,-2.367188 z M 76.755859,91.550781 c 0.43402,-0.01179 0.734927,0.124558 0.958985,0.394531 0.193875,0.233607 0.489333,1.420278 0.658203,2.638672 0.482042,3.477929 1.369558,16.414916 1.150391,16.769536 -0.288523,0.46683 -9.669679,6.84425 -11.498047,7.8164 -1.847748,0.98246 -2.772381,1.04486 -3.50586,0.23438 -0.89887,-0.99324 -1.139421,-2.42931 -1.824219,-10.875 -0.606255,-7.47698 -0.617668,-8.15648 -0.140624,-8.683597 0.857696,-0.947744 7.821957,-5.49369 10.658203,-6.957031 1.72534,-0.890178 2.819602,-1.318235 3.542968,-1.337891 z m 151.863281,5.082031 c 1.13605,-0.06177 3.23746,1.238142 7.39648,4.345708 4.32313,3.23018 5.9043,4.89809 5.9043,6.22851 0,1.25079 -1.49497,12.77302 -1.9375,14.93359 -0.18706,0.91332 -0.62985,2.02978 -0.98437,2.48047 -0.35452,0.45069 -0.96686,0.81836 -1.36133,0.81836 -1.29702,0 -7.59742,-4.58842 -10.75586,-7.83398 l -1.44141,-1.48047 0.0566,-3.42188 c 0.081,-4.95111 1.16806,-12.923714 2.07032,-15.183589 0.21914,-0.548887 0.53635,-0.858643 1.05273,-0.886719 z m -76.29297,11.531248 c -2.57304,-0.005 -5.14624,0.0896 -5.26953,0.28906 -0.17337,0.28052 0.53758,3.85075 0.87695,4.40235 0.0896,0.14558 2.12143,0.22147 4.51368,0.16797 l 4.34961,-0.0977 0.19335,-0.86328 c 0.10662,-0.47449 0.32987,-1.40625 0.4961,-2.07031 0.16622,-0.66406 0.21564,-1.34759 0.10937,-1.51953 -0.12356,-0.19995 -2.69648,-0.30392 -5.26953,-0.3086 z m -38.08594,6.39649 c 0.35993,0 0.70875,0.37962 0.92774,1.00781 0.37705,1.08163 0.47752,4.37295 0.1582,5.20508 -0.37749,0.98372 -1.50247,0.49452 -2.02539,-0.88086 -0.74591,-1.96189 -0.15228,-5.33203 0.93945,-5.33203 z m -7.92773,0.46679 c -0.79476,-0.0117 -3.27344,0.76397 -3.27344,1.09375 0,0.12678 0.66299,0.55391 1.47266,0.94727 1.00057,0.48612 1.58673,1.01935 1.83008,1.66406 0.37293,0.98802 0.68047,1.17481 1.02148,0.62305 0.22374,-0.36202 -0.44724,-3.84025 -0.82422,-4.27149 -0.0327,-0.0374 -0.11302,-0.055 -0.22656,-0.0566 z m 92.76953,0.45899 c -0.10969,0.0176 -0.17389,0.0622 -0.19531,0.13086 -0.28778,0.92183 -0.50769,3.44847 -0.32617,3.74219 0.1095,0.17716 0.58537,0.22976 1.05859,0.11523 1.49537,-0.36192 4.92772,-2.09702 4.64844,-2.34961 -0.14725,-0.13319 -1.39067,-0.61261 -2.76367,-1.06641 -1.34006,-0.44291 -2.09281,-0.62508 -2.42188,-0.57226 z m -45.98047,13.80664 c -0.46461,0.0109 -0.82906,0.12526 -0.96289,0.3418 -0.27747,0.44897 0.43293,0.91392 1.40821,0.91992 0.45498,0.003 0.69402,0.16251 0.61132,0.40625 -0.14224,0.41917 -1.59842,0.48852 -4.71093,0.22656 l -1.75196,-0.14844 -0.39258,2.14844 c -0.17911,0.97935 -0.36925,1.73739 -0.59765,2.35156 -0.43474,1.05098 -1.04095,1.76575 -1.82227,2.1543 -0.0207,0.0103 -0.0376,0.0231 -0.0586,0.0332 -0.84376,0.39813 -1.61607,0.47304 -2.29492,0.25196 -0.0708,-0.0234 -0.13827,-0.0561 -0.20703,-0.0859 -0.0574,-0.0247 -0.11596,-0.0451 -0.17188,-0.0742 -0.0891,-0.0468 -0.17443,-0.10415 -0.25977,-0.16211 -0.0371,-0.0251 -0.075,-0.0471 -0.11132,-0.0742 -0.0836,-0.0628 -0.16456,-0.13523 -0.24414,-0.20898 -0.0343,-0.0318 -0.0699,-0.0599 -0.10352,-0.0937 -0.0788,-0.0795 -0.15403,-0.16926 -0.22852,-0.25977 -0.0305,-0.0371 -0.062,-0.0704 -0.0918,-0.10937 -0.063,-0.0823 -0.12202,-0.17511 -0.18164,-0.26563 -0.0405,-0.0617 -0.0821,-0.12005 -0.1211,-0.18555 -0.053,-0.0889 -0.10235,-0.18544 -0.15234,-0.28125 -0.0371,-0.0713 -0.0759,-0.13973 -0.11133,-0.21484 -0.0466,-0.0987 -0.0892,-0.20541 -0.13281,-0.31055 -0.0337,-0.0812 -0.0678,-0.161 -0.0996,-0.24609 -0.0719,-0.19196 -0.12536,-0.41974 -0.1875,-0.63086 -0.0697,-0.23594 -0.14369,-0.46306 -0.20117,-0.72266 -0.0656,-0.29978 -0.11411,-0.63062 -0.16211,-0.96093 -0.0377,-0.25151 -0.0877,-0.48098 -0.11524,-0.75 -0.0859,-0.83871 -0.13871,-1.33393 -0.23437,-1.63672 -0.0347,-0.19832 -0.0753,-0.45722 -0.0996,-0.54492 -0.18104,-0.6526 -1.25695,-0.73071 -2.57227,-0.1875 -0.49546,0.20461 -1.91593,0.46629 -3.15625,0.58203 -1.61272,0.15049 -2.53776,0.42017 -3.24804,0.94531 -0.97337,0.71964 -1.01295,0.72247 -1.96485,0.16016 -0.93512,-0.55235 -1.06743,-0.5529 -3.55664,0.0156 -1.42208,0.32479 -2.70949,0.74695 -2.86133,0.9375 -0.0413,0.0518 -0.085,0.2288 -0.1289,0.47266 l -0.14063,0.0371 -0.13281,2.9375 c -0.005,0.0958 -0.0153,0.16276 -0.0195,0.25976 -0.0805,1.85932 -0.23882,3.12791 -0.54883,4.00977 -8.8e-4,0.002 -0.003,0.007 -0.004,0.01 -0.009,0.0246 -0.0203,0.0424 -0.0293,0.0664 -0.15111,0.40199 -0.33341,0.72801 -0.5586,0.98437 -0.11882,0.13504 -0.24778,0.25241 -0.39062,0.35547 -0.001,8.2e-4 -0.003,0.001 -0.004,0.002 -0.14302,0.10282 -0.29756,0.19242 -0.46679,0.26953 -1.85144,0.84357 -3.92061,0.16096 -5.22266,-1.37305 -0.062,-0.0736 -0.12719,-0.14329 -0.18555,-0.2207 -0.0242,-0.0319 -0.0448,-0.0671 -0.0684,-0.0996 -0.54754,-0.76126 -0.92115,-1.69416 -1.02148,-2.73828 -0.0111,-0.11569 -0.0265,-0.18806 -0.0391,-0.29688 -0.0185,-0.15164 -0.0381,-0.30741 -0.0586,-0.43554 C 112.86328,136.37627 112.78874,136 112.73633,136 c -0.001,0 -0.0447,0.0173 -0.0469,0.0176 -0.32121,-0.56013 -0.95901,-0.37635 -2.54687,0.27344 L 108,137.16797 l -0.0449,0.76367 -0.11524,0.0488 v 1.90039 l -0.0273,0.46289 c -0.0918,1.54715 -0.29445,2.90389 -0.58398,4.00977 -0.32054,1.1156 -0.73222,2.06558 -1.16602,2.54492 -0.002,0.002 -0.004,0.006 -0.006,0.008 -0.10808,0.11972 -0.19055,0.21805 -0.23828,0.29492 -0.0478,0.0777 -0.0627,0.13911 -0.041,0.18945 0.0223,0.0503 0.0802,0.091 0.17969,0.13086 0,0 0.002,0 0.002,0 0.10001,0.0401 0.24073,0.0805 0.42579,0.12696 0.71363,0.1791 0.81454,0.37288 0.81054,1.55859 -0.003,0.74465 -0.11092,1.50826 -0.24023,1.69727 -0.0323,0.0472 -0.12022,0.12224 -0.25,0.21875 -0.38934,0.2895 -1.16235,0.76462 -1.98828,1.21484 -1.10126,0.60031 -2.06714,1.31144 -2.14844,1.57813 -0.047,0.15408 -0.0399,0.42608 0.0156,0.79296 0.0555,0.36689 0.15806,0.82754 0.29883,1.35938 0.84461,3.19102 3.06862,8.92168 4.80469,12.02344 0.96385,1.72205 1.75195,3.41381 1.75195,3.75976 0,0.34595 0.19413,0.62891 0.43164,0.62891 0.2375,0 1.32454,1.35542 2.41407,3.01172 1.9261,2.92802 2.7829,3.94757 3.07226,3.6582 0.0776,-0.0776 0.21278,-5.96644 0.30078,-13.08594 0.088,-7.11949 0.16392,-13.03584 0.16992,-13.14648 0.0347,-0.62794 6.58633,-2.22495 7.59571,-1.85156 0.33943,0.12556 1.74096,1.46498 3.11328,2.97656 2.49855,2.7521 2.87985,3.7168 1.47266,3.7168 -1.19426,0 -0.6694,0.55593 1.18945,1.25781 1.53509,0.57963 2.02654,0.96918 2.96094,2.35156 1.42639,2.11022 5.02819,6.42371 7.94336,9.51172 1.89943,2.01205 2.26855,2.27994 2.28125,1.66406 0.0277,-1.3423 -1.62719,-5.92718 -3.83594,-10.625 -1.19986,-2.552 -2.37269,-5.27446 -2.60547,-6.05078 -0.24424,-0.81451 -0.784,-1.67761 -1.27539,-2.04102 -0.72741,-0.53794 -1.00155,-0.57811 -1.88672,-0.26953 -0.56992,0.19867 -1.58492,0.36133 -2.25391,0.36133 -1.65535,0 -2.02856,-0.70763 -1.21679,-2.29883 0.73202,-1.43489 0.99105,-1.58665 4.28906,-2.49804 1.408,-0.38909 3.51986,-1.12423 4.69336,-1.63477 2.86099,-1.24469 3.31065,-1.20665 4.09961,0.33984 0.90866,1.78113 0.83659,2.44318 -0.3125,2.84376 -0.528,0.18406 -0.96094,0.41708 -0.96094,0.51757 0,0.10048 0.43294,0.99297 0.96094,1.98243 0.528,0.98944 0.95898,2.01075 0.95898,2.26953 0,0.25878 0.70579,1.64177 1.56836,3.07421 2.30224,3.82326 3.90439,7.12608 7.12696,14.70508 2.73585,6.43433 4.42578,10.95813 4.42578,11.84571 0,0.22158 -0.53922,0.91933 -1.19922,1.54882 -1.46212,1.39452 -5.64238,4.42383 -6.10352,4.42383 -0.41854,0 -12.3551,-12.51337 -15.50781,-16.25781 -3.46455,-4.11481 -5.82509,-7.22206 -7.04688,-9.27539 -0.59763,-1.00436 -1.91418,-3.22931 -2.92578,-4.94531 -1.01161,-1.716 -1.91491,-3.1211 -2.00781,-3.1211 -0.0929,0 -0.0789,0.45142 0.0312,1.00196 0.29802,1.49009 1.15636,11.46501 1.09766,12.75781 -0.0746,1.64178 1.91674,11.00437 3.57422,16.80078 1.48473,5.19224 1.49472,4.76704 -0.14454,6.51953 -1.61251,1.72391 -1.6444,1.82754 -0.96875,3.12305 0.26292,0.50411 0.47756,1.22973 0.47852,1.61133 0.005,1.66953 0.79374,2.28276 3.8418,2.98632 0.87306,0.20153 2.52182,0.76993 4.09375,1.37696 0.78593,0.30347 1.55185,0.61685 2.19336,0.89843 0,0 0.002,0 0.002,0 0.1006,0.0442 0.17356,0.0825 0.26758,0.125 0.40015,0.18071 0.7248,0.33988 0.96679,0.47461 0.0632,0.0352 0.15548,0.0784 0.20508,0.10938 0,0 0.002,0 0.002,0 0.008,0.005 0.0172,0.0179 0.0254,0.0234 0.32841,0.2241 0.8588,0.96743 1.19726,1.6875 0.47641,1.01352 0.84737,1.37315 1.51953,1.47461 0.48881,0.0738 3.07909,0.15524 5.75782,0.18164 l 4.87109,0.0488 0.69336,-0.9375 c 0.002,-0.003 0.005,-0.006 0.008,-0.01 0.0774,-0.0494 0.13444,-0.10289 0.16016,-0.16992 0.0108,-0.0281 0.042,-0.0626 0.0566,-0.0918 0.51763,-0.62377 1.18995,-1.1992 1.98047,-1.70312 0.99432,-0.59701 2.20469,-1.14416 3.30859,-1.46094 0.06,-0.017 0.11731,-0.0385 0.17773,-0.0547 0.69409,-0.18615 1.26169,-0.36522 1.72461,-0.55078 0.002,-8.4e-4 0.004,-0.001 0.006,-0.002 0.23045,-0.0926 0.43503,-0.18692 0.61524,-0.28516 0.001,-7.6e-4 0.003,-0.001 0.004,-0.002 0.1802,-0.0985 0.33607,-0.20056 0.47071,-0.3086 0,0 0.002,-0.002 0.002,-0.002 0,0 0.002,-0.002 0.002,-0.002 0.13368,-0.10775 0.24657,-0.22065 0.33985,-0.3418 0,0 0,-0.002 0,-0.002 0.28191,-0.36671 0.39062,-0.80322 0.39062,-1.36328 0,-1.75807 1.46402,-4.11141 3.0293,-4.86914 0.73319,-0.35494 1.66066,-0.64454 2.0625,-0.64454 1.10278,0 2.80494,0.91339 3.4043,1.82813 0.52277,0.79785 0.58485,0.81084 3.23632,0.5957 0.76062,-0.0617 1.59316,-0.15119 2.43165,-0.25781 2.51545,-0.31986 5.09192,-0.79504 5.99609,-1.13672 0.44,-0.16627 1.52039,-0.40007 2.40039,-0.51953 3.02729,-0.41097 6.72358,-1.21795 9.07812,-1.98242 1.95596,-0.63505 2.58316,-1.01955 3.66797,-2.25196 1.48942,-1.69207 3.33791,-2.65776 5.10743,-2.66796 0.90129,-0.005 1.64708,-0.32753 2.89843,-1.25196 3.66367,-2.70651 6.11338,-6.27968 7.94727,-11.59179 0.97822,-2.83342 1.03625,-3.25686 1.03125,-7.48438 -0.005,-3.97989 -0.10254,-4.78285 -0.87305,-7.19922 -1.42955,-4.48312 -2.29358,-5.96927 -4.16992,-7.16992 -4.74639,-3.03716 -6.14198,-3.71094 -7.69922,-3.71094 -1.93383,0 -3.15138,-0.57351 -4.01562,-1.90039 -0.006,-0.0139 -0.0177,-0.0271 -0.0234,-0.041 -0.18431,-0.44496 -0.4151,-0.80199 -0.5625,-0.89649 -0.56798,-0.84503 -1.36554,-1.44343 -3.60742,-2.74023 -2.9463,-1.70428 -3.25864,-1.81667 -4.18946,-1.49219 -0.27079,0.0944 -0.53621,0.16167 -0.79882,0.21875 -0.21987,0.005 -0.42092,0.003 -0.70118,0.0254 -0.78257,0.0636 -1.42843,0.0166 -1.98437,-0.13086 -0.94953,-0.33704 -1.71012,-1.02017 -2.1875,-2.00391 -0.0806,-0.17802 -0.16045,-0.35595 -0.23242,-0.55859 -0.0209,-0.0588 -0.0495,-0.11368 -0.0723,-0.17187 -0.20174,-0.52551 -0.36434,-1.01883 -0.36719,-1.21875 -0.0108,-0.78798 -0.65702,-1.22791 -7.6875,-5.25391 -4.68393,-2.68225 -6.87999,-3.76917 -7.67968,-3.79688 l -1.11915,-0.0391 -0.0215,0.25 -0.0586,-0.0156 -0.15235,2.12695 c -0.0284,0.39667 -0.07,0.75373 -0.12109,1.09375 -0.15367,0.94732 -0.38352,1.67008 -0.71484,2.22852 -0.25256,0.42033 -0.55954,0.76408 -0.94336,1.02734 -0.15542,0.10574 -0.32381,0.20164 -0.50391,0.28711 -1.49387,0.70889 -2.91934,0.65664 -4.36914,-0.1582 -0.1962,-0.11027 -0.37173,-0.21897 -0.5332,-0.33399 0,0 -0.002,-0.002 -0.002,-0.002 -0.32047,-0.22895 -0.57571,-0.47807 -0.7832,-0.7832 -0.10362,-0.15257 -0.19572,-0.32206 -0.27734,-0.50782 -0.0406,-0.0924 -0.0735,-0.20426 -0.10938,-0.30664 -0.25227,-0.74259 -0.38026,-1.74129 -0.46094,-3.24804 -0.14103,-2.63394 -0.20339,-2.84422 -0.93164,-3.1211 -0.52874,-0.20102 -1.09202,-0.29407 -1.55664,-0.2832 z m -111.816404,1.70508 c 0.16625,0.0135 0.334377,0.0842 0.494141,0.21679 0.861754,0.71519 2.092482,9.35231 2.169922,15.22657 0.04497,3.41105 -0.02299,3.96511 -0.558594,4.56054 -1.217776,1.3538 -2.464235,0.55874 -3.257813,-2.07812 -1.10935,-3.68609 -1.182243,-13.42347 -0.125,-16.62695 0.285426,-0.86486 0.778595,-1.33947 1.277344,-1.29883 z m 29.351563,0.84179 c -0.443079,0 -1.145046,0.27471 -1.560547,0.61133 -0.666989,0.54038 -0.745745,0.84341 -0.671875,2.58789 0.04601,1.08671 0.233198,2.25607 0.416015,2.59766 0.192812,0.36026 0.49213,0.5248 0.714844,0.39258 1.501286,-0.89122 5.345703,-3.73378 5.345703,-3.95313 0,-0.45272 -3.385289,-2.23633 -4.24414,-2.23633 z m 162.808591,4.36524 c -0.10731,0.003 -0.22253,0.0175 -0.3457,0.041 -1.24762,0.23849 -1.29008,0.7572 -0.14063,1.7168 1.21399,1.01349 1.60157,0.93642 1.60157,-0.31836 0,-0.99051 -0.36405,-1.46293 -1.11524,-1.43945 z m 11.03321,5.98047 c -0.1323,-0.013 -0.22689,0.0652 -0.32227,0.21484 -0.35258,0.55304 -0.41821,2.03101 -0.10352,2.3457 0.34999,0.34999 2.29276,0.24211 2.5293,-0.14062 0.1205,-0.19496 -0.30807,-0.87849 -0.95117,-1.51953 -0.60739,-0.60545 -0.93185,-0.87874 -1.15234,-0.90039 z m -146.574223,1.0039 c -0.346288,-0.21402 -4.517231,3.17712 -6.865235,5.58203 l -1.919921,1.9668 -0.04297,1.03125 -0.06836,0.0703 -0.103515,3.22657 c -0.02361,0.73257 -0.04857,1.30098 -0.08203,1.76562 -0.0098,0.11193 -0.02413,0.18726 -0.03516,0.28711 -0.02883,0.30096 -0.05785,0.59236 -0.105468,0.81055 -0.06955,0.31475 -0.15882,0.56239 -0.28125,0.79492 -6.82e-4,0.001 -0.0013,0.003 -0.002,0.004 -0.126304,0.23911 -0.286146,0.46374 -0.494141,0.73632 0,0 0,0.002 0,0.002 -0.09199,0.1205 -0.188196,0.22949 -0.283203,0.33984 -0.376197,0.43222 -0.791293,0.79633 -1.220703,1.08398 -0.719134,0.46647 -1.501655,0.70899 -2.345703,0.70899 -1.018259,0 -1.123777,0.0989 -1.472657,1.36133 -0.661351,2.3931 -0.782283,8.12611 -0.226562,10.73633 0.536304,2.51898 1.546172,4.81897 2.605469,5.92968 0.0099,0.0104 0.07642,0.0893 0.08789,0.10157 0.01071,0.0117 0.0226,0.0324 0.0332,0.043 0.167059,0.16675 1.074447,1.22655 1.734375,1.98438 0.535987,0.61766 0.784617,0.88533 1.396485,1.60352 0.734465,0.86208 1.41147,1.63894 2.048828,2.33984 0.636177,0.7003 1.235486,1.3253 1.816406,1.89062 0.291163,0.28323 0.578347,0.55245 0.863281,0.80664 0.05017,0.0447 0.100322,0.0831 0.150391,0.12696 0.233162,0.20449 0.464428,0.40638 0.697265,0.59375 0.0011,8.6e-4 0.0028,0.001 0.0039,0.002 0.282449,0.22719 0.564924,0.44351 0.851562,0.64844 0.0011,8.2e-4 0.0028,0.001 0.0039,0.002 0.286634,0.20482 0.577109,0.40018 0.873046,0.58594 0.0012,7.6e-4 0.0027,0.001 0.0039,0.002 0.295979,0.18569 0.597808,0.36141 0.908203,0.53125 0.0013,7.1e-4 0.0026,0.001 0.0039,0.002 0.310491,0.1698 0.628962,0.33308 0.958984,0.49024 0.0013,6.4e-4 0.0026,0.001 0.0039,0.002 0.330165,0.15715 0.672524,0.30931 1.027343,0.45703 0,0 0.002,0.002 0.002,0.002 0.355499,0.14796 0.724005,0.28992 1.109374,0.43164 0,0 0.002,0.002 0.002,0.002 1.543974,0.56761 3.347694,1.09826 5.578124,1.69531 1.936,0.51824 4.52972,1.21288 5.76172,1.54297 2.7882,0.74704 5.59961,0.84349 5.59961,0.19336 0,-0.24895 -1.46499,-2.58817 -3.25586,-5.19922 -10.69544,-15.59379 -13.393499,-20.40055 -15.457032,-27.54297 -0.907894,-3.14246 -1.986392,-5.44979 -2.78125,-5.95117 -0.379101,-0.23913 -0.911568,-0.20991 -1.867187,0.10547 -1.803338,0.59516 -2.370606,0.2099 -2.496094,-1.69531 -0.08775,-1.3322 -0.01179,-1.51434 0.802734,-1.93555 1.763555,-0.91197 9.331069,-4.04883 9.767579,-4.04883 0.24448,0 0.71673,-0.19856 1.04883,-0.4414 0.567,-0.4146 0.52374,-0.48156 -0.69922,-1.10547 -0.18538,-0.0946 -0.36824,-0.2022 -0.54688,-0.31641 -0.31677,-0.20397 -0.62111,-0.44217 -0.9082,-0.69531 -0.0452,-0.0401 -0.09462,-0.0762 -0.138671,-0.11719 -0.07233,-0.0667 -0.135914,-0.1383 -0.205078,-0.20703 -0.722441,-0.72714 -1.256153,-1.55617 -1.402344,-2.28711 -0.101417,-0.50709 -0.298073,-0.99388 -0.4375,-1.08008 z m 160.228513,1.45117 c 0.44202,0 0.48068,0.34605 0.28907,2.63868 -0.27745,3.31962 -0.81014,6.88961 -1.16993,7.83593 -0.27716,0.72899 -0.64248,0.9083 -1.03906,0.51172 -0.3449,-0.3449 -0.22486,-3.28059 0.24023,-5.86718 0.68769,-3.82442 1.11264,-5.11915 1.67969,-5.11915 z m -89.38672,0.95899 c 0.67678,0 6.00237,3.22252 6.20703,3.75586 0.22577,0.58833 -1.14677,2.00391 -1.94335,2.00391 -0.35146,-10e-6 -0.89237,-0.22835 -1.20118,-0.50782 -0.44787,-0.40532 -1.43791,-0.51914 -4.89257,-0.56054 -4.06728,-0.0487 -4.37393,-0.009 -5.03711,0.65039 -0.81227,0.80772 -0.96133,2.92934 -0.31641,4.48632 0.31452,0.75931 0.58302,0.94132 1.41211,0.94532 0.56355,0.003 1.96147,0.42343 3.10547,0.93554 1.77437,0.7943 2.48285,0.93164 4.82617,0.93164 2.64285,0 2.79231,-0.0404 3.93164,-1.04101 0.65132,-0.572 1.53694,-1.03906 1.9668,-1.03906 0.42985,0 1.75524,-0.37037 2.94726,-0.82227 2.35011,-0.89092 3.81971,-0.8816 7.41016,0.0449 3.35955,0.86694 8.84351,4.47683 11.7793,7.75586 2.64923,2.95894 3.19297,4.57611 2.6875,7.97461 -0.67669,4.54979 -2.4095,7.17079 -6.59571,9.9707 -3.5236,2.35672 -7.54429,3.6965 -13.02734,4.34375 l -1.83203,0.2168 0.69531,0.93945 c 0.51818,0.70086 0.60265,1.03211 0.33203,1.30274 -0.19964,0.19963 -1.05598,0.42956 -1.90234,0.50976 l -1.53906,0.14649 -5.11915,-5.61914 c -2.816,-3.09054 -5.16976,-5.85838 -5.23046,-6.14844 -0.13246,-0.63332 2.10656,-3.01562 2.83398,-3.01562 0.28244,0 2.15999,0.93818 4.17383,2.08398 2.01385,1.14579 4.43061,2.32803 5.36914,2.62695 1.70377,0.54265 1.70922,0.54137 4.47851,-0.39258 7.91359,-2.66883 10.01399,-4.91376 9.48829,-10.14843 -0.25597,-2.54884 -0.94742,-3.59027 -3.29297,-4.96485 -2.05189,-1.20245 -4.2045,-1.18318 -6.0586,0.0527 -1.10201,0.73458 -1.44737,0.83129 -1.83007,0.51367 -0.38477,-0.31933 -0.60492,-0.24052 -1.20118,0.42773 -0.59085,0.66217 -1.28259,0.91211 -3.61132,1.3086 -5.62876,0.95835 -8.30056,0.58655 -14.13086,-1.9668 -3.85824,-1.6897 -4.67856,-2.40434 -6.29297,-5.47656 -0.97267,-1.85099 -1.17578,-2.56716 -1.17578,-4.14258 0,-3.61564 2.23888,-5.41291 7.67968,-6.16211 3.98035,-0.5481 4.06838,-0.57339 4.25196,-1.27539 0.0925,-0.35393 0.38723,-0.64453 0.65429,-0.64453 z M 59.199219,163.04102 c 5.884419,7.7e-4 7.025278,0.0792 7.880859,0.54687 1.237047,0.6762 1.943624,2.34111 2.417969,5.69531 0.314195,2.22175 0.287239,2.61052 -0.253906,3.71875 -0.502241,1.02856 -1.037064,1.45232 -3.164063,2.50196 -1.802406,0.88947 -3.099932,1.30228 -4.382812,1.39648 -1.777876,0.13059 -1.837725,0.10726 -2.470704,-0.93359 -0.356797,-0.58671 -0.740177,-1.68367 -0.853515,-2.43946 -0.282358,-1.8829 -1.072811,-2.7635 -3.841797,-4.2832 -2.832857,-1.55477 -3.650391,-2.48703 -3.650391,-4.15625 0,-1.94791 0.405947,-2.04783 8.31836,-2.04687 z m 14.560547,0.79882 c 0.346666,0 0.480468,0.35486 0.480468,1.2793 0,0.92445 -0.133802,1.28125 -0.480468,1.28125 -0.346665,0 -0.480469,-0.3568 -0.480469,-1.28125 0,-0.92444 0.133804,-1.2793 0.480469,-1.2793 z m 158.880854,5.13282 c 2.16031,-0.003 9.94134,1.1601 10.32422,1.54296 0.23212,0.23213 0.0888,0.65585 -0.4707,1.38868 -2.31952,3.03826 -3.78013,4.01818 -6.43164,4.3164 -2.35608,0.265 -2.71993,0.53736 -3.73633,2.80274 -0.49739,1.10859 -1.23806,2.25104 -1.64648,2.53711 -1.00085,0.70102 -1.452,0.65542 -2.33985,-0.23243 -1.17259,-1.1726 -1.65035,-3.88248 -1.19726,-6.79687 0.2047,-1.31667 0.59988,-2.8314 0.87695,-3.36719 0.62872,-1.21582 2.68121,-2.1894 4.62109,-2.1914 z M 46.576172,170.0957 c 0.38643,-0.006 0.954932,0.51174 2.501953,2.0918 2.649171,2.70575 4.681641,5.55969 4.681641,6.57422 0,0.90615 -1.896469,2.55219 -3.431641,2.97851 -1.588473,0.44113 -1.521192,0.45217 -2.507813,-0.39648 -0.967922,-0.83257 -1.541939,-3.19936 -1.916015,-7.91406 -0.184916,-2.33057 -0.138266,-2.79648 0.316406,-3.17383 0.118244,-0.0981 0.226659,-0.1582 0.355469,-0.16016 z m 214.949218,1.6211 c -0.04,-0.0205 -0.0786,-0.0113 -0.11523,0.0254 -0.24739,0.24739 -1.14869,5.59853 -2.71289,16.09765 -1.39088,9.33577 -2.86641,14.16558 -6.69336,21.91993 -1.47662,2.992 -2.78378,5.94454 -2.9043,6.56054 -0.27599,1.41065 -1.48508,3.83199 -2.26563,4.53711 -0.32703,0.29542 -1.25618,0.81959 -2.06445,1.16602 -0.98366,0.42162 -2.17295,1.40939 -3.59961,2.98437 -1.17226,1.29414 -3.64095,3.71257 -5.48633,5.375 -3.31505,2.98638 -3.36044,3.04478 -3.73047,4.95899 -0.30844,1.59571 -0.61307,2.17869 -1.72265,3.29882 -1.11576,1.12637 -1.55649,1.35938 -2.56641,1.35938 -0.67066,0 -1.66774,-0.16278 -2.21679,-0.36133 -0.94217,-0.34069 -1.22867,-0.22146 -5.10938,2.11719 -4.71568,2.84185 -12.65481,6.80952 -17.60937,8.80078 -3.08736,1.24083 -3.45401,1.47767 -4.0254,2.59766 -0.3458,0.67783 -1.05278,1.45113 -1.57031,1.71875 -1.11557,0.57689 -3.24507,0.63279 -4.66015,0.12109 -0.8743,-0.31615 -1.71395,-0.18811 -6.10352,0.94141 -5.02847,1.29392 -10.99253,2.52159 -15.96875,3.28515 -1.52858,0.23455 -3.11139,0.70921 -3.92773,1.17969 -1.2501,0.72047 -1.57878,0.77112 -3.83985,0.57227 -1.36005,-0.11961 -4.56128,-0.17184 -7.11328,-0.11524 -8.09894,0.17954 -17.27842,6e-4 -22.40039,-0.43554 -4.64001,-0.39512 -6.74744,-0.44216 -10.47852,-0.23633 -1.13199,0.0625 -1.9434,-0.13368 -3.17773,-0.76563 -0.91157,-0.46671 -3.35902,-1.21454 -5.43945,-1.66211 -5.61458,-1.20789 -10.52715,-2.56328 -16.324221,-4.5039 -2.849779,-0.95399 -5.486459,-1.73438 -5.857422,-1.73438 -0.724183,0 -2.417022,-0.76978 -3.207031,-1.45898 -0.266397,-0.2324 -2.257881,-1.29877 -4.425782,-2.36914 -7.077316,-3.49432 -13.404215,-7.51398 -19.408203,-12.33008 -1.584,-1.27061 -3.200258,-2.47887 -3.591797,-2.6836 -0.391539,-0.20473 -1.510664,-1.3412 -2.486328,-2.52539 -0.975661,-1.1842 -2.859128,-3.37704 -4.185547,-4.87304 -1.326419,-1.496 -3.502157,-4.37444 -4.833984,-6.39844 -1.331827,-2.024 -2.839658,-4.25694 -3.351563,-4.96094 -1.308838,-1.8 -1.630915,-2.57953 -3.294921,-8 -1.965712,-6.40327 -2.332152,-8.28657 -2.902344,-14.88086 -0.26632,-3.08 -0.706253,-6.53568 -0.978516,-7.67968 -0.272262,-1.144 -0.719644,-3.44715 -0.99414,-5.11915 -0.274493,-1.672 -0.616111,-3.16592 -0.757813,-3.32031 -0.30985,-0.33759 -0.733476,1.1665 -1.474609,5.24024 -0.677177,3.7222 -0.76421,13.02568 -0.158203,16.80078 3.675625,22.89712 20.791631,42.96255 47.478515,55.6582 15.226554,7.24366 32.594499,11.56654 52.089849,12.9668 5.69718,0.40921 20.98437,0.14779 27.20117,-0.46485 31.74852,-3.12872 59.72509,-14.97431 78.72851,-33.33398 11.62104,-11.22738 18.67483,-23.80294 21.33008,-38.02734 0.65623,-3.51546 0.75712,-13.27787 0.17188,-16.71094 -0.61439,-3.60408 -0.98596,-5.18867 -1.26563,-5.33203 z m -14.94531,5.25195 c 1.05629,-0.0895 1.50712,1.03431 1.26953,3.30273 -0.3828,3.65489 -1.17529,7.40531 -1.68359,7.96875 -0.6701,0.74274 -2.44566,0.70975 -4.18164,-0.0781 -1.74569,-0.79227 -4.22461,-2.81055 -4.22461,-3.43945 0,-0.48026 4.8443,-5.22864 7.01171,-6.87305 0.72207,-0.54783 1.32847,-0.84019 1.8086,-0.88086 z M 50.394531,191.41602 c 0.643553,0.0476 1.582383,0.89568 3.025391,2.68945 2.37616,2.95373 3.662243,5.1119 3.421875,5.73828 -0.502976,1.31074 -2.293203,-0.0604 -5.068359,-3.88281 -1.747257,-2.40663 -2.397155,-3.86457 -1.931641,-4.33008 0.156703,-0.15671 0.338217,-0.2307 0.552734,-0.21484 z m 192.945309,5.83593 c 0.10528,4.9e-4 0.20165,0.0189 0.29493,0.0547 0.79083,0.30347 0.63428,1.45986 -0.41211,3.03906 -1.16425,1.75707 -5.24835,5.83234 -7.07422,7.0586 -1.48951,1.00037 -2.69854,1.18195 -2.98047,0.44726 -0.23684,-0.6172 1.77128,-3.1325 5.4043,-6.76758 2.90048,-2.90212 4.03064,-3.83544 4.76757,-3.83203 z m -148.812496,4.11719 c 1.806219,0.0491 4.118379,1.17077 4.298828,2.42578 0.151978,1.05701 -1.341931,3.90818 -3.03125,5.78711 -0.800342,0.89017 -1.665203,1.61719 -1.921875,1.61719 -0.661021,0 -1.342907,-1.8296 -1.736328,-4.6582 -0.404048,-2.90498 -0.185463,-4.14992 0.849609,-4.82813 0.392174,-0.25696 0.938943,-0.36011 1.541016,-0.34375 z m 98.390626,3.62695 c 2.483,-0.18032 4.07524,2.81012 3.28125,6.76368 -0.19827,0.98728 -0.58005,2.12868 -0.84766,2.53711 -0.26761,0.40843 -0.69238,0.74218 -0.94336,0.74218 -0.9465,0 -2.85607,-3.30769 -3.68359,-6.38086 -0.47932,-1.78006 -0.1295,-2.87823 1.07812,-3.38281 0.38672,-0.16158 0.76052,-0.25354 1.11524,-0.2793 z M 96.201172,223.6582 c 1.962955,0.09 4.538858,0.88683 6.417968,2.16797 1.55457,1.05988 1.91664,1.15687 5.80274,1.5625 5.61286,0.58587 8.7505,1.80919 10.41992,4.0625 0.51084,0.68951 0.58261,1.01526 0.3164,1.43945 -0.0876,0.13954 -0.30593,0.26168 -0.61328,0.35938 -0.15367,0.0488 -0.33101,0.0922 -0.52344,0.12891 -0.96212,0.18338 -2.33991,0.20675 -3.46093,0 -4.79897,-0.8851 -15.40667,-4.1221 -18.796878,-5.73633 -2.589984,-1.23321 -3.199871,-2.17844 -2.152344,-3.33594 0.454256,-0.50195 1.412071,-0.70241 2.589844,-0.64844 z m 95.525388,3.6543 c 1.19528,0.0662 2.1813,0.53122 2.39063,1.36523 0.24276,0.96724 -0.52022,1.8979 -2.11133,2.57422 -1.40031,0.59522 -8.55392,2.25461 -16.22852,3.76367 -6.1536,1.20999 -8.44972,1.39938 -8.98828,0.74415 -0.95734,-1.16473 -0.41608,-2.93146 1.13672,-3.71485 2.86193,-1.44386 8.90919,-2.41835 13.71484,-2.20898 3.78679,0.16499 4.37907,0.0285 6.44727,-1.49219 1.04019,-0.76484 2.4434,-1.09742 3.63867,-1.03125 z"
       id="path112"
       inkscape:connector-curvature="0"
       inkscape:export-xdpi="300"
       inkscape:export-ydpi="300" />
  </g>
</svg>
