<?xml version="1.0" encoding="UTF-8" standalone="no"?>
<svg
   xmlns:dc="http://purl.org/dc/elements/1.1/"
   xmlns:cc="http://creativecommons.org/ns#"
   xmlns:rdf="http://www.w3.org/1999/02/22-rdf-syntax-ns#"
   xmlns:svg="http://www.w3.org/2000/svg"
   xmlns="http://www.w3.org/2000/svg"
   xmlns:sodipodi="http://sodipodi.sourceforge.net/DTD/sodipodi-0.dtd"
   xmlns:inkscape="http://www.inkscape.org/namespaces/inkscape"
   version="1.1"
   id="svg66"
   width="299.20001"
   height="345.92001"
   viewBox="0 0 299.20001 345.92001"
   sodipodi:docname="Workshop1.svg"
   inkscape:export-filename="C:\Users\mob\Documents\dwe\ws1.png"
   inkscape:export-xdpi="300"
   inkscape:export-ydpi="300"
   inkscape:version="1.0.1 (1.0.1+r75)">
  <metadata
     id="metadata72">
    <rdf:RDF>
      <cc:Work
         rdf:about="">
        <dc:format>image/svg+xml</dc:format>
        <dc:type
           rdf:resource="http://purl.org/dc/dcmitype/StillImage" />
        <dc:title />
      </cc:Work>
    </rdf:RDF>
  </metadata>
  <defs
     id="defs70" />
  <sodipodi:namedview
     pagecolor="#ffffff"
     bordercolor="#666666"
     borderopacity="1"
     objecttolerance="10"
     gridtolerance="10"
     guidetolerance="10"
     inkscape:pageopacity="0"
     inkscape:pageshadow="2"
     inkscape:window-width="1848"
     inkscape:window-height="1016"
     id="namedview68"
     showgrid="false"
     inkscape:zoom="2.2599155"
     inkscape:cx="149.60001"
     inkscape:cy="172.96001"
     inkscape:window-x="72"
     inkscape:window-y="27"
     inkscape:window-maximized="1"
     inkscape:current-layer="g76"
     inkscape:document-rotation="0" />
  <g
     id="g76">
    <path
       style="display:inline;fill:#800080;stroke-width:0.32"
       d="m 144.78906,66.308594 c -10.16323,7.623205 -18.89019,9.700466 -29.96001,7.056857 -23.102232,5.855829 -47.306946,7.078612 -70.102143,13.935464 7.149498,5.057196 2.66665,15.094395 2.255992,20.659705 4.574417,6.70697 20.149121,14.66685 10.486953,20.30292 14.129688,8.813 -8.241413,16.95437 5.93032,24.43178 12.246907,10.83734 16.563253,26.36607 22.373192,40.96395 7.270047,12.81335 5.662425,17.04636 11.339917,32.42471 2.432252,13.47763 9.035469,25.11572 24.065209,18.24206 34.48487,-4.85197 68.88961,-10.34686 103.34104,-15.46666 6.59781,-2.99298 18.6984,-12.20633 9.15803,-19.7221 7.91153,8.46083 -8.47923,21.58365 -20.27413,19.66944 -35.57633,5.70975 -71.15273,11.93276 -106.99518,15.4292 3.421,-8.38922 27.98976,-4.71015 39.67181,-8.40975 25.34483,-3.549 50.89992,-6.14782 75.95105,-11.43462 8.91337,-1.93431 16.73634,-16.8035 1.58695,-12.24234 -25.47506,4.1055 -51.37705,6.19771 -76.2587,13.15938 -12.31343,-1.74506 -32.19642,9.18665 -39.83985,1.54493 -9.241209,-13.19696 -12.471043,-30.37815 -19.348742,-45.11456 -0.389575,-10.04587 -9.72053,-9.16745 -9.002091,-13.98987 -3.767042,-6.5676 -15.337577,-18.76151 -2.858682,-6.60673 12.757517,12.63932 26.304195,24.82447 35.724385,40.27682 4.02226,3.68143 4.00899,-7.67145 12.93176,-4.11593 36.4182,-6.37503 73.02601,-12.21381 108.91669,-21.16855 6.79757,-0.60885 5.28941,-24.66997 6.91793,-8.77532 -0.40172,16.69529 -23.9817,12.63405 -35.36133,19.84765 -21.79439,5.87917 -43.11992,13.47907 -64.85184,19.44529 -7.05177,4.20546 -8.4763,-6.59854 -14.62081,-4.9238 -13.87059,2.81077 9.04027,8.85755 4.53606,12.10827 8.88485,17.62713 26.78964,6.18753 40.51969,2.65221 24.88642,-7.73186 49.9398,-15.10999 74.32826,-24.30003 5.11628,-3.46486 4.94379,-24.49377 4.93219,-7.72963 4.40788,10.76735 -19.831,12.99586 -1.60722,9.57772 9.54461,-10.19946 1.51479,-22.39949 -5.21289,-29.94141 -0.10257,-7.87475 -11.71351,-12.35055 0.31149,-15.01471 6.02605,-13.68908 5.95726,-28.47988 -11.26939,-32.29782 C 203.29401,99.927699 174.39485,82.418329 144.78906,66.308594 Z m -2.375,5.802734 c 9.38547,0.590228 4.52549,8.031988 0,0 z m 19.89063,16.919922 c 16.4095,7.698956 -16.40521,-0.942228 -5.82422,10.167969 11.24952,2.258021 28.48354,-7.079109 35.66406,9.009761 2.3563,13.21203 -18.60329,20.46126 -23.64263,17.30197 -7.9838,-4.80147 -8.11595,-15.37096 2.27056,-6.91226 19.52007,6.4753 15.34511,-23.728679 2.56348,-13.04596 -13.1931,8.70611 -34.64809,-14.889046 -11.66211,-15.953081 l 0.63086,-0.568359 z m -25.92188,0.734375 c 0.80233,9.284849 10.04201,22.338375 13.39453,33.847655 -7.61568,14.65768 -21.76561,-11.89156 -28.05664,-19.34766 -7.51965,-13.577521 -1.59611,14.85739 -0.41409,19.9548 6.49504,10.63803 -7.66341,18.89944 -10.74798,4.97816 -9.53343,-8.55831 -10.723232,-27.37676 -20.638668,-31.630224 3.562349,-4.99773 21.726288,-9.843194 10.560548,-0.763671 2.55315,8.252855 6.18929,21.153105 12.58929,22.303045 0.35309,-7.94197 0.2605,-15.89465 0.35798,-23.842108 12.13005,-4.771524 9.99324,8.251008 18.99573,13.589748 12.09302,15.36394 -0.0808,-17.394876 -6.4469,-14.826076 2.69797,-2.472429 7.05284,-2.857386 10.4062,-4.263669 z m -84.554685,5.441406 c 10.445381,7.176059 20.493755,19.001889 28.652344,25.433589 11.915851,7.62566 25.842851,19.78084 35.925781,31.0586 8.47221,0.0448 -2.11452,6.7085 8.47654,11.16724 6.24342,3.37121 -5.68913,-9.0946 3.91213,-1.26685 5.46255,-3.1556 36.05811,-12.40115 16.84242,-5.44189 -4.73943,2.01531 -3.63228,7.90989 -3.58271,11.0362 -4.0479,5.90274 14.19323,3.12339 0.21421,6.01894 -13.21229,5.37712 -20.42596,1.16341 -29.98661,-9.50417 -14.620509,-13.14557 -28.484999,-27.33648 -43.887569,-39.48913 2.684441,7.96913 26.197122,22.43879 20.892448,25.46016 5.474984,5.18505 12.630391,23.81031 12.335251,25.31384 -10.390409,-13.95897 -14.993378,-31.80913 -28.881011,-43.0967 -5.902781,-4.81372 -9.251876,-9.88299 -8.106583,-11.42222 -6.262978,-3.09859 -19.360225,-12.21458 -13.22266,-22.326172 l 0.416016,-2.941407 z m 11.083984,13.374999 c -4.116372,5.27777 10.170061,7.29876 0,0 z m 11.316407,10.86914 c -3.410042,3.16002 4.009345,3.67032 0,0 z m 4.214843,3.74805 c -3.884559,5.86901 9.666574,5.97848 0,0 z m 5.619141,0.44726 c 1.130635,8.45305 -14.389586,0.40792 -4.984366,8.16601 3.447773,-3.08 13.818794,-3.69704 4.984366,-8.16601 z m 158.01758,4.51368 c 4.60393,16.63589 -13.37794,22.88233 -27.231,25.08063 7.84996,-7.7528 23.51912,-7.13775 25.46733,-20.64118 -6.81586,-2.67098 -0.49219,-0.78199 1.76367,-4.43945 z m 3.10742,0.2539 c 3.26377,6.7305 -8.49614,30.4887 -3.08398,12.54684 1.62388,-4.0119 1.11099,-8.71212 3.08398,-12.54684 z m -177.058594,2.14649 c 13.470073,8.84886 18.712068,25.45149 27.784444,38.19846 4.14327,8.45351 16.34899,22.00765 15.26298,27.25031 -14.515145,-18.96316 -23.988437,-41.89273 -41.893854,-58.1412 -0.89311,-1.8056 -4.912716,-6.18187 -1.15357,-7.30757 z m 167.710934,0.68359 c 1.93292,0.43206 -4.7589,0.77691 0,0 z m -3.86718,0.95508 c 0.95277,0.29974 -1.19356,0.1838 0,0 z m -162.640629,0.31445 c -4.328191,6.29496 9.241634,3.60641 0,0 z m 156.150389,0.0899 c 6.71401,1.75936 -16.37915,4.45303 -3.43164,0.83204 l 3.43164,-0.83203 z m 3.66406,0.0332 c 1.30999,0.67038 -2.12908,0.55381 0,0 z m -14.49218,3.01953 c -9.04064,4.49268 -25.4471,6.60851 -37.17974,10.58066 2.9229,-3.0102 27.21443,-7.74895 37.17974,-10.58066 z m -148.734378,1.13086 c 5.031816,4.56118 26.838058,28.43412 10.36199,15.03688 3.915773,8.20385 20.610707,18.419 19.322457,25.55736 -11.430745,-10.13985 -21.372732,-22.04135 -33.509489,-31.30821 4.635895,0.89904 13.86735,5.88995 7.073229,-3.97826 l -1.507956,-2.27852 -1.740234,-3.0293 z m 173.578128,0.30859 c -4.14875,5.0828 0.48412,9.01928 0,0 z m -178.470706,1.78516 c -5.57209,3.17194 -1.489234,5.39995 0,0 z m -5.417969,4.9707 c -19.153999,18.02744 -27.043114,48.62864 -13.369184,72.15778 19.36705,34.26632 60.957509,48.62506 98.402249,49.82652 41.7228,1.20062 88.11142,-12.42069 112.54942,-48.44867 13.7026,-19.57582 13.31638,-47.26327 -1.11729,-66.33527 -4.45992,-11.22133 -10.23043,-2.49894 -3.46486,3.72073 14.17653,18.92348 12.18107,46.17051 -2.47266,64.16206 -27.75771,34.7798 -76.03217,45.7019 -118.59057,40.97047 -33.871791,-3.90707 -71.755529,-20.3469 -84.544227,-54.35813 -7.686242,-20.06499 0.884074,-42.10963 14.597726,-57.14927 -0.685867,-1.50668 -1.689803,-2.88985 -1.990604,-4.54622 z m 116.267575,2.74414 c 1.32717,3.19007 -6.28832,1.13454 0,0 z m -8.31445,2.60742 c 1.13153,1.05624 -1.74514,0.90355 0,0 z m 71.33398,0.0469 c -3.32871,3.75629 8.97002,10.98007 -3.39453,11.89648 -16.42507,4.10234 -33.67344,6.06118 -50.38281,9.58008 -5.99879,0.65284 -27.48878,6.57565 -25.03906,4.34959 21.70673,-7.17315 43.77818,-13.29087 65.55355,-20.14789 1.83413,-4.16862 9.42505,-4.00704 13.26285,-5.67826 z m -74.53125,0.51172 c 2.33688,3.41474 -9.1356,1.96718 0,0 z m 66.14844,2.61523 c -7.03529,2.18431 4.70868,1.59059 0,0 z m -132.716795,0.92383 c 9.542885,9.5827 23.351805,18.44728 29.721385,29.04781 -6.11204,2.15433 -10.32803,2.82232 -8.90291,-3.14291 -8.40128,-6.84227 -14.917487,-16.87976 -20.818475,-25.9049 z m 32.181645,2.9043 c 3.74259,0.56315 -2.46785,1.33966 0,0 z m 109.90234,5.39844 c 7.87725,11.05226 -10.55623,17.29023 -16.67681,16.06769 9.09229,0.29447 20.12035,-10.72295 15.16509,-15.3841 z m -114.2793,3.12304 c -4.58803,6.06007 11.79382,10.11757 4.36485,1.20531 l -2.28282,-0.83421 z m 8.07813,0.13282 c -4.70156,9.18649 4.77801,5.2354 0,0 z m -29.26172,1.45507 c 5.37891,4.06215 12.40792,17.85882 2.95312,5.375 -0.50346,-1.7255 -3.624627,-3.63924 -2.95312,-5.375 z m 50.64844,6.32227 c 1.30999,0.67038 -2.1291,0.55382 0,0 z m -1.28516,0.53125 c -4.78474,2.9842 -32.85934,8.14535 -13.42104,3.24203 4.49548,-0.98676 8.88331,-2.45014 13.42104,-3.24203 z m 97.79492,2.55273 c -0.46136,3.8226 -14.64744,1.79875 -1.97656,0.49219 z M 83.806641,176 c 5.158474,6.34082 1.423101,12.98485 0.0927,1.25344 z m 133.191409,2.24023 c 0.54793,1.1108 -1.49315,0.53027 0,0 z m -112.91407,0.12891 c 0.86494,0.14911 0.72225,2.8611 0,0 z m 143.84571,1.2207 c 0.54344,2.25376 -1.55129,1.32069 0,0 z m -105.63672,0.67774 c -1.78044,12.92531 20.11892,5.7874 28.10813,7.06865 -11.1918,3.22536 -30.78545,4.68398 -45.31436,7.16052 -8.75195,1.56694 -10.24547,4.82982 -8.9972,-3.37591 -7.47281,-9.27222 12.74568,-4.21792 18.52364,-9.54103 2.56203,-0.40564 5.08274,-1.13628 7.67979,-1.31223 z m -36.56641,0.21289 c 5.39743,3.80931 11.36117,20.16854 3.25247,6.11062 -0.25493,-1.51473 -4.25452,-5.05841 -3.25247,-6.11062 z m 140.87305,6.91601 c -2.53174,6.3005 -10.99425,6.04333 -1.56055,1.1875 z m -6.91602,8.5254 c -10.69905,2.51865 -6.554,3.82629 0,0 z m -127.77929,2.85937 c 2.68898,1.49999 -0.56686,1.48698 0,0 z m 116.55468,1.53906 c -1.92775,0.72 3.00196,4.68234 0,0 z m -137.675777,5.48828 c -0.426934,1.41374 1.229444,1.50839 0,0 z m 55.982417,1.33203 c 6.54822,0.71582 -10.63083,11.65175 2.51368,13.97852 -7.83721,8.28498 -7.29798,-15.34027 -2.51368,-13.97852 z m 82.5,6.67969 c -3.24157,11.91353 -24.36718,11.63564 -36.17509,14.00459 -18.30353,2.17544 -36.70716,6.43659 -55.11928,5.83197 -5.12139,-7.72806 17.33602,-5.38499 22.69435,-9.96329 2.34755,-1.09307 -6.27086,6.28391 3.60571,4.10425 16.47261,-0.31897 33.38982,-1.61423 48.83416,-7.61029 12.52455,-3.20306 0.1953,-7.44301 16.16015,-6.36723 z"
       id="path86"
       inkscape:connector-curvature="0"
       inkscape:export-filename="/media/chemo/DATA/Coding/Sammel-App/Sammel-App/sammel_app/assets/images/Workshop.png"
       inkscape:export-xdpi="210.69"
       inkscape:export-ydpi="210.69" />
  </g>
</svg>
