<?xml version="1.0" encoding="UTF-8" standalone="no"?>
<svg
   xmlns:dc="http://purl.org/dc/elements/1.1/"
   xmlns:cc="http://creativecommons.org/ns#"
   xmlns:rdf="http://www.w3.org/1999/02/22-rdf-syntax-ns#"
   xmlns:svg="http://www.w3.org/2000/svg"
   xmlns="http://www.w3.org/2000/svg"
   xmlns:sodipodi="http://sodipodi.sourceforge.net/DTD/sodipodi-0.dtd"
   xmlns:inkscape="http://www.inkscape.org/namespaces/inkscape"
   version="1.1"
   id="svg383"
   width="299.20001"
   height="345.92001"
   viewBox="0 0 299.20001 345.92001"
   sodipodi:docname="ws.svg"
   inkscape:export-filename="/media/chemo/DATA/Coding/Sammel-App/Sammel-App/sammel_app/assets/images/workshop.png"
   inkscape:export-xdpi="210.46767"
   inkscape:export-ydpi="210.46767"
   inkscape:version="1.0.1 (1.0.1+r75)">
  <metadata
     id="metadata389">
    <rdf:RDF>
      <cc:Work
         rdf:about="">
        <dc:format>image/svg+xml</dc:format>
        <dc:type
           rdf:resource="http://purl.org/dc/dcmitype/StillImage" />
        <dc:title />
      </cc:Work>
    </rdf:RDF>
  </metadata>
  <defs
     id="defs387" />
  <sodipodi:namedview
     pagecolor="#ffffff"
     bordercolor="#666666"
     borderopacity="1"
     objecttolerance="10"
     gridtolerance="10"
     guidetolerance="10"
     inkscape:pageopacity="0"
     inkscape:pageshadow="2"
     inkscape:window-width="1848"
     inkscape:window-height="1016"
     id="namedview385"
     showgrid="false"
     inkscape:zoom="2.2599155"
     inkscape:cx="149.60001"
     inkscape:cy="172.96001"
     inkscape:window-x="72"
     inkscape:window-y="27"
     inkscape:window-maximized="1"
     inkscape:current-layer="g393"
     inkscape:document-rotation="0" />
  <g
     id="g393">
    <path
       style="display:inline;fill:#800080;stroke-width:0.32"
       d="m 139.98242,91.628906 c -0.22347,-0.08575 -0.95914,0.21026 -1.63476,0.65625 -1.79258,1.183312 -3.53774,1.71189 -7.42383,2.253906 -5.91876,0.825524 -10.22844,0.965813 -11.87891,0.386719 -0.96951,-0.340173 -1.54054,-0.39672 -1.75976,-0.177734 -0.55538,0.554816 -0.1751,41.662573 0.39453,42.644533 0.1816,0.31305 2.00494,0.0107 2.41601,-0.40039 0.15139,-0.15139 0.35523,-0.87196 0.45313,-1.60157 0.0979,-0.7296 0.28885,-1.39586 0.42578,-1.48046 0.13693,-0.0846 0.8503,0.42398 1.58398,1.1289 1.43669,1.38037 2.35767,1.57645 4.48438,0.95508 0.61483,-0.17965 2.46427,-0.54628 4.11133,-0.81445 2.74005,-0.44618 3.13108,-0.44287 4.58789,0.041 2.02448,0.67243 3.05707,0.46 5.41015,-1.11132 1.81634,-1.21291 3.65522,-2.02061 5.50586,-2.41797 1.08773,-0.23355 1.17352,0.13467 -1.58984,-6.83008 -1.13868,-2.86989 -2.26913,-6.18127 -2.51172,-7.35938 -0.24258,-1.1781 -0.74126,-6.89317 -1.10937,-12.70117 -0.7441,-11.740403 -0.8794,-12.947215 -1.46485,-13.171874 z m 29.73633,0.554688 c -0.28043,0.01558 -0.53991,0.206938 -0.73437,0.570312 -0.17475,0.326512 -0.46541,2.16259 -0.64649,4.080078 -0.31146,3.298266 -0.97851,16.547236 -0.97851,19.441406 0,1.12157 -0.39838,1.9733 -2.42383,5.17383 -3.42688,5.41502 -4.12397,6.90768 -5.23438,11.21289 -1.26645,4.9104 -1.26197,5.4156 0.0586,6.22656 1.76563,1.08427 1.96173,0.84371 2.32812,-2.84765 0.28343,-2.85562 0.43118,-3.39457 1.07031,-3.91211 0.87589,-0.70925 1.64415,-0.43144 2.52149,0.91015 0.4652,0.71143 0.56054,1.60615 0.56054,5.29297 0,4.40198 0.005,4.443 0.79883,4.88281 1.96832,1.09089 2.1323,0.73483 2.33594,-5.07226 0.14479,-4.12879 0.4064,-4.56146 2.7168,-4.50586 2.33755,0.0563 7.40163,1.37623 8.15039,2.125 0.61974,0.61974 0.64242,0.9133 0.46289,5.80664 -0.10398,2.83392 -0.34013,5.58333 -0.52539,6.11133 -0.51165,1.45825 -0.003,2.73684 1.56445,3.93359 0.75851,0.57903 1.54118,0.9989 1.73828,0.9336 0.24432,-0.081 0.42464,-2.7063 0.57031,-8.25196 0.1175,-4.47367 0.35847,-8.69207 0.53516,-9.37304 0.3622,-1.39598 1.97138,-3.5625 2.64649,-3.5625 0.35629,-10e-6 0.47726,1.10068 0.60546,5.5332 0.12856,4.44522 0.25495,5.59075 0.64063,5.83398 0.6825,0.43042 0.89706,0.38881 1.23633,-0.24609 0.52728,-0.98672 2.1805,-26.27238 2.50195,-38.26953 0.23108,-8.624316 0.23248,-8.617888 -1.94727,-7.505862 -1.5652,0.798505 -3.51439,0.825792 -7.43359,0.105469 -6.28021,-1.154259 -11.13838,-2.797656 -12.25781,-4.146485 -0.27971,-0.337023 -0.5809,-0.496053 -0.86133,-0.480468 z m -34.35547,7.402344 c 2.87056,-0.105906 3.077,0.463592 3.36524,3.923832 0.38406,4.61058 0.0538,11.78425 -0.5879,12.76367 -0.69172,1.0557 -2.5282,1.58549 -8.38085,2.41601 -7.63897,1.08404 -8.32297,1.08841 -9.2461,0.0684 -0.8003,-0.88433 -1.13716,-3.24174 -1.36328,-9.54687 -0.22705,-6.33139 -0.20849,-6.41252 1.55078,-7.32227 1.17539,-0.60782 9.09926,-1.936222 13.25977,-2.222654 0.52681,-0.03627 0.99226,-0.06495 1.40234,-0.08008 z m 38.57813,1.214842 c 2.92818,0 11.96763,1.9531 14.39648,3.11133 0.65918,0.31434 1.19976,0.84569 1.31055,1.28711 0.26956,1.07402 -0.42632,12.80955 -0.84375,14.23047 -0.19215,0.65406 -0.56991,1.40974 -0.83985,1.67969 -0.55816,0.55815 -2.74917,0.60773 -4.76562,0.10742 -0.704,-0.17468 -3.68253,-0.89047 -6.61914,-1.58985 -3.16266,-0.75321 -5.51056,-1.47723 -5.75977,-1.77734 -0.321,-0.38663 -0.41992,-2.27063 -0.41992,-7.95117 0,-7.4378 2.8e-4,-7.44534 0.77539,-8.27149 0.67295,-0.71726 1.04029,-0.82617 2.76563,-0.82617 z m -82.484379,1.66016 c -0.514802,-0.0348 -1.072318,0.53434 -1.882812,1.85156 -1.413748,2.29764 -5.928662,5.60498 -9.689453,7.09766 -0.90503,0.35922 -2.724922,0.81874 -4.044922,1.02148 l -2.400391,0.36914 -0.09375,1.76758 c -0.0516,0.97227 0.488634,7.82512 1.199219,15.22852 1.57519,16.41141 2.079598,24.21332 1.623047,25.0664 -0.441436,0.82483 -1.421257,1.11215 -3.527344,1.03125 -2.428944,-0.0933 -6.439432,-0.69448 -7.148437,-1.07226 -0.952711,-0.50765 -1.395602,-2.0429 -2.441407,-8.44336 -2.052723,-12.56295 -2.299641,-13.94597 -2.761719,-15.50196 -0.833629,-2.80713 -1.688259,-1.81419 -2.205078,2.5625 -0.34097,2.8875 -1.368424,6.26365 -2.726562,8.96485 -1.183265,2.3534 -1.277344,2.73753 -1.277344,5.19336 0,6.59561 4.163198,35.3733 6.734375,46.55273 0.69696,3.03038 1.76673,8.35822 2.378906,11.83984 1.366022,7.76895 1.603072,8.63546 2.431641,8.89844 1.304503,0.41403 1.574219,-0.31105 1.574219,-4.21875 0,-3.12274 0.07763,-3.67915 0.537109,-3.85547 0.611306,-0.23458 1.940624,1.14898 4.015625,4.1836 1.772474,2.59218 2.278249,4.23841 3.455078,11.24218 1.066332,6.34616 1.548823,8.03935 2.382813,8.35938 1.626551,0.62417 1.819727,-1.8998 0.810547,-10.59961 -0.347072,-2.992 -0.634119,-6.49763 -0.636719,-7.79102 -0.0042,-2.21107 0.05376,-2.40711 0.970703,-3.26367 1.345252,-1.25665 8.225072,-3.82617 10.244141,-3.82617 0.287738,0 1.434754,-0.58853 2.548828,-1.30859 3.337527,-2.15715 4.713689,-2.00277 5.416015,0.60547 0.17576,0.65273 0.756114,6.0811 1.291016,12.06445 2.588205,28.95132 2.656015,29.44976 4.031245,29.79492 1.59837,0.40116 1.73438,-0.0968 1.73438,-6.33594 0,-3.34606 0.13899,-6.00062 0.33203,-6.36133 0.64759,-1.21002 3.44907,-0.69478 14.86719,2.73047 5.18437,1.55522 5.49654,1.69827 5.87305,2.67969 0.17989,0.4689 0.42113,3.01235 0.53711,5.65234 0.25602,5.82827 0.58373,7.7382 1.49023,8.70313 0.827,0.88031 1.30771,0.92275 2.04687,0.18359 0.51032,-0.51032 0.53462,-1.38411 0.33008,-11.5332 l -0.2207,-10.98242 2.06836,-3.43164 c 4.29521,-7.12883 4.65088,-7.06769 5.30078,0.90625 0.38073,4.67142 0.79512,6.07422 1.79102,6.07422 0.74835,0 1.12621,-1.45413 1.2871,-4.94727 0.0814,-1.7673 0.31217,-4.8329 0.51368,-6.8125 l 0.36718,-3.59961 1.14844,-0.31836 c 0.63148,-0.17542 1.39185,-0.31935 1.68946,-0.32031 1.02612,-0.003 0.92069,-0.62454 -0.1836,-1.08594 -1.30193,-0.54396 -1.99169,-1.56141 -1.39062,-2.04883 0.2163,-0.17541 1.2565,-0.49436 2.3125,-0.70898 2.95378,-0.60032 2.83076,-0.78536 -0.63282,-0.95898 -3.0122,-0.151 -3.21242,-0.20401 -3.58593,-0.95899 -0.64131,-1.2963 -1.51535,-1.80569 -5.21094,-3.03711 -4.06073,-1.3531 -5.48853,-2.2101 -5.88867,-3.5332 -0.65303,-2.15933 -0.97615,-2.78378 -1.67578,-3.24219 -0.67897,-0.44488 -0.85611,-0.41365 -2.30079,0.39844 -0.86113,0.48407 -1.78599,0.79451 -2.05468,0.6914 -0.26868,-0.1031 -1.17079,-1.81836 -2.00391,-3.8125 -2.83452,-6.78469 -3.09914,-7.30468 -3.71875,-7.30468 -0.89986,0 -1.36418,-1.2131 -1.45898,-3.80469 -0.0613,-1.6748 -0.24397,-2.53578 -0.62696,-2.95898 -0.75561,-0.83494 -0.98116,-0.75448 -1.39453,0.49804 -0.38052,1.15299 -0.47074,0.83033 2.31641,8.12891 0.35814,0.93784 0.98464,2.19771 1.39258,2.79883 0.76308,1.12448 2.36328,4.85929 2.36328,5.51562 0,1.17099 -3.71675,0.53621 -10.39649,-1.77539 -4.02815,-1.39399 -5.50765,-2.26473 -8.28515,-4.875 -3.829011,-3.59848 -13.140454,-14.58913 -14.066409,-16.60351 -0.2865,-0.62327 -0.240576,-0.83193 0.261718,-1.19922 0.334676,-0.24472 1.002457,-0.44532 1.482422,-0.44532 1.764848,0 1.884766,-0.18657 1.884766,-2.92187 0,-2.89384 -1.104191,-14.14057 -1.626953,-16.57813 -0.42128,-1.96436 -0.830947,-2.23064 -4.070313,-2.63281 -1.32064,-0.16396 -2.679631,-0.44699 -3.019531,-0.6289 -1.213988,-0.6497 -1.828338,-2.73822 -1.835938,-6.23633 -0.0061,-2.79654 0.08324,-3.34967 0.65625,-4.07813 1.022177,-1.29949 2.789721,-1.16054 6.064454,0.47852 3.231725,1.61753 5.561534,3.76905 6.017578,5.55664 0.179601,0.704 0.558472,3.87301 0.841797,7.04101 0.757968,8.47527 1.277586,11.10103 2.271484,11.48243 0.242794,0.0932 0.662546,-0.0493 0.931641,-0.31836 0.383884,-0.38389 0.486822,-1.2943 0.482422,-4.22657 -0.0089,-5.85499 -0.452606,-9.19358 -1.417969,-10.65234 -1.028225,-1.55376 -1.032799,-2.65444 -0.01563,-3.86328 1.233018,-1.46536 1.11387,-3.34589 -0.320313,-5.0625 -1.2492,-1.49519 -1.387226,-2.22871 -0.558593,-2.94531 0.90207,-0.7801 2.396092,-1.18407 9.794927,-2.65039 3.8473,-0.76247 7.13527,-1.5259 7.30664,-1.69727 0.63265,-0.63265 -0.59445,-1.42381 -9.94141,-6.4043 -2.177271,-1.16015 -4.592476,-2.69292 -5.367189,-3.40625 -1.712093,-1.57643 -1.664523,-1.35579 -2.986328,-14.1289 -1.085635,-10.49092 -1.191742,-11.1687 -1.802734,-11.67578 -0.169696,-0.14084 -0.336212,-0.21888 -0.507813,-0.23047 z m 125.080079,3.54101 c -0.0684,0.005 -0.13426,0.0267 -0.19531,0.0645 -0.66422,0.41052 -1.16765,3.34384 -3.05469,17.77343 -0.44882,3.432 -0.96502,6.60892 -1.14649,7.06055 -0.54872,1.36558 -3.70822,3.00848 -12.04101,6.25977 -5.08365,1.98354 -6.13921,2.55157 -6.33203,3.40429 -0.23815,1.05322 -1.06505,9.4678 -1.31836,13.40821 l -0.2207,3.41406 0.89257,0.82617 c 1.03282,0.95718 1.96546,1.07106 2.19922,0.26758 0.0896,-0.308 0.25394,-2.21624 0.36524,-4.24024 0.22408,-4.07505 0.64927,-7.01051 1.18554,-8.1875 0.47897,-1.05123 1.41935,-0.98471 3.24805,0.22657 1.86479,1.23518 7.54366,6.26127 7.78516,6.89062 0.0974,0.25395 -0.0576,2.87915 -0.34375,5.83203 -1.17074,12.08309 -1.07546,14.60717 0.54101,14.37696 0.97865,-0.13938 1.31781,-1.39147 2.29883,-8.47266 1.24672,-8.99896 1.65522,-10.27101 3.9668,-12.35937 2.40202,-2.17009 7.92369,-4.4037 9.75,-3.94532 1.29971,0.3262 1.56368,1.23681 1.55469,5.38867 -0.0132,6.23597 -0.43023,6.64609 -6.99219,6.89649 -2.32396,0.0887 -4.40223,0.27145 -4.61719,0.4043 -0.21495,0.13285 -0.43729,0.94016 -0.49609,1.79492 -0.0588,0.85476 -0.42967,5.31104 -0.82227,9.90234 l -0.71289,8.34766 0.70313,1.83594 c 0.82134,2.14632 0.66839,2.65042 -1.13086,3.74218 -2.07571,1.2595 -6.02523,4.3532 -8.57227,6.71485 -1.79736,1.66653 -2.61823,2.22726 -3.08398,2.10547 -0.47937,-0.12536 -0.87929,0.18015 -1.63477,1.25195 -0.9544,1.35402 -2.23295,2.04773 -3.79102,2.05273 -0.28556,9.8e-4 -1.42062,0.72157 -2.52148,1.60156 -1.10087,0.88001 -2.23591,1.60052 -2.52148,1.60352 -0.28557,0.003 -1.1161,0.21385 -1.84766,0.46875 -1.55725,0.54262 -11.47102,2.57301 -15.63086,3.20117 -2.61266,0.39453 -3.88,0.26085 -3.27344,-0.3457 0.11173,-0.11174 4.27729,-1.60857 9.25782,-3.32422 17.56672,-6.05121 19.41644,-7.10091 19.71289,-11.19922 l 0.14062,-1.92578 -1.08008,0.0156 c -0.59315,0.008 -1.72558,0.15065 -2.51758,0.31835 -0.792,0.16771 -2.9988,0.50973 -4.90429,0.75977 -2.65764,0.34874 -3.73895,0.63846 -4.64063,1.24805 -0.73994,0.50025 -5.44359,2.0639 -12.69531,4.2207 -14.35392,4.26913 -21.50263,6.5065 -22.64062,7.08594 -0.62609,0.31879 -0.87891,0.69322 -0.87891,1.29687 0,0.5646 -0.346,1.13724 -1.0332,1.71094 -0.86537,0.72245 -1.03321,1.08113 -1.03321,2.2168 0,1.7853 0.90964,2.56845 2.98047,2.56445 0.81651,-0.002 3.77585,-0.64903 6.57422,-1.43945 2.79837,-0.79042 5.34492,-1.4375 5.66016,-1.4375 0.984,0 1.00897,0.61017 0.0645,1.55469 -0.67768,0.67769 -1.54668,1.05025 -3.42774,1.46874 -3.59662,0.80018 -4.24387,1.5644 -4.46484,5.26368 -0.2068,3.46152 -0.21409,2.5159 0.0762,10.7539 0.25794,7.32065 0.54751,8.83236 1.73243,9.06055 0.83279,0.16038 1.40044,-1.49972 1.94726,-5.6875 0.25926,-1.98551 0.61822,-3.75493 0.79688,-3.93359 0.39,-0.39 1.31681,1.01826 2.36914,3.59961 0.6939,1.70211 0.71794,2.13018 0.74804,12.99218 0.0171,6.17728 0.13449,11.39689 0.25977,11.59961 0.31295,0.50632 1.95071,0.46482 2.38672,-0.0605 0.19588,-0.23602 0.50361,-2.57524 0.68359,-5.19922 0.47469,-6.92033 0.78902,-8.18641 2.20508,-8.90625 1.94965,-0.99108 13.73178,-3.57871 18.91406,-4.1543 2.72874,-0.30308 2.71928,-0.32194 2.61524,5.15234 -0.0495,2.60484 -0.16642,5.00092 -0.26172,5.32422 -0.56089,1.90289 0.94671,4.00085 2.11523,2.94336 0.76442,-0.6918 1.114,-2.69559 2.09571,-12.0039 1.00077,-9.48913 1.16732,-10.28506 2.59765,-12.36524 1.37335,-1.9973 1.54497,-2.68921 2.36524,-9.5625 1.25472,-10.51374 1.05806,-10.17963 5.05859,-8.59375 2.92067,1.15781 9.97581,4.70352 12.375,6.21875 1.0839,0.68454 2.14374,1.62162 2.35352,2.08203 0.39887,0.87544 0.20931,3.64704 -0.75,11.01367 -0.86659,6.65456 -0.93757,8.54821 -0.35743,9.4336 0.56707,0.86547 1.51626,1.0555 2.03125,0.40625 0.40764,-0.51393 0.87264,-2.61324 1.68164,-7.59961 1.30902,-8.06829 1.69147,-8.95677 5.61719,-13.08203 3.12366,-3.28243 3.82094,-3.6692 4.69336,-2.5918 0.52629,0.64994 0.56666,1.11396 0.37695,4.28711 -0.18039,3.01733 -0.13675,3.62121 0.28907,3.97461 0.90134,0.74804 1.73843,-0.0782 2.46679,-2.43359 0.36648,-1.18512 1.2376,-5.28304 1.93555,-9.10547 0.69795,-3.82243 1.40027,-7.29328 1.56055,-7.71485 0.31479,-0.82796 0.93022,-1.17383 2.08789,-1.17383 1.08451,0 1.39637,-0.56873 2.11328,-3.85351 1.48804,-6.81796 6.32713,-37.88222 6.60742,-42.41406 0.14868,-2.404 0.0651,-3.26077 -0.48242,-4.95899 -0.76004,-2.35759 -0.90409,-3.23801 -1.35547,-8.29492 -0.37717,-4.22562 -0.50966,-4.79883 -1.10742,-4.79883 -0.79804,0 -1.37744,2.43361 -3.36719,14.125 -1.11418,6.54665 -1.74515,9.50361 -2.08203,9.75391 -0.60653,0.45069 -6.92419,0.82608 -8.61133,0.51172 -2.09826,-0.39096 -2.12912,0.7121 0.60938,-20.71094 1.97174,-15.42481 2.44139,-21.26824 1.77734,-22.06836 -0.25535,-0.30769 -0.94295,-0.49219 -1.8418,-0.49219 -1.53317,0 -3.52832,-0.85422 -6.05664,-2.59375 -2.44539,-1.68247 -5.87924,-5.12527 -6.67187,-6.68945 -0.73032,-1.44121 -1.38264,-2.19156 -1.86133,-2.1543 z m -67.77344,2.20117 c -1.92342,0.001 -3.383,0.0296 -3.89648,0.0938 l -1.85352,0.23242 0.0937,2.29492 0.0918,2.29492 9.4414,0.17383 c 4.7633,0.0876 8.93196,0.14199 10.56836,0.14648 0.4832,0.0331 1.4796,0.10669 1.63672,0.11524 0.25861,0.0141 0.49053,-0.028 0.67383,-0.11133 l 0.7207,-0.004 0.0937,-2.27929 c 0.0925,-2.2634 0.0859,-2.28143 -0.80078,-2.48243 -1.05953,-0.24017 -10.99928,-0.47906 -16.76953,-0.47461 z m -11.41406,0.59766 c -1.53771,0 -15.01316,1.99483 -16.49219,2.44141 -0.51763,0.1563 -0.55845,0.41231 -0.36133,2.30664 0.12198,1.17223 0.28463,2.23909 0.36133,2.37109 0.19873,0.34192 0.54703,0.31205 4.28125,-0.37109 1.83795,-0.33624 5.21395,-0.84472 7.50195,-1.13086 2.28801,-0.28615 4.3386,-0.58406 4.5586,-0.66016 0.44435,-0.15369 0.59008,-4.95703 0.15039,-4.95703 z m 34.14258,0.63867 0.0937,2.45899 0.0937,2.45898 4,0.58203 c 2.2,0.3205 5.58353,0.92919 7.51953,1.35157 1.72428,0.37618 2.80245,0.61206 3.51562,0.66406 0.11368,0.0251 0.53129,0.12697 0.5586,0.13086 0.0915,0.013 0.17327,-0.0587 0.24414,-0.19336 0.53493,-0.20245 0.59097,-0.80845 0.73633,-1.98828 0.18906,-1.53452 0.14836,-2.1566 -0.16016,-2.45313 -0.0508,-0.0489 -0.2083,-0.11256 -0.4082,-0.18359 l -0.006,-0.0996 -1.26172,-0.25781 c -3.5957,-0.92203 -12.03328,-2.47057 -14.03125,-2.47071 z m -56.1543,3.13086 c -0.11346,-0.0264 -0.26031,-0.007 -0.45703,0.0195 -2.80783,0.38251 -18.180678,5.11367 -19.126954,5.88672 -0.383616,0.3134 -0.332484,2.15561 0.119141,4.35156 0.09105,0.4427 0.321413,0.6851 0.564453,0.5918 4.23667,-1.62576 12.6183,-4.25055 18.05664,-5.65625 l 1.37305,-0.35547 -0.0937,-2.46484 c -0.0687,-1.8178 -0.0952,-2.2938 -0.43555,-2.37305 z m -26.154296,0.77539 c 1.074806,-0.0241 1.408147,0.67427 1.705078,3.04102 0.599961,4.78207 0.984039,12.8759 0.640625,13.51758 -0.337946,0.63145 -8.486753,6.25219 -9.746094,6.72265 -1.802797,0.67351 -2.075924,0.67994 -2.691406,0.0645 -0.389948,-0.38995 -0.753634,-1.43954 -0.974609,-2.81641 -0.43369,-2.70226 -0.989741,-9.24026 -0.994141,-11.69141 -0.0031,-1.69055 0.07544,-1.88061 1.123047,-2.74414 1.969725,-1.62361 9.269763,-5.8531 10.427734,-6.04101 0.18579,-0.0301 0.356222,-0.0493 0.509766,-0.0527 z m 104.261716,0.41016 c -0.0832,0.001 -0.13688,0.0134 -0.16015,0.0371 -0.29617,0.30205 -0.5787,4.48615 -0.31641,4.68555 0.0835,0.0635 2.67195,0.93528 5.75195,1.9375 3.08,1.00222 7.11099,2.45736 8.95899,3.23242 3.53801,1.48386 4.02921,1.62294 4.27539,1.22461 0.0837,-0.13549 0.24989,-1.25247 0.37109,-2.48243 l 0.22071,-2.23632 -4.61524,-1.81836 c -5.53904,-2.1826 -13.23872,-4.59924 -14.48633,-4.58008 z m 25.13477,3.68359 c 1.63813,0 10.16022,6.30938 10.88476,8.0586 0.2952,0.7137 0.29372,1.69392 -0.004,4.35156 -0.60617,5.41285 -1.50997,10.25306 -2.07617,11.11719 -0.30912,0.47179 -0.82449,0.79297 -1.27149,0.79297 -0.86943,0 -5.60264,-3.26187 -8.125,-5.59961 -2.11471,-1.95992 -2.36575,-2.96838 -1.95117,-7.8125 0.58454,-6.83003 1.53454,-10.90821 2.54297,-10.90821 z m -128.853518,3.66602 c -0.573086,0.0582 -2.547433,0.91391 -5.572265,2.41797 l -5.433594,2.70117 0.0039,1.92773 c 0.0024,1.06014 0.09114,2.25244 0.197266,2.64844 0.106122,0.396 0.313998,0.71875 0.462891,0.71875 0.148892,0 1.824074,-0.82784 3.722656,-1.83984 1.898579,-1.012 4.317047,-2.27083 5.373047,-2.79883 l 1.919922,-0.96094 -0.109375,-2.24023 c -0.05967,-1.232 -0.240851,-2.37851 -0.404297,-2.54883 -0.02363,-0.0246 -0.07829,-0.0337 -0.160157,-0.0254 z m 128.296878,1.88476 c -0.2576,0.2576 -0.71367,2.72151 -0.73047,3.94922 -0.013,0.9526 0.1724,1.1232 2.79492,2.60157 1.54387,0.87031 3.73878,2.1752 4.87891,2.89843 1.14014,0.72323 2.23485,1.31636 2.43359,1.31836 0.37647,0.003 1.14867,-4.24864 0.89258,-4.91601 -0.25873,-0.67423 -9.93401,-6.18709 -10.26953,-5.85157 z m -145.150393,6.9336 c -0.436035,0.005 -7.599391,5.07115 -9.197266,6.5039 -0.06797,0.0609 -0.110396,0.11234 -0.169922,0.16993 l -0.226562,0.16601 0.0059,0.0547 c -0.411343,0.45312 -0.548259,0.81749 -0.455078,1.20898 0.09069,0.381 0.265616,1.41297 0.388672,2.29297 0.123056,0.88 0.285368,1.70785 0.361328,1.83985 0.278633,0.48419 0.774224,0.1875 4.021484,-2.40039 1.821962,-1.452 3.990126,-3.10613 4.81836,-3.67579 l 1.505859,-1.03515 -0.183593,-1.84375 c -0.266307,-2.67615 -0.427601,-3.28625 -0.869141,-3.28125 z m 160.843753,2.56445 c -0.20002,-0.004 -0.45567,0.67572 -0.56836,1.51172 -0.1127,0.836 -0.28326,2.03578 -0.37696,2.66602 -0.15803,1.06252 -0.0579,1.23627 1.36914,2.39257 0.84644,0.68587 2.67238,2.31911 4.05665,3.62891 1.90859,1.80593 2.57705,2.27231 2.76757,1.92773 0.13819,-0.24992 0.4335,-1.54543 0.65625,-2.8789 l 0.4043,-2.42578 -1.4375,-1.32617 c -2.44887,-2.2573 -6.48886,-5.4881 -6.87109,-5.4961 z m -87.29688,1.04492 c -0.58644,0.0211 -1.69337,0.51885 -3.61914,1.61524 -1.71655,0.97729 -3.52602,1.92762 -4.02148,2.11328 -1.25687,0.47097 -2.82494,0.40403 -3.56055,-0.15234 -0.84925,-0.64235 -2.72765,-0.58948 -6.46289,0.18164 -1.73537,0.35826 -6.82841,1.30017 -11.31641,2.09375 -4.488,0.79358 -10.46329,1.87815 -13.27929,2.4082 -8.191201,1.54181 -8.218383,1.55392 -6.853519,3.28906 0.366951,0.46651 0.8098,1.3592 0.982421,1.98438 0.253124,0.91674 0.399217,1.06552 0.75586,0.76953 0.597853,-0.49618 0.677712,-0.43953 6.216798,4.28711 3.56298,3.04037 5.1357,4.61555 5.99023,6 1.03689,1.67989 1.27033,1.87695 2.22071,1.87695 1.20865,0 1.99787,0.59298 9.5664,7.18164 7.30225,6.35685 8.5297,7.3753 9.97461,8.2793 1.68531,1.05443 1.8933,1.4013 1.25781,2.10351 -0.68889,0.76121 -0.64466,1.29413 0.1836,2.17578 0.767,0.81643 1.41955,0.95425 1.62304,0.34375 0.1024,-0.30725 0.31474,-0.3127 0.94532,-0.0254 0.70923,0.32315 1.70947,0.0612 7.81445,-2.04492 3.85068,-1.32844 7.72156,-2.68019 8.60156,-3.0039 0.88,-0.32371 2.00639,-0.59361 2.50196,-0.59961 0.49557,-0.006 1.18733,-0.16242 1.53711,-0.34961 1.64711,-0.88151 28.48106,-7.85071 32.80468,-8.51953 2.49663,-0.3862 3.54306,-0.6908 3.97852,-1.15821 0.61238,-0.65731 1.9653,-0.84398 2.9375,-0.40625 0.43136,0.19422 0.56055,0.10355 0.56055,-0.39258 0,-0.50986 -2.5508,-2.12973 -12.24024,-7.77734 -22.19483,-12.93651 -38.14881,-22.06904 -38.87891,-22.25391 -0.0634,-0.016 -0.13692,-0.0225 -0.2207,-0.0195 z m -0.84961,2.10547 c 1.25907,0.0868 2.58985,0.81891 2.58985,1.51758 0,0.68731 -2.3403,0.57754 -2.99024,-0.14063 -0.62832,-0.69427 -0.68872,-1.32164 -0.13086,-1.37304 0.1729,-0.0159 0.35139,-0.0163 0.53125,-0.004 z m 9.60547,8.46875 c 0.209,-0.0131 0.38067,-0.007 0.50195,0.0234 1.20094,0.30142 2.21551,1.29957 1.97071,1.9375 -0.19212,0.50067 -0.49157,0.54013 -2.56641,0.3457 -1.95314,-0.18302 -2.43988,-0.13044 -2.87695,0.30664 -1.1407,1.14069 -0.23821,2.13179 2.49804,2.74414 1.49302,0.33412 1.79977,0.29342 3.61524,-0.4707 2.52906,-1.0645 4.49943,-1.08071 6.70312,-0.0547 2.02607,0.94332 4.51918,3.17527 5.10547,4.57032 1.50623,3.58396 -1.13787,7.20577 -6.40625,8.77539 -1.25478,0.37384 -2.57805,0.94856 -2.9414,1.27734 -0.36334,0.32878 -0.86648,0.59734 -1.11914,0.59766 -0.25265,4e-4 -1.51187,-1.10101 -2.79688,-2.44922 -1.81171,-1.90082 -2.31493,-2.63185 -2.24023,-3.25 0.17692,-1.46337 0.94227,-1.56273 3.375,-0.44141 1.21765,0.56125 2.63446,1.01958 3.14843,1.01758 1.27108,-0.004 4.09018,-1.3593 4.73047,-2.27344 0.8165,-1.16571 0.67332,-2.92629 -0.32031,-3.91992 -1.01179,-1.01179 -1.67326,-1.04396 -4.11719,-0.20313 -4.77112,1.64151 -10.25549,0.21992 -11.96093,-3.0996 -0.56792,-1.10541 -0.43727,-2.90259 0.26171,-3.60157 0.67823,-0.67822 3.97259,-1.74018 5.43555,-1.83203 z m -14.03516,0.56641 c 1.29157,-0.0915 1.94854,0.49782 1.71876,1.72265 -0.15734,0.8387 0.16661,1.74178 1.75781,4.91602 2.17649,4.34181 4.50195,9.97816 4.50195,10.9082 0,0.71384 -2.42566,2.89844 -3.21875,2.89844 -0.75566,0 -7.49263,-7.06076 -9.90625,-10.38281 C 134.9008,153.23149 133.85984,152 133.68164,152 c -0.52057,0 0.0137,4.81161 1.05859,9.53516 1.05739,4.77993 0.99037,5.23638 -0.99414,6.90625 -0.54783,0.46096 -1.19117,0.83789 -1.42968,0.83789 -0.46583,0 -3.13716,-3.57181 -6.01368,-8.04102 -2.0486,-3.18289 -4.1375,-7.22447 -4.69335,-9.08008 -0.50783,-1.69532 -0.93626,-2.23043 -2.08985,-2.61132 -1.04911,-0.3464 -1.42919,-1.3723 -0.72461,-1.95704 0.55609,-0.46152 5.07033,-2.2668 6.26563,-2.50586 1.50132,-0.30027 1.60767,0.69495 0.22461,2.11133 l -1.13868,1.16602 0.47461,1.34765 c 1.37383,3.89383 4.33574,8.92905 5.00782,8.51368 0.15996,-0.0989 0.29101,-2.44874 0.29101,-5.22071 0,-5.67243 0.10442,-5.99645 2.08594,-6.44336 1.55863,-0.35153 2.84312,0.28821 3.89453,1.93946 1.16619,1.8315 5.03114,6.33427 5.45899,6.35937 0.61495,0.036 0.47881,-0.54224 -0.86524,-3.6582 -1.18945,-2.75755 -1.29138,-2.88817 -2.4043,-3.07227 -2.28426,-0.37786 -2.24408,-1.44149 0.0957,-2.54297 1.17707,-0.55412 2.18014,-0.85524 2.95507,-0.91015 z m 106.5,0.92578 c -0.38427,0 -0.18848,1.13854 0.70704,4.11328 0.33673,1.11854 0.61328,2.8322 0.61328,3.80664 0,1.50712 0.18469,2.06583 1.24218,3.74024 2.9898,4.73401 5.62909,11.09409 6.97852,16.81835 1.18774,5.03832 1.39163,13.67696 0.45313,19.17188 -1.54334,9.03627 -5.60277,17.86848 -12.28711,26.73633 -2.59069,3.43696 -10.84695,11.65745 -14.62696,14.5625 -17.09288,13.13638 -37.508,21.32091 -61.82812,24.78906 -8.81613,1.25722 -14.4363,1.55695 -25.7168,1.37305 -13.07515,-0.21315 -20.82709,-1.09669 -31.8164,-3.63086 -38.165231,-8.80101 -65.740881,-32.20844 -70.455083,-59.80078 -0.91934,-5.38094 -0.699043,-14.0747 0.482422,-19.03907 1.892474,-7.95193 5.652917,-16.01258 10.359375,-22.20117 0.79968,-1.05151 1.453125,-2.234 1.453125,-2.6289 0,-1.92889 -0.485763,-6.21094 -0.705078,-6.21094 -0.403325,0 -4.034679,4.68552 -6.572266,8.48047 -12.440237,18.60431 -14.078713,39.31858 -4.634766,58.56054 3.58854,7.31161 8.399847,13.72701 15.25586,20.33594 18.527828,17.8601 47.836731,29.29449 79.777341,31.125 4.33616,0.24851 16.90025,0.18324 21.11914,-0.10937 21.40392,-1.48454 41.617,-6.90191 58.42774,-15.66016 23.45059,-12.21756 40.0656,-30.55532 45.42969,-50.13867 3.87058,-14.13089 2.23348,-28.25068 -4.82813,-41.63477 -2.66609,-5.05312 -7.94216,-12.55859 -8.82813,-12.55859 z m -188.486323,1.30078 c 0.205552,0.005 0.419382,0.13696 0.634765,0.39649 0.886403,1.06803 2.302816,13.81418 1.703126,15.32421 -0.866894,2.18285 -2.604496,1.60555 -3.298829,-1.0957 -0.601346,-2.33952 -0.597071,-12.17653 0.0059,-13.60547 0.28965,-0.68646 0.612491,-1.02868 0.955078,-1.01953 z M 98,151.39844 c -0.169193,-0.0507 -0.471354,0.1504 -0.886719,0.60937 -0.668931,0.73916 -1.112895,0.14547 4.578129,6.13867 1.62198,1.7081 2.94917,3.29164 2.95117,3.51954 0.002,0.2279 -0.46284,0.79687 -1.0332,1.26562 l -1.03711,0.85352 1.05664,1.47265 c 1.89034,2.63225 1.9569,4.83085 0.1875,6.22266 -0.42726,0.33609 -0.77735,0.87974 -0.77735,1.20703 0,0.32729 1.37096,2.1779 3.04492,4.11328 3.03353,3.50728 3.81772,4.5406 5.40625,7.11914 0.88825,1.44183 1.47071,1.74528 1.47071,0.76758 0,-0.61926 -1.06297,-2.20466 -3.40821,-5.08398 -0.78093,-0.95878 -1.39257,-2.04605 -1.39257,-2.47657 0,-0.52969 -0.54402,-1.24383 -1.75586,-2.30664 -2.46899,-2.16536 -2.26414,-2.63005 0.59961,-1.36328 0.8164,0.36113 1.62457,0.56938 1.79687,0.46289 0.17993,-0.1112 -0.22442,-1.20815 -0.94922,-2.57617 -1.14431,-2.15985 -1.2446,-2.53824 -1.07422,-4.0625 0.10335,-0.92456 0.38272,-1.90604 0.6211,-2.18164 0.37368,-0.43203 0.24258,-0.76319 -0.96094,-2.40039 -0.76774,-1.0444 -1.86466,-2.33138 -2.43555,-2.85938 -0.57089,-0.528 -2.18127,-2.22993 -3.58007,-3.78125 -2.27769,-2.52602 -2.522677,-2.91846 -2.337896,-3.75976 0.120234,-0.54742 0.08521,-0.84969 -0.08398,-0.90039 z m 7.21289,3.51562 c -0.045,-0.002 -0.0819,0.01 -0.10742,0.0352 -0.0879,0.0879 -0.07,0.39636 0.041,0.68555 0.20865,0.54373 1.09375,0.74111 1.09375,0.24414 0,-0.32526 -0.7123,-0.95054 -1.02734,-0.96485 z m 138.21875,3.89258 c 0.23614,-0.10914 0.4082,0.25493 0.4082,1.14258 0,1.81005 -0.63494,6.16334 -0.99804,6.8418 -0.16737,0.31272 -0.46439,0.56836 -0.66016,0.56836 -0.43794,0 -0.13588,-4.5108 0.45898,-6.85547 0.25512,-1.00556 0.55488,-1.58813 0.79102,-1.69727 z m -130.13476,3.47656 c -0.0907,-0.0115 -0.17317,0.005 -0.23047,0.0625 -0.0939,0.0939 -0.075,0.32596 0.041,0.51368 0.2607,0.42186 0.8125,0.44801 0.8125,0.0391 0,-0.28317 -0.35081,-0.58065 -0.62304,-0.61524 z m 79.72656,3.78321 c -1.28047,-0.10715 -4.67195,0.75437 -12.62696,2.73437 -19.60485,4.87965 -29.80685,7.81487 -33.92968,9.75977 l -1.53321,0.72265 0.20313,1.36133 c 0.13302,0.88697 0.0767,1.43907 -0.16406,1.58789 -0.23281,0.14386 -0.29021,0.60214 -0.1543,1.23828 0.37998,1.77852 0.60873,1.87768 4.04297,1.75977 1.7349,-0.0596 3.17099,0.0246 3.21679,0.1875 0.10879,0.38711 -4.04874,1.88547 -9.0332,3.25586 -4.22213,1.1608 -5.58974,1.20234 -4.16406,0.12695 0.70814,-0.53414 0.7334,-0.62371 0.23633,-0.81445 -0.30724,-0.11798 -0.93016,-0.1219 -1.38477,-0.008 -0.70953,0.17809 -1.33348,-0.22087 -4.40039,-2.81836 -1.965,-1.66425 -6.9558,-6.14919 -11.0918,-9.9668 -4.136,-3.8176 -7.99156,-7.30614 -8.56835,-7.75195 -2.14941,-1.66131 -1.26736,-0.36793 2.29492,3.36328 3.00239,3.14478 3.63845,3.97488 3.48632,4.55664 -0.15652,0.59857 -0.0846,0.67848 0.45313,0.50781 0.50478,-0.16021 1.2035,0.37867 3.32617,2.55859 1.47824,1.5181 4.88436,4.77387 7.56836,7.23438 5.17702,4.74594 5.64242,5.46595 3.91992,6.06641 -1.05233,0.36685 -1.28948,0.9121 -0.39648,0.9121 0.31014,0 1.71328,-0.36738 3.11914,-0.8164 2.67728,-0.85507 6.50383,-1.74414 7.50781,-1.74414 0.49957,0 0.56203,0.18855 0.41992,1.24804 -0.18215,1.35806 0.22122,1.76325 2.3086,2.31836 1.38868,0.3693 11.37088,0.018 15.76367,-0.55468 4.28158,-0.55821 10.87022,-1.79021 14.63672,-2.73633 3.71633,-0.93351 11.45784,-3.47885 11.88672,-3.9082 0.20203,-0.20224 0.71081,-1.23111 1.1289,-2.28711 0.66394,-1.67698 0.70603,-2.02922 0.34375,-2.7793 l -0.41406,-0.85742 -1.35351,0.5957 c -0.744,0.32812 -2.72058,0.82869 -4.39258,1.11328 -9.03935,1.53861 -22.78996,4.17542 -29.10742,5.58008 -3.95354,0.87906 -7.2552,1.52997 -7.3379,1.44727 -0.57956,-0.57956 2.39342,-1.61024 24.12696,-8.36719 6.20013,-1.92762 7.05152,-2.27333 7.14062,-2.89258 0.18795,-1.3068 2.72226,-3.11938 6.17383,-4.41406 4.06957,-1.5265 6.26766,-3.26526 7.05859,-5.58399 0.40358,-1.18316 0.68538,-1.85221 -0.31054,-1.93554 z m -78.72071,5.23828 c -0.18233,0.0701 0.21805,1.07507 1.08008,2.49414 0.62875,1.03502 1.2791,1.88086 1.44531,1.88086 0.36957,0 -0.99028,-2.74306 -1.90429,-3.8418 -0.33518,-0.40292 -0.53821,-0.56506 -0.6211,-0.5332 z m 78.95313,2.18359 c -0.39326,-0.0581 -0.75295,0.29239 -1.22461,1.0918 -0.51779,0.8776 -0.59554,1.282 -0.33984,1.75976 0.43328,0.8096 0.72589,0.78339 1.11328,-0.0996 0.17374,-0.396 0.63915,-0.76606 1.03515,-0.82226 0.85388,-0.12127 0.91881,-0.58881 0.19141,-1.39258 -0.29024,-0.32071 -0.53944,-0.50223 -0.77539,-0.53711 z m -118.638672,0.43164 c 5.23629,0 5.722369,0.0489 6.558593,0.66797 1.280438,0.94795 1.730185,2.06154 1.9375,4.80273 0.233495,3.08734 -0.101545,3.70749 -2.699219,4.98633 -1.115861,0.54933 -2.73169,1.06594 -3.589843,1.14844 -1.767719,0.16986 -2.131697,-0.16163 -3.056641,-2.7832 -0.651171,-1.84562 -0.900979,-2.11757 -3.429687,-3.74024 -2.26207,-1.45157 -2.81836,-2.1322 -2.81836,-3.44922 0,-1.42565 0.899441,-1.63281 7.097657,-1.63281 z m 12.265624,1.35742 c 0.176309,-0.0132 0.351067,0.14517 0.416016,0.48243 0.06746,0.35027 -0.08838,0.56054 -0.417969,0.56054 -0.307434,0 -0.484198,-0.20812 -0.423828,-0.49804 0.07236,-0.34754 0.249473,-0.53172 0.425781,-0.54493 z m 107.046878,3.12305 -0.63867,0.79883 c -0.35049,0.44 -0.64054,0.98117 -0.64454,1.20117 -0.008,0.43142 0.68494,0.50521 1.83399,0.19727 0.8842,-0.23694 0.89774,-0.47424 0.084,-1.44141 z m 27.53711,0.83399 c 0.73524,-0.0225 1.64538,0.006 2.79101,0.0645 5.93235,0.30202 7.09065,0.89743 5.40625,2.78125 -1.8741,2.09595 -2.78183,2.59457 -6.05273,3.33008 -0.60176,0.13532 -1.13442,0.66177 -1.73438,1.71289 -0.47617,0.83426 -1.07834,1.76817 -1.33984,2.07617 -0.7117,0.83825 -1.87127,0.69898 -2.5293,-0.30469 -0.39517,-0.60274 -0.60129,-1.66851 -0.67969,-3.51172 -0.0936,-2.20157 0.003,-2.8839 0.57227,-4.06054 0.72623,-1.50018 1.36067,-2.02028 3.56641,-2.08789 z m -106.33008,0.0215 c -0.0548,-0.009 -0.0981,-10e-4 -0.125,0.0254 -0.10118,0.10118 -0.0226,0.48449 0.17383,0.85156 0.34739,0.64911 1.29492,0.93907 1.29492,0.39649 0,-0.34815 -0.9599,-1.2081 -1.34375,-1.27344 z m -51.222658,0.9043 c 0.75799,0 4.225133,3.68404 5.205079,5.53125 0.911513,1.71823 0.784178,2.16191 -0.957032,3.34765 v 0.002 c -1.325962,0.9029 -2.669318,0.92158 -3.482421,0.0488 -0.739381,-0.79363 -1.320313,-3.78401 -1.320313,-6.79687 0,-1.81007 0.08471,-2.13281 0.554687,-2.13281 z m 71.382818,2.78125 c -0.23319,0.011 -0.43501,0.0878 -0.56641,0.24609 -0.26284,0.3167 -0.14252,0.66635 0.48828,1.41602 1.23638,1.46935 2.34829,1.22261 1.93359,-0.42969 -0.17765,-0.70784 -1.15593,-1.26534 -1.85546,-1.23242 z m 60.30664,0.8125 -0.53321,1.91797 c -0.40525,1.45762 -0.44349,2.02268 -0.16406,2.35937 0.22376,0.26957 0.66285,0.36795 1.125,0.25195 1.11432,-0.27968 2.09492,-0.28653 3.08789,-0.0234 1.6628,0.44057 1.04586,-0.84693 -1.31641,-2.74219 z m -71.21094,1.89062 c -0.0328,-0.009 -0.0562,-0.008 -0.0703,0.006 -0.28916,0.28916 1.25565,3.23966 2.35546,4.49805 1.34066,1.53398 3.4723,4.92777 3.89063,6.19531 0.35864,1.08668 1.27148,1.53381 1.27148,0.62305 0,-0.2601 -0.38583,-1.25917 -0.85742,-2.22071 -0.80328,-1.63787 -0.82944,-1.83158 -0.42578,-3.05468 0.41784,-1.26606 0.40292,-1.33329 -0.49219,-2.26758 -0.72319,-0.75483 -1.10725,-0.92324 -1.77148,-0.77735 -0.72632,0.15953 -1.0568,-0.0571 -2.30664,-1.50781 -0.70205,-0.81487 -1.36378,-1.42891 -1.59375,-1.49414 z m 109.35156,0.22852 c 0.92781,-0.001 1.2769,1.17941 1.01367,3.51172 -0.38727,3.43132 -0.90915,5.18528 -1.73633,5.83593 -0.43321,0.34077 -0.94826,0.60575 -1.14453,0.58985 -1.73542,-0.14035 -5.3164,-2.44521 -5.3164,-3.42188 0,-0.54632 3.68054,-4.369 5.5625,-5.77734 0.65838,-0.49269 1.19936,-0.73768 1.62109,-0.73828 z m -112.57617,3.35937 c -0.0683,-7.9e-4 -0.11514,0.008 -0.13477,0.0274 -0.0785,0.0785 1.04474,1.48282 2.4961,3.12109 1.45136,1.63827 3.14314,3.7342 3.75976,4.6582 0.95135,1.42559 1.67188,2.08924 1.67188,1.53906 0,-0.0785 -1.29906,-2.08234 -2.88477,-4.45117 -2.26527,-3.38401 -3.09801,-4.3819 -3.89062,-4.6582 -0.41613,-0.14506 -0.81271,-0.23394 -1.01758,-0.23633 z m 22.83008,7.60742 c -1.58684,-0.0714 -9.18457,0.94649 -9.93164,1.40821 -0.174,0.10752 -0.23447,0.33161 -0.13282,0.49609 0.10166,0.16446 0.5015,0.23304 0.88672,0.15234 0.38521,-0.0807 1.77961,-0.31189 3.09961,-0.51367 3.03789,-0.4644 6.08414,-1.15612 6.35352,-1.4414 0.0562,-0.0595 -0.0487,-0.0914 -0.27539,-0.10157 z m -76.832034,1.24024 c 0.922803,0 5.154296,5.41501 5.154296,6.5957 10e-7,1.32906 -1.090511,0.89953 -2.708984,-1.0664 -2.639588,-3.2063 -3.666589,-5.5293 -2.445312,-5.5293 z m 63.664064,0.72265 c -0.19694,0.0281 -0.41869,0.20138 -0.51758,0.49805 -0.0697,0.209 0.10219,0.37891 0.38086,0.37891 0.27866,0 0.50586,-0.22719 0.50586,-0.50586 0,-0.28255 -0.1722,-0.39923 -0.36914,-0.3711 z m 6.25781,2.50977 c -1.36002,0.0468 -2.46271,0.4096 -2.61328,0.86133 -0.17239,0.51716 1.74904,2.30664 2.47656,2.30664 0.86561,0 2.21348,1.21348 2.73633,2.46484 0.53992,1.29222 2.01147,3.05688 3.61523,4.33399 0.60779,0.484 1.19982,0.88086 1.31641,0.88086 0.94359,0 1.25163,-2.66473 0.76953,-6.67969 l -0.20703,-1.7207 -1.84375,0.1914 c -1.82034,0.19026 -1.86399,0.17611 -3.58203,-1.23828 -1.22887,-1.01166 -2.01275,-1.42289 -2.66797,-1.40039 z m 93.66211,1.9707 c 0.67288,-0.0571 0.89785,0.55503 0.53711,1.58985 -0.38766,1.11203 -4.72212,5.63892 -6.32617,6.60742 -1.90368,1.1494 -2.83106,0.85057 -2.04883,-0.66211 0.63595,-1.22979 6.63569,-7.18761 7.52148,-7.46875 0.11402,-0.0362 0.22028,-0.0582 0.31641,-0.0664 z m -126.24219,3.4375 c 1.70893,0 3.20436,0.6899 3.49805,1.61524 0.26056,0.82094 -1.03755,3.56614 -2.375,5.02344 -0.52496,0.572 -1.23733,1.04101 -1.58203,1.04101 -0.79654,0 -1.30433,-1.37338 -1.54883,-4.18359 -0.24895,-2.86139 0.11617,-3.4961 2.00781,-3.4961 z m 84.87305,3.60547 c 0.41246,0.0455 0.69922,0.31201 0.69922,0.83008 0,0.33869 0.21647,0.69752 0.48047,0.79883 0.59048,0.2266 0.62438,2.7118 0.0605,4.36523 -0.62727,1.83941 -1.95624,1.59454 -3.07421,-0.5664 -0.20674,-0.39963 -0.2899,-0.86707 -0.1836,-1.03907 0.10631,-0.172 -0.0477,-0.72345 -0.34375,-1.22461 -0.49868,-0.84432 -0.50117,-0.96898 -0.0176,-1.70703 0.65287,-0.99638 1.69147,-1.53292 2.37891,-1.45703 z m -83.67969,15.07227 c 1.34543,0.0158 3.23437,0.58252 5.27344,1.60937 1.66351,0.83774 2.93126,1.20624 5.0625,1.47266 4.21676,0.52712 6.91375,1.40615 8.29101,2.70508 0.69831,0.65859 1.12059,1.33215 1.05469,1.67773 -0.32687,1.71387 -9.10329,0.0579 -18.11133,-3.41601 -3.7832,-1.45896 -4.89412,-3.04268 -2.71875,-3.87696 0.31315,-0.12009 0.69997,-0.17715 1.14844,-0.17187 z m 81.26172,3.17187 c 0.62155,0.0292 1.17327,0.20769 1.5957,0.54102 0.71835,0.56683 0.81931,0.80682 0.55079,1.30859 -0.67859,1.26795 -3.82767,2.21923 -14.07032,4.25196 -8.97238,1.78063 -9.27929,1.7701 -9.27929,-0.28126 0,-0.82255 0.20415,-1.22968 0.8164,-1.63085 1.65742,-1.08598 4.99746,-1.73301 10.42188,-2.01758 4.94429,-0.25937 5.40643,-0.33721 6.57031,-1.10742 1.13056,-0.74818 2.35861,-1.11306 3.39453,-1.06446 z"
       id="path401"
       inkscape:connector-curvature="0" />
  </g>
</svg>
