<?xml version="1.0" encoding="UTF-8" standalone="no"?>
<!-- Created with Inkscape (http://www.inkscape.org/) -->

<svg
   version="1.1"
   id="svg9"
   width="605.48029"
   height="453.16534"
   viewBox="0 0 605.48029 453.16534"
   sodipodi:docname="flyer.svg"
   inkscape:version="1.1 (c68e22c387, 2021-05-23)"
   xmlns:inkscape="http://www.inkscape.org/namespaces/inkscape"
   xmlns:sodipodi="http://sodipodi.sourceforge.net/DTD/sodipodi-0.dtd"
   xmlns="http://www.w3.org/2000/svg"
   xmlns:svg="http://www.w3.org/2000/svg">
  <defs
     id="defs13" />
  <sodipodi:namedview
     id="namedview11"
     pagecolor="#ffffff"
     bordercolor="#666666"
     borderopacity="1.0"
     inkscape:pageshadow="2"
     inkscape:pageopacity="0.0"
     inkscape:pagecheckerboard="0"
     showgrid="false"
     inkscape:zoom="1.7852204"
     inkscape:cx="153.48245"
     inkscape:cy="226.58267"
     inkscape:window-width="1920"
     inkscape:window-height="1017"
     inkscape:window-x="-8"
     inkscape:window-y="-8"
     inkscape:window-maximized="1"
     inkscape:current-layer="g423" />
  <g
     inkscape:groupmode="layer"
     inkscape:label="Image"
     id="g15"
     style="display:inline">
    <g
       id="g423">
      <path
         id="path437"
         style="fill:#800080;stroke-width:0.125984"
         d="m 289.23242,68.265625 c -9.28883,-0.202632 -18.55549,0.377445 -27.5625,1.730469 -29.69684,4.461035 -57.41819,17.186249 -80.31836,36.869136 -7.39802,6.35866 -14.54318,13.75695 -20.65234,21.38477 -5.85123,7.30577 -10.93278,15.12134 -15.38281,23.25586 -10.72524,19.6054 -17.35343,41.27768 -19.13672,63.67578 -0.66727,8.38093 -0.66727,17.57219 0,25.95313 2.82232,35.44829 17.5983,69.18374 41.76758,95.36914 29.2765,31.71863 69.56383,50.15827 112.55664,51.51757 4.50061,0.14203 5.43929,0.14266 9.63867,0.008 13.95526,-0.44809 26.52197,-2.37353 39.41992,-6.04297 13.3739,-3.80485 26.13562,-9.47423 38.03906,-16.60547 0.0774,-0.0464 0.15505,-0.0922 0.23242,-0.13867 14.59394,-8.77656 27.86449,-19.79942 39.06446,-32.83008 22.13008,-25.74736 35.45488,-57.64242 38.13281,-91.27734 0.66728,-8.38094 0.66728,-17.5722 0,-25.95313 -2.67757,-33.63025 -16.00579,-65.5355 -38.13281,-91.2793 -14.47722,-16.8436 -32.37798,-30.547899 -52.44141,-40.146481 -17.47826,-8.361806 -36.68868,-13.521354 -55.9375,-15.02539 -3.09217,-0.241612 -6.19083,-0.3973 -9.28711,-0.464844 z m -7.15234,13.855469 c 2.94569,-0.06932 5.89074,-0.04769 8.83398,0.05859 0.40565,0.01242 0.82317,0.02554 1.22266,0.04102 13.48428,0.598473 26.87244,3.02326 39.64258,7.283203 45.58142,15.205343 80.94736,52.039133 94.24023,98.150393 3.98905,13.83751 5.84345,28.23806 5.63867,42.60156 -0.002,0.57035 -0.0131,0.98931 -0.0176,1.48828 -0.35175,14.46005 -2.80246,28.86116 -7.38085,42.58594 -12.19137,36.54637 -38.39061,66.86744 -72.82618,84.28125 -7.04043,3.56029 -14.24095,6.50043 -21.61718,8.84179 -0.27163,0.086 -0.54575,0.16555 -0.81836,0.25 -12.31984,3.82904 -25.13258,5.98638 -38.54102,6.4668 -17.13854,0.61407 -34.72799,-1.92344 -51.02344,-7.35937 -50.85845,-16.96569 -88.53228,-60.64501 -97.74804,-113.33008 -2.04539,-11.69323 -2.6634,-24.32201 -1.77539,-36.29297 2.9984,-40.42022 22.63916,-77.6136 54.4707,-103.15234 1.13574,-0.91122 2.10696,-1.65625 2.16016,-1.65625 0.11056,0 0.68451,2.32743 1.25586,5.10156 0.81003,3.93308 1.6939,10.19629 2.00976,14.23633 0.40357,5.16155 0.43759,6.15167 0.43359,12.59765 -0.005,6.7793 -0.11662,9.61773 -0.62109,15.8125 -0.6497,7.97817 -1.77713,17.0156 -3.63672,29.16407 -0.56258,3.6753 -1.45101,9.40927 -1.9043,12.2832 -1.59817,10.13317 -3.01008,20.5086 -2.86523,21.0625 0.0719,0.27492 0.70243,0.29868 2.85938,0.10547 0.76589,-0.0686 3.37558,-0.26722 5.80078,-0.44141 2.42519,-0.17418 5.60152,-0.40447 7.05664,-0.50976 1.45511,-0.1053 3.86374,-0.27349 5.35351,-0.375 1.48976,-0.10153 4.24047,-0.29793 6.11133,-0.43555 4.07801,-0.29998 7.47473,-0.54201 13.29102,-0.95117 2.39055,-0.16817 5.13929,-0.3655 6.10937,-0.4375 2.87939,-0.21384 6.82185,-0.49569 10.64649,-0.75977 1.97481,-0.13635 4.72354,-0.33219 6.10937,-0.43555 3.26175,-0.24327 7.05004,-0.51405 11.52734,-0.82421 1.9748,-0.13681 4.6957,-0.33168 6.04688,-0.4336 1.35118,-0.10192 3.78962,-0.27296 5.41797,-0.3789 4.38017,-0.28495 4.43089,-0.28832 4.54687,-0.4043 0.0589,-0.0589 0.30372,-1.66585 0.54493,-3.57031 0.82542,-6.51677 1.21957,-9.37026 2.4707,-17.88672 1.89639,-12.90858 2.22196,-15.25068 3.00781,-21.60742 1.5485,-12.5256 2.06636,-19.95427 2.06836,-29.66993 0.002,-12.5082 -1.08871,-22.09959 -3.70312,-32.5664 -0.87532,-3.50435 -2.64292,-9.41831 -2.89649,-9.68946 -0.18488,-0.19771 -0.39508,-0.17687 -12.02344,1.24805 -2.35959,0.28914 -3.94188,0.48251 -10.39257,1.26563 -1.42047,0.17245 -3.49095,0.4267 -4.59961,0.56445 -1.10866,0.13775 -3.46159,0.42151 -5.22852,0.63086 -1.76693,0.20936 -4.37445,0.52302 -5.79492,0.69726 -1.42048,0.17423 -3.74358,0.45771 -5.16406,0.62891 -1.42047,0.17121 -3.26421,0.39495 -4.09571,0.49805 -1.45725,0.18068 -6.00542,0.73372 -11.40039,1.38672 -1.42047,0.17194 -4.00014,0.48532 -5.73242,0.69531 -1.73229,0.20998 -4.0852,0.49458 -5.22851,0.63281 -1.14331,0.13823 -3.21379,0.38947 -4.59961,0.5586 -1.38583,0.16911 -3.73876,0.45329 -5.22852,0.63281 -1.48976,0.17952 -3.52571,0.43629 -4.52539,0.57031 -1.6978,0.22761 -2.13965,0.23275 -1.82422,0.0195 0.0713,-0.0482 0.86301,-0.62245 1.75977,-1.27734 15.47475,-11.300859 33.01229,-19.45572 51.50195,-23.945314 9.69321,-2.353672 19.62272,-3.666868 29.57812,-4.001953 0.49807,-0.01431 0.98649,-0.03895 1.4961,-0.04883 z m -3.39844,26.224606 c 0.1851,0 0.32548,0.42703 0.95703,2.89649 2.01203,7.86737 2.96626,16.78622 2.75781,25.76562 -0.1756,7.56326 -1.24746,17.6467 -2.77148,26.07813 -0.10019,0.55433 -0.35654,2.00029 -0.57031,3.21289 -0.46061,2.61272 -1.2998,6.99546 -2.58008,13.48047 -1.72427,8.73392 -2.14148,10.91872 -3.08789,16.12695 -0.55789,3.07014 -1.35867,8.15935 -1.86328,11.8418 l -0.2168,1.57422 -0.81836,0.0879 c -0.4504,0.0481 -2.7178,0.2325 -5.03906,0.41015 -4.5378,0.34728 -6.90066,0.53083 -13.10352,1.01953 -3.55343,0.27997 -6.18314,0.48575 -14.48828,1.12696 -1.35118,0.10432 -3.19117,0.24856 -4.08984,0.32226 -1.50887,0.12378 -5.63655,0.44483 -12.03516,0.93555 -1.42047,0.10894 -3.60237,0.28195 -4.84961,0.38477 -1.24724,0.10281 -3.43109,0.27384 -4.85156,0.3789 -1.42048,0.10507 -3.54666,0.2726 -4.72461,0.37305 -1.17795,0.10044 -3.04759,0.24255 -4.15625,0.31445 h -0.002 c -1.10866,0.0719 -2.19428,0.15931 -2.41406,0.19531 -0.21979,0.036 -0.43371,0.0114 -0.47461,-0.0547 -0.082,-0.13266 0.36391,-3.12568 1.32421,-8.89453 0.70408,-4.22958 1.07318,-6.26346 3.00586,-16.56836 3.18705,-16.99319 4.36166,-25.06414 5.07227,-34.83399 0.21315,-2.92372 0.21414,-15.08026 0.002,-17.82617 -0.32854,-4.25194 -1.06972,-10.02936 -1.71094,-13.33203 -0.13219,-0.68118 -0.14191,-0.93561 -0.0352,-0.97071 0.0795,-0.0262 5.4749,-1.10219 11.98828,-2.39257 6.51339,-1.29037 13.65573,-2.70745 15.87305,-3.14844 2.21732,-0.44098 10.06969,-2.00002 17.44922,-3.46484 7.37952,-1.46483 16.09681,-3.19851 19.37109,-3.85157 3.27429,-0.65305 6.01133,-1.1875 6.08203,-1.1875 z m -12.18555,12.63672 c -0.10308,-0.0396 -1.21597,0.13086 -2.47461,0.37891 -13.15423,2.59236 -19.79245,3.90062 -23.76953,4.6875 -2.59843,0.5141 -6.19843,1.22418 -8,1.57812 -9.91376,1.94768 -12.72127,2.52402 -12.83203,2.63477 -0.14178,0.14179 0.12353,1.86541 0.32617,2.11719 0.007,0.008 0.0322,0.002 0.0391,0.01 -0.0121,0.0267 0.006,0.0453 0.14062,0.0352 0.20562,0.11308 0.58022,0.0859 2.29688,-0.26172 1.01264,-0.20508 5.61087,-1.11448 10.21875,-2.02149 8.3195,-1.63757 14.19956,-2.79641 20.72461,-4.08593 1.87087,-0.36972 5.63994,-1.10971 8.37695,-1.64258 2.737,-0.53287 5.11018,-1.02229 5.27344,-1.08789 0.26262,-0.10544 0.28723,-0.17299 0.21093,-0.58789 -0.23549,-1.28084 -0.3597,-1.68811 -0.53125,-1.75391 z m -1.02148,14.20313 c -0.25717,0.002 -0.86457,0.0549 -1.34961,0.11914 -0.83981,0.11115 -4.48233,0.57933 -10.83398,1.38867 -1.5937,0.20307 -4.48563,0.57086 -6.42579,0.81836 -1.94016,0.24748 -5.54016,0.70401 -8,1.01562 -2.45984,0.3116 -5.80329,0.73865 -7.43164,0.94727 -1.62835,0.20863 -4.52026,0.57504 -6.42578,0.81445 -1.90551,0.2394 -3.62789,0.46932 -3.82812,0.51172 l -0.36524,0.0781 0.0762,0.96679 c 0.0411,0.53254 0.11096,1.06549 0.15626,1.1836 0.0941,0.24507 0.35415,0.25941 1.63085,0.0898 1.11109,-0.14758 8.35408,-1.07132 19.27539,-2.45703 1.87086,-0.23738 4.73298,-0.60192 6.36133,-0.81055 2.8019,-0.35898 8.59231,-1.0957 14.84375,-1.88867 1.54689,-0.19622 2.87603,-0.41899 2.95313,-0.49609 0.16195,-0.162 0.1394,-1.12455 -0.043,-1.8125 -0.11658,-0.43965 -0.15858,-0.47275 -0.59375,-0.46875 z m 1.36133,11.78906 c -0.14107,-0.14106 -0.58134,-0.10684 -20.03321,1.55859 -5.17896,0.44342 -12.49757,1.06514 -15.49609,1.31641 -8.52789,0.7146 -10.30316,0.87881 -10.56445,0.97461 -0.28912,0.10603 -0.29308,0.13445 -0.20508,1.14648 0.0496,0.57067 0.11945,1.08684 0.15625,1.14844 0.0761,0.12724 0.74753,0.0876 5.98437,-0.35937 2.06139,-0.17594 5.40484,-0.46054 7.43165,-0.63282 2.02678,-0.17227 5.35825,-0.45712 7.40234,-0.63281 5.79877,-0.49846 12.3113,-1.05072 14.86719,-1.26172 1.28189,-0.10583 3.17938,-0.27194 4.21875,-0.36914 1.03937,-0.0972 2.79758,-0.24211 3.90625,-0.32031 1.10866,-0.0782 2.15243,-0.19763 2.31836,-0.26563 0.29334,-0.12018 0.29955,-0.15149 0.22265,-1.14843 -0.0435,-0.56392 -0.13828,-1.0836 -0.20898,-1.1543 z m 79.92578,2.02344 c -0.21217,0.0711 -0.55302,0.24238 -1.16016,0.5625 -0.74177,0.39111 -10.10894,5.17341 -20.81445,10.62695 -10.70551,5.45354 -20.59856,10.49905 -21.98438,11.21094 -1.38583,0.7119 -4.83315,2.47069 -7.66211,3.9082 -2.82896,1.43752 -5.17253,2.68734 -5.20703,2.77734 -0.0345,0.09 0.33324,1.5704 0.81836,3.29102 1.2013,4.26079 1.50113,5.37678 3.54883,13.20703 1.44707,5.5335 2.44582,8.90698 3.5293,12.69141 0.045,0.15905 0.10593,0.3889 0.15039,0.54492 2.07254,7.19657 3.91533,12.98127 6.05469,18.25976 3.98015,9.82037 9.39349,18.82055 15.51172,25.79493 0.53187,0.6063 1.024,1.10351 1.0957,1.10351 0.0717,0 6.7174,-3.77802 14.76758,-8.39648 8.05016,-4.61844 19.8239,-11.37401 26.16406,-15.01172 12.76722,-7.32522 12.47266,-7.15093 12.47266,-7.35156 0,-0.0787 -0.47241,-0.80162 -1.05079,-1.60547 -6.81653,-9.47398 -11.53301,-19.82757 -16.1914,-35.54102 -1.02235,-3.44854 -2.47871,-8.9442 -4.80078,-18.11914 -3.41371,-13.48823 -4.52173,-17.57061 -4.85938,-17.90625 -0.0877,-0.0872 -0.17064,-0.118 -0.38281,-0.0469 z m -3.3125,7.76562 c 0.24543,0.46127 2.17646,8.67666 4.0039,17.03125 2.66939,12.20377 3.89795,16.95806 5.99024,23.18164 2.53136,7.52968 5.36075,13.54107 9.34766,19.85938 0.5088,0.80634 0.92578,1.52069 0.92578,1.58789 0,0.0672 -4.21059,2.97795 -9.35547,6.46679 -5.14488,3.48885 -14.5572,9.87506 -20.91797,14.19141 -6.36076,4.31633 -11.61975,7.84766 -11.68555,7.84766 -0.1535,0 -1.49849,-1.69735 -2.71093,-3.42188 -3.96204,-5.63537 -7.38872,-12.83852 -9.85352,-20.70508 -1.84713,-5.8952 -3.11268,-11.09935 -5.63281,-23.17968 -1.93747,-9.28725 -3.0836,-14.30287 -4.17188,-18.25196 -0.23389,-0.84881 -0.36181,-1.52461 -0.32617,-1.64453 0.0202,-0.0565 0.69017,-0.42057 0.94922,-0.58594 0.36628,-0.23442 3.65003,-1.94438 25.91016,-13.4707 6.20157,-3.21118 12.66376,-6.56092 14.36132,-7.44531 2.07097,-1.07895 3.11292,-1.56074 3.16602,-1.46094 z m -77.60742,3.88477 c -0.1121,-0.0546 -0.99867,-0.03 -1.96875,0.0566 -0.97007,0.0866 -3.46194,0.30618 -5.53907,0.48633 -2.07712,0.18017 -4.68465,0.40884 -5.79492,0.50976 -2.09517,0.19046 -6.02456,0.53486 -13.67383,1.19531 -2.45984,0.21239 -5.32195,0.46656 -6.36132,0.56446 -1.03937,0.0979 -2.28645,0.20884 -2.77149,0.24804 -5.83125,0.47137 -12.39397,1.08028 -12.63281,1.17188 -0.15242,0.0585 -0.17444,0.25763 -0.11914,1.06445 0.0374,0.54594 0.1365,1.07634 0.2207,1.17774 0.17913,0.21588 0.11746,0.21295 1.57031,0.0605 0.62363,-0.0654 2.86319,-0.26287 4.97657,-0.43945 2.11339,-0.17659 4.06853,-0.35072 4.3457,-0.38672 0.27716,-0.036 1.83649,-0.17816 3.46484,-0.31445 5.18172,-0.43369 10.22946,-0.87047 11.46485,-0.99414 0.65827,-0.0659 1.6229,-0.15191 2.14258,-0.19141 0.51969,-0.0395 2.50269,-0.21128 4.4082,-0.38086 1.90551,-0.16957 5.1654,-0.45661 7.24414,-0.63672 6.51477,-0.56446 9.16026,-0.81757 9.27539,-0.88867 0.1287,-0.0795 0.14824,-1.2217 0.0312,-1.80664 -0.0438,-0.219 -0.17109,-0.44149 -0.2832,-0.49609 z m 73.95117,8.42187 c -0.29405,0 -28.64924,14.68632 -28.79492,14.91407 -0.0837,0.13079 -0.0288,0.38107 0.17968,0.82617 0.21239,0.45346 0.3706,0.63867 0.54883,0.63867 0.23185,0 28.245,-14.41742 28.76563,-14.80469 0.22287,-0.1658 0.21831,-0.20135 -0.12891,-0.87305 -0.21713,-0.42007 -0.44569,-0.70117 -0.57031,-0.70117 z m -78.96289,3.62305 c -0.97701,1.5e-4 -2.62795,0.0534 -5.39649,0.16016 -5.77367,0.22263 -8.79482,0.32576 -18.01562,0.62109 -2.14803,0.0688 -4.35973,0.15521 -4.91406,0.19141 -0.55433,0.0362 -2.96297,0.12375 -5.35352,0.19336 -7.40522,0.21547 -11.26811,0.39318 -11.43359,0.52929 -0.19387,0.15941 -0.21468,1.77303 -0.0274,2.12305 0.1523,0.28459 -0.0924,0.27728 3.58789,0.125 1.59272,-0.0659 4.68257,-0.18176 6.86524,-0.25586 7.7567,-0.26328 11.31772,-0.38524 14.67578,-0.50586 1.87086,-0.0672 5.13076,-0.18055 7.24414,-0.25195 6.40146,-0.2163 7.38554,-0.32442 9.44141,-0.45313 1.56933,-0.0581 3.38715,-0.12139 3.72461,-0.1543 l 0.4746,-0.0469 c 0.0142,-0.005 0.4968,-0.0185 0.5,-0.0234 0.13432,-0.20661 0.11425,-1.87289 -0.0254,-2.09375 -0.0672,-0.10635 -0.37064,-0.15835 -1.34765,-0.1582 z m 80.28125,3.68555 c -0.2291,0 -27.68592,15.47991 -27.87695,15.71679 -0.12097,0.15 -0.0991,0.29316 0.10937,0.70703 0.14381,0.28554 0.31927,0.59114 0.38867,0.67774 0.0694,0.0866 0.18948,0.15625 0.26758,0.15625 0.0781,-2.1e-4 1.47321,-0.75334 3.10156,-1.67383 1.62835,-0.9205 7.87961,-4.44859 13.89063,-7.83984 8.59169,-4.84718 10.92969,-6.21679 10.92969,-6.40821 0,-0.33864 -0.60555,-1.33593 -0.81055,-1.33593 z m -82.15821,6.29882 c -0.23203,0 -2.67813,0.25701 -5.43554,0.57227 -11.0416,1.2624 -14.95409,1.70884 -18.65235,2.12891 -2.7022,0.30694 -5.06543,0.57666 -11.62109,1.32812 -1.83623,0.21048 -4.35823,0.49678 -5.60547,0.63477 -2.23481,0.24724 -2.8581,0.32796 -3.45117,0.45117 -0.29426,0.0611 -0.29982,0.0852 -0.23242,1.06836 0.0379,0.55314 0.13845,1.09001 0.22265,1.1914 0.18491,0.22278 -0.0221,0.22187 1.94922,-0.01 1.54817,-0.1819 3.49786,-0.40437 9.95117,-1.14063 1.52441,-0.17392 3.96286,-0.45253 5.41797,-0.61914 1.45512,-0.1666 3.89356,-0.4455 5.41797,-0.61914 5.58049,-0.63563 13.1707,-1.50148 16.75586,-1.91211 1.52441,-0.1746 3.43104,-0.39287 4.23828,-0.48437 0.80721,-0.0915 1.53815,-0.20922 1.62305,-0.26172 0.1123,-0.0694 0.13171,-0.34977 0.0703,-1.02734 -0.11161,-1.23169 -0.14672,-1.30079 -0.64844,-1.30079 z m 84.82618,2.89649 c -0.132,0 -3.84966,1.67986 -8.26172,3.73242 -4.41206,2.05255 -8.33375,3.87431 -8.71485,4.04883 -1.18187,0.54124 -11.62552,5.40326 -12.125,5.64453 -0.5446,0.26308 -0.57319,0.42623 -0.21484,1.23633 0.16533,0.37374 0.33682,0.58203 0.47852,0.58203 0.12157,0 4.15849,-1.83174 8.9707,-4.07031 4.8122,-2.23858 9.11312,-4.23552 9.55859,-4.43946 5.58609,-2.5575 10.92544,-5.10639 11.02344,-5.26171 0.18084,-0.2867 -0.39472,-1.47266 -0.71484,-1.47266 z m 1.63476,6.50586 c -0.11925,0.01 -3.43475,1.72156 -7.36718,3.80469 -21.63369,11.45999 -23.02496,12.2109 -23.06836,12.43164 -0.0456,0.23197 0.42537,1.18702 0.66601,1.35156 0.0745,0.0509 0.14912,0.0927 0.16602,0.0937 0.0169,0.001 5.09071,-2.6809 11.27539,-5.96094 6.18469,-3.28004 12.98543,-6.88692 15.11328,-8.01367 2.12786,-1.12676 3.93362,-2.12465 4.01172,-2.21875 0.1967,-0.23702 -0.48668,-1.51328 -0.79688,-1.48828 z m -87.76172,2.57226 c -0.43132,-0.13368 -1.36168,-0.0374 -3.35546,0.11524 -1.86948,0.14313 -4.76084,0.36998 -6.42383,0.5039 -1.663,0.13392 -3.87274,0.30366 -4.91211,0.37696 -1.03937,0.0733 -2.51319,0.19046 -3.27539,0.25976 -0.76221,0.0693 -2.88839,0.24106 -4.72461,0.38086 -1.83622,0.13981 -5.15378,0.39206 -7.3711,0.5625 -2.21732,0.17043 -5.1371,0.39487 -6.48828,0.49805 -3.11205,0.23766 -7.21262,0.56604 -8.43945,0.67578 l -0.94531,0.084 -0.0371,0.89257 c -0.0201,0.49049 0.0217,1.04703 0.0937,1.23633 0.12904,0.3394 0.14363,0.34333 0.98242,0.26953 0.83613,-0.0736 1.73107,-0.14402 9.79492,-0.75781 5.42568,-0.41299 8.62415,-0.66127 11.33984,-0.88281 1.24726,-0.10176 3.06118,-0.24461 4.03126,-0.31641 0.97007,-0.0718 3.17981,-0.24187 4.9121,-0.3789 1.73228,-0.13703 4.25625,-0.33406 5.60743,-0.4375 1.35119,-0.10343 3.16511,-0.24506 4.03125,-0.31446 0.86614,-0.0693 2.36781,-0.18416 3.33789,-0.25586 0.97008,-0.0717 1.86312,-0.16142 1.98437,-0.19922 0.18508,-0.0577 0.2207,-0.22425 0.2207,-1.04296 10e-6,-0.77062 0.068,-1.13585 -0.36328,-1.26954 z m 89.50782,7.56055 c -0.004,-0.003 -0.11531,0.0566 -0.1211,0.0547 -0.003,-0.001 -0.0131,-0.0226 -0.0156,-0.0234 -0.002,-5e-4 -0.36385,0.19274 -0.375,0.19727 -0.54834,0.11292 -2.90477,1.30428 -13.88282,7.08789 -7.80823,4.11363 -14.31364,7.5723 -14.45703,7.6875 l -0.26171,0.20898 0.3457,0.70508 c 0.1989,0.40571 0.42789,0.70312 0.54101,0.70312 0.10796,0 0.60442,-0.21999 1.10352,-0.49023 0.4991,-0.27022 6.6901,-3.53654 13.75781,-7.25781 7.06772,-3.72126 13.12009,-6.91089 13.44922,-7.08789 0.32913,-0.17699 0.59766,-0.4004 0.59766,-0.4961 0,-0.24771 -0.44758,-1.0948 -0.68164,-1.28906 z m 2.2207,6.47461 c -0.20572,0.0774 -3.06108,1.72949 -19.99414,11.57031 -4.49951,2.61493 -7.44816,4.40228 -7.47266,4.5293 -0.0222,0.11539 0.11283,0.47225 0.30078,0.79297 0.27118,0.46277 0.39866,0.57305 0.61719,0.53125 0.15147,-0.029 6.4073,-3.61639 13.90235,-7.97266 9.14085,-5.31283 13.62695,-7.98734 13.62695,-8.12305 0,-0.11129 -0.17043,-0.47483 -0.38086,-0.80664 -0.28689,-0.45244 -0.43775,-0.58238 -0.59961,-0.52148 z m 3.80078,6.54492 c -0.21115,0.081 -27.34623,18.41497 -27.66992,18.69531 -0.12127,0.10502 -0.2207,0.26939 -0.2207,0.36719 0,0.17793 0.57994,1.02732 0.8164,1.19531 0.0171,0.0122 0.10212,-0.0388 0.13867,-0.041 0.001,4.1e-4 0.0126,0.0156 0.0137,0.0156 3.3e-4,0 0.0503,-0.0331 0.0508,-0.0332 0.11156,-0.021 0.20435,-0.0163 0.35547,-0.10547 0.66953,-0.39502 27.26324,-18.38447 27.47265,-18.58398 0.16312,-0.1554 0.15665,-0.22976 -0.0488,-0.61133 -0.33043,-0.61357 -0.6987,-0.97884 -0.9082,-0.89844 z M 244.2832,243.05273 c -0.53785,0.0422 -0.47909,-0.11496 -1.57422,4.19141 -3.58658,14.10367 -4.73381,28.91113 -3.65039,47.11719 0.492,8.26745 1.2193,15.33914 3.33399,32.4414 1.44358,11.67473 1.61239,13.1122 2.14062,18.07813 0.21364,2.00847 0.43946,3.70312 0.50196,3.76562 0.0625,0.0625 1.09533,0.18901 2.29492,0.28321 2.10237,0.16505 14.15783,1.17432 23.1582,1.9375 2.39055,0.20269 8.08889,0.6808 12.66211,1.06445 23.21579,1.94754 29.43442,2.47652 30.29883,2.57422 0.51968,0.0588 1.29935,0.11405 1.73242,0.12305 0.10266,0.002 0.12074,-0.007 0.19922,-0.008 0.005,0.001 0.059,0.007 0.0606,0.008 0.002,9.3e-4 0.0266,-0.0113 0.0312,-0.0117 0.3441,-0.009 0.50063,-0.0468 0.51172,-0.19141 0.0834,-1.08691 -0.83093,-8.84264 -2.78907,-23.6543 -2.59794,-19.65128 -3.50037,-28.21457 -4.05664,-38.48828 -0.20921,-3.86906 -0.20817,-16.03434 0.002,-19.21289 0.45959,-6.9522 1.28313,-13.39855 2.41016,-18.86328 0.13917,-0.67456 0.22325,-1.30805 0.18555,-1.40625 -0.0377,-0.0982 -0.24836,-0.21075 -0.46875,-0.25195 -1.67052,-0.31241 -66.64116,-9.523 -66.98438,-9.4961 z m 3.53516,6.52149 c 0.1279,0 1.66715,0.33734 3.41992,0.74805 8.76068,2.05276 39.24926,9.17864 48.44922,11.32421 1.74805,0.40766 3.19878,0.76533 3.23438,0.79688 0.002,0.003 0.002,0.0143 0.004,0.0176 0.0282,0.0438 -0.10905,1.1838 -0.30859,2.56445 -0.3872,2.67898 -0.76728,6.20103 -1.03711,9.62109 -0.2203,2.79665 -0.22183,14.99382 -0.002,18.07813 0.70427,9.879 1.41164,15.41359 4.24805,33.25977 1.55001,9.75236 3.08789,20.30011 3.08789,21.18554 h -0.002 c 0,0.0928 -0.0975,0.1623 -0.21875,0.1543 -0.12126,-0.008 -4.98421,-0.4565 -10.80469,-0.99805 -12.42737,-1.15625 -16.50502,-1.53243 -32.43945,-2.99609 l -11.9043,-1.09375 -0.0898,-0.56641 c -0.0497,-0.31181 -0.26602,-2.01236 -0.48047,-3.7793 -0.16977,-1.39883 -0.75929,-4.83546 -1,-6.52539 -0.0436,-0.29315 -0.10848,-0.70415 -0.1543,-1.00781 -0.5727,-3.94494 -0.95709,-6.88775 -2.24609,-14.64062 -2.33124,-14.02156 -3.02563,-18.68109 -3.70899,-24.88282 -1.67518,-15.20274 -1.31546,-27.41963 1.13477,-38.6582 0.25061,-1.14947 0.35361,-1.60237 0.44922,-1.96094 0.0322,-0.0836 0.0952,-0.3955 0.12109,-0.43554 0.0754,-0.18722 0.13503,-0.20508 0.24805,-0.20508 z M 351.5,252.92383 c -0.0653,0.0653 -0.29038,0.96168 -0.5,1.99219 -1.68295,8.27298 -5.22767,16.96661 -10.94141,26.84375 -2.13508,3.69085 -4.87527,8.08227 -8.84765,14.17773 -4.50972,6.91997 -8.28138,12.86915 -8.59375,13.55469 -0.11253,0.2469 -0.10506,0.346 0.0371,0.47461 0.0989,0.0895 1.45656,0.62362 3.01562,1.18554 1.55905,0.56192 5.1014,1.8529 7.87305,2.86914 2.77166,1.01625 5.71929,2.09229 6.55078,2.39063 0.8315,0.29836 2.22175,0.80892 3.08789,1.13477 0.86614,0.32583 2.02769,0.75019 2.58203,0.94335 0.55433,0.19315 2.3404,0.8437 3.96875,1.44532 1.62835,0.60161 5.02947,1.84794 7.5586,2.77148 2.52914,0.92355 5.7035,2.08638 7.05468,2.58399 1.35118,0.49762 3.28043,1.2034 4.28516,1.56836 1.00472,0.36495 2.02506,0.75326 2.26758,0.86132 0.38847,0.17307 0.66728,0.20569 0.90039,0.15625 0.006,-2.5e-4 0.039,0.0147 0.043,0.0137 0.002,-4.2e-4 0.0424,-0.0665 0.0449,-0.0684 0.13445,-0.0516 0.27228,-0.0922 0.37109,-0.23243 0.13425,-0.19055 0.86608,-1.36746 1.625,-2.61523 0.75891,-1.24777 3.17924,-5.09462 5.37891,-8.54883 4.18665,-6.57438 4.92537,-7.75533 6.78516,-10.85156 6.88477,-11.46194 10.95769,-21.16105 12.80664,-30.49414 0.4416,-2.2291 0.88493,-5.3246 0.92773,-6.48242 l 0.0293,-0.81836 -0.62891,-0.20899 c -0.34646,-0.115 -2.58601,-0.8152 -4.97656,-1.55664 -5.99273,-1.85866 -8.05671,-2.50103 -12.2832,-3.81836 -6.29029,-1.96058 -9.0002,-2.80311 -11.2129,-3.48633 -2.27722,-0.70316 -7.40368,-2.30033 -11.96875,-3.72851 -3.29855,-1.03196 -3.36435,-0.97495 -4.38867,-1.24609 -0.13323,-0.0415 -0.5719,-0.17753 -0.66015,-0.20508 -0.3479,-0.10862 -0.4979,-0.12841 -0.79883,-0.20899 -0.15425,-0.0254 -1.36927,-0.41979 -1.39258,-0.39648 z m -94.28711,8.18945 c -0.10784,0.0414 -0.23881,0.39122 -0.32031,0.85938 -0.16744,0.96157 -0.17111,1.17312 -0.0215,1.26562 0.0638,0.0394 2.9139,0.71961 6.33203,1.51172 11.16877,2.58825 19.72743,4.57722 24.92188,5.79102 2.8063,0.65576 5.20319,1.19521 5.32617,1.19921 0.12454,0.004 0.27565,-0.12603 0.33985,-0.29492 0.17858,-0.46981 0.29862,-1.79745 0.16992,-1.87695 -0.0631,-0.039 -1.58638,-0.41175 -3.38477,-0.82813 -1.7984,-0.41638 -6.81187,-1.57904 -11.14258,-2.58398 -4.33071,-1.00495 -11.06161,-2.56744 -14.95703,-3.4707 -3.89543,-0.90327 -7.16377,-1.61067 -7.26367,-1.57227 z m 98.01563,0.1543 c 0.47103,0.0797 35.48204,8.13186 38.59765,8.87695 l 1.64844,0.39453 c 0.0249,0.0642 0.0182,0.24308 0.0195,0.37891 l -0.008,0.0742 c -0.0757,0.81227 -0.66024,3.70233 -1.04492,5.16601 -0.92735,3.52849 -2.14948,6.80008 -3.93164,10.51953 -2.77196,5.78518 -5.66401,10.39057 -12.9336,20.59766 -4.27953,6.00882 -6.51566,9.26932 -8.3789,12.2207 -0.67804,1.07402 -1.2664,1.98911 -1.3086,2.03321 -0.0422,0.0441 -0.27701,0.006 -0.51953,-0.084 -0.47593,-0.1762 -4.31661,-1.55175 -7.36914,-2.63867 -1.03937,-0.37009 -4.04466,-1.44733 -6.67773,-2.39453 -2.63307,-0.94719 -6.0342,-2.16637 -7.5586,-2.70899 -1.52441,-0.54259 -3.396,-1.21503 -4.1582,-1.49414 -1.21759,-0.44584 -3.71067,-1.3391 -9.88867,-3.54296 -2.11144,-0.75321 -2.39453,-0.86356 -2.39453,-0.94336 0,-0.20606 3.99114,-6.15797 7.60546,-11.34375 6.71544,-9.6352 9.54917,-14.14606 12.22852,-19.46485 2.43835,-4.84037 4.13168,-9.25252 5.41797,-14.11133 0.35909,-1.35645 0.45043,-1.56965 0.6543,-1.53515 z m 3.89257,6.69922 c -0.26142,0.21694 -0.38157,1.12782 -0.17382,1.32031 0.094,0.0871 3.06184,0.82614 6.5957,1.64258 3.53386,0.81645 9.51463,2.20355 13.29101,3.08203 2.76252,0.64263 3.21486,0.69212 4.3711,0.92187 0.0723,0.0172 0.62071,0.14487 0.66797,0.15625 0.93543,0.22525 1.73775,0.41583 1.78125,0.42383 0.0143,0.003 0.0228,-0.0518 0.0371,-0.0547 0.009,-9.7e-4 0.21829,0.049 0.22265,0.0469 0.23817,-0.11675 0.4548,-1.18926 0.27539,-1.36328 -0.0904,-0.0876 -7.81179,-1.9124 -17.30664,-4.08985 -1.00472,-0.23041 -3.57412,-0.82679 -5.70898,-1.32421 -2.9576,-0.68914 -3.92202,-0.87021 -4.05274,-0.76172 z m -1.48437,5.92382 c -0.24707,10e-6 -0.35262,0.0914 -0.45899,0.39649 -0.0761,0.21822 -0.13867,0.52444 -0.13867,0.68164 0,0.32682 0.0667,0.35262 4.72461,1.76563 3.54011,1.0739 8.77994,2.66776 10.64649,3.24023 0.79685,0.24438 3.06426,0.9383 5.03906,1.54101 1.97481,0.6027 3.73108,1.14232 3.9043,1.19922 0.64678,0.21244 0.91321,0.0969 1.10546,-0.48242 0.23953,-0.72175 0.129,-0.83495 -1.21484,-1.23437 -0.59742,-0.17756 -1.51156,-0.45591 -2.03125,-0.61914 -0.51968,-0.16322 -1.82443,-0.56292 -2.89844,-0.88672 -1.07402,-0.32379 -3.02917,-0.91729 -4.3457,-1.32031 -1.31654,-0.40304 -3.64161,-1.10927 -5.16602,-1.57032 -1.5244,-0.46105 -3.19711,-0.97361 -3.71679,-1.13672 -3.27951,-1.02937 -5.16946,-1.57422 -5.44922,-1.57422 z m -99.81836,0.26758 c -0.28926,-0.0115 -0.20292,0.0436 -0.23633,0.0977 -0.0391,0.0633 -0.10824,0.54255 -0.15234,1.06445 -0.0795,0.94012 -0.0764,0.9493 0.24219,1.0293 0.17685,0.0444 7.99321,1.23276 17.37109,2.64062 9.37786,1.40785 17.14308,2.56527 17.25586,2.57227 0.33216,0.0196 0.45523,-0.2481 0.54883,-1.20117 0.0612,-0.62215 0.0444,-0.92708 -0.0547,-0.98828 -0.0787,-0.0487 -4.09594,-0.67935 -8.92578,-1.40235 -20.94117,-3.13478 -25.18104,-3.77807 -26.04883,-3.8125 z m 97.03906,4.9375 c -0.2224,0.17308 -0.31461,0.59473 -0.30078,0.92578 -7.4e-4,0.0135 0.002,0.0337 0.004,0.0469 0.0103,0.10356 -0.0213,0.24826 0.0293,0.29883 0.0968,0.0967 0.84231,0.40366 1.65821,0.68164 0.8159,0.27798 3.49719,1.21221 5.95703,2.07617 2.45984,0.86396 5.71973,2.00746 7.24414,2.54102 1.52441,0.53357 3.81967,1.33647 5.10156,1.78515 1.28189,0.44869 2.92674,1.03544 3.6543,1.30274 0.72756,0.2673 1.39041,0.49009 1.47461,0.49609 0.28087,0.0191 0.71881,-1.08657 0.54297,-1.37109 -0.092,-0.14889 -1.28156,-0.58659 -7.56055,-2.77539 -3.3702,-1.17482 -6.68016,-2.33596 -9.70117,-3.40235 -6.8117,-2.40447 -7.90945,-2.75653 -8.10352,-2.60547 z m -97.92578,5.89258 c -0.21819,0.18109 -0.24828,1.94445 -0.0352,2.07617 0.0777,0.048 8.14284,0.89077 17.92188,1.87305 9.77903,0.98228 17.87571,1.76268 17.99219,1.73438 0.1581,-0.0384 0.23192,-0.2513 0.29492,-0.83985 0.1,-0.93358 0.0628,-1.20339 -0.19141,-1.3418 -0.10393,-0.0566 -8.20296,-0.90001 -17.99804,-1.875 -13.61962,-1.35569 -17.85054,-1.73803 -17.98438,-1.62695 z m 92.73242,0.63867 c -0.2149,0.22366 -0.42856,1.0463 -0.31836,1.22461 0.0697,0.11281 4.53978,1.74092 7.12696,2.59571 0.27716,0.0916 1.66546,0.57271 3.08593,1.07031 1.42047,0.4976 4.028,1.40559 5.79493,2.01758 2.99895,1.0387 7.0504,2.45423 9.38671,3.27929 1.32717,0.46868 1.42433,0.46453 1.64454,-0.0625 0.2872,-0.68735 0.23696,-0.93931 -0.22657,-1.13086 -0.36754,-0.1519 -5.64182,-1.98888 -21.24609,-7.39843 -4.21272,-1.46042 -5.11459,-1.73462 -5.24805,-1.59571 z m -2.79883,4.51563 c -0.18662,0 -0.53515,0.73142 -0.53515,1.125 0,0.32032 -0.1658,0.23869 3.90625,1.89062 1.90551,0.77303 4.9665,2.0206 6.80273,2.77149 4.68895,1.91743 11.16839,4.559 12.66211,5.16211 0.69292,0.27977 1.33373,0.50972 1.42383,0.51172 0.18498,0.004 0.5293,-0.73479 0.5293,-1.13477 0,-0.31441 -0.0757,-0.34941 -5.0293,-2.34961 -1.96932,-0.7952 -4.40776,-1.7869 -5.41797,-2.20508 -1.0102,-0.41818 -3.14067,-1.28914 -4.73437,-1.93554 -1.5937,-0.6464 -4.36891,-1.77415 -6.16797,-2.50586 -1.79905,-0.73171 -3.34676,-1.33008 -3.43946,-1.33008 z m -4.12695,6.72265 c -0.20901,0.0802 -0.50204,0.994 -0.40234,1.25391 0.002,0.006 0.0637,0.0252 0.0664,0.0312 l -0.006,0.0332 0.25391,0.082 c 0.20969,0.18098 0.98857,0.45236 7.64844,2.57227 3.04882,0.97047 8.09478,2.58322 11.21289,3.58594 3.11811,1.00272 5.75349,1.81328 5.85547,1.80078 0.23311,-0.0284 0.64897,-1.11385 0.51172,-1.33594 -0.0893,-0.14446 -5.88406,-2.03023 -20.58008,-6.69726 -2.41251,-0.76613 -4.46515,-1.36278 -4.56055,-1.32618 z m -85.10937,0.66797 c -0.17544,0.17545 -0.30291,2.00487 -0.14649,2.10157 0.0717,0.0443 2.87049,0.36468 6.2207,0.71093 12.96579,1.34 15.03679,1.55583 22.97461,2.39063 4.50394,0.47366 8.38599,0.85209 8.62696,0.84179 0.41648,-0.0179 0.44241,-0.047 0.53711,-0.58593 0.0547,-0.31181 0.085,-0.79149 0.0664,-1.06641 -0.0311,-0.45975 -0.069,-0.5084 -0.47461,-0.5957 -0.88767,-0.19113 -24.27976,-2.50992 -32.22656,-3.23633 -1.55295,-0.15909 -0.36818,-0.0433 -2.08203,-0.21875 -0.1516,-0.0155 -0.0751,0.002 -0.21484,-0.0117 -0.51289,-0.0429 -3.27182,-0.33951 -3.28125,-0.33008 z m 81.57812,4.19922 c -0.22893,0 -0.59351,0.78871 -0.53711,1.16211 0.0302,0.1998 0.32672,0.36133 1.36133,0.73633 1.77513,0.6434 11.41676,4.10872 15.18164,5.45703 1.663,0.59556 4.185,1.50586 5.60547,2.02149 1.42048,0.51564 2.67628,0.94031 2.78906,0.94531 0.4088,0.0169 0.86864,-1.04934 0.57813,-1.33985 -0.14739,-0.1474 -2.9361,-1.17224 -11.74414,-4.3164 -1.52441,-0.54415 -4.44418,-1.595 -6.48829,-2.33399 -5.07627,-1.83516 -6.51539,-2.33203 -6.74609,-2.33203 z M 260.6582,308.625 c -0.18222,0.20216 -0.24179,1.75983 -0.0762,1.98633 0.14245,0.19481 0.77527,0.24242 6.00781,0.45312 3.21766,0.12958 7.92008,0.32291 10.44922,0.42774 2.52913,0.10482 7.51744,0.30523 11.08594,0.44531 3.56851,0.1401 6.68717,0.27262 6.92969,0.29492 0.95463,0.0879 1.75215,0.0773 1.81445,-0.0234 0.15255,-0.24691 0.13366,-1.90149 -0.0234,-2.05859 -0.0146,-0.0146 -0.27611,-0.0198 -0.3125,-0.0332 -3.9e-4,-9e-5 -0.009,8e-5 -0.01,0 -0.24555,-0.0888 -0.73523,-0.16375 -2.07032,-0.2168 -1.22781,-0.0488 -4.41627,-0.17877 -7.08398,-0.28906 -2.66772,-0.11029 -7.5705,-0.31204 -10.89648,-0.44727 -3.32598,-0.13522 -8.22568,-0.3347 -10.88672,-0.44336 -2.66103,-0.1087 -4.87794,-0.1509 -4.92774,-0.0957 z m 2.43164,9.10742 c -0.37815,0 -0.53906,0.41599 -0.53906,1.39844 0,0.48717 0.0561,0.77189 0.1582,0.80859 0.0866,0.0311 2.90695,0.42379 6.26758,0.87305 12.03596,1.60897 22.28709,2.98879 25.25977,3.40039 3.53617,0.48961 3.64533,0.49762 3.8125,0.29102 0.18539,-0.2289 0.33468,-1.93816 0.17773,-2.03516 -0.13678,-0.0845 -34.6465,-4.73633 -35.13672,-4.73633 z m 1.50977,10.9082 c -0.6318,-0.0885 -0.78906,0.1607 -0.78906,1.25586 0,0.86549 0.0204,0.938 0.2832,0.9961 0.1559,0.0345 5.32916,0.52052 11.49609,1.08008 6.16693,0.55954 13.82042,1.2615 17.00782,1.56054 6.28003,0.58917 7.18806,0.64546 7.31054,0.44727 0.0443,-0.0716 0.11179,-0.54693 0.15039,-1.05664 0.0629,-0.83199 0.0453,-0.93455 -0.16797,-1.00195 -0.19204,-0.0606 -18.34593,-1.74371 -32.04882,-2.97071 -1.55906,-0.1396 -3.01751,-0.27905 -3.24219,-0.31055 z" />
    </g>
  </g>
</svg>
