<?xml version="1.0" encoding="UTF-8" standalone="no"?>
<!-- Created with Inkscape (http://www.inkscape.org/) -->

<svg
   version="1.1"
   id="svg485"
   width="566.66669"
   height="566.66669"
   viewBox="0 0 566.66669 566.66669"
   sodipodi:docname="Haustuergespraeche.svg"
   inkscape:version="1.1 (ce6663b3b7, 2021-05-25)"
   inkscape:export-filename="/mnt/data/Coding/Sammel-App/Sammel-App/sammel_app/assets/images/Haustuergespraeche.png"
   inkscape:export-xdpi="228.06638"
   inkscape:export-ydpi="228.06638"
   xmlns:inkscape="http://www.inkscape.org/namespaces/inkscape"
   xmlns:sodipodi="http://sodipodi.sourceforge.net/DTD/sodipodi-0.dtd"
   xmlns="http://www.w3.org/2000/svg"
   xmlns:svg="http://www.w3.org/2000/svg">
  <defs
     id="defs489" />
  <sodipodi:namedview
     id="namedview487"
     pagecolor="#ffffff"
     bordercolor="#666666"
     borderopacity="1.0"
     inkscape:pageshadow="2"
     inkscape:pageopacity="0.0"
     inkscape:pagecheckerboard="0"
     showgrid="false"
     inkscape:zoom="1.4682352"
     inkscape:cx="283.6739"
     inkscape:cy="283.6739"
     inkscape:window-width="1848"
     inkscape:window-height="1016"
     inkscape:window-x="72"
     inkscape:window-y="27"
     inkscape:window-maximized="1"
     inkscape:current-layer="g495" />
  <g
     inkscape:groupmode="layer"
     inkscape:label="Image"
     id="g491">
    <g
       id="g495"
       style="fill:#800080">
      <path
         id="path507"
         style="display:inline;fill:#800080;fill-opacity:1;stroke-width:1.33333"
         d="M 291.32031,81.601562 C 249.49654,80.545977 208.17172,91.793734 172.62891,114.85352 61.511931,186.94498 43.140782,340.82088 134.13477,437.2793 c 33.88248,35.91723 79.0476,58.00768 131.86523,64.49609 10.53232,1.29386 37.11284,0.68098 49.82812,-1.14844 C 431.26097,484.01893 511.33986,377.84458 495.2793,262.69531 484.99586,188.96609 434.19565,123.81517 366,96.894531 341.68755,87.297049 316.41458,82.234914 291.32031,81.601562 Z m -4.65429,25.945318 c 27.17241,-1e-5 54.34582,5.97662 79.56054,17.92968 35.46159,16.8106 69.53991,50.63255 86.45703,85.80469 3.78276,7.86468 11.31641,27.58221 11.31641,29.61914 0,2.83453 -25.80306,-4.09414 -30.66602,-8.23437 -1.1,-0.93652 -3.88802,-2.10389 -6.19531,-2.59375 -2.30729,-0.48984 -5.22057,-2.02272 -6.47265,-3.40625 -1.25208,-1.38354 -4.10739,-2.91658 -6.34571,-3.40821 -2.23833,-0.49161 -6.89696,-2.92687 -10.35351,-5.41015 -3.45654,-2.48328 -6.9768,-4.51368 -7.82227,-4.51368 -0.84548,0 -4.20798,-2.46339 -7.47265,-5.47265 l -4.16797,-3.8418 -1.74219,-1.62891 h -0.0254 l -16.36914,0.47071 c -0.85993,0.0248 -1.32845,0.0584 -2.10742,0.084 -5.27342,0.17307 -8.97984,0.38526 -11.56446,0.76367 -0.20058,0.0294 -0.52467,0.0407 -0.71484,0.0723 -3.00322,0.4985 -4.75911,1.28013 -6.90625,2.61523 -4.2143,2.62046 -4.98591,3.85776 -5.33399,8.5625 -0.21354,2.88632 -0.42637,4.41219 -1.82031,5.48829 -0.69697,0.53804 -1.69048,0.96357 -3.125,1.39062 -1.43452,0.42705 -3.31031,0.85662 -5.77734,1.40039 -1.20762,0.26617 -2.35239,0.81548 -3.35352,1.5332 -1.00113,0.71773 -1.85914,1.60378 -2.49609,2.54102 -1.2739,1.87449 -1.66217,3.95608 -0.5332,5.31641 1.37035,1.65117 1.57565,2.95245 0.49414,4.02148 -0.54076,0.53452 -1.40305,1.0101 -2.60157,1.44336 -1.19851,0.43326 -2.73495,0.82402 -4.62109,1.18555 -1.77747,0.34069 -3.12038,0.60376 -4.15625,0.89648 -4.7e-4,1.3e-4 -0.001,-1.3e-4 -0.002,0 -0.35077,0.099 -0.49991,0.25518 -0.78516,0.36524 -0.55819,0.21537 -1.16758,0.40919 -1.53125,0.71289 -0.005,0.004 -0.009,0.01 -0.0137,0.0137 -0.54329,0.45883 -0.91182,1.05742 -1.22852,1.89258 -0.10038,0.26504 -0.20041,0.74177 -0.29492,1.05859 -0.20113,0.67546 -0.39387,1.28571 -0.625,2.24414 -0.54746,2.27019 -1.53139,4.38056 -2.57031,5.78125 -1.19539,1.25345 -2.98321,2.31126 -6.1211,3.91406 -11.54285,5.896 -15.51629,12.19629 -11.33593,17.52344 0.65816,1.40127 1.93968,2.33951 4.05273,2.9082 1.69507,0.52253 3.92051,0.74414 7.41406,0.74414 4.49018,0 6.82736,0.28635 7.99414,1.07032 0.0173,0.0119 0.0515,0.0172 0.0684,0.0293 0.38172,0.26953 0.63023,0.59667 0.78125,0.99024 0.17032,0.44384 0.27768,0.84091 0.31446,1.20312 0.13474,1.44247 -1.43721,2.22417 -5.0293,2.8086 -2.47771,0.33998 -5.69594,0.57771 -10.83789,0.70117 -7.7,0.18486 -19.64747,1.14411 -26.54883,2.13281 -6.90136,0.98872 -17.1007,2.00429 -22.66601,2.25781 -15.11936,0.68876 -24.50897,2.25673 -27.11914,4.52539 -5.56135,4.83372 -0.0704,14.32807 10.68554,18.47852 4.50603,1.73878 9.93983,2.26127 32.70313,2.50781 8.0776,0.27355 16.87254,0.34915 26.42773,0.1875 l 39.78906,0.19532 16.58399,8.12304 c 9.12122,4.46744 17.38634,8.12396 18.36523,8.12696 0.9789,0.003 3.73259,1.19529 6.11914,2.65039 l 4.03711,2.46289 c 0.0382,0.13002 0.062,0.25479 0.084,0.38281 l -7.61524,7 c -6.78565,6.23825 -8.79074,7.32922 -15.00586,8.16406 -3.9455,0.52997 -9.27317,1.85027 -11.83984,2.93359 -2.56666,1.08333 -7.93263,2.83959 -11.92383,3.90235 -9.14488,2.43508 -15.21664,6.07125 -22.41015,13.42187 C 296.70335,376.6609 296,378.12333 296,383.35742 v 2.9668 3.00976 h 6.58008 c 3.61893,0 8.18836,-0.61193 10.1543,-1.35937 1.96591,-0.74744 10.77172,-1.94731 19.56835,-2.66602 8.79662,-0.7187 22.07654,-2.78105 29.51172,-4.58398 7.43521,-1.80292 16.81824,-3.63173 20.85157,-4.0625 4.03334,-0.43076 9.73463,-1.95055 12.66796,-3.37695 7.61337,-3.70216 20.66458,-14.43978 22.08204,-18.16797 0.66185,-1.7408 2.57722,-3.68796 4.25586,-4.32617 1.67864,-0.63823 6.42076,-3.90504 10.53906,-7.25977 7.10424,-5.78708 10.74337,-7.59547 23.12304,-11.49609 2.93334,-0.92422 7.06269,-3.26056 9.17774,-5.19141 l 3.8457,-3.50977 -0.87109,5.73243 c -0.47955,3.15317 -2.72607,11.55251 -4.99219,18.66601 -21.47146,67.40056 -81.29733,118.0382 -149.82812,126.81836 -58.17072,7.45283 -111.52704,-9.61859 -152.78907,-48.88476 -26.40899,-25.13159 -43.26983,-54.05357 -52.76562,-90.51172 -3.57593,-13.72944 -3.77344,-15.98691 -3.77344,-43.1543 0,-27.16739 0.19751,-29.42486 3.77344,-43.1543 7.39709,-28.4004 17.15607,-47.3393 26.55469,-51.5332 4.38176,-1.95526 4.67752,-3.6908 0.86914,-5.09961 -2.62522,-0.97112 -2.30004,-1.69474 5.28125,-11.75586 16.43465,-21.81044 42.85386,-43.39602 67.29101,-54.98047 25.21472,-11.95306 52.38618,-17.92968 79.5586,-17.92968 z m -122.68946,85.18164 c -4.70757,-0.3832 -18.34313,8.18775 -28.75781,18.54687 -12.64523,12.57779 -21.35208,24.72579 -18.85742,26.31055 2.52421,1.60354 2.73172,1.45731 6.60742,-4.67774 5.1374,-8.13227 16.51129,-20.87917 22.72266,-25.46484 2.89839,-2.13979 8.77012,-5.75988 13.04687,-8.04492 5.63809,-3.01237 7.47224,-4.64565 6.67383,-5.9375 -0.27266,-0.44117 -0.76304,-0.67768 -1.43555,-0.73242 z m 36.49024,3.42968 c -1.82027,0.10147 -5.08073,0.92111 -10.8418,2.51758 -20.04677,5.55524 -36.9929,15.95262 -49.02734,30.08203 -11.85664,13.92066 -24.03871,32.6898 -22.32813,34.40039 1.98314,1.98313 3.95985,0.43005 7.51758,-5.90429 5.81769,-10.35808 18.82587,-27.026 26.42187,-33.85547 10.84228,-9.74813 26.4751,-17.45195 44.79102,-22.07227 3.42965,-0.86516 5.66602,-2.19759 5.66602,-3.37695 0,-1.27535 -0.37895,-1.89248 -2.19922,-1.79102 z m 17.55859,13.43164 c -7.94564,-0.0309 -16.00227,0.9877 -24.01172,3.10157 -20.25372,5.34539 -38.9008,19.19081 -52.16211,38.73242 C 131.9865,265.96082 128,279.71059 128,299.19336 c 0,17.24282 2.02886,26.7011 8.61133,40.14062 11.4792,23.43722 32.66933,40.57447 58.5625,47.36329 5.22092,1.36885 11.59349,2.45215 14.16015,2.40625 3.98568,-0.0712 3.71261,-0.24429 -1.87109,-1.17969 -3.59576,-0.60237 -6.95225,-1.76332 -7.45703,-2.58008 -0.50478,-0.81675 -1.46278,-1.33856 -2.12891,-1.16016 -2.47987,0.66419 -9.31828,-1.70657 -12.54297,-4.34765 L 182,377.10547 l 3.33398,0.8125 c 1.83333,0.4462 6.33333,1.54769 10,2.44726 9.62406,2.36115 38.50087,1.86241 45.94727,-0.79296 3.27137,-1.16656 6.17987,-1.88851 6.46289,-1.60547 0.75358,0.75357 -9.82438,5.95964 -13.13476,6.46484 -1.5558,0.23744 -3.22907,1.0794 -3.71876,1.86914 -0.48969,0.78975 -3.18157,1.43429 -5.98046,1.4336 -2.79888,-7.3e-4 -5.49888,0.44201 -6,0.98437 -0.50111,0.54236 3.10854,0.62921 8.01953,0.19141 11.2807,-1.00562 27.36226,-6.36495 37.72461,-12.57227 10.62205,-6.36286 25.65889,-21.87129 31.09179,-32.06445 4.01569,-7.5342 9.58789,-21.77207 9.58789,-24.5 0,-0.0678 -0.39263,-0.10993 -0.55664,-0.16797 l 0.0801,-0.27149 -1.70703,-0.008 c -2.49597,-0.21892 -7.15922,-0.23053 -12.53906,-0.0586 l -21.84961,-0.10156 c -3.02725,-0.0141 -4.69016,-0.0432 -7.25,-0.0605 -16.26139,-0.6085 -31.61904,-1.98019 -36.8457,-3.76172 -8.90124,-3.03402 -13.59498,-7.65377 -14.74024,-14.50781 -0.50572,-3.02666 -1.57145,-5.91666 -2.36914,-6.42188 -0.96988,-0.61428 -0.64858,-1.8027 0.96875,-3.58984 3.45043,-3.81269 8.60317,-4.78122 36.14063,-6.7832 15.49398,-1.1264 28.18872,-2.88729 34.0371,-4.72461 1.50444,-0.47263 1.90071,-2.04515 1.52149,-6.02149 -0.73856,-7.74452 1.8849,-12.85668 8.625,-16.80664 l 5.81836,-3.4082 -2.33399,-4.0625 c -1.28355,-2.2335 -5.83981,-7.62546 -10.125,-11.98242 -17.51523,-17.80857 -40.34667,-27.35276 -64.18359,-27.44532 z m 13.76367,6.95899 c 0.35226,0.0309 0.83236,0.12563 1.22071,0.17383 1.51184,0.43174 4.4167,1.21037 7.65625,2.02343 6.61153,1.65938 16.66796,6.05227 16.66796,7.28125 0,1.1256 -1.89954,0.67627 -5.85156,-1.38476 -2.11752,-1.10432 -7.21621,-2.96631 -11.33203,-4.13867 -4.11581,-1.17236 -8.08307,-2.7009 -8.81641,-3.39649 -0.30735,-0.29154 -0.30839,-0.41625 -0.33984,-0.55664 0.29604,0.0128 0.46273,-0.0311 0.79492,-0.002 z M 211,262.71094 c 1.77316,0.0472 7.581,4.46797 7.64453,5.80468 -0.42493,0.11463 -0.74027,0.2379 -1.28906,0.34766 -0.4221,0.0844 -0.64188,0.23684 -1.00195,0.34961 -1.07441,-0.30799 -2.19367,-0.9839 -2.53711,-1.87891 -0.42212,-1.1 -1.60345,-2 -2.625,-2 -1.02153,0 -1.85743,-0.60065 -1.85743,-1.33398 0,-0.73333 0.74935,-1.31346 1.66602,-1.28906 z m -67.8418,32.1289 c 0.53179,0.0119 0.99161,0.13839 1.43164,0.28711 0.34644,0.18532 0.68442,0.38717 1.00391,0.63477 0.17868,0.15977 0.41673,0.25427 0.54687,0.46484 0.64824,1.04887 0.23601,1.28147 -1.25585,0.70899 -1.22029,-0.46827 -2.21875,-0.25153 -2.21875,0.48242 0,0.73395 1.2965,1.81429 2.88086,2.40039 2.61451,0.96716 2.66085,1.15051 0.49804,1.98047 -1.31063,0.50293 -3.05714,0.38626 -3.88086,-0.25977 -0.25943,-0.20346 -0.61061,-0.2913 -0.92187,-0.4375 -0.0627,-0.32753 -0.20301,-0.5921 -0.44727,-0.78515 C 140.67059,300.11887 140.42473,300 140.07812,300 c -0.34734,0 -0.66547,0.12007 -0.9121,0.31836 -0.11736,0.0624 -0.21173,0.10175 -0.32422,0.18164 -1.50796,-0.0487 -2.75555,0.39684 -2.40625,1.38867 0.27978,0.79444 1.64456,1.31238 3.03515,1.15039 1.39059,-0.162 1.77995,0.0369 0.86328,0.44336 -2.30823,1.02346 -1.94901,2.56801 0.16407,3 0.13856,0.0336 0.29215,0.076 0.53125,0.0918 0.19465,0.0183 0.3075,0.0918 0.52539,0.0918 1.58888,0 2.5337,0.35689 2.09765,0.79296 -0.43607,0.43605 -2.59761,0.91765 -4.80273,1.07032 -3.90404,0.27028 -5.42288,-1.60694 -5.49219,-6.76172 2.3e-4,-0.076 0.033,-0.13401 0.0352,-0.20899 0.13842,-3.48023 5.89105,-6.80543 9.76562,-6.71875 z m 59.88086,1.66407 c 0.14019,-0.14019 0.32625,0.0482 0.53906,0.58007 0.38522,0.96249 0.33759,2.11162 -0.10546,2.55469 -0.44307,0.44305 -0.75908,-0.34446 -0.70118,-1.75 0.032,-0.77663 0.1274,-1.24458 0.26758,-1.38476 z m -11.30273,29.40039 c 1.30253,0.26067 2.52243,1.87249 2.50586,3.76172 -0.0252,2.85636 0.14758,2.87577 -2.56055,-0.28711 -1.23367,-1.44126 -1.7885,-2.90046 -1.23242,-3.24414 0.4098,-0.25327 0.85293,-0.31736 1.28711,-0.23047 z m 64.44531,2.3789 c 0.9986,0.33287 0.39473,0.93673 -1.4082,1.40821 -2.2178,0.57996 -2.73748,0.40738 -1.74805,-0.58203 0.7748,-0.77485 2.19433,-1.14682 3.15625,-0.82618 z m -59.91211,1.40821 c 0.13779,-0.22983 0.5506,0.16269 1.30664,1.05859 2.67138,3.16556 6.24263,4.05203 9.10938,2.26172 2.1553,-1.34601 2.89282,-1.18768 4.46679,0.96484 1.03662,1.41765 1.74889,3.20274 1.58399,3.9668 -0.1649,0.76405 -0.0498,0.94453 0.25586,0.40039 0.30563,-0.54415 1.83253,-0.30561 3.39258,0.5293 1.56007,0.83492 4.06113,1.59194 5.55859,1.68164 1.75613,0.10515 2.65277,1.0145 2.52344,2.5625 -0.12965,1.55226 0.45841,2.14699 1.66601,1.68359 C 227.15973,344.40672 228,344.6647 228,345.375 c 0,0.71032 -0.74935,1.31068 -1.66602,1.33398 -0.93198,0.0237 -0.5157,0.91286 0.94532,2.01758 1.23413,0.93317 2.30619,1.37577 3.1582,1.46485 0.19298,0.27516 0.39722,0.47461 0.60938,0.47461 0.29283,0 0.46567,-0.28215 0.52929,-0.7168 0.36083,-0.26101 0.61531,-0.65336 0.60547,-1.31641 -0.0106,-0.715 1.1886,-2.58557 2.66602,-4.1582 1.65322,-1.75977 2.157,-3.18779 1.31054,-3.71094 C 234.55965,339.77571 235.67604,336 237.56641,336 c 0.70429,0 0.88142,1.25498 0.39453,2.78906 -0.0749,0.23611 -0.0875,0.37671 -0.13867,0.57422 -0.006,0.017 -0.009,0.0323 -0.0117,0.0488 -0.40943,1.62177 -0.0128,2.01943 1.72656,1.66797 1.52672,-0.30849 2.42448,-1.5953 2.36328,-3.38867 -0.0543,-1.59065 0.39922,-2.58511 1.00781,-2.20899 1.14613,0.70835 10.58174,-2.18654 11.75782,-3.60742 1.05654,-1.27648 5.29718,-0.89308 4.49414,0.40625 -0.1919,0.3105 -0.22073,0.76804 -0.13477,1.25195 -0.20774,0.127 -0.13529,0.34118 0.28125,0.66407 0.12145,0.29521 0.19388,0.60403 0.39648,0.86132 1.74961,2.22196 1.5177,6.27539 -0.35937,6.27539 -0.84994,0 -2.9554,1.49871 -4.67773,3.33204 -1.72234,1.83333 -3.72985,3.33398 -4.46094,3.33398 -0.7311,0 -2.27585,0.81529 -3.4336,1.8125 -1.15774,0.99722 -5.70546,3.7542 -10.10546,6.12695 -4.4,2.37274 -8.5987,4.76689 -9.33204,5.31836 -0.73333,0.55145 -4.47641,2.00436 -8.31836,3.22852 -7.03688,2.24218 -13.75512,2.47471 -16.73632,0.58008 -0.88727,-0.56388 -3.46681,-1.03618 -5.73242,-1.04688 -3.05945,-0.0152 -4.49918,-0.85473 -5.59766,-3.26562 -1.11965,-2.45739 -2.46791,-3.21846 -5.55078,-3.13086 -4.26315,0.12121 -9.39844,-3.42763 -9.39844,-6.4961 0,-0.98633 0.74936,-1.81168 1.66602,-1.83398 0.91667,-0.0223 0.49987,-0.71866 -0.92774,-1.54688 -1.9456,-1.12877 -2.72678,-1.11651 -3.11523,0.0488 -0.69107,2.0732 -2.95703,0.57638 -2.95703,-1.95312 0,-1.1 0.53687,-1.66745 1.19336,-1.26172 0.65648,0.40573 1.52366,-0.12005 1.92578,-1.16797 0.77721,-2.02536 8.88086,-2.52081 8.88086,-0.54297 0,1.99271 4.05471,1.20756 4.88086,-0.94531 0.43828,-1.14214 1.61964,-1.76079 2.625,-1.375 1.00536,0.3858 1.82812,0.12046 1.82812,-0.58985 0,-0.71032 -1.19935,-1.29296 -2.66602,-1.29296 -1.46667,0 -2.66796,-0.5346 -2.66796,-1.18946 0,-1.90195 3.54215,-2.73519 5.08203,-1.19531 2.61646,2.61645 5.72321,0.11301 4.86133,-3.91797 -0.33996,-1.58992 -0.47764,-2.44205 -0.33985,-2.67187 z m -26.10937,7.86328 c 1.36176,0.26226 2.67635,1.52002 2.92187,2.79492 0.34584,1.79583 -0.47576,2.31641 -3.65039,2.31641 -2.71464,0 -4.09766,-0.65981 -4.09766,-1.95704 0,-1.27857 0.77003,-1.66334 2.21875,-1.10742 1.56941,0.60224 1.91179,0.35812 1.17383,-0.83594 -0.72519,-1.17337 -0.28738,-1.54235 1.4336,-1.21093 z m 145.09179,0.95898 c -0.33633,-0.0803 -0.80927,0.11383 -1.33789,0.42774 -0.41524,-0.26237 -0.79018,-0.39559 -0.93554,-0.18555 -0.0586,0.0847 -1.3677,2.09461 -1.77735,2.71875 -1.40584,1.55363 -2.953,3.49097 -4.69531,6.19141 -3.19371,4.95 -11.51448,14.80079 -18.49024,21.89062 -10.56511,10.73788 -14.52157,13.78071 -23.69335,18.21289 -6.05578,2.9264 -16.62359,6.67219 -23.48438,8.32617 -10.23722,2.46796 -12.36952,3.40924 -11.88867,5.24805 0.54612,2.08837 1.28151,2.07811 10.81836,-0.16797 23.98353,-5.64854 38.16793,-13.63303 53.80078,-30.28516 C 303.49082,360.32118 316,343.18074 316,340.1543 c 0,-0.99189 -0.26664,-1.52564 -0.74805,-1.64063 z m -123.64257,4.23438 c -0.43519,0.13343 -0.28073,0.74867 0.67187,1.77929 0.94558,1.02303 2.23304,1.54738 2.86133,1.16602 0.6283,-0.38136 0.32894,-1.2094 -0.66602,-1.83984 -1.40676,-0.89137 -2.432,-1.2389 -2.86718,-1.10547 z m -14.1543,30.96484 c 0.18275,-0.29024 0.79343,0.0523 1.8789,0.95313 1.1,0.91292 2,2.18654 2,2.83007 0,1.92097 -2.1741,1.30095 -3.08789,-0.77343 0.19801,-0.36037 0.19878,-0.62735 -0.27734,-0.68164 -0.4524,-1.24821 -0.67187,-2.0769 -0.51367,-2.32813 z m 140.02734,17.04883 c -1.3228,0.10825 -3.76545,2.00854 -7.38086,5.72851 -3.11295,3.20299 -7.8261,6.53803 -10.47461,7.41211 -3.30324,1.09017 -4.58364,2.1924 -4.07812,3.50977 0.40532,1.05627 1.30285,1.92187 1.99414,1.92187 4.51134,0 21.12305,-13.2423 21.12305,-16.83789 0,-1.22051 -0.38992,-1.79932 -1.1836,-1.73437 z m -23.77344,1.84961 c -1.90189,0.0336 -4.96892,1.20491 -10.20312,3.8125 -5.22838,2.60468 -11.15521,5.1388 -13.17188,5.63281 -3.4246,0.83888 -4.72599,3.10797 -2.85546,4.97852 1.02662,1.02661 12.17141,-3.33021 22.27539,-8.70704 6.3921,-3.40155 7.35846,-4.34605 5.50586,-5.38281 -0.41243,-0.2308 -0.91682,-0.34517 -1.55079,-0.33398 z" />
    </g>
  </g>
</svg>
