<?xml version="1.0" encoding="UTF-8" standalone="no"?>
<!-- Created with Inkscape (http://www.inkscape.org/) -->

<svg
   version="1.1"
   id="svg580"
   width="605.48029"
   height="453.16534"
   viewBox="0 0 605.48029 453.16534"
   sodipodi:docname="haushaken.svg"
   inkscape:version="1.1 (c68e22c387, 2021-05-23)"
   xmlns:inkscape="http://www.inkscape.org/namespaces/inkscape"
   xmlns:sodipodi="http://sodipodi.sourceforge.net/DTD/sodipodi-0.dtd"
   xmlns="http://www.w3.org/2000/svg"
   xmlns:svg="http://www.w3.org/2000/svg">
  <defs
     id="defs584" />
  <sodipodi:namedview
     id="namedview582"
     pagecolor="#ffffff"
     bordercolor="#666666"
     borderopacity="1.0"
     inkscape:pageshadow="2"
     inkscape:pageopacity="0.0"
     inkscape:pagecheckerboard="0"
     showgrid="false"
     inkscape:zoom="1.8359745"
     inkscape:cx="157.4096"
     inkscape:cy="226.85501"
     inkscape:window-width="1920"
     inkscape:window-height="1017"
     inkscape:window-x="-8"
     inkscape:window-y="-8"
     inkscape:window-maximized="1"
     inkscape:current-layer="g590" />
  <g
     inkscape:groupmode="layer"
     inkscape:label="Image"
     id="g586">
    <g
       id="g590"
       style="fill:#800080">
      <path
         id="path600"
         style="fill:#800080;fill-opacity:1;stroke-width:0.125984"
         d="m 296.01953,34.691406 c -0.27497,0.0032 -0.54742,0.02692 -0.82226,0.03125 -1.66177,0.02623 -3.32221,0.06968 -4.98438,0.136719 -1.14131,0.03897 -2.24752,0.116615 -3.36133,0.173828 -0.70216,0.04006 -1.40438,0.0757 -2.10547,0.123047 -0.85854,0.05392 -1.74081,0.08464 -2.59179,0.150391 -0.18225,0.01461 -0.36465,0.0181 -0.54688,0.0332 -3.19574,0.256767 -6.3998,0.626578 -9.66015,1.064453 -0.4226,0.05545 -0.84715,0.08054 -1.26954,0.138672 -0.85491,0.117656 -1.69793,0.29509 -2.55078,0.423828 -1.04666,0.160081 -2.04095,0.28114 -3.11914,0.460937 -0.61964,0.103332 -1.22909,0.257916 -1.84765,0.367188 -0.35856,0.06347 -0.71999,0.112301 -1.07813,0.177734 -0.0519,0.0095 -0.10837,0.0159 -0.16015,0.02539 -0.0118,0.0022 -0.0233,0.0056 -0.0352,0.0078 -1.99921,0.367324 -3.98545,0.784785 -5.9707,1.212891 -0.45676,0.09848 -0.91711,0.18156 -1.37305,0.283203 -0.92703,0.20677 -1.84956,0.426407 -2.77344,0.646485 -2.03754,0.485163 -4.06382,1.005759 -6.08398,1.554687 -0.66409,0.180185 -1.32429,0.371605 -1.98633,0.558594 -1.03974,0.294307 -2.08044,0.579463 -3.11524,0.890625 -1.6468,0.494903 -3.28468,1.011555 -4.91796,1.548828 -0.77944,0.255948 -1.55001,0.535265 -2.32618,0.800781 -0.1927,0.06595 -0.38369,0.134641 -0.57617,0.201172 -0.0591,0.02047 -0.1186,0.04002 -0.17773,0.06055 -1.00143,0.347701 -2.00811,0.675509 -3.00391,1.039062 -1.26812,0.462981 -2.53038,0.937103 -3.78906,1.425782 -0.82171,0.318527 -1.62974,0.670569 -2.44727,1 -0.17031,0.06873 -0.33964,0.139783 -0.50976,0.208984 -0.50999,0.207464 -1.02106,0.409435 -1.5293,0.621094 -0.0461,0.01923 -0.0945,0.03347 -0.14062,0.05273 -0.0414,0.01729 -0.0816,0.03736 -0.12305,0.05469 -0.75249,0.314416 -1.51309,0.606117 -2.26172,0.929687 -0.9102,0.3937 -1.81815,0.789944 -2.72266,1.197266 -0.67565,0.303899 -1.33539,0.643581 -2.00781,0.955078 -0.0975,0.0452 -0.19362,0.09331 -0.29101,0.138672 -0.13781,0.06425 -0.27445,0.130751 -0.41211,0.195312 -1.06605,0.499434 -2.13189,0.999153 -3.18946,1.517578 -0.647,0.316786 -1.30758,0.603983 -1.95117,0.927735 -3.12172,1.572342 -6.19732,3.239375 -9.23828,4.976562 -0.3522,0.200935 -0.71542,0.380901 -1.06641,0.583985 -1.9051,1.103728 -3.76219,2.295015 -5.63281,3.46289 -0.20896,0.130375 -0.41847,0.259487 -0.62695,0.390625 -0.47036,0.296072 -0.94793,0.578793 -1.41602,0.878906 -0.53404,0.342268 -1.0841,0.654386 -1.61523,1.001954 -0.21117,0.138236 -0.43189,0.259373 -0.64258,0.398437 -0.0426,0.02811 -0.0824,0.05975 -0.125,0.08789 -0.82168,0.543249 -1.61318,1.123258 -2.42578,1.677734 -0.0809,0.05517 -0.16136,0.110725 -0.24219,0.166016 -2.08091,1.424338 -4.13617,2.878429 -6.15625,4.375 -0.30853,0.228999 -0.63419,0.433238 -0.94141,0.664062 -0.46797,0.35161 -0.90666,0.732662 -1.37109,1.087891 -1.49387,1.140338 -2.9788,2.28945 -4.4375,3.46875 -0.40046,0.323978 -0.79311,0.659015 -1.19141,0.986328 -0.0843,0.06927 -0.16772,0.139587 -0.25195,0.208984 -0.571,0.471009 -1.14579,0.937437 -1.71094,1.414063 -1.56974,1.322606 -3.11257,2.67157 -4.63867,4.039062 -0.19719,0.176795 -0.40497,0.33797 -0.60156,0.515625 -0.23044,0.208241 -0.4464,0.429463 -0.67578,0.638672 -0.26056,0.237523 -0.52591,0.470162 -0.78516,0.708985 -0.22728,0.209444 -0.46322,0.410705 -0.68945,0.621093 -1.20903,1.124093 -2.38857,2.275596 -3.56836,3.427735 -0.42439,0.414614 -0.84717,0.830015 -1.26758,1.248047 -1.67181,1.661682 -3.31132,3.351298 -4.92187,5.068359 -0.35273,0.376168 -0.70505,0.752208 -1.05469,1.130859 -1.12764,1.220837 -2.25128,2.443907 -3.34766,3.691407 -0.29941,0.34057 -0.58583,0.69077 -0.88281,1.0332 -0.20054,0.23131 -0.39819,0.46506 -0.59766,0.69726 -0.30392,0.35389 -0.60882,0.70667 -0.91015,1.0625 -1.30949,1.54597 -2.59579,3.10942 -3.85742,4.69336 -0.3721,0.46699 -0.74552,0.93228 -1.11329,1.40235 -0.1672,0.21382 -0.32783,0.43203 -0.49414,0.64648 -1.50599,1.94173 -2.97269,3.91117 -4.40625,5.90625 -0.14243,0.19825 -0.2958,0.38916 -0.4375,0.58789 -0.28797,0.40376 -0.57252,0.80908 -0.85742,1.21485 -1.24031,1.76695 -2.44209,3.55903 -3.625,5.36523 -0.2186,0.3338 -0.43772,0.66692 -0.65429,1.00195 -0.18335,0.28363 -0.37277,0.5631 -0.55469,0.84766 -0.19754,0.30894 -0.4077,0.60995 -0.60352,0.91992 -0.9541,1.51055 -1.86551,3.04793 -2.77929,4.58399 -0.20036,0.33676 -0.40321,0.67188 -0.60157,1.00976 -1.24382,2.11897 -2.44523,4.26265 -3.61133,6.42774 -0.21526,0.39961 -0.432,0.79818 -0.64453,1.19922 -0.72147,1.36162 -1.43854,2.72458 -2.1289,4.10351 -0.29045,0.58025 -0.56286,1.16888 -0.84766,1.75195 -0.0282,0.0578 -0.0558,0.11599 -0.084,0.17383 -0.014,0.0288 -0.029,0.0571 -0.043,0.0859 -0.0542,0.11127 -0.10815,0.22261 -0.16211,0.33398 -0.21287,0.43928 -0.42707,0.87755 -0.63672,1.31836 -0.82175,1.72827 -1.61982,3.46738 -2.39258,5.22071 -0.26104,0.59244 -0.52203,1.18423 -0.77734,1.77929 -0.13264,0.30896 -0.25954,0.62006 -0.39063,0.92969 -0.90434,2.13674 -1.7687,4.29172 -2.59961,6.46289 -0.12287,0.321 -0.26159,0.63537 -0.38281,0.95703 -0.15906,0.42231 -0.30862,0.84801 -0.46484,1.27149 -0.72017,1.9513 -1.40039,3.9194 -2.06055,5.89648 -0.19011,0.56934 -0.38141,1.13781 -0.56641,1.70899 -0.0583,0.18008 -0.1199,0.35877 -0.17773,0.53906 -0.11487,0.35826 -0.2426,0.71131 -0.35547,1.07031 -0.12962,0.41211 -0.2812,0.81537 -0.4082,1.22852 -0.40546,1.31898 -0.75538,2.65218 -1.13281,3.97851 -0.11831,0.41552 -0.23986,0.82971 -0.35547,1.2461 -0.6612,2.38277 -1.27265,4.77623 -1.84375,7.17968 -0.0893,0.37527 -0.18246,0.74912 -0.26953,1.125 -0.33504,1.44733 -0.65846,2.89588 -0.96094,4.34961 -0.15046,0.72125 -0.28515,1.44642 -0.42774,2.16992 -0.0621,0.31588 -0.12694,0.63113 -0.1875,0.94727 -0.058,0.30318 -0.12111,0.60466 -0.17773,0.9082 -0.3453,1.84881 -0.65613,3.70175 -0.94922,5.5586 -0.13866,0.8764 -0.279112,1.75156 -0.406249,2.63086 -0.402386,2.78819 -0.749923,5.58189 -1.035157,8.38281 -0.03255,0.31989 -0.08616,0.63486 -0.117187,0.95508 -0.0082,0.0851 -0.0095,0.14795 -0.01758,0.23242 -0.149124,1.55544 -0.250212,3.11383 -0.363281,4.67187 -2.34e-4,0.003 2.33e-4,0.007 0,0.01 -1.36e-4,0.002 1.35e-4,0.004 0,0.006 -0.10746,1.48231 -0.233749,2.96329 -0.308594,4.44726 -0.0021,0.0464 -0.0018,0.10585 -0.0039,0.15235 -0.0313,0.62991 -0.03512,1.26051 -0.06055,1.89062 -0.0012,0.0293 -7.77e-4,0.0586 -0.002,0.0879 -0.131268,3.28896 -0.177055,6.57908 -0.148438,9.86914 0.0018,0.21686 0.0014,0.43361 0.0039,0.65039 0.01989,1.67197 0.04628,3.343 0.107422,5.01368 0.0287,0.96924 0.102893,2.1596 0.152344,3.11523 0.07668,1.47494 0.147013,2.94914 0.255859,4.42188 0.0041,0.0548 0.0037,0.0852 0.0078,0.14062 0.02584,0.34667 0.07003,0.69069 0.09766,1.03711 1.177519,14.7608 3.974411,29.37909 8.375001,43.52734 0.0879,0.28265 0.1687,0.56736 0.25781,0.84961 0.62079,1.96453 1.28588,3.91444 1.96875,5.85938 0.20633,0.58909 0.40529,1.18037 0.61719,1.76758 0.21385,0.59086 0.40148,1.19042 0.62109,1.77929 0.17149,0.45983 0.38389,0.89916 0.5586,1.35743 0.13096,0.34502 0.26945,0.68692 0.40234,1.03125 0.31855,0.82433 0.60981,1.65823 0.93945,2.47851 0.12915,0.32136 0.29299,0.62851 0.42383,0.94922 0.01,0.0235 0.0197,0.0468 0.0293,0.0703 0.31397,0.76923 0.66276,1.52376 0.98633,2.28906 0.48192,1.14081 0.93605,2.29153 1.43945,3.42383 0.53677,1.2051 1.12008,2.38335 1.67969,3.57617 0.15953,0.34032 0.32487,0.67814 0.48633,1.01758 0.47134,0.98975 0.91661,1.98857 1.40429,2.97071 0.58136,1.17252 1.19388,2.33017 1.79883,3.49218 0.65172,1.25146 1.30509,2.49996 1.98242,3.73633 0.23875,0.43578 0.47865,0.87059 0.72071,1.30469 0.51009,0.91477 1.01993,1.82877 1.54492,2.73633 0.40067,0.69248 0.82151,1.37084 1.23047,2.05859 0.43989,0.73999 0.87846,1.48016 1.32812,2.21485 0.57011,0.93176 1.12585,1.87089 1.71094,2.79296 0.4561,0.71823 0.93856,1.42166 1.4043,2.13477 0.54843,0.84017 1.1143,1.66938 1.67578,2.50195 0.59922,0.88887 1.19714,1.77503 1.81054,2.6543 0.47949,0.68653 0.93322,1.38705 1.42188,2.06836 0.84343,1.17712 1.74048,2.31381 2.60937,3.47266 0.13417,0.1791 0.26757,0.35842 0.40235,0.5371 0.73901,0.97859 1.46476,1.96537 2.22265,2.93164 0.25631,0.32652 0.48954,0.66703 0.74805,0.99219 0.0499,0.0628 0.1043,0.12086 0.1543,0.1836 0.11366,0.14276 0.21212,0.297 0.32617,0.43945 0.4353,0.5437 0.89939,1.05902 1.33984,1.59766 0.86276,1.05499 1.74431,2.09292 2.62891,3.13086 0.85736,1.00624 1.7027,2.02415 2.57812,3.01171 0.17986,0.20291 0.36825,0.39557 0.54883,0.59766 0.37511,0.41975 0.76424,0.82392 1.14258,1.24023 0.063,0.0695 0.1205,0.1435 0.18359,0.2129 0.0367,0.0403 0.12223,0.12059 0.16016,0.1621 0.48287,0.52864 0.96508,1.05705 1.45313,1.58008 0.64601,0.69201 1.26568,1.4045 1.92187,2.08789 0.53017,0.55242 1.08122,1.08105 1.61719,1.62696 0.59421,0.60555 1.20171,1.19372 1.80273,1.79101 1.56939,1.55871 3.15125,3.1023 4.76758,4.60547 0.58119,0.54052 1.1522,1.08887 1.74024,1.62305 0.45027,0.40925 0.91942,0.7924 1.37304,1.19726 0.0409,0.0365 0.0821,0.0729 0.12305,0.10938 0.19448,0.17324 0.38302,0.35293 0.57812,0.52539 1.569,1.3862 3.16654,2.73374 4.77539,4.06836 0.67307,0.55869 1.33008,1.13812 2.00977,1.6875 0.30451,0.24642 0.58452,0.51689 0.89063,0.76172 0.26735,0.21383 0.54794,0.41061 0.8164,0.62304 0.30062,0.23748 0.61216,0.45961 0.91406,0.69532 0.45928,0.35911 0.92818,0.7055 1.39063,1.06054 0.11104,0.0852 0.22278,0.16896 0.33398,0.25391 4.11996,3.14928 8.34504,6.15749 12.69922,8.97656 0.0448,0.029 0.09,0.057 0.13477,0.0859 2.82125,1.8234 5.69192,3.5664 8.60156,5.24609 0.52258,0.30173 1.05293,0.58783 1.57813,0.88477 0.19692,0.11133 0.3945,0.22137 0.59179,0.33203 0.20703,0.11619 0.41365,0.2322 0.6211,0.34766 2.08391,1.15918 4.18466,2.28474 6.30859,3.36914 0.65843,0.33599 1.32034,0.66354 1.98242,0.99218 2.52684,1.25519 5.07877,2.45586 7.65625,3.60352 0.56583,0.2516 1.12906,0.50755 1.69727,0.75391 2.6495,1.15045 5.32279,2.23878 8.01953,3.27343 0.11038,0.0423 0.21961,0.0868 0.33008,0.12891 0.22189,0.0847 0.44187,0.17393 0.66406,0.25781 0.13357,0.0503 0.26475,0.1062 0.39844,0.15625 3.57992,1.34282 7.1846,2.61809 10.83593,3.75196 0.54263,0.1685 1.10043,0.28733 1.64454,0.45117 0.0192,0.006 0.0375,0.0138 0.0566,0.0195 0.12078,0.0363 0.2444,0.0596 0.36523,0.0957 2.50043,0.74717 5.01191,1.46209 7.54492,2.11133 0.11403,0.0292 0.22966,0.053 0.34375,0.082 0.25615,0.0652 0.51503,0.12139 0.77149,0.18555 1.24943,0.31237 2.49986,0.61409 3.75586,0.90234 0.14309,0.0328 0.28651,0.0651 0.42968,0.0977 1.53867,0.34962 3.0818,0.67895 4.63086,0.99219 0.67711,0.13729 1.35809,0.25829 2.03711,0.38867 0.57103,0.10925 1.14055,0.22383 1.71289,0.32812 0.94481,0.17257 1.88028,0.37995 2.82813,0.53907 0.0281,0.005 0.0558,0.0109 0.084,0.0156 0.45419,0.0757 0.84356,0.102 1.28907,0.17383 0.0395,0.006 0.0796,0.009 0.11914,0.0156 0.42652,0.0681 0.85981,0.1143 1.2871,0.17969 1.78784,0.27512 3.58364,0.50908 5.38282,0.73633 0.39613,0.05 0.78897,0.1164 1.18554,0.16406 0.12564,0.0151 0.24933,0.0399 0.375,0.0547 0.028,0.003 0.0579,0.005 0.0859,0.008 1.07162,0.1263 2.13432,0.29498 3.20899,0.4043 0.5193,0.0515 1.17659,0.0773 1.70312,0.125 1.47385,0.13719 2.9573,0.22124 4.4375,0.32617 0.68021,0.0484 1.32484,0.0913 2.00195,0.13281 1.50186,0.0923 2.9917,0.26492 4.49805,0.32422 0.28983,0.0114 1.07366,0.0145 1.50195,0.0254 0.21763,0.009 0.35757,0.0282 0.57813,0.0371 0.13028,0.005 0.80901,-0.0153 1.01172,-0.0117 0.0266,4.9e-4 0.0494,10e-4 0.0762,0.002 0.0579,0.002 0.11394,0.008 0.17188,0.01 0.0833,0.002 0.23287,-0.004 0.31835,-0.002 1.28247,0.0208 2.26561,0.0534 3.52344,0.0586 0.66554,0.003 1.32742,-0.0256 1.99219,-0.0293 0.72147,-0.005 1.44148,-0.0188 2.16211,-0.0313 1.84673,-0.03 3.691,-0.0781 5.53125,-0.1582 0.2053,-0.008 0.81897,-0.002 0.96094,-0.01 0.34776,-0.0193 0.67155,-0.0595 1.01757,-0.0801 0.25653,-0.014 0.5112,-0.0397 0.76758,-0.0547 6.55482,-0.37476 13.06551,-1.05634 19.51953,-2.06641 0.19456,-0.0302 0.38775,-0.0668 0.58204,-0.0976 2.98809,-0.47673 5.96314,-1.02815 8.92578,-1.64063 0.54542,-0.11282 1.09587,-0.22422 1.64062,-0.34179 5.7594,-1.2414 11.47289,-2.70893 17.1211,-4.46289 1.13554,-0.35263 2.25311,-0.75057 3.38085,-1.12305 0.0151,-0.005 0.0299,-0.0107 0.0449,-0.0156 2.69933,-0.89226 5.37496,-1.84129 8.02734,-2.8457 0.1205,-0.0456 0.24092,-0.0909 0.36133,-0.13672 2.60413,-0.99191 5.18463,-2.03488 7.74023,-3.13281 0.11938,-0.0512 0.2401,-0.099 0.35938,-0.15039 0.11086,-0.0479 0.22321,-0.0925 0.33398,-0.14063 0.16898,-0.0733 0.33904,-0.14301 0.50781,-0.21679 2.36427,-1.03406 4.70585,-2.11304 7.02539,-3.23633 0.007,-0.003 0.013,-0.007 0.0195,-0.01 1.89668,-0.91877 3.7714,-1.87611 5.63672,-2.85351 0.3441,-0.18024 0.6901,-0.35485 1.0332,-0.53711 4.06371,-2.15952 8.04466,-4.46487 11.94726,-6.89649 0.20578,-0.12821 0.42357,-0.23429 0.62891,-0.36328 0.21606,-0.13571 0.41931,-0.28734 0.63477,-0.42383 1.03042,-0.65267 2.0617,-1.30329 3.08007,-1.9746 0.0277,-0.0183 0.0543,-0.0384 0.082,-0.0566 2.36456,-1.5604 4.69113,-3.17664 6.98829,-4.83593 0.22208,-0.16057 0.4406,-0.32675 0.66211,-0.48828 1.99755,-1.45535 3.96835,-2.94585 5.9121,-4.47461 0.49679,-0.39075 0.98775,-0.78653 1.48047,-1.18164 2.38099,-1.90913 4.72298,-3.86899 7.01758,-5.88672 0.006,-0.006 0.0133,-0.0101 0.0195,-0.0156 0.25466,-0.22403 0.5161,-0.44077 0.76953,-0.66601 2.57924,-2.29179 5.10138,-4.65023 7.56446,-7.07618 0.24946,-0.24578 0.49016,-0.49908 0.73828,-0.74609 2.17126,-2.16088 4.28987,-4.37782 6.36523,-6.64062 0.3835,-0.4183 0.76862,-0.83449 1.14844,-1.25586 1.48087,-1.64221 2.93233,-3.31238 4.36133,-5.00586 0.0861,-0.10209 0.17188,-0.2044 0.25781,-0.30664 2.43442,-2.89663 4.81871,-5.8411 7.0957,-8.88282 0.34769,-0.46445 0.65854,-0.9509 1.00196,-1.41796 0.73422,-0.99922 1.42909,-2.02487 2.14453,-3.03711 0.11141,-0.15754 0.22304,-0.31485 0.33398,-0.47266 0.58021,-0.82558 1.17868,-1.63889 1.7461,-2.47266 0.71084,-1.04417 1.41919,-2.08851 2.10937,-3.14453 0.54632,-0.83642 1.05609,-1.6947 1.58985,-2.53906 0.0657,-0.10385 0.12982,-0.20854 0.19531,-0.3125 0.57844,-0.91858 1.16329,-1.83229 1.72656,-2.75977 0.7689,-1.26576 1.54333,-2.52743 2.2832,-3.80859 0.38996,-0.67536 0.74682,-1.36895 1.12891,-2.04883 0.0404,-0.0719 0.0788,-0.14484 0.11914,-0.21679 0.5475,-0.97702 1.09013,-1.95555 1.62109,-2.94141 0.79173,-1.47024 1.59551,-2.93324 2.34961,-4.42188 0.30724,-0.60615 0.58171,-1.22855 0.88282,-1.83789 0.49338,-0.99866 0.96865,-2.00494 1.44531,-3.01172 0.78402,-1.65712 1.58631,-3.30458 2.32422,-4.98242 0.20615,-0.46809 0.3892,-0.94627 0.59179,-1.41601 0.4654,-1.07955 0.89542,-2.17387 1.3418,-3.26172 0.18866,-0.46035 0.38509,-0.91713 0.57031,-1.37891 0.16854,-0.42001 0.35384,-0.8327 0.51954,-1.2539 0.36023,-0.91613 0.73726,-1.82449 1.08398,-2.7461 0.13194,-0.35003 0.24891,-0.7058 0.37891,-1.05664 0.38965,-1.05209 0.72954,-2.12264 1.10156,-3.18164 0.0774,-0.2207 0.15578,-0.44111 0.23242,-0.66211 0.25418,-0.73263 0.52187,-1.45947 0.76758,-2.19531 0.35627,-1.06731 0.74167,-2.12339 1.08008,-3.19727 0.43289,-1.37126 0.79184,-2.76848 1.19531,-4.15039 0.003,-0.0105 0.007,-0.0208 0.01,-0.0312 0.26063,-0.89451 0.52521,-1.78684 0.77344,-2.68554 0.33895,-1.22676 0.71733,-2.43945 1.0332,-3.67383 0.31337,-1.22431 0.55742,-2.46953 0.84766,-3.70117 0.001,-0.005 0.003,-0.009 0.004,-0.0137 0.20445,-0.86828 0.40275,-1.73765 0.5957,-2.60937 0.037,-0.16707 0.0786,-0.3328 0.11523,-0.5 0.19495,-0.89106 0.42657,-1.77157 0.60938,-2.66602 0.0696,-0.33946 0.16263,-0.67175 0.23047,-1.01172 0.0275,-0.13779 0.0451,-0.27814 0.0723,-0.41601 5.2e-4,-0.003 10e-4,-0.005 0.002,-0.008 0.23045,-1.16834 0.40199,-2.35141 0.61133,-3.52539 0.0657,-0.36877 0.12775,-0.73813 0.1914,-1.10743 0.3335,-1.93428 0.6729,-3.86532 0.94922,-5.8125 0.0193,-0.1363 0.0494,-0.26988 0.0684,-0.40625 0.0533,-0.38325 0.0625,-0.69524 0.11328,-1.07226 0.071,-0.52888 0.12849,-1.06018 0.19531,-1.58985 0.0506,-0.40011 0.0983,-0.80051 0.14649,-1.20117 0.3242,-2.70076 0.59741,-5.40653 0.8125,-8.12304 0.0791,-1.01741 0.17123,-2.16845 0.23242,-3.19336 0.39315,-6.20653 0.49486,-12.43126 0.32031,-18.65235 -0.0191,-0.97099 -0.0407,-2.25882 -0.0762,-3.15234 -0.0477,-1.0967 -0.12407,-2.18979 -0.18945,-3.28516 -0.0604,-0.97279 -0.0835,-1.78378 -0.16992,-2.94336 -0.0543,-0.72809 -0.14296,-1.45078 -0.20508,-2.17773 -0.12351,-1.45149 -0.25155,-2.90051 -0.40625,-4.34766 -0.16445,-1.53223 -0.36316,-3.05778 -0.5625,-4.58398 -0.18303,-1.40539 -0.34592,-2.81353 -0.5586,-4.21289 -0.0348,-0.22875 -0.0816,-0.45501 -0.11718,-0.6836 -0.37321,-2.39653 -0.78288,-4.78571 -1.24219,-7.16406 -0.0695,-0.35892 -0.11599,-0.72367 -0.1875,-1.08203 -0.21417,-1.0733 -0.48745,-2.12898 -0.71875,-3.19727 -0.31607,-1.46389 -0.63563,-2.92703 -0.98438,-4.38281 -0.32485,-1.35358 -0.66903,-2.70013 -1.02148,-4.04492 -0.41377,-1.58055 -0.85224,-3.15296 -1.30469,-4.72266 -0.0604,-0.20932 -0.11083,-0.42177 -0.17187,-0.63086 -9.3e-4,-0.003 -10e-4,-0.007 -0.002,-0.01 -0.29661,-1.01579 -0.59377,-2.03075 -0.90625,-3.04102 -0.55124,-1.7826 -1.14476,-3.55151 -1.74609,-5.31836 -0.0455,-0.13365 -0.087,-0.26879 -0.13281,-0.40234 -0.058,-0.16928 -0.10957,-0.34065 -0.16797,-0.50977 -0.35797,-1.03554 -0.72086,-2.06853 -1.0957,-3.09765 -0.39057,-1.07194 -0.80572,-2.13569 -1.21485,-3.20117 -0.0342,-0.0891 -0.0672,-0.17853 -0.10156,-0.26758 -0.33476,-0.86806 -0.64317,-1.74575 -0.99023,-2.60938 -0.054,-0.13444 -0.11953,-0.26219 -0.17383,-0.39648 -0.99399,-2.45926 -2.0588,-4.88864 -3.15039,-7.30664 -0.1699,-0.37676 -0.32578,-0.759 -0.49805,-1.13477 -0.41409,-0.90224 -0.83017,-1.80302 -1.25781,-2.69922 -0.2405,-0.50411 -0.50161,-0.99445 -0.7461,-1.49609 -0.49021,-1.00555 -0.99074,-2.00626 -1.49804,-3.00391 -0.2661,-0.52382 -0.51628,-1.0545 -0.78711,-1.57617 -0.78364,-1.50794 -1.60695,-2.99536 -2.42969,-4.48437 -0.45556,-0.82494 -0.91233,-1.64742 -1.37891,-2.46485 -0.30082,-0.52711 -0.58678,-1.06129 -0.89257,-1.58593 -0.80052,-1.37255 -1.63851,-2.72498 -2.47266,-4.08008 -0.0874,-0.142 -0.17787,-0.28203 -0.26563,-0.42383 -0.36209,-0.58496 -0.72735,-1.16837 -1.0957,-1.75 -0.36186,-0.57151 -0.69456,-1.15831 -1.0625,-1.72656 -0.14581,-0.22528 -0.29278,-0.4492 -0.43945,-0.67383 -0.17589,-0.26926 -0.33448,-0.54789 -0.51172,-0.81641 -1.95565,-2.96284 -4.00791,-5.84597 -6.10742,-8.68945 -0.4337,-0.58725 -0.88051,-1.16199 -1.32032,-1.74414 -2.06646,-2.73617 -4.19516,-5.41646 -6.39062,-8.03516 -0.35312,-0.42093 -0.69436,-0.85164 -1.05078,-1.26953 -0.70285,-0.82458 -1.41548,-1.63874 -2.13086,-2.45117 -0.0119,-0.0135 -0.0252,-0.0256 -0.0371,-0.0391 -1.86258,-2.11411 -3.7636,-4.188567 -5.70899,-6.218749 -0.31824,-0.331894 -0.64439,-0.654726 -0.96484,-0.984375 -0.22283,-0.229364 -0.45001,-0.453432 -0.67383,-0.681641 -0.17346,-0.176876 -0.34935,-0.35504 -0.52343,-0.53125 0,0 -0.002,-0.002 -0.002,-0.002 -1.91566,-1.938893 -3.8677,-3.836322 -5.85742,-5.693359 -0.28697,-0.267887 -0.57292,-0.536643 -0.86133,-0.802735 -0.003,-0.0025 -0.005,-0.0053 -0.008,-0.0078 -0.29342,-0.270487 -0.58001,-0.547689 -0.875,-0.816406 -1.99345,-1.816888 -4.02516,-3.588451 -6.08789,-5.322266 -0.12119,-0.101894 -0.23992,-0.207001 -0.36133,-0.308594 -0.90912,-0.760508 -1.82006,-1.51759 -2.74219,-2.261718 -0.15637,-0.126151 -0.31785,-0.245412 -0.47461,-0.371094 -2.99338,-2.400824 -6.05742,-4.706734 -9.18164,-6.931641 -0.34408,-0.24503 -0.68366,-0.495406 -1.02929,-0.738281 -1.4061,-0.988068 -2.82675,-1.954479 -4.25782,-2.90625 -0.0408,-0.02711 -0.0823,-0.053 -0.12304,-0.08008 -1.92157,-1.275977 -3.85529,-2.534679 -5.82031,-3.744141 -0.002,-0.0012 -0.004,-0.0027 -0.006,-0.0039 -0.006,-0.0035 -0.0119,-0.0063 -0.0176,-0.0098 -0.2071,-0.127429 -0.41939,-0.246364 -0.62696,-0.373047 -0.21541,-0.131471 -0.4345,-0.256071 -0.65039,-0.386718 -0.4291,-0.259675 -0.86187,-0.513048 -1.29297,-0.769532 -0.11922,-0.07091 -0.23805,-0.142229 -0.35742,-0.21289 -2.00556,-1.187614 -4.02889,-2.343105 -6.07617,-3.460938 -0.41279,-0.225367 -0.82784,-0.445528 -1.24219,-0.667968 -0.0131,-0.007 -0.026,-0.01446 -0.0391,-0.02148 -0.43856,-0.235456 -0.87404,-0.474789 -1.31445,-0.707031 -2.04394,-1.0773 -4.11095,-2.110115 -6.19336,-3.117188 -0.40907,-0.197789 -0.81614,-0.398747 -1.22656,-0.59375 -1.15092,-0.546957 -2.29494,-1.105577 -3.45703,-1.630859 -0.001,-5.98e-4 -0.003,-0.0014 -0.004,-0.002 -0.004,-0.0017 -0.008,-0.0022 -0.0117,-0.0039 -1.58637,-0.716902 -3.19227,-1.394269 -4.79883,-2.070313 -0.17775,-0.07478 -0.35327,-0.15425 -0.53125,-0.228515 -1.81154,-0.756137 -3.64049,-1.47421 -5.47656,-2.177735 -0.61691,-0.236484 -1.23194,-0.474601 -1.85156,-0.705078 -3.59301,-1.33599 -7.21351,-2.609271 -10.89258,-3.740234 -1.03362,-0.31774 -2.08644,-0.566508 -3.125,-0.867188 -0.51129,-0.14805 -1.02641,-0.283724 -1.53906,-0.427734 -0.0435,-0.01221 -0.0874,-0.02298 -0.13086,-0.03516 -0.18213,-0.05105 -0.36462,-0.09986 -0.54688,-0.15039 -2.24783,-0.62256 -4.49542,-1.240253 -6.76367,-1.783203 -0.98763,-0.23646 -1.98778,-0.432717 -2.98047,-0.654297 -0.57172,-0.127629 -1.14395,-0.252406 -1.7168,-0.375 -0.21648,-0.04639 -0.43179,-0.09691 -0.64843,-0.142578 -2.00973,-0.423116 -4.02066,-0.83222 -6.04297,-1.19336 -0.24683,-0.04415 -0.49512,-0.08176 -0.74219,-0.125 -0.4711,-0.08207 -0.93025,-0.202524 -1.40234,-0.28125 -1.18955,-0.198367 -2.28976,-0.333405 -3.44141,-0.507812 -0.48945,-0.07321 -0.97453,-0.162813 -1.46484,-0.232422 -0.79635,-0.113161 -1.59087,-0.232306 -2.38867,-0.335938 -3.23969,-0.429212 -6.4255,-0.778955 -9.60938,-1.029296 -1.03524,-0.08435 -2.07452,-0.115162 -3.11133,-0.183594 -1.60072,-0.09809 -3.18794,-0.214329 -4.83984,-0.273438 -0.34927,-0.01464 -0.69775,-0.02427 -1.04688,-0.03711 -2.43349,-0.08964 -4.8687,-0.109332 -7.30664,-0.111328 -0.1254,-1.02e-4 -0.24373,-1.12e-4 -0.36914,0 -0.10742,1.07e-4 -0.21483,-2.78e-4 -0.32226,0 -0.6188,0.0016 -1.24121,-0.03261 -1.85938,-0.02539 z m 3.57422,19 c 0.80946,0.004 1.56843,0.02887 2.35547,0.04102 1.51987,0.02377 2.98222,0.08514 4.42578,0.140625 1.04201,0.04408 2.0865,0.06201 3.125,0.123047 0.35699,0.01979 0.71529,0.04054 1.07031,0.0625 2.03493,0.13124 4.04747,0.319297 6.05469,0.515625 1.1688,0.116754 2.36962,0.2424 3.5625,0.386719 2.68439,0.317364 5.36136,0.687406 8.02734,1.126953 0.97193,0.160489 1.93809,0.343373 2.90625,0.519531 2.74355,0.499205 5.47994,1.035155 8.19727,1.662109 0.001,2.87e-4 0.003,-2.87e-4 0.004,0 0.003,7.43e-4 0.007,0.0012 0.01,0.002 0.69292,0.15958 1.37775,0.346014 2.06836,0.513672 2.89993,0.705697 5.78976,1.453398 8.65234,2.302735 0.20739,0.06133 0.41393,0.125422 0.6211,0.1875 6.6263,1.991979 13.14223,4.368628 19.51172,7.111328 0.27708,0.119509 0.5536,0.240434 0.83007,0.361328 3.08442,1.346397 6.13649,2.7749 9.14649,4.292969 0.10163,0.05137 0.20511,0.09883 0.30664,0.15039 3.12009,1.58095 6.19633,3.255398 9.22656,5.017578 0.28585,0.166561 0.56464,0.345541 0.84961,0.513672 2.53596,1.493329 5.03032,3.06118 7.4961,4.679688 0.55704,0.366124 1.11089,0.737062 1.66406,1.109375 0.45637,0.307355 0.90431,0.624434 1.35742,0.935547 1.49732,1.02688 2.98489,2.06845 4.45117,3.140625 0.40841,0.298556 0.81857,0.594458 1.22461,0.896484 0.37384,0.278136 0.74724,0.556737 1.11914,0.837891 0.24575,0.185768 0.48383,0.379497 0.72852,0.566406 1.77699,1.35806 3.5411,2.733149 5.26758,4.15625 0.27835,0.229232 0.56668,0.444844 0.84375,0.675781 1.58291,1.320559 3.10869,2.708576 4.64648,4.082031 1.699,1.521945 3.3726,3.068275 5.01172,4.648435 1.23859,1.19189 2.48481,2.37558 3.68945,3.60156 2.33233,2.37639 4.58807,4.8175 6.7832,7.3086 0.47822,0.5432 0.95754,1.08539 1.42969,1.63476 0.69362,0.80602 1.35585,1.63734 2.03516,2.45508 0.59406,0.71502 1.15365,1.45439 1.73633,2.17774 1.94411,2.41717 3.86178,4.85086 5.67187,7.34961 0.2356,0.32561 0.47363,0.64945 0.70703,0.97656 0.69706,0.97514 1.34273,1.98101 2.01953,2.96875 1.73524,2.53275 3.43804,5.0825 5.03711,7.68945 0.86665,1.41668 1.68182,2.85809 2.50782,4.29492 1.27426,2.21136 2.50246,4.44459 3.67968,6.70313 0.87238,1.67684 1.7344,3.35809 2.55274,5.05859 1.06819,2.21655 2.05947,4.46629 3.03515,6.72266 0.71506,1.65504 1.46804,3.2945 2.13282,4.96875 1.44719,3.64362 2.78549,7.33001 3.99218,11.0625 0.51886,1.60347 0.94022,3.23606 1.41407,4.85351 0.7293,2.49297 1.44263,4.99112 2.06445,7.51758 0.43236,1.75271 0.81144,3.51895 1.19141,5.28516 0.53893,2.51247 1.02645,5.03775 1.45898,7.57812 0.28621,1.67475 0.57515,3.34875 0.81445,5.03321 0.44785,3.16584 0.7944,6.35349 1.07618,9.55468 0.0927,1.04891 0.2379,2.08891 0.3125,3.14063 0.005,0.0729 0.007,0.1458 0.0117,0.21875 0.0561,0.82912 0.0661,1.90999 0.11133,2.82812 0.15209,2.94996 0.26567,6.01443 0.27539,9.21289 0.008,1.11882 -0.0249,2.03567 -0.0332,3.10352 -0.0387,3.26327 -0.14221,6.45783 -0.32812,9.43555 -0.0889,1.36959 -0.18821,2.7335 -0.30469,4.08593 -0.16065,1.85234 -0.33405,3.70219 -0.55078,5.54493 -0.1581,1.35967 -0.34939,2.70711 -0.53711,4.05468 -0.29458,2.0968 -0.59977,4.19184 -0.9668,6.27344 -10e-4,0.008 -0.003,0.0157 -0.004,0.0234 -0.18472,1.04915 -0.40375,2.09325 -0.60742,3.13867 -0.33813,1.73658 -0.69942,3.46718 -1.08789,5.19141 -0.19264,0.85442 -0.38101,1.70955 -0.58594,2.56054 -0.16412,0.67991 -0.349,1.36101 -0.52148,2.04102 -0.49741,1.9662 -0.99948,3.93155 -1.5625,5.87891 -0.27902,0.96423 -0.58984,1.91792 -0.88477,2.87695 -0.079,0.25711 -0.16601,0.51094 -0.24609,0.76758 -0.6231,1.99598 -1.23948,3.99349 -1.93164,5.96679 -0.16032,0.45535 -0.33009,0.90732 -0.49414,1.36133 -0.73974,2.05594 -1.5371,4.09216 -2.35156,6.1211 -0.27975,0.69658 -0.5263,1.40917 -0.81446,2.10156 -0.007,0.0164 -0.0146,0.0324 -0.0215,0.0488 -0.78961,1.89646 -1.66269,3.75846 -2.51758,5.6289 -0.26694,0.58377 -0.52977,1.16951 -0.80273,1.75 -0.42408,0.90223 -0.84025,1.80779 -1.2793,2.70313 -0.7447,1.5185 -1.53209,3.01842 -2.32031,4.51758 -0.5589,1.06265 -1.11403,2.1274 -1.69336,3.17773 -0.2039,0.36982 -0.41652,0.73505 -0.62305,1.10352 -1.27191,2.26871 -2.59767,4.50313 -3.96289,6.71093 -0.48055,0.77684 -0.93774,1.56878 -1.42969,2.33789 -0.0875,0.13682 -0.18165,0.26965 -0.26953,0.40625 -1.62718,2.53008 -3.32668,5.00843 -5.07422,7.45118 -0.36822,0.51445 -0.71051,1.0481 -1.08398,1.55859 -2.18216,2.98418 -4.45395,5.89885 -6.81055,8.74219 -0.18906,0.22778 -0.38403,0.45083 -0.57422,0.67773 -2.14911,2.56749 -4.3759,5.0667 -6.66211,7.51172 -0.92131,0.97725 -1.97805,2.03815 -3.07031,3.13867 -1.46888,1.4972 -2.94682,2.9854 -4.4668,4.43164 -1.37398,1.31049 -2.5767,2.37465 -3.875,3.55469 -1.85302,1.66428 -3.71154,3.32348 -5.63281,4.91211 -0.99901,0.82586 -2.03381,1.60914 -3.05078,2.41406 -1.90869,1.51099 -3.82841,3.00787 -5.79883,4.44336 -0.89633,0.65289 -1.8178,1.27324 -2.72656,1.91016 -1.17734,0.82385 -2.3714,1.61604 -3.56445,2.41015 -1.02819,0.68516 -2.03902,1.39379 -3.08204,2.0586 -1.29837,0.8274 -2.61475,1.62853 -3.93554,2.42383 -2.06619,1.24398 -4.15283,2.44405 -6.25977,3.60156 -0.82875,0.45518 -1.66529,0.89718 -2.50195,1.33984 -1.23774,0.65262 -2.48514,1.28792 -3.74024,1.91406 -1.63263,0.81621 -3.27379,1.61167 -4.92773,2.37696 -0.12532,0.058 -0.25147,0.11417 -0.37695,0.17187 -1.79669,0.82699 -3.59563,1.64188 -5.40625,2.40625 -1.99303,0.83861 -4.00919,1.61324 -6.0293,2.37891 -1.21248,0.4605 -2.42577,0.953 -3.63477,1.38086 -0.26058,0.0924 -0.51632,0.19783 -0.77734,0.28906 -1.10432,0.38627 -2.22422,0.68317 -3.33203,1.04688 -3.12253,1.02103 -6.2459,2.03665 -9.40039,2.88281 -0.71516,0.19192 -1.4467,0.32298 -2.16406,0.50586 -3.52637,0.89939 -7.06222,1.74653 -10.63477,2.42969 -1.13143,0.21524 -2.29481,0.34317 -3.43359,0.5371 -3.16103,0.54146 -6.32308,1.07844 -9.52539,1.45313 -1.46084,0.17031 -2.97163,0.23385 -4.44727,0.37109 -3.02037,0.2797 -6.03232,0.58659 -9.09375,0.72071 -3.39066,0.14856 -12.80575,0.14192 -16.25391,-0.0117 -1.49904,-0.0668 -2.98372,-0.24943 -4.47851,-0.35352 -2.86558,-0.20578 -5.73648,-0.39593 -8.55664,-0.72656 -1.73704,-0.20448 -3.4551,-0.51295 -5.18359,-0.76758 -2.41849,-0.35338 -4.84052,-0.69492 -7.22852,-1.14258 -2.27072,-0.42918 -4.51858,-0.96101 -6.76953,-1.47656 -1.81169,-0.41275 -3.62991,-0.8067 -5.42578,-1.27539 -2.41181,-0.6312 -4.79624,-1.35575 -7.17969,-2.08594 -1.6507,-0.50563 -3.30453,-0.99843 -4.94336,-1.55273 -2.50263,-0.84574 -4.97858,-1.76972 -7.44336,-2.72461 -1.30744,-0.50691 -2.61803,-1.00338 -3.91406,-1.54102 -2.43958,-1.01083 -4.84795,-2.10093 -7.24414,-3.21875 -0.26053,-0.12166 -0.5194,-0.24626 -0.7793,-0.36914 -1.23991,-0.58666 -2.48119,-1.16968 -3.70898,-1.78515 -2.11956,-1.06051 -4.2109,-2.17946 -6.29102,-3.32422 -0.39174,-0.21581 -0.7818,-0.43369 -1.17187,-0.65235 -1.3263,-0.744 -2.64702,-1.49877 -3.95704,-2.27734 -1.7867,-1.06041 -3.5536,-2.15772 -5.30664,-3.28125 -0.56498,-0.36244 -1.12852,-0.72704 -1.68945,-1.0957 -1.5297,-1.00486 -3.0505,-2.02659 -4.55469,-3.08008 -0.75339,-0.52833 -1.50675,-1.05595 -2.25195,-1.5957 -1.40776,-1.01964 -2.79717,-2.06306 -4.17578,-3.12305 -0.92851,-0.71382 -1.84815,-1.44109 -2.76563,-2.17578 -0.69228,-0.55408 -1.39401,-1.09606 -2.07812,-1.66016 -1.53476,-1.26513 -3.03907,-2.56869 -4.5332,-3.88476 -0.81318,-0.71722 -1.61051,-1.45302 -2.41211,-2.18555 -0.99921,-0.91417 -1.99986,-1.82611 -2.97852,-2.76172 -1.12793,-1.07678 -2.24232,-2.16864 -3.34375,-3.27539 -0.15563,-0.15631 -0.31173,-0.31189 -0.4668,-0.46875 -0.81763,-0.82691 -1.61632,-1.66999 -2.41797,-2.51172 -1.00799,-1.05994 -2.00047,-2.13219 -2.98242,-3.21484 -1.02578,-1.13169 -2.05577,-2.25892 -3.05468,-3.41797 -0.9258,-1.0722 -1.82497,-2.15968 -2.72266,-3.25 -0.4502,-0.54667 -0.8806,-1.1067 -1.32422,-1.65821 -1.59735,-1.98866 -3.15732,-3.99911 -4.66406,-6.04296 -0.86923,-1.18031 -1.73527,-2.36213 -2.57422,-3.56055 -0.37976,-0.54164 -0.74173,-1.0933 -1.11524,-1.63867 -1.37336,-2.00561 -2.69826,-4.03757 -3.98632,-6.08985 -0.94589,-1.50881 -1.90895,-3.00782 -2.8086,-4.54101 -1.39938,-2.38247 -2.69654,-4.81581 -3.98242,-7.25391 -0.66445,-1.26073 -1.3465,-2.51224 -1.98047,-3.78711 -0.38681,-0.77937 -0.75933,-1.56505 -1.13476,-2.34961 -1.02906,-2.14579 -1.99312,-4.31898 -2.93555,-6.50195 -0.303,-0.70173 -0.6181,-1.39817 -0.91211,-2.10352 -0.419,-1.00648 -0.86494,-2.00216 -1.26562,-3.01562 -1.14145,-2.88619 -2.1693,-5.81536 -3.16016,-8.75781 -0.21654,-0.64218 -0.46453,-1.27336 -0.67383,-1.91797 -0.41286,-1.27094 -0.77952,-2.55471 -1.16406,-3.83399 -0.82689,-2.7586 -1.59423,-5.53566 -2.28906,-8.33593 -0.29799,-1.19594 -0.6173,-2.38641 -0.89063,-3.58789 -0.86746,-3.83051 -1.61375,-7.69561 -2.23242,-11.5918 -0.17161,-1.07852 -0.30335,-2.16275 -0.45508,-3.24414 -0.44991,-3.20541 -0.81002,-6.43005 -1.08984,-9.67188 -0.0445,-0.50966 -0.0986,-1.07208 -0.13672,-1.57031 -0.0642,-0.82793 -0.13836,-1.65351 -0.19141,-2.48047 -0.0723,-1.19444 -0.10509,-2.57669 -0.15625,-3.91015 -0.0764,-2.39093 -0.15625,-4.6519 -0.15625,-7.88868 0,-4.0775 0.0682,-7.05267 0.19727,-9.93945 0.1754,-3.12627 0.41287,-6.23758 0.74023,-9.32617 0.0206,-0.19294 0.0254,-0.3421 0.0469,-0.53906 0.0526,-0.48636 0.11149,-0.97134 0.16797,-1.45704 0.14319,-1.22512 0.36414,-2.42968 0.53125,-3.64843 0.34395,-2.51756 0.67708,-5.03712 1.12695,-7.53321 0.061,-0.33836 0.12657,-0.67575 0.18945,-1.01367 0.23985,-1.29383 0.55304,-2.5658 0.82032,-3.85156 0.54878,-2.62563 1.087,-5.25407 1.75195,-7.84961 0.30931,-1.21435 0.68919,-2.40498 1.02344,-3.61133 0.7973,-2.86231 1.61153,-5.71894 2.54882,-8.53711 0.32619,-0.98425 0.70172,-1.95139 1.04493,-2.92968 1.04192,-2.96139 2.12724,-5.90842 3.32226,-8.8125 0.40109,-0.97556 0.84319,-1.93536 1.26172,-2.9043 1.22111,-2.82604 2.49251,-5.63133 3.85742,-8.39453 0.52431,-1.06054 1.08301,-2.10652 1.62891,-3.15821 1.3474,-2.59837 2.74278,-5.17232 4.21679,-7.70703 0.67664,-1.16264 1.38198,-2.31227 2.08594,-3.46289 1.61314,-2.63725 3.26737,-5.25206 5.01758,-7.81054 0.36363,-0.53161 0.72283,-1.0665 1.0918,-1.59375 2.13284,-3.04791 4.36397,-6.0352 6.68945,-8.95899 0.31893,-0.40047 0.63443,-0.80298 0.95703,-1.20117 2.12388,-2.62461 4.32042,-5.18095 6.57813,-7.67578 0.53256,-0.58671 1.07637,-1.16358 1.61718,-1.74414 1.96593,-2.11642 3.97986,-4.18266 6.03907,-6.19922 0.70786,-0.69243 1.42394,-1.37558 2.14258,-2.05664 0.0709,-0.0672 0.13997,-0.13609 0.21093,-0.20313 0.009,-0.009 0.0183,-0.0168 0.0273,-0.0254 1.90653,-1.80076 3.85458,-3.552937 5.83398,-5.267575 0.82312,-0.712152 1.63938,-1.431891 2.47461,-2.128906 0.007,-0.0059 0.0144,-0.01164 0.0215,-0.01758 2.16531,-1.80836 4.38022,-3.553336 6.625,-5.257812 0.43872,-0.332927 0.86503,-0.68282 1.30665,-1.011719 0.22758,-0.169891 0.45154,-0.347022 0.67968,-0.515625 2.46776,-1.820817 4.99693,-3.552815 7.55274,-5.246094 0.59796,-0.396156 1.19073,-0.800666 1.79297,-1.189453 0.52131,-0.336742 1.05541,-0.652987 1.58007,-0.984375 2.15694,-1.361414 4.33946,-2.683404 6.55274,-3.953125 0.32536,-0.186624 0.65012,-0.374037 0.97656,-0.558594 0.74864,-0.423983 1.50326,-0.836657 2.25781,-1.25 2.32914,-1.273557 4.68486,-2.49897 7.07032,-3.669922 0.84823,-0.416478 1.69258,-0.841125 2.54687,-1.24414 2.70161,-1.27387 5.442,-2.469248 8.20898,-3.609375 0.78714,-0.324791 1.57181,-0.655139 2.36329,-0.96875 3.6778,-1.455719 7.36872,-2.773718 11.07617,-3.97461 0.37842,-0.122164 0.75164,-0.259238 1.13086,-0.378906 0.27784,-0.08773 0.55762,-0.169471 0.83594,-0.255859 3.83886,-1.195025 7.7,-2.257747 11.59179,-3.185547 0.19076,-0.04536 0.37937,-0.09785 0.57031,-0.142578 0.25724,-0.06039 0.51392,-0.122366 0.77149,-0.181641 4.14914,-0.954931 8.33341,-1.76592 12.56641,-2.423828 0.32514,-0.05093 0.63882,-0.09366 0.96093,-0.142578 4.37187,-0.655457 8.78864,-1.171869 13.27539,-1.517578 1.78541,-0.137568 3.61266,-0.203387 5.42969,-0.28711 1.65339,-0.06997 3.35048,-0.134517 5.10156,-0.162109 0.3731,-0.0058 0.73927,-0.01557 1.11719,-0.01953 1.21958,-0.01512 2.4383,-0.02988 3.66211,-0.02148 z m 3.23242,31.701172 c -0.009,-1.1e-5 -0.0166,0.0019 -0.0254,0.002 -0.0234,1.8e-5 -0.0449,0.0057 -0.0684,0.0059 -0.0631,1.33e-4 -0.12251,0.02048 -0.18554,0.02148 -0.13361,0.0023 -0.25541,0.03727 -0.38868,0.04297 -0.58689,0.02469 -1.14701,0.09144 -1.70508,0.185547 -0.003,5.51e-4 -0.006,0.0014 -0.01,0.002 -0.26418,0.04407 -0.56232,0.02866 -0.8125,0.08789 -0.004,0.001 -0.005,0.0029 -0.01,0.0039 -0.0189,0.0043 -0.0417,0.0015 -0.0605,0.0059 -0.78083,0.182594 -1.5535,0.437189 -1.71875,0.566406 -0.16524,0.129217 -0.37113,0.234375 -0.45703,0.234375 -0.0802,0 -0.87364,0.673357 -1.33594,0.986328 -0.90125,0.608387 -1.55974,1.096707 -2.36524,1.744141 -0.55889,0.440373 -1.17955,0.808263 -1.40039,1.033203 -0.45039,0.458839 -1.23787,1.118425 -1.75,1.464844 -0.51213,0.346419 -0.99351,0.732151 -1.07031,0.857422 -0.0769,0.125272 -0.61126,0.546947 -1.1875,0.935547 -0.0618,0.04166 -0.0802,0.08005 -0.14062,0.123046 -0.0297,0.02085 -0.0552,0.04668 -0.084,0.06641 -0.0616,0.04227 -0.0954,0.09931 -0.1582,0.146484 -0.42056,0.326478 -0.87629,0.675533 -1.03906,0.912109 -0.20518,0.298222 -0.58386,0.69995 -0.8418,0.892579 -0.25794,0.192628 -1.00271,0.877754 -1.65625,1.523437 -0.4357,0.430456 -0.72941,0.651435 -1.05078,0.914063 -0.31011,0.247986 -0.62557,0.553459 -0.87891,0.726562 -0.027,0.01632 -0.0565,0.04729 -0.084,0.06445 -0.57551,0.378874 -1.16371,0.797381 -1.38868,1.029297 -0.052,0.04911 -0.25976,0.171762 -0.25976,0.187492 0,0.0159 -0.17423,0.15599 -0.2207,0.20703 -0.28241,0.28321 -0.64465,0.57473 -0.95313,0.81641 -0.55368,0.47132 -1.29887,1.14678 -1.44531,1.16992 -2.2e-4,4e-5 -0.002,0.002 -0.002,0.002 -0.004,9.2e-4 -0.006,0.005 -0.01,0.006 -0.002,7e-4 -0.006,0.003 -0.008,0.004 -0.39514,0.0898 -1.13929,0.63715 -1.82031,1.23438 -0.08,0.0698 -0.33008,0.19923 -0.33008,0.22265 0,0.0249 -0.22118,0.24572 -0.34961,0.38867 -0.0214,0.0236 -0.0557,0.047 -0.0762,0.0703 -0.2908,0.33072 -0.52862,0.56186 -0.68555,0.69921 -0.97449,0.95482 -1.41692,1.35313 -1.64453,1.52148 -0.28103,0.2533 -0.63148,0.58594 -0.6875,0.58594 -0.0208,0 -0.1698,0.14041 -0.20313,0.15234 -0.16718,0.0803 -0.31849,0.14008 -0.55664,0.31055 -0.043,0.0308 -0.31765,0.30316 -0.35742,0.33203 -0.0841,0.0683 -0.10984,0.0674 -0.20313,0.14648 -0.26559,0.19547 -0.65234,0.40642 -0.65234,0.44532 0,0.0395 -0.30797,0.30054 -0.41211,0.41406 -0.0803,0.0738 -0.12665,0.0789 -0.20312,0.15234 -0.50527,0.48504 -1.55044,1.48874 -2.32422,2.23047 -0.49472,0.47422 -0.83861,0.80795 -1.23438,1.18945 -0.17226,0.14034 -0.46467,0.42383 -0.49414,0.42383 -0.0425,0 -0.14661,0.14523 -0.24023,0.27539 -0.27044,0.25791 -0.54102,0.47852 -0.59961,0.47852 -0.16557,0 -1.67193,1.08088 -2.06641,1.48242 -0.18609,0.18942 -0.61085,0.57244 -0.94336,0.84961 -0.33251,0.27716 -0.99391,0.89973 -1.46875,1.38477 -1.95729,1.99932 -2.828,2.83593 -2.95507,2.83593 -0.16517,0 -1.67257,1.08153 -2.06641,1.48243 -0.18609,0.18941 -0.60968,0.57049 -0.94141,0.84765 -0.33173,0.27717 -1.44112,1.33928 -2.46484,2.36133 -1.02373,1.02204 -1.9109,1.85937 -1.9707,1.85937 -0.24192,0 -2.29591,1.53956 -2.48829,1.86524 -0.11369,0.19246 -0.41343,0.49009 -0.66601,0.66015 -0.25257,0.17007 -1.08281,0.91647 -1.8457,1.65821 -0.25324,0.24621 -0.38047,0.36622 -0.62891,0.60742 -0.91643,0.88829 -1.58929,1.53348 -1.70703,1.57422 -0.0964,0.071 -0.23798,0.20614 -0.28711,0.22461 -0.57151,0.21465 -1.84193,1.26593 -2.23633,1.85156 -0.28106,0.41734 -0.74225,0.8508 -1.31445,1.23242 -0.23579,0.15726 -0.69813,0.61562 -1.0918,0.96094 -0.10472,0.098 -0.33916,0.22667 -0.36523,0.27539 -0.0525,0.0981 -0.0981,0.12448 -0.15039,0.17969 -0.23691,0.22137 -0.42581,0.34362 -0.63868,0.56054 -2.89038,2.94562 -4.22596,4.22266 -4.41601,4.22266 -0.19918,0 -1.66577,1.03086 -2.10938,1.48242 -0.18609,0.18941 -0.61303,0.57244 -0.94726,0.84961 -0.33424,0.27716 -0.77885,0.68786 -0.98828,0.91407 -0.3496,0.37762 -2.27882,2.29094 -3.55078,3.54492 -0.55032,0.51524 -1.27038,1.21638 -1.44727,1.3164 -0.16897,0.1158 -0.3456,0.26702 -0.46484,0.3086 -0.19814,0.0691 -0.47787,0.36498 -0.81055,0.58593 -0.17057,0.12579 -0.27015,0.1517 -0.50391,0.35352 -0.30192,0.22083 -0.7207,0.43776 -0.7207,0.49023 0,0.007 -0.14432,0.14037 -0.15039,0.15235 -0.004,0.006 -0.0276,0.0179 -0.0312,0.0234 -0.0232,0.0354 -0.10789,0.11225 -0.14649,0.16015 -0.12605,0.17149 -0.60254,0.65348 -1.38476,1.41211 -0.44124,0.42596 -0.81765,0.78348 -1.42774,1.38867 -0.0974,0.0928 -0.12649,0.11033 -0.21679,0.19532 -0.95233,0.933 -1.82603,1.71413 -2.04102,1.78906 -0.75209,0.26219 -2.00893,1.2781 -2.59375,2.09765 -0.31386,0.43984 -0.8691,1.01901 -1.23437,1.28516 -0.0277,0.0202 -0.21178,0.20538 -0.25196,0.23828 -0.38576,0.28778 -0.7801,0.61731 -0.85742,0.76172 -0.0722,0.13482 -0.14839,0.20382 -0.20703,0.24414 -0.16283,0.15151 -0.31257,0.29438 -0.50195,0.47461 -0.16502,0.15148 -0.23139,0.18892 -0.45703,0.41992 -0.0765,0.0783 -0.0868,0.089 -0.16016,0.16406 -0.37355,0.36317 -0.49759,0.44878 -0.88867,0.83985 -1.63365,1.63364 -2.8125,2.71443 -3.05469,2.79883 -0.47092,0.16416 -2.03029,1.25597 -2.11719,1.48242 -0.0282,0.0735 -0.23508,0.24134 -0.43945,0.39062 -0.13961,0.11924 -0.324,0.29297 -0.35352,0.29297 -0.0442,0 -0.32869,0.36244 -0.61523,0.75586 -0.0455,0.0606 -0.0958,0.0889 -0.13672,0.14844 -0.37342,0.54315 -0.82804,0.99745 -1.36719,1.36914 -0.12691,0.0875 -0.18217,0.16742 -0.30664,0.26563 -0.2765,0.21177 -0.60351,0.45658 -0.60351,0.49414 0,0.081 -1.2346,1.319 -2.04883,2.0996 -0.23196,0.22707 -0.54217,0.52133 -0.64648,0.63086 -0.21473,0.22544 -0.64085,0.65107 -0.94727,0.94532 -0.30642,0.29425 -0.73205,0.71988 -0.94531,0.94531 -0.21327,0.22544 -0.63522,0.65106 -0.93946,0.94531 -0.21979,0.21257 -0.44925,0.45883 -0.62304,0.63086 -0.89466,0.86654 -1.94438,1.90371 -2.22852,2.13672 -0.24198,0.20151 -0.54917,0.51348 -0.67187,0.56445 -0.6903,0.28682 -1.61378,0.99136 -2.63868,2.01563 -0.50541,0.50507 -0.97105,0.91992 -1.03515,0.91992 -0.01,0 -0.078,0.0933 -0.0977,0.10742 -0.001,2.8e-4 -0.0185,0.0176 -0.0195,0.0176 -0.007,0 -0.0537,0.0696 -0.0664,0.0781 -0.12273,0.11465 -0.24564,0.21996 -0.44531,0.49024 -0.2822,0.382 -0.73843,0.84326 -1.01367,1.02539 -0.53023,0.35089 -1.55823,1.68541 -1.77344,2.30273 -0.0813,0.23318 -0.26291,0.41675 -0.49609,0.49805 -0.60984,0.21259 -1.87178,1.19304 -2.31641,1.7793 -6.9e-4,10e-4 -0.005,0.003 -0.006,0.004 -0.003,0.005 -0.0164,0.0147 -0.0195,0.0195 -0.0101,0.0137 -0.0417,0.0356 -0.0508,0.0488 -0.20817,0.30256 -0.62516,0.71957 -0.92773,0.92774 -0.58087,0.39965 -1.6333,1.76333 -1.85743,2.40625 -0.0102,0.0294 -0.0493,0.07 -0.0644,0.10351 -0.0713,0.29741 -0.9663,1.28689 -1.91797,2.17774 -0.0838,0.0818 -0.23026,0.24022 -0.29687,0.30273 -0.22544,0.21156 -0.61243,0.61233 -0.86133,0.89063 -0.2489,0.27831 -0.61928,0.62499 -0.82227,0.76953 -0.0259,0.0184 -0.052,0.073 -0.0781,0.0937 -0.009,0.005 -0.0675,0.0664 -0.0723,0.0664 -0.0452,0 -0.32586,0.36854 -0.59179,0.73046 -0.45978,0.63938 -0.88148,1.39582 -1.05664,2.13477 -0.13548,0.57149 -0.40585,1.36508 -0.60157,1.76367 l -0.35742,0.7168 0.0176,0.99804 c -0.0107,0.19423 0.0105,0.41392 0.0117,0.625 l 0.002,0.1211 c 1.7e-4,0.0104 -1.7e-4,0.009 0,0.0195 5e-5,0.003 -5e-5,0.007 0,0.01 l 0.002,0.0586 c 3.5e-4,0.0187 0.005,0.0378 0.006,0.0566 7.4e-4,0.0373 -7.7e-4,0.0334 0,0.0723 0.0263,1.32043 0.16766,2.34591 0.38672,3.28125 0.008,0.0337 0.003,0.0629 0.0117,0.0976 0.0714,0.28335 0.1248,0.35074 0.20117,0.5957 0.10973,0.33367 0.18969,0.69943 0.34375,1.01172 0.003,0.004 0.0109,0.038 0.0137,0.041 0.11035,0.12187 0.20118,0.27414 0.20118,0.33984 0,0.0218 0.16123,0.18359 0.17968,0.22461 1e-4,2.2e-4 -9e-5,0.002 0,0.002 0.0151,0.0239 0.0489,0.0619 0.0645,0.0859 0.32696,0.52076 0.72055,1.06625 1.21679,1.60938 0.0261,0.0229 0.0883,0.13141 0.10547,0.14062 0.15424,0.0825 0.37847,0.31513 0.49805,0.51758 0.11959,0.20244 0.27054,0.36914 0.33594,0.36914 0.0876,0 0.54165,0.51636 0.98437,0.97266 0.15419,0.16825 0.64649,0.63022 0.64649,0.66015 0,0.0601 0.46337,0.29326 0.76562,0.51172 0.43229,0.36548 0.70734,0.51946 0.95117,0.63477 0.10793,0.0582 0.20959,0.1588 0.28516,0.18945 0.0398,0.0159 0.11399,0.0925 0.14648,0.10156 0.0513,0.0154 0.27592,0.25424 0.34375,0.29297 0.32408,0.19876 0.84541,0.6182 1.76172,1.53321 0.41472,0.41411 0.68276,0.62444 1.03125,0.94726 0.0777,0.0807 0.31687,0.3143 0.34961,0.35156 0.0263,0.0299 0.0976,0.0565 0.13086,0.0899 0.71022,0.62658 1.27204,1.04331 1.67383,1.23242 0.0663,0.0258 0.22681,0.16602 0.27148,0.16602 0.12465,0 0.44471,0.21281 0.7129,0.47265 0.004,0.004 0.008,0.004 0.0117,0.008 0.13664,0.16326 0.46757,0.45792 0.9043,0.76563 0.19069,0.13434 0.32578,0.1894 0.47852,0.28125 0.0237,0.0129 0.0502,0.0324 0.0742,0.0449 0.44821,0.25826 0.87188,0.4281 1.77735,0.63867 l 1.1543,0.26953 0.21679,0.0527 -0.0117,2.44726 c -0.004,0.83187 -0.0278,1.17175 -0.0469,1.60352 -0.0227,0.1957 -0.0171,0.67823 -0.0547,0.79492 -0.0377,0.25164 -0.12339,0.54437 -0.19726,0.8125 -0.099,0.30556 -0.19257,0.56352 -0.28516,0.91211 -0.0171,0.0645 -0.0181,0.18088 -0.0332,0.24219 l -0.24414,0.79687 -0.004,0.42188 -0.0684,0.28711 v 0.0801 5.51172 c -0.002,0.16023 -0.004,0.14389 -0.006,0.3125 l -0.0215,1.70117 c -0.0151,2.53361 -0.0375,4.92203 -0.0996,5.04492 l -0.32227,1.06641 -0.36328,1.19531 -0.0176,1.1582 c -0.0209,0.39203 -0.0228,1.51182 -0.0293,2.20508 l -0.0332,2.43359 -0.0234,1.83203 c -0.0176,1.93294 -0.0364,3.99183 -0.0937,4.10157 l -0.37304,1.31054 -0.41016,1.44727 -0.002,0.22461 -0.008,0.0293 v 0.0957 l -0.008,0.0293 -0.0117,1.91796 -0.0664,5.13672 -0.0508,4.01367 c -0.0287,1.21237 -0.0483,3.46367 -0.0801,3.53516 l -0.32617,1.08203 -0.36133,1.19531 -0.004,0.45313 -0.0605,0.26367 v 0.0566 9.94922 l -0.01,1.625 -0.0195,3.36914 c -0.0164,4.42498 -0.0366,8.99633 -0.0918,9.11133 l -0.35937,1.31055 c -0.0298,0.12279 -0.0427,0.12583 -0.0723,0.25586 l -0.0117,0.0488 -0.31054,1.13868 v 0.23632 l -0.006,0.0254 -0.008,22.5918 -0.004,11.49219 -0.006,11.26953 0.0137,0.0586 v 0.0664 l 0.17773,0.69141 0.13868,0.58789 c 0.28639,1.21789 0.41417,1.51969 0.95898,2.29297 0.43759,0.62109 0.95063,1.08054 1.51758,1.47461 0.0107,0.007 0.0146,0.0179 0.0254,0.0254 0.0875,0.0609 0.14334,0.0778 0.2207,0.1289 0.24284,0.15002 0.47423,0.31596 0.75196,0.4336 0.088,0.0366 0.25587,0.0742 0.35546,0.10742 0.93317,0.33816 2.03006,0.5529 3.47852,0.63281 1.21251,0.0669 2.01334,0.19109 3.08594,0.47852 l 1.44922,0.38867 5.66211,0.002 c 0.0738,0 0.0648,0.002 0.14062,0.002 2.80206,8.6e-4 2.73708,0.0675 3.53516,0.10743 0.58269,0.0277 2.36146,0.0133 2.48437,0.0781 0.1574,0.10152 0.75802,0.31057 1.34375,0.4668 0.0261,0.007 0.0901,0.005 0.11524,0.0117 l 0.95507,0.26953 0.4043,0.002 0.31055,0.0723 h 9.71679 c 0.28087,0.002 0.23263,0.004 0.5293,0.006 l 2.14258,0.0156 c 4.81928,0.0123 8.8438,0.0358 8.9668,0.10352 l 0.54882,0.15039 c 0.30309,0.0919 0.54951,0.17681 1.04493,0.29101 l 0.10937,0.0254 1.04492,0.28711 h 0.20313 l 0.008,0.002 16.20899,0.006 h 0.14648 c 0.37647,1.3e-4 0.3343,0.002 0.69336,0.002 6.84297,0.007 10.98491,0.0152 13.17383,0.0449 2.00195,0.0326 2.5889,0.0859 3.01562,0.19141 0.19225,0.0476 0.92484,0.0555 1.24024,0.0859 0.76416,0.0808 3.58602,0.12862 8.19531,0.14063 1.87906,0.006 2.53612,0.0186 5.58008,0.0215 0,0 0.002,0 0.002,0 3.78206,0.004 4.76694,-0.01 6.81641,-0.0137 1.58173,-0.003 4.44156,0.004 5.27734,-0.01 2.03967,-0.0302 2.5293,-0.0925 3.0625,-0.2168 0.52296,-0.12206 0.99223,-0.18239 4.33399,-0.21484 3.50491,-0.0313 10.08986,-0.0332 23.0039,-0.0332 h 26.45508 l 1.07226,-0.25586 c 0.0112,-0.003 0.0785,-10e-4 0.0899,-0.004 l 1.11719,-0.25782 1.10156,0.25782 c 0.4345,0.10131 0.81119,0.0936 1.20703,0.13476 0.32624,0.0406 0.70978,0.1211 0.91602,0.1211 0.0106,0 0.0377,-0.01 0.0488,-0.01 0.0251,-5.3e-4 0.0529,0.007 0.0781,0.006 0.38927,-0.0117 0.84149,-0.13564 1.25781,-0.20898 0.26876,-0.0453 0.48372,-0.0376 0.78711,-0.10743 0.11431,-0.0263 0.12962,-0.0396 0.24024,-0.0664 0.0317,-0.008 0.0539,-0.005 0.0859,-0.0137 l 1.29297,-0.35352 c 0.11581,-0.0656 5.20966,-0.0876 10.88281,-0.10156 l 3.06836,-0.0176 1.41407,-0.008 h 11.66601 l 0.28711,-0.0664 0.42774,-0.002 1.07031,-0.28711 c 0.58648,-0.15681 1.18926,-0.36542 1.3457,-0.4668 0.0812,-0.0426 1.19516,-0.0273 1.41992,-0.0527 0.5616,-0.0677 0.8012,-0.13282 3.7793,-0.13282 0.26502,0 0.2507,-0.004 0.48828,-0.004 h 0.19336 l 4.30078,-0.002 1.15625,-0.29492 c 0.0522,-0.0121 0.0964,-0.0103 0.15234,-0.0234 0.9756,-0.22877 1.48565,-0.48461 2.26563,-1.01563 0.20419,-0.1442 0.32356,-0.19944 0.62695,-0.42773 0.0247,-0.0186 0.0361,-0.0361 0.0605,-0.0547 0.25988,-0.19081 0.32497,-0.21478 0.68945,-0.48633 0.036,-0.0268 0.0783,-0.091 0.11524,-0.12109 0.003,-0.003 0.008,-0.011 0.0117,-0.0137 0.30533,-0.25178 0.63,-0.59832 0.93164,-0.98437 0.01,-0.0117 0.0234,-0.0235 0.0332,-0.0352 0.41493,-0.53771 0.76962,-1.10253 0.89453,-1.51758 0.0895,-0.29739 0.30642,-0.75713 0.48242,-1.02343 0.22114,-0.33458 0.42383,-1.00888 0.59375,-1.72852 0.17102,-0.72429 0.26185,-1.47173 0.30274,-2.2207 0.0164,-0.3205 0.0225,-0.67976 0.004,-0.99805 -0.048,-0.68914 -0.16125,-1.43226 -0.33398,-2.21484 -0.007,-0.0264 -0.002,-0.0354 -0.01,-0.0625 l -0.35351,-1.28906 c -0.0691,-0.11981 -0.0935,-9.33073 -0.10547,-20.60547 l -0.0137,-4.5 -0.008,-2.625 v -21.54688 -0.0566 l -0.0645,-0.28125 -0.002,-0.43555 -0.28711,-1.06835 c -0.15611,-0.58141 -0.36247,-1.17123 -0.46484,-1.33399 -0.16447,-0.30468 -0.18946,-3.32242 -0.18946,-24.84961 V 267.5 v -24.39648 -0.0566 l -0.002,-0.008 v -0.20508 l -0.29688,-1.08789 -0.0156,-0.0645 c -0.072,-0.3126 -0.1139,-0.40074 -0.18359,-0.66016 l -0.25782,-0.93945 c -0.0376,-0.0701 -0.0389,-1.44492 -0.0605,-2.19141 l -0.0254,-2.26953 -0.0391,-3.75195 v -0.5625 l 0.84961,0.002 c 0.003,1e-5 0.0108,-0.002 0.0137,-0.002 h 0.0801 c 0.003,0 0.0102,-0.002 0.0137,-0.002 h 0.0156 c 0.0452,-1.3e-4 0.11759,-0.0241 0.16406,-0.0254 0.57466,-0.019 1.35799,-0.11479 2.10742,-0.29102 0.0529,-0.0124 0.0539,-0.031 0.10352,-0.043 8e-4,-1.9e-4 10e-4,2e-4 0.002,0 0.0155,-0.004 0.014,-0.008 0.0293,-0.0117 0.26983,-0.0657 0.37857,-0.17448 0.57422,-0.23632 0.39405,-0.12435 0.84211,-0.28689 1.1582,-0.47461 0.10115,-0.0632 0.23683,-0.0677 0.35156,-0.14649 0.47543,-0.32663 0.93288,-0.69153 1.01758,-0.8125 0.0847,-0.12097 0.3973,-0.3057 0.69336,-0.41015 0.29606,-0.10445 0.80133,-0.38296 1.12305,-0.61719 1.36078,-0.99071 3.02694,-2.06436 3.4082,-2.19727 0.47669,-0.16617 1.53702,-0.90074 2.10938,-1.46094 0.62058,-0.60738 1.29158,-1.14273 2.22851,-1.77539 0.69685,-0.47052 1.59555,-1.32945 2.36328,-2.15429 0.0559,-0.0616 0.0885,-0.0968 0.14258,-0.15821 0.0953,-0.10525 0.18979,-0.20596 0.27539,-0.30664 0.0369,-0.0467 0.0493,-0.0499 0.0859,-0.0977 0.12505,-0.15049 0.32544,-0.33483 0.41992,-0.4668 0.26191,-0.3658 0.55419,-0.92653 0.65039,-1.24609 0.0962,-0.31955 0.22601,-0.64576 0.28711,-0.72266 0.0611,-0.0768 0.27028,-0.79104 0.46485,-1.58789 0.4672,-1.91374 0.46703,-3.50232 0.002,-5.45703 -0.17088,-0.71819 -0.36935,-1.27236 -0.6211,-1.80664 -0.002,-0.003 -0.008,-0.029 -0.01,-0.0312 -0.11016,-0.12177 -0.19922,-0.27645 -0.19922,-0.34375 0,-6e-4 -0.004,-0.003 -0.004,-0.004 -0.17336,-0.30721 -0.49585,-0.7326 -0.76562,-1.07422 -0.20882,-0.25686 -0.36142,-0.46209 -0.67578,-0.80273 -0.0394,-0.0363 -0.11834,-0.17453 -0.14258,-0.1875 -0.14675,-0.0785 -0.23905,-0.16896 -0.26563,-0.22656 -0.0369,-0.0389 -0.0889,-0.0892 -0.12695,-0.12891 -0.0705,-0.1116 -0.33316,-0.40277 -0.73828,-0.79297 -0.59897,-0.57688 -0.76357,-0.75979 -1.14648,-1.14062 -0.0912,-0.089 -0.0864,-0.0987 -0.18164,-0.19141 -0.20562,-0.20014 -0.42471,-0.42534 -0.63672,-0.64258 -0.74896,-0.77738 -1.63329,-1.67395 -1.69336,-1.85351 -0.0193,-0.0412 -0.0916,-0.1036 -0.0996,-0.13672 -0.16126,-0.67086 -1.22745,-2.05986 -1.99414,-2.59766 -0.40073,-0.2811 -0.84749,-0.70143 -0.99219,-0.93555 -0.14469,-0.2341 -0.4631,-0.56275 -0.70703,-0.72851 -0.24393,-0.16575 -0.61923,-0.54824 -0.83594,-0.85156 -0.0286,-0.04 -0.20019,-0.1958 -0.25,-0.25586 -0.24272,-0.30131 -0.51251,-0.63104 -0.62695,-0.70899 -0.15108,-0.10289 -0.32016,-0.26412 -0.37696,-0.35742 -0.0108,-0.0178 -0.13128,-0.13204 -0.16406,-0.16992 -0.10476,-0.10498 -0.13208,-0.15244 -0.23828,-0.25586 -0.12123,-0.11806 -0.19121,-0.19338 -0.31641,-0.31641 -0.0668,-0.0649 -0.0747,-0.0823 -0.14453,-0.14843 -0.0955,-0.0905 -0.21488,-0.21263 -0.32812,-0.32227 -0.43399,-0.43155 -0.95357,-0.94074 -1.14453,-1.14258 -0.13625,-0.14401 -0.25486,-0.24928 -0.4043,-0.39844 -0.0165,-0.0175 -0.0357,-0.0347 -0.0527,-0.0527 -0.0126,-0.0124 -0.0208,-0.0229 -0.0332,-0.0352 -0.0964,-0.0978 -0.27529,-0.282 -0.30859,-0.31445 -0.30274,-0.31357 -0.63313,-0.65989 -0.82617,-0.84766 -2.22557,-2.16489 -4.30043,-4.37544 -4.41602,-4.70703 -0.23637,-0.67802 -1.24608,-1.96722 -1.88086,-2.40039 -0.23996,-0.16374 -0.44432,-0.38261 -0.63672,-0.58203 -0.16294,-0.16483 -0.29286,-0.28785 -0.45898,-0.47656 -0.0534,-0.0624 -0.13164,-0.16965 -0.15625,-0.18945 -0.002,-0.002 -0.0119,-0.0143 -0.0137,-0.0156 -0.004,-0.003 -0.0296,-0.0398 -0.0352,-0.0449 -0.0724,-0.0672 -0.25989,-0.2968 -0.46484,-0.58008 -0.005,-0.008 -0.0197,-0.0158 -0.0254,-0.0234 -0.003,-0.004 -0.007,-0.01 -0.01,-0.0137 -0.0114,-0.0157 -0.0529,-0.0454 -0.0664,-0.0625 -0.23145,-0.28859 -0.58578,-0.64633 -0.88086,-0.85937 -0.0282,-0.0211 -0.0682,-0.0862 -0.0957,-0.10547 -0.24738,-0.17383 -0.43298,-0.36739 -0.59765,-0.53907 -0.10218,-0.10433 -0.20174,-0.19568 -0.29102,-0.28906 -0.009,-0.01 -0.0905,-0.092 -0.10156,-0.10351 -0.27908,-0.36844 -0.71069,-0.8683 -1.20703,-1.3418 -0.22544,-0.21505 -0.65107,-0.64085 -0.94532,-0.94727 -0.29425,-0.30641 -0.71987,-0.73204 -0.94531,-0.94531 -0.22543,-0.21326 -0.64911,-0.63595 -0.94336,-0.93945 -0.4863,-0.50159 -1.34225,-1.35287 -2.07617,-2.08008 -0.34239,-0.35759 -0.62424,-0.65138 -0.85547,-0.90234 -0.68706,-0.6969 -1.22815,-1.26172 -1.32617,-1.51953 -0.19717,-0.51859 -0.92498,-1.42651 -1.53711,-2.01758 -0.0324,-0.0291 -0.0939,-0.14608 -0.11719,-0.16016 -0.0475,-0.0287 -0.10543,-0.0913 -0.15429,-0.12305 -0.0299,-0.0244 -0.0712,-0.0804 -0.0996,-0.10156 -0.13102,-0.0978 -0.23007,-0.16995 -0.36914,-0.27344 -0.1201,-0.10086 -0.16886,-0.16493 -0.27149,-0.2539 -0.82786,-0.65285 -1.1813,-0.94743 -1.93555,-1.92969 -0.14141,-0.18417 -0.30704,-0.29135 -0.50976,-0.51953 -0.22902,-0.25308 -0.40448,-0.44166 -0.58984,-0.62891 -0.18578,-0.1994 -0.29261,-0.34588 -0.47266,-0.52929 -0.0731,-0.0745 -0.40157,-0.40759 -0.50586,-0.51368 -0.16082,-0.11061 -0.42089,-0.37499 -0.62891,-0.66796 -0.054,-0.076 -0.30555,-0.31887 -0.41406,-0.44532 -0.18534,-0.21763 -0.40455,-0.5028 -0.49219,-0.5625 -0.0898,-0.0611 -0.14917,-0.13725 -0.22461,-0.21289 -0.24299,-0.25442 -0.35514,-0.40794 -0.61132,-0.6582 -1.46903,-1.43504 -1.54973,-1.51638 -3.75586,-3.75391 l -1.54102,-1.5625 v -0.49609 l 0.0137,-1.71875 0.0254,-3.11133 0.0254,-2.76953 c 0.0215,-0.90543 0.0225,-2.61664 0.0606,-2.68945 l 0.24219,-0.88672 c 0.0744,-0.27284 0.12089,-0.377 0.19922,-0.7168 l 0.0195,-0.0859 0.29297,-1.06836 v -0.20312 l 0.002,-0.008 v -0.0586 -8.46093 c 0.001,-7.5558 0.026,-8.78173 0.19141,-9.10157 0.12383,-0.23945 0.22501,-0.74327 0.33593,-1.16797 0.0483,-0.1747 0.074,-0.21763 0.1211,-0.40234 0.003,-0.0131 6.1e-4,-0.0202 0.004,-0.0332 0.19483,-0.89921 0.33982,-1.87613 0.34766,-2.7168 9e-5,-0.0209 0.006,-0.0315 0.006,-0.0527 v -0.0117 c 1e-5,-0.006 0.002,-0.0138 0.002,-0.0195 v -0.0762 c 10e-6,-0.005 0.002,-0.0129 0.002,-0.0176 v -0.043 -1.25 l 1.35351,0.002 c 0.006,1e-5 0.0114,-0.002 0.0176,-0.002 h 0.0781 c 0.0116,0 0.0178,-0.004 0.0293,-0.004 1.08811,-0.002 1.74918,-0.0737 2.77344,-0.31445 0.0155,-0.004 0.0217,-0.01 0.0371,-0.0137 0.13043,-0.0317 0.21145,-0.0871 0.33594,-0.12305 0.66629,-0.1816 1.25293,-0.42182 1.75,-0.75195 0.0244,-0.0171 0.0722,-0.0236 0.0957,-0.041 0.16633,-0.12288 0.37435,-0.35221 0.55664,-0.50781 0.26992,-0.23108 0.50513,-0.37034 0.83008,-0.70117 0.12459,-0.12685 0.13128,-0.16489 0.24414,-0.28125 0.3731,-0.38195 0.66854,-0.74828 1.00781,-1.1543 0.33189,-0.39191 0.77394,-0.91927 0.96875,-1.26172 0.0421,-0.0709 0.0604,-0.18666 0.0977,-0.25781 0.0102,-0.0202 0.0175,-0.0481 0.0273,-0.0684 0.13218,-0.25368 0.28,-0.6332 0.38672,-1 0.0684,-0.22734 0.17596,-0.36163 0.24414,-0.63672 l 0.375,-1.51172 v -0.041 l 0.002,-0.008 v -0.15625 -0.0801 -0.0391 l 0.002,-0.008 -0.002,-1.94531 0.002,-3.99805 v -6.072265 l -0.008,-0.0332 v -0.21875 l -0.29101,-1.134766 c -0.0116,-0.04986 -0.009,-0.102627 -0.0215,-0.15625 -0.0444,-0.189136 -0.10223,-0.220512 -0.14453,-0.376953 -0.14197,-0.552941 -0.31398,-0.993941 -0.51367,-1.335937 -0.0502,-0.08657 -0.0708,-0.248109 -0.12891,-0.333985 -0.0398,-0.05876 -0.1083,-0.117144 -0.15039,-0.175781 -0.005,-0.0073 -0.006,-0.01803 -0.0117,-0.02539 -0.11797,-0.160092 -0.26783,-0.289874 -0.39063,-0.439453 -0.27942,-0.337834 -0.54041,-0.676733 -0.90039,-1.013672 -0.0874,-0.08177 -0.22693,-0.175609 -0.32031,-0.257812 -0.47326,-0.41889 -0.95985,-0.837508 -1.56446,-1.261719 -1.32644,-0.93067 -1.44629,-0.986122 -2.79101,-1.298828 -1.04538,-0.243101 -1.98409,-0.35581 -3.66797,-0.4375 -1.8869,-0.09153 -2.46099,-0.167751 -3.45899,-0.458984 -0.62415,-0.182139 -1.10627,-0.267346 -1.84374,-0.324219 -0.44795,-0.04937 -1.24922,-0.07695 -2.09766,-0.08398 -0.28027,-0.0078 -0.31522,-0.01866 -0.6582,-0.02734 -3.27677,-0.08297 -3.45395,-0.100642 -4.84961,-0.478516 l -0.29493,-0.08008 -0.0156,-0.0039 -1.13867,-0.306641 h -0.19336 l -0.0176,-0.0039 h -0.0586 -10.29297 l -10.35157,-0.002 -0.008,0.002 h -0.17578 l -0.0254,0.0059 h -0.043 l -0.5039,0.128906 -0.80079,0.1875 c -1.30827,0.306776 -1.43764,0.367836 -2.78125,1.310547 -0.0561,0.03939 -0.0666,0.0667 -0.12109,0.105469 -0.70957,0.508514 -1.23248,0.916909 -1.65039,1.310547 -0.009,0.008 -0.015,0.01939 -0.0234,0.02734 -0.18198,0.172863 -0.33777,0.387576 -0.5,0.572265 -0.18282,0.206816 -0.42554,0.439168 -0.57031,0.652344 -0.0148,0.01987 -0.03,0.03054 -0.0449,0.05078 -0.0162,0.02192 -0.0177,0.05672 -0.0332,0.07813 -0.17342,0.270577 -0.34958,0.543683 -0.47657,0.841797 -0.0488,0.114374 -0.10661,0.319573 -0.15039,0.457031 -0.0959,0.277096 -0.20306,0.537481 -0.27734,0.853516 -0.0117,0.04981 -0.0106,0.09797 -0.0215,0.144531 l -0.29101,1.146485 v 0.220703 l -0.008,0.0332 v 5.98438 5.98437 l 0.008,0.0332 v 0.2168 l 0.29101,1.13867 c 0.0115,0.0495 0.009,0.10113 0.0215,0.1543 0.0375,0.15942 0.0947,0.18039 0.1289,0.3125 0.18326,0.72842 0.37025,1.18795 0.6875,1.66992 0.0451,0.0695 0.0434,0.1583 0.0957,0.23438 0.03,0.0436 0.0582,0.0596 0.0898,0.10351 0.002,0.003 0.002,0.007 0.004,0.01 0.33617,0.46732 0.64921,0.84961 0.69531,0.84961 0.0121,0 0.10034,0.0861 0.13477,0.10937 0.0116,0.009 0.0383,0.0493 0.0488,0.0566 0.20938,0.14652 0.44454,0.35347 0.52344,0.46094 0.0362,0.0493 0.24335,0.13343 0.32031,0.20117 0.0381,0.0316 0.0767,0.0588 0.11524,0.0898 0.67444,0.54252 1.386,1.01235 1.86328,1.14843 0.003,6.6e-4 0.011,0.009 0.0137,0.01 0.006,0.001 0.0174,0.008 0.0234,0.01 0.002,4.7e-4 0.006,0.003 0.008,0.004 0.0226,0.007 0.0679,0.0495 0.0879,0.0547 0.30705,0.0799 0.7466,0.28944 0.97656,0.46484 l 0.41211,0.31445 v 1.14844 l -0.002,1.22071 c -0.005,2.0364 -0.0213,2.34782 -0.15625,2.20703 l -0.21484,-0.29883 c -0.20831,-0.28756 -0.42362,-0.52344 -0.47852,-0.52344 -0.11671,0 -1.17814,-1.01645 -2.17578,-2.08398 -0.0151,-0.0162 -0.0332,-0.0341 -0.0488,-0.0508 -0.10086,-0.10201 -0.34808,-0.35454 -0.3789,-0.38477 -0.30261,-0.3129 -0.6291,-0.65517 -0.83204,-0.84961 -0.30711,-0.29425 -0.73204,-0.71987 -0.94531,-0.94531 -0.21326,-0.22544 -0.63889,-0.65107 -0.94531,-0.94531 -0.30642,-0.29425 -0.73118,-0.71792 -0.94336,-0.94336 -0.21217,-0.22544 -0.72136,-0.72336 -1.13281,-1.10547 -0.41144,-0.38211 -1.03595,-1.00662 -1.38672,-1.38672 -0.0229,-0.0248 -0.0537,-0.0539 -0.0781,-0.0801 -0.34911,-0.37451 -0.83172,-0.86951 -1.11914,-1.14453 -0.3075,-0.29425 -0.73204,-0.71987 -0.94531,-0.94531 -0.21327,-0.22544 -0.63889,-0.65108 -0.94531,-0.94532 -0.30642,-0.29425 -0.735,-0.71987 -0.95117,-0.94531 -0.8361,-0.872 -2.22218,-2.16077 -2.67969,-2.49219 -0.15618,-0.11313 -0.43436,-0.37016 -0.6875,-0.59179 -0.25405,-0.22005 -0.48182,-0.42216 -0.77149,-0.68946 -0.30523,-0.29118 -0.64422,-0.61626 -0.82226,-0.78515 -0.24252,-0.23004 -0.81021,-0.6684 -1.26172,-0.97461 -0.48095,-0.32617 -2.5462,-2.276833 -4.98633,-4.708986 -1.18272,-1.178855 -1.58569,-1.548142 -2.46094,-2.402344 -0.0614,-0.0605 -0.44791,-0.45144 -0.85937,-0.867188 -0.20928,-0.211462 -0.43628,-0.408962 -0.68359,-0.640624 -0.13873,-0.13056 -0.70891,-0.699834 -0.76172,-0.744141 -0.33041,-0.277165 -0.75337,-0.66019 -0.93946,-0.849609 -0.45384,-0.461977 -1.91239,-1.482422 -2.11914,-1.482422 -0.0909,0 -0.54841,-0.388471 -1.01562,-0.863282 -0.46721,-0.474811 -1.34868,-1.207795 -1.95899,-1.628906 -1.0015,-0.691039 -1.24391,-0.797592 -2.49023,-1.089844 -0.37734,-0.08848 -0.81638,-0.07621 -1.2207,-0.130859 -0.45541,-0.06663 -0.90241,-0.129617 -1.36914,-0.150391 -0.20461,-0.0084 -0.38398,-0.06615 -0.58985,-0.06641 z m 1.03906,42.070312 c 0.086,-0.0188 0.16786,0.0308 0.26368,0.0879 l 0.12304,0.0918 c 0.18972,0.15057 0.68894,0.73461 1.1875,1.40625 0.0114,0.0153 0.0161,0.0143 0.0273,0.0293 0.20229,0.26822 0.40687,0.5798 0.60937,0.80274 0.0363,0.0465 0.13526,0.18613 0.15625,0.21094 0.0551,0.0651 0.26492,0.17106 0.39844,0.28125 0.22171,0.2 0.43905,0.43688 0.66797,0.59179 0.50937,0.3447 0.92456,0.68385 1.25586,1.00391 0.0969,0.10111 0.12097,0.14164 0.21875,0.26172 0.21975,0.24765 0.43462,0.49659 0.5039,0.69531 0.24483,0.70235 1.28758,1.99611 2.02539,2.51367 0.4704,0.32996 0.94788,0.82713 1.3418,1.39844 0.33612,0.48751 0.78282,1.00459 0.99219,1.14844 0.30559,0.20995 3.27922,3.17892 5.30273,5.29297 0.21367,0.22323 0.6393,0.65125 0.94532,0.95117 1.29686,1.27108 1.74667,1.77925 2.47265,2.79492 0.21945,0.307 0.43482,0.41505 0.62305,0.62695 0.23496,0.2615 0.48071,0.52137 0.74023,0.74219 0.11847,0.091 0.18979,0.23694 0.33008,0.33203 0.45008,0.30509 0.79734,0.60577 1.12305,0.89844 0.28947,0.27102 0.48265,0.47605 0.65429,0.72852 0.10454,0.14546 0.27999,0.31621 0.32227,0.4375 0.26546,0.76151 1.25106,1.96315 2.07227,2.52929 0.53186,0.36668 0.99086,0.82788 1.36132,1.36524 0.3074,0.4459 0.79734,0.97453 1.08985,1.17578 0.26091,0.1795 0.57913,0.49469 0.78711,0.74414 0.0793,0.0931 0.19106,0.16844 0.24804,0.25195 0.22104,0.32393 0.54026,0.66165 0.70899,0.75196 0.12965,0.0694 0.19161,0.13866 0.23633,0.19726 0.0533,0.0565 0.18153,0.18444 0.24218,0.24805 0.11401,0.14776 0.30491,0.37123 0.67774,0.73437 0.46772,0.45557 0.93512,0.92268 1.03906,1.03711 0.10394,0.11443 0.52151,0.5249 0.92774,0.91406 0.0617,0.0591 0.14426,0.14439 0.21484,0.21289 0.4569,0.45185 0.5594,0.58527 1.01758,1.03126 0.30229,0.29424 0.72577,0.71987 0.93945,0.94531 0.21367,0.22543 0.62138,0.63495 0.90625,0.91211 0.0697,0.0678 0.42112,0.42216 0.57031,0.57031 2.32936,2.35513 4.59221,4.6443 4.66407,4.85156 9.1e-4,0.003 0.009,0.0104 0.01,0.0137 0.16198,0.67387 1.22879,2.05924 2.00195,2.60157 0.48131,0.33763 0.96963,0.84784 1.41407,1.47851 0.23457,0.33287 0.48661,0.55162 0.74414,0.81446 0.0885,0.0878 0.21968,0.28451 0.27929,0.32226 0.0214,0.0135 0.0561,0.0552 0.0801,0.0723 0.021,0.016 0.0613,0.0755 0.0801,0.0879 0.27752,0.18366 0.73537,0.64728 1.01758,1.02929 0.2822,0.38201 0.56415,0.69532 0.62695,0.69532 0.096,0 3.06701,2.93728 4.35938,4.31054 0.21326,0.22661 0.63889,0.65302 0.94531,0.94727 0.30642,0.29424 0.73204,0.71987 0.94531,0.94531 0.21327,0.22543 0.64896,0.66475 0.96875,0.97656 1.07225,1.04551 1.54385,1.57031 2.03906,2.26758 0.62668,0.88237 1.28091,1.57419 1.79883,1.90235 0.2238,0.14179 0.71483,0.69553 1.0918,1.23046 0.29677,0.42112 0.61814,0.7009 0.92773,0.98829 0.0331,0.0302 0.0916,0.11722 0.11914,0.13867 0.0435,0.0338 0.13298,0.14541 0.1836,0.1875 0.0247,0.0183 0.0583,0.0697 0.082,0.0859 0.022,0.015 0.0306,0.033 0.0527,0.0488 0.76845,0.66147 1.83775,1.76939 2.56641,2.59961 0.14077,0.16959 0.28022,0.27467 0.39648,0.4375 0.39756,0.55675 0.91219,1.18079 1.14258,1.38867 0.2304,0.20787 0.65603,0.63077 0.94532,0.93946 0.28929,0.30867 1.14989,1.1771 1.9121,1.92968 0.7622,0.75258 1.58366,1.56741 1.82618,1.81055 0.50815,0.50945 1.75983,1.76032 3.17187,3.17188 2.71672,2.74736 4.71339,4.79844 5.04688,5.24804 0.14334,0.18814 0.62775,0.64569 0.66211,0.74219 0.0531,0.22925 0.34751,0.69471 0.7539,1.21875 0.16765,0.22063 0.30767,0.33597 0.48242,0.52735 0.21341,0.23776 0.45243,0.55356 0.60352,0.6621 0.33546,0.24101 0.76072,0.66637 0.94531,0.94532 0.11145,0.1684 0.35804,0.36795 0.57227,0.57031 0.0684,0.0619 0.15103,0.18549 0.20312,0.2168 0.45378,0.27272 0.96476,0.85622 1.48438,1.49609 0.10444,0.13356 0.15171,0.11676 0.29101,0.30078 0.35533,0.46938 0.80225,0.97266 0.99414,1.11914 0.10622,0.0811 0.31001,0.26973 0.49024,0.42774 0.0882,0.079 0.11075,0.13269 0.21289,0.22265 l 0.50586,0.44531 c 0.0605,0.065 0.11933,0.12978 0.14844,0.24415 0.0339,0.16585 0.06,0.90455 0.0684,1.74218 6e-5,0.007 -7e-5,0.007 0,0.0137 v 0.25391 0.004 c 7e-5,0.0537 0.004,0.062 0.004,0.11328 -0.003,0.30202 0.002,0.66428 -0.006,0.85156 -0.002,0.0592 0.0378,0.22643 0.041,0.30274 0.0282,0.63513 0.10742,1.25325 0.25,1.85742 0.002,0.0104 0.003,0.0188 0.006,0.0293 0.0165,0.0732 0.003,0.15782 0.0215,0.23633 0.17259,0.73043 0.39829,1.45416 0.5,1.60938 0.12481,0.19051 0.13122,7.18069 0.14453,16.44531 0.003,2.59887 0.0391,0.69823 0.0391,4.58203 0,0.005 0,0.001 0,0.006 v 20.75195 0.0586 l 0.004,0.0176 v 0.19531 l 0.27539,1.0039 0.0352,0.14844 c 0.17312,0.75103 0.372,1.46368 0.4414,1.58399 0.0683,0.11835 0.0909,10.40094 0.10352,22.65039 l 0.0137,5.28906 0.01,3.75391 v 23.25195 0.0586 l 0.0605,0.26367 0.002,0.45118 0.36914,1.19726 0.32422,1.05469 c 0.0421,0.0794 0.045,2.62356 0.0664,4.07617 l 0.0195,3.65625 0.0391,6.90235 v 0.6875 h -11.36719 -0.0859 -11.45312 l -0.008,0.002 h -0.14257 l -0.0156,0.004 h -0.0449 l -0.51563,0.13086 -0.75781,0.17969 c -0.73394,0.17342 -1.49142,0.40716 -1.68164,0.51953 -0.31483,0.18629 -0.37047,0.18433 -0.64648,0.004 -0.003,-0.002 -0.003,0.002 -0.006,0 -0.17603,-0.11504 -0.6859,-0.22209 -1.0918,-0.33399 -0.24278,-0.0706 -0.35838,-0.12632 -0.61523,-0.18945 -0.004,-9.9e-4 -0.008,-9.6e-4 -0.0117,-0.002 -0.75813,-0.15623 -1.54582,-0.24515 -2.26172,-0.27344 -0.34137,-0.0105 -0.70376,0.0127 -1.04883,0.0371 -0.71291,0.0514 -1.38066,0.13416 -2.07617,0.28711 -0.015,0.004 -0.0279,0.002 -0.043,0.006 -0.16376,0.0418 -0.17444,0.0612 -0.32617,0.10351 -0.44249,0.11542 -0.96935,0.22764 -1.15235,0.34571 -0.302,0.16218 -2.28815,0.18931 -15.0996,0.18945 -0.0381,0 -0.007,0 -0.0449,0 H 326.4478 l -0.008,0.002 h -0.20312 l -1.44922,0.38086 c -0.79685,0.20914 -1.73168,0.42848 -2.07813,0.48828 -1.2096,0.20863 -2.87051,0.64598 -3.16015,0.83008 -0.3036,0.1637 -3.61189,0.18531 -25.64063,0.18555 -0.11358,0 -0.0221,0.002 -0.13672,0.002 -0.008,0 -0.002,0 -0.01,0 -10.54276,-10e-6 -8.99935,-0.0615 -12.75781,-0.0859 -4.87644,-0.0346 -12.87292,-0.0349 -12.97071,-0.10352 -0.13858,-0.0972 -0.73524,-0.30556 -1.32422,-0.46289 -0.0213,-0.006 -0.0809,-0.004 -0.10156,-0.01 l -0.9707,-0.27343 -0.44141,-0.002 -0.3125,-0.0723 h -11.43554 c -0.35045,-0.002 -0.28661,-0.004 -0.65821,-0.006 l -2.45898,-0.0156 c -5.70545,-0.0116 -10.4252,-0.0352 -10.54688,-0.10351 l -0.49218,-0.13477 c -0.29932,-0.0929 -0.5772,-0.18472 -1.09766,-0.30469 l -0.0723,-0.0176 -1.08007,-0.29493 h -0.20508 l -0.008,-0.002 h -6.68945 c -2.52941,-4.9e-4 -2.04759,-0.0612 -3.11523,-0.0801 -1.43576,-0.0239 -3.90968,-0.0168 -4.08008,-0.10742 -0.16057,-0.10199 -0.75471,-0.30864 -1.33789,-0.46289 -0.36344,-0.0961 -0.81404,-0.13538 -1.29492,-0.18164 -0.163,-0.016 -0.25841,-0.0565 -0.48047,-0.0684 -0.0355,-0.002 -0.10728,-0.004 -0.14453,-0.006 -0.72698,-0.0616 -2.21998,-0.094 -4.67188,-0.0957 -0.31228,-0.004 -0.3002,-0.009 -0.65039,-0.0137 l -1.7539,-0.0234 c -2.22382,-0.0163 -4.44292,-0.0357 -4.5586,-0.0957 l -1.31055,-0.35743 c -0.0359,-0.01 -0.0494,-0.002 -0.084,-0.0117 -0.83261,-0.1804 -1.68588,-0.30628 -2.4707,-0.34375 -0.003,-4e-5 -0.005,5e-5 -0.008,0 -0.0531,-7.9e-4 -0.0882,-0.0211 -0.14453,-0.0215 -0.0548,-4.3e-4 -0.0825,-0.0194 -0.14062,-0.0195 h -0.002 -0.0898 c -0.004,-1e-5 -0.0115,-0.002 -0.0156,-0.002 h -0.0273 -1.26562 l -0.0371,-0.33204 v -0.0781 c -1.1e-4,-0.0299 -0.0207,-0.10447 -0.0234,-0.14258 l -0.0332,-0.29687 c -0.0519,-0.46771 -0.0853,-1.0485 -0.0723,-1.29102 0.0113,-0.21049 0.0586,-8.46578 0.10352,-17.22266 0.008,-1.70084 0.0238,-0.80142 0.0312,-2.87304 l 0.0371,-10.37305 c 0.0286,-2.77701 0.0456,-8.82867 0.082,-8.90234 0.0213,-0.0431 0.10239,-0.36808 0.14648,-0.50977 l 0.23633,-0.8125 0.42383,-1.44922 0.002,-0.21875 0.008,-0.0332 v -0.10547 l 0.006,-0.0215 0.008,-2.91797 0.0586,-8.04102 0.043,-5.82422 c 0.0272,-1.93238 0.0407,-5.56364 0.0781,-5.64062 5.7e-4,-10e-4 0.003,-0.0124 0.004,-0.0137 l 0.32227,-1.05664 0.36523,-1.19727 0.004,-0.45312 0.0605,-0.26368 v -0.0566 -6.42187 l 0.0117,-1.3086 0.0254,-2.71875 c 0.0179,-2.75802 0.0326,-5.8139 0.0898,-5.92382 l 0.26953,-0.98633 c 0.0662,-0.24876 0.10423,-0.32566 0.17187,-0.61914 0.002,-0.009 0.002,-0.0166 0.004,-0.0254 l 0.30859,-1.12891 0.002,-5.89453 c 7.4e-4,-3.28519 0.0671,-3.36418 0.12109,-4.09766 0.0273,-0.3897 0.0112,-1.98102 0.0644,-2.08203 0.10151,-0.1574 0.31036,-0.75802 0.46485,-1.34375 0.10378,-0.3935 0.15174,-0.82037 0.19921,-1.35351 0.0102,-0.11305 0.0385,-0.17887 0.0469,-0.31641 0.003,-0.05 0.007,-0.15142 0.01,-0.20508 0.0573,-0.64404 0.0891,-1.95464 0.0918,-3.8418 0.005,-0.32553 0.0118,-0.33231 0.0176,-0.70703 l 0.0254,-1.69922 c 0.0176,-1.78726 0.0365,-3.68245 0.0937,-3.79296 l 0.35742,-1.31055 c 4.5e-4,-0.002 -4.4e-4,-0.002 0,-0.004 0.0328,-0.13273 0.05,-0.15413 0.082,-0.29297 0.0104,-0.0453 0.002,-0.10519 0.0117,-0.14843 0.24957,-0.97252 0.30187,-1.43482 0.30274,-3.74805 0.001,-2.19909 0.0393,-2.80118 0.1875,-3.02734 0.13333,-0.20348 0.25743,-0.77376 0.38281,-1.28321 0.027,-0.1 0.0399,-0.10295 0.0664,-0.20703 0.003,-0.0103 0.001,-0.0152 0.004,-0.0254 0.20503,-0.92906 0.36914,-1.98775 0.36914,-2.85156 v -1.38477 l 1.55664,-1.55859 c 0.83249,-0.83368 1.29017,-1.18591 1.60743,-1.37695 0.0724,-0.0414 0.28334,-0.26749 0.33984,-0.28516 0.67997,-0.17733 2.04175,-1.21943 2.57422,-1.97852 0.0845,-0.12039 0.10603,-0.11849 0.18359,-0.21875 0.2405,-0.27364 0.58884,-0.6298 1.01953,-1.04882 0.17055,-0.15288 0.21308,-0.16799 0.42578,-0.37305 0.52107,-0.50236 1.11172,-1.06102 1.3125,-1.24219 0.0243,-0.022 0.083,-0.0867 0.11329,-0.11523 0.0105,-0.0105 0.021,-0.017 0.0312,-0.0274 0.0834,-0.0842 0.3531,-0.35292 0.58984,-0.58984 0.12392,-0.12564 0.17565,-0.15408 0.29297,-0.27539 0.29425,-0.30424 0.71987,-0.72618 0.94531,-0.93945 0.14862,-0.1406 0.3983,-0.40527 0.62891,-0.64454 0.23515,-0.21812 0.44587,-0.4173 0.5957,-0.53906 0.22916,-0.20023 0.48307,-0.43489 0.61133,-0.46679 0.41395,-0.10297 1.12662,-0.65141 2.03906,-1.45704 0.0885,-0.0738 0.1523,-0.0889 0.23242,-0.16015 0.16912,-0.1504 0.7325,-0.70469 1.23438,-1.19922 0.14614,-0.14254 0.20995,-0.18616 0.36718,-0.3418 0.7529,-0.74529 1.21737,-1.09775 1.51563,-1.26172 0.0618,-0.033 0.21987,-0.20244 0.27148,-0.21875 0.58674,-0.1509 1.59889,-0.93675 2.23438,-1.64258 0.008,-0.0101 0.0335,-0.0195 0.041,-0.0293 0.28044,-0.36527 1.92732,-1.94224 3.29102,-3.26367 0.64886,-0.61837 1.2134,-1.1057 1.70898,-1.50196 0.0688,-0.0539 0.16412,-0.14746 0.23243,-0.19922 0.42893,-0.3291 0.55534,-0.50135 1.25976,-0.98632 0.33367,-0.22973 0.42803,-0.35103 0.71875,-0.57422 0.39254,-0.30619 1.11785,-0.78258 1.17969,-0.87696 0.11527,-0.17593 0.44413,-0.53095 0.73047,-0.78906 0.19769,-0.17821 0.58648,-0.55652 0.9375,-0.89648 0.34261,-0.32154 0.52757,-0.47339 0.76172,-0.66992 0.3481,-0.30372 0.73725,-0.64565 0.89648,-0.70118 0.69086,-0.24084 2.00325,-1.27203 2.49024,-1.95507 0.12262,-0.172 0.19748,-0.22945 0.3125,-0.36524 0.29122,-0.30783 0.53409,-0.57228 0.91992,-0.94726 0.0421,-0.0361 0.20097,-0.19498 0.2539,-0.24219 0.13628,-0.12513 0.15446,-0.11897 0.30664,-0.26563 0.90222,-0.86944 0.68718,-0.67191 1.06836,-1.04101 0.5521,-0.53131 0.63307,-0.56949 1.3711,-1.30078 0.17384,-0.17226 0.31986,-0.26832 0.50976,-0.44532 0.79098,-0.72778 1.73979,-1.56527 2.30664,-1.9707 0.25572,-0.1829 0.54086,-0.46412 0.84961,-0.7168 0.24754,-0.20593 0.86254,-0.63076 0.95313,-0.76367 0.0506,-0.0742 0.10032,-0.11271 0.1582,-0.17773 0.0856,-0.0807 0.21883,-0.17184 0.29102,-0.24414 0.004,-0.004 0.009,-0.007 0.0137,-0.0117 0.0308,-0.0301 0.0425,-0.0313 0.0742,-0.0625 0.61384,-0.60322 1.42825,-1.32891 1.81055,-1.61133 0.3823,-0.28243 0.69531,-0.56084 0.69531,-0.61914 0,-0.03 0.20903,-0.23474 0.33203,-0.37109 0.0972,-0.11697 0.41159,-0.42809 0.67578,-0.69336 0.16499,-0.15733 0.30343,-0.28858 0.45312,-0.43164 0.18358,-0.16469 0.36347,-0.33468 0.47852,-0.42188 0.20547,-0.17438 0.43091,-0.36133 0.49805,-0.36133 0.0289,0 0.17288,-0.14878 0.22656,-0.17187 0.16992,-0.0827 0.30787,-0.13027 0.53125,-0.28906 0.0937,-0.0666 0.52344,-0.50731 0.61523,-0.57813 0.38359,-0.3083 0.78543,-0.50682 0.90821,-0.6875 0.1667,-0.24533 0.55949,-0.62864 0.87304,-0.85156 0.31354,-0.22292 0.86912,-0.71917 1.23633,-1.10352 1.93268,-2.0229 2.70421,-2.74838 3.1836,-2.99414 0.51969,-0.26642 1.83203,-1.24552 1.83203,-1.36719 0,-0.0541 0.34998,-0.37858 0.77929,-0.7207 0.4293,-0.34213 1.20898,-1.04968 1.73243,-1.57226 0.52345,-0.52258 1.26343,-1.16744 1.64453,-1.4336 0.38111,-0.26617 0.83458,-0.63641 1.00781,-0.82226 0.17323,-0.18584 0.7839,-0.66388 1.35547,-1.0625 0.533,-0.37175 1.00658,-0.82103 1.26953,-1.14258 0.006,-0.008 0.0464,-0.0355 0.0508,-0.043 0.002,-0.003 0.008,-0.007 0.01,-0.01 0.0164,-0.0213 0.0744,-0.0604 0.0879,-0.0801 0.20811,-0.30249 0.56208,-0.67557 0.78711,-0.83007 0.12194,-0.0837 0.29586,-0.27442 0.43554,-0.38672 0.14367,-0.1214 0.27946,-0.23508 0.39649,-0.33399 0.1297,-0.10961 0.22011,-0.20705 0.35156,-0.32812 0.16658,-0.1591 0.30839,-0.24773 0.47266,-0.41992 0.21506,-0.22544 0.63912,-0.65107 0.94336,-0.94532 0.56388,-0.54534 0.74635,-0.75053 1.01757,-1.03125 0.0435,-0.0418 0.07,-0.0603 0.11329,-0.10156 0.50877,-0.49038 1.01228,-0.89849 1.48046,-1.30273 0.42063,-0.40623 0.49345,-0.52255 3.3379,-2.64258 0.31979,-0.23834 0.73043,-0.6571 0.9121,-0.93164 0.18168,-0.27453 0.64339,-0.72952 1.0254,-1.01172 0.27855,-0.20579 0.39541,-0.33328 0.50585,-0.45117 0.006,-0.01 0.0605,-0.0471 0.0605,-0.0527 0,-0.002 0.0249,-0.0213 0.0254,-0.0234 0.0128,-0.0174 0.10156,-0.0832 0.10156,-0.0918 0,-0.005 0.0524,-0.0536 0.0566,-0.0625 0.27284,-0.38792 1.75878,-1.83203 2.1289,-2.06445 0.082,-0.0592 0.20244,-0.17673 0.24805,-0.19336 0.44443,-0.16218 1.85217,-1.24513 2.04883,-1.57617 0.10984,-0.18488 0.54883,-0.57852 0.97656,-0.875 0.42774,-0.2965 1.0896,-0.8837 1.4707,-1.30469 0.63045,-0.69643 1.4056,-1.42537 2.30078,-2.28125 0.3712,-0.36452 0.80951,-0.80281 1.36914,-1.33789 0.29904,-0.28282 0.48832,-0.46415 0.72071,-0.68555 0.34409,-0.3016 0.90327,-0.84502 1.10351,-0.97656 0.17258,-0.13291 0.35778,-0.2997 0.47266,-0.34961 0.2882,-0.12521 0.57578,-0.3632 0.86523,-0.56836 0.0154,-0.0105 0.0178,-0.009 0.0332,-0.0195 0.009,-0.006 0.011,-0.01 0.0195,-0.0156 0.24626,-0.17857 0.47524,-0.34132 0.70703,-0.56445 0.22965,-0.20663 0.47467,-0.4929 0.68555,-0.78125 0.10505,-0.13433 0.23945,-0.24025 0.33398,-0.38086 0.20446,-0.30413 0.39426,-0.46923 0.61523,-0.72656 0.20447,-0.23084 0.4729,-0.60299 0.65821,-0.71875 0.11346,-0.076 0.24087,-0.17034 0.31054,-0.18555 z m 52.41797,60.51172 -1.16601,0.70312 c -0.47282,0.28542 -0.94342,0.66858 -1.41602,0.9668 -0.76775,0.48658 -1.26565,0.81801 -2.20703,1.45508 -0.14346,0.0962 -0.23946,0.14687 -0.37695,0.24023 -0.18681,0.12686 -0.3719,0.28333 -0.5586,0.41211 -0.27935,0.19269 -0.52512,0.36517 -0.80078,0.5586 -0.73067,0.51712 -1.42479,0.95656 -2.16211,1.50781 -0.009,0.007 -0.022,0.0146 -0.0312,0.0215 -0.74959,0.56185 -1.49579,1.18585 -2.24414,1.7793 -0.47571,0.3762 -0.94889,0.79285 -1.42383,1.18164 -1.05182,0.85672 -2.11873,1.6389 -3.14843,2.53906 -0.24696,0.21589 -0.84697,0.81978 -1.17383,1.1211 -1.03222,0.93396 -2.05748,1.95619 -3.08594,2.94922 -1.05153,1.01611 -2.10234,2.02501 -3.15039,3.10351 -0.37841,0.38924 -0.75496,0.79598 -1.13281,1.19336 -0.70441,0.74011 -1.41315,1.42588 -2.11524,2.19336 -0.18149,0.19632 -0.57422,0.58028 -0.72265,0.74609 -0.48793,0.54507 -0.96571,1.13561 -1.45117,1.69141 -0.0627,0.0714 -0.12483,0.14716 -0.1875,0.21875 -1.30955,1.50399 -2.61658,3.02125 -3.90821,4.60352 -0.1687,0.20667 -0.3355,0.42676 -0.5039,0.63476 -0.55082,0.67886 -1.09952,1.36887 -1.64844,2.06446 -0.2288,0.29 -0.45513,0.59577 -0.68359,0.88867 -0.81961,1.05139 -1.6389,2.10193 -2.45118,3.18554 -0.009,0.012 -0.0184,0.0251 -0.0273,0.0371 -0.98083,1.30904 -1.95367,2.6498 -2.92383,4.00586 -0.46227,0.64663 -0.92611,1.26925 -1.38672,1.92774 -0.33758,0.48218 -0.66957,0.99448 -1.00586,1.48242 -0.0314,0.0454 -0.0604,0.0834 -0.0918,0.1289 -0.0317,0.0459 -0.064,0.10243 -0.0957,0.14844 -1.27725,1.8587 -2.5462,3.75336 -3.80468,5.69532 -0.34287,0.52901 -0.67977,1.08561 -1.02149,1.62109 -1.12743,1.76803 -2.24032,3.60422 -3.35547,5.44336 -0.0905,0.14914 -0.18303,0.29181 -0.27343,0.4414 -0.23491,0.38993 -0.46867,0.7474 -0.70313,1.14063 -0.82762,1.38377 -1.64529,2.80313 -2.46484,4.22461 -0.45593,0.79192 -0.92364,1.53624 -1.37696,2.33984 -0.66364,1.175 -1.31613,2.39936 -1.97461,3.59961 -0.3677,0.6702 -0.74548,1.29489 -1.11132,1.97266 -0.49849,0.9235 -1.0007,1.94094 -1.50196,2.89258 -0.17519,0.33157 -0.34118,0.6634 -0.51562,0.99609 -0.3462,0.66259 -0.69105,1.32324 -1.03711,1.99609 -0.60266,1.16758 -1.22457,2.24861 -1.82227,3.4375 -0.21698,0.43161 -0.40544,0.8734 -0.62109,1.30664 -0.0248,0.0498 -0.0514,0.0927 -0.0762,0.14258 -0.20138,0.40572 -0.3826,0.83451 -0.58399,1.24414 -0.26568,0.53938 -0.50828,1.08019 -0.77148,1.6211 -1.19811,2.46594 -2.3704,4.90329 -3.50195,7.35937 -0.69979,1.52148 -1.38737,2.99288 -2.05469,4.49805 -0.33239,0.74533 -0.57441,1.33771 -0.89453,2.06836 -1.07256,2.45468 -2.01934,4.75152 -2.94336,7.0293 -0.44589,1.09648 -1.0008,2.29398 -1.41797,3.35937 -0.5079,1.29706 -0.95911,2.31387 -1.00586,2.26563 -0.082,-0.0999 -14.15922,-30.85172 -17.10742,-37.35938 -0.17098,-0.37232 -1.2389,-2.71338 -1.26563,-2.76953 l -0.20898,-0.47266 -19.14844,13.10742 c -5.61371,3.84253 -6.70966,4.62459 -10.22852,7.05274 -2.93457,2.01045 -7.53359,5.13865 -8.14648,5.56641 l -0.86523,0.60351 0.0684,0.0293 c -0.002,0.0524 0.0148,0.10351 0.0762,0.10351 0.11045,0 1.42687,0.69823 2.27148,1.09375 1.42183,0.68237 3.00035,1.45641 4.37695,2.23047 0.85094,0.48828 1.72338,1.06445 2.58594,1.60156 1.293,0.81027 2.54896,1.57044 3.96289,2.55664 0.16728,0.11621 0.34203,0.257 0.50977,0.375 1.66823,1.17656 3.34577,2.44647 4.98437,3.72852 1.11819,0.8785 2.33807,1.94917 3.50196,2.92188 2.00626,1.68217 4.02047,3.40795 6.07031,5.30664 0.46098,0.42793 0.93185,0.89009 1.39648,1.33007 2.57306,2.47154 5.39348,5.28539 8,7.98438 0.245,0.25789 0.49168,0.48225 0.73633,0.74219 0.25833,0.27269 0.55027,0.56632 0.80469,0.83789 0.10079,0.10811 0.20206,0.21386 0.30273,0.32226 2.89748,3.12188 5.7533,6.38767 8.53907,9.73047 3.36683,4.06149 7.49405,9.31859 10.28906,13.19141 0.22504,0.31182 0.2909,0.36556 0.45117,0.5664 0.0189,0.0297 0.27927,0.36672 0.2832,0.37696 0.0332,0.0866 0.0826,0.1582 0.10938,0.1582 8e-5,0 0.004,-0.006 0.004,-0.006 5e-5,2e-5 0.004,0.006 0.004,0.006 7e-5,0 0.01,-0.0175 0.01,-0.0176 7.1e-4,2e-4 0.0111,0.0136 0.0117,0.0137 1.8e-4,2e-5 0.004,0.004 0.004,0.004 0.009,-1.4e-4 0.23278,-0.44779 0.28906,-0.54297 0.0263,-0.044 0.0963,-0.18125 0.13086,-0.24219 0.23874,-0.4211 0.43791,-0.75369 0.9043,-1.67382 1.82211,-3.59479 4.07691,-7.61205 6.58398,-11.82618 0.66207,-1.1119 1.4566,-2.32622 2.16016,-3.47265 1.05396,-1.71767 2.19865,-3.4883 3.33008,-5.25781 0.53161,-0.82928 1.05225,-1.64562 1.59961,-2.48438 1.09772,-1.68809 2.16971,-3.35752 3.3164,-5.06055 0.22282,-0.33128 0.44938,-0.66056 0.67383,-0.99218 1.18581,-1.74879 2.42261,-3.49038 3.65039,-5.24219 1.48204,-2.11136 2.97184,-4.19886 4.4961,-6.28906 0.82975,-1.13662 1.64563,-2.27028 2.48437,-3.39453 1.42983,-1.91802 2.86346,-3.78283 4.30469,-5.64258 1.68691,-2.1805 3.35623,-4.27277 5.0293,-6.33399 1.43411,-1.76158 2.91673,-3.69161 4.31445,-5.33593 0.0384,-0.0452 0.0788,-0.0975 0.11719,-0.14258 1.09091,-1.28067 2.10447,-2.32817 3.17187,-3.53516 1.53071,-1.73362 3.03789,-3.40563 4.51367,-4.98242 0.99342,-1.05589 1.96482,-2.14392 2.95118,-3.15039 1.19027,-1.21504 2.28844,-2.20416 3.43359,-3.30469 1.02502,-0.98659 2.05721,-1.99557 3.04492,-2.88867 0.63217,-0.57482 1.31693,-1.24353 1.91016,-1.75781 0.53927,-0.46568 1.09509,-0.96962 1.62109,-1.4043 0.14611,-0.12093 0.29248,-0.24282 0.4375,-0.36133 0.26524,-0.21669 0.52915,-0.42989 0.79102,-0.63867 1.18701,-0.9446 2.33928,-1.81207 3.45117,-2.58789 0.25666,-0.17973 0.5149,-0.36242 0.76758,-0.5332 1.13977,-0.76719 2.2271,-1.42157 3.27929,-2 0.27071,-0.14502 0.50243,-0.29019 0.77735,-0.42969 1.19442,-0.61615 2.34248,-1.13229 3.41015,-1.48633 0.0606,-0.0201 0.0137,-0.0186 0.0684,-0.0371 l 1.08594,-0.35547 -0.004,-0.0117 h 0.002 l -0.0312,-0.084 -0.0371,-0.0996 c -10e-4,-0.003 0.0208,-0.007 0.0195,-0.01 -0.34312,-0.77402 -1.17554,-3.62182 -1.84766,-5.92382 -0.24583,-0.86626 -0.56151,-1.74098 -0.77148,-2.61719 -0.0198,-0.0805 -0.0392,-0.15834 -0.0586,-0.23828 -0.12454,-0.52499 -0.22125,-1.02984 -0.33204,-1.54297 -0.30481,-1.44105 -0.52118,-3.01694 -0.75,-4.5625 -0.14656,-1.03141 -0.31148,-2.04194 -0.41601,-3.11133 -0.19728,-2.06127 -0.29426,-4.27011 -0.32813,-6.63672 -0.009,-0.52128 -0.0278,-1.03433 -0.0273,-1.56055 -0.004,-0.94785 0.0158,-1.67776 0.0273,-2.53906 0.0262,-1.39686 0.0431,-2.80019 0.13477,-4.32812 0.004,-0.0736 0.007,-0.14301 0.0117,-0.2168 0.14478,-2.3658 0.4172,-5.40993 0.82812,-9.67578 0.0658,-0.67634 0.0722,-0.91248 0.14649,-1.66016 0.68772,-6.92226 1.0654,-11.28211 1.0664,-12.3125 v -0.3164 l 0.0293,-0.3711 -0.0293,0.0156 z m -20.54882,44.73242 c 0.0496,0.012 0.1885,0.68791 0.3125,1.5293 0.1251,0.84882 0.25526,1.71347 0.28906,1.92187 0.0192,0.11822 -0.0549,0.22086 -0.10938,0.32618 -0.1123,0.18309 -0.75298,0.76474 -1.6582,1.47851 -0.80271,0.62851 -1.83497,1.45133 -2.47461,1.98633 -0.25236,0.21108 -0.65393,0.56835 -1.00195,0.86719 -0.005,0.005 -0.016,0.0129 -0.0215,0.0176 -0.0799,0.0689 -0.14693,0.12709 -0.23047,0.19922 -0.58556,0.50497 -1.14677,0.98213 -1.63476,1.41602 l -0.37696,0.33398 c -0.0696,0.0612 -0.21957,0.19091 -0.27539,0.24024 -0.50674,0.44787 -0.71213,0.61729 -0.61718,0.40625 0.008,-0.0475 0.43141,-0.64869 0.52929,-0.81055 0.0171,-0.0258 0.0594,-0.0873 0.0781,-0.11523 1.94241,-2.87815 6.07821,-8.50017 6.75976,-9.22461 0.0431,-0.0404 0.42023,-0.57678 0.43165,-0.57227 z" />
    </g>
  </g>
</svg>
