<?xml version="1.0" encoding="UTF-8" standalone="no"?>
<svg
   xmlns:dc="http://purl.org/dc/elements/1.1/"
   xmlns:cc="http://creativecommons.org/ns#"
   xmlns:rdf="http://www.w3.org/1999/02/22-rdf-syntax-ns#"
   xmlns:svg="http://www.w3.org/2000/svg"
   xmlns="http://www.w3.org/2000/svg"
   xmlns:sodipodi="http://sodipodi.sourceforge.net/DTD/sodipodi-0.dtd"
   xmlns:inkscape="http://www.inkscape.org/namespaces/inkscape"
   version="1.1"
   id="svg247"
   width="173.44"
   height="287.04001"
   viewBox="0 0 173.44 287.04001"
   sodipodi:docname="housy_info.svg"
   inkscape:version="1.0.1 (1.0.1+r75)"
   inkscape:export-filename="/media/chemo/DATA/Coding/Sammel-App/Sammel-App/sammel_app/assets/images/housy_info.png"
   inkscape:export-xdpi="334.45001"
   inkscape:export-ydpi="334.45001">
  <metadata
     id="metadata253">
    <rdf:RDF>
      <cc:Work
         rdf:about="">
        <dc:format>image/svg+xml</dc:format>
        <dc:type
           rdf:resource="http://purl.org/dc/dcmitype/StillImage" />
        <dc:title />
      </cc:Work>
    </rdf:RDF>
  </metadata>
  <defs
     id="defs251" />
  <sodipodi:namedview
     pagecolor="#ffffff"
     bordercolor="#666666"
     borderopacity="1"
     objecttolerance="10"
     gridtolerance="10"
     guidetolerance="10"
     inkscape:pageopacity="0"
     inkscape:pageshadow="2"
     inkscape:window-width="1848"
     inkscape:window-height="1016"
     id="namedview249"
     showgrid="false"
     inkscape:zoom="1.9257968"
     inkscape:cx="-7.0140818"
     inkscape:cy="187.82254"
     inkscape:window-x="72"
     inkscape:window-y="27"
     inkscape:window-maximized="1"
     inkscape:current-layer="g257"
     inkscape:document-rotation="0" />
  <g
     id="g257">
    <path
       style="display:inline;fill:#800080;stroke-width:0.32"
       d="m 82.875,0.00195313 c -0.08906,0.00143762 -0.182524,0.10797257 -0.328125,0.31835937 -0.391424,0.56558898 -0.284144,8.5865018 0.123047,9.2167969 0.148128,0.2292907 0.4348,0.3623369 0.638672,0.2949218 C 84.041333,9.5897323 83.933257,1.4796832 83.181641,0.31054688 83.049273,0.10464736 82.964056,5.1549625e-4 82.875,0.00195313 Z m 20.17578,0.31835937 c -0.31862,0 -2.87168,3.1526254 -5.531249,6.8320313 -1.384883,1.9159236 -1.839843,2.8171464 -1.839843,3.6406252 0,1.996703 0.982291,1.061429 4.041015,-3.8496096 2.881707,-4.6268213 3.884927,-6.6230469 3.330077,-6.6230469 z M 71.103516,2.5292969 c -0.141144,0.033216 -0.192339,0.2313459 -0.119141,0.6113281 0.196908,1.0221742 2.965614,7.261819 3.753906,8.458984 0.833132,1.265265 1.421875,1.548662 1.421875,0.683594 0,-0.813122 -2.802967,-7.1843295 -3.785156,-8.6035155 C 71.820806,2.8789208 71.338755,2.4739368 71.103516,2.5292969 Z m -8.441407,8.6699221 c -1.124406,0 -0.494912,0.848089 2.716797,3.65625 1.726246,1.509348 3.277942,2.74414 3.449219,2.74414 0.171277,0 0.397832,-0.225537 0.503906,-0.501953 0.360413,-0.939222 -5.24699,-5.898437 -6.669922,-5.898437 z m 50.648441,3.242187 c -1.0932,0.05886 -6.67815,3.729883 -6.99219,4.677735 -0.28611,0.863517 1.05854,0.315663 3.76367,-1.53711 3.00544,-2.058468 3.74801,-2.738317 3.38477,-3.101562 -0.0301,-0.03007 -0.0834,-0.04299 -0.15625,-0.03906 z m -26.253909,2.38086 c -1.018973,-0.01166 -2.064002,0.07733 -3.142579,0.265625 -3.680012,0.642445 -5.84188,1.798083 -8.949218,4.78125 -2.141482,2.055909 -2.920242,3.073454 -3.9375,5.146484 -3.569974,7.275113 -1.809065,15.136549 4.845703,21.634766 2.145273,2.094807 5.456546,4.135464 7.486328,4.613281 0.528,0.124291 1.220117,0.460395 1.537109,0.746094 0.534585,0.481821 0.67711,0.462696 1.97461,-0.246094 1.196768,-0.653764 1.475049,-0.70091 1.921875,-0.330078 1.467321,1.217773 1.365592,3.684057 -0.173828,4.220703 -0.895882,0.312307 -0.897085,0.318684 -0.720703,2.609375 0.215484,2.798563 1.075894,4.463458 3.029296,5.853516 0.765379,0.544653 1.609047,1.077292 1.873047,1.183593 0.714848,0.287843 2.280965,-0.03978 2.908203,-0.607422 0.303274,-0.274458 0.83774,-1.172643 1.1875,-1.996093 0.573152,-1.349382 0.607063,-1.828536 0.345704,-4.845704 -0.159491,-1.841205 -0.395397,-3.451841 -0.525391,-3.580078 -0.129997,-0.128234 -0.942396,-0.277471 -1.804688,-0.332031 -1.250409,-0.07912 -1.693156,-0.26769 -2.185547,-0.929687 -0.571395,-0.768215 -0.580609,-0.916129 -0.136718,-1.978516 0.376742,-0.901667 0.742381,-1.22096 1.705078,-1.488281 0.674058,-0.187175 1.532453,-0.340837 1.908203,-0.341797 1.715494,-0.0045 6.753005,-8.175679 7.650395,-12.410156 1.26027,-5.946855 -0.35337,-12.069241 -4.160161,-15.785157 -4.274025,-4.171996 -8.221169,-6.133055 -12.636718,-6.183593 z m -29.216797,1.742187 c -0.308,-0.0027 -0.560547,0.109719 -0.560547,0.25 0,0.293395 1.964226,2.191838 3.324219,3.212891 1.069424,0.802901 2.117187,0.907014 2.117187,0.210937 0,-0.584714 -4.095112,-3.667028 -4.880859,-3.673828 z m 31.175781,11.253906 c 0.05903,-0.01164 0.104937,-0.0044 0.130859,0.02148 0.103686,0.103686 -0.652695,0.848067 -1.679687,1.654297 -1.777661,1.395533 -2.986328,1.854941 -2.986328,1.134765 0,-0.182252 0.683531,-0.624823 1.519531,-0.982422 0.836,-0.357598 1.842976,-0.952091 2.238281,-1.322265 0.29648,-0.277631 0.600246,-0.470928 0.777344,-0.50586 z m 24.277345,1.554688 c -0.98587,-0.02117 -2.00355,0.0346 -2.38672,0.181641 -0.60393,0.231751 -0.66859,0.966136 -0.10547,1.193359 0.22,0.08877 1.37484,0.17361 2.56836,0.1875 1.71034,0.01991 2.21225,-0.08451 2.36719,-0.488281 0.10812,-0.281763 -0.004,-0.63938 -0.25,-0.794922 -0.25382,-0.16072 -1.20749,-0.258125 -2.19336,-0.279297 z m -54.984376,0.474609 c -3.232822,-0.0069 -3.748614,0.06394 -3.839844,0.525391 -0.06032,0.305091 0.141667,0.597814 0.472656,0.683594 0.318048,0.08242 2.059617,0.165126 3.869141,0.185547 2.693523,0.03039 3.323383,-0.05081 3.478515,-0.455079 0.104225,-0.271591 0.09266,-0.592884 -0.02734,-0.71289 -0.120006,-0.120007 -1.899301,-0.222163 -3.953125,-0.226563 z M 90.009766,33.9375 c 0.156999,-0.01146 0.230468,0.08076 0.230468,0.273438 0,0.271552 -0.426833,0.648853 -2.845703,2.509765 -1.106931,0.8516 -1.583949,0.904413 -1.851562,0.207031 -0.211318,-0.550688 0.375936,-1.074131 1.21289,-1.082031 0.283798,-0.0027 1.060207,-0.436844 1.72461,-0.964844 0.773974,-0.615078 1.267632,-0.92426 1.529297,-0.943359 z m 0.367187,6.091797 c 0.09628,0.09628 -0.267631,0.778075 -0.808594,1.513672 -0.89673,1.219363 -1.5871,1.706114 -1.55664,1.097656 0.02059,-0.411363 2.180495,-2.796064 2.365234,-2.611328 z m -26.351562,2.210937 c -0.662839,0 -7.064453,4.939694 -7.064453,5.451172 0,0.848099 1.67295,-0.05042 5.382812,-2.888672 2.303108,-1.762006 2.82934,-2.5625 1.681641,-2.5625 z m 46.992189,3.212891 c -0.40103,3.9e-4 -0.61719,0.141811 -0.61719,0.429687 0,0.580734 1.27969,1.401601 3.31836,2.126954 3.72521,1.325428 4.22964,0.312353 0.70117,-1.408204 -1.55205,-0.756815 -2.73396,-1.149086 -3.40234,-1.148437 z m -38.882814,7.189453 c -0.231723,0.04792 -0.578274,0.273119 -0.980469,0.699219 -1.460487,1.54729 -4.59375,5.565825 -4.59375,5.890625 0,0.904902 4.000691,-3.050786 5.533203,-5.470703 0.498393,-0.786984 0.427219,-1.199005 0.04102,-1.119141 z M 46.230469,73.28125 c -6.078605,-0.0012 -11.686338,0.543376 -16.642578,1.617188 -3.256895,0.705631 -12.120364,3.589015 -12.820313,4.169921 -0.245775,0.203974 -0.447266,0.730495 -0.447266,1.169922 10e-7,0.439428 -0.50884,1.636202 -1.130859,2.660157 C 13.780567,85.217711 12.387767,88.264723 11.03125,92 c -1.4209441,3.912682 -4.3201451,10.39664 -7.6347656,17.07227 -1.5160966,3.05341 -2.7558594,5.81822 -2.7558594,6.14453 0,0.32631 -0.16857411,0.96295 -0.375,1.41601 -0.28709304,0.6301 -0.28709304,0.91212 0,1.19922 0.20642589,0.20642 0.375,0.73018 0.375,1.16406 0,0.54018 0.6009482,1.38081 1.90625,2.66602 1.8227949,1.79475 1.9614641,2.04821 3.1757812,5.78711 0.6984679,2.15059 1.6325892,5.35133 2.0761719,7.11133 1.3824941,5.48532 5.0019529,24.97877 5.0019529,26.9414 0,2.56623 1.025377,4.51357 2.828125,5.36914 0.73209,0.34745 1.332032,0.71922 1.332032,0.82422 -10e-7,0.105 -1.116469,0.36227 -2.480469,0.57227 -5.377292,0.82785 -9.8215497,2.93569 -12.4277346,5.89648 -1.65127543,1.87594 -2.16039607,3.49084 -1.75781252,5.56446 0.16567505,0.85335 0.38823928,4.28686 0.49414062,7.63086 0.10590138,3.344 0.3378575,7.00127 0.515625,8.12695 0.9329864,5.90795 3.3316726,9.08853 8.2421875,10.92578 l 1.775391,0.66406 3.539062,-0.6914 c 1.946478,-0.38094 4.16908,-0.9657 4.939453,-1.29883 1.929053,-0.83419 2.113153,-0.76911 1.345703,0.47265 -0.42748,0.69168 -0.666015,1.61666 -0.666015,2.58203 0,2.23211 1.498893,7.81309 2.498047,9.29883 1.31607,1.95718 1.418107,2.31245 1.699218,5.91993 0.144005,1.84799 0.35223,3.88656 0.462891,4.52929 0.147421,0.85624 -0.111062,2.22385 -0.96875,5.11914 -0.643806,2.17329 -1.253231,4.96867 -1.353516,6.21094 -0.17159,2.12557 -0.130287,2.31218 0.671875,3.17773 0.728606,0.78618 0.823385,1.11011 0.660157,2.22266 -0.127441,0.86863 -0.04428,1.49786 0.25,1.89453 0.418051,0.56349 0.518485,0.52777 1.93164,-0.69531 2.389736,-2.06831 3.093278,-2.08071 4.447266,-0.082 1.018212,1.50302 1.700053,1.69948 1.443359,0.41601 -0.253119,-1.2656 0.21546,-2.85777 1.128906,-3.83007 0.641482,-0.68281 0.730828,-1.11113 0.742188,-3.61524 0.0071,-1.56225 0.115443,-2.94357 0.242188,-3.07031 0.126749,-0.12675 0.633204,0.15578 1.125,0.62695 1.070633,1.02573 1.331723,1.0458 2.691406,0.2168 1.323574,-0.80684 2.343397,-0.80881 3.83789,-0.008 l 1.181641,0.63281 0.417969,-0.87305 c 0.230144,-0.48018 0.631258,-0.87304 0.890625,-0.87304 0.373004,0 0.472062,0.50204 0.476562,2.40039 0.0061,2.538 -1.190313,11.14922 -1.755859,12.63671 -0.858298,2.2575 0.04554,5.98807 1.845703,7.61719 0.562461,0.50902 0.688397,0.49273 2.224609,-0.29883 l 1.63086,-0.83984 0.919922,0.6543 c 0.50602,0.36032 1.452343,0.75478 2.103515,0.87695 1.076476,0.20195 1.212595,0.14706 1.503907,-0.61914 0.878562,-2.3108 0.983656,-4.82529 0.330078,-7.95508 -0.351382,-1.68264 -0.539607,-3.32408 -0.417969,-3.64648 0.33887,-0.89818 2.663768,-3.75767 3.253906,-4.00196 1.12632,-0.46626 3.444258,0.22988 4.763672,1.43164 1.375363,1.25271 0.533676,3.22257 -1.556641,3.64063 -1.246653,0.24933 -1.435456,0.78035 -0.951172,2.66992 0.329693,1.2864 0.290068,2.19038 -0.24414,5.79883 -0.348084,2.35123 -0.725466,5.09406 -0.839844,6.09375 -0.114377,0.99968 -0.415095,1.98935 -0.667969,2.19922 -0.592696,0.49189 -0.588295,1.60968 0.0098,2.40039 0.2584,0.34164 0.474869,0.99734 0.480469,1.45508 0.0056,0.45773 0.168108,1.28557 0.361328,1.83984 0.402086,1.15343 1.359435,1.35618 1.873047,0.39649 0.50609,-0.94565 2.370466,-1.94922 3.621093,-1.94922 0.895056,0 1.337391,0.23804 2.136719,1.14843 0.575108,0.655 1.198833,1.07532 1.451172,0.97852 0.24409,-0.0937 0.537532,-0.8601 0.654297,-1.70899 0.1164,-0.84624 0.348506,-2.0851 0.517578,-2.7539 0.225629,-0.89252 0.166696,-1.95659 -0.224609,-4 -0.716221,-3.7401 -0.375264,-5.04237 1.923828,-7.34375 1.45872,-1.46017 1.844146,-1.67969 2.943359,-1.67969 0.69558,0 1.437238,0.17161 1.648438,0.38281 0.530042,0.53004 0.476835,3.88257 -0.0957,6.01563 -0.598217,2.22874 -0.606776,4.28242 -0.02344,6.2207 0.794998,2.64158 2.038952,3.46221 2.814453,1.85938 0.396205,-0.81894 0.561039,-0.87896 2.392578,-0.87696 1.642144,0.002 2.106283,0.13052 2.796875,0.7793 1.006764,0.9458 1.342343,0.6733 1.554688,-1.26172 0.262548,-2.39244 0.916457,-3.83984 1.732422,-3.83984 0.857456,0 1.371093,0.86369 1.371093,2.30078 10e-7,0.58474 0.136633,1.53803 0.302735,2.11719 0.372317,1.29819 -0.257063,5.48166 -1.451172,9.64453 -0.561271,1.95668 -0.781464,3.35207 -0.673828,4.26367 0.169724,1.43743 0.994736,5.13653 1.355469,6.07422 h 0.002 c 0.289645,0.75291 0.863342,0.70594 1.435547,-0.11719 1.37079,-1.97193 1.652556,-2.20312 2.693359,-2.20312 0.854777,0 1.294379,0.27459 2.296875,1.43554 0.68185,0.78962 1.345307,1.43746 1.474609,1.43946 0.01002,1.8e-4 0.01476,-0.0353 0.02344,-0.0449 0.02787,0.0172 0.06011,0.0488 0.08008,0.0488 0.07761,0 0.142578,-0.14236 0.142578,-0.31836 0,-0.10373 -0.057,-0.19143 -0.138672,-0.25 v -0.002 c 0.0061,-0.33657 -0.01356,-0.79129 -0.06641,-1.29687 l -0.195313,-1.86915 1.160157,-0.71875 c 1.033597,-0.6388 1.160476,-0.8625 1.160156,-2.05078 -2.3e-4,-0.73364 -0.348229,-2.7732 -0.773437,-4.5332 -1.104859,-4.57313 -1.530895,-7.1366 -1.302735,-7.85547 0.385024,-1.2131 2.716797,-0.44872 2.716797,0.89063 0,1.19604 0.396248,2.64453 0.724609,2.64453 0.179351,0 0.773664,-0.49397 1.320313,-1.09766 1.417816,-1.56573 2.096236,-1.66058 3.556636,-0.5 1.2977,1.03128 2.43324,1.45639 3.1543,1.17969 0.6368,-0.24436 1.28146,-4.38276 1.19336,-7.66211 -0.07,-2.60556 -0.031,-2.79883 0.56055,-2.79883 0.76521,0 3.1799,2.64801 3.4707,3.80664 0.24889,0.99163 -0.75397,6.30774 -1.37695,7.30078 -0.593,0.9453 -0.56398,2.47517 0.0566,2.99024 0.86041,0.71408 1.41992,2.13398 1.41992,3.60742 0,2.314 1.19071,2.68231 1.70312,0.52734 0.36156,-1.52055 1.35971,-2.23242 3.12891,-2.23242 2.10719,0 2.63433,0.32052 3.68555,2.25195 0.57033,1.04789 1.05222,1.57582 1.3789,1.50782 0.29507,-0.0614 0.46295,-0.36375 0.40625,-0.73243 -0.47535,-3.08999 -0.44576,-3.63414 0.28321,-5.09374 l 0.74414,-1.48829 -0.55079,-2.7832 c -0.45888,-2.3176 -0.49575,-3.25561 -0.21874,-5.61133 0.18295,-1.55589 0.54813,-3.24852 0.8125,-3.75976 0.26437,-0.51124 0.96912,-2.38576 1.5664,-4.16602 1.03085,-3.07255 1.06317,-3.30172 0.63281,-4.52148 -0.94637,-2.68231 -0.35846,-4.08399 1.71289,-4.08399 0.9111,0 1.43942,0.266 2.45704,1.23828 0.71303,0.68126 2.19687,2.07036 3.29687,3.08789 1.9502,1.80394 2,1.8908 2,3.48243 0,1.7014 -1.02853,5.82736 -1.59375,6.39257 -0.49943,0.49943 -0.39084,1.41313 0.2832,2.3711 0.33553,0.47687 0.78218,1.62287 0.99219,2.54687 0.21002,0.924 0.52114,1.67969 0.69141,1.67969 0.17026,0 0.78622,-0.50314 1.36718,-1.11914 1.30093,-1.37938 1.93753,-1.3971 4.51758,-0.12695 1.10919,0.54606 2.15816,0.90507 2.33008,0.79883 0.17191,-0.10626 0.40884,-0.94924 0.52734,-1.87305 0.1185,-0.9238 0.37398,-2.13495 0.56641,-2.69336 0.27546,-0.79938 0.22285,-1.58357 -0.24219,-3.68164 -0.92609,-4.17807 -0.81082,-5.41291 0.70704,-7.56641 0.70423,-0.99916 2.10875,-3.395 3.11914,-5.32226 l 1.83593,-3.50391 -0.15234,-2.41602 c -0.0843,-1.32874 -0.3897,-4.35837 -0.67773,-6.73437 -1.53023,-12.62242 -6.64688,-71.76183 -6.24024,-72.12695 0.0704,-0.0632 3.44028,-0.27999 7.48828,-0.48243 4.048,-0.20244 8.35181,-0.51134 9.56446,-0.68554 5.46103,-0.78444 10.17806,-4.67464 12.20898,-10.07032 1.25952,-3.34622 1.1073,-4.58928 -1.10742,-9.01367 -1.9482,-3.89197 -3.37841,-5.66859 -7.3086,-9.07617 -1.6472,-1.42819 -1.67773,-1.4837 -1.67773,-3.23437 0,-1.39047 0.18517,-2.05605 0.83789,-3.02735 1.27467,-1.8968 2.90605,-3.8446 5.73047,-6.83984 3.1461,-3.33637 3.88867,-4.3694 4.66601,-6.4961 0.77494,-2.12012 0.7651,-3.13977 -0.0391,-4.1621 -0.84214,-1.0706 -2.54092,-1.61608 -5.11523,-1.64258 -1.95198,-0.0201 -2.20818,0.0667 -4.16016,1.40234 -2.93106,2.0055 -4.76845,3.78961 -8.25586,8.01367 -3.98801,4.83041 -6.85966,7.77987 -9.02344,9.26758 -0.968,0.66555 -2.50039,1.87648 -3.40625,2.69141 -1.8541,1.66799 -2.44534,1.80824 -3.14257,0.74414 -0.59885,-0.91398 -1.118,-5.64775 -1.125,-10.25781 l -0.006,-3.47461 1.58007,-1.73047 c 1.89417,-2.07252 3.81275,-5.53999 4.06836,-7.35352 0.18068,-1.28184 0.1222,-1.3834 -2.43164,-4.22851 -1.50976,-1.68196 -3.55094,-3.535046 -4.82617,-4.382816 -1.21558,-0.808112 -3.04286,-2.276243 -4.06055,-3.261719 -6.11139,-5.917897 -15.19524,-10.260006 -26.65039,-12.740234 -2.2,-0.476336 -5.25593,-1.278629 -6.791009,-1.78125 -6.058377,-1.983654 -11.202334,-3.00729 -22.330078,-4.44336 -4.136,-0.533763 -9.822672,-1.322406 -12.638672,-1.753906 -7.183331,-1.100717 -11.59137,-1.451825 -18.25,-1.453125 z m 2.855469,1.394531 c 0.460124,6.05e-4 0.876706,0.11318 1.166015,0.375 0.704409,0.637482 0.846807,2.362178 0.244141,2.964844 -0.84681,0.846809 -4.138412,-0.109753 -4.353516,-1.265625 -0.197693,-1.062303 1.562987,-2.076034 2.94336,-2.074219 z M 42.042969,75.25 c 1.635832,0.07983 1.982186,1.314084 0.597656,2.814453 -1.199827,1.300215 -2.284222,1.508397 -3.375,0.650391 -1.730985,-1.361591 -0.73984,-3.058294 2,-3.425782 0.285092,-0.03824 0.543653,-0.05047 0.777344,-0.03906 z m -6.148438,0.535156 c 0.870566,-0.07571 1.428193,1.060889 1.007813,2.84961 -0.255418,1.086793 -0.395119,1.214111 -1.419922,1.300781 -1.997619,0.168957 -2.415248,-1.32576 -0.90625,-3.244141 0.461804,-0.587088 0.922648,-0.871838 1.318359,-0.90625 z m 20.6875,0.05469 c 1.363168,0 1.903346,1.95017 0.835938,3.017578 -0.935856,0.935859 -3.658203,0.445947 -3.658203,-0.658203 0,-0.863588 1.789705,-2.359375 2.822265,-2.359375 z m 4.541016,0.722656 c 0.225944,-0.03809 0.483273,0.04045 0.904297,0.214844 0.864003,0.357881 1.316315,1.103426 1.328125,2.183594 0.0028,0.253679 -0.46048,0.398437 -1.267578,0.398437 -1.012918,0 -1.382525,-0.16707 -1.810547,-0.820313 -0.51232,-0.7819 -0.507065,-0.852307 0.128906,-1.488281 0.295115,-0.295115 0.490853,-0.450194 0.716797,-0.488281 z m -30.646485,0.306641 c 0.135804,0.02238 0.267721,0.136861 0.457032,0.326171 0.448213,0.448213 0.488489,0.796925 0.242187,2.072266 -0.255847,1.324762 -0.408872,1.544736 -1.134765,1.628906 -1.08458,0.12576 -1.970658,-0.734242 -1.699219,-1.65039 0.111833,-0.377456 0.620215,-1.113554 1.128906,-1.636719 0.54179,-0.557206 0.779521,-0.777543 1.005859,-0.740234 z m 38.019532,0.892578 c 1.084534,-0.0016 1.583984,0.552004 1.583984,1.757812 0,0.5456 -0.173565,1.165753 -0.384766,1.376953 -0.93393,0.933929 -4.095703,-0.171586 -4.095703,-1.43164 0,-0.590931 1.88997,-1.701525 2.896485,-1.703125 z m 7.115234,1.072265 c 0.591704,-0.02137 1.17574,0.0297 1.683594,0.169922 2.205068,0.608848 3.460779,2.672033 2.320312,3.8125 C 78.371631,84.060009 72,82.069436 72,80.4375 c 0,-0.833299 1.836216,-1.539413 3.611328,-1.603516 z m 7.732422,1.486328 c 0.667821,0 1.526599,1.410405 1.400391,2.300782 -0.153447,1.082519 -1.732468,1.220097 -2.201172,0.191406 -0.419012,-0.919632 0.08614,-2.492188 0.800781,-2.492188 z M 19.787109,80.67969 c 0.35893,0.04934 0.746225,0.304818 1.214844,0.773437 0.658247,0.658246 0.741045,0.903733 0.427735,1.28125 -0.580392,0.699331 -2.457053,0.597454 -2.859376,-0.154297 -0.428414,-0.800499 -0.423034,-0.842591 0.171876,-1.4375 0.355359,-0.35536 0.685992,-0.512227 1.044921,-0.46289 z m 25.123047,0.292968 c 1.224365,0.0019 2.791456,0.02936 4.791016,0.07422 9.839495,0.220759 12.775889,0.708515 33.818359,5.626953 4.488,1.049018 8.80761,2.010362 9.59961,2.134766 4.412554,0.693094 3.15175,2.041174 -3.75586,4.015625 -3.732986,1.067027 -7.608926,1.42742 -9.984375,0.927734 -0.781405,-0.164372 -4.309248,-1.228027 -7.839844,-2.363281 -9.587628,-3.08288 -12.746704,-3.955698 -16.978515,-4.691406 -10.020378,-1.742064 -13.919922,-3.092441 -13.919922,-4.820313 0,-0.683988 0.596437,-0.909882 4.269531,-0.904298 z m 44.892578,0.638672 c 0.759917,-0.09152 1.690294,0.850331 1.933594,2.34961 0.161097,0.992732 0.10116,1.156051 -0.414062,1.138671 -1.803879,-0.06079 -2.897145,-1.294118 -2.371094,-2.677734 0.194875,-0.512559 0.506146,-0.768948 0.851562,-0.810547 z m 7.59375,1.269531 c 1.352266,0 2.067284,0.557694 2.3125,1.806641 0.158758,0.808583 0.0817,1.040728 -0.394531,1.175781 -2.463744,0.698685 -3.955078,0.388903 -3.955078,-0.822265 0,-1.237056 0.871324,-2.160157 2.037109,-2.160157 z m -69.273437,1.326172 c 0.132622,-0.01257 0.26389,-0.01107 0.392578,0.0078 0.765055,0.112256 1.442146,1.52901 1.125,2.355468 -0.117074,0.305092 -0.604216,0.461733 -1.390625,0.445313 -1.6648,-0.03476 -2.009766,-0.227307 -2.009766,-1.115234 0,-0.799106 0.954456,-1.605364 1.882813,-1.69336 z m 78.115233,0.236328 c 0.55442,0.01595 0.98152,0.130195 1.13281,0.375 0.38249,0.618883 -0.14501,1.78625 -0.97851,2.166016 -1.71339,0.780675 -4.63281,0.20271 -4.63281,-0.917969 0,-0.835341 2.81525,-1.67089 4.47851,-1.623047 z m -71.664061,0.357422 c 0.758374,0 1.335728,1.043669 1.205078,2.175781 -0.08995,0.779491 -0.240626,0.871942 -1.541016,0.957032 C 32.811062,88.026983 32,87.632079 32,86.84375 c 0,-0.562839 1.865787,-2.042969 2.574219,-2.042969 z m 77.042971,1.023438 c 0.36766,0.04966 0.72482,0.383494 0.64258,0.810547 -0.059,0.306512 -0.33922,0.603543 -0.62305,0.658203 -0.60728,0.116989 -0.96875,-0.611708 -0.59961,-1.208985 0.13461,-0.217806 0.35948,-0.289562 0.58008,-0.259765 z m -72.025393,0.0059 c 0.159977,-0.04518 0.309774,0.03494 0.53125,0.21875 0.313014,0.259776 0.517578,0.91821 0.517578,1.669922 0,1.080928 -0.09348,1.238817 -0.720703,1.216797 -0.396,-0.01389 -0.899141,-0.09873 -1.119141,-0.1875 -0.594515,-0.239894 -0.484325,-1.533849 0.203125,-2.382813 0.258618,-0.319377 0.427914,-0.489981 0.587891,-0.535156 z m 8.138672,1.933594 c 1.002077,-0.02079 1.981479,0.237211 2.535156,0.738281 0.747373,0.676365 0.813553,2.23294 0.107422,2.503906 -1.203245,0.461728 -4.12233,-0.01641 -5.173828,-0.847656 -0.7912,-0.625475 -0.44106,-1.532898 0.789062,-2.046875 0.530409,-0.22162 1.140941,-0.335183 1.742188,-0.347656 z m 7.658203,1.498047 c 0.59157,0.01263 1.162534,0.120067 1.558594,0.332031 0.814157,0.435725 1.371638,2.13962 0.955078,2.917969 -0.179092,0.334633 -0.643395,0.605462 -1.033203,0.601562 -0.991325,-0.0098 -3.151057,-1.049078 -3.878907,-1.867187 -0.588787,-0.661808 -0.58872,-0.708015 -0.0293,-1.326172 0.398193,-0.44 1.441784,-0.67925 2.427734,-0.658203 z m 6.761719,1.435547 c 1.379124,-0.06356 2.881193,1.579675 2.36914,2.914062 -0.27975,0.729018 -3.05374,0.472057 -3.732422,-0.345703 -0.544973,-0.656653 -0.102536,-2.02718 0.785157,-2.431641 0.185707,-0.08461 0.381107,-0.127638 0.578125,-0.136718 z m 40.816409,0.24414 c 0.68527,0.129929 0.94475,1.83403 0.33789,2.21875 -0.66303,0.42032 -1.74726,0.326484 -2.17383,-0.1875 -0.31356,-0.377815 -0.22739,-0.624176 0.44922,-1.300781 0.45952,-0.459517 1.08283,-0.788089 1.38672,-0.730469 z m -4.337894,0.925782 c 0.374827,-0.03509 0.570313,0.09457 0.570313,0.390624 0,0.498073 -1.390747,2.45609 -2.146485,3.021485 -0.761117,0.569423 -3.292968,0.530557 -3.292968,-0.05078 0,-0.561226 1.606036,-1.934949 3.230468,-2.763672 0.710714,-0.362579 1.263846,-0.56257 1.638672,-0.597657 z m -30.248047,0.99414 c 1.233398,-0.119421 2.339844,0.835464 2.339844,2.019531 0,0.690608 -0.143445,0.798829 -1.048828,0.798829 -1.486093,-10e-7 -2.5327,-0.812306 -2.410156,-1.871094 0.08047,-0.69528 0.282951,-0.866306 1.11914,-0.947266 z m 53.083981,0.25 c 1.22247,0.04727 2.27339,0.313936 3.60743,0.767578 2.91647,0.991748 3.62446,1.466128 9.04101,6.054688 2.99668,2.538593 4.76698,4.307033 5.67969,5.673823 1.43564,2.14989 1.67737,2.98036 0.76758,2.64844 -1.12295,-0.40968 -4.18046,-2.50142 -8.60547,-5.88477 -2.48917,-1.90322 -5.62972,-4.140269 -6.97852,-4.972649 l -2.45312,-1.513672 -3.90235,0.414062 c -4.53573,0.480874 -8.43288,1.423534 -12.70117,3.074219 -1.672,0.64662 -4.91122,1.79487 -7.199217,2.55078 -5.706355,1.88526 -7.434053,2.72301 -9.175781,4.44922 -3.518374,3.48702 -7.638942,10.99733 -12.830078,23.38672 -1.843593,4.4 -3.437753,8.25254 -3.542969,8.56054 -0.13177,0.38574 -0.518907,0.55572 -1.242187,0.54492 -1.438469,-0.0215 -11.851938,-2.72318 -19.609376,-5.08593 -3.52,-1.07212 -10.289015,-3.11048 -15.041015,-4.5293 -4.752,-1.41882 -9.530939,-2.9238 -10.621094,-3.3457 -1.090154,-0.4219 -4.473685,-1.27938 -7.519531,-1.90625 -9.9134687,-2.04029 -12.8419925,-3.04706 -14.4589845,-4.96875 -0.9116841,-1.08347 -1.0566664,-1.58985 -0.4570313,-1.58985 0.8302058,0 12.3869968,3.14453 27.6171878,7.51367 8.8,2.52472 18.736078,5.33696 22.080078,6.25 3.344,0.91304 6.871844,2.03931 7.839844,2.50196 1.565283,0.7481 2.148807,0.84165 5.267578,0.84765 l 3.505859,0.008 0.972656,-1.64453 c 0.535296,-0.90405 1.442203,-2.41543 2.013672,-3.35938 0.571472,-0.94395 1.720466,-3.30033 2.552735,-5.23633 3.18279,-7.40373 8.400513,-16.95839 10.347656,-18.94531 4.27119,-4.35844 8.9743,-6.302833 25.419918,-10.511716 5.07661,-1.299242 7.58755,-1.830729 9.625,-1.751953 z M 90.630859,94.8125 c 0.07331,-0.0096 0.140615,1.44e-4 0.197266,0.03516 0.535088,0.3307 0.457788,1.661353 -0.130859,2.25 -0.276569,0.276573 -0.529127,0.490453 -0.560547,0.476563 -0.03143,-0.01389 -0.237032,-0.09678 -0.457031,-0.185547 -0.22,-0.08877 -0.400391,-0.422398 -0.400391,-0.740234 0,-0.706353 0.838364,-1.768761 1.351562,-1.835938 z m -14.742187,0.226562 c 0.668774,0 1.871094,1.467552 1.871094,2.283204 0,0.490363 -0.242009,0.59589 -1.359375,0.58789 -1.630438,-0.01166 -2.480469,-0.445598 -2.480469,-1.267578 0,-0.678852 1.134938,-1.603516 1.96875,-1.603516 z m 5.382812,1.375 c 0.227223,-0.05606 0.454468,0.0058 0.789063,0.158204 0.802272,0.365539 1.429998,2.219343 0.992187,2.927734 -0.211715,0.342566 -2.22656,0.429962 -2.972656,0.128906 -0.689914,-0.278387 -0.453828,-1.867186 0.396484,-2.666015 0.33925,-0.318709 0.5677,-0.492767 0.794922,-0.548829 z m 6.033204,0.226563 c 0.46362,0 0.486387,0.796208 0.04492,1.621094 -0.430112,0.803651 -1.589843,0.823283 -1.589843,0.02734 0,-0.642239 0.943327,-1.648437 1.544922,-1.648437 z m 34.462892,0.958984 c 0.85576,0 4.47727,2.636631 10.32812,7.519531 l 4.21875,3.52148 0.002,3.77149 c 0.007,9.57161 0.96372,24.901 2.72851,43.74805 0.25544,2.728 0.97145,11.08054 1.5918,18.56054 0.62035,7.48 1.27087,14.96668 1.44531,16.63868 0.73522,7.04704 2.87219,33.00481 3.23438,39.29101 0.23843,4.138 0.27635,6.92156 0.0977,7.0957 -0.46113,0.44941 -26.98201,10.32182 -44.77344,16.66602 -3.871995,1.38072 -7.798716,2.80545 -8.724604,3.16797 -2.054611,0.80443 -2.53,0.82122 -2.900391,0.0996 -0.158089,-0.308 -0.380151,-4.44722 -0.492187,-9.19922 -0.419331,-17.78601 -1.564827,-31.71087 -5.513672,-67.04102 -1.15078,-10.296 -2.516012,-22.67953 -3.035157,-27.51953 -0.519146,-4.84 -1.176972,-10.88745 -1.460937,-13.43945 -0.598253,-5.37653 -0.377387,-7.55888 1.226562,-12.14453 1.073619,-3.06944 5.143605,-10.77499 7.919922,-14.99414 3.913549,-5.94739 8.071372,-8.79798 17.298824,-11.86133 3.06801,-1.01853 15.46438,-3.880861 16.8086,-3.880861 z m 46.39258,14.552731 c 0.19476,-0.004 0.27548,0.0982 0.35546,0.30664 0.29993,0.78159 -1.24439,3.70426 -3.32226,6.28321 -2.62353,3.25619 -7.48955,8.37217 -9.76953,10.27148 -1.40579,1.17107 -2.10597,1.54059 -2.88086,1.52149 -1.30364,-0.0322 -1.82227,-0.24448 -1.82227,-0.7461 0,-0.75384 3.54473,-4.98828 4.17578,-4.98828 0.74379,0 1.41349,-0.99152 1.88868,-2.79492 0.26731,-1.01449 1.03,-2.06029 3.0332,-4.16016 2.57757,-2.70197 4.75597,-4.30032 7.30859,-5.35937 0.53029,-0.22004 0.83845,-0.33029 1.03321,-0.33399 z m -54.96094,6.86133 c -0.82343,0.0383 -0.7034,1.25896 0.16016,1.62891 1.41998,0.60834 9.72429,2.59463 11.91992,2.85156 1.232,0.14417 2.28619,0.28189 2.34179,0.30469 0.24404,0.10028 1.33985,-0.65059 1.33985,-0.91797 0,-0.78067 -2.00223,-2.01367 -4.64649,-2.86328 -2.45784,-0.78971 -3.45628,-0.93522 -6.7207,-0.97852 -2.10849,-0.0278 -4.08653,-0.0397 -4.39453,-0.0254 z m -17.007814,4.71875 c -0.844148,0.01 -1.978005,0.39563 -3.230468,1.12891 -1.056,0.61826 -2.953715,1.72026 -4.214844,2.44922 -2.365511,1.36731 -5.226563,3.93346 -5.226563,4.6875 0,0.23544 0.180391,0.50525 0.400391,0.59765 0.781565,0.32837 2.029604,-0.1646 4.183594,-1.65039 1.200483,-0.82807 3.399946,-2.22547 4.888672,-3.10547 3.748834,-2.21596 4.880317,-3.17713 4.367187,-3.71093 -0.26073,-0.27124 -0.66148,-0.40224 -1.167969,-0.39649 z m 24.728514,3.625 c -0.96897,0.0293 -1.90023,0.15191 -2.55273,0.375 -1.4745,0.50413 -4.67183,2.69068 -5.09766,3.48633 -0.58884,1.10021 -0.97844,7.77321 -0.63281,10.82422 0.64086,5.65729 2.22649,10.36805 3.87109,11.49414 0.70602,0.48343 1.33009,0.67284 1.81641,0.55078 1.78642,-0.44836 4.26836,-1.54127 5.45703,-2.40234 1.97849,-1.4332 4.36864,-4.49503 4.84961,-6.21289 0.67751,-2.41981 -0.0955,-9.84242 -0.96875,-9.30274 -0.16649,0.10289 -0.30273,1.69169 -0.30273,3.5293 0,1.83761 -0.12318,3.33984 -0.27344,3.33984 -0.15025,0 -1.13597,-0.93412 -2.19141,-2.07812 -1.46585,-1.58885 -2.12583,-2.08008 -2.79687,-2.08008 -1.18976,0 -2.45264,0.79478 -3.35743,2.11523 -0.69705,1.01728 -0.73582,1.29787 -0.53906,3.9043 0.34605,4.58408 -0.69941,6.19849 -2.23828,3.45508 -0.9091,-1.62068 -1.35239,-3.97344 -1.72266,-9.1543 -0.337,-4.71537 -0.28156,-4.95094 1.5,-6.30859 1.16181,-0.88501 1.21301,-0.89258 5.96094,-0.89258 4.19725,0 4.83168,-0.0681 5.13867,-0.55469 0.47263,-0.74917 -0.5768,-2.70202 -1.8789,-3.49609 -0.70639,-0.43079 -2.42606,-0.64061 -4.04102,-0.5918 z m -103.929686,5.71485 c 0.292806,-0.0773 0.7985,0.66454 1.517578,2.22461 1.052312,2.28301 1.628041,5.25202 1.398438,7.21874 -0.187056,1.60228 -0.9086,1.49225 -1.65625,-0.25195 -0.94008,-2.19312 -1.273866,-3.6418 -1.498047,-6.5039 -0.134291,-1.71448 -0.05452,-2.61019 0.238281,-2.6875 z m 127.486326,0.043 c 0.2923,0.036 0.48438,0.18559 0.48438,0.48047 0,0.26135 -0.44518,1.19743 -0.98828,2.08008 -0.54309,0.88264 -1.1166,1.60352 -1.27344,1.60352 -0.57918,0 -1.32978,-1.59029 -1.12891,-2.39063 0.24554,-0.97827 2.02936,-1.88137 2.90625,-1.77344 z m -121.388669,0.0918 c 1.428776,-0.007 3.019926,0.41683 4,1.27735 1.874577,1.6459 2.328631,2.93107 2.425781,6.85156 0.04722,1.90531 -0.02949,3.64328 -0.171875,3.86328 -0.412929,0.638 -3.103457,0.47776 -4.625,-0.27539 -1.533551,-0.7591 -2.290734,-1.68787 -3.472656,-4.26953 -0.832934,-1.81936 -1.505488,-5.29907 -1.185547,-6.13282 0.332833,-0.86735 1.60052,-1.30701 3.029297,-1.31445 z m 69.392578,0.72852 c -2.92271,-0.0152 -4.122336,0.39286 -5.828125,1.98828 -1.290288,1.2068 -2.071359,5.44366 -1.052735,5.71094 0.176,0.0462 0.75815,-0.51946 1.292969,-1.25586 1.174825,-1.61762 2.762422,-2.24184 5.271484,-2.07032 5.164798,0.35309 9.191398,4.98595 9.976558,11.48047 0.17123,1.41591 0.21855,2.81665 0.10547,3.11133 -0.17786,0.46351 -0.28858,0.42857 -0.81836,-0.26172 -0.3368,-0.43886 -0.96735,-1.53828 -1.40039,-2.44336 -1.097358,-2.29354 -2.531432,-3.82066 -4.187496,-4.45312 -1.649968,-0.63013 -2.606946,-0.46528 -3.97461,0.68554 -0.936442,0.78796 -0.984375,0.94576 -0.984375,3.20118 0,1.7793 -0.109008,2.37109 -0.433593,2.37109 -0.459223,0 -2.112032,-3.33057 -3.021485,-6.08789 -0.631056,-1.91327 -1.142177,-2.19799 -1.285156,-0.7168 -0.156144,1.61754 0.768909,4.77544 2.328125,7.95117 1.316477,2.68133 1.572602,2.99818 3.322266,4.07813 1.043238,0.64393 2.45319,1.28812 3.132812,1.43164 0.67962,0.14351 2.650831,0.29073 4.38086,0.32813 l 3.146482,0.0684 1.04297,-1.04687 c 1.72222,-1.72844 1.76235,-4.70045 0.14063,-10.30859 -0.35914,-1.24196 -0.76018,-3.3382 -0.89063,-4.65821 -0.30224,-3.05834 -0.92596,-4.34016 -3.259765,-6.70312 -2.141469,-2.16822 -2.755084,-2.37819 -7.003906,-2.40039 z m 67.535151,1.10351 c 0.94143,0 1.41407,0.9546 1.41407,2.85938 0,1.51449 -0.17867,2.09113 -1.08399,3.50195 -0.59603,0.92883 -1.50495,2.10847 -2.01953,2.62305 -1.59316,1.59315 -3.27538,0.97374 -3.64648,-1.34375 -0.14963,-0.93445 0.0729,-1.42498 1.65234,-3.64063 2.31731,-3.25066 3.00641,-4 3.68359,-4 z m -121.351558,4.83203 c 0.37471,-0.002 0.994841,0.96712 1.355469,2.19336 0.523549,1.78023 0.725303,5.83043 0.339844,6.81641 -0.700141,1.79092 -1.485941,0.87089 -1.980469,-2.31641 -0.379114,-2.44345 -0.298103,-6.19018 0.142578,-6.63086 0.04206,-0.0421 0.08905,-0.0622 0.142578,-0.0625 z m 6.373047,0.13282 c 0.587284,0.0185 1.292643,0.18594 2.207032,0.49023 2.512217,0.83601 3.556331,1.68002 4.714843,3.80859 0.865005,1.5893 0.885484,1.72824 0.664063,4.90625 -0.125337,1.79893 -0.349996,3.59424 -0.498047,3.99024 -0.343001,0.91747 -1.923441,0.93545 -4.457031,0.0508 -3.774915,-1.3181 -5.267161,-3.4812 -5.613281,-8.13672 -0.207933,-2.79684 -0.190112,-2.92033 0.623046,-3.88672 0.731172,-0.86894 1.380569,-1.25353 2.359375,-1.22265 z m 119.919921,0.96484 c 0.35468,0.062 0.74269,0.31539 1.23242,0.74609 1.97992,1.74127 -3.00546,8.27979 -6.74023,8.83985 -0.83634,0.12542 -2.11227,0.57314 -2.83399,0.99609 -1.43257,0.83954 -2.69531,1.00734 -2.69531,0.35742 0,-0.2267 1.82509,-2.13228 4.05469,-4.23437 2.22959,-2.10209 4.54946,-4.51282 5.15625,-5.35742 0.73503,-1.02312 1.23504,-1.45095 1.82617,-1.34766 z m -21.2207,1.97656 c 2.78824,0.0259 7.54211,0.60836 8.41406,1.17969 1.15016,0.75361 1.832,1.93486 1.71289,2.9707 -0.14036,1.22072 -0.75221,1.23759 -2.82422,0.0723 -2.30963,-1.29895 -5.18418,-1.60512 -7.07617,-0.75195 -1.44869,0.65326 -1.89987,0.51308 -2.97851,-0.93164 -0.7448,-0.99759 -0.49391,-1.70373 0.83593,-2.35743 0.27601,-0.13567 0.9866,-0.19029 1.91602,-0.18164 z m -85.484377,2.33399 c 0.454822,0 1.535246,2.61105 2.115235,5.11132 0.811792,3.49958 1.051999,3.34022 1.0625,-0.69921 0.009,-3.47901 0.05812,-3.77464 0.683593,-4.10938 1.502934,-0.80435 6.12321,1.16578 7.638672,3.25781 1.756064,2.42418 2.312777,4.51033 2.193359,8.21289 -0.08039,2.49258 -0.222516,3.36438 -0.585937,3.59375 -1.167885,0.73709 -5.984346,-0.15513 -7.259766,-1.3457 -0.38474,-0.35914 -1.088742,-1.57336 -1.566406,-2.69726 -0.947209,-2.2287 -1.414062,-2.58309 -1.414062,-1.07422 0,1.10961 -0.771553,1.59597 -1.451172,0.91406 -0.468157,-0.46973 -1.748047,-7.70312 -1.748047,-9.87891 0,-0.70691 0.149775,-1.28515 0.332031,-1.28515 z m 110.568357,0.64062 c 0.58422,0 2.06055,1.86091 2.06055,2.59766 0,2.01705 -3.13795,5.32904 -5.91992,6.24804 -0.88,0.29071 -2.17686,0.917 -2.88086,1.39258 -2.86459,1.93515 -4.32504,1.36615 -1.91406,-0.74609 2.9842,-2.61442 7.32794,-7.44287 7.96289,-8.85156 0.1589,-0.35253 0.46995,-0.64063 0.6914,-0.64063 z m -27.09375,6.40039 c 0.15717,0 0.36565,0.21038 0.46485,0.46875 0.19243,0.50151 -0.20551,0.93121 -0.54688,0.58985 -0.30499,-0.30496 -0.24632,-1.0586 0.082,-1.0586 z M 22.0625,158.88086 c 0.880569,0 1.769227,2.11566 1.9375,4.61328 0.20931,3.10673 0.805806,3.3184 1.052734,0.37305 0.103036,-1.22902 0.334719,-2.51158 0.515625,-2.84961 0.468274,-0.87497 2.299204,-1.6582 3.876953,-1.6582 1.140687,0 1.541512,0.19189 2.591797,1.24218 0.789917,0.78992 1.242188,1.53873 1.242188,2.05469 0,2.16442 0.900486,2.3856 2.132812,0.52344 0.86121,-1.30138 2.170857,-2.21875 3.166016,-2.21875 0.404524,0 0.294554,0.26596 -0.464844,1.13086 -0.546231,0.62212 -0.99414,1.25715 -0.99414,1.41211 0,0.43579 -3.787984,3.18037 -5.771485,4.18164 -0.977371,0.49337 -2.625986,1.05455 -3.662109,1.24609 -1.036123,0.19153 -1.892617,0.34103 -1.904297,0.33203 -0.425291,-0.33034 -2.72052,-0.9482 -4.101562,-1.10351 -1.012001,-0.11381 -1.839844,-0.29655 -1.839844,-0.40625 0,-0.10971 0.381498,-0.59742 0.847656,-1.08399 0.80453,-0.83974 0.850069,-1.06036 0.880859,-4.33789 0.02613,-2.78131 0.121942,-3.45117 0.494141,-3.45117 z m 21.226562,8.27344 c 0.20567,-0.003 0.377271,0.007 0.498047,0.0332 1.099427,0.24147 2.933594,1.33961 2.933594,1.75586 0,0.68406 -1.492284,1.61475 -5.160156,3.2207 -6.697177,2.93231 -8.563922,4.58937 -8.203125,7.2793 0.139619,1.04094 -0.0076,1.61067 -0.751953,2.91406 -0.50896,0.89116 -1.240827,1.78854 -1.625,1.99414 -0.59859,0.32035 -0.786621,0.26486 -1.316407,-0.38867 -0.632298,-0.77997 -0.640717,-2.14911 -0.03711,-5.48242 0.295739,-1.63317 -0.129028,-1.57254 -3.183594,0.45312 -3.742874,2.48213 -6.404296,5.2038 -7.519531,7.68946 -0.513789,1.14513 -1.177117,2.17491 -1.474609,2.28906 -0.70843,0.27185 -0.669345,0.2811 -1.132813,-0.27734 -0.77097,-0.92897 0.123429,-4.38183 1.5625,-6.03321 0.286777,-0.32908 1.269045,-1.07738 2.183594,-1.66406 2.31922,-1.48778 2.786903,-2.30169 2.564453,-4.45703 -0.119232,-1.15524 -0.447586,-2.0933 -0.978515,-2.79102 -0.966712,-1.2704 -1.36501,-2.64993 -0.855469,-2.96484 0.201028,-0.12424 1.114242,0.0955 2.027343,0.48828 1.000721,0.4305 2.739212,0.80676 4.378907,0.94727 2.503876,0.21457 2.808926,0.17536 3.839843,-0.49414 1.647674,-1.07004 7.602101,-3.57682 9.886719,-4.16211 0.817807,-0.20955 1.746272,-0.34143 2.363281,-0.34961 z m 19.347657,5.34961 c 0.247418,0.008 0.562007,0.6118 0.957031,1.79687 0.575527,1.72658 1.367188,2.64057 1.367188,1.58008 0,-0.95427 0.758472,-2.13763 1.486328,-2.32031 1.164202,-0.29219 3.532277,1.05097 4.898437,2.77929 1.121133,1.41834 1.247566,1.79091 1.607422,4.72852 0.440567,3.59649 0.265074,4.95308 -0.730469,5.65039 -0.81319,0.56958 -0.910771,0.56964 -2.824218,-0.0195 -0.957566,-0.29484 -1.882183,-0.90129 -2.617188,-1.71484 -0.99952,-1.10636 -1.165303,-1.53214 -1.361328,-3.52149 -0.12265,-1.24468 -0.331865,-2.26367 -0.464844,-2.26367 -0.132979,0 -0.339993,0.79372 -0.460937,1.76172 -0.198624,1.58971 -0.296246,1.75976 -0.998047,1.75976 -0.427335,0 -1.082038,-0.30664 -1.455078,-0.67968 -0.572141,-0.57214 -0.645843,-0.91023 -0.470704,-2.16016 0.114189,-0.81496 0.298812,-2.81341 0.408204,-4.44141 0.132753,-1.97568 0.340094,-2.94635 0.658203,-2.93554 z m 54.453121,0.67968 c -1.0482,-0.1218 -4.89583,1.31091 -6.20898,2.3125 -1.34902,1.02895 -2.3268,3.18159 -1.75781,3.86719 0.57009,0.68692 0.9418,0.48843 2.0664,-1.10351 0.78825,-1.11583 1.3564,-1.51352 3.02735,-2.11719 3.32248,-1.20033 4.81117,-2.73378 2.87304,-2.95899 z M 5.859375,175.42578 c 0.2220844,0.008 0.4896408,0.0439 0.8378906,0.0957 0.8043846,0.11971 2.2546563,0.48305 3.2226563,0.80664 0.9680001,0.32361 2.5721361,0.749 3.5644531,0.94532 2.049166,0.40541 3.171471,1.32364 2.642578,2.16211 -0.179683,0.28486 -1.253802,1.09066 -2.386719,1.79101 -1.626126,1.00524 -2.4309,1.29465 -3.8203121,1.37305 -2.5322374,0.14281 -4.7994382,-0.72558 -6.0507813,-2.31641 -0.9622993,-1.22336 -0.8513379,-2.45474 0.3476563,-3.82031 0.726839,-0.82783 0.9763248,-1.06025 1.6425781,-1.03711 z m 45.492187,8.73828 c 0.449948,-0.0289 0.894409,0.035 1.267579,0.20508 0.864797,0.39403 1.635042,1.9171 1.347656,2.66602 -0.2132,0.55559 -0.375886,0.55862 -2.736328,0.0547 -2.047306,-0.43709 -2.677386,-1.14875 -1.839844,-2.07422 0.450668,-0.49798 1.211026,-0.80347 1.960937,-0.85156 z m -43.7617182,1.11719 c 2.4414442,0.002 3.9838452,0.46041 5.0097652,1.48633 0.971849,0.97185 1.167735,2.7992 0.333985,3.11914 -2.23101,0.85612 -9.1198039,-1.31682 -9.3574221,-2.95117 -0.1393123,-0.9582 1.5556869,-1.6563 4.0136719,-1.6543 z M 43.625,187.55078 c 0.566165,-0.011 1.009492,0.16646 1.425781,0.5293 0.581428,0.50677 0.619576,0.77358 0.384766,2.80469 -0.254886,2.20474 -0.832874,3.99609 -1.289063,3.99609 -0.337977,0 -0.618046,-1.24581 -0.623046,-2.7793 -0.0024,-0.73655 -0.151529,-1.72835 -0.332032,-2.20312 -0.309251,-0.81338 -0.414305,-0.85207 -1.814453,-0.66016 -2.310032,0.31663 -3.909904,1.4848 -7.388672,5.39063 -1.769219,1.98641 -3.911337,4.27918 -4.761719,5.0957 -0.850383,0.81651 -2.266484,1.78819 -3.146484,2.1582 l -1.599609,0.67188 2.226562,-1.99805 c 1.22441,-1.09852 3.816174,-3.59609 5.759766,-5.55078 3.599235,-3.61981 6.366345,-5.72739 8.998047,-6.85547 0.906314,-0.3885 1.593991,-0.58862 2.160156,-0.59961 z m 8.865234,1.48438 c 0.57375,0.013 0.962071,0.0451 1.027344,0.0937 0.130547,0.0974 0.06298,0.63979 -0.15039,1.20507 -0.319971,0.8477 -0.29227,1.40689 0.164062,3.1875 0.640599,2.49961 0.717996,5.22145 0.164062,5.7754 -0.581535,0.58153 -2.530087,0.45783 -3.662109,-0.23243 -1.209552,-0.73754 -1.603176,-1.84822 -1.880859,-5.30468 -0.113113,-1.408 -0.322986,-3.01817 -0.466797,-3.57813 l -0.261719,-1.01758 2.927734,-0.10547 c 0.805243,-0.029 1.564922,-0.0364 2.138672,-0.0234 z m -39.111328,3.64648 c 7.758504,0.0559 7.762933,0.0598 3.472656,2.30664 -1.399227,0.73277 -2.846208,1.50916 -3.216796,1.72656 -1.497643,0.87859 -5.4361965,0.15543 -7.6582035,-1.40625 -3.1120063,-2.1872 -1.6855935,-2.69235 7.4023435,-2.62695 z m 118.619644,11.15209 c -0.5643,0.0348 -1.09834,1.16513 -3.25837,3.71593 -2.65052,3.13003 -4.86381,2.89182 -10.22256,3.67538 -1.52269,0.22266 -4.94443,0.33327 -8.30469,0.26758 -6.71176,-0.1312 -2.59804,-0.3641 -10.498194,-6.07163 -1.206938,-0.87197 -1.279105,-0.87528 -2.212891,-0.11915 -0.648561,0.52518 -0.742187,0.88266 -0.742187,2.86133 0,2.75239 0.548514,3.57813 2.376953,3.57813 2.638699,-0.12273 6.330009,5.6903 9.146589,10.43058 0.45622,0.49104 1.65994,1.91494 2.67383,3.16406 1.01387,1.24912 2.05827,2.53253 2.32227,2.85156 0.264,0.31904 0.9134,0.81255 1.4414,1.0957 2.06702,1.10849 6.07963,0.19422 12.16211,-2.77148 2.63086,-1.28276 4.97378,-3.72249 6.33203,-6.58984 l 1.02539,-2.16211 0.0566,-9.75977 c 0.0922,-2.75986 -0.40176,-4.29437 -2.29828,-4.16627 z m -67.613784,-6.06225 c 0.588358,-0.0499 1.283401,1.06282 1.833984,3.10938 0.43864,1.63046 0.765647,1.70838 1.314453,0.31836 0.534672,-1.35423 1.556224,-2.47852 2.25,-2.47852 0.69946,0 2.391738,1.91231 3.017578,3.41016 0.321273,0.76891 0.478516,2.24283 0.478516,4.46875 0,2.89425 -0.0809,3.40316 -0.638672,3.96094 -0.745562,0.74556 -1.739029,0.79889 -2.917969,0.1582 -0.953914,-0.5184 -1.661344,-1.84007 -2.222656,-4.1582 -0.520841,-2.15101 -0.785288,-2.35066 -1.4375,-1.07813 -0.665955,1.29933 -1.111242,1.62884 -1.628906,1.19922 -0.902339,-0.74888 -1.428922,-6.34668 -0.761719,-8.10156 0.199353,-0.52434 0.445455,-0.78592 0.712891,-0.8086 z m -56.0585941,1.36524 c 1.2132171,0.0296 2.8423041,0.21281 4.9531251,0.54297 1.24038,0.19402 3.311647,0.25621 4.640625,0.14062 2.215226,-0.19268 2.360603,-0.16836 1.898437,0.31446 -0.275395,0.2877 -2.263003,1.24033 -4.417968,2.11523 -5.037707,2.04525 -6.1192914,2.03722 -8.4980472,-0.0566 -0.8047741,-0.70839 -1.4628907,-1.5668 -1.4628907,-1.9082 0,-0.82192 0.8646903,-1.19779 2.8867188,-1.14844 z M 131.01977,209.36176 c 0.61031,0.37626 0.75304,0.29405 1.03687,2.36478 0.17811,1.29945 0.34418,3.33301 -0.31478,4.689 -0.54261,1.11657 -1.06458,1.6499 -2.14032,2.87409 -0.99982,1.13779 -2.27633,2.4203 -4.38084,4.36586 -1.93812,1.79173 -5.38445,2.435 -6.9658,2.5543 -2.21755,0.16729 -4.51522,-2.58211 -6.02608,-4.78382 -0.30682,-0.44713 -1.04459,-1.63548 -1.81476,-2.95333 -0.63311,-1.08332 -1.36756,-1.88961 -0.45332,-2.41166 2.23947,-1.27879 6.07946,-0.86921 9.65327,-1.68823 5.47287,-1.25424 6.00535,-1.70529 7.46368,-2.65845 1.3754,-0.89896 1.954,-2.81323 2.84036,-2.62275 0.57409,0.14706 0.76755,0.10608 1.10172,0.27021 z m -83.672114,4.86285 c 0.434388,0.0277 1.004122,0.20586 1.765625,0.52148 3.298394,1.3671 4.534893,3.75771 4.25,8.21289 -0.190557,2.97995 -1.122731,5.57891 -2.636719,7.34766 -1.738212,2.03075 -3.003498,1.99944 -3.878906,-0.0957 -0.806733,-1.93053 -1.395659,-12.72229 -0.808594,-14.82032 0.235567,-0.84184 0.584614,-1.21217 1.308594,-1.16601 z m -13.710937,12.43555 c 1.089872,-0.0844 1.233906,0.69908 0.259765,1.9375 -0.73823,0.93851 -1.314699,1.06139 -1.863281,0.40039 -0.55593,-0.66985 0.0805,-1.99767 1.078125,-2.24805 0.193742,-0.0486 0.369695,-0.0778 0.525391,-0.0898 z m 17.298828,5.66211 c 1.546471,-0.0994 3.500733,2.33976 3.71875,4.96875 0.139984,1.68801 0.08577,1.85704 -0.916016,2.89062 -1.412498,1.45728 -1.717528,1.40053 -1.402343,-0.26172 0.594197,-3.13373 -0.03457,-5.12104 -1.816407,-5.74219 -1.034099,-0.36049 -1.128202,-1.07645 -0.216797,-1.65039 0.197991,-0.12467 0.411888,-0.19088 0.632813,-0.20507 z m 92.726563,9.16992 c 0.51433,0.0421 0.97424,0.56555 1.29101,1.52539 0.44957,1.36221 0.0965,2.77553 -1.35742,5.44336 -0.96945,1.77846 -1.83593,2.62053 -1.83593,1.78515 0,-0.20159 0.2321,-1.07459 0.51562,-1.9414 0.48555,-1.48456 0.47814,-2.08609 -0.0527,-4.67383 -0.16031,-0.78146 -0.0536,-1.15932 0.47265,-1.68555 0.32917,-0.32916 0.6582,-0.47837 0.9668,-0.45312 z m -6.86133,2.94922 -1.18555,1.05859 c -1.01052,0.90303 -1.20055,1.28715 -1.28125,2.5957 l -0.0937,1.53321 -1.34375,-0.99024 c -2.83289,-2.08838 -2.05641,-3.27143 2.62305,-3.99805 z m -68.677733,3.95703 c 1.034003,0.2166 0.154744,3.14028 -1.119141,3.7207 -1.083369,0.49361 -1.404297,0.45336 -1.404297,-0.17187 0,-0.91727 1.955995,-3.6677 2.523438,-3.54883 z m 51.724613,2.16211 c 0.5662,0 1.90389,2.69497 1.58984,3.20312 -0.35688,0.57745 -0.78033,0.33014 -1.63086,-0.95508 -0.86747,-1.31086 -0.85019,-2.24804 0.041,-2.24804 z m -5.41016,1.75976 c 0.30079,-0.007 0.43831,0.25986 0.0996,0.66797 -0.34187,0.41197 -1.25781,0.64083 -1.25781,0.31445 0,-0.0754 0.22767,-0.36439 0.50586,-0.64257 0.23218,-0.23219 0.47186,-0.3354 0.65234,-0.33985 z m -4.54883,1.51953 c 0.66075,-0.0338 1.46125,0.5767 1.63867,1.42969 0.10192,0.48998 0.46567,1.6127 0.8086,2.49609 0.34294,0.88342 0.625,1.71126 0.625,1.83985 0,0.1286 -0.27652,0.23437 -0.61328,0.23437 -0.35814,0 -1.29258,-0.81318 -2.25,-1.95898 -1.68808,-2.02026 -1.82814,-2.68955 -0.79493,-3.77734 0.16067,-0.16916 0.36569,-0.25241 0.58594,-0.26368 z M 96,259.27344 c 1.436111,0.0868 1.440476,0.0893 1.535156,1.375 0.05221,0.70905 -0.0921,1.85163 -0.320312,2.53711 -0.228218,0.68548 -0.581394,1.30048 -0.785156,1.36718 -0.36459,0.11938 -3.943766,-3.36073 -3.947266,-3.83789 -0.0048,-0.64615 2.139866,-1.5247 3.517578,-1.4414 z"
       id="path269"
       inkscape:connector-curvature="0"
       inkscape:export-xdpi="300"
       inkscape:export-ydpi="300"
       sodipodi:nodetypes="ssssssssssssssssssssssssssssssssssssssssssssssssscssscssscscssssssssssscssssssssssssscssssssssssssssssssssscssssssssssssssssssssscccssscssssssssssssssccccscsscccssssssssssssssssscssssssssscsssssssccsssscsscscccssssssssssssssssssccccsssssssssssssssssssccccsscssssssssscsssscccssssssssccsssssssssssssssssssssscssssssssssscssscsssssssssssssssscsssssssscsscsssssssscsssssssssssssssssscsssssssssssssssssscssssssssssssssssssssssssscssssscccsssssssssssscsscccssssccscsssssssssssscsssssssssccccsssscsssssssssscccssscssssscssscsscsscssscssscssssssssssssssssscsssssssssssssssscssssssccsssscsssssssssssscccsssccssssscscsssscssssssssssssssssssssssssssssscsssssssssssssssssscsssssssssssssssscsssssscssssssssssssssssssscssssssssssssssssssssssssssccsssscsscscssssssssssssssssssscccsssscsssssccssscsssccssssssccssssccccssssssssssssscsssssscccssssssssssccsssscsssssssscssssscsscsssssscccccccssssssssssssssssssssssssssscs" />
  </g>
</svg>
