<?xml version="1.0" encoding="UTF-8" standalone="no"?>
<!-- Created with Inkscape (http://www.inkscape.org/) -->

<svg
   version="1.1"
   id="svg8"
   width="566.66669"
   height="566.66669"
   viewBox="0 0 566.66669 566.66669"
   sodipodi:docname="Kiezfest.svg"
   inkscape:version="1.1 (ce6663b3b7, 2021-05-25)"
   inkscape:export-filename="/mnt/data/Coding/Sammel-App/Sammel-App/sammel_app/assets/images/Kiezfest.png"
   inkscape:export-xdpi="253.32414"
   inkscape:export-ydpi="253.32414"
   xmlns:inkscape="http://www.inkscape.org/namespaces/inkscape"
   xmlns:sodipodi="http://sodipodi.sourceforge.net/DTD/sodipodi-0.dtd"
   xmlns="http://www.w3.org/2000/svg"
   xmlns:svg="http://www.w3.org/2000/svg">
  <defs
     id="defs12" />
  <sodipodi:namedview
     id="namedview10"
     pagecolor="#ffffff"
     bordercolor="#666666"
     borderopacity="1.0"
     inkscape:pageshadow="2"
     inkscape:pageopacity="0.0"
     inkscape:pagecheckerboard="0"
     showgrid="false"
     inkscape:zoom="1.4682352"
     inkscape:cx="123.6178"
     inkscape:cy="283.6739"
     inkscape:window-width="1848"
     inkscape:window-height="1016"
     inkscape:window-x="72"
     inkscape:window-y="27"
     inkscape:window-maximized="1"
     inkscape:current-layer="g36" />
  <g
     inkscape:groupmode="layer"
     inkscape:label="Image"
     id="g14">
    <g
       id="g36"
       style="fill:#800080">
      <path
         id="path44"
         style="display:inline;fill:#800080;fill-opacity:1;stroke-width:1.33333"
         d="m 283.33398,83.291016 c -12.12121,0 -24.24307,0.849414 -33.33398,2.548828 -21.28952,3.979764 -41.18388,11.41468 -59.26367,21.552736 -1.25183,0.70201 -2.49117,1.42163 -3.72461,2.15039 -2.94717,1.74077 -5.83819,3.55187 -8.67774,5.44141 -1.02725,0.6841 -2.04598,1.37881 -3.05859,2.08203 -3.02904,2.10147 -5.98802,4.28336 -8.88281,6.55078 -0.70934,0.55644 -1.41424,1.11735 -2.11524,1.68359 -3.20569,2.58519 -6.31704,5.2696 -9.34375,8.05274 -0.27614,0.25449 -0.55156,0.50951 -0.82617,0.76562 -29.2974,27.26165 -49.95682,63.55372 -57.667967,104.95117 -3.113804,16.71653 -3.105286,50.51111 0.01563,67.27344 4.033987,21.66648 11.826327,42.24644 22.621087,60.94336 2.07914,3.67596 4.21054,7.24432 6.43945,10.53711 0.22053,0.32578 0.46152,0.62906 0.6836,0.95312 1.58801,2.35515 3.26913,4.64146 4.95703,6.92188 0.24111,0.32199 0.46625,0.66229 0.70898,0.98242 18.32231,24.43298 42.28324,44.41836 70.08204,57.44531 15.69897,7.35679 29.27817,11.60085 48.66992,15.16016 2.8911,0.54208 5.802,1.0402 8.74609,1.46875 2.27941,0.36458 4.17862,0.75445 6.63672,1.11328 7.8208,1.14166 40.1842,-0.43696 51.70508,-2.52148 68.09755,-12.32115 124.45261,-61.8394 146.23437,-128.49414 5.19401,-15.89426 7.50804,-28.70528 8.23634,-45.5918 0.17149,-3.70139 0.28525,-7.48403 0.30273,-11.33399 0.002,-0.45294 0.0332,-0.80195 0.0332,-1.26171 0,-14.5308 -0.73332,-25.26946 -2.29884,-33.67774 -7.72161,-41.47261 -28.47305,-77.83171 -57.90039,-105.10742 -0.10329,-0.096 -0.20704,-0.19135 -0.31055,-0.28711 -3.17809,-2.93263 -6.45193,-5.75491 -9.82812,-8.46875 -0.56322,-0.45359 -1.12867,-0.90428 -1.69727,-1.35156 -2.99984,-2.35561 -6.06854,-4.6197 -9.21289,-6.79688 -0.93773,-0.65006 -1.8798,-1.29403 -2.83008,-1.92773 -2.91274,-1.94047 -5.88021,-3.79815 -8.90625,-5.58203 -1.16787,-0.6888 -2.34104,-1.36837 -3.52539,-2.03321 C 357.90202,97.275554 337.98196,89.824548 316.66602,85.839844 307.5751,84.14043 295.45519,83.291016 283.33398,83.291016 Z m 0,24.107424 c 13.40578,0 22.36427,0.33562 30.37696,1.49218 5.4179,0.95931 10.74349,2.18692 15.94726,3.67383 4.1629,1.30689 8.61769,2.89935 13.88477,4.92188 45.01843,17.28684 82.41689,56.48395 97.81055,102.51367 10.65446,31.85875 10.69053,72.89529 0.10742,105.1582 -0.0267,0.0818 -0.0513,0.16435 -0.0781,0.2461 -3.85274,11.67174 -9.26646,22.97253 -15.89453,33.64258 -0.96721,1.52398 -1.89673,3.04906 -2.92773,4.5664 -0.28102,0.42154 -0.57249,0.83659 -0.85743,1.25586 -5.74865,8.30955 -12.3958,16.40106 -19.43945,23.79102 -13.21684,13.52891 -28.61858,24.95579 -45.36523,33.23828 -1.78862,0.8846 -3.22672,1.60787 -4.67969,2.33203 -2.47265,1.17281 -4.90943,2.31137 -6.82227,3.08203 -4.58888,1.66105 -6.57517,0.49159 -8.4746,-4.93359 -0.65016,-2.05794 -1.33652,-4.56988 -2.0254,-7.21094 -0.69034,-2.67553 -1.26633,-4.74612 -2.21093,-8.5 -0.79662,-3.16578 -1.66517,-6.23047 -2.52344,-9.42188 -0.0603,-0.29331 -0.42415,-1.75912 -0.44922,-1.91211 -0.12473,-0.76113 -0.74076,-2.93514 -1.59375,-5.71875 -1.66764,-5.90163 -3.17934,-10.91403 -4.08008,-13.3457 -0.63671,-1.71893 -0.95734,-3.04379 -1.32226,-4.41992 -0.32621,-1.35841 -0.5613,-2.49037 -0.69727,-3.35938 -0.0782,-0.5748 -0.0508,-0.87351 -0.0332,-1.20117 0.0426,-0.21218 0.0466,-0.50514 0.14453,-0.60156 0.6612,-0.65122 3.93419,-2.3499 7.27344,-3.77539 5.2469,-2.23981 6.41286,-2.34236 8.58789,-0.75195 0.94222,0.68897 1.40897,1.11498 1.61914,1.50195 0.006,0.055 0.0109,0.11042 0.0195,0.16797 -0.0254,0.31586 -0.12782,0.6344 -0.29688,0.95117 -0.27249,0.25998 -0.64267,0.54934 -1.16015,0.92773 -0.85563,0.62566 -1.51955,1.85926 -1.97656,3.40625 -0.0479,0.16189 -0.0942,0.3264 -0.13672,0.50391 -0.12475,0.49834 -0.22483,1.01678 -0.30078,1.57227 -0.0442,0.18181 -0.14205,0.34714 -0.17774,0.52734 -0.37721,1.90471 -0.46401,3.04695 -0.13281,3.85352 L 335.33398,378 l 6.22266,0.29688 c 1.05721,0.15532 2.13478,0.20461 3.23047,0.15234 l 7.21289,0.3457 -0.006,-3.89258 c 0.28963,-1.00659 0.25994,-2.16508 -0.0742,-3.40234 -0.15924,-3.49319 -0.90456,-4.71717 -3.74023,-6.33008 -2.21154,-1.2579 -4.08878,-3.65319 -4.48438,-5.72265 -0.44006,-2.30205 -0.0171,-3.59473 3,-6.24024 0.0457,-0.0412 0.0945,-0.0819 0.14063,-0.12305 1.00858,-0.87581 2.27434,-1.8864 3.90429,-3.14062 4.24851,-3.26915 9.12049,-5.99093 10.82618,-6.04883 1.70571,-0.0579 2.39422,-0.39216 1.53125,-0.74414 -0.42203,-0.17213 0.33952,-1.76578 1.66796,-3.9668 0.19494,0.2126 0.3968,0.45391 0.6543,0.81641 0.006,0.008 0.004,0.003 0.01,0.0117 -0.066,0.28225 -0.0957,0.6686 -0.0957,1.23242 0,1.53011 -1.20129,3.80865 -2.66796,5.06445 C 360.87287,347.84392 360,350.24188 360,353.62891 v 0.64257 4.39454 0.12695 l 2.30273,-0.10938 -0.13671,0.15039 2.63671,-0.16796 h 3.11915 c 0.0858,0 0.14502,-0.0151 0.23046,-0.0156 0.19048,0.002 0.31473,0.0156 0.51368,0.0156 3.09349,0 5.06692,-0.21328 6.36523,-0.64649 l 0.30273,-0.0195 0.01,-0.10742 c 5.5e-4,-2.3e-4 0.001,2.3e-4 0.002,0 0.69341,-0.19604 1.22947,-0.411 1.375,-0.64649 0.25057,-0.40542 0.36038,-1.03573 0.41211,-1.73632 0.10285,-0.6986 0.0337,-1.45111 -0.0586,-2.22266 -0.0149,-0.67132 -0.13761,-1.32606 -0.36914,-1.95313 -0.58304,-2.45571 -1.61488,-4.66796 -2.64649,-4.66796 -1.00158,0 -3.37489,-1.8453 -5.27343,-4.10157 -1.31836,-1.56677 -2.07274,-2.36779 -2.58204,-2.71484 -0.0375,-0.12048 -0.004,-0.0795 -0.0488,-0.21875 -0.35825,-1.11049 1.97535,-5.25805 4.72461,-9.30664 3.46824,-4.65077 6.99409,-8.9066 7.95898,-8.9668 2.7e-4,-2e-5 0.002,2e-5 0.002,0 0.0111,-4.1e-4 0.0282,-0.0174 0.0391,-0.0176 0.61725,0.0173 1.12109,2.69331 1.12109,5.96875 0,0.92135 0.0454,1.71934 0.12891,2.44141 l -0.49219,3.58398 h 1.8789 c 0.44771,0.39092 1.07214,0.64823 1.80079,0.84961 0.20324,0.0628 0.41906,0.12354 0.64648,0.17188 0.13522,0.0257 0.30492,0.0445 0.44922,0.0664 0.66307,0.10943 1.57138,0.12361 2.4375,0.13867 0.63096,0.0252 1.06293,0.10547 1.81641,0.10547 1.83938,0 3.73577,-0.23408 5.16992,-0.5254 0.24049,-0.04 0.51302,-0.094 0.71484,-0.14453 0.18775,-0.0508 0.53406,-0.085 0.67383,-0.13867 0.234,-0.0898 0.43633,-0.26257 0.63281,-0.44726 0.0346,-0.0292 0.0966,-0.045 0.12891,-0.0762 h 1.64453 l -0.54102,-2.88867 c 0.18052,-1.09645 0.22793,-2.25992 0.0312,-3.42969 -0.084,-2.44748 -0.9459,-3.65779 -3.58789,-5.53906 -2.16948,-1.5448 -4.75823,-2.80859 -5.75195,-2.80859 -0.99373,0 -2.61068,-1.28914 -3.59375,-2.86328 -0.77848,-1.24655 -1.10761,-2.25026 -0.84766,-3.92578 0.008,-0.0386 0.0224,-0.0857 0.0312,-0.125 0.10123,-0.60606 0.3513,-1.41343 0.60938,-2.23633 0.28317,-0.92513 0.70537,-2.00805 1.08203,-3.05469 0.32557,-0.85303 0.57041,-1.54811 1,-2.61523 2.01398,-5.00283 4.14624,-8.7968 4.74023,-8.42969 0.594,0.3671 0.76024,1.50228 0.36915,2.52148 -0.39111,1.01921 -0.0278,3.12826 0.80664,4.6875 0.18401,0.34383 0.39193,0.556 0.58593,0.82032 l 0.10157,1.21875 1.60351,0.084 c 1.21585,0.42746 3.10066,0.48707 6.37695,0.32617 5.30947,0.26968 6.82296,0.11826 7.56836,-1.41601 2.4e-4,-4.8e-4 -2.3e-4,-0.001 0,-0.002 0.008,-0.006 0.0216,-0.009 0.0293,-0.0156 0.30606,-0.24818 0.52196,-0.58032 0.6543,-0.95899 0.0579,-0.15878 0.17235,-0.27297 0.20703,-0.45507 0.27071,-1.42176 0.14634,-2.87149 -0.13086,-4.24414 -0.39212,-2.08626 -1.1869,-3.91169 -2.20703,-4.45704 -0.34128,-0.28969 -0.69844,-0.53217 -1.08594,-0.66211 -0.72667,-0.24365 -1.68377,-0.76469 -2.63476,-1.21484 -0.11663,-0.11703 -0.27878,-0.1934 -0.38086,-0.31641 -0.91292,-1.1 -2.69185,-2 -3.95508,-2 -0.12017,0 -0.24983,-0.0484 -0.37305,-0.0625 -0.72311,-0.38588 -1.45269,-0.81008 -2.00391,-1.08007 -2.83037,-1.38637 -3.52144,-4.3296 -2.4082,-10.26368 l 0.4375,-2.33398 c 0.66381,-1.70086 2.25408,-2.14436 7.29297,-2.41211 0.50401,0.11384 1.15706,0.13705 2.00977,0.13281 2.32381,-0.0115 4.04891,-0.16371 5.37695,-0.48828 h 0.004 l 3.61914,-0.1582 v -0.002 L 412.99023,268 c 0.27884,-4.02711 -0.30649,-5.06199 -4.26562,-7.55859 -1.45749,-0.91909 -3.10856,-1.60008 -4.54102,-1.97657 -0.67368,-0.31067 -1.39735,-0.44846 -2.04492,-0.26562 -0.17278,0.01 -0.39791,-0.0247 -0.53711,0.0117 -0.006,0.002 -0.0115,3.8e-4 -0.0176,0.002 -0.90843,0.19243 -2.31506,-0.0652 -3.61328,-0.64062 -2.01859,-1.40401 -3.30468,-4.61715 -3.30468,-9 v -5.9043 h 7.334 7.33398 v -0.002 h 0.15235 l -0.15235,-2.09961 v -2.66211 c 0.057,-0.78102 0.0188,-1.58546 -0.10937,-2.38672 -0.15679,-1.85155 -0.6529,-3.04731 -1.87305,-4.12305 -0.0114,-0.008 -0.0178,-0.0251 -0.0293,-0.0332 -0.66471,-0.57889 -1.48809,-1.16313 -2.65821,-1.85352 -0.95001,-0.56051 -1.92466,-0.918 -2.875,-1.27343 -0.84725,-1.02322 -1.61085,-1.30163 -3.09961,-0.81641 -1.0498,0.005 -2.1519,0.19949 -3.08593,0.57422 -2.69437,0.11188 -5.07676,-1.43719 -6.84766,-4.47266 -0.26046,-0.59748 -0.24995,-0.66989 -0.53125,-1.29687 -0.55028,-1.2265 -0.97497,-2.3057 -1.41406,-3.39844 -0.63982,-1.82268 -1.39983,-3.93122 -1.42774,-4.31836 0.13586,-0.6481 2.69692,-1.17188 5.86133,-1.17188 3.51386,0 5.18371,-0.31595 6.06836,-1.33398 h 0.0215 v -0.0391 c 0.1214,-0.14441 0.18751,-0.35401 0.28125,-0.52735 1.32633,-1.2048 1.40018,-3.1958 0.55274,-6.57226 -0.13259,-0.52826 -0.43935,-1.05844 -0.83594,-1.58203 -0.4354,-0.93859 -0.99352,-1.50099 -1.82617,-1.75391 -1.89676,-1.46422 -4.43454,-2.63556 -6.6875,-3.04101 -0.88542,-0.6243 -1.61055,-0.63331 -2.30078,-0.10938 -0.48395,0.0606 -0.93937,0.16177 -1.3086,0.35938 -0.67877,0.36326 -1.31924,0.61946 -1.94336,0.82421 -0.0436,0.006 -0.0715,-1.3e-4 -0.11523,0.006 -1.12684,0.15446 -1.95083,0.22951 -2.74219,0.28125 -1.35823,-0.33527 -2.73826,-1.04464 -4.02929,-2.03711 -0.7762,-0.74464 -1.54627,-1.63167 -2.33008,-2.78515 -1.95252,-2.87343 -2.90433,-4.51005 -3.05078,-5.52735 0.0205,-0.0414 0.0288,-0.0906 0.0508,-0.13086 0.0163,-0.0374 0.0481,-0.0654 0.0664,-0.10156 0.26363,-0.44108 0.62659,-0.78855 1.06641,-1.00781 0.1104,-0.0348 0.19589,-0.0846 0.32031,-0.11133 C 372.95473,188.08354 373.3337,188 374,188 c 3.0029,0 3.33387,-0.53231 3.33398,-5.36523 0,-7.9e-4 0,-0.001 0,-0.002 0,-4.4394 -0.55466,-5.57629 -3.20507,-6.58398 -1.7621,-0.66995 -3.62015,-1.89437 -4.13086,-2.72071 -0.524,-0.84784 -1.22173,-0.89871 -2.26367,-0.1914 -0.11861,0.0333 -0.29053,0.0181 -0.34571,0.10742 -0.006,0.0103 -0.0437,0.0323 -0.0508,0.043 -0.73634,0.2933 -1.56609,0.69598 -2.60156,1.33594 -1.70675,1.05482 -2.89705,1.73582 -3.90039,2.11133 -0.80271,0.19174 -1.49613,0.25805 -2.13867,0.23242 -1.18453,-0.25894 -2.37698,-1.19629 -4.35743,-2.93946 -3.22333,-2.83716 -3.49334,-3.6617 -2.25976,-6.90625 1.75373,-4.61269 0.67536,-9.22518 -2.39844,-10.25586 -1.10076,-0.36909 -2.69003,-1.21742 -3.92187,-2.01953 -0.58687,-0.74527 -1.08362,-1.14557 -1.79297,-1.02148 -1.26298,-0.45852 -2.36761,0.21331 -4.72657,2.57226 -0.83974,0.83975 -1.50077,1.40392 -2.1582,1.92774 -1.54155,1.00521 -2.78592,1.51793 -4.0957,1.42578 -1.23792,-0.18672 -2.70414,-0.81145 -4.78125,-1.84766 C 325.27928,156.44276 324,154.85328 324,152.67773 c 0,-3.16515 -0.64863,-5.12525 -2.20508,-6.75195 -0.59122,-0.91912 -1.53704,-1.59845 -3.1289,-2.39258 -0.39349,-0.19628 -0.66516,-0.29091 -1.00196,-0.44336 -0.021,-0.01 -0.0317,-0.0193 -0.0527,-0.0293 -0.24467,-0.11611 -0.4043,-0.16986 -0.62891,-0.27149 -0.17553,-0.0703 -0.40473,-0.18813 -0.56836,-0.24414 -0.13702,-0.0586 -0.28722,-0.12732 -0.41601,-0.17969 -0.44599,-0.44274 -0.91136,-0.64616 -1.4961,-0.50781 -1.24979,-0.32443 -1.94954,-0.17869 -2.18945,0.54102 -0.0829,0.24858 -0.33867,0.42821 -0.53125,0.63867 -0.32396,0.14563 -0.58801,0.23389 -0.96484,0.42187 -0.27213,0.13576 -0.53044,0.32641 -0.79688,0.49219 -0.0553,0.004 -0.103,0.0488 -0.1582,0.0488 -1.05461,0 -2.62091,1.53961 -3.47852,3.42188 -0.8051,1.767 -1.59914,2.59251 -2.68164,2.77734 -0.19241,0.0111 -0.34521,0.0438 -0.57226,0.0391 -0.32898,-0.0102 -0.65986,-0.0259 -1.05079,-0.13086 -1.36782,-0.36738 -3.74971,-0.64924 -5.62695,-0.71289 -1.41145,-0.23668 -2.51866,-0.47871 -3.31836,-0.71289 -0.78511,-0.57411 -1.24399,-1.57154 -1.60547,-3.37891 -0.18859,-0.94296 -0.57677,-1.859 -1.03515,-2.66796 -0.64131,-1.2751 -1.60964,-2.31165 -2.64649,-2.54493 -1.11172,-0.53609 -2.30992,-1.4217 -3.05859,-2.30468 -0.0269,-0.0425 -0.0574,-0.0973 -0.084,-0.13672 -0.41985,-1.06221 -0.75209,-1.42859 -1.35156,-1.18555 -0.45403,-0.17092 -0.84413,0.051 -1.27734,0.75195 -0.19079,0.30871 -0.69016,0.68074 -1.14258,1.04102 -0.31792,0.25281 -0.63144,0.4824 -0.95508,0.69336 -0.42749,0.26423 -0.88277,0.48662 -1.34961,0.70508 -0.32139,0.12785 -0.71136,0.3457 -0.92187,0.3457 -0.53326,0 -1.014,0.41174 -1.45508,0.97656 -1.06663,0.85505 -1.58398,2.02733 -1.58398,3.69922 0,3.4164 -0.79854,4.00104 -7.10547,4.92774 -0.12358,0.0152 -0.20949,0.0383 -0.33203,0.0547 -0.32325,0.0466 -0.48156,0.0858 -0.83399,0.13477 -3.86688,0.53758 -5.09723,0.19547 -5.66015,-1.57813 -0.14089,-0.44387 -0.47467,-0.92586 -0.89844,-1.41601 -0.31105,-0.75527 -1.18667,-1.51355 -2.30274,-1.99024 -0.50725,-0.4031 -1.04446,-0.77488 -1.58984,-1.08789 -0.25371,-0.14561 -0.41465,-0.20532 -0.64258,-0.33008 -0.15837,-0.0863 -0.28334,-0.14739 -0.4414,-0.22851 -0.56975,-0.29635 -1.12459,-0.53787 -1.58008,-0.6875 -0.0105,-0.0148 -0.0532,-0.0343 -0.0625,-0.0488 -0.13228,-0.20517 -0.47289,-0.26385 -0.89258,-0.25586 -1.33372,-0.3955 -2.43292,-0.50984 -2.6582,0.16602 -0.0895,0.26849 -0.34365,0.46432 -0.54297,0.68945 -0.26651,0.1266 -0.46962,0.19286 -0.77344,0.34961 -0.34962,0.18038 -0.58448,0.38156 -0.87891,0.56836 -0.0589,0.005 -0.11133,0.0566 -0.16992,0.0566 -2.3731,0 -3.64469,2.19773 -4.57226,7.9043 -0.62695,3.85704 -1.60173,4.98473 -5.64454,6.52343 -4.62876,1.76172 -5.12578,1.67599 -9.44336,-1.61718 -0.0223,-0.017 -0.0383,-0.0242 -0.0605,-0.041 -1.45669,-1.11044 -2.42665,-1.76112 -3.25,-2.18945 -2.70641,-1.55175 -4.33008,-1.61915 -4.33008,-0.002 0,0.18169 -0.0917,0.37954 -0.23828,0.58204 -0.31359,0.1738 -0.52266,0.26046 -0.89649,0.47461 -0.009,0.005 -0.0162,0.0123 -0.0254,0.0176 -0.0169,0.01 -0.024,0.0117 -0.041,0.0215 -0.55201,0.31625 -0.86852,0.613 -1.3125,0.91601 -0.0307,0.0241 -0.0673,0.044 -0.0977,0.0684 -0.81075,0.27075 -1.52308,0.92382 -2.10351,1.79102 -0.35114,0.4653 -0.61839,0.96235 -0.78516,1.50781 -0.86212,2.11026 -1.06449,4.70647 -0.30078,6.49024 0.18524,0.52273 0.41655,1.03671 0.71875,1.5332 0.16982,0.279 0.22763,0.4685 0.35351,0.70703 -2e-4,0.554 7.9e-4,1.10901 -0.043,1.57617 -0.27153,0.53595 -0.67109,1.1199 -1.36329,1.88477 -4.61296,5.09727 -6.94415,5.59936 -12.04492,2.58984 l -3.05664,-1.80469 c -0.54313,-0.44275 -0.99771,-0.73244 -1.35351,-0.79882 l -0.28516,-0.16797 -0.49219,0.34961 c -0.0977,0.0646 -0.20836,0.12501 -0.31054,0.22265 l -3.09375,2.20313 c -0.99407,0.70783 -1.68193,1.35647 -2.24805,2.02148 -0.94244,0.57064 -1.41945,1.47988 -1.47461,3.22461 -0.12155,0.78398 -0.17188,1.68402 -0.17188,2.76953 0,4.70316 0.34167,5.24219 3.33204,5.24219 0.59161,0 0.90841,0.0486 1.33007,0.0742 0.26355,0.0814 0.54835,0.14086 0.76953,0.24414 0.35321,0.26727 0.64937,0.5664 0.84766,0.90625 -0.17566,0.91537 -1.14062,2.47505 -3.12305,5.4707 -1.26633,1.91357 -2.33133,3.18379 -3.39257,4.01758 -0.80418,0.4878 -1.6276,0.88736 -2.47071,1.11328 -5.7e-4,1.6e-4 -10e-4,-1.5e-4 -0.002,0 -0.21503,0.0411 -0.43414,0.078 -0.66016,0.0957 -0.25863,0.0107 -0.45317,0.0503 -0.73828,0.0527 -1.90262,-0.0381 -3.97094,-0.58617 -4.66406,-1.2793 -1.10871,-1.10871 -4.08588,-0.31511 -6.82812,1.2168 -1.2768,0.54513 -2.61195,1.17923 -3.95899,1.96289 -0.0501,0.0291 -0.29945,1.00542 -0.44531,1.45898 -0.39333,0.50674 -0.7024,1.0166 -0.82617,1.50977 -0.0206,0.0821 -0.0186,0.15329 -0.0371,0.23437 -0.009,0.0313 -0.0391,0.0645 -0.0469,0.0957 -0.64207,2.55821 -0.26998,4.46123 1.09375,5.77539 1.31119,1.52511 3.56333,2.38476 6.62305,2.38476 1.9811,0 3.07669,0.0861 3.80273,0.30664 0.51377,0.17573 0.80877,0.49703 0.86133,1.00586 l -1.71875,4.42774 c -3.29355,8.48589 -4.25783,9.29212 -10.01758,8.37109 -0.61379,-0.0982 -1.03052,-0.0712 -1.57617,-0.11719 -0.0231,-0.01 -0.0514,-0.0136 -0.0742,-0.0234 -1.36799,-0.59065 -2.2918,-0.57596 -2.80664,-0.002 -0.3569,0.0842 -0.60742,0.19618 -0.60742,0.36524 0,0.5681 -1.35,1.62572 -3,2.34961 -0.79714,0.34972 -1.36137,0.82832 -1.83789,1.4043 -1.37832,0.91892 -1.82813,2.27167 -1.82813,5.06835 0,0.63762 0.12338,1.0358 0.17969,1.55274 l -0.33398,4.625 H 164.58984 172 L 171.99219,247 c -0.005,2.38333 -0.86988,5.98333 -1.92188,8 -0.40265,0.77188 -0.56803,1.37061 -0.73047,1.95508 -1.11421,1.02716 -2.58317,1.58182 -4.4082,1.66797 -0.9068,-0.0872 -1.9107,0.0228 -2.9375,0.22851 -0.50348,0.082 -1.00516,0.14425 -1.32812,0.29492 -3.14887,0.96872 -6.17289,3.08052 -6.81641,5.64454 -0.72124,2.87366 -0.83176,4.69037 -0.0391,5.92773 l 0.18945,1.94727 0.5293,0.0234 c 0.0268,0.11114 0.024,0.19788 0.0527,0.31055 0.0385,0.15086 2.85247,0.20468 6.30664,0.18164 0.59186,0.0494 0.93017,0.0974 1.63281,0.15234 5.26365,0.41182 7.87224,1.00875 9.14844,2.89063 l 0.51367,3.10937 c 0.62088,3.75196 -0.20594,6.93631 -1.93945,8.64844 -0.47854,0.23377 -0.98226,0.45955 -1.65234,0.67969 -0.82623,0.27144 -1.54488,0.56203 -2.27735,0.84961 -0.0671,0.0125 -0.13894,0.0314 -0.20898,0.0469 -2.45411,0.54287 -6.53419,2.7839 -7.75195,4.44141 -0.24723,0.33651 -0.46453,1.11028 -0.64063,2.00195 -0.22948,0.4662 -0.37891,0.91357 -0.37891,1.3125 0,0.4885 0.0925,0.75829 0.11524,1.17969 -0.022,0.36493 -0.094,0.69299 -0.0957,1.05664 -0.0188,3.88077 0.40272,4.28645 5.28515,5.11133 1.89065,0.31882 4.17226,0.35224 6.27344,0.25586 0.64017,-0.023 1.23605,-0.0625 1.81055,-0.15039 0.41325,-0.052 0.99164,-0.0374 1.32812,-0.11133 3.71951,-0.81693 4.02684,-1.26905 3.25586,-4.7793 -0.30533,-1.39015 -0.33428,-2.15522 -0.3125,-2.78515 0.13624,-0.49997 0.30884,-0.79646 0.49805,-0.93164 0.32266,0.21615 0.80869,0.92847 1.30469,1.6582 0.84905,1.33525 1.83765,3.22219 2.9746,6.1543 3.24615,8.3716 3.00516,12.50807 -0.81445,13.91601 -1.25904,0.46409 -3.97138,1.77737 -6.02734,2.91797 -2.73581,1.51775 -3.43053,2.52871 -3.39844,5.58203 -0.061,0.49109 -0.0952,1.06324 -0.11328,1.66602 -0.0188,0.16886 -0.0284,0.33653 -0.0352,0.50586 -0.002,0.16938 -0.0284,0.26049 -0.0293,0.43945 l -0.0195,4.33398 h 0.61719 L 170,334 l 7.10938,0.40625 c 4.3584,0.24941 7.05924,-0.01 8.60937,-1.07227 h 0.94727 0.34765 l -0.14062,-1.24609 c 0.65301,-1.2507 0.68502,-3.05114 0.28125,-5.57617 -0.15912,-0.99508 -0.19751,-1.76532 -0.25196,-2.55664 0.13368,-1.08804 0.2917,-1.94065 0.51563,-2.28906 0.73112,0.46042 3.44076,3.58301 6.5918,7.67773 4.21043,5.47221 5.83347,8.36319 4.96679,10.84375 -0.40973,1.1277 -1.27479,2.17835 -2.69726,3.32422 -0.10345,0.0833 -0.25249,0.17914 -0.36133,0.26367 -0.23342,0.1645 -0.43809,0.28105 -0.6875,0.47266 -0.12908,0.0992 -0.18302,0.15626 -0.30664,0.25195 -8.6e-4,6.6e-4 -0.001,10e-4 -0.002,0.002 -0.31473,0.22545 -0.57022,0.43234 -0.91993,0.66993 -3.98575,2.70788 -4.66797,3.92754 -4.66797,8.33398 v 5.16016 h 8.50977 c 0.006,0 0.008,0 0.0137,0 0.0147,0 0.0225,0 0.0371,0 0.0687,-2e-5 0.0984,-0.004 0.16602,-0.004 0.031,5e-5 0.0529,0.004 0.084,0.004 h 5.85352 l 2.66797,0.12695 v -1.57031 c 0.19774,-0.20766 0.42347,-0.39847 0.52539,-0.66407 1.2252,-3.19283 0.88539,-5.2856 -1.11524,-7.65429 -0.56558,-1.19369 -1.22588,-2.13072 -1.94336,-2.20313 -1.01115,-1.2248 -0.82291,-1.6977 0.46875,-2.19336 0.53383,-0.20485 1.55992,0.11008 2.74414,0.61719 0.66268,0.30879 1.27996,0.56572 2.07227,1.02344 0.2235,0.12611 0.45703,0.27114 0.6875,0.4082 1.27364,0.76865 2.6952,1.71352 4.24609,2.82422 0.14429,0.11465 0.28599,0.20198 0.4336,0.31641 1.63076,1.23353 3.13114,2.52929 4.42578,3.76953 1.75805,1.78739 2.85402,3.45324 3.26367,4.97851 -0.17105,2.98765 -2.3376,5.96248 -5.29883,7.16211 -0.0953,0.0377 -0.15611,0.084 -0.2539,0.1211 -1.29446,0.49038 -1.86494,1.37039 -2.01954,3.22851 -0.14222,0.84329 -0.23632,1.80773 -0.23632,3.06445 v 0.66602 0.0586 4.58789 0.12696 1.33203 L 223,378.39648 231.33398,378 l 0.14063,-1.69336 C 231.85783,375.70691 232,374.84822 232,373.33398 c 0,-0.24634 -0.0654,-0.51626 -0.0918,-0.77343 0.008,-0.32513 0.0278,-0.63384 0.008,-1.00196 -0.0114,-0.2107 -0.0587,-0.32307 -0.13086,-0.35156 -0.0472,-2.44469 -0.75943,-3.7526 -2.71289,-5.14648 -0.18343,-0.13089 -0.25515,-0.19964 -0.41602,-0.31641 -0.80287,-1.02497 -1.37718,-2.01688 -1.35547,-2.66797 0.0331,-0.0467 0.0157,-0.0931 0.0566,-0.14062 0.27575,-0.2588 0.59467,-0.52937 1.08008,-0.89258 0.49743,-0.3722 0.94755,-0.62582 1.42188,-0.79102 0.0334,-0.0105 0.0638,-0.0394 0.0977,-0.0488 0.19609,-0.0617 0.44896,-0.0151 0.66016,-0.0391 1.44754,-0.12823 3.35204,0.50317 7.15429,2.28321 4.15285,1.94343 6.25875,3.77921 6.5918,5.86328 0.006,0.24213 0.0714,0.43683 0.0508,0.70898 -0.0422,0.55752 -0.25739,1.15249 -0.41992,1.74414 -0.385,0.88395 -0.9773,1.81355 -1.86914,2.83203 -0.99741,1.13906 -4.64161,13.92096 -8.09766,28.4043 -0.99264,4.15987 -1.80094,7.17308 -2.69531,10.67773 -2.26989,8.2815 -4.25042,14.79977 -4.98828,15.44141 -3.05289,-0.55906 -18.22725,-7.68948 -26.6875,-12.56055 -16.5193,-9.81452 -31.24813,-22.34322 -43.54492,-36.83789 -1.10934,-1.32926 -2.22261,-2.65585 -3.29102,-4.01953 -0.25212,-0.31605 -0.50211,-0.6334 -0.75195,-0.95117 -16.31819,-21.13908 -27.7125,-46.25758 -32.68185,-73.23046 C 114.989,277.64938 117.4761,243.43217 125.3125,220 c 15.37222,-45.96556 52.85529,-85.25092 97.81055,-102.51367 4.71221,-1.80947 8.7285,-3.23836 12.51953,-4.46875 5.90409,-1.7358 11.95125,-3.16682 18.10937,-4.23242 7.81793,-1.06499 16.61359,-1.38672 29.58203,-1.38672 z m 8.42774,45.99609 1.25976,0.0723 c 2.89336,0.17035 6.1799,0.58506 8.64454,1.26953 1.35664,0.37676 2.34594,0.70904 3.11328,1.04883 0.48861,0.28152 0.98634,0.57779 1.23242,0.8164 0.3017,1.004 -0.37675,2.29983 -1.94336,3.98242 -0.0395,0.0385 -0.0571,0.0644 -0.0977,0.10352 -1.28883,1.35856 -2.71934,2.26273 -4.20703,2.75195 -0.74199,-0.0601 -1.32383,-0.15902 -2.22461,-0.16797 -0.25343,-0.003 -0.77044,-0.0198 -1.05468,-0.0234 -0.54421,-0.0771 -0.6411,-0.1177 -1.23633,-0.19336 -2.45663,-0.31227 -5.49335,-2.88646 -7.21289,-5.51563 -0.7557,-1.26834 -1.34446,-2.50587 -1.36133,-3.41992 0.003,-0.0949 0.14884,-0.16359 0.25195,-0.24023 0.0722,-0.0588 0.10647,-0.12302 0.23828,-0.17188 0.2027,-0.0747 0.50122,-0.12935 0.81446,-0.17969 0.12844,-0.0211 0.24532,-0.043 0.39062,-0.0605 0.87861,-0.10015 2.08171,-0.11205 3.39258,-0.0723 z M 276.51367,153.5 c 1.6316,0.1696 2.97866,0.42839 3.34571,0.93359 -0.1865,0.79789 -1.34372,2.6318 -2.86524,4.42188 -4.36541,5.13597 -10.51138,5.87247 -14.40625,1.72656 -1.8369,-1.95529 -2.40781,-3.17305 -1.98633,-4.13672 0.35892,-0.48914 1.07811,-0.90615 1.88477,-1.30859 3.13634,-0.97651 9.87746,-1.68743 14.02734,-1.63672 z m 6.5,0.25391 c 0.19267,0.0827 0.39579,0.15968 0.57617,0.25195 l 1.93164,2.92773 c 0.41783,0.63369 0.72798,1.209 1.07422,1.8086 0.53869,1.15513 1.14404,2.4072 1.23047,2.79687 -0.41622,0.63521 -2.22763,1.12696 -4.49219,1.12696 -1.21258,0 -2.28319,-0.14323 -3.11523,-0.35157 -0.69463,-0.22685 -1.11882,-0.57759 -1.29883,-1.05664 -0.0442,-0.18031 -0.0851,-0.36361 -0.0605,-0.58789 10e-6,-0.009 -1.6e-4,-0.0179 0,-0.0273 0.097,-0.79665 0.73304,-1.98761 1.63671,-3.4375 0.2653,-0.38563 0.37841,-0.66643 0.71289,-1.10156 z m 27.42383,3.91406 c 0.1614,-0.0417 0.29236,-0.004 0.42969,0.0195 l 1.09179,2.87109 c 0.52958,1.39287 0.90364,2.69572 1.13282,3.69922 0.0241,0.21413 0.1079,0.56009 0.10937,0.73633 7e-5,0.003 -0.002,0.005 -0.002,0.008 0.003,0.55025 -0.13755,0.90063 -0.43555,1.12305 -0.37739,0.24173 -1.17716,0.17608 -2.24609,-0.0273 -0.77804,-0.26444 -1.7313,-0.63994 -2.95313,-1.16211 l -2.46484,-1.05274 c -0.39518,-0.89641 0.33252,-2.08301 2.17773,-3.82422 0.0205,-0.0193 0.0262,-0.0294 0.0469,-0.0488 0.002,-0.002 0.002,-0.002 0.004,-0.004 0.95267,-0.89498 1.69837,-1.55112 2.30079,-1.94531 0.30301,-0.19817 0.57088,-0.33119 0.80859,-0.39258 z m -59.92383,0.71484 c 1.213,-0.14815 1.45248,0.32378 1.45508,1.29297 l -0.10156,0.62695 c -0.15217,1.32564 -0.75013,3.30758 -1.55274,4.83789 -0.90585,1.72718 -3.51239,3.91208 -5.79101,4.85547 -3.63976,1.50694 -4.64411,1.39105 -8.375,-0.96679 -0.028,-0.0178 -0.0446,-0.0312 -0.0723,-0.0488 -1.32828,-0.84611 -2.30564,-1.73328 -2.83594,-2.46485 -0.23217,-0.46779 -0.25595,-0.91788 0.11719,-1.375 0.29878,-0.20374 0.6562,-0.42241 1.04102,-0.64843 1.67693,-0.87623 4.7277,-2.21921 8.60156,-3.66992 4.0237,-1.50683 6.27231,-2.28785 7.51367,-2.43946 z m 65.30078,0.082 c 0.48191,-0.072 1.20274,0.0616 2.04883,0.28516 0.82479,0.27369 1.6488,0.54904 2.60938,0.90039 1.58573,0.60553 3.3467,1.32793 5.82031,2.42188 4.07502,1.80216 6.86469,3.80082 6.38672,4.57421 -0.46675,0.75521 -2.46148,2.19483 -4.43164,3.19922 -2.05858,1.04947 -4.47656,1.04975 -6.69532,0.36328 -0.74088,-0.38473 -0.81594,-0.40408 -1.70703,-0.875 -0.86544,-0.45736 -1.60507,-0.91462 -2.24609,-1.38867 -0.20281,-0.18713 -0.42749,-0.35379 -0.61133,-0.55664 -0.0355,-0.0308 -0.0668,-0.0628 -0.10156,-0.0937 -0.89407,-1.01759 -1.53911,-2.21896 -1.80469,-3.54687 -0.66965,-3.34828 -0.7804,-5.05727 0.73242,-5.28321 z m -60.34375,0.0527 c 0.82084,0.0461 1.8736,0.7409 3.14453,2.09375 l 3.10547,3.30664 -3.61328,1.375 c -0.77425,0.29437 -1.24554,0.45382 -1.78906,0.64648 -0.95435,0.19043 -1.79355,0.31331 -2.53711,0.40235 -0.42283,-0.30716 -0.43825,-1.12981 -0.42773,-2.67578 0.007,-1.04083 0.13982,-1.76178 0.26953,-2.48829 0.007,-0.0163 0.0105,-0.0345 0.0176,-0.0508 0.40703,-0.93739 0.83138,-1.78827 1.21485,-2.46875 0.19119,-0.0863 0.38844,-0.15335 0.61523,-0.14062 z M 284,165.07617 c 0.60439,0.003 1.19931,0.008 1.80469,0.0176 l 8.46875,0.7168 c 3.16721,0.26772 6.05582,0.6536 8.17383,1.04297 1.61125,0.33887 2.7601,0.66873 3.1289,0.93945 0.51728,0.75524 -3.23427,17.25877 -8.39844,36.91797 -2.46052,9.36681 -3.00127,11.54736 -4.80078,18.46094 -0.006,0.006 -0.008,0.0418 -0.0137,0.0488 -1.94369,7.46774 -4.94414,18.91448 -5.19336,19.97071 -0.20738,-0.0479 -0.3578,0.37695 -0.39844,1.36328 -0.001,0.0288 0.007,0.0361 0.006,0.0644 C 284.73715,252.43732 284,242.31027 284,206.54883 Z m -1.39062,0.25781 0.0566,3.35547 v 37.97657 c 0,21.68265 -0.31714,35.26643 -0.89649,39.64843 -0.21868,0.62758 -0.45416,1.20744 -0.74414,1.61719 C 280.45926,247.84972 280,247.61725 280,247.29102 c 0,-0.3902 -4.55118,-17.82504 -10.11328,-38.74414 -5.56209,-20.91911 -9.81418,-38.81262 -9.44922,-39.76368 0.35796,-0.93284 2.28034,-1.75442 5.10352,-2.36523 1.90594,-0.25255 4.26559,-0.47121 7.42773,-0.7168 l 4.57422,-0.35547 z m -27.42188,3.75196 c 1.17704,-0.19606 2.00014,0.28078 2.76172,1.53125 l 0.57422,1.83984 c 0.55808,1.78537 4.58944,16.54491 8.33789,30.29883 0.0543,0.42597 0.11246,0.825 0.25586,0.92969 1.00913,3.70541 1.14678,4.10418 2.21875,8.06445 0.10435,0.38552 0.15833,0.62466 0.26172,1.00781 0.005,0.0124 0.007,0.0312 0.0117,0.043 0.50639,1.87692 0.80547,3.13203 1.28515,4.9375 0.0411,0.18568 0.0637,0.39745 0.12891,0.4961 4.24308,15.99576 7.54981,29.37982 7.31054,30.09765 -0.27458,0.82372 -6.55211,-8.96348 -13.94921,-21.75 -21.6462,-37.41725 -26.96607,-46.54831 -26.93165,-49.37109 1.29349,-0.9296 3.65454,-2.24642 6.38672,-3.5918 1.82339,-0.73769 2.76425,-1.12655 5.09766,-2.06055 l 5.8457,-2.33984 c 0.0989,-0.0207 0.31468,-0.11788 0.4043,-0.13281 z m 55.01562,0.24804 c 1.82561,0 8.09992,2.43187 13.01954,4.69336 2.4966,1.2571 4.67239,2.41035 5.53515,3.07618 0.14471,0.37796 0.19239,0.80178 0.13672,1.26171 -0.63513,1.75415 -8.22235,15.5181 -17.89453,32.39258 -12.64918,22.06828 -20.74243,35.20766 -23.20117,37.7793 -0.27797,0.16907 -0.51462,0.17215 -0.76563,0.23437 -0.0262,-0.25632 0.0322,-0.67289 0.27735,-1.43359 0.47197,-1.46448 3.47504,-12.56578 6.67187,-24.66797 11.85472,-44.87824 14.42646,-53.33594 16.2207,-53.33594 z m -78.56445,0.0586 c 0.92034,0.057 2.11467,0.6204 3.58203,1.69336 2.25602,1.64966 2.19545,1.88579 -1.03125,4 -1.52018,0.99606 -2.53465,1.61261 -3.2539,1.87109 -0.36909,0.0925 -0.7181,0.1681 -0.92774,0.084 -0.59738,-0.27391 -0.67383,-1.44235 -0.67383,-3.70704 0,-1.02877 0.12963,-1.82261 0.34961,-2.44921 0.36153,-0.74221 0.89973,-1.23607 1.60743,-1.44532 0.11804,-0.0119 0.21886,-0.0548 0.34765,-0.0469 z m 108.35742,0.14062 c 2.65633,0.762 10.3342,6.88344 13.99024,10.74219 1.12965,1.29361 1.85293,2.34688 1.78906,2.87109 -0.22498,0.14186 -0.54592,0.28174 -0.89453,0.42579 -0.9424,0.30801 -2.37841,0.66796 -4.21484,0.97851 -3.03361,0.51301 -5.75436,-0.19395 -7.85743,-1.71094 -2.48242,-1.85049 -4.08989,-4.8256 -4.1289,-8.42578 0.009,-1.24985 0.13237,-2.3505 0.31054,-3.23242 0.21368,-0.86942 0.54658,-1.41786 1.00586,-1.64844 z m -6.2207,0.10547 c 1.77919,0.0168 3.00888,1.40845 3.3125,4.03906 0.0591,0.51211 0.0245,0.78191 0.041,1.17579 -0.16864,1.05721 -0.46544,1.86309 -1.04883,2.13476 -0.36258,0.004 -0.75112,-0.0249 -1.35938,-0.26367 -0.0476,-0.0203 -0.0645,-0.0178 -0.11328,-0.0391 -0.58504,-0.23761 -1.43952,-0.68974 -2.28125,-1.12891 -0.82646,-0.43955 -1.52903,-0.84918 -2.23828,-1.28906 l -1.66211,-1.27539 c -0.14216,-0.50662 0.4365,-0.99152 1.63672,-1.86914 0.90559,-0.66218 1.75626,-1.08733 2.53906,-1.30664 0.0253,-0.0102 0.047,-0.0153 0.0723,-0.0254 0.38551,-0.10217 0.75494,-0.15562 1.10156,-0.15235 z m -108.11133,0.57031 c 0.21129,0.002 0.3787,0.0881 0.56055,0.14649 l 0.55664,3.17969 c 0.65189,3.72382 0.15147,5.0734 -3.01953,8.13086 -0.75293,0.72597 -1.32152,1.21936 -1.88867,1.6875 -0.28272,0.19184 -0.61196,0.48352 -0.88282,0.64062 -0.053,0.0355 -0.10571,0.0488 -0.1582,0.082 -0.70614,0.39502 -1.38196,0.60636 -2.06445,0.77149 -1.17098,0.16287 -2.58754,0.0156 -4.84375,-0.41407 -0.62837,-0.19753 -1.19294,-0.32482 -1.92383,-0.62109 l -0.20508,-0.084 c -2.21616,-1.29441 -0.24411,-3.93661 6.53906,-8.97071 l 4.86914,-3.61328 c 0.58229,-0.30871 1.11945,-0.59021 1.52344,-0.75976 0.33381,-0.0941 0.66175,-0.17808 0.9375,-0.17579 z m 106.29102,8.90235 c 0.4236,-0.0828 0.97504,0.12469 1.52344,0.34375 4.13475,2.58403 15.1875,11.48614 15.1875,12.46875 0,0.66996 -10.02847,11.6871 -22.28516,24.48242 -4.47256,4.66911 -8.25346,8.49785 -11.98242,12.26758 -7.71548,7.59152 -15.03373,14.68992 -19.19727,18.38672 -3.23226,2.68292 -4.72542,3.38822 -4.09961,1.74609 1.42209,-3.7315 38.83399,-67.86263 40.5586,-69.55859 0.0982,-0.0401 0.19445,-0.11708 0.29492,-0.13672 z m -97.20313,0.50781 c 0.0724,0.07 0.49544,0.76673 0.61719,0.92383 2.64964,3.76988 40.38286,68.3797 40.57031,69.49609 -0.2078,1.39486 -3.09954,-0.84933 -14.77929,-12.3125 -17.04457,-16.76412 -43.82618,-44.18433 -43.82618,-45.4082 0,-2.24775 15.94495,-13.84867 17.41797,-12.69922 z m -25.31836,5.23047 c 0.59585,0.071 1.35501,0.2613 2.56641,0.68359 1.75469,0.61169 2.88023,1.12897 3.42578,1.69727 0.29351,0.91005 -0.19097,2.05678 -1.48242,3.49219 -0.0159,0.0167 -0.023,0.0262 -0.0391,0.043 -0.57526,0.60044 -1.10854,0.96341 -1.66797,1.42383 -0.57203,0.4364 -0.98354,0.69895 -1.33985,0.8711 -0.24708,0.0828 -0.48384,0.13861 -0.70117,0.13672 -0.95637,-0.34707 -2.01572,-3.33926 -2.14453,-6.04688 0.0726,-1.52367 0.39738,-2.21333 1.38281,-2.30078 z m 147.48829,0.10351 c 2.1496,-0.25936 2.06126,1.06371 0.90429,5.38086 -0.66362,2.47637 -1.37899,3.15364 -2.76172,2.35938 -0.23158,-0.13658 -0.41462,-0.16394 -0.6875,-0.38477 -0.28162,-0.22799 -0.67943,-0.65225 -1.01562,-0.97656 -0.39475,-0.37847 -0.73108,-0.66127 -1.20899,-1.16992 -7.8e-4,-8.4e-4 -10e-4,-0.001 -0.002,-0.002 l -1.41016,-1.50196 -1.25585,-1.33593 c 0.0721,-0.11455 0.14097,-0.22695 0.31835,-0.35157 l 4.17969,-1.2832 c 1.25698,-0.38578 2.22292,-0.64792 2.93946,-0.73438 z m -152.53516,3.68555 c 0.19742,-0.002 0.37483,0.10567 0.55664,0.19336 0.21536,0.19087 0.43778,0.4702 0.6582,0.70899 0.53594,0.81922 1.02802,1.80908 1.46289,2.90039 0.19865,0.53247 0.44105,1.14681 0.55664,1.54687 0.005,0.0187 0.005,0.0322 0.01,0.0508 0.57174,2.0244 -0.005,2.73996 -2.38867,6.08789 -2.24323,3.15031 -3.73514,3.87305 -8,3.87305 -2.61891,0 -4.71076,-0.28208 -5.08985,-0.64062 0.1947,-0.69101 0.86234,-1.8839 1.8418,-3.39063 2.8786,-4.01708 8.05419,-10.25437 9.44922,-11.03906 0.33768,-0.18994 0.65095,-0.28867 0.94336,-0.29102 z m 157.70703,0.16406 c 0.19185,0.0137 0.39958,0.0853 0.62891,0.21875 0.009,0.008 0.0123,0.01 0.0215,0.0176 0.21601,0.1284 0.55567,0.51599 0.82227,0.75977 0.44283,0.42773 0.91486,0.91665 1.44921,1.49023 0.67021,0.78241 1.38007,1.63566 2.36524,2.875 2.84281,3.57625 5.71842,7.25325 6.39062,8.16992 0.92906,1.26692 -0.17579,1.6569 -4.60742,1.625 -4.59485,-0.033 -6.32504,-0.72285 -8.16406,-3.25195 -2.78689,-3.83268 -2.97089,-7.32475 -0.56055,-10.62109 0.61549,-0.84173 1.07126,-1.32495 1.6543,-1.28321 z m -10.66016,5.86329 c 0.80112,0 4.25045,3.75064 7.66602,8.33398 0.55957,0.75089 0.81838,1.12861 1.2793,1.75195 1.65548,2.35335 3.15915,4.57361 3.79492,5.86719 0.355,1.22272 -0.32092,1.74889 -1.68164,2.71484 -1.54954,1.1 -16.99291,10.24412 -34.32031,20.32032 -17.32743,10.0762 -32.40055,18.32503 -33.49415,18.33203 -1.05967,0.007 10.40697,-12.30091 25.4375,-27.39649 0.57349,-0.57511 0.89356,-0.92495 1.47657,-1.50781 15.62794,-15.63252 29.04565,-28.41601 29.84179,-28.41601 z m -136.83789,0.21679 c 1.13613,0.59702 14.00596,13.03842 29.35547,28.40039 15.72653,15.7393 28.3212,28.85172 27.98828,29.13868 -0.72038,0.62091 -66.50052,-37.13002 -68.99804,-39.59766 -1.4087,-1.39185 -0.61387,-3.21578 4.33007,-9.93164 0.51121,-0.69443 0.90907,-1.13794 1.4043,-1.7832 2.55421,-3.08587 4.97247,-5.74686 5.91992,-6.22657 z m -19.61328,11.80469 c 1.22365,0.0138 2.32402,0.10612 3.18555,0.25195 0.76264,0.12848 1.23702,0.25024 1.42578,0.35352 0.0946,0.044 0.0896,0.0957 0.15039,0.14258 0.0796,0.16081 -0.015,0.63655 -0.29883,1.39648 -0.0989,0.18893 -0.0838,0.25449 -0.21289,0.47266 -0.44764,0.75639 -1.0614,1.66251 -1.73242,2.53515 l -2.43945,3.17383 -2.19727,-3.13672 c -3.04399,-4.3459 -2.71104,-5.14582 2.11914,-5.18945 z m 178.75977,0.13086 c 0.84085,0.0427 1.31655,0.16777 1.60742,0.31445 0.16906,0.11044 0.27798,0.25399 0.32227,0.42578 0.005,0.30575 -0.0757,0.72509 -0.31055,1.32032 -0.31948,0.63999 -0.81403,1.43118 -1.51563,2.50195 -1.0404,1.58788 -1.82487,2.55294 -2.50781,2.91602 -0.62071,0.28879 -1.19427,0.0272 -1.88867,-0.78321 -0.3839,-0.53043 -0.78091,-1.24694 -1.23438,-2.24219 -1.09065,-2.39371 -1.60684,-3.53226 -1.14843,-4.08398 l 3.10937,-0.27539 c 1.30845,-0.11599 2.57729,-0.14404 3.56641,-0.0937 z m -185.19727,3.35742 c 0.63062,0.23485 1.55703,1.33295 2.45899,2.67774 0.10925,0.19092 0.21765,0.26462 0.32421,0.4707 2.54693,4.92524 1.85364,9.49401 -2.02929,13.37695 -1.74925,1.74924 -6.38764,3.05779 -8.36133,2.73047 -0.10355,-0.0551 -0.26281,-0.0868 -0.31055,-0.16406 -0.30053,-0.48628 0.71679,-3.74166 2.02149,-7.32813 2.12402,-4.99824 4.77981,-10.86633 5.41601,-11.66992 0.019,-0.0236 0.0286,-0.0194 0.0469,-0.041 0.12727,-0.0552 0.25089,-0.12078 0.43359,-0.0527 z m 188.71875,0.13867 c 0.4844,0.19167 1.07291,0.83228 1.69141,1.61914 0.20321,0.39228 0.35626,0.67467 0.58594,1.13868 0.82533,1.81866 1.44299,3.11275 2.91601,6.59375 4.05923,9.5925 4.06844,9.66519 1.15039,9.51171 -2.34462,-0.12332 -3.9344,-0.46515 -5.2539,-1.02929 -1.24824,-0.7483 -2.28121,-1.64024 -3.10743,-2.64844 -0.42965,-0.67869 -0.83743,-1.42142 -1.23828,-2.37305 -0.038,-0.0843 -0.0532,-0.12922 -0.0898,-0.21093 -0.32105,-0.77243 -0.53406,-1.36798 -0.72852,-1.94727 -0.26588,-1.61126 -0.12598,-3.33521 0.44727,-5.14258 0.32302,-0.61313 0.66293,-1.23028 1.17969,-2.0664 1.02437,-1.65747 1.84643,-2.76263 2.44726,-3.44532 z m -11.09375,3.19532 c 0.11437,0.0791 0.24658,0.20789 0.4336,0.48046 l 3.90234,8.72657 c 1.7066,3.81673 2.89706,6.98185 3.53711,9.03125 0.20515,1.00055 0.33445,1.91075 0.24805,2.55078 -1.38045,1.19065 -6.81042,3.09525 -15.29102,5.32812 -8.61666,2.26869 -26.11077,6.87979 -38.875,10.24805 -23.74196,6.26507 -26.73985,6.8855 -24.79688,5.05469 0.0688,-0.0548 0.18829,-0.13475 0.26758,-0.19531 1.32426,-1.1008 38.54262,-22.87953 65.24219,-38.17188 z m -165.44726,1.49414 c 0.22605,-0.0171 0.45671,0.009 0.69726,0.0723 2.23083,0.58337 62.66674,35.07227 68.54297,39.11524 2.61778,1.80112 2.61778,1.8084 0,1.67773 -1.44651,-0.0722 -13.42891,-3.06732 -26.62891,-6.6543 -13.2,-3.58698 -30.00065,-8.06873 -37.33398,-9.96093 -6.14271,-1.58499 -10.8482,-3.03202 -12.76758,-3.8125 -0.84265,-0.59831 -1.30687,-1.31993 -1.33398,-2.39844 0.43197,-1.96354 1.51208,-5.20397 3.02539,-8.82031 0.77812,-1.85947 1.42972,-3.33321 2.01953,-4.56446 l 0.12891,-0.27929 c 1.51523,-3.11728 2.52679,-4.29007 3.65039,-4.375 z m -13.05664,15.73242 c 0.60977,-0.0603 0.98284,-0.008 1.20312,0.16015 0.0334,0.51146 0.0408,0.96582 0.002,1.62696 l -0.12695,0.60156 c -0.0398,0.1344 -0.0405,0.19569 -0.0859,0.34375 -1.23083,4.01395 -1.94761,5.66008 -3.12304,5.4668 -0.0326,-0.0102 -0.0682,-0.0307 -0.10157,-0.043 -0.16828,-0.0408 -0.34902,-0.12336 -0.53906,-0.23438 -0.60535,-0.3771 -1.31812,-1.03202 -2.17187,-1.9375 -0.0142,-0.015 -0.0209,-0.0181 -0.0352,-0.0332 -0.30117,-0.32078 -0.40947,-0.4989 -0.65625,-0.77539 -0.26454,-0.29682 -0.50474,-0.58185 -0.70313,-0.83399 -0.31387,-0.41979 -0.57546,-0.8036 -0.79687,-1.15429 -0.19621,-0.44359 -0.21649,-0.8242 -0.0195,-1.14844 0.48179,-0.65917 1.96832,-1.071 4.73828,-1.625 1.03873,-0.20774 1.82922,-0.35608 2.41602,-0.41406 z m 192.02539,0.0664 c 0.67178,0.0511 1.61018,0.28535 2.65429,0.57227 0.15792,0.0444 0.22882,0.043 0.39649,0.0918 l 2.96289,0.86328 c 0.32493,0.27531 0.45933,0.62181 0.42578,1.0332 l -3.18555,3.04492 -3.33203,3.18555 c -0.0385,-0.0223 -0.0818,-0.0249 -0.11914,-0.0527 -0.29963,-0.36108 -0.62857,-1.01951 -0.98828,-2.00391 l -0.33398,-1.67383 c -0.52815,-2.64072 -0.65905,-4.09686 -0.0586,-4.72851 0.35005,-0.27362 0.8534,-0.38718 1.57813,-0.33204 z m -200.91602,6.04493 c 0.67875,0.0751 1.84738,0.87627 3.05273,1.87109 0.32324,0.28706 0.59685,0.43688 0.92579,0.76367 1.56319,1.57138 2.46973,2.69484 2.92968,3.87696 0.37219,1.09268 0.38371,2.2434 0.10157,3.82226 -0.40796,2.28293 -2.32672,5.49817 -4.26368,7.14453 -0.64975,0.55227 -1.2754,0.97403 -1.90429,1.41992 -1.09041,0.53924 -2.42956,1.20908 -2.82813,1.39258 -0.14827,0.0683 -0.25657,-0.19675 -0.33984,-0.64453 -0.56644,-3.54403 0.50774,-17.47172 1.72266,-19.4375 0.10835,-0.17532 0.31716,-0.24067 0.60351,-0.20898 z m 208.33008,0.3789 c 1.27381,0.22028 1.8504,3.46861 2.69922,10.60156 0.0774,1.04672 0.1698,1.89823 0.23633,3.10157 0.11134,2.01403 0.16604,3.36319 0.20898,4.68554 -0.071,0.98918 -0.20681,1.69132 -0.45312,1.6836 -0.9498,-0.0298 -1.98456,-0.43721 -3.01758,-1.04102 -0.0527,-0.0441 -0.0582,-0.0579 -0.11328,-0.10351 -0.32504,-0.26924 -0.60932,-0.44804 -0.93164,-0.69532 -2.3941,-1.7843 -4.55996,-4.5575 -5.05665,-7.20507 -0.17481,-0.93182 -0.27169,-1.70604 -0.28711,-2.40821 0.0101,-0.20947 0.0426,-0.41235 0.0684,-0.61523 0.0233,-0.35222 0.0641,-0.69859 0.14649,-1.02344 0.10127,-0.37509 0.28838,-0.75652 0.45312,-1.13476 0.48989,-0.97979 1.22048,-1.97035 2.47266,-3.27735 1.65623,-1.72873 2.7598,-2.70919 3.57422,-2.56836 z m -13.09375,0.16602 c 0.57952,0.17066 1.10226,0.44554 1.53125,0.92969 0.85439,1.39631 1.51452,4.81862 2.25976,11.05468 0.12943,2.84628 0.17963,6.38393 0.18555,10.62305 h -40.48242 c -16.43969,0 -30.45706,-0.16527 -37.16602,-0.40039 -2.14472,-0.20423 -3.51127,-0.43048 -3.92187,-0.66406 0.46636,-0.45066 1.51296,-1.06987 3.00391,-1.63672 2.26822,-0.86238 20.91205,-5.9609 39.05664,-10.79883 0.64708,-0.0414 1.19621,-0.12955 1.27148,-0.33398 16.97138,-4.51888 33.04212,-8.68665 34.26172,-8.77344 z m -182.57813,0.67773 c 3.03226,-0.0372 15.26922,2.94695 45.08203,10.82227 0.041,0.13219 0.46805,0.20514 0.99219,0.26172 4.07688,1.07776 7.02332,1.84068 11.82617,3.11914 8.43334,2.24484 16.68204,4.37227 18.33204,4.72656 1.28833,0.27663 2.37026,0.83613 2.79296,1.37695 -0.51525,0.29856 -1.17751,0.56133 -2.08203,0.77149 C 263.37326,259.63945 248.18551,260 229.13672,260 h -41.0586 c 0.006,-2.49796 0.0657,-4.88208 0.13868,-7.20508 l 0.25976,-3.06836 c 0.4776,-5.64999 1.3946,-10.79695 2.03711,-11.43945 0.13374,-0.13374 0.42346,-0.21071 0.91992,-0.2168 z m -8.57617,18.25196 c 0.79139,0.22905 1.07489,1.589 1.39649,4.34375 0.61723,5.28697 0.5161,5.33917 -4.81055,2.45507 l -0.81836,-0.44336 -2.14648,-1.65039 c -0.0126,-0.0912 -0.0898,-0.2044 -0.0645,-0.28125 0.0762,-0.23063 0.24679,-0.48859 0.47266,-0.75586 l 1.89062,-1.45312 c 0.25822,-0.1985 0.3834,-0.25983 0.61524,-0.43359 0.8653,-0.55832 1.55234,-0.92627 2.19336,-1.23829 0.41673,-0.18642 0.84887,-0.40866 1.21875,-0.52734 0.0174,-0.005 0.0356,-0.0111 0.0527,-0.0156 z m 199.50586,0.0332 c 0.22596,-0.0458 0.51991,0.0319 0.8418,0.14648 0.47081,0.16818 1.18915,0.50248 2.01562,0.88672 0.48677,0.33473 0.89548,0.56434 1.50586,1.0586 l 3.01953,2.44531 -3.16992,2.2207 c -0.79931,0.55986 -1.3507,0.86716 -1.92969,1.19922 -1.07932,0.50609 -1.94337,0.82586 -2.40625,0.71289 -0.68116,-0.3489 -0.86395,-1.69246 -0.88476,-4.00781 0.01,-0.928 0.0703,-1.6915 0.13672,-2.42969 0.0317,-0.27442 0.0216,-0.69566 0.0703,-0.91797 0.0115,-0.0547 0.0244,-0.1055 0.0371,-0.15625 0.0747,-0.29576 0.1656,-0.54567 0.2793,-0.74023 0.13719,-0.19699 0.2783,-0.37619 0.48437,-0.41797 z m -213.0293,2.31055 c 0.2883,0 0.52151,0.15148 0.74024,0.30859 0.16426,0.26921 0.13861,0.68139 -0.16211,1.16797 -0.5931,0.95966 -1.2022,1.00898 -1.74414,0.13867 -0.0196,-0.0314 -0.0614,-0.0418 -0.082,-0.0723 C 168.07185,260.13166 168,260.08123 168,260 c 0,-0.73333 0.60065,-1.33398 1.33398,-1.33398 z m 228,0 c 0.73333,0 1.33204,0.60065 1.33204,1.33398 0,0.25262 -0.14621,0.44654 -0.26954,0.64844 -0.26562,0.33143 -0.74189,0.51935 -1.28125,0.59375 C 396.50017,261.12444 396,260.64805 396,260 c 0,-0.73333 0.60065,-1.33398 1.33398,-1.33398 z m -209.25586,2.66796 h 41.32618 c 23.73684,0 41.24867,0.50037 40.52929,1.15821 -1.28944,1.17914 -19.67766,6.43705 -56.35742,16.11719 -10.58985,2.79475 -18.79153,4.82596 -20.35156,5.08203 l -1.54492,0.25781 c -1.77865,-0.24531 -2.38905,-2.70784 -3.2168,-12.5 l -0.24609,-2.90625 c -0.073,-2.32362 -0.13248,-4.71016 -0.13868,-7.20899 z m 149.16016,0 h 40.75 c -0.006,4.09711 -0.0594,7.47762 -0.17969,10.26954 -0.47271,3.8502 -1.03451,8.02853 -1.36718,9.39648 -0.40467,1.66403 -1.70587,2.95474 -2.91993,2.89844 -1.20383,-0.0558 -10.88814,-2.46656 -21.52148,-5.35742 -1.65401,-0.44968 -3.81014,-1.03375 -5.69922,-1.54688 -0.74332,-0.25287 -1.41327,-0.43888 -2.12695,-0.57617 -1.59341,-0.4327 -2.98473,-0.80909 -4.65235,-1.26172 -0.25482,-0.19721 -0.63581,-0.30122 -1.10351,-0.30078 -8.3144,-2.25645 -17.06811,-4.63292 -23.05859,-6.25391 -9.51913,-2.57581 -17.88873,-5.26568 -18.59961,-5.97656 -0.0726,-0.0726 0.11786,-0.13822 0.27343,-0.20508 0.14986,-0.046 0.27058,-0.0946 0.45118,-0.13867 3.07472,-0.61418 16.78325,-0.94727 39.7539,-0.94727 z m 51.89258,2.94922 c 0.50871,0.20621 0.84985,0.8025 1.10352,1.61328 0.22034,3.46906 -0.51898,10.99841 -1.81055,16.4375 -0.39601,1.66771 -0.82381,2.55124 -1.47852,2.73438 -0.32526,-0.0135 -0.68137,-0.11613 -1.07422,-0.32227 -0.0915,-0.047 -0.17679,-0.0783 -0.27539,-0.14062 -0.71065,-0.43462 -1.55364,-1.19587 -2.50781,-2.19141 -0.0849,-0.0885 -0.13472,-0.12385 -0.22266,-0.21679 -1.33577,-1.44023 -2.19458,-3.30307 -2.58789,-5.30274 -0.004,-0.7944 0.0726,-1.67039 0.27735,-2.76172 0.58464,-3.11637 3.39181,-6.86297 6.08008,-8.80078 0.95805,-0.52025 1.76485,-0.8531 2.49609,-1.04883 z m -212.11914,0.0918 c 0.57636,0.0618 1.5645,0.5028 2.58203,0.98438 2.67389,2.04332 5.69531,6.01484 6.19141,8.79101 0.0859,0.48085 0.0851,0.85616 0.11914,1.26953 -0.25077,2.16932 -1.23484,4.35376 -2.99414,6.2461 -0.22562,0.24267 -0.42273,0.39322 -0.64844,0.62304 -1.89532,1.68164 -3.69228,2.63156 -4.08984,1.98828 -0.15679,-0.25368 -0.31006,-0.76267 -0.45899,-1.36718 -0.0415,-0.20525 -0.0816,-0.33045 -0.12305,-0.55664 -0.0155,-0.0733 -0.0295,-0.17359 -0.0449,-0.25 -0.22996,-1.29901 -0.43124,-3.05365 -0.63281,-4.7461 -0.56855,-5.29636 -0.82787,-11.55008 -0.30273,-12.91406 0.11337,-0.0374 0.20791,-0.0892 0.40234,-0.0684 z m 93.78516,1.03125 c 0.29577,0.0139 0.46199,0.0733 0.55468,0.16602 0.0588,0.0588 -0.0405,0.19598 -0.16406,0.3457 -0.0457,0.0604 -0.11238,0.12674 -0.16797,0.18945 -1.81172,1.6832 -12.09306,7.74358 -46.35351,27.48633 -12.46667,7.18396 -23.35896,13.06536 -24.20508,13.06836 -1.80507,0.006 -9.71114,-18.24527 -8.72071,-19.99609 0.15235,-0.10233 0.56607,-0.28047 0.85547,-0.42383 1.2389,-0.56431 10.41016,-3.19289 22.19141,-6.44141 0.40285,-0.0546 0.78461,-0.10941 0.89062,-0.24609 1.75139,-0.48188 3.16244,-0.88123 5.02149,-1.38672 0.19774,-0.0462 0.36064,-0.10154 0.5625,-0.15625 1.51597,-0.41167 2.50506,-0.7034 4.07226,-1.125 34.91677,-9.39314 43.39249,-11.57774 45.4629,-11.48047 z m 24.76367,0.30664 c 0.85871,-0.29194 13.15935,2.57348 27.33398,6.36914 11.09706,2.97156 21.75606,5.80759 30.35352,8.0918 0.78194,0.28316 1.62014,0.51255 2.53125,0.67578 1.51278,0.40145 4.80117,1.28159 5.88672,1.56836 1.55731,0.41139 2.8708,0.80314 4.17382,1.19336 0.0195,0.0234 0.14283,0.0299 0.17969,0.0508 4.59703,1.38495 7.62532,2.62026 8.42383,3.50586 0.0447,0.59262 -0.17454,1.55116 -0.39844,2.50195 -0.62216,1.97959 -1.7232,4.89301 -3.29492,8.35938 -2.15401,4.75056 -4.70336,8.58844 -5.66602,8.52734 -0.92333,-0.0586 -13.21451,-6.8412 -27.46484,-15.10937 -1.732,-1.08106 -3.76732,-2.23936 -5.71875,-3.29883 -13.22409,-7.69397 -27.01004,-15.69683 -30.56641,-17.72461 -4.03334,-2.29974 -6.63213,-4.41899 -5.77343,-4.71094 z m -22.71485,2.70703 c 0.002,0.002 0.006,3e-4 0.008,0.002 0.39521,0.43421 -12.41682,14.10019 -28.4961,30.39453 l -11.35351,11.50586 -8.00977,8.00976 c -5.12727,4.86335 -9.24604,8.64685 -10.22656,9.23242 l -2.89258,-3.14062 -3.61328,-4.52539 c -2.76735,-3.46637 -5.14523,-6.76763 -6.22461,-8.57617 -0.0388,-0.0878 -0.13123,-0.22242 -0.16602,-0.30665 -0.0622,-0.11109 -0.063,-0.15126 -0.11132,-0.24609 -0.0551,-0.13075 -0.14683,-0.29787 -0.17969,-0.4043 -0.0524,-0.15909 -0.0635,-0.28098 -0.0977,-0.42382 0.42202,-1.88709 70.24885,-42.52313 71.36328,-41.52149 z m 21.75,0.82227 c 1.86924,0.26494 7.08277,2.96546 17.91211,9.17773 0.0483,0.0229 0.13668,0.0849 0.17969,0.10156 7.2047,4.13567 16.26377,9.4223 30.35352,17.74219 l 19.29101,11.39063 c 0.96709,0.65952 2.20271,1.46672 2.32227,1.66015 0.18552,0.30019 -0.33122,1.48424 -1.3125,3.15039 -9.1e-4,0.002 -10e-4,0.002 -0.002,0.004 l -0.8789,1.26758 c -1.6241,2.34452 -4.79087,6.43389 -7.03906,9.08594 l -3.25586,3.84179 c -0.10774,0.11371 -0.21595,0.2266 -0.32422,0.33985 -1.20884,-0.39183 -14.05906,-12.66598 -29.50782,-28.16993 -0.41404,-0.41552 -0.66843,-0.65039 -1.08593,-1.07031 -16.90429,-17.00212 -25.33753,-26.02785 -26.65235,-28.52148 z m -2.28515,2.19922 c 0.72675,0.49424 2.41092,1.98472 4.92383,4.34375 4.84134,5.24466 13.78203,14.4921 24.3789,25.13086 15.68772,15.74975 25.85587,26.77625 26.84375,29.04101 0.004,0.17526 0.052,0.38541 -0.0215,0.50195 -0.0317,0.0503 -0.24013,0.21424 -0.28516,0.27344 -0.31205,0.29535 -0.64337,0.56789 -0.95898,0.85938 -1.37973,1.13841 -3.72552,3.02415 -6.97852,5.54882 -2.73738,2.12453 -4.91685,3.62504 -6.41797,4.54883 -0.8641,0.42137 -1.56082,0.52374 -2.17578,0.30078 -3.52007,-3.70177 -39.59563,-66.74862 -39.58398,-69.32421 10e-4,-0.30983 0.12701,-0.76531 0.27539,-1.22461 z m -17.64453,0.29492 c 0,1.67563 -12.4691,23.9911 -30.87891,55.26367 -3.98226,6.76462 -6.92046,11.50714 -8.38477,13.6875 -0.64208,0.86362 -1.10792,1.41095 -1.36914,1.60156 -0.56157,-0.10086 -1.40806,-0.51329 -2.20312,-0.86523 -4.63373,-3.09024 -14.4961,-11.32826 -14.4961,-12.4336 0,-0.91522 12.70742,-14.35335 28.25586,-29.90429 0.73663,-0.73648 1.20705,-1.18004 1.93164,-1.90235 14.95328,-14.88623 27.14454,-26.35365 27.14454,-25.44726 z m 9.88671,5.70898 c 1.05231,1.05797 10.37867,31.62257 16.46094,53.06446 3.05319,11.46377 5.49924,21.18804 5.19531,22.05468 -0.004,0.0211 -0.0168,0.0322 -0.0215,0.0527 -0.30588,0.72544 -1.81866,1.39159 -4.05078,1.92383 -2.21478,0.37565 -5.0827,0.79941 -8.4707,1.1914 l -5.62305,0.65039 c -1.09062,0.037 -2.16423,0.0929 -3.26758,0.10547 -0.43219,-0.562 -0.6388,-1.92111 -0.77539,-4.23242 V 316.8691 c 0,-21.98967 0.24881,-39.72943 0.55273,-39.42383 z m -3.00195,1.95508 c 0.61373,-0.69666 1.11524,16.21784 1.11524,37.58789 0,13.59189 -0.19278,25.12824 -0.4668,32.21289 -0.41957,3.72767 -0.89989,6.68488 -1.38281,7.23438 -0.0551,0.004 -0.0825,0.0128 -0.14258,0.0156 -0.54289,-0.008 -1.08949,-0.007 -1.62695,-0.0215 -4.47966,-0.21498 -13.30375,-1.5153 -16.79688,-2.52539 -0.0803,-0.0253 -0.20065,-0.0533 -0.27539,-0.0781 -0.31306,-0.0971 -0.43137,-0.1807 -0.625,-0.26953 -0.18703,-0.0837 -0.42469,-0.17173 -0.51758,-0.24609 -0.31328,-0.32864 -0.42571,-1.34839 -0.35156,-2.77735 0.002,-0.0285 0.003,-0.0531 0.006,-0.082 0.0396,-0.70399 0.25886,-1.69653 0.38476,-2.55664 0.21663,-1.33497 0.58755,-3.06779 1.00586,-4.91992 3.23613,-12.95874 18.41207,-62.14193 19.67383,-63.57422 z m 97.61524,2.82422 c 0.61762,0.0108 1.78676,0.80019 3.55078,2.49023 3.35518,3.21446 3.65801,3.89145 1.99414,4.64454 -0.004,0.001 -0.004,0.003 -0.008,0.004 -0.93119,0.28675 -2.11956,0.58759 -3.34179,0.83203 l -1.875,0.375 c -1.91678,0.0652 -2.2848,-0.57343 -1.66016,-2.90429 0.31921,-1.19113 0.45799,-2.419 0.59375,-3.54883 0.0293,-0.10659 0.0604,-0.27029 0.0899,-0.36914 0.23015,-0.6012 0.444,-1.13427 0.65625,-1.52344 z m -193.49024,0.10547 c 1.2098,-0.27806 1.92826,1.12676 2.69336,4.17773 0.0488,0.1983 0.0877,0.27904 0.13867,0.49219 0.91061,3.80974 -0.20635,4.30752 -6.17383,2.74805 -0.47866,-0.12509 -0.73036,-0.29023 -1.05273,-0.44141 -1.49145,-0.9855 -1.28003,-1.77027 1.20117,-4.43359 0.0808,-0.0805 0.13339,-0.14521 0.21875,-0.22852 0.89034,-0.84645 1.69538,-1.50498 2.42383,-2.0625 0.1885,-0.0984 0.38266,-0.21331 0.55078,-0.25195 z m 84.31445,3.75976 c 0.0437,0.85295 -4.03273,14.41569 -9.3789,31.14844 -5.32276,16.65945 -9.44607,29.78026 -9.67774,30.76172 -0.18224,0.45457 -0.35946,0.88942 -0.51367,1.22852 -1.07828,0.59658 -5.55004,-0.60922 -9.48828,-2.6875 l -3.46484,-1.82813 c -0.75163,-0.59474 -0.51231,-2.05366 0.85156,-4.94922 l 0.0977,-0.16406 c 1.4031,-2.34673 9.00656,-15.54311 16.89648,-29.32617 7.41737,-12.95757 13.31506,-22.75412 14.25195,-23.76758 0.10551,-0.0834 0.34887,-0.37721 0.42578,-0.41602 z m 123.64649,2.31055 c 0.25229,0.0287 0.48298,0.21563 0.72266,0.35352 0.54742,0.33978 1.06119,0.83788 1.33593,1.66211 0.26509,0.79528 -0.54116,1.41981 -1.8164,1.5371 C 392.83127,291.83153 392,290.96754 392,289.88867 c 0,-0.29049 0.0449,-0.53649 0.12305,-0.74414 0.0804,-0.09 0.13486,-0.23362 0.22265,-0.30469 0.0327,-0.0424 0.0676,-0.0924 0.0996,-0.13086 0.36524,-0.25326 0.77948,-0.35548 1.19141,-0.30859 z m -96.00781,0.19336 c 0.62336,-0.62335 31.59574,53.23247 31.68945,55.09766 -0.042,0.59073 -2.37985,2.1587 -5.26367,3.62695 -6.411,2.98422 -7.71418,2.41059 -9.87305,-4.31836 -11.53853,-35.96421 -17.01021,-53.94877 -16.55273,-54.40625 z m -124.96289,0.53906 c 0.69667,0 1.48137,0.64527 1.74414,1.4336 0.26279,0.78833 -0.52191,1.43359 -1.74414,1.43359 -0.47742,0 -0.80763,-0.16315 -1.11524,-0.33008 -0.31258,-0.23721 -0.5261,-0.46996 -0.63672,-0.69336 -0.0189,-0.13236 -0.0406,-0.26493 0.008,-0.41015 0.26277,-0.78833 1.04748,-1.4336 1.74414,-1.4336 z m 211.29492,2.72657 c 1.26246,0.004 1.67677,0.5825 1.40625,2.0957 -0.60683,1.96509 -1.73888,4.98018 -3.19922,8.36133 -2.01803,4.67236 -3.74511,8.09399 -4.42774,8.95898 -0.13762,-0.0113 -0.25426,-0.0371 -0.40625,-0.0371 -0.20746,0 -0.37459,0.0282 -0.55468,0.0488 -0.58816,-0.69886 -1.45856,-2.05775 -2.42188,-3.99414 -0.57914,-1.16416 -0.97239,-2.04464 -1.24219,-2.81836 -0.39024,-1.27929 -0.41973,-2.32321 -0.0508,-3.6582 0.24328,-0.73429 0.61023,-1.57089 1.125,-2.65039 1.4456,-3.03144 3.47841,-4.83744 6.48243,-5.80274 1.3291,-0.26099 2.54051,-0.50622 3.28906,-0.5039 z m -202.83008,0.0195 c 2.07751,-0.23582 6.44653,1.03247 8.16797,2.7539 3.84063,3.84063 4.57695,8.45086 2.10937,13.22266 -0.011,0.0214 -0.0202,0.0334 -0.0312,0.0547 -0.8498,1.34845 -1.64848,2.56663 -2.05664,3.06445 -0.29205,0.11465 -0.59329,0.22076 -0.87304,0.10351 -0.2048,-0.24259 -0.4727,-0.65369 -0.75,-1.0957 -1.55274,-3.01309 -4.47002,-9.3314 -6.29297,-13.6289 -0.33421,-0.94 -0.77741,-2.03427 -0.95313,-2.73438 -0.13807,-0.55013 -0.20055,-0.9319 -0.25586,-1.30273 0.17787,-0.22001 0.46493,-0.38408 0.93555,-0.4375 z m 13.5957,14.78711 c 0.9394,0 4.9425,5.51958 5.18946,7.08007 -0.19767,0.5108 -2.14833,0.91993 -4.58204,0.91993 -2.81213,0 -4.20315,-0.37608 -4.41992,-1.47266 0.6061,-2.14716 3.05904,-6.52734 3.8125,-6.52734 z m 176.01563,0.0117 c 0.95542,0.0359 4.91747,5.49787 5.17187,7.06055 -0.19784,0.49334 -2.34285,0.87181 -5.01953,0.9043 -2.33078,-0.0329 -4.22851,-0.27006 -4.22851,-0.58008 0,-1.15029 1.74144,-4.60607 3,-6.35156 0.0377,-0.0411 0.0759,-0.11284 0.11328,-0.15235 0.29913,-0.39763 0.51684,-0.56009 0.71679,-0.67578 0.0811,-0.0662 0.1693,-0.15026 0.2461,-0.20508 z m -1.22266,9.33008 c 0.10906,4.4e-4 0.1739,0.0198 0.28125,0.0215 2.54683,0.0408 4.58751,0.49233 4.78711,1.08203 -0.0112,0.0719 -0.30807,0.50435 -0.37695,0.65039 -0.57732,1.18667 -2.68015,4.23023 -5.56446,7.9043 -3.31027,4.21667 -6.5821,7.66796 -7.27148,7.66796 -0.68938,0 -1.63799,-2.04849 -2.10742,-4.55078 -0.3997,-2.13054 -0.15887,-4.13862 0.48828,-5.9375 0.47084,-1.0056 1.01605,-2.05712 1.66797,-2.97265 0.0232,-0.0326 0.0433,-0.048 0.0664,-0.0801 0.15395,-0.18985 0.30376,-0.35974 0.45118,-0.53125 1.86621,-1.97628 4.49009,-3.23634 7.57812,-3.25391 z m -173.13867,0.0156 c 0.26155,0.004 0.46917,0.0324 0.71289,0.043 6.07863,0.35249 11.28616,6.97454 10.07617,13.08007 -0.0204,0.10145 -0.0565,0.1747 -0.0781,0.2754 -0.46539,2.16092 -1.25057,4.13504 -1.83985,4.57617 -0.0549,0.0208 -0.123,0.0166 -0.1875,0.0195 C 203.54716,334.12296 192,319.31552 192,317.1875 c 0,-0.63068 1.96838,-1.12976 4.38086,-1.16406 z m -12.28711,0.34765 c 0.12015,0.009 0.2291,0.0661 0.34766,0.0899 0.75452,0.21002 1.54746,0.83769 1.91992,1.95508 0.12468,0.37403 0.0334,0.70485 -0.16797,0.97656 -0.33471,0.30612 -0.98675,0.44593 -1.76172,0.51562 -0.17319,-0.0128 -0.33748,-0.0645 -0.50976,-0.0996 -0.73488,-0.33117 -1.25586,-1.06518 -1.25586,-1.91992 0,-1.11648 0.66117,-1.56942 1.42773,-1.51758 z M 382,317.13281 c 0.69666,0 1.48136,0.64527 1.74414,1.4336 0.12578,0.37734 2.8e-4,0.716 -0.28711,0.97265 -0.35535,0.0277 -0.75811,-0.0128 -1.08594,0.0527 l -0.91992,0.18359 c -0.5424,-0.25508 -1.02825,-0.64419 -1.15234,-1.26953 0.28478,-0.75585 1.02543,-1.37305 1.70117,-1.37305 z m -26.3418,11.22071 c 0.3279,-0.10627 0.59733,-0.0587 0.85157,0.082 0.0322,0.0215 0.0685,0.027 0.0996,0.0527 0.0848,0.0578 0.16757,0.19893 0.25,0.2832 0.4448,0.59085 0.79695,1.66166 1.1621,3.32422 0.43474,1.97911 0.58336,3.56543 0.45508,4.10938 -0.0438,0.11558 -0.099,0.23177 -0.14844,0.34765 -0.39327,0.15092 -2.44976,-0.19251 -4.82031,-0.83203 l -1.62304,-0.4375 c -1.13272,-0.48546 -1.9635,-0.95818 -2.18946,-1.49609 l 1.25196,-1.33203 1.55078,-1.54688 c 1.51533,-1.51074 2.45922,-2.32752 3.16015,-2.55468 z m -145.43359,0.0703 c 0.75977,0.0975 1.87252,0.71344 2.91797,1.49023 0.14088,0.13234 0.2652,0.2075 0.40625,0.34766 1.45895,1.62641 2.12288,3.03119 1.86719,3.83398 -1.69332,1.2817 -6.79509,3.05022 -7.69141,2.45508 -0.15122,-0.3988 -0.28005,-0.80169 -0.36133,-1.21875 -0.0104,-0.60779 0.11059,-1.38106 0.26953,-2.18359 0.2349,-0.95617 0.4538,-1.69011 0.66797,-2.375 0.38857,-1.05888 0.82279,-1.97809 1.27539,-2.25782 0.16159,-0.0999 0.38443,-0.12569 0.64844,-0.0918 z m 138.58984,8.11523 c 0.82195,-0.0143 1.67247,0.0558 2.54102,0.21875 1.13585,0.21309 2.10673,0.50347 2.91601,0.79297 0.84245,0.41102 1.41823,0.8444 1.56055,1.2793 -0.46532,1.50523 -6.25897,6.78698 -11.37109,10.28906 -1.39017,0.95233 -2.60173,1.67975 -3.56641,2.20508 -1.22531,0.36617 -1.80642,-0.15989 -2.04101,-1.5293 -0.0876,-0.76126 -0.16008,-1.60262 -0.16993,-2.59961 0.002,-0.21072 0.0231,-0.35334 0.0274,-0.55078 0.10508,-3.01152 1.30994,-5.56186 3.21484,-7.37695 0.28768,-0.24188 0.51617,-0.46688 0.85742,-0.73047 1.6723,-1.21857 3.72997,-1.95794 6.03125,-1.99805 z m -131.09375,0.006 c 0.53045,0.0195 1.03815,0.13369 1.54688,0.24414 1.27759,0.36664 2.55815,1.02019 4.18359,2.12696 0.0882,0.0601 0.12989,0.1053 0.21485,0.16406 2.06342,1.9078 3.43661,4.73706 3.52929,8.01953 0.0666,2.35723 -0.18534,4.24629 -0.5664,4.70703 -0.10046,0.0364 -0.18462,0.13502 -0.29493,0.13086 -0.16947,-0.006 -0.54193,-0.19653 -0.87109,-0.34766 -1.01153,-0.58349 -2.25063,-1.44418 -3.43164,-2.22656 -5.108,-3.69382 -12.48189,-10.08493 -11.78516,-10.73437 0.59824,-0.55765 2.96688,-1.4094 5.26368,-1.89258 0.7473,-0.15722 1.48755,-0.21798 2.21093,-0.19141 z m -16.17773,2.91797 c 0.31447,-0.0685 0.63869,-0.11702 0.99219,0.0195 6.9e-4,2.7e-4 0.001,-2.7e-4 0.002,0 0.001,4.8e-4 0.003,10e-4 0.004,0.002 0.18859,0.0734 0.37725,0.30624 0.56836,0.4414 0.7727,0.78261 1.27038,1.37082 1.44335,1.77734 0.0378,0.14631 0.0995,0.30067 0.0723,0.42579 -0.002,0.0146 -0.0146,0.0268 -0.0176,0.041 -0.10339,0.36783 -0.51887,0.65866 -1.22851,0.94727 -0.0149,0.006 -0.02,0.0116 -0.0352,0.0176 -0.13591,0.0488 -0.26324,0.0616 -0.39453,0.0898 -0.21728,0.065 -0.42027,0.046 -0.63672,0.0723 -1.79316,-0.0466 -2.83207,-1.97652 -1.33984,-3.46876 0.17848,-0.17848 0.3723,-0.28708 0.57031,-0.36523 z m 29.36523,4.81641 c 0.77861,0.17083 1.92407,0.93376 3.59766,2.2207 l 2.30273,1.77148 c 0.15,0.22856 0.24229,0.44822 0.2793,0.65821 -0.0749,0.20051 -0.14359,0.39232 -0.29297,0.6289 l -2.25195,1.57813 c -0.83875,0.58748 -1.42964,0.92245 -2.02539,1.25586 -0.76799,0.33177 -1.50909,0.63606 -1.9336,0.68945 -0.9916,-0.1126 -1.25,-1.46928 -1.25,-4.41601 0,-2.25178 0.16021,-3.55344 0.66407,-4.11914 0.22813,-0.23545 0.50889,-0.35562 0.91015,-0.26758 z m 104.75,0.0449 c 0.95099,-0.0111 1.04368,1.28356 1.10938,4.3457 0.07,3.26496 0.0451,4.52356 -1.22656,4.33789 -2.10744,-0.6811 -7.09109,-3.47331 -7.41797,-4.23633 L 331.5,346.54492 c 0.96597,-0.63683 1.60754,-1.02768 2.24609,-1.4043 0.80288,-0.39093 1.37721,-0.62704 1.91211,-0.8164 z m -94.82812,5.93164 c 0.0331,0.003 0.0658,0.008 0.0996,0.0117 0.26019,0.002 0.55857,0.0845 0.83398,0.12695 0.95989,0.18905 2.0605,0.50648 3.14453,0.95703 0.0404,0.0168 0.0645,0.0218 0.10547,0.0391 0.005,0.002 0.007,0.002 0.0117,0.004 0.86062,0.3625 1.48777,0.65514 2.01367,0.94141 0.62407,0.41626 1.10871,0.82388 1.38867,1.24218 0.33206,0.76897 0.0553,1.79526 -0.59961,3.67383 -1.68392,4.8305 -2.66467,4.91931 -10.29296,0.92774 l -4.33789,-2.27149 c -0.40364,-0.56157 -0.39806,-1.10952 -0.0137,-1.6875 l 1.68555,-1.07812 c 1.50214,-0.96058 2.99661,-1.88584 3.9043,-2.43164 0.72108,-0.27146 1.39277,-0.44843 2.05664,-0.45508 z m 84.1582,0.52148 c 1.70775,0.12847 3.58341,0.80489 6.00781,2.0586 l 0.98047,0.50781 0.90821,0.53516 1.75,1.4082 -4.03907,2.04687 c -8.85472,4.4845 -10.1635,4.48974 -11.71093,0.0508 -0.52271,-1.49943 -0.72975,-2.44259 -0.68555,-3.1836 0.0456,-0.2156 0.0649,-0.44405 0.14062,-0.64453 4.4e-4,-10e-4 -4.4e-4,-0.003 0,-0.004 0.20162,-0.50482 0.63284,-0.9195 1.31446,-1.32226 0.20771,-0.11218 0.43589,-0.23783 0.68164,-0.36524 1.60639,-0.8061 3.06384,-1.20738 4.65234,-1.08789 z m -66.21875,5.40039 c 0.41382,0.0111 0.83117,0.22375 1.24805,0.64063 0.91244,0.91244 0.20903,2.4053 -2.16602,4.59961 l -2.33203,2.1543 c -0.36321,0.0483 -0.57721,-0.10303 -0.65039,-0.45704 -0.0126,-0.10874 0.0631,-0.34971 0.0664,-0.48242 l 0.38281,-1.29883 c 1.00782,-3.42043 2.20973,-5.18959 3.45117,-5.15625 z m 48.21485,0.14649 c 0.91511,0.024 1.86391,0.53635 2.70117,1.26758 0.5791,0.78569 1.10878,1.8224 1.58789,3.4082 0.55729,1.84458 0.4117,2.76232 -0.27344,2.83008 -0.0665,-0.005 -0.11458,0.0198 -0.1875,0.004 -0.29816,-0.0332 -0.74136,-0.30451 -1.19336,-0.59375 -0.18227,-0.11743 -0.32051,-0.15409 -0.52344,-0.31054 -0.66097,-0.50876 -1.43552,-1.22115 -2.32031,-2.15625 -0.003,-0.003 -0.003,-0.005 -0.006,-0.008 -0.74696,-0.7993 -1.32246,-1.45031 -1.74023,-1.99218 -0.23396,-0.31356 -0.37031,-0.56438 -0.44727,-0.78516 -0.039,-0.0728 -0.0721,-0.14526 -0.10156,-0.21289 -0.0425,-0.25531 0.0541,-0.45266 0.25195,-0.63281 0.0168,-0.0146 0.005,-0.0364 0.0234,-0.0508 0.15779,-0.12885 0.46948,-0.25012 0.74805,-0.37305 0.14763,-0.0651 0.23204,-0.12723 0.41211,-0.19727 0.39583,-0.14997 0.72197,-0.152 1.06836,-0.19726 z m -81.62305,1.39844 c 0.13344,0.0458 1.17505,0.52783 1.45508,0.64257 0.36075,0.34513 0.68316,0.79754 0.8789,1.38477 0.21139,0.63416 -0.11963,1.17747 -0.75781,1.42969 -0.36554,0.077 -0.73659,0.16233 -1.0957,0.0996 -0.003,-3.7e-4 -0.005,-0.002 -0.008,-0.002 -0.47886,-0.0851 -0.91321,-0.29935 -1.24414,-0.60937 -0.30546,-0.32151 -0.4855,-0.74365 -0.54101,-1.20508 0.0162,-0.33336 0.0318,-0.66053 0.0664,-0.93164 0.204,-0.59638 0.69536,-0.82046 1.2461,-0.80859 z m 42.25586,0.2832 c 0.65982,-0.0191 1.38659,0.0578 2.23242,0.20898 2.76322,0.4938 6.98959,3.68047 8.99805,6.3418 0.45944,0.86219 0.83996,1.68002 1.00586,2.4082 -0.54521,0.719 -5.61762,0.95295 -10.97266,0.68164 -1.59998,-0.12028 -3.09797,-0.29778 -4.21484,-0.54492 -6.2682,-1.38698 -6.47473,-1.75401 -2.87305,-5.53515 0.13387,-0.13289 0.2058,-0.22511 0.34961,-0.36524 0.34573,-0.35614 0.63679,-0.6015 0.94726,-0.89062 0.41485,-0.38064 0.81594,-0.73323 1.18164,-1.02149 1.11968,-0.83305 2.1242,-1.24782 3.34571,-1.2832 z m 72.54492,0 c 0.73053,-0.008 1.17187,0.47706 1.17187,1.36914 0,2.15652 -2.08455,2.64821 -3.24804,0.76562 -0.13688,-0.22147 -0.12768,-0.46854 -0.0605,-0.71484 0.11353,-0.10262 0.21322,-0.14095 0.32617,-0.2539 0.5533,-0.55329 0.96388,-0.86287 1.33008,-1.0625 0.16371,-0.0401 0.33781,-0.10188 0.48047,-0.10352 z M 298.2832,358.25 c 2.03115,0.11992 3.75653,0.9724 5.94336,2.8125 0.28698,0.24148 0.51041,0.48473 0.76367,0.72852 0.66175,0.75491 1.26488,1.49778 1.625,2.12109 0.388,0.73769 0.5035,1.32181 0.28711,1.63867 -2.10505,1.65777 -19.47542,2.98669 -20.11914,1.55274 0.11942,-0.57089 0.60601,-1.75052 1.28125,-3.16407 1.87504,-2.56265 5.31365,-5.17163 8.05664,-5.57422 0.77302,-0.11345 1.48507,-0.1552 2.16211,-0.11523 z m -12.54101,0.56836 c 0.95844,0.0487 1.6148,0.17696 1.83203,0.35937 0.15834,0.2323 -0.007,0.98587 -0.34375,1.96289 -0.3559,0.84716 -0.86255,1.85092 -1.5332,2.91016 l -1.88868,2.98242 c -0.37145,0.29432 -0.73048,0.43813 -1.07617,0.4043 -0.15076,-0.14846 -0.26186,-0.22732 -0.4668,-0.48047 l -2.02539,-3.18359 -2.625,-4.12891 c -0.0428,-0.12483 0.0496,-0.24377 0.27735,-0.35351 l 4.2832,-0.37891 c 1.30845,-0.116 2.57729,-0.14404 3.56641,-0.0937 z m 26.32812,10.69531 c 1.0443,0.13268 2.29275,1.20053 2.4961,2.28906 -0.0976,0.631 -0.34114,1.079 -0.72071,1.29688 -0.3657,0.0894 -0.94131,-0.0242 -1.64453,-0.24219 -0.98222,-0.73455 -1.60942,-2.10883 -1.14648,-2.87304 0.0743,-0.087 0.12869,-0.18341 0.23047,-0.25391 0.22426,-0.14782 0.47549,-0.25614 0.78515,-0.2168 z m -58.43359,1.09375 c 0.54943,-0.0928 1.0484,0.22826 1.13086,1.02539 0.0268,0.2596 -0.13052,0.55349 -0.39063,0.82031 -0.0839,0.0654 -0.16943,0.10856 -0.25586,0.16602 -0.23207,0.18469 -0.4807,0.36519 -0.79492,0.47852 -0.18979,0.0543 -0.36403,0.0829 -0.51172,0.0762 -0.29946,-0.19179 -0.4555,-0.61353 -0.5957,-1.05274 0.009,-0.0406 0.005,-0.0726 0.0176,-0.11523 0.14155,-0.38927 0.34047,-0.715 0.57617,-0.94531 0.003,-0.003 0.005,-0.009 0.008,-0.0117 0.2546,-0.24575 0.54169,-0.39503 0.81641,-0.44141 z m 51.03125,0.42969 c 0.37109,0.0134 0.82753,-0.0119 1.14648,0.0293 0.0202,0.002 0.0484,0.002 0.0684,0.004 0.71828,0.0976 1.30663,0.28116 1.84961,0.53516 0.0338,0.0179 0.0818,0.0203 0.11524,0.0391 0.20756,0.10244 0.39038,0.2843 0.58593,0.41211 0.43859,0.32281 0.86331,0.64651 1.35938,1.14258 l 0.37695,0.37695 c 1.41396,1.64301 1.59281,2.76094 0.56055,3.72852 l -0.25391,0.17773 c -0.35407,0.17422 -0.63586,0.35675 -1.14258,0.51758 -0.61192,0.19422 -1.06277,0.49286 -1.4414,0.86328 -0.15234,0.0566 -0.2202,0.11072 -0.38281,0.16797 -0.63597,0.22391 -1.23474,2.78282 -1.33204,5.6875 -0.17425,5.19865 -0.0937,5.29103 5.15625,5.94727 l 5.33204,0.66796 5.07617,19.83985 c 2.79158,10.91273 4.80126,20.55614 4.46679,21.42773 -0.33445,0.87158 -6.25302,2.59187 -13.15234,3.82422 -17.08789,3.05219 -45.65763,2.83034 -62.22656,-0.48437 -3.15047,-0.63027 -5.95632,-1.24735 -8.25781,-1.78516 -2.37762,-0.70017 -3.93642,-1.36531 -4.67383,-2.01563 -0.0722,-0.30497 -0.009,-0.91203 -0.0137,-1.36132 0.5497,-3.44053 2.13386,-10.88052 4.15625,-19.34961 l 4.24023,-17.75781 c 0.90634,-1.96147 1.92187,-2.66752 3.39844,-3.00586 h 3.74023 c 3.53209,0 6.81852,-0.63901 7.30078,-1.41993 1.06408,-1.7217 0.38328,-5.5147 -0.89062,-8.32031 -0.28022,-1.99653 -0.97516,-2.8093 -2.4961,-3.20703 -0.56442,-0.1476 -0.90219,-0.32304 -1.27734,-0.49414 -0.47611,-0.47702 -0.93977,-0.93973 -1.16406,-1.40234 0.004,-0.0343 0.0417,-0.0799 0.0488,-0.11524 0.0694,-0.32033 0.15509,-0.64605 0.4707,-1.0625 0.3868,-0.51039 0.98556,-1.11365 1.74219,-1.80469 0.85845,-0.75724 2.2033,-1.17809 3.70703,-1.45507 0.29989,0.0156 0.49132,0.071 0.80469,0.0781 1.46198,0.0332 4.72261,0.26128 7.3496,0.40234 2.54953,0.40191 4.67323,0.89821 6.4004,1.44532 1.98171,0.80965 3.59302,1.79258 4.63867,2.8789 1.09127,1.61421 1.30716,2.66991 0.54883,3.70117 -0.61049,0.71173 -1.5274,1.52732 -2.60352,2.23243 -0.65219,0.42733 -1.18631,0.84699 -1.62109,1.30078 -0.0217,0.0226 -0.0315,0.0514 -0.0527,0.0742 -1.19285,0.70564 -1.66015,2.06547 -1.66015,4.82226 0,0.18435 0.0349,0.32874 0.0391,0.51172 -0.006,0.23452 -0.0391,0.40129 -0.0391,0.6543 v 0.0644 5.11524 0.12695 l 2.66406,-0.12695 h 5.19336 c 0.2588,0 0.41372,-0.0156 0.6582,-0.0176 0.13717,9.8e-4 0.23498,0.0176 0.37305,0.0176 h 7.11133 v -1.43164 c 0.0678,-0.0711 0.12187,-0.15085 0.17773,-0.22852 0.47864,-0.37411 0.80851,-0.81973 0.92773,-1.44531 0.0989,-0.51904 0.0465,-1.03631 0.0684,-1.5586 0.0495,-0.3472 0.037,-0.66929 0.043,-0.99804 -0.0153,-0.32491 -0.0222,-0.63193 -0.0645,-0.94922 -0.0621,-0.51606 -0.16719,-1.01546 -0.34961,-1.48242 -0.62386,-2.22378 -1.83331,-4.05196 -3.47266,-4.57227 -0.88424,-0.28065 -1.53461,-0.76257 -1.96093,-1.35938 -0.0122,-0.0188 -0.0213,-0.0378 -0.0332,-0.0566 -0.16109,-0.23584 -0.26931,-0.49521 -0.36133,-0.76171 -0.093,-0.54459 -0.11241,-1.13203 0.0195,-1.82227 0.0754,-0.39435 0.0922,-0.62493 0.13281,-0.91602 0.16207,-0.39851 0.38615,-0.78701 0.66601,-1.16796 1.3449,-1.42626 3.84015,-2.64506 7.25391,-3.52735 1.30121,-0.30246 2.68777,-0.5347 4.08984,-0.74023 1.81148,-0.2412 3.36062,-0.43949 4.56641,-0.55078 0.11601,-0.009 0.26933,-0.0255 0.38086,-0.0332 0.80494,-0.0677 1.32304,-0.0325 1.91797,-0.0273 z m -21.51758,2.33594 c 0.21653,0.0166 0.43651,0.029 0.62305,0.0742 0.0474,0.008 0.0849,0.0254 0.13086,0.0351 0.86084,0.24879 1.33737,0.79062 1.12304,1.4336 -0.18137,0.54411 -0.46372,0.93808 -0.76953,1.26562 -0.17032,0.0993 -0.27706,0.14055 -0.48047,0.26758 -0.0757,0.0473 -0.14087,0.14115 -0.21679,0.19336 -0.0769,0.0373 -0.15001,0.0849 -0.22852,0.11133 -0.41855,0.0402 -0.82719,-0.0264 -1.14648,-0.34571 -1.44696,-1.44697 -0.91788,-2.92697 0.96484,-3.03515 z" />
    </g>
  </g>
</svg>
