<?xml version="1.0" encoding="UTF-8" standalone="no"?>
<!-- Created with Inkscape (http://www.inkscape.org/) -->

<svg
   version="1.1"
   id="svg1541"
   width="566.66669"
   height="566.66669"
   viewBox="0 0 566.66669 566.66669"
   sodipodi:docname="rummel.svg"
   inkscape:version="1.1 (c68e22c387, 2021-05-23)"
   xmlns:inkscape="http://www.inkscape.org/namespaces/inkscape"
   xmlns:sodipodi="http://sodipodi.sourceforge.net/DTD/sodipodi-0.dtd"
   xmlns="http://www.w3.org/2000/svg"
   xmlns:svg="http://www.w3.org/2000/svg">
  <defs
     id="defs1545" />
  <sodipodi:namedview
     id="namedview1543"
     pagecolor="#ffffff"
     bordercolor="#666666"
     borderopacity="1.0"
     inkscape:pageshadow="2"
     inkscape:pageopacity="0.0"
     inkscape:pagecheckerboard="0"
     showgrid="false"
     inkscape:zoom="1.4682352"
     inkscape:cx="101.48238"
     inkscape:cy="283.67389"
     inkscape:window-width="1920"
     inkscape:window-height="1017"
     inkscape:window-x="-8"
     inkscape:window-y="-8"
     inkscape:window-maximized="1"
     inkscape:current-layer="g1551" />
  <g
     inkscape:groupmode="layer"
     inkscape:label="Image"
     id="g1547">
    <g
       id="g1551"
       style="fill:#800080">
      <path
         style="display:inline;fill:#800080;fill-opacity:1;stroke-width:1.33333"
         d="M 266.00001,461.86829 C 237.34161,457.68478 221.5422,453.30842 201.94763,444.1261 147.52547,418.62302 107.66626,366.56419 96.454224,306.3446 93.333313,289.58227 93.32614,255.78758 96.439944,239.07105 111.00935,160.85486 171.47441,100.51944 250.00001,85.840228 c 18.18183,-3.398827 48.48484,-3.398827 66.66667,0 78.5109,14.676462 138.99671,75.005792 153.54578,153.148532 1.56551,8.40828 2.2984,19.14712 2.2984,33.67792 0,23.95324 -2.1466,38.52469 -8.57176,58.18644 -21.78176,66.65474 -78.13718,116.17358 -146.23473,128.49473 -11.52088,2.08452 -43.88356,3.6621 -51.70436,2.52044 z m 41.33334,-24.45845 c 3.4232,-0.70806 -5.17244,-1.09521 -24.00001,-1.08097 -16.13333,0.012 -27.23333,0.46423 -24.66666,1.00448 6.47704,1.36336 42.17395,1.41947 48.66667,0.0765 z m 23.33333,-7.1723 c 0,-0.23603 -0.93381,-3.16976 -2.07515,-6.51939 l -2.07516,-6.09024 -8.5915,-0.92007 -8.59152,-0.92008 v -5.92245 c 0,-5.0234 0.50601,-6.15303 3.33333,-7.44123 4.00737,-1.82588 4.11675,-2.63512 0.76599,-5.6675 -2.1546,-1.9499 -4.03018,-2.17515 -11.66667,-1.40116 -5.00463,0.50724 -10.44932,1.77361 -12.09932,2.81416 -4.00697,2.52694 -3.84259,6.83704 0.33333,8.7397 2.89315,1.31822 3.33334,2.3786 3.33334,8.02983 v 6.51107 l -9.66667,-0.39175 -9.66667,-0.39175 v -6 c 0,-4.92802 0.53143,-6.23318 2.97445,-7.30517 3.70238,-1.62457 4.7442,-4.15015 3.03186,-7.34971 -1.38784,-2.5932 -4.04426,-3.37865 -16.02907,-4.7395 -6.38845,-0.7254 -7.6882,-0.46831 -9.88072,1.9544 -1.38853,1.53432 -2.27829,2.93598 -1.97724,3.11482 0.30107,0.17884 1.74739,0.98662 3.21405,1.79507 1.9449,1.07207 2.77542,3.11645 3.06843,7.55321 l 0.40175,6.08331 -8.65994,0.9274 -8.65993,0.9274 -2.07516,6.09024 c -1.14133,3.34963 -2.07515,6.28336 -2.07515,6.51939 0,0.23602 21,0.42914 46.66667,0.42914 25.66667,0 46.66667,-0.19312 46.66667,-0.42914 z m -96.30698,-19.6245 c 3.15007,-9.81357 5.55779,-18.67086 5.35051,-19.68286 -0.58563,-2.85926 -14.51547,-8.28315 -17.3614,-6.76004 -3.05901,1.63713 -2.98663,3.35206 0.17639,4.17921 2.85112,0.74559 4.82529,7.39567 3.46646,11.67695 -0.79212,2.49578 -1.7664,2.71648 -10.43268,2.36329 l -9.55897,-0.38957 -0.41321,-4.27172 c -0.44856,-4.63714 1.62928,-9.72828 3.9704,-9.72828 1.80697,0 6.45025,-5.20838 6.4224,-7.20402 -0.0332,-2.37422 -1.53038,-3.91144 -10.36904,-10.64596 -5.83694,-4.44738 -9.08231,-6.10535 -10.66667,-5.44924 -1.66876,0.69106 -1.80888,1.11703 -0.52439,1.59428 2.60776,0.96891 4.47296,6.97495 3.51732,11.32592 -0.83983,3.82376 -0.84157,3.82434 -10.38839,3.43504 l -9.54842,-0.38936 -0.4035,-5.53344 c -0.3801,-5.21284 -0.0517,-5.786 5.66667,-9.89269 3.47019,-2.4921 6.07016,-5.42254 6.07016,-6.8417 0,-2.65385 -11.89003,-19.58566 -13.81805,-19.6774 -0.63327,-0.0301 -0.78438,2.49523 -0.3358,5.6119 1.19401,8.29574 0.0977,9.19736 -10.61839,8.73246 -10.19783,-0.44241 -10.91557,-1.20457 -9.29075,-9.86561 0.59972,-3.19681 1.5708,-4.53352 3.29348,-4.53352 1.34364,0 3.18992,-0.9 4.10284,-2 0.91292,-1.1 2.46528,-2 3.44968,-2 0.98442,0 2.44684,-1.22763 3.24984,-2.72805 1.16638,-2.17939 0.70654,-4.5895 -2.28642,-11.98358 -2.06054,-5.09053 -4.1349,-9.2629 -4.6097,-9.27194 -0.47478,-0.009 -0.77478,1.93357 -0.66666,4.3169 l 0.1966,4.33334 -9.54843,0.38936 -9.54841,0.38936 -0.88428,-4.02607 c -0.48635,-2.21433 -0.5081,-5.21129 -0.0483,-6.65992 0.88384,-2.78477 7.56427,-6.7594 11.36096,-6.7594 4.45336,0 6.70387,-4.30856 5.61155,-10.74325 l -1.00556,-5.92342 -9.96879,-0.66666 -9.96877,-0.66667 -0.3632,-5.33334 c -0.32744,-4.80829 0.0973,-5.62866 4.31464,-8.33333 2.5728,-1.65 6.33624,-3.00919 8.3632,-3.02041 5.7722,-0.032 7.11152,-1.67879 7.94672,-9.77119 l 0.77838,-7.54173 h -6.75797 c -7.38296,0 -10.94844,-2.27646 -10.94844,-6.99026 0,-3.23877 3.58799,-7.67641 6.20665,-7.67641 0.98634,0 1.79335,-0.66677 1.79335,-1.48172 0,-1.9014 9.53007,-0.24139 11.12272,1.93743 0.71093,0.97258 0.85096,0.68048 0.37824,-0.78904 -0.41283,-1.28334 -0.14009,-2.33334 0.60608,-2.33334 1.58593,0 6.48757,-10.2581 6.53035,-13.66666 0.0223,-1.77286 -1.06548,-2.33334 -4.52834,-2.33334 -7.39942,0 -8.77572,-1.06302 -8.77572,-6.7782 0,-4.7413 0.45352,-5.37868 5.59472,-7.86264 3.74454,-1.80916 6.03739,-2.26039 6.93334,-1.36444 0.73624,0.73624 3.53888,1.33862 6.22809,1.33862 4.22288,0 5.36809,-0.72322 8.4,-5.30475 4.25681,-6.43247 4.35728,-7.71715 0.64669,-8.26919 -6.75029,-1.00428 -6.55938,-9.61497 0.32179,-14.51481 l 4.11825,-2.93246 5.21706,2.93215 c 5.86998,3.29912 8.69997,2.88628 13.22373,-1.92904 2.73571,-2.91204 2.90282,-3.6842 1.40355,-6.48561 -2.65153,-4.95443 -0.74245,-10.53702 4.58433,-13.40568 l 4.58231,-2.46774 4.61745,3.5219 c 5.30536,4.0466 7.11526,4.25968 13.50486,1.58993 3.80429,-1.58955 4.62384,-2.63368 4.62384,-5.89096 0,-2.17744 0.36528,-4.91088 0.81173,-6.07431 1.09521,-2.8541 9.8258,-6.95733 10.97923,-5.16005 0.48164,0.75049 2.19501,1.77609 3.8075,2.27911 1.61248,0.50301 3.30292,2.08389 3.75652,3.51304 0.91143,2.87168 1.52738,2.97477 10.45892,1.75057 5.73598,-0.78621 6.1861,-1.12817 6.1861,-4.69967 0,-2.84745 0.84109,-4.17156 3.2257,-5.07818 1.77415,-0.67454 3.87371,-2.30968 4.6657,-3.63367 1.31113,-2.19186 1.58965,-2.21584 3.11273,-0.26794 0.92003,1.17662 3.02047,2.56705 4.66766,3.08985 2.21688,0.70361 2.99488,1.97718 2.99488,4.90253 0,4.34213 0.45441,4.61715 9.66666,5.85047 5.80248,0.77682 6.33334,0.61477 6.33334,-1.93347 0,-1.61115 1.2622,-3.32712 3,-4.07851 1.65,-0.71344 3.91306,-1.95914 5.02904,-2.76824 1.55476,-1.12722 3.191,-0.78552 7,1.46186 4.50369,2.65724 4.97096,3.46752 4.97096,8.62009 0,5.52236 0.17602,5.75437 6.07489,8.00717 5.83347,2.22783 6.19027,2.22178 8.9782,-0.15218 1.59683,-1.35972 3.57636,-3.31971 4.39897,-4.35552 1.55359,-1.95627 2.53326,-1.70844 9.2146,2.33102 3.30124,1.9959 4.07334,3.42599 4.41983,8.18651 0.26647,3.66111 -0.20648,6.15523 -1.29472,6.8278 -0.943,0.5828 -1.42892,1.24227 -1.07983,1.46548 0.3491,0.2232 2.51399,2.1032 4.8109,4.17777 4.42344,3.99527 6.03319,3.79098 12.78548,-1.62262 1.93967,-1.55512 2.65445,-1.56343 4.47553,-0.052 1.19198,0.98924 3.45323,2.43634 5.02502,3.2158 2.20997,1.09593 2.94992,2.84565 3.26418,7.71872 0.40156,6.22664 0.35798,6.30154 -3.66666,6.30154 -2.24018,0 -4.07306,0.4818 -4.07306,1.07067 0,0.58887 1.85191,3.58887 4.11535,6.66667 4.43049,6.02453 7.37808,6.86303 12.44805,3.54105 2.65832,-1.7418 3.41511,-1.77607 4.9663,-0.22489 1.00652,1.00653 3.4263,2.23069 5.37729,2.72036 3.85881,0.96849 6.01175,6.56433 4.43585,11.52952 -0.70665,2.22648 -2.00253,2.69663 -7.43269,2.69663 -7.58016,0 -7.88157,0.73504 -4.00747,9.77294 2.74562,6.40526 5.50192,7.88902 10.57672,5.6936 2.49715,-1.08029 3.49002,-0.89062 4.81366,0.91955 0.91717,1.25432 2.53145,2.28057 3.58726,2.28057 3.37556,0 5.11968,3.04332 5.11968,8.93334 v 5.73333 h -8.85238 -8.85239 l 0.82875,7 c 0.89473,7.5572 3.70674,10.93796 8.13997,9.78632 1.42851,-0.37109 3.44251,0.0268 4.47555,0.88409 1.03302,0.85735 3.16425,2.19996 4.73604,2.98358 2.28286,1.13813 2.8578,2.62393 2.8578,7.38538 v 5.96063 l -10.25986,0.3881 -10.25984,0.38809 -0.8994,5.99763 c -0.98625,6.57676 1.58722,11.22618 6.21372,11.22618 1.30974,0 2.77503,0.63702 3.2562,1.41558 0.48119,0.77857 2.29984,1.95734 4.04146,2.6195 3.54048,1.3461 5.29158,6.2592 4.02686,11.29826 -0.78374,3.12266 -1.37776,3.33333 -9.3992,3.33333 -9.29185,0 -10.12957,-0.57605 -11.30998,-7.77717 -0.73026,-4.45488 -0.81496,-4.3602 -4.82902,5.39822 -4.34881,10.57218 -4.06176,15.71223 0.87746,15.71223 1.31132,0 2.77792,0.63701 3.25909,1.41557 0.48119,0.77858 2.23241,1.93172 3.89163,2.56255 2.21048,0.84043 3.2526,2.62185 3.89917,6.66532 0.48533,3.03509 0.53411,6.08195 0.1084,6.77079 -0.42572,0.68884 -4.86865,1.25244 -9.87319,1.25244 -10.1908,0 -11.26222,-1.10355 -9.80282,-10.09675 0.43493,-2.6802 0.1841,-4.56992 -0.60658,-4.56992 -0.74149,0 -4.43086,3.99317 -8.19858,8.87372 -8.357,10.82528 -7.91454,14.89773 2.07433,19.09191 3.15889,1.32636 5.17108,7.68352 3.79968,12.00441 -0.74876,2.35915 -1.99323,2.69663 -9.94385,2.69663 -8.26666,0 -9.15792,-0.26749 -9.86198,-2.9598 -1.0076,-3.85308 0.28738,-9.30904 2.6621,-11.21584 1.59129,-1.27776 1.53114,-1.64257 -0.39256,-2.38076 -1.4156,-0.54322 -4.06859,0.44433 -7.03919,2.62028 -2.62206,1.92063 -6.70994,4.79197 -9.08419,6.38076 -2.88027,1.92739 -4.32232,3.96937 -4.33333,6.13609 -0.018,3.52826 4.70353,9.41927 7.54924,9.41927 1.23221,0 1.76758,2.01923 1.76758,6.66667 v 6.66666 h -9.19068 c -10.1755,0 -10.75493,-0.48998 -9.80094,-8.2881 0.41009,-3.35219 1.42318,-5.2141 3.13222,-5.75652 3.36091,-1.06671 3.18924,-2.55851 -0.48718,-4.2336 -2.35664,-1.07376 -4.53571,-0.70103 -10,1.71052 -3.84271,1.69589 -7.00062,3.8674 -7.01755,4.82557 -0.0169,0.95817 2.53305,9.976 5.66667,20.03963 6.57796,21.12521 4.34784,20.08468 23.26269,10.85396 38.89824,-18.9829 71.07748,-55.7219 84.50987,-96.48479 10.64004,-32.28908 10.6186,-73.41767 -0.0549,-105.33334 -15.39367,-46.02972 -52.79238,-85.22647 -97.81081,-102.51331 -22.63118,-8.69026 -30.97681,-10.08865 -60.20936,-10.08865 -29.23255,0 -37.57817,1.39839 -60.20936,10.08865 -44.95571,17.26275 -82.43862,56.54775 -97.81084,102.51331 -7.8364,23.43217 -10.32383,57.64923 -5.92611,81.51938 8.87983,48.19837 38.24881,90.49712 79.63481,114.69423 10.85611,6.34722 26.30235,13.24914 28.2943,12.64288 0.72388,-0.22032 3.89348,-8.42988 7.04353,-18.24346 z m 51.45582,-11.27969 c 0.52203,-1.36039 -0.072,-2 -1.85735,-2 -2.62007,0 -3.41764,1.4294 -1.73593,3.11111 1.43996,1.43997 2.77244,1.02794 3.59328,-1.11111 z m -33.81551,-4 c 1.35943,-1.63801 1.26832,-2 -0.50341,-2 -1.18979,0 -2.16326,0.9 -2.16326,2 0,1.1 0.22654,2 0.50342,2 0.27686,0 1.25033,-0.9 2.16325,-2 z m 66.66667,0 c 0,-1.1 -0.97347,-2 -2.16325,-2 -1.77174,0 -1.86284,0.36199 -0.50342,2 0.91292,1.1 1.88639,2 2.16326,2 0.27688,0 0.50341,-0.9 0.50341,-2 z m -38.66667,-5.19232 c 0,-1.02245 -1.74072,-3.72245 -3.86828,-6 -5.25344,-5.62384 -11.48128,-5.69087 -16.76064,-0.18041 -4.38053,4.57229 -4.09881,4.80417 7.96225,6.55374 11.71076,1.69876 12.66667,1.67059 12.66667,-0.37333 z m 23.69659,-0.27025 c 3.86647,-0.48891 7.32771,-1.37072 7.69165,-1.9596 0.948,-1.5339 -7.82116,-7.91464 -10.84742,-7.89296 -5.30459,0.038 -8.7135,1.78149 -10.59422,5.41838 -2.98877,5.77966 -2.5252,6.96282 2.38674,6.09164 2.38333,-0.4227 7.4968,-1.16856 11.36325,-1.65746 z m -14.36988,-7.53743 c 0.004,-0.55 -2.67313,-1 -5.9484,-1 h -5.95504 l 2.86417,4.85441 2.86417,4.85442 3.08425,-3.85442 c 1.69633,-2.11993 3.08721,-4.30441 3.09085,-4.85441 z m -31.60928,-3.81336 c -2.99406,-1.11 -3.9544,-0.21019 -5.13719,4.81336 l -0.9418,4 4.23153,-3.96475 c 3.7329,-3.49754 3.9506,-4.0689 1.84746,-4.84861 z m 57.02603,2.34867 c -1.46054,-3.84152 -2.35646,-4.1988 -5.41012,-2.15756 -1.68422,1.12582 -1.37754,1.88677 1.94229,4.81938 4.30703,3.80466 5.56056,2.84247 3.46783,-2.66182 z m -93.56333,1.92092 c 1.47552,-0.93447 1.2745,-1.47588 -1,-2.69316 -2.47338,-1.32372 -2.8468,-1.16763 -2.8468,1.19002 0,2.94227 0.97367,3.32274 3.8468,1.50314 z m 21.48654,0.8683 c 0,-0.18817 0.57044,-2.33114 1.26764,-4.76214 1.21204,-4.22614 1.06505,-4.50467 -3.35082,-6.34974 -4.05976,-1.69628 -5.09,-1.68588 -8.51642,0.086 -6.26084,3.2376 -6.01692,4.53742 1.50896,8.041 6.50937,3.03036 9.09064,3.87791 9.09064,2.98488 z m 91.17221,-3.08894 c 4.12195,-1.8871 7.49446,-3.6749 7.49446,-3.9729 0,-0.29801 -2.26419,-1.69693 -5.03154,-3.10873 -4.46806,-2.27943 -5.51329,-2.36433 -9.33333,-0.75812 -2.36599,0.99481 -4.3018,2.04819 -4.3018,2.34083 0,1.01102 2.92873,8.93 3.30264,8.93 0.20631,0 3.74761,-1.54399 7.86957,-3.43108 z m 15.49446,1.43108 c 0,-1.1 -0.56459,-2 -1.25464,-2 -1.68131,0 -2.88547,2.08212 -1.82023,3.14736 1.50159,1.50157 3.07487,0.91452 3.07487,-1.14736 z m -66.77509,-48.34827 -0.1084,-44.98507 -3.2447,10 c -9.54068,29.40396 -20.70908,67.75819 -20.94063,71.91383 l -0.26452,4.74747 9.33333,1.37833 c 5.13334,0.75808 10.68334,1.50257 12.33334,1.65441 l 3,0.2761 -0.1084,-44.98507 z m 16.15107,43.04712 c 4.79014,-0.46687 9.44042,-1.30068 10.33396,-1.85293 1.219,-0.75338 0.11934,-6.47738 -4.40398,-22.92501 -7.82651,-28.4582 -18.0458,-61.57657 -19.49772,-63.18758 -0.6357,-0.70536 -1.14158,18.54648 -1.14158,43.44444 0,24.59112 0.4066,45.11772 0.90356,45.61467 0.49695,0.49696 1.84695,0.64518 3,0.32941 1.15304,-0.31579 6.01564,-0.95613 10.80576,-1.423 z m -70.64311,-4.06643 c 4.90943,-2.53876 4.9185,-3.47578 0.0615,-6.34494 -5.28499,-3.12189 -5.46101,-3.02371 -5.46101,3.04585 0,6.04584 0.0403,6.07047 5.39954,3.29909 z m 115.93379,-3.346 c 0,-5.15201 -0.12733,-5.31419 -3,-3.82309 -6.29984,3.26995 -6.64273,4.11095 -2.70497,6.63425 5.29003,3.38984 5.70497,3.18538 5.70497,-2.81116 z m -122.92333,-1.48402 c -0.33087,-4.46347 -1.31067,-6.25709 -5.07667,-9.29333 -4.49004,-3.61998 -4.88777,-3.69701 -10.50856,-2.03524 l -5.8419,1.72714 5.8419,4.66092 c 8.32039,6.6384 13.67309,10.38033 14.91856,10.4292 0.59216,0.0232 0.89216,-2.44668 0.66667,-5.48869 z m 136.47701,-1.39712 c 5.01215,-3.81045 9.11299,-7.33746 9.11299,-7.83783 0,-0.50036 -2.48497,-1.54051 -5.52217,-2.31143 -5.06564,-1.2858 -5.89238,-1.10631 -9.99996,2.17115 -3.81864,3.04689 -4.4778,4.40698 -4.47783,9.23949 -3e-5,3.11667 0.39912,5.66667 0.88697,5.66667 0.48786,0 4.98786,-3.11763 10,-6.92805 z m -99.41168,-31.61958 c 6.16396,-19.36785 10.97748,-35.444 10.69672,-35.72476 -0.28076,-0.28077 -7.85824,12.26567 -16.83884,27.88095 -8.9806,15.61529 -17.48628,30.31376 -18.90152,32.66326 l -2.57316,4.27183 6.40407,3.34991 c 3.52224,1.84244 7.2144,3.22012 8.2048,3.06149 1.11068,-0.17788 6.09534,-13.78255 13.00793,-35.50268 z m 71.82234,32.9486 c 3.31961,-1.61278 6.03566,-3.44967 6.03566,-4.08193 0,-1.36463 -34.25101,-61.06422 -36.11888,-62.95527 -0.82238,-0.8326 -0.8199,0.13 0.007,2.66667 0.71159,2.18325 5.56233,17.46956 10.77944,33.96956 5.21712,16.5 9.73239,30.75 10.03393,31.66667 0.76279,2.31873 2.32435,2.10536 9.26298,-1.2657 z m -136.03936,-4.55668 c 1.65875,-0.63653 1.79716,-1.23919 0.61246,-2.66667 -2.18695,-2.63512 -3.87078,-2.27737 -3.87078,0.82238 0,2.94138 0.16135,3.03271 3.25832,1.84429 z m 183.40836,-1.09893 c 0,-2.8238 -2.13528,-3.65887 -3.90457,-1.52702 -1.17652,1.41763 -1.13351,2.01879 0.18225,2.54674 2.94444,1.18142 3.72232,0.96832 3.72232,-1.01972 z M 241.06132,342.33335 c 20.92952,-35.45506 33.60536,-58.03815 33.60536,-59.87078 0,-0.97652 -14.7,12.91534 -32.66667,30.87078 -17.96667,17.95544 -32.66667,33.28801 -32.66667,34.07238 0,0.78438 1.88158,2.88896 4.18127,4.67687 8.96967,6.97352 13.85479,10.47716 14.68123,10.52948 0.47437,0.03 6.26384,-9.0954 12.86548,-20.27873 z M 347.52,356.89813 c 13.14707,-9.70638 15.08279,-5.86345 -21.13981,-41.96808 -17.74476,-17.68696 -32.50842,-31.91291 -32.80812,-31.6132 -1.10716,1.10716 43.53238,79.32415 45.28126,79.34142 0.46934,0.004 4.36934,-2.58743 8.66667,-5.76014 z m -140.23514,-3.7551 c 0.79986,-0.7342 -0.0656,-2.52988 -2.29293,-4.75716 -4.14336,-4.14336 -4.81923,-3.81647 -5.90176,2.8544 -0.7866,4.84724 -0.75123,4.89345 3.05701,3.99306 2.11906,-0.50102 4.43102,-1.44165 5.13768,-2.0903 z m 161.34729,-1.47635 c -1.34585,-6.38721 -2.38092,-6.77065 -6.54484,-2.42445 l -3.76179,3.92646 4.50391,1.29542 c 6.70381,1.92813 6.78972,1.88672 5.80272,-2.79743 z m -170.70357,-4.42156 c 0.73799,-3.93376 0.27871,-5.59569 -2.58336,-9.34805 -3.05103,-4.0001 -4.21935,-4.56372 -9.45999,-4.56372 -5.30373,0 -5.83132,0.26354 -4.67104,2.33333 2.98311,5.32149 13.64574,17.70461 14.68938,17.0596 0.6201,-0.38325 1.53137,-2.84976 2.02501,-5.48116 z m 181.81005,-3.02476 c 3.81043,-5.01215 6.92805,-9.51215 6.92805,-10 0,-0.48785 -2.60417,-0.88701 -5.78705,-0.88701 -5.11264,0 -6.18123,0.554 -9.16944,4.75381 -3.00491,4.22328 -3.23377,5.33929 -2.05076,10 0.73239,2.8854 1.74101,5.24619 2.24137,5.24619 0.50038,0 4.02739,-4.10084 7.83783,-9.11299 z M 228.59349,324.23171 c 29.55211,-28.95438 45.9216,-46.20726 42.73985,-45.04638 -6.72641,2.4542 -79.33333,45.34263 -79.33333,46.86168 0,0.94244 2.55,4.84662 5.66666,8.67594 3.11667,3.82932 6.26361,7.78318 6.99319,8.7864 0.72958,1.0032 1.56723,1.824 1.86143,1.824 0.29421,0 10.22669,-9.49574 22.0722,-21.10164 z M 368.972,335.899 c 3.83459,-4.71111 6.7872,-9.16565 6.56134,-9.89899 -0.76306,-2.47757 -79.24886,-48.06224 -80.53579,-46.77531 -1.10222,1.10222 63.9618,66.23123 65.62381,65.68941 0.75827,-0.2472 4.51606,-4.304 8.35064,-9.01511 z m -194.32574,0.43435 c -0.0107,-0.55 -0.61123,-1.9 -1.33333,-3 -1.14259,-1.74054 -1.47448,-1.74879 -2.55828,-0.0637 -0.68495,1.06499 -0.94954,2.41499 -0.58798,3 0.83287,1.34762 4.50687,1.39983 4.47959,0.0637 z m 222.43326,-1.33334 c -0.54124,-2.81045 -2.90757,-2.63324 -3.5106,0.26291 -0.25153,1.20797 0.48346,2.07043 1.76443,2.07043 1.37328,0 2.02724,-0.87387 1.74617,-2.33334 z m -207.75497,-5.33333 c -0.005,-0.55 -1.11633,-2.67975 -2.47001,-4.73276 l -2.46123,-3.73277 -1.95965,3.0661 c -4.16035,6.50934 -4.18589,6.39943 1.48765,6.39943 2.97662,0 5.40807,-0.45 5.40324,-1 z m 198.66668,0 c -0.005,-0.55 -1.11633,-2.67975 -2.47001,-4.73276 l -2.46123,-3.73277 -1.95965,3.0661 c -4.16035,6.50934 -4.1859,6.39943 1.48765,6.39943 2.97661,0 5.40807,-0.45 5.40324,-1 z m -207.30296,-7.04791 c 2.28391,-5.06478 2.29624,-5.65464 0.20963,-10.03029 -2.06567,-4.33177 -6.49183,-7.25513 -10.98469,-7.25513 -1.05226,0 -1.9132,0.6417 -1.9132,1.42602 0,2.43907 8.19246,21.24064 9.25525,21.24064 0.55353,0 2.09839,-2.42156 3.43301,-5.38124 z m 215.39851,-6.61244 c 2.17902,-5.3545 3.71224,-9.98509 3.40713,-10.2902 -0.30511,-0.3051 -2.78071,-0.13714 -5.50135,0.37326 -4.13676,0.77605 -5.34309,1.81358 -7.36844,6.33733 -2.36484,5.28205 -2.35892,5.53267 0.25172,10.64996 3.24134,6.35352 3.97826,5.78785 9.21094,-7.07035 z m -175.94752,-9.78002 c 37.72571,-21.6235 50.52742,-29.33533 50.52742,-30.43799 0,-0.49868 -1.95,-0.38907 -4.33334,0.24357 -39.18433,10.40131 -80.39159,21.64307 -83.07877,22.66474 -3.93155,1.49477 -3.84664,2.09677 2.19526,15.56302 2.07459,4.62387 4.27476,8.40703 4.88927,8.40703 0.61451,0 14.02458,-7.39816 29.80016,-16.44037 z m 162.403,6.53306 c 3.80816,-9.1476 5.03777,-14.09269 3.50418,-14.09269 -0.34112,0 -19.60053,-5.13395 -42.79868,-11.40877 -23.19815,-6.27482 -43.42253,-11.22482 -44.94308,-11.00001 -1.82055,0.26919 10.85959,8.22777 37.13201,23.30563 21.94316,12.59326 40.59067,22.94326 41.4389,23 0.84824,0.0568 3.39824,-4.35514 5.66667,-9.80416 z m -221.75457,-9.59148 c -0.6842,-1.78297 -1.22672,-1.92884 -2.48691,-0.66865 -1.2602,1.2602 -1.18637,1.87476 0.33843,2.81713 2.48281,1.53447 3.26254,0.75475 2.14848,-2.14848 z m 248.38315,2.29411 c 1.01062,-0.64012 1.4252,-1.83092 0.92131,-2.64625 -1.40616,-2.2752 -3.03987,-1.76763 -3.8118,1.18426 -0.75529,2.88827 0.0197,3.28028 2.89049,1.46199 z m -232.56658,-5.99241 c -0.49556,-2.6416 -1.322,-4.80291 -1.83652,-4.80291 -0.51452,0 -2.59271,1.72976 -4.6182,3.84392 l -3.68271,3.84392 5.09992,1.2656 c 2.80496,0.69608 5.28862,1.12763 5.51923,0.95899 0.23063,-0.16863 0.0139,-2.46792 -0.48172,-5.10952 z m 223.12177,2.58218 c 0.7826,-0.7826 -4.94044,-7.38509 -6.40139,-7.38509 -0.48246,0 -1.54413,2.17303 -2.35925,4.82896 l -1.48205,4.82895 4.75688,-0.77194 c 2.61628,-0.42456 5.08489,-1.09996 5.48581,-1.50088 z M 173.68119,284.88343 c -0.51214,-3.92969 -1.63504,-5.70699 -4.84066,-7.66169 -2.29563,-1.3998 -4.71002,-2.54734 -5.36532,-2.55008 -1.20254,-0.005 -0.19964,15.27191 1.38637,21.11837 0.8462,3.11936 0.85281,3.11765 5.16687,-1.33334 3.73404,-3.85257 4.22917,-5.15024 3.65274,-9.57326 z m 230.25473,2.42093 c 1.75646,-12.1543 1.73626,-12.63768 -0.52822,-12.63768 -3.68395,0 -8.81354,5.89009 -9.63802,11.06695 -0.69094,4.33842 -0.26398,5.63369 2.96956,9.00878 2.0771,2.16802 4.24354,3.47484 4.81431,2.90407 0.57077,-0.57077 1.64285,-5.22473 2.38237,-10.34212 z m -186.12467,0.0851 c 20.63715,-5.46919 40.82209,-10.97513 44.85543,-12.23546 l 7.33333,-2.29149 -7.2118,-1.11742 c -3.96649,-0.61458 -24.96649,-0.95864 -46.66667,-0.76457 l -39.45487,0.35285 0.0851,6.66667 c 0.10013,7.85706 1.76697,19.33334 2.80793,19.33334 0.40124,0 17.61448,-4.47478 38.25163,-9.94394 z m 170.73587,7.6106 c 1.422,-4.56515 3.46183,-21.90687 2.71831,-23.1099 -0.43048,-0.69655 -17.29085,-1.22345 -39.14852,-1.22345 -38.89804,0 -56.56238,0.90844 -53.25299,2.73868 0.99152,0.54836 15.60276,4.65538 32.46943,9.12673 16.86666,4.47135 36.06667,9.58686 42.66667,11.36779 14.75057,3.98028 13.6753,3.89897 14.5471,1.10013 z M 171.53749,265.75972 c -0.86174,-0.86174 -7.53748,3.58234 -7.53748,5.01772 0,0.62557 1.65,2.00677 3.66666,3.06933 3.64996,1.92313 3.66859,1.91057 4.08847,-2.75784 0.23199,-2.57937 0.13404,-4.97752 -0.21765,-5.32921 z m 228.59014,7.95281 c 2.12981,-1.25811 3.87239,-2.62875 3.87239,-3.04585 0,-0.81816 -7.22914,-5.33334 -8.53906,-5.33334 -0.43685,0 -0.79428,2.4 -0.79428,5.33334 0,6.06956 0.17603,6.16773 5.46095,3.04585 z m -244.12762,-4.37919 c 0,-0.73333 -0.26459,-1.33333 -0.58798,-1.33333 -0.32338,0 -0.9588,0.6 -1.41202,1.33333 -0.45323,0.73334 -0.18864,1.33334 0.58797,1.33334 0.77661,0 1.41203,-0.6 1.41203,-1.33334 z m 258.00001,0 c -0.45323,-0.73333 -1.38864,-1.33333 -2.0787,-1.33333 -0.69005,0 -1.25464,0.6 -1.25464,1.33333 0,0.73334 0.93542,1.33334 2.0787,1.33334 1.14328,0 1.70786,-0.6 1.25464,-1.33334 z m -144.66668,-1.02157 c 0,-1.0394 -89.24292,-24.84661 -90.06343,-24.02611 -0.71349,0.71348 -3.24873,17.34203 -3.25984,21.38102 l -0.0101,3.66666 h 46.66667 c 25.66666,0 46.66666,-0.4597 46.66666,-1.02157 z m 122.15289,-3.97843 c -0.41149,-2.75 -1.11748,-7.75073 -1.56884,-11.11274 -0.45136,-3.362 -1.27029,-6.84026 -1.81984,-7.72943 -0.74675,-1.20827 -7.53797,0.0997 -26.88168,5.17769 -44.6806,11.72907 -60.50795,16.19711 -61.81586,17.45056 -0.76241,0.73067 17.46367,1.21392 45.78387,1.21392 h 47.05054 z m 12.58003,-8.43493 c -0.76478,-6.09912 -1.92328,-11.62211 -2.57448,-12.27331 -0.68978,-0.68977 -2.70239,0.80671 -4.82155,3.58508 -4.97451,6.52191 -3.91223,12.73004 2.97957,17.41314 2.67591,1.81833 5.07716,3.09418 5.33611,2.83524 0.25896,-0.25895 -0.15489,-5.46102 -0.91965,-11.56015 z m -235.22573,8.2132 c 3.21157,-1.95833 4.3248,-3.72471 4.8286,-7.66168 0.55826,-4.36261 0.0475,-5.7598 -3.46606,-9.48155 -3.9749,-4.2104 -4.15774,-4.2651 -5.16392,-1.54514 -1.65241,4.46686 -2.88782,21.244 -1.56394,21.23845 0.6553,-0.003 3.06969,-1.15028 5.36532,-2.55008 z m 101.82615,0.65455 c 0,-0.31196 -11.85,-7.42775 -26.33334,-15.81287 -41.70257,-24.14369 -52.6448,-30.28661 -53.9488,-30.28661 -1.29149,0 -8.32797,14.65421 -9.74232,20.28938 -0.71819,2.86152 -0.30031,3.45892 2.92665,4.18388 2.07046,0.46515 21.46447,5.6102 43.09781,11.43346 36.94801,9.94565 44,11.57928 44,10.19276 z m 57.92017,-6.91519 c 57.65754,-15.36389 58.79071,-15.72328 58.29854,-18.48929 -0.24637,-1.38466 -2.29631,-6.65132 -4.55541,-11.70371 -3.13814,-7.01832 -4.64528,-9.04552 -6.38646,-8.59019 -1.86849,0.48863 -61.05227,34.33044 -76.34001,43.65192 -6.8472,4.17499 -1.72983,3.31535 28.98334,-4.86873 z m -88.58684,-29.18429 c -17.95544,-17.96667 -33.02901,-32.66667 -33.49684,-32.66667 -1.29589,0 -14.50435,17.47412 -14.49474,19.17579 0.004,0.81998 1.65464,2.45908 3.66667,3.64242 38.35394,22.55746 73.85758,42.51512 75.63212,42.51512 0.73648,0 -13.35177,-14.7 -31.30721,-32.66666 z m 92.52318,12.87322 c 17.67892,-10.11894 34.71496,-20.02608 37.85787,-22.01584 l 5.71437,-3.61774 -2.38104,-4.1334 c -1.30957,-2.27338 -4.83764,-6.87332 -7.84015,-10.22211 l -5.45909,-6.08871 -30.61046,30.6023 c -16.83576,16.83125 -31.47916,31.76461 -32.5409,33.18525 -1.75836,2.35273 -1.70552,2.49853 0.59273,1.63567 1.38776,-0.52103 16.98776,-9.22646 34.66667,-19.34542 z m -76.9387,-17.74145 c -11.32803,-19.32248 -21.92799,-37.38178 -23.55548,-40.13178 -1.62749,-2.75 -3.29896,-5 -3.71437,-5 -1.6661,0 -18.9813,13.95479 -18.9813,15.29752 0,1.9606 65.08383,66.72977 66.06651,65.74709 0.42957,-0.42958 -8.48733,-16.59035 -19.81536,-35.91283 z m 77.14218,-2.94463 26.09693,-26.85381 -5.99809,-5.33334 c -3.29896,-2.93333 -7.81319,-6.4048 -10.03162,-7.71437 l -4.03352,-2.38104 -3.62617,5.71437 c -7.31495,11.5274 -43.13419,73.59025 -43.13419,74.73719 0,2.34972 15.1316,-11.83161 40.72666,-38.169 z m -65.45315,-8.41028 c -6.34806,-23.34395 -11.9435,-43.17229 -12.43431,-44.063 -0.6504,-1.18033 -3.72719,-0.38713 -11.34643,2.92508 -5.74972,2.49949 -10.78522,4.87572 -11.19,5.28049 -1.16332,1.16332 1.34474,5.8955 22.65603,42.74723 21.43273,37.06174 22.69175,39.04835 23.40017,36.92307 0.25106,-0.75313 -4.73741,-20.46893 -11.08546,-43.81287 z m 15.39316,-1.77686 v -46.66667 l -7,0.0319 c -6.92975,0.0315 -16.52056,1.71098 -17.95348,3.1439 -0.66011,0.6601 21.70546,86.67687 23.18224,89.15763 0.3274,0.55 0.85988,1 1.18326,1 0.32339,-6e-5 0.58798,-21.00006 0.58798,-46.66672 z m 12.12339,16 c 3.7798,-14.3 8.8725,-33.48055 11.31712,-42.62345 3.22385,-12.05725 4.02021,-16.8858 2.89921,-17.57862 -1.58357,-0.97871 -9.53063,-2.13575 -19.00639,-2.76723 l -5.33333,-0.35541 -0.38528,42.66235 c -0.38668,42.81848 0.21613,54.70334 2.50204,49.32902 0.62384,-1.46666 4.22681,-14.36666 8.00663,-28.66666 z m -1.23388,24.99761 c 6.70196,-10.67493 42.44382,-73.20715 42.44382,-74.25766 0,-1.43192 -18.05225,-9.40662 -21.29368,-9.40662 -1.94217,0 -2.97912,1.43948 -4.08205,5.66666 -2.17069,8.31956 -21.26209,78.59993 -22.09391,81.33334 -1.28354,4.21784 1.40296,2.43476 5.02582,-3.33572 z M 176.8531,240.06789 c 0.7876,-3.93799 0.60444,-4.40084 -1.4322,-3.61931 -1.28441,0.49287 -3.81981,1.26872 -5.63423,1.72411 l -3.29892,0.82799 3.68067,3.84178 c 4.12341,4.30392 5.37268,3.78539 6.68468,-2.77457 z m 220.40214,3.06191 c 3.2021,-4.0708 3.17118,-4.14459 -2.40748,-5.74452 -4.51633,-1.29527 -5.08474,-0.2265 -3.34069,6.2814 1.04689,3.90648 2.34867,3.78489 5.74817,-0.53688 z m -219.06535,-9.99463 c 0.83777,-0.67296 2.26934,-3.02487 3.18126,-5.22645 1.40447,-3.39068 1.29348,-4.81136 -0.72572,-9.28914 -1.31106,-2.90742 -2.83664,-5.28624 -3.39017,-5.28624 -1.09019,0 -9.25525,18.83215 -9.25525,21.34659 0,1.70701 7.57049,0.55936 10.18988,-1.54476 z m 221.06525,-0.13516 c -1.41964,-4.60625 -8.34216,-19.66667 -9.0398,-19.66667 -0.34023,0 -1.86678,2.11554 -3.39235,4.70118 -2.62303,4.44569 -2.66012,4.9852 -0.68261,9.92748 2.04306,5.10614 5.81301,7.68066 11.61616,7.93274 1.91152,0.0831 2.22794,-0.5282 1.4986,-2.89473 z m -209.93059,-22 c 0.006,-1.05701 -1.94208,-1.66667 -5.32454,-1.66667 -2.93334,0 -5.33334,0.37918 -5.33334,0.84263 0,0.46344 1.27759,2.9098 2.8391,5.43636 l 2.83909,4.59375 2.48545,-3.7697 c 1.367,-2.07334 2.48942,-4.5197 2.49424,-5.43637 z m 196.52212,4.38024 c 3.24356,-4.95029 2.66685,-6.04691 -3.17999,-6.04691 -6.06956,0 -6.16773,0.17603 -3.04585,5.46095 2.78628,4.7168 3.47664,4.78177 6.22584,0.58596 z M 195.4489,203.30034 c 3.04332,-3.98999 3.40289,-5.33324 2.38125,-8.89553 -0.66185,-2.30774 -1.87457,-4.41962 -2.69494,-4.69307 -1.67411,-0.55804 -13.77654,14.0274 -13.79196,16.6216 -0.007,1.05366 1.92678,1.66667 5.25557,1.66667 4.45785,0 5.81529,-0.72084 8.85008,-4.69967 z m 191.21778,3.48607 c 0,-1.45533 -9.2901,-13.35064 -12.47738,-15.9764 -2.67664,-2.20508 -3.2369,-1.78864 -4.76586,3.54253 -0.95729,3.33787 -0.56185,4.89007 2.2541,8.84775 3.02317,4.24895 4.0791,4.79972 9.20209,4.79972 3.18288,0 5.78705,-0.54612 5.78705,-1.2136 z M 207.0088,187.83649 c -1.75108,-1.70304 -8.34213,-2.87318 -8.34213,-1.48103 0,0.72117 0.38179,3.22012 0.8484,5.55323 l 0.8484,4.242 3.82706,-3.66655 c 2.10488,-2.0166 3.37311,-4.10805 2.81827,-4.64765 z m 162.26442,-0.94243 c 0.0443,-1.30625 -1.0799,-1.52809 -4.2732,-0.8432 -6.61257,1.41825 -6.84491,1.93584 -2.77601,6.18397 l 3.77601,3.94231 1.60653,-3.75523 c 0.88359,-2.06538 1.63359,-4.5529 1.66667,-5.52785 z m -148.7783,-8.52961 c 0.83144,-1.3181 0.85473,-3.65264 0.064,-6.40984 l -1.24375,-4.33668 -8.56267,6.57298 c -4.70946,3.61515 -8.78331,7.23491 -9.05297,8.04391 -0.26967,0.80901 1.78763,2.04499 4.57176,2.74661 4.32781,1.09064 5.63167,0.85363 8.98899,-1.63406 2.15981,-1.60036 4.51541,-3.84267 5.23465,-4.98292 z m 145.97844,4.91164 c 1.00382,-0.94371 -16.88743,-15.27608 -19.06928,-15.27608 -0.40557,0 -0.7374,2.60417 -0.7374,5.78705 0,5.12004 0.55169,6.17959 4.78657,9.19275 4.21,2.99546 5.37442,3.24522 9.66667,2.07349 2.68405,-0.73272 5.09311,-1.53245 5.35344,-1.77721 z m -138.14002,-8.53288 c 4.38796,-2.19946 4.5985,-3.48402 0.89582,-5.46563 -4.07715,-2.18203 -6.56248,-0.6198 -6.56248,4.12503 0,2.28412 0.45,3.9337 1,3.66573 0.55,-0.26799 2.65,-1.31429 4.66666,-2.32513 z m 114.73643,-6.87344 c -0.61846,-0.61847 -2.80025,-0.0252 -4.8484,1.31836 l -3.72392,2.44286 4.41795,2.80998 4.41795,2.80998 0.43045,-4.12834 c 0.23676,-2.2706 -0.0756,-4.63438 -0.69403,-5.25284 z m -100.26179,-0.0696 c 2.40927,-0.87398 3.94234,-2.8215 5,-6.35166 0.83895,-2.80016 1.52536,-5.43926 1.52536,-5.86469 0,-0.42541 -3.2023,0.32827 -7.11622,1.67485 -7.23014,2.48752 -15.55044,6.39948 -15.55044,7.31134 0,1.50453 8.97274,5.94392 10.66666,5.27746 1.1,-0.43277 3.56359,-1.35406 5.47464,-2.0473 z m 93.40379,0.0919 c 3.48956,-1.78024 4.9783,-3.23525 4.15384,-4.0597 -1.48677,-1.48678 -20.80236,-9.1733 -21.44266,-8.53298 -0.23552,0.23552 -0.0187,2.61158 0.482,5.28012 0.71045,3.78703 1.97301,5.41348 5.75264,7.41066 5.9688,3.15392 4.65686,3.16557 11.05418,-0.0981 z m -80.48551,-4.35353 4.39292,-1.59203 -3.89661,-3.7332 -3.89663,-3.7332 -1.4963,4.2923 c -2.52651,7.24757 -2.37024,7.39968 4.89662,4.76613 z m 61.04006,-4.14293 c -0.48793,-2.60092 -1.27128,-4.7289 -1.74079,-4.7289 -1.26385,0 -7.02552,5.62672 -7.02552,6.86096 0,1.0644 8.23116,3.7606 9.16006,3.00047 0.27136,-0.22207 0.0941,-2.53173 -0.39375,-5.13259 z m -40.63459,-2.20319 c 2.12756,-2.27755 3.86828,-4.74313 3.86828,-5.47907 0,-0.82192 -3.88305,-1.14197 -10.06673,-0.8297 -11.68244,0.58993 -14.22426,2.5489 -9.63948,7.42917 4.27796,4.55368 10.98048,4.07953 15.83793,-1.1204 z m 31.68028,1.0078 c 2.71307,-2.88793 2.77066,-3.27665 0.73554,-4.96565 -2.28372,-1.89539 -20.54754,-3.60552 -20.54754,-1.92404 0,2.15048 4.67003,8.63474 6.59255,9.15366 5.68313,1.53399 10.41231,0.72406 13.21945,-2.26402 z m -18.48529,0.79983 c -0.004,-0.55 -1.42487,-2.77254 -3.15828,-4.93898 l -3.15166,-3.93896 -2.17505,4.20608 c -1.19628,2.31336 -2.17505,4.5359 -2.17505,4.93898 0,0.40308 2.4,0.73288 5.33333,0.73288 2.93334,0 5.33035,-0.45 5.32671,-1 z"
         id="path1559" />
    </g>
  </g>
</svg>
