<?xml version="1.0" encoding="UTF-8" standalone="no"?>
<svg
   xmlns:dc="http://purl.org/dc/elements/1.1/"
   xmlns:cc="http://creativecommons.org/ns#"
   xmlns:rdf="http://www.w3.org/1999/02/22-rdf-syntax-ns#"
   xmlns:svg="http://www.w3.org/2000/svg"
   xmlns="http://www.w3.org/2000/svg"
   xmlns:sodipodi="http://sodipodi.sourceforge.net/DTD/sodipodi-0.dtd"
   xmlns:inkscape="http://www.inkscape.org/namespaces/inkscape"
   version="1.1"
   id="Capa_1"
   x="0px"
   y="0px"
   viewBox="0 0 468.492 468.492"
   style="enable-background:new 0 0 468.492 468.492;"
   xml:space="preserve"
   sodipodi:docname="Kundgebung.svg"
   inkscape:version="1.0.1 (1.0.1+r75)"><metadata
   id="metadata44"><rdf:RDF><cc:Work
       rdf:about=""><dc:format>image/svg+xml</dc:format><dc:type
         rdf:resource="http://purl.org/dc/dcmitype/StillImage" /></cc:Work></rdf:RDF></metadata><defs
   id="defs42" /><sodipodi:namedview
   pagecolor="#ffffff"
   bordercolor="#666666"
   borderopacity="1"
   objecttolerance="10"
   gridtolerance="10"
   guidetolerance="10"
   inkscape:pageopacity="0"
   inkscape:pageshadow="2"
   inkscape:window-width="1848"
   inkscape:window-height="1016"
   id="namedview40"
   showgrid="false"
   inkscape:zoom="1.3010383"
   inkscape:cx="175.48899"
   inkscape:cy="211.95886"
   inkscape:window-x="72"
   inkscape:window-y="27"
   inkscape:window-maximized="1"
   inkscape:current-layer="Capa_1" />
<g
   id="XMLID_193_"
   style="fill:#7e007e;fill-opacity:1">
	<path
   id="XMLID_199_"
   d="m 271.765,249.637 c 5.93,-2.704 8.533,-9.698 5.822,-15.628 l -39.345,-86.144 c -2.421,-5.331 -7.416,-7.047 -13.454,-7.047 h -42.193 c -6.037,0 -11.217,1.801 -13.561,7.271 l -24.467,56.551 13.191,28.888 12.501,-28.904 c 0,32.864 -0.03,52.858 -0.03,56.222 l 16.763,36.725 c 5.546,12.158 0.184,26.515 -11.966,32.069 -1.564,0.712 -3.173,1.225 -4.797,1.592 v 17.75 c 0,7.813 6.344,14.148 14.156,14.148 7.815,0 14.158,-6.336 14.158,-14.148 v -84.353 h 10.311 v 84.353 c 0,7.813 6.344,14.148 14.158,14.148 7.813,0 14.156,-6.336 14.156,-14.148 0,-69.997 -0.045,-139.379 -0.045,-146.795 l 19.013,41.628 c 2.699,5.907 9.669,8.542 15.629,5.822 z"
   style="fill:#7e007e;fill-opacity:1" />
	<path
   id="XMLID_198_"
   d="m 203.83,136.55 c 16.455,0 29.77,-13.314 29.77,-29.746 0,-16.44 -13.315,-29.754 -29.77,-29.754 -16.409,0 -29.754,13.314 -29.754,29.754 0,16.432 13.345,29.746 29.754,29.746 z"
   style="fill:#7e007e;fill-opacity:1" />
	<path
   id="XMLID_197_"
   d="m 176.558,302.335 -42.426,-92.947 c -2.649,-5.791 -8.12,-7.614 -14.539,-7.614 H 75.115 L 46.556,180.377 25.29,129.61 47.001,82.405 c 20.623,26.23 66.234,-1.839 82.812,33.232 C 138.301,97.175 146.79,78.728 155.278,60.258 138.699,25.194 93.088,53.278 72.45,27.04 L 77.536,15.986 C 79.083,12.631 77.613,8.647 74.258,7.107 70.856,5.537 66.934,7.03 65.371,10.394 l -50.5,109.831 c -2.328,-0.406 -4.733,-0.406 -7.062,0.582 -6.481,2.712 -9.531,10.166 -6.819,16.654 l 24.76,59.126 35.023,26.238 c 0,97.382 -0.06,62.55 -0.06,203.537 0,8.435 6.849,15.267 15.276,15.267 8.427,0 15.275,-6.832 15.275,-15.267 v -90.994 h 11.139 v 90.994 c 0,8.435 6.849,15.267 15.275,15.267 8.427,0 15.274,-6.832 15.274,-15.267 0,-84.796 -0.045,-130.775 -0.045,-158.332 l 20.485,44.877 c 2.926,6.404 10.479,9.192 16.867,6.288 6.391,-2.917 9.211,-10.464 6.299,-16.86 z"
   style="fill:#7e007e;fill-opacity:1" />
	<path
   id="XMLID_196_"
   d="m 336.361,208.362 c 17.113,0 30.98,-13.874 30.98,-30.996 0,-17.122 -13.867,-30.988 -30.98,-30.988 -17.115,0 -30.98,13.866 -30.98,30.988 0,17.122 13.865,30.996 30.98,30.996 z"
   style="fill:#7e007e;fill-opacity:1" />
	<path
   id="XMLID_195_"
   d="m 96.842,136.55 c -16.44,0 -29.754,13.308 -29.754,29.754 0,16.425 13.313,29.747 29.754,29.747 16.424,0 29.753,-13.322 29.753,-29.747 0,-16.447 -13.33,-29.754 -29.753,-29.754 z"
   style="fill:#7e007e;fill-opacity:1" />
	<path
   id="XMLID_194_"
   d="m 443.227,5.698 c -37.355,-10.373 -45.935,42.486 -79.274,40.97 l -5.039,-11.062 c -1.549,-3.371 -5.561,-4.857 -8.872,-3.31 -3.37,1.532 -4.855,5.5 -3.324,8.871 l 52.246,114.619 -8.748,28.506 -31.134,30.023 h -46.424 c -4.733,0 -13.16,3.577 -15.49,9.889 l -36.863,99.827 c -2.543,6.864 0.966,14.487 7.83,17.022 6.925,2.551 14.494,-1.004 17.021,-7.845 l 13.651,-36.97 c 0,7.898 -0.046,30.329 -0.046,152.002 0,8.788 7.125,15.904 15.903,15.904 8.779,0 15.903,-7.116 15.903,-15.904 v -94.777 h 11.584 v 94.777 c 0,8.788 7.124,15.904 15.903,15.904 8.778,0 15.903,-7.116 15.903,-15.904 0,-152.509 -0.03,-58.896 -0.03,-211.434 l 37.14,-35.814 c 1.623,-1.556 2.819,-3.502 3.478,-5.646 l 13.834,-45.076 c 2.145,-7.001 -1.777,-14.417 -8.779,-16.562 -5.301,-1.647 -10.771,0.191 -14.079,4.175 l -16.287,-35.76 c 33.339,1.509 41.903,-51.342 79.257,-40.977 C 460.065,42.668 451.654,24.183 443.227,5.698 Z"
   style="fill:#7e007e;fill-opacity:1" />
</g>
<g
   id="g9">
</g>
<g
   id="g11">
</g>
<g
   id="g13">
</g>
<g
   id="g15">
</g>
<g
   id="g17">
</g>
<g
   id="g19">
</g>
<g
   id="g21">
</g>
<g
   id="g23">
</g>
<g
   id="g25">
</g>
<g
   id="g27">
</g>
<g
   id="g29">
</g>
<g
   id="g31">
</g>
<g
   id="g33">
</g>
<g
   id="g35">
</g>
<g
   id="g37">
</g>
</svg>
