<?xml version="1.0" encoding="UTF-8" standalone="no"?>
<!-- Created with Inkscape (http://www.inkscape.org/) -->

<svg
   version="1.1"
   id="svg952"
   width="567.03998"
   height="567.03998"
   viewBox="0 0 567.03998 567.03998"
   sodipodi:docname="plakathängt.svg"
   inkscape:version="1.1 (c68e22c387, 2021-05-23)"
   xmlns:inkscape="http://www.inkscape.org/namespaces/inkscape"
   xmlns:sodipodi="http://sodipodi.sourceforge.net/DTD/sodipodi-0.dtd"
   xmlns="http://www.w3.org/2000/svg"
   xmlns:svg="http://www.w3.org/2000/svg">
  <defs
     id="defs956" />
  <sodipodi:namedview
     id="namedview954"
     pagecolor="#ffffff"
     bordercolor="#666666"
     borderopacity="1.0"
     inkscape:pageshadow="2"
     inkscape:pageopacity="0.0"
     inkscape:pagecheckerboard="0"
     showgrid="false"
     inkscape:zoom="1.4672687"
     inkscape:cx="101.54923"
     inkscape:cy="283.86076"
     inkscape:window-width="1920"
     inkscape:window-height="1017"
     inkscape:window-x="-8"
     inkscape:window-y="-8"
     inkscape:window-maximized="1"
     inkscape:current-layer="g962" />
  <g
     inkscape:groupmode="layer"
     inkscape:label="Image"
     id="g958">
    <g
       id="g962"
       style="fill:#800080">
      <path
         id="path966"
         style="display:inline;fill:#800080;fill-opacity:1;stroke-width:0.32"
         d="M 293.75977 170.21094 C 289.0435 170.21094 284.32725 170.37934 281.16992 170.71484 C 260.63648 172.89674 240.84531 180.23449 224.125 191.86719 C 212.77945 199.76054 201.3995 211.12747 193.51562 222.43945 C 181.84982 239.17783 174.52058 258.96341 172.28906 279.74219 C 171.58857 286.26484 171.58857 298.05548 172.28906 304.57812 C 174.52042 325.35548 181.80182 345.02539 193.46875 361.79492 C 201.39748 373.1913 212.7286 384.52247 224.125 392.45117 C 242.76793 405.42151 265.50265 413.14649 287.67969 414.04297 C 309.92478 414.9422 329.86009 410.72266 348.7832 401.11133 C 360.91494 394.94944 370.29216 388.13556 380.01367 378.41406 C 389.74119 368.6865 396.54793 359.31737 402.7207 347.16406 C 409.44572 333.92342 413.6083 319.75275 415.22852 304.57812 C 415.92717 298.03548 415.92948 286.23397 415.23242 279.74219 C 413.00154 258.96482 405.67171 239.17792 394.00586 222.43945 C 386.12195 211.12747 374.74007 199.76054 363.39453 191.86719 C 346.67421 180.23449 326.88304 172.89674 306.34961 170.71484 C 303.19228 170.37934 298.47603 170.21094 293.75977 170.21094 z M 304.64062 185.51172 L 306.74414 185.72656 C 320.34326 187.11983 336.15788 192.51936 348.6543 200.0332 C 366.42079 210.71586 381.13845 226.67725 390.08203 244.96484 C 395.46654 255.97497 398.59194 266.69977 400.38477 280.32031 C 400.9129 284.33287 400.9129 299.98744 400.38477 304 C 398.59194 317.62054 395.46654 328.34337 390.08203 339.35352 C 379.82763 360.32142 361.92298 378.22802 340.95508 388.48242 C 331.89786 392.91186 322.30924 396.02444 312.35938 397.76367 C 310.35658 398.11379 308.37618 398.40039 307.95898 398.40039 L 307.19922 398.40039 L 307.19922 380.05273 L 307.19922 361.70703 L 307.91992 361.34375 C 308.60413 360.99774 314.84589 360.60785 327.44922 360.125 C 330.5785 360.0051 333.21549 359.78347 333.30859 359.63281 C 333.40171 359.48215 334.15292 359.34573 334.97852 359.32812 C 335.80415 359.31058 336.8393 359.17999 337.2793 359.03906 C 338.39414 358.68244 319.76691 358.67579 314.88086 359.03125 C 312.04535 359.23752 308.22473 359.18462 301.75977 358.84961 C 291.80728 358.33387 270.13526 358.25227 264.48047 358.70898 C 262.54447 358.86536 258.1527 359.35223 254.7207 359.79102 C 251.2887 360.2298 247.58047 360.68508 246.48047 360.80469 C 245.38047 360.92431 244.48047 361.12937 244.48047 361.25977 C 244.48047 361.3902 248.90831 361.59174 254.32031 361.70703 C 259.73231 361.82236 266.788 362.01224 270 362.12891 L 275.83984 362.33984 L 275.83984 372.37109 C 275.83984 377.88741 275.73161 382.40045 275.59961 382.40039 C 275.46761 382.40029 275.35938 385.8199 275.35938 390 L 275.35938 397.59961 L 274.08008 397.5 C 270.59788 397.22937 261.48264 394.66889 254.90039 392.11133 C 238.17376 385.61213 223.32113 374.93623 211.55859 360.95898 C 199.30189 346.39457 191.06666 328.58453 188.0332 310.08008 C 186.91824 303.27871 186.73438 300.74425 186.73438 292.16016 C 186.73438 283.57607 186.91824 281.0416 188.0332 274.24023 C 190.98879 256.21084 199.09155 238.41046 210.81055 224.20508 C 216.37027 217.46578 224.91782 209.49649 231.8418 204.5957 C 242.49666 197.05421 254.92801 191.3151 267.35938 188.19922 C 270.25593 187.47321 276.56258 186.19012 276.61328 186.31641 C 276.63168 186.36214 276.59761 194.84222 276.53711 205.16016 L 276.42773 223.91992 L 272.5332 224.44141 C 270.39174 224.72792 268.17161 224.96126 267.59961 224.96094 C 267.02761 224.96049 266.56055 225.07336 266.56055 225.21094 C 266.56055 225.34851 264.00486 225.73051 260.88086 226.06055 C 257.75686 226.39059 255.12706 226.75644 255.03906 226.875 C 254.95106 226.99355 252.65627 227.33548 249.93945 227.63281 C 247.22262 227.93013 244.92864 228.24518 244.83984 228.33398 C 244.62986 228.54396 244.21389 237.18372 244.18359 241.97266 C 244.17061 244.02599 244.02537 245.7538 243.86133 245.8125 C 243.54282 245.9264 243.45274 253.06991 243.49414 274.96094 L 243.51953 288.32031 L 246.08008 288.32031 L 248.64062 288.32031 L 248.64062 289.91992 L 248.64062 291.51953 L 246.11914 291.51953 L 243.59766 291.51953 L 243.375 295.59961 C 243.25296 297.84361 243.02168 301.33537 242.86133 303.35938 C 242.70098 305.38337 242.56745 308.01122 242.56445 309.19922 C 242.56166 310.38722 242.4364 311.35938 242.28516 311.35938 C 242.1339 311.35938 242.07329 312.66262 242.15039 314.25586 C 242.23352 315.97299 242.15654 317.31353 241.96289 317.54688 C 241.75819 317.79352 241.49079 325.2873 241.24609 337.61133 C 240.98004 351.01047 240.74487 357.35546 240.50781 357.51562 C 240.06387 357.81553 242.0959 357.76095 243.35938 357.43945 L 244.32031 357.19531 L 243.43945 357.1582 C 242.66438 357.12486 242.56055 356.99316 242.56055 356.06055 C 242.56055 355.47821 242.34824 354.72252 242.08984 354.38086 C 241.83144 354.03923 241.61538 353.58472 241.60938 353.37109 C 241.60005 353.01522 243.7239 351.35938 244.18945 351.35938 C 244.61137 351.35938 246.75707 354.96189 246.5918 355.39258 C 246.49615 355.64186 246.05432 356.01209 245.60938 356.21484 C 244.62972 356.66121 244.55668 357.11914 245.46484 357.11914 C 245.82998 357.11914 248.45783 356.83538 251.30469 356.48828 C 265.77127 354.7246 270.33784 354.47899 284.48047 354.70117 C 291.78447 354.81589 300.35153 355.04883 303.51953 355.21875 C 306.82441 355.39605 315.56221 355.43704 324.01953 355.31445 C 338.63633 355.10257 338.76003 355.09414 338.74023 354.43945 C 338.71038 353.45657 339.70291 353.43338 340.66406 354.39453 C 341.12573 354.8562 341.74079 355.18871 342.03125 355.13281 C 342.51458 355.03975 342.56718 353.27298 342.64258 334.29883 C 342.70188 319.37069 342.62331 313.37851 342.36328 312.89258 C 342.15016 312.49438 341.93308 309.68093 341.83398 306.0293 C 341.74163 302.62564 341.54288 299.83984 341.39258 299.83984 C 341.2423 299.83984 341.11914 298.32847 341.11914 296.48047 C 341.11914 293.09402 340.88965 292.44472 340.21484 293.92578 C 339.85231 294.72141 339.83313 294.72475 338.64453 294.22852 C 336.8315 293.4716 336.75164 293.2885 337.53516 291.67578 L 338.23633 290.23047 L 339.30664 290.67773 L 340.37695 291.125 L 340.24219 273.96484 C 340.16725 264.52666 339.98804 256.73168 339.8457 256.64258 C 339.70333 256.55347 339.49251 252.44753 339.375 247.51953 C 339.04943 233.86505 338.695 225.30831 338.44531 225.05859 C 338.12777 224.74106 332.42518 224.40446 322.7207 224.13086 C 316.81384 223.96432 314.30727 223.78282 314.08008 223.50586 C 313.87989 223.26182 312.37737 223.04786 310.06641 222.93359 C 308.03469 222.83312 306.12645 222.65624 305.82617 222.54102 C 305.3256 222.34892 305.2793 221.37685 305.2793 210.8457 C 305.2793 203.40185 305.16833 199.35938 304.96094 199.35938 C 304.75746 199.35937 304.64062 196.83835 304.64062 192.43555 L 304.64062 185.51172 z M 295.82031 222.08594 C 297.08389 222.11734 298.10411 222.24981 298.74219 222.49805 C 299.28215 222.70812 300.81811 223.31184 302.15625 223.83984 L 304.58984 224.80078 L 304.42773 226.40039 C 304.33877 227.28039 304.21429 228.17245 304.15039 228.38281 C 303.99234 228.90304 302.53153 228.46288 300.39648 227.25195 C 297.56042 225.64343 293.26062 225.31431 288.24023 226.32227 C 287.22823 226.52546 286.40039 226.80138 286.40039 226.93555 C 286.40039 227.06965 286.21337 227.10858 285.98633 227.02148 C 285.75929 226.93436 283.76157 227.44369 281.54492 228.15234 C 279.32828 228.86099 277.46023 229.43945 277.39453 229.43945 C 277.08326 229.43945 276.21264 226.38842 276.49609 226.29102 C 276.66985 226.23131 276.98822 226.00552 277.20508 225.78906 C 277.42193 225.5726 277.88823 225.3108 278.24023 225.20703 C 278.59223 225.10326 280.10361 224.64232 281.59961 224.18164 C 286.04538 222.81259 292.02959 221.99174 295.82031 222.08594 z M 332.16016 226.52734 L 333.9668 226.625 C 335.32939 226.69738 335.86064 226.86699 336.12695 227.32031 C 336.39291 227.77313 336.38139 227.95874 336.08008 228.06836 C 335.86008 228.1484 335.67969 228.561 335.67969 228.98633 C 335.67969 229.71036 335.56773 229.75977 333.91992 229.75977 L 332.16016 229.75977 L 332.16016 228.14453 L 332.16016 226.52734 z M 247.03906 229.11914 L 249.11914 229.11914 L 251.19922 229.11914 L 251.19922 230.7207 L 251.19922 232.32031 L 249.11914 232.32031 L 247.03906 232.32031 L 247.03906 230.7207 L 247.03906 229.11914 z M 307.67969 247.67969 C 308.06369 247.67969 308.16016 248.16008 308.16016 250.08008 C 308.16016 252.00008 308.06369 252.48047 307.67969 252.48047 C 307.29569 252.48047 307.19922 252.00008 307.19922 250.08008 C 307.19922 248.16008 307.29569 247.67969 307.67969 247.67969 z M 309.2793 247.67969 C 309.62812 247.67969 309.75977 248.04014 309.75977 248.99609 L 309.75977 250.31055 L 310.37695 249.55469 C 310.8608 248.96254 311.0805 248.88264 311.38867 249.18555 C 311.69948 249.49102 311.69329 249.67854 311.36328 250.07617 C 311.03723 250.46901 311.0266 250.75651 311.31641 251.39258 C 311.52047 251.84055 311.60648 252.3411 311.50586 252.50391 C 311.20279 252.99429 310.77609 252.83927 310.56055 252.16016 C 310.32338 251.41293 309.75977 251.3002 309.75977 252 C 309.75977 252.264 309.5433 252.48047 309.2793 252.48047 C 308.8953 252.48047 308.80078 252.00008 308.80078 250.08008 C 308.80078 248.16008 308.8953 247.67969 309.2793 247.67969 z M 312.48047 247.67969 C 312.77913 247.67969 312.96094 247.98269 312.96094 248.48047 C 312.96094 249.03751 313.13409 249.2793 313.53516 249.2793 C 314.35024 249.2793 314.88086 249.91053 314.88086 250.88086 C 314.88086 251.33846 314.70729 251.8845 314.49609 252.0957 C 314.28489 252.3069 313.63744 252.48047 313.05664 252.48047 L 312 252.48047 L 312 250.08008 C 312 248.16008 312.09647 247.67969 312.48047 247.67969 z M 329.43945 247.67969 C 329.82345 247.67969 329.91992 248.16008 329.91992 250.08008 L 329.91992 252.48047 L 328.63281 252.48047 C 327.57067 252.48047 327.28328 252.33998 326.98242 251.67969 C 326.46136 250.53608 327.07311 249.2793 328.15234 249.2793 C 328.79964 249.2793 328.96094 249.12229 328.96094 248.48047 C 328.96094 247.98269 329.14079 247.67969 329.43945 247.67969 z M 252.92188 247.68359 C 253.32277 247.64999 253.76348 247.74687 253.91992 248 C 254.0287 248.176 253.9079 248.32031 253.65234 248.32031 C 252.86657 248.32031 252.78207 249.1961 253.54297 249.44922 L 254.24023 249.68164 L 253.51953 249.82227 C 252.91901 249.9404 252.80078 250.17363 252.80078 251.22266 C 252.80078 252.13878 252.66749 252.48047 252.31055 252.48047 C 251.67818 252.48047 251.39837 251.73062 251.65234 250.71875 C 251.80761 250.1001 251.72958 249.91992 251.30664 249.91992 C 250.84171 249.91992 250.86311 249.82273 251.45898 249.26758 C 251.84417 248.90873 252.16016 248.40559 252.16016 248.14844 C 252.16016 247.8822 252.52098 247.7172 252.92188 247.68359 z M 326.18555 247.72461 C 326.51317 247.79158 326.40672 248.10344 325.87109 248.69531 C 325.37829 249.23981 325.37829 249.2793 325.87109 249.2793 C 326.16238 249.2793 326.40039 249.42361 326.40039 249.59961 C 326.40039 249.77561 326.26498 249.91992 326.09961 249.91992 C 325.93423 249.91992 325.75382 250.45865 325.69922 251.11719 C 325.62981 251.95397 325.43042 252.34572 325.03906 252.41992 C 324.58155 252.50662 324.48047 252.29309 324.48047 251.25 C 324.48047 250.52846 324.30613 249.90225 324.08008 249.81055 C 323.82094 249.7054 323.7927 249.55604 324 249.38477 C 324.176 249.23937 324.47793 248.83247 324.67188 248.48047 C 324.86585 248.12847 325.33487 247.79448 325.71289 247.73828 C 325.9189 247.70763 326.07634 247.70229 326.18555 247.72461 z M 300.51758 247.73828 C 300.73861 247.80472 300.80078 248.10085 300.80078 248.81641 C 300.80078 249.87536 300.85516 249.95373 301.32422 249.56445 C 301.85988 249.11991 305.85699 249.10546 306.28711 249.54688 C 306.401 249.66375 306.59326 250.37114 306.71484 251.11914 C 306.89158 252.20642 306.84175 252.48047 306.46289 252.48047 C 305.94482 252.48047 305.59961 251.82225 305.59961 250.83398 C 305.59961 250.48598 305.48064 250.27659 305.33398 250.36719 C 305.1873 250.45783 305.13038 250.97011 305.20898 251.50586 C 305.40812 252.86264 304.51786 252.81024 304.07812 251.43945 L 303.74609 250.40039 L 303.71289 251.43945 C 303.69187 252.10855 303.51854 252.48047 303.22656 252.48047 C 302.97696 252.48047 302.5801 252.54681 302.3457 252.62891 C 302.11131 252.71102 301.67516 252.45847 301.375 252.06836 C 300.8904 251.43851 300.82705 251.42526 300.81445 251.94336 C 300.80517 252.32328 300.60483 252.49012 300.24023 252.41992 C 299.77073 252.32951 299.67969 251.95065 299.67969 250.08008 C 299.67969 248.20951 299.77075 247.83063 300.24023 247.74023 C 300.35318 247.71848 300.4439 247.71613 300.51758 247.73828 z M 275.2793 247.74023 C 275.70568 247.65896 275.84016 247.84922 275.83984 248.53711 C 275.8394 249.4342 275.85252 249.43884 277.63281 249.32812 C 278.61893 249.26681 279.54186 249.33896 279.68555 249.48828 C 279.82924 249.63761 279.99513 250.33341 280.05273 251.03516 C 280.13569 252.04553 280.03994 252.33472 279.59766 252.41992 C 279.14907 252.50631 279.03906 252.2988 279.03906 251.36523 C 279.03906 250.65213 278.91237 250.2798 278.71094 250.4043 C 278.53034 250.51591 278.4221 250.98861 278.4707 251.45312 C 278.53146 252.03405 278.39173 252.3321 278.02148 252.4082 C 277.62078 252.49057 277.45092 252.24751 277.35742 251.45898 L 277.23242 250.40039 L 276.99023 251.37305 C 276.76197 252.28787 276.64872 252.34846 275.08008 252.41406 C 273.21638 252.49205 272.64062 252.13111 272.64062 250.88086 C 272.64062 249.91951 273.16678 249.2793 273.96094 249.2793 C 274.29068 249.2793 274.55629 248.98929 274.61719 248.5625 C 274.67343 248.1683 274.9713 247.79893 275.2793 247.74023 z M 298.64062 247.74023 C 299.13373 247.64665 299.19922 247.92115 299.19922 250.03906 L 299.19922 252.44336 L 298.01758 252.36719 C 296.9792 252.30076 296.8017 252.16612 296.56836 251.26562 C 296.22551 249.94257 295.97427 249.94943 296.07812 251.2793 C 296.18629 252.66442 295.25693 252.73798 295.06641 251.35938 L 294.93555 250.40039 L 294.74609 251.3457 C 294.58186 252.17181 294.4078 252.30009 293.35938 252.36719 C 292.33681 252.4326 292.16016 252.3471 292.16016 251.78516 C 292.16016 251.2897 292.31554 251.16481 292.7832 251.28711 C 293.28958 251.41953 293.42245 251.26344 293.50195 250.44531 C 293.59958 249.44054 293.60099 249.43945 295.51953 249.43945 L 297.43945 249.43945 L 297.58789 250.56055 C 297.71027 251.49265 297.76231 251.35923 297.90625 249.76367 C 298.04047 248.27577 298.20601 247.82273 298.64062 247.74023 z M 330.80078 247.74023 C 331.27028 247.83064 331.35938 248.20951 331.35938 250.08008 C 331.35938 251.95065 331.27025 252.32952 330.80078 252.41992 C 330.30688 252.51504 330.24023 252.23824 330.24023 250.08008 C 330.24023 247.92192 330.30686 247.64513 330.80078 247.74023 z M 268.80078 247.76953 C 269.21984 247.90969 269.43909 248.51337 269.25977 249.27148 C 269.07655 250.04607 269.08658 250.05082 269.7168 249.48047 C 270.07091 249.16001 270.50322 248.9859 270.67773 249.09375 C 270.85224 249.2016 271.04106 248.96306 271.09766 248.56445 C 271.15425 248.16584 271.41569 247.83984 271.67969 247.83984 C 272.06069 247.83984 272.16016 248.3023 272.16016 250.08008 C 272.16016 251.85786 272.06064 252.32031 271.67969 252.32031 C 271.41569 252.32031 271.09929 252.45947 270.97656 252.63086 C 270.84627 252.81281 270.41446 252.62386 269.9375 252.17578 C 269.26584 251.54479 269.11914 251.50281 269.11914 251.94336 C 269.11914 252.53366 268.46819 252.6596 267.97266 252.16406 C 267.76441 251.95581 267.63827 252.07391 267.60547 252.50977 C 267.57806 252.87374 267.38712 253.37506 267.17969 253.625 C 266.7481 254.14504 265.09677 254.23869 264.80078 253.75977 C 264.69201 253.58377 264.75503 253.42239 264.94141 253.40039 C 265.1278 253.37839 265.41678 253.34231 265.58398 253.32031 C 265.75118 253.29831 266.06711 253.10086 266.28711 252.88086 C 266.73957 252.42839 266.17592 252.33674 263.71875 252.46875 C 262.82035 252.51702 262.21863 252.38852 262.04297 252.11133 C 261.83042 251.77599 261.76963 251.80584 261.76562 252.24023 C 261.75902 252.99402 261.22324 252.94952 260.80078 252.16016 C 260.39787 251.40731 259.83984 251.31431 259.83984 252 C 259.83984 252.264 259.61741 252.48047 259.3457 252.48047 C 258.9367 252.48047 258.86751 252.07891 258.94531 250.16016 C 259.01855 248.35306 259.14565 247.83984 259.51953 247.83984 C 259.80391 247.83984 260.04021 248.19548 260.09961 248.71094 C 260.18793 249.47717 260.27369 249.534 260.80664 249.20117 C 261.61094 248.69888 262.00008 249.14375 261.48242 249.97266 C 261.16978 250.47332 261.15882 250.72455 261.4375 250.99805 C 261.64048 251.19733 261.76484 251.21506 261.71484 251.03906 C 261.66488 250.86306 261.80386 250.396 262.02344 250 C 262.49682 249.14631 264.13446 249.00397 264.56836 249.7793 C 264.82222 250.23293 264.88719 250.23293 265.26367 249.7793 C 265.492 249.50418 266.08843 249.2793 266.58984 249.2793 C 267.33921 249.2793 267.55842 249.46546 267.82227 250.32031 C 268.09801 251.21368 268.11896 251.12357 267.96289 249.68164 C 267.81253 248.29249 267.87362 247.96708 268.32227 247.79492 C 268.49927 247.727 268.66109 247.72281 268.80078 247.76953 z M 257.91992 247.83984 C 258.28652 247.83984 258.42239 248.32294 258.49609 249.88672 C 258.60068 252.10558 258.26378 252.84465 257.45312 252.17188 C 257.11814 251.8939 256.96094 251.87731 256.96094 252.12109 C 256.96094 252.6017 254.95026 252.58112 254.46484 252.0957 C 253.43633 251.06719 254.39279 249.16558 255.85547 249.33203 C 257.03526 249.46629 257.15362 250.5244 256.05078 251.07422 C 255.63667 251.28058 255.44849 251.53693 255.62891 251.64844 C 255.80832 251.75932 256.05196 251.69478 256.16992 251.50391 C 256.28788 251.3127 256.57873 251.23107 256.81641 251.32227 C 257.14198 251.4472 257.27185 251.03826 257.34375 249.66406 C 257.41524 248.29849 257.56056 247.83984 257.91992 247.83984 z M 280.77344 249.2793 C 281.02278 249.2793 281.35865 249.67555 281.51953 250.1582 L 281.8125 251.03516 L 282.03125 250.1582 C 282.15579 249.66196 282.47411 249.2793 282.76172 249.2793 C 283.28917 249.2793 283.24165 249.88956 282.57812 251.63477 C 281.98785 253.18731 281.37304 252.95294 280.68555 250.91211 C 280.21164 249.50529 280.22463 249.2793 280.77344 249.2793 z M 322.56445 249.29102 C 323.0607 249.29226 323.52053 249.45888 323.64648 249.78711 C 323.75332 250.06551 323.83984 250.79324 323.83984 251.4043 L 323.83984 252.51367 L 321.83984 252.41016 C 319.84257 252.30613 319.83887 252.30525 319.73828 251.26758 C 319.61433 249.98895 319.03906 250.2315 319.03906 251.5625 C 319.03906 252.31164 318.91539 252.50151 318.48047 252.41211 C 318.06582 252.32692 317.93204 252.00822 317.96484 251.1875 L 318.00781 250.08008 L 317.41797 251.43945 C 317.09284 252.18745 316.78362 252.79792 316.73242 252.79492 C 316.16299 252.76496 315.19922 250.82795 315.19922 249.71289 C 315.19922 248.99879 316.06949 249.22542 316.30078 250 L 316.51562 250.7207 L 316.85742 250.01953 C 317.14201 249.43747 317.46648 249.32008 318.76172 249.33008 C 319.79072 249.33805 320.41269 249.50101 320.58594 249.81055 C 320.81455 250.21908 320.90245 250.21454 321.26367 249.7793 C 321.53526 249.45209 322.06821 249.28977 322.56445 249.29102 z M 289.42578 249.30273 C 289.6753 249.37386 289.96019 249.67704 290.09375 250.16016 L 290.33789 251.03906 L 290.66992 250.16016 C 291.00279 249.28096 291.634 249.00833 291.99219 249.58789 C 292.09654 249.75674 292.03355 250.15165 291.85156 250.4668 C 291.66958 250.78197 291.23636 251.72455 290.89062 252.56055 C 290.28517 254.02462 289.83968 254.40624 289.45703 253.78711 C 289.35739 253.62587 289.40544 253.15064 289.56445 252.73242 C 289.76294 252.21034 289.71696 251.7255 289.41797 251.18555 C 289.17845 250.75301 288.9767 250.14784 288.9707 249.83984 C 288.96164 249.39221 289.17627 249.23161 289.42578 249.30273 z M 286.48242 249.34375 C 288.21307 249.25352 288.34361 249.29763 288.64258 250.08398 C 288.81757 250.54425 288.96094 251.28317 288.96094 251.72461 C 288.96094 252.99948 287.88582 252.56957 287.64258 251.19727 L 287.44336 250.08008 L 287.40234 251.30273 C 287.36863 252.28183 287.2489 252.50582 286.80273 252.41992 C 286.4842 252.35858 286.15791 251.90169 286.04102 251.35547 L 285.83594 250.40039 L 285.79688 251.4082 C 285.76189 252.3398 285.67462 252.41602 284.63867 252.41602 C 284.02218 252.41602 283.43774 252.28731 283.33984 252.12891 C 283.06817 251.68933 283.53014 251.13476 284.01367 251.32031 C 284.30647 251.43266 284.47342 251.16145 284.54102 250.46289 C 284.63852 249.4555 284.66811 249.43835 286.48242 249.34375 z M 328.35352 249.91992 C 327.86824 249.91992 327.64831 250.93664 328.0332 251.40039 C 328.55564 252.02992 328.64062 251.95894 328.64062 250.88086 C 328.64062 250.35286 328.51067 249.91992 328.35352 249.91992 z M 263.59961 249.99219 C 263.5293 249.94843 263.39875 250.06413 263.15625 250.30664 C 262.86049 250.60241 262.72019 251.05894 262.83398 251.35547 C 263.12327 252.10934 263.67969 251.63387 263.67969 250.63281 C 263.67969 250.2394 263.66992 250.03594 263.59961 249.99219 z M 266.48047 249.99805 C 266.26047 250.0705 266.02965 250.47284 265.96875 250.89062 C 265.87207 251.55384 265.92323 251.59468 266.36914 251.22461 C 266.97299 250.72346 267.05621 249.80844 266.48047 249.99805 z M 322.49609 250.00977 C 322.43693 249.97786 322.3224 250.12202 322.10742 250.41602 C 321.859 250.75572 321.72384 251.1434 321.80664 251.27734 C 322.13919 251.81542 322.56055 251.46914 322.56055 250.6582 C 322.56055 250.24828 322.55525 250.04167 322.49609 250.00977 z M 313.49805 250.02539 C 313.22809 249.98287 312.96094 250.41829 312.96094 251.05859 C 312.96094 251.4882 313.09368 251.83984 313.25781 251.83984 C 313.64919 251.83984 314.01786 250.65904 313.75781 250.23828 C 313.67717 250.10779 313.58803 250.03957 313.49805 250.02539 z M 270.95117 250.06641 C 270.88156 250.00347 270.76215 250.07359 270.55664 250.24414 C 270.18855 250.54964 270.15934 250.74923 270.43555 251.08203 C 270.94661 251.69787 271.03906 251.63692 271.03906 250.68164 C 271.03906 250.32529 271.02078 250.12934 270.95117 250.06641 z M 274.27344 250.10156 C 273.89748 249.8692 273.56827 250.74642 273.80273 251.35742 C 274.0418 251.98043 274.56055 251.65499 274.56055 250.88086 C 274.56055 250.54964 274.431 250.19896 274.27344 250.10156 z M 302.07422 250.40234 C 301.89531 250.51288 301.83233 250.7385 301.93359 250.90234 C 302.2079 251.3462 302.40039 251.26326 302.40039 250.70117 C 302.40039 250.42679 302.25309 250.29179 302.07422 250.40234 z M 326.35547 254.7207 C 327.29451 254.7207 327.43809 255.13746 326.69336 255.69922 C 326.00643 256.21733 326.0058 256.22698 326.64648 256.39453 C 327.16539 256.53022 327.33245 256.37289 327.48438 255.61328 C 327.77651 254.15258 328.46536 254.70156 328.58008 256.48633 C 328.67387 257.94568 328.70504 257.99427 329.06836 257.26172 C 329.30958 256.77535 329.7856 256.44211 330.33008 256.37891 C 331.27046 256.26983 331.3674 256.41516 331.63281 258.32031 L 331.79883 259.51953 L 330.55664 259.51953 C 329.70951 259.51953 329.20844 259.3423 328.98633 258.96094 C 328.67573 258.42761 328.65939 258.42761 328.65039 258.96094 C 328.64443 259.30436 328.39248 259.51953 328 259.51953 C 327.46921 259.51953 327.35938 259.30624 327.35938 258.26953 C 327.35938 257.17685 327.28003 257.04123 326.7207 257.1875 C 326.23977 257.31326 326.08008 257.62395 326.08008 258.4375 C 326.08008 259.18655 325.9317 259.51953 325.59961 259.51953 C 325.26726 259.51953 325.11914 259.18538 325.11914 258.43359 C 325.11914 257.26053 324.44232 256.7136 323.85938 257.41602 C 323.60351 257.72431 323.63961 257.94048 323.99609 258.23633 C 324.26227 258.45723 324.48047 258.90783 324.48047 259.23828 C 324.48047 260.04433 323.80651 259.97892 323.13477 259.10742 C 322.66827 258.50212 322.58642 258.48221 322.57422 258.96094 C 322.56638 259.26894 322.34408 259.51953 322.08008 259.51953 C 321.69948 259.51953 321.59961 259.05982 321.59961 257.29883 C 321.59961 256.07721 321.72675 254.99884 321.88281 254.90234 C 322.33625 254.6221 322.97089 255.61571 322.78711 256.31836 C 322.58151 257.10466 322.83506 257.14518 323.37109 256.41211 C 323.70264 255.9587 323.85625 255.93565 324.26562 256.27539 C 324.68598 256.62426 324.8358 256.5381 325.26758 255.70312 C 325.55046 255.15608 326.03345 254.7207 326.35547 254.7207 z M 260.79688 254.75977 C 261.06482 254.81029 261.31111 255.71574 261.37305 257.22656 C 261.44783 259.05148 261.37351 259.51953 261.00781 259.51953 C 260.49442 259.51953 260.16294 258.8597 260.15234 257.81445 C 260.14739 257.32558 259.96426 257.52223 259.5293 258.48047 C 259.18977 259.22847 258.86901 259.83894 258.81641 259.83594 C 258.37506 259.81333 257.92618 259.14429 257.58398 257.99805 C 257.10111 256.38065 257.41226 255.86313 258.22266 256.9375 L 258.80273 257.70703 L 259.03125 256.99023 C 259.16464 256.56995 259.43542 256.34275 259.6875 256.43945 C 259.96609 256.54635 260.1916 256.26612 260.32812 255.64453 C 260.46836 255.00604 260.63611 254.72945 260.79688 254.75977 z M 315.75977 254.77734 C 316.61974 254.6552 316.71019 255.2751 315.91992 255.875 C 315.38658 256.27988 315.38658 256.30055 315.91992 256.31055 C 316.58703 256.32268 316.68539 257.2793 316.01953 257.2793 C 315.73506 257.2793 315.52294 257.67449 315.46094 258.31641 C 315.39216 259.02805 315.17237 259.39085 314.76172 259.46875 C 314.24817 259.56613 314.18162 259.41891 314.29688 258.43164 C 314.37077 257.79864 314.31644 257.2793 314.17578 257.2793 C 314.03512 257.2793 313.91992 257.06478 313.91992 256.80078 C 313.91992 256.53678 314.02979 256.32031 314.16406 256.32031 C 314.29832 256.32031 314.55087 255.99561 314.72461 255.59961 C 314.89834 255.20361 315.36377 254.83354 315.75977 254.77734 z M 262.38477 254.79297 C 262.72378 254.71686 263.03906 255.23908 263.03906 256.06836 C 263.03906 257.03981 263.05215 257.0482 263.68164 256.47852 C 264.50881 255.72995 264.85286 256.08058 264.35742 257.16797 C 264.0874 257.76055 264.07093 258.11976 264.30469 258.35352 C 264.53844 258.58728 264.64153 258.45085 264.64453 257.9043 C 264.65219 256.67981 264.9959 256.43292 266.80469 256.35742 C 268.45226 256.28867 268.49383 256.30896 268.6875 257.27734 L 268.88477 258.26758 L 269.47852 257.29492 C 270.0733 256.31689 271.12443 255.99978 271.54102 256.67383 C 271.69679 256.92587 271.8301 256.91403 272.00391 256.63281 C 272.31301 256.13267 272.92556 256.49972 273.27148 257.39258 C 273.53563 258.07443 273.53956 258.07439 273.83984 257.29492 C 274.11412 256.58295 274.34629 256.49856 276.31445 256.41016 C 278.8848 256.29474 279.35938 256.58713 279.35938 258.2793 C 279.35938 259.76218 278.52449 260.02688 278.21875 258.64062 C 277.88696 257.1363 277.81126 257.08056 277.78516 258.32031 C 277.75295 259.85007 276.80078 260.06356 276.80078 258.54102 C 276.80078 257.96992 276.66717 257.64439 276.48047 257.75977 C 276.30447 257.86855 276.16016 258.30866 276.16016 258.73828 C 276.16016 260.10662 275.20308 259.70026 275.17578 258.32031 L 275.15234 257.11914 L 274.23047 259.11914 C 273.68048 260.31281 273.10975 261.11914 272.81445 261.11914 C 272.24245 261.11914 272.18392 260.69125 272.64062 259.83789 C 273.35591 258.50138 271.31548 256.65781 270.375 257.79102 C 269.81645 258.46403 270.33233 258.8782 271.45312 258.65625 C 272.38469 258.47178 272.43916 258.50225 272.04102 258.98633 C 271.53067 259.60682 270.06128 259.69409 269.50391 259.13672 C 269.20521 258.83806 269.11914 258.83806 269.11914 259.13672 C 269.11914 259.34792 268.84084 259.51953 268.5 259.51953 C 268.07448 259.51953 267.88998 259.24638 267.78711 258.59961 C 267.79832 258.4015 267.78985 258.18883 267.74219 258.00586 C 267.71873 257.91589 267.69627 257.87693 267.67578 257.86523 L 267.62305 257.43945 L 267.57031 258.48047 C 267.53103 259.27817 267.37572 259.51953 266.90039 259.51953 C 266.47825 259.51953 266.29496 259.2464 266.19141 258.61133 C 266.19774 258.44861 266.18283 258.28408 266.13281 258.16016 C 266.12423 258.13889 266.11565 258.13892 266.10742 258.125 L 266.02148 257.43945 L 265.9707 258.44336 C 265.92889 259.26203 265.75756 259.47886 265.03906 259.62695 C 264.39377 259.75995 264.01025 259.63206 263.59961 259.14844 C 263.14434 258.61227 263.03906 258.58486 263.03906 259.00391 C 263.03906 259.30603 262.77551 259.51953 262.40039 259.51953 C 261.82809 259.51953 261.76162 259.30783 261.76562 257.51953 C 261.76832 256.41953 261.89521 255.32067 262.04883 255.07812 C 262.15608 254.9088 262.27176 254.81834 262.38477 254.79297 z M 302.85742 254.84375 C 303.08914 254.75878 303.13142 255.01964 303.06055 255.73633 C 303.02516 256.09438 303.28825 256.30845 303.84766 256.37695 C 304.34606 256.43801 304.89748 256.8308 305.20703 257.34375 C 305.69543 258.15316 305.6906 258.25023 305.12695 258.87305 C 304.63177 259.42027 304.20983 259.52202 302.74219 259.44922 C 300.98361 259.36198 300.95878 259.34633 300.85938 258.31445 C 300.73697 257.04318 300.16016 257.26047 300.16016 258.57812 C 300.16016 259.20133 299.99755 259.51953 299.67969 259.51953 C 299.34293 259.51953 299.19922 259.17988 299.19922 258.38086 C 299.19922 256.8526 298.8037 257.19195 298.07227 259.34375 C 297.64043 260.61421 297.30477 261.11914 296.89453 261.11914 C 296.22819 261.11914 296.18172 260.81401 296.68164 259.7168 C 296.98166 259.05833 296.93492 258.78787 296.4043 258.11328 C 295.61348 257.10793 295.16882 257.41944 295.86914 258.48828 C 296.25719 259.08051 296.29073 259.35694 296.00781 259.63477 C 295.72726 259.91026 295.48247 259.81309 295.01758 259.24414 C 294.5246 258.64083 294.40039 258.59696 294.40039 259.02734 C 294.40039 259.36831 294.19419 259.52718 293.83984 259.45898 C 293.37024 259.36854 293.2793 258.98997 293.2793 257.11523 C 293.2793 255.34135 293.37891 254.88086 293.75977 254.88086 C 294.07023 254.88086 294.2755 255.25763 294.3418 255.94922 C 294.44202 256.99521 294.45883 257.0054 295.08203 256.44141 C 295.58326 255.98781 295.77301 255.9531 295.97461 256.2793 C 296.11555 256.50733 296.35931 256.66235 296.51562 256.62305 C 296.67195 256.58376 296.95646 256.85863 297.14844 257.23438 L 297.49805 257.91797 L 297.83203 257.18555 C 298.12122 256.55087 298.3966 256.4546 299.88281 256.4668 C 301.5904 256.48084 301.60203 256.48567 301.79883 257.59961 C 301.97633 258.60409 301.99931 258.55166 302.03711 257.08008 C 302.06342 256.05547 302.26081 255.28782 302.56055 255.03906 C 302.68282 254.93758 302.78018 254.87207 302.85742 254.84375 z M 320.43359 254.86719 C 320.545 254.86589 320.68074 254.94188 320.84961 255.08203 C 321.28906 255.44674 321.44725 258.07212 321.08594 259.01367 C 320.97912 259.29206 320.69049 259.51953 320.44531 259.51953 C 320.10777 259.51953 320 258.9897 320 257.33398 C 320 255.57247 320.09938 254.87108 320.43359 254.86719 z M 251.83984 254.88086 C 252.1503 254.88086 252.35557 255.25764 252.42188 255.94922 C 252.52062 256.97971 252.548 256.99762 253.13672 256.46484 C 253.69956 255.95547 253.76266 255.95526 253.94922 256.44141 C 254.06058 256.73161 254.00007 257.15134 253.81445 257.375 C 253.60886 257.62274 253.58841 257.96177 253.76172 258.24219 C 254.07252 258.74507 254.24897 258.46501 254.46094 257.14062 C 254.5303 256.70728 254.87302 256.48554 255.60156 256.40234 C 256.49211 256.30065 256.69127 256.4098 256.97656 257.16016 C 257.42416 258.33746 257.24456 259.33057 256.56055 259.46094 C 256.11041 259.54673 256 259.33863 256 258.4043 C 256 257.71089 255.87059 257.32147 255.67969 257.43945 C 255.50369 257.54823 255.35938 258.0605 255.35938 258.57812 C 255.35938 259.17721 255.19515 259.51953 254.90625 259.51953 C 254.65665 259.51953 254.24741 259.59891 253.99609 259.69531 C 253.7369 259.79477 253.31605 259.55187 253.02539 259.13477 C 252.59948 258.52359 252.50999 258.4955 252.49609 258.96094 C 252.48574 259.30613 252.22932 259.51953 251.82617 259.51953 C 251.21897 259.51953 251.17833 259.35313 251.26562 257.19922 C 251.33886 255.39212 251.46596 254.88086 251.83984 254.88086 z M 308.48047 254.88086 C 308.79093 254.88086 308.9962 255.25763 309.0625 255.94922 C 309.16272 256.99521 309.17953 257.0054 309.80273 256.44141 C 310.34345 255.95207 310.48138 255.93577 310.72266 256.32617 C 310.90603 256.62287 310.84929 256.96025 310.56055 257.2793 C 310.26022 257.61116 310.21156 257.9309 310.41211 258.24805 C 310.65292 258.62881 310.71084 258.58885 310.71484 258.04883 C 310.72097 257.20991 311.67464 256.32031 312.56641 256.32031 C 313.41293 256.32031 313.61146 256.64136 313.77344 258.26953 L 313.90234 259.56641 L 312.48242 259.48047 C 311.70091 259.43241 310.96095 259.49413 310.83789 259.61719 C 310.46324 259.99184 310.18124 259.87174 309.65625 259.11914 C 309.23462 258.5147 309.15082 258.49082 309.13672 258.96094 C 309.12638 259.30613 308.86995 259.51953 308.4668 259.51953 C 307.8596 259.51953 307.81895 259.35313 307.90625 257.19922 C 307.97949 255.39212 308.10658 254.88086 308.48047 254.88086 z M 306.88086 255.35938 C 307.23286 255.35937 307.51953 255.50369 307.51953 255.67969 C 307.51953 255.85569 307.23286 256 306.88086 256 C 306.52886 256 306.24023 255.85569 306.24023 255.67969 C 306.24023 255.50369 306.52886 255.35938 306.88086 255.35938 z M 283.25 256.32031 C 284.36633 256.32031 284.86414 256.45967 284.9707 256.80078 C 285.43388 258.28338 285.54939 258.42277 285.68164 257.66211 C 285.91204 256.33691 288.32031 255.85209 288.32031 257.13086 C 288.32031 257.47621 288.08706 257.60882 287.59961 257.54102 C 287.05957 257.46592 286.88086 257.60005 286.88086 258.08008 C 286.88086 258.56007 287.05957 258.69424 287.59961 258.61914 C 288.08185 258.55208 288.32031 258.68456 288.32031 259.01953 C 288.32031 259.749 286.21598 259.70061 285.78516 258.96094 C 285.47446 258.42761 285.45822 258.42761 285.44922 258.96094 C 285.43358 259.86116 284.51136 259.60424 284.29883 258.64062 C 283.97951 257.19263 283.85183 257.05302 283.92773 258.23438 C 284.02659 259.77381 283.11186 259.95904 282.64258 258.49414 L 282.30469 257.43945 L 282.27344 258.48047 C 282.24845 259.27604 282.09816 259.51953 281.63477 259.51953 C 281.3016 259.51953 280.94506 259.736 280.84375 260 C 280.62401 260.57264 280.12774 260.6238 279.80859 260.10742 C 279.6788 259.89741 279.88622 259.48673 280.28711 259.16211 C 280.6775 258.84599 281.01436 258.2569 281.03516 257.85352 C 281.09678 256.65596 281.58275 256.32031 283.25 256.32031 z M 290.34766 256.38281 C 291.20755 256.32905 292.0959 256.45317 292.34766 256.66211 C 292.97789 257.18519 292.95554 259.51953 292.32031 259.51953 C 291.98355 259.51953 291.83984 259.17988 291.83984 258.38086 C 291.83984 257.70309 291.70997 257.32175 291.51953 257.43945 C 291.34353 257.54823 291.19922 258.0605 291.19922 258.57812 C 291.19922 259.20133 291.03856 259.51953 290.7207 259.51953 C 290.39864 259.51953 290.24023 259.19781 290.24023 258.54102 C 290.24023 257.96992 290.10661 257.64439 289.91992 257.75977 C 289.74392 257.86855 289.59961 258.30866 289.59961 258.73828 C 289.59961 259.2315 289.41572 259.51953 289.10156 259.51953 C 288.70756 259.51953 288.62592 259.20341 288.70312 258 L 288.80078 256.48047 L 290.34766 256.38281 z M 318.17969 256.38672 C 319.38122 256.35255 319.66878 256.72483 319.67578 258.32031 C 319.67927 259.17582 319.54142 259.51953 319.19922 259.51953 C 318.86246 259.51953 318.7207 259.17988 318.7207 258.38086 C 318.7207 257.70309 318.59083 257.32175 318.40039 257.43945 C 318.22439 257.54823 318.08008 258.0605 318.08008 258.57812 C 318.08008 259.16922 317.91474 259.51953 317.63477 259.51953 C 317.01901 259.51953 316.75071 258.67 316.98047 257.44531 C 317.14764 256.5542 317.3082 256.41152 318.17969 256.38672 z M 306.88086 256.48047 C 307.26186 256.48047 307.35938 256.94292 307.35938 258.7207 C 307.35937 260.88063 307.33179 260.96339 306.54883 261.05469 C 305.60443 261.16483 305.2793 260.92362 305.2793 260.10742 C 305.2793 259.46592 305.62011 259.34677 306.0957 259.82422 C 306.28784 260.01711 306.40039 259.45827 306.40039 258.30469 C 306.40039 256.89563 306.5103 256.48047 306.88086 256.48047 z M 303.66016 257.34766 C 303.27777 257.35961 302.94646 257.85763 303.14648 258.37891 C 303.25233 258.65474 303.49264 258.88086 303.67969 258.88086 C 304.19803 258.88086 304.45258 257.92328 304.04297 257.51367 C 303.92181 257.39251 303.78762 257.34367 303.66016 257.34766 z M 330.24023 257.43945 C 330.06423 257.54823 329.91992 257.91815 329.91992 258.25977 C 329.91992 258.60138 330.06423 258.88086 330.24023 258.88086 C 330.41623 258.88086 330.56055 258.51094 330.56055 258.06055 C 330.56055 257.59612 330.42173 257.32728 330.24023 257.43945 z M 312.10352 257.50586 C 311.65274 257.67884 311.53768 258.31111 311.89258 258.66602 C 312.18663 258.96006 312.43147 258.66323 312.48438 257.94531 C 312.51227 257.56656 312.37043 257.40344 312.10352 257.50586 z M 290.1582 261.58789 C 290.49215 261.67829 290.56055 262.30766 290.56055 264.05273 C 290.56055 265.66161 290.44674 266.24023 290.13281 266.24023 C 289.4064 266.24023 289.2793 265.87962 289.2793 263.82031 C 289.2793 262.4062 289.41005 261.77845 289.72852 261.65625 C 289.90655 261.58793 290.04689 261.55776 290.1582 261.58789 z M 255.03906 261.75977 C 255.59997 261.75977 255.68576 261.98706 255.72266 263.59961 C 255.757 265.09959 255.80158 265.23977 255.96289 264.35547 C 256.13513 263.41126 256.29926 263.25511 257.23047 263.1543 C 258.07124 263.06327 258.3334 263.17021 258.45898 263.65039 C 258.61617 264.25157 258.62992 264.25094 259.23047 263.65039 C 259.92204 262.95883 261.07938 262.83853 261.26367 263.43945 C 261.33114 263.65945 261.46083 264.37906 261.55273 265.03906 L 261.7207 266.24023 L 260.52344 266.24023 C 259.86571 266.24023 259.15456 266.06667 258.94336 265.85547 C 258.64466 265.55681 258.56055 265.55681 258.56055 265.85547 C 258.56055 266.06667 258.34408 266.24023 258.08008 266.24023 C 257.74333 266.24023 257.59961 265.90058 257.59961 265.10156 C 257.59961 264.42379 257.46974 264.04246 257.2793 264.16016 C 257.1033 264.26894 256.96094 264.78121 256.96094 265.29883 C 256.96094 265.92204 256.79833 266.24023 256.48047 266.24023 C 256.21647 266.24023 256 266.06667 256 265.85547 C 256 265.55681 255.9139 265.55681 255.61523 265.85547 C 254.71404 266.75666 254.40039 266.2767 254.40039 264 C 254.40039 261.97334 254.46001 261.75977 255.03906 261.75977 z M 262.56055 261.75977 C 262.82455 261.75977 263.03906 262.03231 263.03906 262.36523 C 263.03906 262.74303 263.33967 263.04537 263.83594 263.16992 C 264.73852 263.39633 265.24545 264.75383 264.73438 265.57031 C 264.55863 265.85107 263.89023 266.12509 263.24805 266.17969 L 262.08008 266.2793 L 262.08008 264.01953 C 262.08008 262.22458 262.17921 261.75977 262.56055 261.75977 z M 274.7207 261.75977 C 275.04594 261.75977 275.19922 262.08544 275.19922 262.76953 C 275.19922 263.72734 275.22998 263.75243 275.78516 263.25 C 276.10702 262.95872 276.4678 262.7207 276.58594 262.7207 C 276.93447 262.7207 276.83063 263.94264 276.46289 264.16992 C 276.23927 264.30812 276.29824 264.64161 276.63672 265.1582 C 277.13424 265.91751 277.0574 266.56055 276.4707 266.56055 C 276.31071 266.56055 275.96571 266.16369 275.70312 265.67969 C 275.25311 264.8502 275.22499 264.84086 275.21289 265.51953 C 275.19986 266.25186 274.24023 266.5833 274.24023 265.85547 C 274.24023 265.55681 274.15414 265.55681 273.85547 265.85547 C 273.17245 266.53849 272.64062 266.28585 272.64062 265.2793 C 272.64062 264.7513 272.52052 264.32031 272.375 264.32031 C 272.22952 264.32031 272.17445 264.7513 272.25195 265.2793 C 272.36941 266.07961 272.28324 266.24023 271.73633 266.24023 C 271.23598 266.24023 271.04957 265.9924 270.95117 265.19922 L 270.94141 265.11328 C 271.00626 264.98337 271.01757 264.77536 270.93945 264.58008 C 270.90963 264.50553 270.88191 264.46619 270.85742 264.44727 L 270.82227 264.16016 L 270.80859 264.44141 C 270.77495 264.47505 270.75379 264.58704 270.74609 264.77344 C 270.74041 264.91147 270.75708 265.00374 270.77734 265.08203 L 270.77148 265.22266 C 270.7316 266.05074 270.59621 266.26258 270.16016 266.17578 C 269.85216 266.1145 269.37175 266.34264 269.0918 266.68359 C 268.76716 267.07896 268.50437 267.17975 268.36914 266.96094 C 268.07169 266.47966 268.4632 265.59961 268.97461 265.59961 C 269.23589 265.59961 269.4391 265.13748 269.5 264.40625 L 269.59961 263.21289 L 271.19922 263.16016 C 273.01887 263.1 273.59961 263.42897 273.59961 264.51953 C 273.59961 264.93798 273.74392 265.2793 273.91992 265.2793 C 274.09592 265.2793 274.24023 264.48753 274.24023 263.51953 C 274.24023 262.16842 274.35221 261.75977 274.7207 261.75977 z M 281.46094 261.75977 C 281.80209 261.75977 281.91992 262.2005 281.91992 263.48242 C 281.91992 264.98968 282.00726 265.22909 282.625 265.39062 C 283.01331 265.49212 283.40419 265.50206 283.49219 265.41406 C 283.58019 265.32606 283.33362 265.17185 282.94531 265.07031 C 282.55699 264.96876 282.24023 264.63767 282.24023 264.33594 C 282.24023 263.66915 283.60535 262.88036 284.29883 263.14648 C 284.87054 263.36586 284.98451 264.32031 284.43945 264.32031 C 284.17703 264.32031 284.18033 264.43813 284.44727 264.75977 C 284.64781 265.00146 284.7212 265.43244 284.61133 265.71875 C 284.44886 266.14211 283.90999 266.24023 281.73047 266.24023 C 279.16028 266.24023 279.04445 266.20805 278.85742 265.46289 C 278.57155 264.32389 278.97604 263.38722 279.84961 263.16797 C 280.27157 263.06206 280.70438 262.70364 280.81055 262.36914 C 280.91672 262.03463 281.2088 261.75977 281.46094 261.75977 z M 307.98047 261.75977 C 308.71964 261.75977 308.84679 262.26972 308.61523 264.31641 C 308.46696 265.62695 308.25777 266.24023 307.95898 266.24023 C 307.62921 266.24023 307.51953 265.68397 307.51953 264 C 307.51953 262.263 307.6229 261.75977 307.98047 261.75977 z M 324.32031 261.75977 C 324.65864 261.75977 324.80461 262.11507 324.81641 262.96094 C 324.83295 264.14493 324.84038 264.14985 325.33594 263.43945 C 325.61219 263.04345 325.96461 262.7207 326.11914 262.7207 C 326.51621 262.7207 326.46932 263.91848 326.0625 264.16992 C 325.83885 264.30812 325.89787 264.64161 326.23633 265.1582 C 326.51723 265.58687 326.66042 266.07702 326.55469 266.24805 C 326.22333 266.78424 325.79738 266.59151 325.30273 265.67969 C 324.85269 264.8502 324.8247 264.84086 324.8125 265.51953 C 324.80501 265.9405 324.60095 266.24023 324.32031 266.24023 C 323.93931 266.24023 323.83984 265.77778 323.83984 264 C 323.83984 262.22222 323.93935 261.75977 324.32031 261.75977 z M 298.96094 261.82031 C 299.40068 261.73647 299.51953 261.93489 299.51953 262.74609 C 299.51953 263.72664 299.55002 263.75267 300.10547 263.25 C 300.42733 262.95872 300.78616 262.7207 300.9043 262.7207 C 301.26672 262.7207 301.14362 263.84857 300.73633 264.25586 C 300.43766 264.55453 300.43766 264.72478 300.73633 265.02344 C 301.03503 265.32211 301.11914 265.25611 301.11914 264.72266 C 301.11914 264.0079 302.20447 263.03906 303.00586 263.03906 C 303.26083 263.03906 303.69675 263.24552 303.97461 263.49609 C 304.41164 263.89018 304.56422 263.89018 305.10156 263.49609 C 305.64191 263.09981 305.65239 263.03906 305.18164 263.03906 C 304.884 263.03906 304.64062 262.8967 304.64062 262.7207 C 304.64062 262.5447 305.21592 262.40039 305.91992 262.40039 C 306.62392 262.40039 307.19922 262.5447 307.19922 262.7207 C 307.19922 262.8967 306.94862 263.04383 306.64062 263.04883 C 306.10728 263.0581 306.10728 263.07413 306.64062 263.38477 C 307.2839 263.75945 307.39199 265.27989 306.81641 265.85547 C 306.28564 266.38624 305.27673 266.33589 304.625 265.74609 C 304.125 265.2936 304.08008 265.32136 304.08008 266.06641 C 304.08008 266.51324 303.90119 267.09483 303.68164 267.35938 C 303.23902 267.89271 301.11914 268.02503 301.11914 267.51953 C 301.11914 267.34353 301.46555 267.19922 301.88672 267.19922 C 302.30789 267.19922 302.73463 266.9847 302.83594 266.7207 C 302.95688 266.40554 302.82473 266.24023 302.45312 266.24023 C 302.14185 266.24023 301.71511 266.06667 301.50391 265.85547 C 301.20521 265.55681 301.11914 265.59251 301.11914 266.01562 C 301.11914 266.77197 300.61036 266.69591 300.01758 265.84961 C 299.60814 265.26501 299.51953 265.23637 299.51953 265.68945 C 299.51953 266.03142 299.27136 266.24023 298.86523 266.24023 C 298.26113 266.24023 298.21739 266.07423 298.30469 264.08398 C 298.38167 262.32942 298.50536 261.90721 298.96094 261.82031 z M 277.91992 262.08008 C 278.18392 262.08008 278.40039 262.22439 278.40039 262.40039 C 278.40039 262.57639 278.18392 262.7207 277.91992 262.7207 C 277.65592 262.7207 277.43945 262.57639 277.43945 262.40039 C 277.43945 262.22439 277.65592 262.08008 277.91992 262.08008 z M 286.08008 262.08008 C 286.43208 262.08008 286.7207 262.22439 286.7207 262.40039 C 286.7207 262.57639 286.43208 262.7207 286.08008 262.7207 C 285.72808 262.7207 285.43945 262.57639 285.43945 262.40039 C 285.43945 262.22439 285.72808 262.08008 286.08008 262.08008 z M 316 262.08008 C 316.264 262.08008 316.48047 262.22439 316.48047 262.40039 C 316.48047 262.57639 316.264 262.7207 316 262.7207 C 315.736 262.7207 315.51953 262.57639 315.51953 262.40039 C 315.51953 262.22439 315.736 262.08008 316 262.08008 z M 311.19922 262.40039 C 311.46322 262.40039 311.67969 262.5447 311.67969 262.7207 C 311.67969 262.8967 311.46322 263.03906 311.19922 263.03906 C 310.93522 263.03906 310.7207 262.8967 310.7207 262.7207 C 310.7207 262.5447 310.93522 262.40039 311.19922 262.40039 z M 309.74219 262.41016 C 310.06564 262.44723 310.41372 262.61528 310.51562 262.88086 C 310.61694 263.14486 310.91992 263.35938 311.18945 263.35938 C 311.45897 263.35938 311.67969 263.52719 311.67969 263.73047 C 311.67969 263.9516 311.91548 263.88717 312.26562 263.57031 C 312.93309 262.96626 313.9513 262.87903 314.45508 263.38281 C 314.6513 263.57906 314.72697 264.36365 314.63477 265.22266 C 314.54638 266.04646 314.58929 266.61289 314.72852 266.48242 C 314.86774 266.35194 315.16687 266.40091 315.39453 266.58984 C 315.72607 266.86501 315.79574 266.56136 315.74414 265.06641 C 315.69321 263.59216 315.78099 263.19922 316.16016 263.19922 C 316.91163 263.19922 317.03612 267.44919 316.29297 267.73438 C 315.99756 267.84773 315.46858 267.76315 315.11914 267.54492 C 314.66345 267.26034 314.38704 267.24577 314.13867 267.49414 C 313.71519 267.9176 311.67969 267.95632 311.67969 267.54102 C 311.67969 267.37671 312.06473 267.19633 312.53516 267.14062 C 313.67386 267.00583 313.9213 266.24023 312.82617 266.24023 C 312.37151 266.24023 311.99714 266.05984 311.99414 265.83984 C 311.99043 265.5369 311.92535 265.54167 311.72266 265.86133 C 311.55494 266.12583 310.98866 266.24564 310.20703 266.18164 C 309.06726 266.08832 308.95083 265.99246 308.86133 265.07031 C 308.78789 264.31393 308.94766 263.93355 309.49414 263.55078 C 310.08582 263.13634 310.11913 263.03906 309.67188 263.03906 C 309.36872 263.03906 309.11914 262.8967 309.11914 262.7207 C 309.11914 262.46681 309.41874 262.37308 309.74219 262.41016 z M 267.57227 263.03906 C 268.01117 263.03906 267.70712 265.14885 267.17578 265.78906 C 266.96972 266.03736 266.62591 266.24023 266.41016 266.24023 C 265.96582 266.24023 264.88485 263.73974 265.14648 263.31641 C 265.45005 262.82523 265.93477 263.02258 266.20312 263.74805 L 266.46484 264.45703 L 266.84375 263.74805 C 267.05219 263.35858 267.37943 263.03906 267.57227 263.03906 z M 318.60547 263.11328 C 318.91048 263.05466 319.22682 263.11674 319.50977 263.35156 C 320.22002 263.941 320.10986 264.37526 319.2793 264.25977 C 318.74784 264.18587 318.53489 264.33874 318.46289 264.84375 C 318.37927 265.4301 318.50799 265.51632 319.36133 265.44922 C 320.68474 265.34511 321.1965 264.82995 320.64062 264.16016 C 320.36005 263.82208 320.32572 263.54536 320.53906 263.33203 C 320.75238 263.1187 320.99783 263.17924 321.27539 263.51367 C 321.6529 263.96853 321.74518 263.96709 322.26562 263.49609 C 323.08417 262.75521 323.68664 263.2181 323.08984 264.12891 C 322.75995 264.63238 322.71667 265.00075 322.94141 265.40234 C 323.37488 266.1769 322.98996 266.46208 322.1875 265.96094 C 321.71185 265.66387 321.42608 265.64616 321.17773 265.89453 C 320.98727 266.08498 320.14523 266.24023 319.30664 266.24023 C 318.09998 266.24023 317.70977 266.10394 317.43359 265.58789 C 316.88411 264.56117 317.69045 263.28916 318.60547 263.11328 z M 328.04297 263.12305 C 328.21257 263.2197 328.25273 263.65811 328.24023 264.48047 C 328.21655 266.04554 327.86674 266.24441 326.93164 265.22461 C 326.3583 264.59931 326.36084 264.56162 327.06641 263.81055 C 327.57391 263.27035 327.87337 263.0264 328.04297 263.12305 z M 252.71875 263.15039 C 252.96029 263.11459 253.1967 263.12223 253.40234 263.1875 C 253.97403 263.36894 254.08008 263.65354 254.08008 265.00195 C 254.08008 265.88166 253.93025 266.88027 253.74805 267.2207 C 253.50606 267.67287 253.0753 267.83984 252.14844 267.83984 C 250.72777 267.83984 250.4067 267.2978 251.73438 267.14062 C 252.7538 267.01995 253.15475 266.24023 252.19727 266.24023 C 251.42549 266.24023 250.76665 265.18072 251.02734 264.35938 C 251.21555 263.76638 251.99412 263.25778 252.71875 263.15039 z M 292.64062 263.15039 C 293.52062 263.12275 294.42062 263.2485 294.64062 263.42969 C 295.23198 263.91674 295.16577 266.24023 294.56055 266.24023 C 294.24055 266.24023 294.08008 265.9193 294.08008 265.2793 C 294.08008 264.7513 293.93577 264.32031 293.75977 264.32031 C 293.58377 264.32031 293.43945 264.7513 293.43945 265.2793 C 293.43945 265.9193 293.28094 266.24023 292.96094 266.24023 C 292.63533 266.24023 292.48047 265.91396 292.48047 265.22656 C 292.48047 264.66923 292.37672 264.31665 292.25 264.44336 C 292.12329 264.57008 292.01477 264.98761 292.00977 265.37109 C 292.00408 265.78382 291.76441 266.11484 291.42188 266.18164 C 290.91767 266.27991 290.85541 266.09419 290.94141 264.74609 L 291.03906 263.19922 L 292.64062 263.15039 z M 330.82031 263.15625 C 332.35224 263.11511 332.55125 263.18888 332.82031 263.89648 C 333.26008 265.0532 333.18916 266.24023 332.67969 266.24023 C 332.4377 266.24023 332.12527 265.77122 331.98438 265.19922 L 331.72852 264.16016 L 331.60352 265.19922 C 331.456 266.4352 330.56055 266.65836 330.56055 265.45898 C 330.56055 265.02936 330.41623 264.58925 330.24023 264.48047 C 330.05354 264.36509 329.91992 264.69062 329.91992 265.26172 C 329.91992 265.93384 329.76351 266.24023 329.42188 266.24023 C 329.02788 266.24023 328.94624 265.92345 329.02344 264.7207 L 329.11914 263.20117 L 330.82031 263.15625 z M 277.91992 263.19922 C 278.09592 263.19922 278.28429 263.8847 278.33789 264.7207 C 278.41644 265.94487 278.33474 266.24023 277.91992 266.24023 C 277.50539 266.24023 277.42335 265.94487 277.50195 264.7207 C 277.55559 263.8847 277.74392 263.19922 277.91992 263.19922 z M 296.88086 263.2168 C 297.73499 262.95493 298.29836 263.88419 297.56641 264.34766 C 297.21539 264.56987 297.21114 264.63077 297.54297 264.63477 C 297.79687 264.63772 297.92283 264.9264 297.86133 265.35938 C 297.77919 265.93772 297.52446 266.09989 296.56055 266.17969 C 295.6136 266.25806 295.35938 266.16554 295.35938 265.74414 C 295.35937 265.33432 295.54621 265.25802 296.16016 265.41211 C 296.60016 265.52261 296.96094 265.5332 296.96094 265.4375 C 296.96094 265.34179 296.60016 265.12822 296.16016 264.96094 C 294.92873 264.49275 295.24838 263.7173 296.88086 263.2168 z M 288.4043 263.31836 C 288.9015 263.20787 289.12415 263.578 288.65234 264.14648 C 288.40279 264.44723 288.39434 264.64846 288.625 264.79102 C 288.80955 264.90507 288.96094 265.20536 288.96094 265.45898 L 288.95898 265.45898 C 288.95898 266.10211 288.20347 266.03362 287.57031 265.33398 C 286.86859 264.55859 286.91097 264.26795 287.83008 263.59961 C 288.04131 263.446 288.23856 263.35519 288.4043 263.31836 z M 286.24219 263.39844 C 286.40948 263.47414 286.56055 264.20033 286.56055 265.51953 C 286.56055 267.4659 286.49451 267.68939 285.89258 267.77539 C 285.00395 267.90236 284.22816 267.00426 284.76367 266.46875 C 285.06202 266.17035 285.21116 266.18966 285.43555 266.55273 C 285.63264 266.87163 285.75537 266.43751 285.82227 265.18555 C 285.89115 263.89752 286.0749 263.32273 286.24219 263.39844 z M 302.89062 264 C 302.57175 264 302.40039 264.29964 302.40039 264.85352 C 302.40039 265.79164 302.45685 265.77967 303.00781 264.7207 C 303.31825 264.12403 303.29773 264 302.89062 264 z M 313.31445 264 C 312.93865 264 312.5865 264.93613 312.82031 265.31445 C 312.92104 265.47748 313.13889 265.52704 313.30273 265.42578 C 313.68342 265.19048 313.69317 264 313.31445 264 z M 280.375 264.03516 C 280.21922 263.94573 280.01643 264.03441 279.83008 264.33594 C 279.71618 264.52036 279.70268 264.87919 279.80078 265.13477 C 280.08937 265.88682 280.64062 265.66826 280.64062 264.80078 C 280.64062 264.39228 280.53078 264.12458 280.375 264.03516 z M 263.43945 264.08008 C 263.18612 263.99564 263.03906 264.26034 263.03906 264.80078 C 263.03906 265.34123 263.18612 265.60403 263.43945 265.51953 C 263.65945 265.4462 263.83984 265.12345 263.83984 264.80078 C 263.83984 264.47812 263.65945 264.15338 263.43945 264.08008 z M 252.69531 264.08594 C 252.48916 264.15378 252.27169 264.53966 252.21289 264.94141 C 252.08332 265.82671 252.65105 265.56548 252.89648 264.62695 C 253.00701 264.20425 252.93419 264.00734 252.69531 264.08594 z M 305.63086 264.14062 C 305.47138 264.23919 305.41581 264.60911 305.50781 264.96094 C 305.73807 265.84144 305.91992 265.76175 305.91992 264.78125 C 305.91992 264.33087 305.79034 264.04203 305.63086 264.14062 z M 260.16016 264.16016 C 259.98416 264.26894 259.83984 264.6369 259.83984 264.97852 C 259.83984 265.32013 259.98416 265.59961 260.16016 265.59961 C 260.33616 265.59961 260.48047 265.23164 260.48047 264.78125 C 260.48047 264.31682 260.34165 264.04799 260.16016 264.16016 z M 310.08008 264.16016 C 309.90408 264.26894 309.75977 264.6369 309.75977 264.97852 C 309.75977 265.32013 309.90408 265.59961 310.08008 265.59961 C 310.25608 265.59961 310.40039 265.23164 310.40039 264.78125 C 310.40039 264.31682 310.26157 264.04799 310.08008 264.16016 z M 306.99805 268.47266 C 307.44953 268.45912 307.88221 268.97319 307.76172 269.60352 C 307.59307 270.48573 307.97951 270.69339 308.28906 269.88672 C 308.4015 269.59368 308.69037 269.45206 308.96289 269.55664 C 309.28635 269.68076 309.43945 269.53629 309.43945 269.10938 C 309.43945 268.69275 309.65682 268.48047 310.08008 268.48047 C 310.66008 268.48047 310.7207 268.69382 310.7207 270.75781 C 310.7207 272.87777 310.6758 273.02298 310.08008 272.86719 C 309.72808 272.77514 309.43945 272.83071 309.43945 272.99023 C 309.43945 273.52462 308.64521 273.2643 308.09375 272.54883 C 307.62715 271.94353 307.54736 271.92166 307.53516 272.40039 C 307.52732 272.70839 307.32354 272.96094 307.08398 272.96094 C 306.57494 272.96094 306.10603 269.13798 306.55859 268.67773 C 306.69343 268.54061 306.84755 268.47717 306.99805 268.47266 z M 272.80078 268.48047 C 273.14035 268.48047 273.2793 268.82444 273.2793 269.65625 L 273.2793 270.83203 L 274.07227 270.08789 C 274.7719 269.43062 274.88794 269.40678 275.06836 269.87695 C 275.18064 270.16956 275.10715 270.6056 274.90625 270.84766 C 274.4766 271.36537 275.00415 272.81608 275.72266 273.0918 C 276.05543 273.2195 276.16016 272.8816 276.16016 271.66992 C 276.16016 270.29329 276.24665 270.08008 276.80078 270.08008 C 277.36718 270.08008 277.43945 270.29288 277.43945 271.93555 C 277.43945 272.95635 277.26784 273.96458 277.05664 274.17578 C 276.38548 274.84695 275.71167 274.59365 274.56055 273.23633 C 273.73674 272.26494 273.41204 272.05337 273.33594 272.4375 C 273.27903 272.72473 273.02843 272.96094 272.77734 272.96094 C 272.42543 272.96094 272.32031 272.44731 272.32031 270.7207 C 272.32031 268.94292 272.41983 268.48047 272.80078 268.48047 z M 278.40039 268.48047 C 278.86972 268.48047 279.03906 268.69263 279.03906 269.2793 C 279.03906 269.91402 279.20092 270.08008 279.82031 270.08008 C 280.48679 270.08008 280.6194 270.25485 280.72656 271.2793 C 280.81078 272.08492 280.87015 271.82317 280.90625 270.48047 C 280.95382 268.71173 281.03361 268.48047 281.59961 268.48047 C 282.06894 268.48047 282.24023 268.69263 282.24023 269.2793 C 282.24023 269.78437 282.42109 270.08008 282.73047 270.08008 C 283 270.08008 283.30299 270.29655 283.4043 270.56055 C 283.63606 271.16453 284.16016 271.1889 284.16016 270.5957 C 284.16016 270.24842 284.86414 270.14057 287.36719 270.10547 C 290.4265 270.06255 290.58563 270.09466 290.86523 270.79102 C 291.08327 271.33406 291.16459 271.3789 291.17969 270.9668 C 291.20439 270.29246 292.22033 270.00397 294.10352 270.13867 C 295.38308 270.23019 295.53624 270.32976 295.7207 271.19922 C 295.87264 271.91537 295.93459 271.687 295.96289 270.29688 C 295.99526 268.70351 296.08172 268.44892 296.56055 268.54492 C 296.93344 268.61966 297.11542 268.94918 297.10742 269.5293 C 297.09371 270.47654 297.42058 270.68675 297.71484 269.91992 C 297.81615 269.65592 298.04894 269.43945 298.23047 269.43945 C 298.65377 269.43945 298.6589 270.49344 298.23828 270.91406 C 298.02335 271.12899 298.07349 271.44067 298.38867 271.85742 C 298.81977 272.42747 298.86014 272.31107 298.86914 270.48047 C 298.87822 268.6972 298.94888 268.48047 299.51953 268.48047 C 300.09753 268.48047 300.16016 268.69324 300.16016 270.68359 C 300.16016 272.88365 300.15802 272.88776 299.20703 273.02734 C 298.12359 273.18635 297.85221 273.06024 297.3418 272.16016 C 296.98735 271.53512 296.97875 271.53658 296.96875 272.22656 C 296.9603 272.83996 296.80166 272.92489 295.75977 272.86719 C 294.6569 272.80606 294.54319 272.70903 294.36133 271.67969 L 294.16406 270.56055 L 294.12305 271.75977 C 294.08891 272.73239 293.95818 272.96094 293.43945 272.96094 C 292.90566 272.96094 292.79457 272.7339 292.76367 271.59961 C 292.74325 270.85176 292.65561 270.51287 292.57031 270.8457 C 292.48504 271.17852 292.14224 271.89813 291.80859 272.44531 C 291.47493 272.99248 291.20181 273.692 291.20117 274 C 291.20051 274.308 290.96476 274.56055 290.67773 274.56055 C 290.26727 274.56055 290.19292 274.33673 290.32617 273.51562 C 290.43755 272.82926 290.2891 272.08922 289.89258 271.35547 L 289.28906 270.24023 L 289.48438 271.59961 C 289.63995 272.67661 289.58287 272.96094 289.20703 272.96094 C 288.946 272.96094 288.58193 272.49192 288.39844 271.91992 L 288.06445 270.88086 L 288.0332 271.91992 C 288.01268 272.57317 287.83692 272.96094 287.56055 272.96094 C 287.31855 272.96094 287.00416 272.49192 286.86328 271.91992 L 286.60742 270.88086 L 286.48242 271.91992 C 286.30181 273.43326 285.44622 273.30423 285.41992 271.75977 L 285.39844 270.56055 L 284.85938 271.67969 C 283.93673 273.59705 283.39205 273.57404 282.66406 271.58594 L 282.28906 270.56055 L 282.26367 271.75977 C 282.23979 272.93677 282.21602 272.96094 280.99414 272.96094 C 279.70589 272.96094 279.40316 272.65142 279.31836 271.25391 C 279.29449 270.86085 279.19022 271.04336 279.07812 271.67578 C 278.95276 272.38299 278.67507 272.83259 278.32031 272.90039 C 277.82961 272.99422 277.75977 272.72729 277.75977 270.74414 C 277.75977 268.69401 277.82071 268.48047 278.40039 268.48047 z M 302.26367 268.48047 C 303.16548 268.48047 303.29552 268.95356 302.48047 269.26953 C 301.94713 269.47628 301.94713 269.50566 302.48047 269.89844 C 303.16015 270.399 303.19869 270.7207 302.58008 270.7207 C 302.29561 270.7207 302.08153 271.11589 302.01953 271.75781 C 301.95635 272.41147 301.72521 272.83193 301.39453 272.89453 C 300.98914 272.97124 300.83963 272.67995 300.73828 271.61719 C 300.56745 269.8259 301.22263 268.48047 302.26367 268.48047 z M 311.67969 268.48047 C 312.25879 268.48047 312.32031 268.69403 312.32031 270.7207 C 312.32031 272.74737 312.25874 272.96094 311.67969 272.96094 C 311.10059 272.96094 311.03906 272.74737 311.03906 270.7207 C 311.03906 268.69403 311.10064 268.48047 311.67969 268.48047 z M 269.47852 268.54688 C 269.88312 268.47003 269.96076 268.63909 269.83203 269.3125 C 269.71457 269.92701 269.77598 270.10687 270.04688 269.93945 C 270.25612 269.81012 270.78258 269.93747 271.21484 270.2207 C 272.05854 270.77351 272.25543 271.93598 271.61523 272.57617 C 271.08723 273.10421 269.13996 273.06433 268.93164 272.52148 C 268.83914 272.2805 268.80733 271.31061 268.86133 270.36523 C 268.93442 269.08573 269.09249 268.62018 269.47852 268.54688 z M 267.67969 268.80078 C 267.94369 268.80078 268.16016 268.94314 268.16016 269.11914 C 268.16016 269.29514 267.94369 269.43945 267.67969 269.43945 C 267.41569 269.43945 267.19922 269.29514 267.19922 269.11914 C 267.19922 268.94314 267.41569 268.80078 267.67969 268.80078 z M 276.48047 268.80078 C 276.83247 268.80078 277.11914 268.94314 277.11914 269.11914 C 277.11914 269.29514 276.83247 269.43945 276.48047 269.43945 C 276.12847 269.43945 275.83984 269.29514 275.83984 269.11914 C 275.83984 268.94314 276.12847 268.80078 276.48047 268.80078 z M 265.2793 269.94141 C 265.99379 269.97002 266.24023 270.34909 266.24023 271.22266 C 266.24023 271.82576 266.24881 272.42855 266.25781 272.56055 C 266.26711 272.69255 266.05064 272.8474 265.77734 272.9043 C 265.40035 272.9828 265.2793 272.72561 265.2793 271.84375 C 265.2793 271.15034 265.15184 270.76288 264.96094 270.88086 C 264.78494 270.98963 264.64062 271.50191 264.64062 272.01953 C 264.64062 272.64274 264.47802 272.96094 264.16016 272.96094 C 263.80649 272.96094 263.67969 272.59014 263.67969 271.55664 C 263.67969 270.35374 263.78294 270.13659 264.40039 270.02539 C 264.75061 269.96232 265.04113 269.93187 265.2793 269.94141 z M 260.70312 269.96875 C 260.86679 269.99059 261.03346 270.04205 261.19922 270.12891 C 261.99641 270.54665 261.89248 271.09913 261.03906 270.98047 C 260.49509 270.90483 260.2953 271.05823 260.2168 271.61133 C 260.12462 272.26119 260.21017 272.31979 260.97852 272.12695 C 261.63792 271.96146 261.80877 272.01635 261.69727 272.35547 C 261.61677 272.60031 261.10339 272.84414 260.55664 272.89844 C 259.81257 272.97231 259.47183 272.82824 259.20312 272.32617 C 258.56822 271.13983 259.55747 269.81588 260.70312 269.96875 z M 305.17969 269.98438 C 305.37855 270.00336 305.56441 270.05449 305.71484 270.13867 C 306.41993 270.53323 306.45845 272.96094 305.75977 272.96094 C 305.42301 272.96094 305.2793 272.61933 305.2793 271.82031 C 305.2793 271.14254 305.15138 270.76316 304.96094 270.88086 C 304.78494 270.98963 304.64062 271.50191 304.64062 272.01953 C 304.64062 272.90453 304.09832 273.27216 303.57227 272.74609 C 303.28753 272.46131 303.31041 270.96809 303.60547 270.53125 C 303.86587 270.14572 304.58311 269.92741 305.17969 269.98438 z M 322.88086 270.05078 L 325.04102 270.14453 L 327.19922 270.24023 L 327.35938 271.33203 C 327.50454 272.32271 327.56206 272.37386 327.9707 271.87891 C 328.31188 271.46568 328.33135 271.24348 328.05078 270.96289 C 327.84703 270.75915 327.67969 270.47674 327.67969 270.33594 C 327.67969 269.938 328.89105 270.03455 329.02734 270.44336 C 329.11396 270.70324 329.34599 270.68342 329.83984 270.375 C 330.74144 269.81196 331.13583 270.22619 330.43555 271 C 329.94226 271.54505 329.93785 271.6527 330.38477 272.09961 C 330.65712 272.37195 330.88086 272.67677 330.88086 272.77734 C 330.88086 273.09375 329.64732 272.975 329.43945 272.63867 C 329.30806 272.42606 329.0271 272.43254 328.60547 272.6582 C 328.25542 272.84557 327.57882 272.95519 327.10352 272.90039 C 326.39498 272.81862 326.20524 272.59801 326.04297 271.67969 L 326.03906 271.66016 C 326.04488 271.54722 326.02576 271.41888 325.97852 271.30078 C 325.97701 271.29703 325.9761 271.29658 325.97461 271.29297 L 325.84375 270.56055 L 325.81836 271.32422 C 325.80708 271.38015 325.7891 271.39873 325.78516 271.49414 C 325.7815 271.5829 325.79897 271.62586 325.80664 271.69141 L 325.80273 271.7832 C 325.76938 272.75211 325.64722 272.98564 325.21484 272.90234 C 324.91458 272.84452 324.56749 272.43713 324.44531 271.99805 L 324.22461 271.19922 L 324.19141 272.08008 C 324.16824 272.71893 323.99446 272.96094 323.55469 272.96094 C 323.2215 272.96094 322.86498 273.17545 322.76367 273.43945 C 322.66236 273.70345 322.43151 273.91992 322.25 273.91992 C 321.73403 273.91992 321.86363 272.64152 322.40039 272.43555 C 322.69828 272.32123 322.88086 271.83331 322.88086 271.15039 L 322.88086 270.05078 z M 251.48242 270.08008 C 251.83753 270.08008 252.27569 270.33263 252.45508 270.64062 C 252.76578 271.17395 252.78202 271.17395 252.79102 270.64062 C 252.79699 270.29721 253.04697 270.08008 253.43945 270.08008 C 254.22038 270.08008 254.22598 270.19288 253.51953 271.72266 C 252.80028 273.28017 252.27512 273.47485 251.72266 272.38867 C 250.83783 270.649 250.77881 270.08008 251.48242 270.08008 z M 267.81055 270.08008 C 268.46911 270.08008 268.50326 270.2042 268.41406 272.24023 C 268.33161 274.12249 268.2374 274.41112 267.67969 274.48242 C 266.75986 274.60004 266.10872 274.08363 266.35742 273.43555 C 266.53016 272.98539 266.65505 272.95901 267.05273 273.28906 C 267.47922 273.64302 267.5111 273.47677 267.32422 271.88672 C 267.12348 270.17873 267.14977 270.08008 267.81055 270.08008 z M 319.17773 270.08008 C 319.42987 270.08008 319.73851 270.40181 319.86328 270.79492 L 320.08984 271.50977 L 320.35547 270.79492 C 320.50088 270.40181 320.84933 270.08008 321.13086 270.08008 C 321.64936 270.08008 321.62342 270.37406 320.9375 272.20898 C 320.41056 273.61856 319.67692 273.42189 319.0918 271.71289 C 318.61047 270.30707 318.62233 270.08008 319.17773 270.08008 z M 258.25195 270.08789 C 258.58087 270.08042 258.88086 270.16943 258.88086 270.36133 C 258.88086 270.51578 258.66656 270.81913 258.40625 271.03516 C 258.04574 271.33436 258.01505 271.57775 258.27344 272.06055 C 258.70912 272.87462 258.37982 273.20185 257.60938 272.7207 C 257.13598 272.42505 256.79846 272.4493 256.02344 272.83594 C 255.4821 273.10599 255.03906 273.45994 255.03906 273.62305 C 255.03906 273.94996 254.60853 274.02261 254.32812 273.74219 C 253.96485 273.37893 254.49435 272.32031 255.03906 272.32031 C 255.9285 272.32031 256.48959 271.47003 255.99414 270.87305 C 255.44921 270.21644 255.88063 269.85154 256.64062 270.32617 C 257.02646 270.56714 257.32095 270.59064 257.44336 270.39258 C 257.56364 270.19796 257.92304 270.09536 258.25195 270.08789 z M 314.36133 270.14453 C 314.82366 270.17617 315.21513 270.32262 315.20312 270.56055 C 315.19424 270.73655 314.86636 270.88086 314.47461 270.88086 C 313.97567 270.88086 313.76365 271.07121 313.76367 271.51953 C 313.7637 272.03533 313.94091 272.13943 314.67773 272.05273 C 315.32917 271.97606 315.55135 272.06838 315.45117 272.37305 C 315.30024 272.83205 313.24821 273.14078 312.86914 272.76172 C 312.46967 272.36224 312.62329 270.81295 313.10156 270.41602 C 313.36732 270.19546 313.89899 270.11289 314.36133 270.14453 z M 309.35352 270.57812 C 309.28593 270.4892 309.16993 270.54688 308.97461 270.70898 C 308.60192 271.01831 308.58436 271.21662 308.89062 271.70703 C 309.39823 272.51978 309.43945 272.49057 309.43945 271.32031 C 309.43945 270.90121 309.4211 270.66705 309.35352 270.57812 z M 270.38086 270.78711 C 269.99847 270.79906 269.66716 271.29709 269.86719 271.81836 C 269.97303 272.09419 270.21334 272.32031 270.40039 272.32031 C 270.91874 272.32031 271.17133 271.36469 270.76172 270.95508 C 270.64056 270.83392 270.50832 270.78313 270.38086 270.78711 z M 262.91406 272.32031 C 263.398 272.32031 263.46863 272.62548 263.16602 273.41406 C 262.95988 273.95127 262.08008 274.12385 262.08008 273.62695 C 262.08008 272.97048 262.49477 272.32031 262.91406 272.32031 z M 316.70898 272.32031 C 317.01525 272.32031 317.11805 272.50325 316.99414 272.82617 C 316.8873 273.10457 316.80078 273.46535 316.80078 273.62695 C 316.80078 273.78856 316.58431 273.91992 316.32031 273.91992 C 316.05631 273.91992 315.83984 273.78856 315.83984 273.62695 C 315.83984 272.95287 316.26079 272.32031 316.70898 272.32031 z M 318.27344 272.32031 C 318.80632 272.32031 318.82615 272.48335 318.38867 273.30078 C 318.04736 273.93852 317.43945 274.14773 317.43945 273.62695 C 317.43945 272.97048 317.85415 272.32031 318.27344 272.32031 z M 251.83984 275.51953 C 252.36038 275.51953 252.48047 275.73258 252.48047 276.66211 C 252.48047 277.70107 252.52528 277.75987 252.98242 277.30273 C 253.25899 277.02616 253.61977 276.80078 253.7832 276.80078 C 254.19385 276.80078 254.15673 277.55616 253.72461 277.98828 C 253.5287 278.18414 253.46378 278.50007 253.58203 278.69141 C 253.98746 279.34741 254.40039 279.03976 254.40039 278.08008 C 254.40039 277.13048 254.41952 277.11914 256.15039 277.11914 C 257.71757 277.11914 257.94631 277.20825 258.34375 277.9668 L 258.78711 278.81445 L 259 277.9668 C 259.11834 277.49531 259.43756 277.11914 259.7207 277.11914 C 260.3303 277.11914 260.15798 278.05175 259.15039 280.19531 C 258.30487 281.99408 257.46451 282.11541 257.72852 280.40039 C 257.85027 279.60951 257.74786 278.92765 257.42969 278.40039 C 257.02509 277.72946 256.961 277.70349 257.0332 278.24023 C 257.08058 278.59223 257.26345 278.98714 257.43945 279.11914 C 257.64015 279.26966 257.58034 279.47816 257.2793 279.67578 C 256.37286 280.27082 256 280.0328 256 278.86133 C 256 278.18356 255.87013 277.80222 255.67969 277.91992 C 255.50369 278.02869 255.35938 278.50925 255.35938 278.98828 C 255.35938 279.66288 255.14285 279.94093 254.39648 280.22266 C 253.50925 280.55754 253.39555 280.52028 252.96875 279.73438 C 252.63212 279.11453 252.50119 279.03279 252.49219 279.43945 C 252.48436 279.78185 252.23115 280 251.83984 280 C 251.26074 280 251.19922 279.78644 251.19922 277.75977 C 251.19922 275.7331 251.26079 275.51953 251.83984 275.51953 z M 260.96094 275.51953 C 261.34184 275.51953 261.43945 275.98199 261.43945 277.75977 C 261.43945 279.53755 261.34189 280 260.96094 280 C 260.58004 280 260.48047 279.53755 260.48047 277.75977 C 260.48047 275.98199 260.57999 275.51953 260.96094 275.51953 z M 316.72852 288.63672 C 317.13712 288.71317 317.68547 288.89075 318.42773 289.17969 C 321.4358 290.35063 323.12592 291.14037 323.33008 291.4707 C 323.57722 291.8706 321.06852 297.84243 320.125 299.09961 C 319.70452 299.65987 319.35938 300.21792 319.35938 300.3418 C 319.35938 300.46569 319.98062 301.51974 320.73828 302.68359 C 322.84861 305.92528 323.793 308.12406 324.84375 312.23438 C 325.73524 315.72154 325.79654 316.32076 325.67188 320.32031 C 325.51414 325.37973 324.58247 329.40959 322.67969 333.25781 L 321.49609 335.65039 L 323.6582 338.06641 C 324.8476 339.39537 326.40756 341.02263 327.125 341.68164 C 329.25646 343.6395 330.55559 345.09364 330.55859 345.52148 C 330.55946 345.74241 329.29977 347.14652 327.75977 348.64062 C 326.13964 350.21246 324.69061 351.35575 324.32031 351.35547 C 323.95346 351.35515 322.95041 350.57095 321.9707 349.51758 C 318.83786 346.14922 315.42181 342.7207 315.19922 342.7207 C 315.07825 342.7207 314.71895 343.00738 314.40039 343.35938 C 314.08183 343.71138 313.64003 344 313.41797 344 C 313.19591 344 312.96495 344.11957 312.90625 344.26562 C 312.7494 344.65618 309.56831 346.07767 307.35938 346.74414 C 304.49017 347.60986 299.13963 347.53447 296 346.58398 C 293.60659 345.85937 291.2596 344.76694 290.79297 344.16016 C 290.64142 343.96307 290.36446 344.08632 290.07031 344.48047 C 287.7033 347.65218 286.48612 349.08879 286.08008 349.19336 C 285.58468 349.32098 283.41488 347.91455 280.96094 345.87305 C 279.35278 344.53516 279.2112 345.0273 282.37695 340.94531 C 284.12543 338.69078 284.2417 338.44344 283.83789 337.80859 C 282.02148 334.95288 280.99402 333.09686 280.62305 332 C 280.38495 331.296 280.07562 330.58322 279.93555 330.41602 C 279.79547 330.24882 279.67969 329.85045 279.67969 329.53125 C 279.67969 329.21208 279.54173 328.70211 279.37305 328.39648 C 278.69444 327.16694 278.08008 323.04728 278.08008 319.73047 C 278.08008 316.34364 278.79639 311.52524 279.39258 310.89648 C 279.55112 310.72928 279.67969 310.26941 279.67969 309.875 C 279.67969 309.48058 279.824 309.06971 280 308.96094 C 280.84109 308.44112 280.21872 307.2444 277.91992 304.96094 C 276.59992 303.64975 275.51953 302.33846 275.51953 302.04883 C 275.51953 301.41226 280.76444 296.19813 281.53516 296.06836 C 281.84757 296.01575 282.75847 296.66451 283.66797 297.58789 C 285.17549 299.11842 285.89462 299.51502 286.13281 298.94531 C 286.42138 298.25514 290.62834 295.0826 292.32031 294.2793 C 293.37631 293.77794 294.4788 293.2485 294.76953 293.10156 C 296.12594 292.41598 299.38817 291.83984 301.91992 291.83984 C 304.94438 291.83984 307.52685 292.38674 310.30469 293.61523 C 311.2804 294.04673 312.24135 294.39662 312.43945 294.39062 C 312.63755 294.38502 313.37608 293.17479 314.08008 291.70117 C 314.78408 290.22755 315.58831 288.87725 315.86719 288.70117 C 316.05052 288.58542 316.31992 288.56027 316.72852 288.63672 z M 303.47461 301.25 C 301.32916 301.06287 298.78795 301.27219 297.24414 302 C 295.5249 302.8105 292.52789 305.10243 292.25391 305.81641 C 292.12358 306.15604 293.297 307.48206 296.0332 310.08789 C 299.04093 312.9523 300.09003 313.77493 300.36914 313.49219 C 301.38206 312.46611 307.30783 303.43531 307.33203 302.88086 C 307.36949 302.02166 305.62006 301.43713 303.47461 301.25 z M 313.9082 309.00781 C 313.70475 308.7814 312.46832 310.38775 310.88086 312.94141 C 310.70486 313.22453 309.91114 314.44547 309.11914 315.6543 C 308.32714 316.86313 307.40961 318.31965 307.08008 318.89258 L 306.48242 319.93555 L 310.60156 324.04688 C 312.86709 326.30879 314.78278 328.12152 314.85938 328.07422 C 315.12028 327.9132 315.83094 325.60205 315.83594 324.89844 C 315.83859 324.51284 315.98416 324.10877 316.16016 324 C 316.60008 323.72809 316.57001 316.33063 316.12305 314.90234 C 315.42286 312.66482 314.14963 309.27648 313.9082 309.00781 z M 287.83984 314.80273 L 287.62305 316.20117 C 287.05097 319.90175 287.63671 325.17176 288.96094 328.25 C 289.3559 329.16811 289.76859 329.91797 289.87891 329.91797 C 290.10181 329.91614 294.82656 322.64075 294.97266 322.07422 C 295.02342 321.87742 293.43989 320.16119 291.45312 318.25977 L 287.83984 314.80273 z M 301.40625 328 C 301.28353 328 300.0583 329.76392 298.68359 331.91992 C 297.30889 334.07592 296.03879 335.94007 295.86133 336.0625 C 295.42529 336.36333 295.59533 336.49425 297.61719 337.41211 C 300.14742 338.56085 303.54008 338.552 306.29883 337.38867 C 309.58802 336.00166 309.63075 336.26259 305.39453 331.88867 C 303.32332 329.75014 301.52896 328 301.40625 328 z " />
    </g>
  </g>
</svg>
