<?xml version="1.0" encoding="UTF-8" standalone="no"?>
<!-- Created with Inkscape (http://www.inkscape.org/) -->

<svg
   xmlns:dc="http://purl.org/dc/elements/1.1/"
   xmlns:cc="http://creativecommons.org/ns#"
   xmlns:rdf="http://www.w3.org/1999/02/22-rdf-syntax-ns#"
   xmlns:svg="http://www.w3.org/2000/svg"
   xmlns="http://www.w3.org/2000/svg"
   xmlns:sodipodi="http://sodipodi.sourceforge.net/DTD/sodipodi-0.dtd"
   xmlns:inkscape="http://www.inkscape.org/namespaces/inkscape"
   version="1.1"
   id="svg10"
   width="425.60001"
   height="425.60001"
   viewBox="0 0 425.60001 425.60001"
   sodipodi:docname="plakat.svg"
   inkscape:version="0.92.4 (5da689c313, 2019-01-14)">
  <metadata
     id="metadata16">
    <rdf:RDF>
      <cc:Work
         rdf:about="">
        <dc:format>image/svg+xml</dc:format>
        <dc:type
           rdf:resource="http://purl.org/dc/dcmitype/StillImage" />
        <dc:title></dc:title>
      </cc:Work>
    </rdf:RDF>
  </metadata>
  <defs
     id="defs14" />
  <sodipodi:namedview
     pagecolor="#ffffff"
     bordercolor="#666666"
     borderopacity="1"
     objecttolerance="10"
     gridtolerance="10"
     guidetolerance="10"
     inkscape:pageopacity="0"
     inkscape:pageshadow="2"
     inkscape:window-width="1680"
     inkscape:window-height="1027"
     id="namedview12"
     showgrid="false"
     inkscape:zoom="1.9454887"
     inkscape:cx="212.8"
     inkscape:cy="212.8"
     inkscape:window-x="-8"
     inkscape:window-y="-8"
     inkscape:window-maximized="1"
     inkscape:current-layer="g20" />
  <g
     id="g20">
    <path
       style="fill:#800080;stroke-width:0.31999999"
       d="M 210.98047,0.00195313 C 199.56433,0.06903813 188.32751,0.52078953 181.91992,1.328125 175.92563,2.0833883 167.64433,3.6858378 160.57617,5.4589844 112.87136,17.42641 70.202556,46.056626 40.902344,85.759766 20.260914,113.72985 7.3638354,144.38116 1.5859375,179.19922 0.97857368,182.85924 0.54501594,189.6707 0.296875,197.66211 c -0.35822348,7.91959 -0.38374785,16.74404 -0.10546875,26.26758 0.0661963,2.93629 0.1512328,5.82066 0.2734375,8.55078 0.38552267,8.61276 0.59262715,10.78493 1.57226565,16.48047 4.9284842,28.65381 15.7666886,56.3012 31.4843746,80.31836 30.699566,46.90998 78.039156,79.912 132.197266,92.15625 9.89396,2.23687 17.53934,3.29796 27.40039,3.80273 13.67722,0.7001 41.63958,0.24884 49.91992,-0.80469 25.7241,-3.27306 55.22986,-13.62881 78.72071,-27.63086 31.67801,-18.88211 58.25765,-45.84934 76.49023,-77.60351 12.71853,-22.15082 21.31943,-46.30656 25.61133,-71.93164 2.24822,-13.42319 2.24822,-55.51236 0,-68.93555 -2.2343,-13.34001 -5.93254,-27.40662 -10.33008,-39.29297 C 404.99637,115.96969 392.30792,94.202071 376.12305,74.861328 370.79495,68.494288 357.0568,54.756611 350.7168,49.455078 321.06563,24.660626 286.80472,8.6397825 249.75977,2.2460938 246.76777,1.7296964 242.87914,1.1601745 241.11914,0.98046875 233.99126,0.25267217 222.3966,-0.06513188 210.98047,0.00195313 Z M 195.18359,46.441406 c 2.24102,-0.0976 5.3237,1.558145 10.57618,5.544922 3.89943,2.959769 10.46663,7.304745 17.43945,11.53711 1.408,0.854627 4.55201,2.761537 6.98633,4.236328 10.58251,6.411229 31.7792,17.183583 41.49414,21.08789 1.496,0.601226 3.44031,1.398586 4.32031,1.771485 1.0465,0.443455 1.9836,0.701447 2.82422,0.789062 l 0.45312,0.177735 0.32422,-0.142579 c 0.63897,-0.02123 1.21225,-0.162262 1.71875,-0.423828 0.59412,-0.306816 3.06181,-1.966037 5.48438,-3.6875 2.42258,-1.721462 5.23081,-3.535567 6.24023,-4.03125 1.68007,-0.825011 2.13322,-0.900878 5.35547,-0.892578 4.4398,0.01148 5.55112,0.430473 11.55469,4.337891 2.44437,1.590921 7.03708,4.17856 10.20508,5.75 4.83088,2.396291 6.05917,3.152789 7.61718,4.699218 4.66807,4.633388 5.9446,8.247208 6.58594,18.648438 0.96317,15.62055 1.19982,61.88628 0.39258,76.63672 -0.25638,4.68454 -0.29192,4.85696 -1.47266,7.19922 -0.66541,1.32 -1.70277,3.17379 -2.30664,4.11914 -1.68777,2.6422 -6.73368,7.65596 -12.73633,12.65625 -6.58782,5.48775 -19.78186,16.17507 -22.32031,18.08008 -2.12192,1.59242 -2.36763,2.48808 -0.95898,3.48242 0.484,0.34164 14.41498,7.40277 30.95898,15.6914 16.544,8.28862 32.96047,16.60443 36.48047,18.47852 14.39469,7.66389 14.66192,7.79001 17.7832,8.45703 4.78,1.02148 7.14262,2.84012 8.48243,6.53125 2.20182,6.06598 -0.58281,16.80699 -6.38672,24.63867 -4.22118,5.696 -9.64986,10.46683 -14.50977,12.75 -1.88873,0.88733 -2.58492,1.03465 -5.37109,1.14063 -4.31027,0.16397 -5.32802,-0.16838 -8.69336,-2.83594 -2.01267,-1.59532 -4.80367,-3.26546 -9.70508,-5.80664 -3.784,-1.96185 -9.184,-4.79403 -12,-6.29492 -2.816,-1.50089 -6.12737,-3.24856 -7.35938,-3.88281 C 317.08386,302.99443 300.84015,293.9921 292,288.79492 c -8.36122,-4.9156 -9.68468,-5.68407 -13.98633,-8.13086 -1.98797,-1.13076 -4.62151,-2.70148 -5.85351,-3.49023 -1.232,-0.78875 -4.10733,-2.50706 -6.38868,-3.81836 -2.28135,-1.3113 -4.94527,-2.92357 -5.91992,-3.58399 -2.27893,-1.54419 -4.30373,-2.57226 -5.07226,-2.57226 -0.86317,0 1.3384,-1.69456 -45.33985,34.8789 -8.448,6.61921 -17.59231,13.73819 -20.32031,15.82032 -2.728,2.08213 -5.67859,4.39075 -6.55859,5.1289 -2.31887,1.94505 -11.17884,8.50805 -13.54102,10.03125 -2.34695,1.51338 -3.83633,2.04863 -8.17383,2.93555 -3.98186,0.81417 -3.64519,0.82927 -8.36523,-0.35547 -4.30474,-1.08048 -15.94227,-6.27118 -19.83985,-8.84961 -3.65195,-2.41594 -4.80834,-3.90526 -11.44726,-14.7539 -1.39302,-2.27632 -2.40683,-2.99214 -5.51367,-3.89258 -3.27349,-0.94873 -4.45249,-1.51681 -7.81641,-3.76367 -1.66463,-1.11186 -5.62663,-3.2871 -8.804686,-4.83399 -4.023748,-1.95851 -6.440624,-3.35555 -7.958985,-4.60156 -1.199239,-0.98413 -3.516656,-2.50991 -5.15039,-3.39063 -1.633735,-0.88072 -3.933586,-2.47351 -5.109375,-3.53906 -1.668025,-1.51163 -3.206939,-2.4595 -7.007813,-4.31055 -6.277606,-3.05721 -11.478975,-5.3845 -13.572265,-6.07421 -0.912886,-0.30078 -2.496418,-1.08735 -3.519532,-1.74805 -1.023113,-0.66071 -3.386317,-2.03238 -5.251953,-3.04883 -4.747485,-2.58657 -6.309484,-3.84746 -7.576172,-6.11719 -0.587696,-1.05307 -1.845346,-2.66247 -2.796875,-3.57617 -0.951527,-0.9137 -1.931996,-2.1384 -2.177734,-2.7207 -0.245738,-0.5823 -1.892113,-2.60685 -3.658203,-4.5 -3.08657,-3.30863 -3.230647,-3.52833 -3.708985,-5.64649 -0.520939,-2.30679 -3.233564,-8.65727 -4.435546,-10.38476 -0.385016,-0.55335 -1.30627,-1.72742 -2.046875,-2.60742 -0.740605,-0.88 -1.886179,-2.73958 -2.546875,-4.13282 -1.301201,-2.74389 -3.000951,-4.67218 -5.900391,-6.69336 -2.374269,-1.65509 -3.325501,-3.08606 -4.523437,-6.80664 -1.071061,-3.32652 -1.379733,-7.1928 -0.783204,-9.82812 0.260304,-1.14996 0.200708,-1.30074 -1.011718,-2.56055 -1.6054784,-1.66823 -2.0019535,-2.43344 -2.0019535,-3.86133 0,-2.3594 0.8231639,-3.06886 4.8496095,-4.17773 1.475152,-0.40625 2.084281,-0.80345 3.28125,-2.13477 0.808096,-0.89879 1.46875,-1.91492 1.46875,-2.25976 0,-0.34483 -0.6484,-1.42299 -1.441406,-2.39649 -0.793006,-0.97349 -1.531883,-2.12533 -1.640625,-2.55859 -0.277434,-1.10539 0.06691,-3.31106 0.599609,-3.84375 0.827968,-0.82797 2.659741,-0.87163 5,-0.11914 1.212261,0.38979 2.529944,0.66066 2.929688,0.60156 0.756057,-0.11175 0.900154,-0.29465 1.761718,-2.24219 0.285954,-0.64639 0.762235,-1.26771 1.056641,-1.38085 1.089545,-0.41871 5.094536,-1.17389 7.691406,-1.44922 1.483472,-0.15728 2.91155,-0.48811 3.201172,-0.74219 0.287482,-0.2522 1.168937,-0.77373 1.960937,-1.1582 0.792,-0.38448 2.251001,-1.58488 3.242188,-2.66797 l 1.765625,-1.92774 c 0.04777,-0.0176 0.106011,-0.0288 0.15625,-0.0449 l 4.158203,-0.16601 c 2.352813,-0.093 4.457735,-0.28536 4.677734,-0.42774 0.22,-0.14239 0.400391,-0.73329 0.400391,-1.3125 0,-1.28068 -1.177119,-3.00455 -4.203125,-6.1543 -2.12422,-2.21109 -2.197266,-2.33823 -2.197266,-3.90429 0,-2.06108 0.482076,-3.10625 1.654297,-3.5918 1.292291,-0.53528 3.888199,-0.1969 6.115235,0.79688 2.194743,0.97937 2.88845,1.02138 4.021484,0.24023 0.467168,-0.32208 1.729728,-0.90872 2.804688,-1.30273 1.616902,-0.59269 2.471661,-0.69769 4.951172,-0.61329 l 2.998046,0.10157 0.808594,-1.46094 c 0.444598,-0.80362 1.331398,-2.10048 1.972656,-2.88086 0.641254,-0.78037 1.470867,-2.07177 1.84375,-2.87109 0.383059,-0.82113 1.099374,-1.7022 1.646485,-2.02539 0.532569,-0.3146 1.336276,-1.12834 1.785156,-1.80665 0.44888,-0.67831 1.227375,-1.37539 1.730469,-1.55078 0.540342,-0.18836 2.62079,-0.24423 5.082031,-0.13476 5.258362,0.23386 5.293725,0.21261 4.994141,-2.98438 -0.302087,-3.22371 0.100134,-3.90449 2.996093,-5.07031 1.970262,-0.79316 2.505067,-0.88123 4.300782,-0.69727 2.390966,0.24496 2.650609,0.0639 2.947265,-2.05468 0.109677,-0.78327 0.561304,-2.26412 1.003904,-3.29102 0.44261,-1.02691 0.98937,-2.97122 1.21485,-4.32031 0.22549,-1.3491 0.51021,-2.69053 0.63281,-2.98242 0.59484,-1.41618 4.41746,-1.79179 7.80664,-0.76563 2.71955,0.82341 3.04289,0.59912 3.25,-2.25781 0.12882,-1.77688 0.3704,-2.54986 1.24023,-3.9668 0.59425,-0.968 1.27973,-1.87488 1.52149,-2.01562 0.72192,-0.42029 1.30291,-1.86855 1.54297,-3.8418 0.2639,-2.16925 1.24349,-3.49506 3.6289,-4.91211 1.39704,-0.82991 1.82757,-0.90733 5.90821,-1.07422 5.09589,-0.20841 5.23039,-0.27881 5.66406,-2.94336 0.37696,-2.31612 0.83567,-3.00796 2.4082,-3.630856 2.14283,-0.848794 4.13389,-2.287283 4.7461,-3.427734 0.31868,-0.593642 0.99482,-1.323479 1.50195,-1.623047 0.7457,-0.440499 0.95751,-0.835081 1.11328,-2.058594 0.40521,-3.182666 0.54789,-3.684606 1.24219,-4.378906 0.43943,-0.439431 1.57762,-0.910514 2.95117,-1.220703 1.43031,-0.323005 2.86578,-0.92654 3.98437,-1.677734 1.95453,-1.312576 2.06545,-1.455679 2.3711,-3.035157 0.38286,-1.978483 0.86794,-2.859257 1.93945,-3.521484 1.43912,-0.889428 1.65843,-2.235052 0.7793,-4.775391 -1.14232,-3.30081 -0.78091,-6.27679 0.85351,-7.021484 1.45001,-0.660669 3.16229,-0.422005 5.42579,0.757812 2.43363,1.2685 3.77569,1.395994 5.51171,0.523438 0.65299,-0.328205 1.7628,-0.697277 2.4668,-0.822266 0.704,-0.124992 1.99891,-0.690339 2.87891,-1.255859 0.88,-0.565516 1.97843,-1.238805 2.43945,-1.496094 1.87179,-1.044612 4.12109,-2.96083 4.12109,-3.509765 0,-0.319686 -0.57382,-1.307768 -1.27539,-2.195313 -2.10089,-2.657827 -2.5615,-3.598124 -2.5625,-5.228515 -0.002,-2.809518 0.96848,-3.779332 3.77344,-3.769532 1.57395,0.0055 1.80921,0.117799 6.27734,2.984375 1.64163,1.053204 3.00159,1.639614 3.9961,1.763672 0.0713,0.01813 0.1571,0.04687 0.20117,0.04687 0.0522,0 0.0971,-0.01547 0.14648,-0.02148 0.52709,0.0043 0.93129,-0.141672 1.17188,-0.470703 0.25466,-0.348272 0.43164,-1.423563 0.43164,-2.625 0,-2.333065 0.54428,-3.629435 1.75195,-4.179688 0.44393,-0.202266 0.91449,-0.319274 1.43164,-0.341797 z m 8.18164,8.97461 c -0.099,-0.0055 -0.1966,-0.0018 -0.29492,0.0078 -0.85924,0.0838 -1.00274,0.234496 -1.08984,1.138672 -0.0908,0.941779 0.20001,1.341657 3.03906,4.175781 2.95294,2.947821 10.70249,9.019863 14.97656,11.734375 1.62412,1.031498 11.48579,6.103415 12.96485,6.667969 0.91144,0.347901 2.07172,0.07404 2.18359,-0.515625 0.20991,-1.106368 -0.95825,-2.172709 -6.27148,-5.71875 -2.94378,-1.964676 -6.43391,-4.384478 -7.75391,-5.378906 -1.32,-0.994429 -4.55922,-3.305733 -7.19922,-5.134766 -2.64001,-1.829031 -5.93856,-4.166595 -7.33008,-5.195312 -1.75882,-1.300262 -2.53175,-1.742543 -3.22461,-1.78125 z m -8.20898,8.263672 c -0.81531,0 -1.10227,0.836895 -0.67578,1.966796 0.40994,1.086035 0.37969,1.090032 -2.21289,0.277344 -1.11568,-0.349728 -2.49636,-0.638425 -3.06836,-0.640625 -0.88737,-0.0035 -1.03906,0.110136 -1.03906,0.769531 0,1.129251 2.29084,3.000669 7.51953,6.142578 3.06474,1.841594 4.68454,3.019684 5.125,3.728516 0.35413,0.569888 1.33696,1.468094 2.18554,1.996094 0.84857,0.528 2.88734,1.850896 4.53125,2.939453 3.85734,2.554244 4.44035,2.842352 7.02735,3.492187 1.23076,0.309156 2.8468,1.01775 3.76367,1.648438 0.88373,0.6079 5.15195,2.903341 9.48633,5.101562 7.24208,3.672884 7.98832,3.982257 9.20703,3.81836 1.29745,-0.174487 1.41827,-0.103346 5.59961,3.263672 6.53728,5.264136 13.38238,9.551556 18.83398,11.796876 2.67281,1.10084 3.78853,0.98744 5.54493,-0.55859 1.73218,-1.52475 2.20661,-3.0177 1.36718,-4.29883 -0.28607,-0.4366 -1.99326,-1.66014 -3.79492,-2.71875 -3.88552,-2.28303 -18.03008,-9.457909 -23.35742,-11.849612 -3.49421,-1.568718 -4.46734,-2.234376 -3.26953,-2.234376 0.77407,0 0.92493,-0.92033 0.26953,-1.644531 -0.85406,-0.943725 -2.16729,-1.55664 -3.33984,-1.55664 -0.94263,0 -1.00231,0.06691 -0.8711,0.960937 0.15056,1.025821 -0.065,1.155431 -1.04883,0.628906 -0.42242,-0.226073 -0.61914,-0.670454 -0.61914,-1.40039 0,-1.43655 -0.43931,-1.720642 -3.05469,-1.970703 -2.74194,-0.26216 -3.75068,-0.808155 -3.48046,-1.884766 0.15984,-0.636884 -0.0424,-0.938146 -1.19532,-1.775391 -2.47916,-1.8004 -10.11112,-5.437222 -11.41015,-5.4375 -1.78629,-3.81e-4 -4.83073,-1.614416 -7.16797,-3.800781 -1.83363,-1.715273 -2.25084,-1.958984 -3.35938,-1.958984 -0.69622,0 -2.08076,-0.164938 -3.07812,-0.365235 -1.691,-0.339604 -1.81445,-0.423933 -1.81445,-1.267578 0,-1.090038 -1.70752,-3.167968 -2.60352,-3.167968 z M 208.75,69.759766 c -1.01156,0 -1.29652,0.820188 -0.56641,1.626953 0.68938,0.761757 1.845,0.689964 2,-0.123047 0.15285,-0.801747 -0.51749,-1.503906 -1.43359,-1.503906 z m -45.10938,3.251953 c -0.60786,0.06791 -0.91551,0.683648 -0.63671,1.410156 0.11564,0.30138 0.48133,0.461841 0.91406,0.400391 0.52888,-0.0751 0.72265,-0.315871 0.72265,-0.902344 0,-0.586474 -0.19377,-0.827244 -0.72265,-0.902344 -0.0983,-0.01396 -0.19051,-0.01556 -0.27735,-0.0059 z m 3.26172,0.93164 c -0.47448,-0.04658 -0.87911,0.01786 -1.27539,0.169922 -0.76537,0.293696 -0.60786,1.55645 0.33399,2.675781 2.75238,3.271014 16.39072,12.362816 35.79883,23.863278 3.52,2.08581 13.37882,8.03063 21.9082,13.21094 8.52938,5.18031 16.73133,10.12116 18.22656,10.97852 1.49524,0.85735 3.10666,1.55859 3.58203,1.55859 0.6045,0 1.40299,-0.50812 2.6543,-1.69141 1.53464,-1.45121 1.78906,-1.85827 1.78906,-2.85742 0,-0.9414 -0.21477,-1.34209 -1.11719,-2.08594 -1.56111,-1.28679 -9.31066,-5.40394 -16.08203,-8.54492 -3.13788,-1.45554 -6.2852,-3.0134 -6.99414,-3.46093 -0.70894,-0.44754 -2.47136,-1.40841 -3.91601,-2.13477 -1.44464,-0.72635 -4.31508,-2.3733 -6.37891,-3.66211 -2.06383,-1.28882 -5.37156,-3.231329 -7.35156,-4.314452 -1.98,-1.083124 -5.21922,-2.855294 -7.19922,-3.939454 -1.98,-1.084163 -4.89647,-2.78992 -6.48047,-3.791015 -1.584,-1.001094 -5.70374,-3.411437 -9.1543,-5.355469 -3.45057,-1.944032 -8.21796,-4.843522 -10.59375,-6.443359 -4.28225,-2.883634 -6.32654,-4.036043 -7.75,-4.175782 z m 29.63672,5.458985 c -0.27696,0.02783 -0.3789,0.192296 -0.3789,0.548828 0,0.349575 0.18039,0.69865 0.40039,0.77539 0.65184,0.227376 1.23908,-0.129417 1.13281,-0.6875 -0.0544,-0.285853 -0.4222,-0.564853 -0.81641,-0.621093 -0.13401,-0.01912 -0.24557,-0.0249 -0.33789,-0.01563 z m -10.75,1.582031 c -0.19115,-0.0048 -0.36411,0.0029 -0.50976,0.02344 -1.80244,0.254317 -0.79146,2.360837 1.34765,2.808594 2.17199,0.45464 4.09814,-0.572981 3.16993,-1.691406 -0.41356,-0.498297 -2.66973,-1.106688 -4.00782,-1.140625 z M 199.80859,84 c -1.02759,0 -1.41269,0.823803 -0.75586,1.615234 0.52055,0.627219 1.88006,0.589909 2.12891,-0.05859 C 201.49117,84.750017 200.82885,84 199.80859,84 Z m 52.82227,3.394531 c -0.32869,0.0048 -0.52085,0.107891 -0.63281,0.289063 -0.53623,0.867632 0.37262,1.652195 4.09765,3.541015 2.14714,1.088729 4.84038,2.655878 5.98438,3.482422 3.5701,2.579415 7.84098,4.693911 11.25195,5.570309 0.93907,0.24123 1.99566,0.33506 2.34766,0.20704 0.41305,-0.15022 0.66095,-0.581088 0.72656,-1.074224 0.0436,-0.08959 0.0742,-0.175976 0.0742,-0.248047 0,-0.09943 -0.0342,-0.203732 -0.084,-0.3125 -0.0515,-0.351414 -0.18703,-0.696719 -0.42968,-0.964843 -0.6673,-0.737357 -5.7579,-3.230425 -15.19727,-7.441407 -4.94,-2.203773 -7.15261,-3.063136 -8.13867,-3.048828 z m -86.90234,1.683594 c -1.66634,0.01816 -1.76224,1.099492 0.27148,2.587891 1.84275,1.348631 13.12153,8.099481 17.43164,10.433594 1.71181,0.92701 4.30358,2.6041 5.75977,3.72656 9.16084,7.06133 8.92686,6.9114 21.84765,14.01172 2.81601,1.54747 9.29639,5.31172 14.40039,8.36523 11.01753,6.59135 10.80315,6.53084 13.48828,3.84571 1.43742,-1.43742 1.71289,-1.89717 1.71289,-2.86914 0,-0.96026 -0.18831,-1.28373 -1.10156,-1.9043 -0.60528,-0.4113 -6.15202,-3.17503 -12.32617,-6.14062 -9.61074,-4.61625 -11.19887,-5.47502 -11.03906,-5.97852 0.12177,-0.3837 -0.0901,-0.84704 -0.61133,-1.33008 -1.09543,-1.01521 -7.92824,-4.79043 -16.36328,-9.04297 -3.872,-1.95208 -9.91945,-5.06943 -13.43945,-6.927731 -7.92672,-4.184729 -15.40395,-7.707683 -17.86133,-8.416016 -0.8836,-0.254694 -1.61448,-0.367381 -2.16992,-0.361328 z m -2.3418,3.185547 c -0.59271,0.04534 -0.84756,0.410648 -0.76758,1.095703 0.13922,1.192342 2.38334,2.814185 7.41992,5.359375 4.11321,2.07858 5.8125,2.51891 6.16602,1.59766 0.28159,-0.733832 -0.38711,-1.359602 -3.94531,-3.681644 -4.62619,-3.019001 -7.56909,-4.470849 -8.87305,-4.371094 z m 55.83594,1.873047 c -0.71631,0.03192 -1.17139,0.297928 -1.24219,0.794922 -0.11444,0.803264 1.01137,1.652936 5.61914,4.24414 1.6275,0.915239 4.08699,2.500379 5.4668,3.523439 5.28581,3.91919 16.72993,11.33027 22.13281,14.33203 1.67198,0.92892 3.41651,1.68945 3.875,1.68945 0.98089,0 3.97282,-2.96278 4.29687,-4.2539 0.64339,-2.56347 0.59466,-2.5914 -15.38281,-8.86133 -3.75725,-1.47443 -7.10903,-3.05773 -9.59961,-4.5332 -4.12072,-2.441196 -9.44942,-5.166596 -12.35351,-6.320317 -1.1177,-0.444034 -2.0962,-0.647152 -2.8125,-0.615234 z m 99.39062,5.732422 c -1.59753,0.109608 -3.99686,1.468519 -7.14648,4.060549 -1.43734,1.18287 -5.97342,4.95985 -10.08008,8.39453 -4.10667,3.43467 -9.41111,7.77813 -11.78711,9.65234 -2.376,1.87421 -5.90384,4.80247 -7.83984,6.50586 -1.936,1.70338 -5.03091,4.26652 -6.87891,5.69531 -4.23773,3.27644 -8.12328,6.46337 -11.20117,9.19141 -1.32,1.16996 -3.6953,3.10926 -5.2793,4.30859 -1.584,1.19933 -3.52831,2.75337 -4.32031,3.45313 -2.28152,2.01579 -4.50981,3.36232 -6.24024,3.77344 -1.38979,0.33018 -1.90977,0.71284 -3.95898,2.91211 -3.03214,3.2542 -9.42957,8.60268 -14.12109,11.80468 -2.024,1.3814 -4.43605,3.12916 -5.36133,3.88477 -0.92528,0.75562 -2.66804,2.16677 -3.8711,3.13476 -1.20305,0.968 -2.4612,2.13861 -2.79687,2.60157 -1.41045,1.94534 -11.7517,10.66793 -21.19336,17.87695 -7.87176,6.01036 -19.26153,15.07838 -26.13281,20.80469 -3.69818,3.08195 -8.30814,6.82164 -10.24414,8.31055 -8.78368,6.75521 -18.71462,14.65238 -20.32032,16.16015 -2.18357,2.0504 -7.65727,6.09691 -12.36328,9.13867 -1.08039,0.69831 -2.2047,1.6363 -2.49804,2.08399 -0.29333,0.44769 -1.10794,2.48186 -1.81055,4.51953 -1.5321,4.44326 -2.58709,6.60488 -3.55274,7.28125 -0.39441,0.27625 -0.81224,0.50195 -0.92773,0.50195 -0.26502,0 -0.82307,-1.43529 -1.09766,-2.82226 -0.29333,-1.48159 -0.88719,-1.56746 -2.41992,-0.35352 -1.50526,1.1922 -1.91228,1.10079 -3.07812,-0.69336 -1.4635,-2.25224 -1.73564,-2.51825 -2.90821,-2.83398 -0.88003,-0.23697 -1.53642,-0.76279 -2.45312,-1.96485 -1.23252,-1.61619 -1.27471,-1.63873 -2.62891,-1.45312 -1.84727,0.2532 -2.41705,-0.54924 -2.27929,-3.20899 l 0.0977,-1.86914 1.83789,-0.0391 c 2.10575,-0.0447 2.87569,-0.51856 2.73828,-1.68164 -0.0771,-0.65251 -0.40454,-0.92242 -1.64648,-1.36523 -2.03958,-0.7272 -2.61932,-1.47909 -1.82031,-2.35547 0.97238,-1.06656 1.92868,-2.83784 1.92968,-3.57618 6.5e-4,-0.38322 -0.3735,-0.99045 -0.83007,-1.3496 -1.15447,-0.9081 -7.121962,-3.77519 -18.460941,-8.86719 -5.317063,-2.38774 -14.492672,-6.68768 -20.388672,-9.55664 -11.80105,-5.74231 -13.233036,-6.35062 -14.59375,-6.19531 -0.778128,0.0888 -0.941098,0.26696 -1.023438,1.11523 -0.12753,1.31382 0.33764,1.65811 8.257813,6.11328 15.747822,8.85829 32.294499,18.00385 37.033203,20.4668 l 5.193355,2.69922 -0.798824,1.57421 c -0.494057,0.97498 -1.010417,1.57634 -1.353515,1.57618 -0.305033,-1.4e-4 -1.490766,-0.44412 -2.634766,-0.98633 -3.487792,-1.6531 -17.244118,-7.4994 -20.570313,-8.74219 -1.72198,-0.6434 -5.335303,-2.08717 -8.029296,-3.20898 -2.693991,-1.12181 -7.188256,-2.86371 -9.988282,-3.8711 -5.486874,-1.97406 -10.068575,-3.75735 -13.027343,-5.06836 -1.706551,-0.75616 -1.827948,-0.87576 -1.498047,-1.49218 0.682025,-1.27438 -0.700704,-2.12357 -7.699219,-4.72657 -7.601938,-2.82744 -9.72819,-3.14064 -9.525391,-1.40429 0.129971,1.1128 2.072788,2.09899 8.578125,4.35351 4.845222,1.67916 4.957333,1.73809 4.853516,2.57813 -0.06131,0.49608 0.127736,1.11957 0.447266,1.47265 0.444512,0.49118 -0.152595,0.35947 -3.027344,-0.66601 -4.65997,-1.66228 -6.164067,-1.67207 -5.644531,-0.0352 0.225059,0.7091 2.064683,1.56413 9.880859,4.58789 3.838922,1.48513 6.091756,2.23365 7.421875,2.40821 l 0.560547,0.19921 0.132812,-0.16406 c 0.436712,-0.0241 0.726883,-0.14891 0.896485,-0.38086 0.340154,-0.46518 0.796042,-0.28414 4.189453,1.65821 4.340669,2.48456 7.433962,3.79667 16.929687,7.18945 12.361565,4.41672 15.651532,5.70377 20.320313,7.95117 2.552,1.22845 5.143766,2.47611 5.759765,2.77148 0.838051,0.40185 1.14552,0.76998 1.22461,1.4629 0.101056,0.88537 0.05991,0.91762 -0.958984,0.75195 -0.586135,-0.0953 -3.586016,-1.13988 -6.666016,-2.32227 -3.08,-1.18239 -6.148296,-2.2242 -6.81836,-2.3164 -1.048547,-0.1442 -1.242404,-0.0736 -1.396484,0.51562 -0.09846,0.37653 -0.255246,0.68555 -0.347656,0.68555 -0.09241,0 -1.406813,-0.77532 -2.921875,-1.72266 -4.554394,-2.84777 -7.394849,-4.26879 -10.595703,-5.30273 -1.945568,-0.62846 -3.79004,-1.49995 -5.125,-2.41992 -2.284061,-1.57403 -6.784506,-3.66588 -7.900391,-3.67188 -0.387718,-0.002 -1.067652,0.16291 -1.511719,0.36524 -1.244781,0.56717 -4.269889,-0.32767 -9.199218,-2.72071 -2.344553,-1.13821 -5.106143,-2.33058 -6.136719,-2.64843 -1.7884,-0.55163 -1.893523,-0.55194 -2.287109,-0.0137 -0.226799,0.31018 -0.338687,0.84673 -0.248047,1.19336 0.453053,1.73247 5.881019,5.1597 10.390625,6.56055 1.710493,0.53135 1.809983,0.61805 1.648437,1.42578 -0.13296,0.66481 0.01627,1.00872 0.658203,1.51367 0.456803,0.35931 0.832032,0.74099 0.832032,0.84766 -10e-7,0.10665 -0.780772,0.19336 -1.734376,0.19336 -2.135318,0 -2.746093,0.21809 -2.746093,0.97851 0,0.75463 1.457105,1.84074 4.480469,3.34375 1.32,0.65621 3.725636,1.9064 5.347656,2.77735 2.700893,1.45026 2.918053,1.63496 2.564453,2.20117 C 56.660692,255.72089 56.3707,256 56.230469,256 c -0.14023,0 -0.877716,-0.64276 -1.640625,-1.42773 -2.490893,-2.563 -5.63076,-3.72992 -6.91211,-2.57032 -0.424672,0.38433 -0.731523,0.4121 -1.521484,0.13672 -0.544644,-0.18988 -1.398112,-0.29909 -1.894531,-0.24219 -0.70607,0.0809 -0.902344,0.26828 -0.902344,0.85938 0,0.58474 0.454551,1.02878 2.005859,1.9668 3.852484,2.32944 13.192715,6.06037 15.378907,6.14257 0.702189,0.0264 1.249403,-0.1541 1.498047,-0.49414 0.357724,-0.48922 0.678417,-0.41337 3.714843,0.86329 1.827834,0.7685 4.040801,1.65774 4.917969,1.97656 0.877164,0.31881 1.435663,0.63276 1.242188,0.69726 -0.193476,0.0645 -1.12653,-0.19276 -2.074219,-0.57031 -3.230352,-1.2869 -4.707131,-1.62987 -5.402344,-1.25781 -1.190288,0.63703 -0.786218,1.4941 1.283203,2.72656 0.790106,0.47053 1.148875,0.75315 0.796875,0.62891 -0.352,-0.12425 -2.335056,-0.85533 -4.40625,-1.625 -4.214937,-1.56628 -8.317008,-2.69141 -9.818359,-2.69141 -1.158477,0 -1.626318,0.76821 -0.90625,1.48828 0.26304,0.26304 3.128209,1.4531 6.365234,2.64453 3.237027,1.19142 7.656028,2.83832 9.820313,3.65821 3.364682,1.27457 5.824218,1.84632 5.824218,1.35546 0,-0.0736 0.0851,-0.35229 0.1875,-0.61914 0.123517,-0.32188 -0.281591,-0.82976 -1.201171,-1.51171 -0.7624,-0.56539 -1.17025,-0.95037 -0.90625,-0.85547 0.264,0.0949 3.500757,1.4167 7.193359,2.93945 7.18136,2.96144 8.335923,3.19836 8.314453,1.70117 -0.01059,-0.73754 0.09373,-0.84842 0.640625,-0.6875 1.083593,0.31885 6.41526,3.21679 8.066406,4.38477 0.850163,0.60139 3.462631,2.14915 5.804689,3.43945 2.70503,1.49027 4.6855,2.81965 5.43164,3.64453 l 1.17578,1.29883 -1.11328,0.16016 c -0.9253,0.13303 -1.12939,0.3061 -1.21289,1.03125 -0.0838,0.72687 0.15039,1.04662 1.40625,1.91992 0.82877,0.57632 1.80919,1.30237 2.17969,1.61133 0.67285,0.5611 0.67212,0.56086 -0.12696,0.26757 -0.44,-0.16149 -2.88745,-1.29195 -5.43945,-2.51171 -2.552,-1.21975 -6.512781,-2.97914 -8.800781,-3.91016 -7.652426,-3.11387 -8.478516,-3.28126 -8.478516,-1.70703 0,0.78668 -0.02592,0.77947 -2.960937,-0.80274 -13.807952,-7.44363 -21.839844,-10.46937 -21.839844,-8.23047 0,0.94221 1.471786,1.76633 7.40625,4.14844 3.806656,1.528 6.287875,2.75718 8.433594,4.17969 5.17855,3.43314 15.322495,8.73434 23.617184,12.3418 4.12814,1.79537 6.88023,3.53149 8.86328,5.59375 0.528,0.54909 2.52233,1.92271 4.43165,3.05273 4.54232,2.68839 8.05573,6.24204 10.27734,10.39063 4.55698,8.50963 6.74572,11.14828 11.41601,13.76953 6.03022,3.38451 15.02486,7.32758 17.83594,7.81836 3.13591,0.54752 7.84682,-0.36933 11.5586,-2.24805 2.68822,-1.36067 7.84802,-5.08692 18.56054,-13.40625 5.368,-4.16877 12.99899,-10.02946 16.95899,-13.02344 3.96,-2.99399 16.48979,-12.70919 27.84179,-21.58984 25.5401,-19.97999 24.52696,-19.20701 25.20118,-19.25781 0.30753,-0.0232 6.31984,3.42252 13.35937,7.65625 28.52961,17.15835 41.46455,24.43867 71.83789,40.42773 6.776,3.567 13.22849,7.14861 14.33594,7.96094 1.10899,0.81231 2.56974,1.8903 3.24609,2.39453 3.41402,2.54512 9.25214,1.19099 15.61914,-3.62305 4.8929,-3.69948 10.48891,-11.85717 13.07227,-19.05468 0.80893,-2.25372 0.91887,-3.00052 0.92187,-6.24024 0.003,-3.16754 -0.0992,-3.90163 -0.73242,-5.27539 -1.34029,-2.90782 -2.52394,-3.75024 -6.2793,-4.46875 -3.139,-0.6006 -5.46204,-1.64335 -15.09374,-6.77734 -4.41617,-2.35393 -23.56871,-12.0996 -42.56055,-21.65625 -18.99187,-9.55665 -34.5293,-17.53286 -34.5293,-17.72461 0,-0.19175 4.03099,-3.55663 8.95899,-7.47852 17.47492,-13.90721 28.20512,-23.22239 30.29296,-26.29687 1.69959,-2.50277 3.16897,-5.66517 3.8125,-8.0918 l 0.13672,-0.30859 0.002,-0.26172 c 0.0555,-0.25278 0.11126,-0.50622 0.14453,-0.73633 0.39957,-2.75551 0.40179,-22.74899 0.004,-26.20313 -0.16221,-1.408 -0.44727,-4.64722 -0.63281,-7.19922 -0.39446,-5.42595 -0.81185,-7.79985 -1.46484,-8.34179 -0.41208,-0.34195 -0.40342,-0.46233 0.0566,-0.97071 0.40474,-0.4472 0.53914,-1.3377 0.58984,-3.875 0.0362,-1.81148 -0.0699,-3.47308 -0.23633,-3.69335 -0.34118,-0.45148 -0.18086,-2.64036 0.44727,-6.09571 0.48259,-2.6549 0.26019,-3.36203 -1.10938,-3.52539 -0.83385,-0.0995 -0.81279,-0.14036 0.91211,-1.77148 1.53187,-1.4486 1.76563,-1.82983 1.76563,-2.87305 0,-0.8571 -0.22903,-1.43412 -0.80078,-2.00586 -0.69843,-0.69846 -0.75266,-0.89365 -0.40821,-1.50586 0.54809,-0.97418 0.53834,-14.32154 -0.0117,-15.92773 -0.21562,-0.62956 -0.80383,-1.44857 -1.30664,-1.82031 -0.60022,-0.44376 -0.99116,-1.0919 -1.14063,-1.88868 -0.12522,-0.66746 -0.36497,-1.46863 -0.53125,-1.77929 -0.40092,-0.74915 -2.44611,-1.76908 -4.37891,-2.1836 -1.30451,-0.27976 -1.63248,-0.5005 -2.00976,-1.35742 -0.36886,-0.83773 -1.03953,-1.222014 -1.99805,-1.156249 z m -154.5957,2.273439 c -1.20614,-0.0587 -1.61719,0.35847 -1.61719,1.40234 0,1.38266 2.64062,3.30011 9.48438,6.88281 5.07228,2.65532 5.99261,3.25494 6.84179,4.46094 1.27735,1.81406 3.17924,3.08372 10.55274,7.04102 3.344,1.79469 11.21987,6.20007 17.5,9.79101 6.28014,3.59095 13.19151,7.46172 15.35937,8.59961 2.16787,1.1379 4.28873,2.07122 4.71289,2.07422 0.51807,0.004 1.38326,-0.60787 2.63867,-1.86328 1.56008,-1.56008 1.86915,-2.05185 1.86915,-2.97852 0,-1.53777 -0.3735,-1.91404 -3.83985,-3.86914 -1.672,-0.94305 -3.7194,-2.23751 -4.55078,-2.875 -5.22279,-4.00469 -32.16884,-16.65962 -34.32227,-16.11914 -0.46566,0.11687 -1.11909,-0.12971 -1.95312,-0.73828 -1.90694,-1.39145 -15.75629,-9.63508 -17.57422,-10.46094 -0.88,-0.39977 -2.50777,-0.91161 -3.61719,-1.13671 -0.5928,-0.12028 -1.08233,-0.19138 -1.48437,-0.21094 z m -13.91406,6.13086 c -0.58128,-0.0137 -0.83679,0.21338 -0.92188,0.63476 -0.24177,1.19735 2.20527,2.97925 5.39258,3.92578 0.83221,0.24713 2.3566,1.11135 3.38867,1.92188 1.03207,0.81052 4.18205,2.59785 6.99805,3.9707 2.816,1.37285 6.63051,3.46434 8.47851,4.64844 5.89846,3.77941 8.83764,5.50766 14.48438,8.51172 5.89807,3.13777 9.66222,5.36111 17.46875,10.32617 2.70154,1.71822 6.44209,3.97549 8.3125,5.01563 4.30017,2.39134 4.81406,2.40982 6.8418,0.25 2.41954,-2.57714 2.46959,-4.18388 0.16992,-5.5293 -0.74626,-0.43659 -3.66057,-1.81707 -6.47657,-3.06836 -2.81601,-1.25129 -7.13561,-3.40301 -9.59961,-4.78125 -10.92242,-6.10947 -23.67757,-12.51839 -31.6621,-15.91016 -2.29841,-0.97635 -7.99421,-3.58557 -12.65821,-5.79883 -6.08329,-2.88675 -8.938,-4.08711 -10.21679,-4.11718 z m -22.17969,2.5039 c -0.35055,0.0102 -0.56837,0.11527 -0.63672,0.32032 -0.0953,0.28605 -0.60049,0.27558 -2.10156,-0.043 -2.29135,-0.48625 -2.94532,-0.20181 -2.94532,1.2832 0,0.67183 0.34946,1.18575 1.37891,2.0293 1.58431,1.29823 4.95478,2.91729 6.68555,3.21289 1.0389,0.17742 1.23493,0.106 1.60156,-0.59375 l 0.41602,-0.79883 2.24023,1.28906 c 1.23115,0.70856 3.31672,2.34819 4.63672,3.64453 3.26941,3.21082 6.37484,5.01604 28.55859,16.59961 11.08433,5.78784 12.59085,6.37044 12.94922,5 0.18997,-0.7264 0.44574,-0.80035 0.9668,-0.27929 0.26805,0.26809 0.26456,0.5154 -0.0137,0.96093 -0.26184,0.41928 -0.27734,0.76767 -0.0488,1.15821 0.17986,0.30739 4.35448,2.57506 9.27734,5.03906 4.92285,2.464 10.45634,5.38047 12.29492,6.48047 3.48408,2.08449 4.27157,2.29814 5.7168,1.55078 1.40421,-0.72615 4.21875,-3.89529 4.21875,-4.75 0,-1.47823 -0.67985,-1.96891 -8.47852,-6.0918 -3.16799,-1.67482 -8.20917,-4.43101 -11.20117,-6.12695 -7.07315,-4.00923 -19.88301,-10.47077 -25.75976,-12.99219 -2.552,-1.09494 -6.7273,-2.68285 -9.2793,-3.5293 -9.88369,-3.27821 -12.17124,-4.28485 -19.83984,-8.72656 -5.10806,-2.95863 -9.11768,-4.68109 -10.63672,-4.63672 z m -5.9668,11.8418 c -0.29812,0.0491 -0.47446,0.1944 -0.5625,0.42383 -0.43289,1.12809 -0.0241,1.45525 4.20508,3.37109 2.3657,1.07168 2.78031,1.36101 2.32031,1.6211 -0.87378,0.49404 -0.66187,1.45436 0.51953,2.35546 1.80394,1.37593 7.66447,4.3938 20.63282,10.625 6.80242,3.26852 16.75895,8.1407 22.12695,10.82618 8.72114,4.36297 12.0238,6.0779 22.56055,11.72265 1.57933,0.84608 2.62352,1.30308 3.46875,1.44922 l 0.21679,0.11328 0.16407,-0.0684 c 0.61144,0.0377 1.1365,-0.10125 1.71874,-0.40234 1.40954,-0.7289 2.91211,-2.63017 2.91211,-3.68555 0,-1.55897 -0.1631,-1.64502 -20.90429,-11.05859 -8.0649,-3.66032 -15.98451,-7.43903 -17.59961,-8.39649 -3.71385,-2.20164 -9.22168,-4.97725 -11.81641,-5.95507 -1.09966,-0.41441 -3.8,-1.65618 -6,-2.75977 -2.2,-1.10358 -5.87215,-2.83622 -8.16015,-3.84961 -2.288,-1.0134 -6.31899,-2.81249 -8.95899,-3.99805 -3.96114,-1.77885 -5.9494,-2.48138 -6.84375,-2.33398 z m 46.83399,11.20313 c 0.14206,-0.14205 4.00976,2.1356 4.00976,2.36132 0,0.20064 0.01,0.20515 -2.15039,-1.0625 -1.09452,-0.64228 -1.93157,-1.22662 -1.85937,-1.29882 z m -51.29883,7.9375 c -2.10199,0 -2.24049,1.40031 -0.29297,2.97851 1.52001,1.23176 10.52891,6.40159 18.32031,10.51172 2.816,1.48549 6.77678,3.76555 8.80078,5.06836 3.59556,2.31438 11.34084,6.87215 19.03907,11.20117 4.37486,2.46015 10.70911,5.68097 14.24023,7.24219 2.71521,1.20048 3.18923,1.2668 4.44922,0.61523 2.24759,-1.16227 3.52573,-3.73423 2.51172,-5.05468 -0.51151,-0.66609 -36.79829,-18.8881 -39.69922,-19.93555 -1.19849,-0.43274 -2.67491,-0.78711 -3.2793,-0.78711 -1.26986,0 -12.82163,-5.88331 -16.78125,-8.54688 -2.4121,-1.62259 -6.11825,-3.29296 -7.30859,-3.29296 z m 195.7539,0.39843 c 0.16373,0.0158 0.30995,0.0697 0.39844,0.15821 0.177,0.17699 0.26215,0.80796 0.18945,1.40234 -0.11521,0.94279 -0.13889,0.96812 -0.18359,0.19141 -0.0345,-0.59948 -0.28473,-0.98102 -0.76953,-1.16797 -0.65744,-0.25351 -0.66965,-0.29756 -0.13867,-0.51172 0.15991,-0.0645 0.34018,-0.0881 0.5039,-0.0723 z m -183.65039,0.89649 c -0.40139,-0.0177 -0.65391,0.0749 -0.77539,0.27148 -0.74995,1.21343 0.83349,2.27824 8.83008,5.94531 3.22875,1.48064 6.10418,2.70094 6.39063,2.71094 0.28645,0.01 0.70435,-0.20349 0.92773,-0.47265 0.71418,-0.86054 -0.74938,-1.90509 -7.18555,-5.13282 -4.43163,-2.22243 -6.98331,-3.26918 -8.1875,-3.32226 z m 181.1543,0.01 c 0.28213,-0.0453 0.22393,0.089 -0.0645,0.55078 -0.34131,0.54695 -0.3393,0.8065 0.008,1.45508 0.36673,0.68525 0.34318,0.89731 -0.17578,1.60938 -0.73746,1.01187 -0.84646,1.02311 -1.24219,0.12109 -0.20856,-0.47537 -0.64157,-0.7513 -1.27539,-0.8125 -0.79685,-0.0769 -1.4575,0.32942 -3.88477,2.39844 -1.60833,1.37095 -3.83931,3.11164 -4.95898,3.86719 -1.11967,0.75555 -1.55165,0.97201 -0.95898,0.48047 0.59267,-0.49155 2.01116,-1.67093 3.15234,-2.6211 2.25116,-1.87434 3.92969,-3.95242 3.92969,-4.86328 0,-0.31562 -0.28878,-0.77563 -0.64258,-1.02344 -0.58052,-0.40661 -0.36965,-0.47119 2.16016,-0.65039 1.54179,-0.10922 3.14157,-0.29416 3.55468,-0.41211 0.17367,-0.0496 0.3044,-0.0845 0.39844,-0.0996 z m -166.09961,1.57617 c -1.0135,0 -1.06187,0.98647 -0.0996,2.01368 0.59518,0.63534 0.75579,0.99705 0.48828,1.09375 -0.57941,0.20939 -0.49044,1.19145 0.16016,1.76953 0.86849,0.77166 3.63754,2.33037 6.05078,3.40625 3.17133,1.41384 4.72747,1.24972 3.87109,-0.41016 -0.23571,-0.45687 -0.18557,-0.67895 0.20313,-0.89648 1.40904,-0.78854 0.0499,-1.88144 -6.3086,-5.07617 -2.08105,-1.0456 -4.04512,-1.9004 -4.36523,-1.9004 z m -45.804687,0.28907 c -0.430409,0.0385 -0.605469,0.2867 -0.605469,0.7207 0,0.86012 2.102556,2.83227 5.847656,5.48242 5.9422,4.20488 11.15196,7.04163 37.19141,20.2461 6.688,3.39145 16.12093,8.26151 20.96093,10.82421 5.3595,2.83777 9.16082,4.66297 9.72461,4.66797 0.68668,0.006 1.32753,-0.39198 2.48047,-1.54492 1.89401,-1.89401 2.02305,-2.87223 0.5586,-4.24023 -1.28664,-1.2019 -11.03045,-6.09835 -23.16407,-11.64063 -22.31753,-10.19401 -37.45763,-17.32862 -45.56836,-21.47461 -4.29351,-2.19472 -6.478878,-3.1256 -7.425777,-3.04101 z m 213.259767,5.78906 c 0.47682,0.001 0.37069,0.25189 -0.57227,1.35352 -1.51047,1.76464 -1.7598,2.74568 -0.8789,3.45898 l 0.66992,0.54297 -0.87891,0.84375 c -1.10356,1.0573 -1.25932,1.05305 -1.38476,-0.0371 -0.20129,-1.74942 -2.5,-1.19998 -2.5,0.59766 0,0.81985 0.11087,0.92187 1.00976,0.92187 0.95782,0 0.98096,0.0306 0.47852,0.58594 -0.29128,0.32186 -0.5293,0.88003 -0.5293,1.24219 0,0.46839 -0.25294,0.70309 -0.87891,0.81054 -0.484,0.0831 -1.14877,0.26499 -1.47656,0.4043 -0.53206,0.22614 -0.57131,0.14405 -0.37109,-0.76758 0.50869,-2.31601 -1.69066,-2.67772 -4.11328,-0.67578 -0.85194,0.704 -1.65425,1.2793 -1.78125,1.2793 -0.127,0 -0.69619,0.65044 -1.26563,1.44336 -1.22026,1.69918 -1.27408,3.1354 -0.125,3.29882 0.69903,0.0994 0.69606,0.11571 -0.24023,1.40821 -1.35475,1.87019 -1.16248,3.45117 0.41992,3.45117 0.56944,0 0.56581,0.0406 -0.0645,0.8418 -1.27755,1.62414 -0.57394,3.2511 1.24804,2.88672 0.91006,-0.18202 0.94178,-0.15029 0.75977,0.75976 -0.11614,0.58071 -0.0216,1.16669 0.24414,1.50977 0.41375,0.53407 0.40186,0.53542 -0.22656,0.002 -1.1626,-0.98691 -2.36765,-0.70584 -4.6543,1.08594 -1.50479,1.17909 -1.92208,1.17294 -0.78711,-0.0117 0.998,-1.04166 1.04356,-2.3588 0.0879,-2.54102 -1.08522,-0.20694 -2.07255,0.25819 -3.9375,1.84961 -1.02101,0.87126 -1.90951,1.52995 -1.97461,1.46485 -0.0651,-0.0651 0.19329,-0.54268 0.57617,-1.06055 0.91985,-1.24418 0.76172,-2.43607 -0.34179,-2.56445 -0.5703,-0.0663 -1.42582,0.34789 -2.78125,1.3457 l -1.95703,1.43945 -0.0996,-0.86328 c -0.0831,-0.72047 -0.27628,-0.882 -1.16016,-0.9668 -1.38866,-0.1333 -2.03723,0.43145 -1.91602,1.67188 0.0795,0.81311 0.2635,1.01614 1.04688,1.15039 l 0.94922,0.16211 -1.50977,1.19922 c -0.83039,0.65925 -2.12114,1.672 -2.86914,2.25195 -0.748,0.57994 -2.04486,1.60604 -2.88086,2.2793 -0.836,0.67325 -1.51953,1.09358 -1.51953,0.93554 0,-0.58207 0.99908,-1.68215 2.57617,-2.83984 1.31938,-0.96852 1.60079,-1.34154 1.52149,-2.01562 -0.0674,-0.5727 -0.33827,-0.88532 -0.87891,-1.01172 -0.71451,-0.16705 -0.5098,-0.41249 2.40039,-2.89453 1.74956,-1.49214 4.02119,-3.351 5.04883,-4.13086 1.85773,-1.40979 3.60935,-3.32632 4.36133,-4.77344 0.32801,-0.63121 0.30634,-0.84405 -0.12891,-1.2793 -0.48295,-0.483 -0.59303,-0.48222 -1.4707,0.0215 -0.52196,0.29957 -0.94922,0.48159 -0.94922,0.40429 0,-0.34023 5.25361,-5.33078 6.55273,-6.22461 0.79035,-0.54376 1.58308,-1.26191 1.76172,-1.5957 0.42615,-0.79633 0.41512,-2.1552 -0.0195,-2.42383 -0.22104,-0.13661 -0.0955,-0.47739 0.34961,-0.95117 l 0.69336,-0.73633 0.64063,0.64063 c 0.5096,0.50962 0.87886,0.598 1.79687,0.42578 1.46652,-0.27512 3.2474,-1.18189 4.0332,-2.05078 0.85283,-0.943 1.15866,-0.83908 0.7461,0.2539 -0.28371,0.75165 -0.24849,1.08542 0.19336,1.75977 1.02691,1.56726 1.91834,1.17006 5.30664,-2.36914 1.70214,-1.77795 3.32558,-3.20018 3.65039,-3.19922 z m -151.16602,2.94727 c -0.71052,5e-5 -1.12224,0.24937 -1.19336,0.74609 -0.0521,0.36362 0.23774,0.96218 0.6543,1.35351 1.76964,1.6625 14.27069,8.07422 15.74219,8.07422 0.54422,0 0.92097,-0.22245 1.07422,-0.63672 0.21629,-0.58468 0.42012,-0.49293 2.46875,1.11524 3.23066,2.53607 5.49039,4.09255 7.84375,5.40234 2.35844,1.31261 3.83782,1.47272 4.79101,0.51953 0.92368,-0.92368 0.80898,-2.14483 -0.29883,-3.17968 -0.51646,-0.48244 -2.92978,-1.77801 -5.36132,-2.87696 -2.43155,-1.09894 -6.37636,-3.13619 -8.76758,-4.52734 -4.84566,-2.8191 -9.50935,-5.0957 -10.43555,-5.0957 -0.33487,0 -0.76971,0.16033 -0.9668,0.35742 -0.26446,0.26446 -0.93663,0.13279 -2.56445,-0.50586 -1.2657,-0.49663 -2.27581,-0.74615 -2.98633,-0.74609 z m -64.958981,1.55468 c -0.590711,0.0242 -0.805461,0.32102 -0.876953,0.82227 -0.167226,1.17247 1.538919,2.34779 10.175784,7.00781 5.11941,2.76217 15.15608,8.48694 35.04101,19.98633 7.216,4.17299 14.84524,8.54435 16.95313,9.71484 2.43465,1.35195 4.1971,2.12891 4.83203,2.12891 0.0187,0 0.0396,-0.005 0.0586,-0.006 8.2e-4,4e-5 0.011,0.006 0.0117,0.006 0.0107,0 0.0298,-0.009 0.041,-0.01 1.88569,-0.11396 5.14258,-3.11798 5.14258,-4.78906 0,-1.69429 -1.92868,-2.84758 -16.47852,-9.85547 -21.25089,-10.23544 -24.54838,-11.92996 -24.39063,-12.5332 0.0808,-0.30897 0.0161,-0.79455 -0.14257,-1.07813 -0.60279,-1.07713 -8.11764,-4.69531 -9.75196,-4.69531 -0.54265,0 -0.75586,0.18124 -0.75586,0.64063 0,0.352 -0.0591,0.63867 -0.13086,0.63867 -0.0718,0 -3.63577,-1.56085 -7.91992,-3.4707 -7.39379,-3.29613 -10.509027,-4.561 -11.808591,-4.50782 z m 202.884761,3.07227 c -1.94184,0.20976 -7.98437,4.41053 -7.98437,5.68359 0,0.42407 0.17844,0.84284 0.39844,0.93164 1.74008,0.70214 3.60459,-0.199 6.7207,-3.24804 1.94309,-1.90126 2.35403,-3.05102 1.19727,-3.35352 -0.09,-0.0235 -0.20258,-0.0277 -0.33204,-0.0137 z m -207.314449,0.74609 c -2.018028,0 -1.623233,1.54773 0.6875,2.69922 1.864912,0.92932 3.36809,1.06574 3.650391,0.33008 0.394291,-1.0275 -2.471865,-3.0293 -4.337891,-3.0293 z M 82.375,162.56055 c -0.953584,0 -1.303594,0.72632 -0.839844,1.74414 0.602551,1.32246 6.846677,5.07021 13.503906,8.10351 1.267242,0.57741 2.703358,0.35381 2.816407,-0.4375 0.103783,-0.72644 -1.238015,-2.07086 -3.892578,-3.89843 -1.158029,-0.79726 -1.476855,-1.19019 -1.332032,-1.64649 0.378569,-1.19276 -1.501958,-2.20273 -3.394531,-1.82422 -0.723847,0.14477 -1.644826,-0.0979 -3.523437,-0.92383 -1.399002,-0.61511 -2.900893,-1.11718 -3.337891,-1.11718 z m -28.320312,1.64648 c -0.104811,0.0162 -0.195355,0.0509 -0.277344,0.10156 -1.480752,0.91516 1.214083,3.40365 11.023437,10.18164 2.464,1.70255 4.911453,3.44703 5.439453,3.87696 l 0.958985,0.78125 -0.878907,0.33789 c -1.193945,0.45832 -1.129495,1.41415 0.160157,2.3789 1.93511,1.44761 17.637815,10.02523 29.691411,16.21875 14.03335,7.21077 19.81163,10.2785 26.38867,14.00977 2.64,1.49772 5.66275,3.13352 6.71875,3.63477 2.28928,1.08667 3.09214,1.13067 4.52343,0.24609 1.42454,-0.88042 2.03711,-1.80877 2.03711,-3.08203 0,-1.43267 -0.62562,-1.80204 -11.51953,-6.82031 -12.27194,-5.65307 -25.65011,-12.23411 -30.984372,-15.24219 -4.298087,-2.42376 -14.469599,-8.76772 -17.371094,-10.83399 -0.811593,-0.57797 -4.339437,-2.82217 -7.839844,-4.98632 -3.500406,-2.16414 -8.659871,-5.42164 -11.464844,-7.24024 -4.418066,-2.86445 -5.871794,-3.67607 -6.605468,-3.5625 z m 40.287109,1.26953 c -0.711945,-0.0418 -0.902344,0.28525 -0.902344,0.89063 0,0.73924 1.586227,1.74013 8.400387,5.30078 4.38539,2.29152 4.72071,2.53053 4.72071,3.37109 0,1.16922 1.14445,2.1326 4.5625,3.84375 2.47598,1.23954 3.14909,1.36346 4.4375,0.81836 0.3658,-0.15476 1.10566,0.32106 2.48242,1.59571 1.72782,1.59962 2.08312,1.79636 2.99805,1.65624 0.89129,-0.13649 1.46848,0.14842 4.07812,2.00977 6.22312,4.4387 18.87809,12.35527 25.12109,15.7168 1.584,0.8529 3.20914,1.55364 3.61133,1.55664 0.0826,5e-4 0.16527,-0.014 0.24805,-0.0234 0.003,6.8e-4 0.0574,0.0273 0.0586,0.0273 0.001,1e-5 0.0406,-0.0342 0.043,-0.0351 0.95826,-0.1559 1.9293,-0.97135 2.90821,-2.44922 1.25775,-1.89896 1.26465,-3.02298 0.0215,-3.9082 -2.71943,-1.9364 -41.6572,-21.40566 -53.3418,-26.67188 -5.624679,-2.53502 -8.260689,-3.62952 -9.447263,-3.69922 z m -25.708985,1.09766 c -0.137844,-0.007 -0.244794,0.004 -0.316406,0.0312 -0.02701,0.0104 -0.04171,0.0257 -0.06641,0.0371 -0.391779,0.0873 -0.622471,0.2825 -0.667969,0.60156 -0.168141,1.17912 3.755644,3.92416 11.9375,8.34961 2.288,1.23754 7.471531,4.04578 11.519531,6.24219 4.048001,2.19641 13.697408,7.34751 21.441408,11.44531 7.744,4.09779 17.46361,9.27362 21.59961,11.50195 4.136,2.22832 7.88031,4.2134 8.32031,4.41211 1.23764,0.55896 2.93567,0.46483 4.06641,-0.22461 1.49324,-0.91048 2.72154,-2.90721 2.5957,-4.2207 -0.10219,-1.06674 -0.1373,-1.08745 -10.98438,-6.50977 -5.98534,-2.992 -13.9771,-6.86454 -17.75976,-8.60546 -17.26122,-7.94426 -20.574411,-9.5843 -19.87305,-9.84375 0.82075,-0.30362 0.86787,-0.96226 0.11524,-1.625 -0.948263,-0.83501 -3.960561,-2.21863 -4.433597,-2.03711 -0.548611,0.21053 -0.584154,1.20491 -0.0625,1.72656 0.211159,0.2112 0.302585,0.38476 0.203125,0.38476 -0.09947,0 -3.836952,-1.78652 -8.304687,-3.9707 -10.610513,-5.18727 -16.764008,-7.65914 -19.181641,-7.67383 -0.04577,-0.005 -0.10811,-0.0195 -0.148438,-0.0215 z m 226.994138,3.70703 c -0.51275,-0.0307 -1.17155,0.222 -1.82226,0.76953 -1.09867,0.92447 -1.3322,2.17357 -0.49414,2.64258 1.33035,0.74449 3.4533,-0.86532 3.26562,-2.47656 -0.0688,-0.59065 -0.43646,-0.90483 -0.94922,-0.93555 z m -15.94726,1.87891 c 0.0165,0.0165 -0.0803,0.14662 -0.2793,0.40039 -0.41804,0.53308 -0.67969,0.70283 -0.67969,0.43945 0,-0.0664 0.2506,-0.31899 0.5586,-0.56055 0.25377,-0.19901 0.38387,-0.29581 0.40039,-0.27929 z m -224.916018,9.98242 c -1.052829,0.122 -1.365116,1.44178 -0.492188,2.08008 0.762314,0.55746 2.256323,0.53097 2.476563,-0.043 0.301091,-0.78463 -1.027133,-2.14803 -1.984375,-2.03711 z m 9.765625,1.2168 c -0.877018,-10e-6 -0.987249,0.90702 -0.285156,2.3457 0.358195,0.734 0.881939,2.15405 1.166015,3.15625 0.499111,1.76084 0.606799,1.88157 3.154297,3.56445 3.514659,2.32179 5.228127,3.15245 6.259766,3.0332 0.741501,-0.0857 0.850507,-0.23622 0.810547,-1.1289 l -0.04687,-1.03125 1.005859,0.42969 c 3.179741,1.35452 4.194471,2.11132 2.830078,2.11132 -0.787731,0 -1.34375,0.62228 -1.34375,1.50196 0,1.05141 2.017241,2.41217 8.958984,6.04687 13.683038,7.16444 18.925608,9.98138 28.480468,15.30274 6.88362,3.83367 10.39372,5.61609 11.06836,5.62109 1.27888,0.009 4.3812,-2.18345 4.91602,-3.47461 0.53249,-1.28554 0.19235,-2.15262 -1.20899,-3.07812 -1.37425,-0.9076 -11.41281,-5.67101 -23.41406,-11.10938 -10.602932,-4.80473 -9.674944,-4.29961 -9.226563,-5.01758 0.201991,-0.32345 0.278648,-0.82017 0.169922,-1.10351 -0.108727,-0.28333 -5.712122,-3.26887 -12.451172,-6.63477 -6.73905,-3.36589 -14.063554,-7.11209 -16.275391,-8.32617 -2.21184,-1.21408 -4.266673,-2.20898 -4.568359,-2.20898 z m 222.042973,1.4414 c 0.12917,0.0177 0.0695,0.32022 -0.15625,0.91406 -0.21339,0.56125 -0.5569,0.84571 -1.02735,0.84571 -0.68384,0 -0.67653,-0.0327 0.20899,-0.95703 0.52914,-0.55231 0.84543,-0.82042 0.97461,-0.80274 z m -253.306645,2.27149 c -0.880465,-0.0675 -1.294231,0.14866 -1.478516,0.6289 -0.296225,0.77195 0.754999,1.64635 4.060547,3.375 1.700676,0.88937 3.857593,2.19634 4.792969,2.9043 1.448845,1.09654 1.866183,1.26099 2.8125,1.10742 1.339693,-0.2174 2.196506,0.18723 5.666016,2.68164 3.090589,2.22199 4.475883,2.9259 10.080078,5.12305 2.376,0.93153 9.503844,4.32122 15.839843,7.53125 6.336001,3.21002 12.816391,6.29088 14.400391,6.8457 1.773264,0.62112 6.877803,3.2011 13.281247,6.71485 5.72,3.1387 11.26236,6.14703 12.31836,6.68554 2.41808,1.23309 3.0709,1.23963 4.79883,0.0508 2.96346,-2.03891 3.38876,-3.58988 1.41797,-5.17968 -0.62963,-0.50791 -7.54296,-3.92247 -15.36133,-7.5879 -7.818375,-3.66543 -21.126217,-10.05539 -29.574218,-14.19921 -8.447999,-4.14382 -16.106667,-7.79342 -17.019531,-8.11133 -1.571693,-0.54739 -1.692516,-0.54954 -2.269531,-0.0274 -0.582349,0.52701 -0.781667,0.46671 -4.5,-1.36328 -2.139894,-1.05315 -5.020948,-2.56649 -6.402344,-3.36328 -1.504,-0.86751 -2.909241,-1.44922 -3.503906,-1.44922 -0.546186,0 -2.833239,-0.58341 -5.080078,-1.29687 -2.052184,-0.65165 -3.398832,-1.00283 -4.279297,-1.07031 z m 235.124995,2.51562 c 0.0568,0.007 0.0899,0.0406 0.0899,0.10352 0,0.17239 -0.5192,0.70848 -1.15235,1.1914 -0.87976,0.67103 -1.12406,0.75075 -1.03906,0.3418 0.1071,-0.5155 1.70391,-1.68863 2.10156,-1.63672 z m -243.962886,1.14844 c -0.918067,-0.0207 -1.694541,0.0988 -1.96289,0.36719 -0.664796,0.6648 -0.426623,1.87967 0.546875,2.78906 0.889193,0.83063 0.901888,0.88753 0.318359,1.25195 -0.931954,0.58201 -0.738745,1.31461 0.69336,2.63672 1.443644,1.33277 9.633364,5.51843 13.402343,6.84961 1.311882,0.46334 4.911882,2.04497 8,3.51367 3.088119,1.4687 7.695726,3.56378 10.240235,4.65625 4.135959,1.77574 4.736716,1.95107 5.671875,1.66406 0.924755,-0.28382 1.257162,-0.19408 2.857421,0.76954 0.995582,0.59951 2.746011,1.75939 3.890626,2.57617 1.144614,0.81678 2.816825,1.7595 3.716796,2.0957 2.52216,0.9422 10.171361,4.86231 18.117188,9.28516 7.712679,4.29307 11.851968,6.43914 15.679688,8.13086 2.99186,1.3223 4.01105,1.34796 5.67773,0.14062 2.52501,-1.8291 3.04166,-3.69623 1.44336,-5.22461 -0.484,-0.46282 -10.60047,-5.76817 -22.480466,-11.78906 -22.569936,-11.43865 -27.909144,-14.06299 -32.160156,-15.81055 -1.408,-0.57882 -4.432703,-1.94579 -6.720703,-3.03711 -7.139168,-3.4052 -10.646469,-4.80078 -12.058594,-4.80078 -1.032579,0 -2.299741,-0.54049 -5.984375,-2.54883 -2.571495,-1.40161 -5.306044,-2.77062 -6.076172,-3.04101 -0.835148,-0.29321 -1.894432,-0.45393 -2.8125,-0.47461 z m 59.423828,6.44726 c 0.69473,0.11646 2.869141,1.20627 2.869141,1.5 0,0.68283 -0.533939,0.57422 -1.837891,-0.37109 -0.74677,-0.54138 -1.298702,-1.04313 -1.226562,-1.11523 0.02826,-0.0283 0.09606,-0.0303 0.195312,-0.0137 z m 186.191408,2.17579 c 0.176,-10e-6 0.4088,0.14431 0.51758,0.32031 0.10877,0.176 0.053,0.32031 -0.12305,0.32031 -0.176,0 -0.40881,-0.14431 -0.51758,-0.32031 -0.10878,-0.176 -0.053,-0.32031 0.12305,-0.32031 z m -239.861329,5.02148 c -0.655429,-0.0289 -0.938537,0.19687 -1.001953,0.64258 -0.07575,0.53236 0.234672,0.91697 1.279296,1.58008 1.997494,1.26798 9.156576,4.50916 13.060547,5.91406 4.09432,1.4734 5.121094,1.56721 5.121094,0.46484 0,-1.32816 -0.915001,-1.82585 -11.361328,-6.18164 -3.877876,-1.61695 -6.005275,-2.37173 -7.097656,-2.41992 z m -8.035157,2.71289 c -1.270065,0.0607 -1.787953,0.78517 -0.644531,1.86719 0.405822,0.38403 1.818672,1.25246 3.138672,1.93164 3.166629,1.62934 4.798828,1.66957 4.798828,0.11719 0,-0.83688 -1.410792,-1.87993 -4.390625,-3.24415 -1.107937,-0.50723 -2.140304,-0.7083 -2.902344,-0.67187 z m 12.273438,2.54687 c -0.130179,-0.0138 -0.247866,-0.0122 -0.351563,0.008 -0.989664,0.19059 -0.751066,1.28415 0.458985,2.09961 1.673988,1.1281 2.885969,0.87833 2.447265,-0.50391 -0.20694,-0.65201 -1.643436,-1.50693 -2.554687,-1.60352 z m 22.660156,39.41211 c 0.06979,-0.0698 2.338863,0.80373 5.042969,1.94141 7.413037,3.11882 11.430423,4.68555 12.017578,4.68555 0.290605,0 0.757297,-0.20436 1.035156,-0.45508 0.440986,-0.3979 0.782859,-0.33753 2.703125,0.48242 4.788631,2.04475 11.981464,5.77349 13.800782,7.1543 1.055999,0.80147 3.000312,2.02551 4.320312,2.71875 1.32,0.69324 2.687062,1.48052 3.039062,1.75 0.352001,0.26948 0.496313,0.48642 0.320313,0.48242 -0.452409,-0.009 -7.465333,-3.0694 -17.919922,-7.82031 -4.928,-2.23945 -11.047609,-4.92731 -13.599609,-5.97461 -5.335146,-2.18949 -10.945555,-4.77906 -10.759766,-4.96485 z m 34.59961,8.89063 c 0.176,0 0.681093,0.2055 1.121093,0.45703 0.44,0.25152 0.654516,0.45703 0.478516,0.45703 -0.176,0 -0.679141,-0.20551 -1.119141,-0.45703 -0.44,-0.25153 -0.656469,-0.45703 -0.480468,-0.45703 z m -11.31836,6.54883 c 0.160938,-0.16094 13.278509,4.35909 17.078125,5.88476 3.370587,1.35341 3.999997,1.78624 3.999997,2.75 0,0.43594 -0.10823,0.78198 -0.24023,0.76758 -0.132,-0.0144 -2.620646,-1.20303 -5.531251,-2.64062 -2.910605,-1.43759 -7.085901,-3.3216 -9.279297,-4.18555 -2.193395,-0.86395 -4.479101,-1.76555 -5.078125,-2.00391 -0.599024,-0.23836 -1.025789,-0.49566 -0.949219,-0.57226 z m -4.128906,5.71875 c -0.495991,0.0202 -0.712891,0.28871 -0.712891,0.81054 0,0.66646 0.750683,1.172 3.679688,2.47852 1.92945,0.86066 2.674976,0.91347 2.945312,0.20898 0.282493,-0.73616 -0.951768,-1.72314 -3.519531,-2.81445 -1.120533,-0.47623 -1.896587,-0.70378 -2.392578,-0.68359 z m 28.187498,20.18164 c 0.18968,-0.0472 1.37644,0.42861 3.44922,1.39648 1.8318,0.85535 3.8609,1.72925 4.50977,1.94141 1.10756,0.36215 3.14062,2.07779 3.14062,2.65039 0,0.39523 -0.28683,0.30743 -2.87891,-0.87109 -1.31999,-0.60016 -2.5759,-1.09461 -2.78906,-1.09961 -0.21315,-0.005 -1.15317,-0.63357 -2.08984,-1.39649 -0.93666,-0.76292 -2.09835,-1.64792 -2.58203,-1.96484 -0.62764,-0.41124 -0.87358,-0.62792 -0.75977,-0.65625 z m 271.86328,0.7207 c 0.0513,-2.2e-4 0.0869,0.009 0.10742,0.0293 0.33383,0.33382 -0.18304,2.41177 -0.79101,3.17773 -0.60835,0.76649 -4.08008,0.31949 -4.08008,-0.52539 0,-0.47483 3.99433,-2.67835 4.76367,-2.68164 z"
       id="path34"
       inkscape:connector-curvature="0" />
  </g>
</svg>
