<?xml version="1.0" encoding="UTF-8" standalone="no"?>
<!-- Created with Inkscape (http://www.inkscape.org/) -->

<svg
   version="1.1"
   id="svg1197"
   width="566.66669"
   height="566.66669"
   viewBox="0 0 566.66669 566.66669"
   sodipodi:docname="StrassengespraecheUndFlyern.svg"
   inkscape:version="1.1 (ce6663b3b7, 2021-05-25)"
   inkscape:export-filename="/mnt/data/Coding/Sammel-App/Sammel-App/sammel_app/assets/images/StrassengespraecheUndFlyern.png"
   inkscape:export-xdpi="191.03671"
   inkscape:export-ydpi="191.03671"
   xmlns:inkscape="http://www.inkscape.org/namespaces/inkscape"
   xmlns:sodipodi="http://sodipodi.sourceforge.net/DTD/sodipodi-0.dtd"
   xmlns="http://www.w3.org/2000/svg"
   xmlns:svg="http://www.w3.org/2000/svg">
  <defs
     id="defs1201" />
  <sodipodi:namedview
     id="namedview1199"
     pagecolor="#ffffff"
     bordercolor="#666666"
     borderopacity="1.0"
     inkscape:pageshadow="2"
     inkscape:pageopacity="0.0"
     inkscape:pagecheckerboard="0"
     showgrid="false"
     inkscape:zoom="1.4682352"
     inkscape:cx="314.32294"
     inkscape:cy="283.6739"
     inkscape:window-width="1848"
     inkscape:window-height="1016"
     inkscape:window-x="72"
     inkscape:window-y="27"
     inkscape:window-maximized="1"
     inkscape:current-layer="g1207" />
  <g
     inkscape:groupmode="layer"
     inkscape:label="Image"
     id="g1203">
    <g
       id="g1207"
       style="fill:#800080">
      <path
         style="display:inline;fill:#800080;fill-opacity:1;stroke-width:1.33333"
         d="M 253.33334,526.52624 C 122.36384,511.75509 24.231177,397.9766 29.782392,267.33334 33.283119,184.94663 73.002176,114.06048 141.78634,67.441181 232.89084,5.6940037 357.00487,12.82444 442.66668,84.726963 530.24217,158.23578 556.72858,282.82948 506.71199,386.00002 460.39979,481.52943 357.98572,538.32925 253.33334,526.52624 Z m 87.66667,-34.50191 c 2.93003,-1.27014 3,-1.79287 3,-22.40958 0,-19.3593 0.27631,-21.81414 3.33334,-29.61473 3.8382,-9.7939 4.12025,-12.76046 1.36009,-14.30511 -1.08529,-0.60736 -3.45848,-3.11741 -5.27377,-5.57789 -1.81528,-2.46048 -5.15106,-5.59898 -7.41282,-6.97443 -2.43746,-1.48232 -5.15758,-4.9394 -6.67885,-8.48837 -1.4116,-3.29315 -2.78967,-5.98754 -3.06236,-5.98754 -0.27269,0 -0.1872,3.75 0.18999,8.33334 1.40674,17.09368 0.81013,68.21828 -0.85967,73.66667 -0.899,2.93333 -2.13447,7.8088 -2.74549,10.83437 l -1.11096,5.50104 8.13025,-1.83865 c 4.47164,-1.01127 9.48025,-2.42387 11.13025,-3.13912 z m 7.08195,-128.02432 c 0.65845,0 2.39521,-2.34832 3.85947,-5.2185 1.46425,-2.87018 4.38873,-6.91999 6.49884,-8.99959 l 3.83656,-3.78108 -2.55027,-4.89277 c -1.89939,-3.64407 -2.20337,-5.51576 -1.19109,-7.33375 0.74753,-1.34253 2.55124,-7.38019 4.00825,-13.417 2.66227,-11.03051 8.05491,-22.20091 11.32322,-23.45508 0.96564,-0.37055 2.13897,-3.07047 2.6074,-5.99983 0.69776,-4.36354 2.41861,-6.7619 9.52201,-13.27088 4.80788,-4.40555 8.67033,-9.06684 8.67033,-10.46352 0,-3.08755 -7.83725,-5.83467 -16.64566,-5.83467 -8.47435,0 -11.35434,-3.16089 -11.35434,-12.46181 0,-3.92067 -0.96053,-9.05392 -2.13452,-11.40724 -1.41923,-2.84491 -1.8458,-5.81783 -1.27292,-8.87152 l 0.86161,-4.59276 h -5.41533 c -4.84409,0 -5.64297,-0.47741 -7.5736,-4.52597 -2.71177,-5.68664 -1.51923,-11.05098 2.90488,-13.06672 2.05236,-0.93512 3.29655,-2.60908 3.29655,-4.43527 0,-1.61328 1.58957,-5.26698 3.5324,-8.11931 1.94281,-2.85233 4.31405,-8.13288 5.2694,-11.73453 0.95535,-3.60166 2.49224,-7.01523 3.41532,-7.58572 0.95885,-0.59262 1.70073,-3.78692 1.7306,-7.45154 l 0.0523,-6.41428 7.33333,-3.62386 c 4.03334,-1.99314 9.21434,-3.64314 11.51332,-3.66667 2.99818,-0.0307 4.81996,-1.01952 6.44352,-3.49739 2.03291,-3.1026 2.8976,-3.3862 8.48668,-2.78336 22.80119,2.45931 31.92244,3.95034 34.50958,5.64122 1.6242,1.06153 4.64069,1.93006 6.70332,1.93006 7.19631,0 10.95395,5.00632 19.71271,26.2633 2.34065,5.68064 2.3043,8.1781 -0.39478,27.11684 -1.09124,7.65696 -6.79752,19.0884 -10.17549,20.38464 -1.56076,0.59892 -1.78975,2.77283 -1.17511,11.15621 0.41987,5.72679 1.5763,11.59586 2.56983,13.04236 0.99353,1.4465 1.80643,3.67242 1.80643,4.94647 0,1.59535 1.76405,2.7948 5.66666,3.853 10.7247,2.90801 13.3215,4.37075 17.15547,9.66339 2.11449,2.91898 3.84287,5.96721 3.84083,6.77385 -0.003,1.26785 1.38702,4.45657 6.88064,15.78186 0.61769,1.27338 1.18297,13.27338 1.2562,26.66666 l 0.1332,24.35143 2.59758,-8 c 7.58647,-23.36475 10.22599,-65.91536 5.80826,-93.6326 C 494.24155,194.3227 473.37818,153.3683 438.65067,118.66984 420.05903,100.09376 403.68179,88.240914 380.66668,76.704578 343.96848,58.309585 308.02136,51.09247 265.33334,53.549066 c -29.45477,1.695055 -56.74018,9.15735 -84.66667,23.155512 -23.03032,11.54396 -39.40304,23.397162 -57.98398,41.978112 -18.64397,18.64397 -30.509856,35.04261 -41.956584,57.98398 -17.987531,36.05035 -25.545314,72.47769 -23.375588,112.66668 0.768892,14.24189 0.04847,14.75385 8.251793,-5.86406 3.781576,-9.50447 4.682352,-10.72416 9.243117,-12.51568 4.223955,-1.65921 4.844217,-2.37549 3.77963,-4.36468 -2.460572,-4.59763 -7.730848,-20.64912 -8.626916,-26.27469 -0.715884,-4.49438 -0.321643,-6.67562 1.881436,-10.40955 1.5329,-2.59808 2.787092,-5.36525 2.787092,-6.14929 0,-2.41455 7.329703,-15.96952 13.566459,-25.08873 5.507467,-8.05285 6.535392,-8.87089 14.513731,-11.55028 7.44107,-2.49894 11.72905,-2.89913 32.14447,-3 l 23.558,-0.1164 5.3278,4.78287 c 2.93029,2.63059 6.54141,7.58059 8.02472,11 1.48329,3.41943 4.23468,8.28371 6.1142,10.80951 1.8795,2.5258 3.41729,5.6404 3.41729,6.92131 0,1.28092 0.55384,2.67122 1.23075,3.08958 0.67692,0.41836 1.66158,2.70376 2.18816,5.0787 0.92188,4.15782 1.00745,4.20673 2.30633,1.31804 0.74191,-1.65 2.08727,-3 2.98967,-3 2.25112,0 3.4348,-5.22892 1.85282,-8.18486 -0.81632,-1.52532 -0.83129,-3.29464 -0.0405,-4.78444 2.52833,-4.76306 6.80613,-15.03915 6.80613,-16.34949 0,-0.74134 1.8,-1.34787 4.00001,-1.34787 2.53012,0 4,-0.68252 4,-1.85735 0,-1.02154 0.88988,-2.19882 1.97752,-2.6162 1.14288,-0.43856 1.63966,-1.63929 1.17702,-2.84489 -0.49486,-1.28961 0.60852,-3.39188 2.89003,-5.50631 3.00583,-2.7857 4.23259,-3.17325 6.61241,-2.08893 1.60706,0.73223 3.58592,0.92093 4.39747,0.41937 0.81156,-0.50157 4.05631,-0.86136 7.21055,-0.79953 3.15425,0.0619 6.09781,-0.41611 6.54124,-1.06207 0.44344,-0.64596 1.75058,-0.23013 2.90476,0.92406 2.64116,2.64116 5.48166,2.67786 7.62233,0.0985 0.91292,-1.1 3.00739,-2 4.65437,-2 2.51366,0 3.11778,0.90996 3.76216,5.66667 0.42222,3.11666 0.20122,5.86666 -0.4911,6.1111 -1.87056,0.66047 -1.5248,3.93582 0.4079,3.86403 5.86635,-0.21787 6.55535,0.31204 5.66667,4.3582 -0.69532,3.16576 -0.42599,4 1.29135,4 3.84985,0 8.62049,6.85928 8.66652,12.46084 0.0251,3.0437 1.20064,6.75448 2.89278,9.13088 1.56786,2.20186 3.0278,6.19448 3.24432,8.8725 0.21652,2.67801 0.79027,6.16774 1.275,7.75496 0.65014,2.12877 0.14566,3.27956 -1.923,4.38668 -2.05977,1.10234 -2.59853,2.3208 -2.02921,4.58914 0.48004,1.91263 -0.0229,3.8864 -1.32132,5.18476 -1.47019,1.47019 -2.09644,4.64894 -2.09644,10.64126 0,5.54902 -1.33512,12.99173 -3.80813,21.22869 l -3.80814,12.68387 4.80814,2.46717 c 8.17988,4.1973 11.0309,7.61015 13.86672,16.59926 0.52359,1.65969 0.79481,1.60362 1.59403,-0.32951 0.61068,-1.47709 -0.55224,-5.47145 -3.1781,-10.91599 -4.86787,-10.09322 -5.02089,-12.3854 -1.47452,-22.08785 1.46667,-4.01263 2.66667,-8.33228 2.66667,-9.59924 0,-1.26695 3.65772,-5.34754 8.12827,-9.06796 6.26793,-5.21622 8.78553,-6.56024 11,-5.87236 1.57945,0.49062 3.07173,1.41274 3.31617,2.04913 1.13271,2.94892 3.09617,0.83112 2.2724,-2.45101 -0.49807,-1.98447 -1.14255,-9.63447 -1.43217,-17 -0.28963,-7.36555 -0.9095,-16.48743 -1.37747,-20.27086 -0.74745,-6.04273 -0.52053,-7.05576 1.86664,-8.33333 4.68659,-2.50819 8.18161,-1.74512 9.6458,2.10595 0.74449,1.95818 1.85064,12.93982 2.45811,24.40366 0.60746,11.46383 1.71348,22.01168 2.45781,23.43967 0.74432,1.42799 2.16256,4.39635 3.15165,6.59635 0.98908,2.2 3.75908,6.63628 6.15556,9.8584 4.99026,6.70952 5.18094,7.68811 2.15058,11.03661 -3.63595,4.01768 -7.69303,3.02176 -11.79335,-2.89501 -2.0328,-2.93333 -4.10805,-5.33334 -4.61167,-5.33334 -0.5036,0 -2.25188,2.67553 -3.88504,5.94562 -2.65209,5.31031 -2.7668,6.27197 -1.07348,9 1.04274,1.67991 2.94346,6.35439 4.22382,10.38772 1.28036,4.03333 3.15706,9.30369 4.17048,11.71191 1.01341,2.40821 1.84256,6.17816 1.84256,8.37765 0,5.47275 5.333,15.43551 11.87002,22.17475 2.98631,3.0787 6.41598,8.06268 7.62147,11.0755 1.50973,3.77318 2.79368,5.24691 4.12588,4.7357 1.06373,-0.4082 2.47279,-0.74218 3.13124,-0.74218 z m -13.09347,-85 c -4.77318,-6.92743 -11.40205,-22.33867 -11.9003,-27.66667 -0.27431,-2.93333 -0.84551,-10.82748 -1.26932,-17.54254 -0.75694,-11.99328 -0.71046,-12.2486 2.6282,-14.43618 1.86932,-1.22482 4.78346,-2.03068 6.47585,-1.79078 2.99404,0.4244 3.09863,0.92202 3.87499,18.43617 0.75344,16.99753 1.03749,18.44555 5.10036,26 2.36636,4.4 5.1573,8.94724 6.2021,10.10499 2.6921,2.98312 2.35356,7.55825 -0.67937,9.18144 -4.32804,2.31629 -7.7828,1.55913 -10.43251,-2.28643 z m 14.21818,-14.66667 c -3.97244,-4.94792 -5.15606,-8.52973 -6.56475,-19.86594 -1.32135,-10.63332 -1.23999,-11.88666 0.87188,-13.43088 2.59184,-1.8952 9.29327,-2.30007 10.32912,-0.62403 0.36683,0.59353 0.98991,5.48004 1.38463,10.85889 0.39472,5.37887 1.63,11.17214 2.74506,12.87395 2.85084,4.35092 2.52174,8.02389 -0.93594,10.44575 -3.81712,2.67361 -5.52162,2.6175 -7.83,-0.25774 z m -175.9256,66.39563 c 4.72646,-5.63356 13.11755,-9.39562 20.95646,-9.39562 3.04813,0 4.42914,-0.6236 4.42914,-2 0,-1.1 1.14971,-2 2.55491,-2 1.55644,0 3.24687,-1.56322 4.32548,-4 0.97382,-2.2 2.503,-4 3.39819,-4 2.51691,0 4.89389,-5.49682 4.61259,-10.66667 -0.57279,-10.52643 -3.40578,-17.8066 -8.8078,-22.63419 -2.89207,-2.58453 -6.17729,-5.74915 -7.30049,-7.03248 -1.1232,-1.28333 -2.72205,-2.33333 -3.55298,-2.33333 -0.83094,0 -2.06168,-1.9208 -2.73498,-4.26846 l -1.22417,-4.26844 -2.96871,3.18652 c -2.51528,2.69984 -2.97592,4.72642 -3.01596,13.26846 -0.026,5.54505 -0.77597,11.38152 -1.66666,12.96993 -2.41402,4.30506 -7.90712,8.1585 -12.35086,8.66418 -3.54862,0.40382 -4.01202,1.02333 -4.717,6.30612 -0.42997,3.22208 -1.728,6.52208 -2.88449,7.33333 -1.15651,0.81127 -2.98725,2.07503 -4.06833,2.80836 -1.08108,0.73333 -2.32944,3.81636 -2.77412,6.85117 -0.75326,5.14056 -0.4337,5.8927 4.67362,11 3.01519,3.01519 6.20479,5.48216 7.08802,5.48216 0.88321,0 3.59588,-2.37197 6.02814,-5.27104 z"
         id="path1219" />
    </g>
  </g>
</svg>
