<?xml version="1.0" encoding="UTF-8" standalone="no"?>
<svg
   xmlns:dc="http://purl.org/dc/elements/1.1/"
   xmlns:cc="http://creativecommons.org/ns#"
   xmlns:rdf="http://www.w3.org/1999/02/22-rdf-syntax-ns#"
   xmlns:svg="http://www.w3.org/2000/svg"
   xmlns="http://www.w3.org/2000/svg"
   xmlns:sodipodi="http://sodipodi.sourceforge.net/DTD/sodipodi-0.dtd"
   xmlns:inkscape="http://www.inkscape.org/namespaces/inkscape"
   version="1.1"
   id="svg10"
   width="944.96002"
   height="982.71997"
   viewBox="0 0 944.96002 982.71997"
   sodipodi:docname="info.svg"
   inkscape:version="1.0.1 (1.0.1+r75)">
  <metadata
     id="metadata16">
    <rdf:RDF>
      <cc:Work
         rdf:about="">
        <dc:format>image/svg+xml</dc:format>
        <dc:type
           rdf:resource="http://purl.org/dc/dcmitype/StillImage" />
        <dc:title />
      </cc:Work>
    </rdf:RDF>
  </metadata>
  <defs
     id="defs14" />
  <sodipodi:namedview
     pagecolor="#ffffff"
     bordercolor="#666666"
     borderopacity="1"
     objecttolerance="10"
     gridtolerance="10"
     guidetolerance="10"
     inkscape:pageopacity="0"
     inkscape:pageshadow="2"
     inkscape:window-width="1848"
     inkscape:window-height="1016"
     id="namedview12"
     showgrid="false"
     inkscape:zoom="0.84255945"
     inkscape:cx="472.48001"
     inkscape:cy="491.35999"
     inkscape:window-x="72"
     inkscape:window-y="27"
     inkscape:window-maximized="1"
     inkscape:current-layer="svg10"
     inkscape:document-rotation="0" />
  <g
     id="g20"
     inkscape:export-xdpi="62.766346"
     inkscape:export-ydpi="62.766346">
    <path
       style="display:inline;fill:#891888;stroke-width:0.32"
       d="m 470.65134,825.90343 c -26.55341,-1.10803 -50.71296,-4.76931 -80.25133,-12.16179 -41.34723,-10.34784 -78.57564,-26.70704 -113.6,-49.91904 -44.30443,-29.36221 -77.66705,-62.12752 -107.18159,-105.26262 -25.49842,-37.2656 -42.86349,-75.82016 -53.76008,-119.36 -6.89176,-27.53769 -10.09577,-47.58928 -11.91378,-74.55999 -0.52145,-7.73588 -0.52145,-34.18413 0,-41.92 1.81801,-26.97072 5.02202,-47.02231 11.91378,-74.56 10.34238,-41.32537 26.7409,-78.64484 49.9169,-113.6 30.69106,-46.28973 64.7695,-80.36751 111.02477,-111.02263 35.0032,-23.19795 72.27776,-39.577433 113.6,-49.91902 35.58131,-8.904822 62.01264,-12.311548 95.52,-12.311548 33.50736,0 59.93869,3.406726 95.52,12.311548 41.32224,10.341587 78.5968,26.72107 113.6,49.91902 45.69767,30.28557 79.67671,64.09774 110.03025,109.48992 23.75597,35.52584 40.4192,73.20861 50.91142,115.13271 5.84509,23.35549 9.03114,41.40624 10.87271,61.6 1.20694,13.23469 1.44012,18.72681 1.44012,33.92 0,15.19318 -0.23318,20.68531 -1.44012,33.92 -1.84157,20.19375 -5.02762,38.24451 -10.87271,61.59999 -12.87277,51.4361 -35.07814,96.59664 -68.91651,140.16 -25.16045,32.39149 -54.55181,59.50326 -90.49309,83.47446 -30.55962,20.38192 -62.27805,35.39626 -97.1754,45.99926 -10.85097,3.2969 -30.77216,8.2193 -42.43667,10.48583 -28.35603,5.50985 -57.94912,7.76732 -86.30867,6.5839 z m 78.62867,-43.35913 c 3.78717,-0.64909 4,-0.72461 4,-1.41927 0,-0.3255 -2.052,-2.77913 -4.56,-5.45251 -7.34131,-7.82541 -6.80339,-7.01478 -6.78013,-10.21741 0.0134,-1.8496 0.2577,-3.55846 0.7544,-5.27814 1.04615,-3.62186 0.85044,-5.13242 -1.20268,-9.28336 -1.49824,-3.02906 -1.68864,-3.66134 -1.99981,-6.6407 -0.43603,-4.17479 -0.13501,-8.573 0.83865,-12.25293 1.92186,-7.26375 2.44871,-10.25226 2.716,-15.40579 0.39732,-7.66132 0.66042,-8.68621 2.85005,-11.10237 1.46986,-1.62195 2.00032,-2.53546 2.84755,-4.90394 0.57264,-1.60089 1.53002,-3.59827 2.12749,-4.43865 1.6033,-2.25504 4.73853,-4.86564 6.33754,-5.277 2.8824,-0.74153 4.62413,-1.38448 6.47094,-2.38864 1.08077,-0.58761 2.82919,-1.19807 4,-1.3966 3.02874,-0.51351 3.52,-1.17741 3.52,-4.75683 0,-2.53728 -0.0785,-2.87652 -0.99734,-4.30839 -1.23856,-1.93011 -1.51219,-4.46883 -0.924,-8.57251 l 0.40816,-2.84755 -1.0512,-1.32727 c -1.39351,-1.75942 -1.56525,-2.87212 -1.58167,-10.24723 -0.0166,-7.40093 -0.35216,-9.13942 -2.22092,-11.50361 -1.2009,-1.5192 -1.26154,-1.71095 -1.49111,-4.71364 -0.35171,-4.60044 0.3129,-18.68505 0.9857,-20.88998 0.40147,-1.31561 0.57248,-3.41638 0.67725,-8.32 0.17612,-8.24093 0.17702,-8.23865 -3.5136,-8.80966 -0.82384,-0.12749 -1.69316,-0.61821 -2.63818,-1.48931 -2.08323,-1.92026 -2.33107,-3.3112 -1.5393,-8.63917 0.11799,-0.79392 0.67623,-1.75082 1.71188,-2.93431 1.99139,-2.27568 3.65292,-5.04009 4.35612,-7.24755 0.30836,-0.968 0.80679,-2.12 1.10765,-2.56 0.91187,-1.33366 1.94922,-3.53395 2.43111,-5.15664 0.25084,-0.84473 0.59379,-1.62096 0.76208,-1.72499 0.16828,-0.104 1.33836,-2.23418 2.60019,-4.73373 1.26182,-2.49955 2.66793,-5.26464 3.12467,-6.14464 1.12608,-2.16947 4.71309,-5.8792 7.93088,-8.20214 3.14774,-2.27238 9.67453,-5.22762 12.26163,-5.55187 0.968,-0.12131 3.344,-0.57943 5.28,-1.01805 6.33015,-1.43411 20.4416,-1.71706 26.56,-0.53251 4.81914,0.93296 14.00832,3.97389 15.8425,5.24265 0.44138,0.30535 1.88138,1.02708 3.2,1.60388 1.31862,0.5768 3.54304,1.89996 4.94314,2.94035 1.40006,1.04041 3.12806,2.1879 3.84,2.55001 3.2398,1.64791 8.7095,6.88346 9.76585,9.34784 0.42944,1.00179 0.85978,1.45715 1.65447,1.75059 2.7056,0.99911 4.45254,2.03028 6.69334,3.95095 1.33062,1.14051 2.99149,2.43485 3.69085,2.87632 1.78653,1.12781 4.77654,3.91837 5.56454,5.19337 1.69251,2.73856 1.75591,3.41322 1.75952,18.72861 0.003,13.95747 -0.0102,14.26221 -0.67661,15.36 -0.37398,0.616 -0.86188,1.696 -1.08419,2.4 -0.22233,0.704 -0.76294,1.97175 -1.20134,2.81722 -0.68541,1.32173 -0.76362,1.77027 -0.55795,3.2 0.57382,3.98947 0.63385,4.99324 0.43036,7.1975 -0.11852,1.2841 -0.50025,3.0841 -0.84828,4 -0.34807,0.9159 -0.80036,2.52928 -1.00516,3.58528 -0.20476,1.056 -0.64915,3.216 -0.98748,4.8 -0.86688,4.05856 -0.81386,7.13382 0.1711,9.92 1.01987,2.88509 1.0863,6.03475 0.16534,7.84 -0.352,0.68998 -0.64,1.39923 -0.64,1.57613 0,0.62294 2.10013,2.70557 3.84,3.80797 3.19738,2.02588 4.03943,2.85273 5.04151,4.95052 1.13984,2.38631 1.58345,6.43341 1.20422,10.98621 -0.21955,2.63546 -0.28822,2.82637 -1.48365,4.12327 -0.81401,0.88307 -1.84044,1.5702 -2.92777,1.9599 -1.45181,0.52035 -1.68867,0.72627 -1.78243,1.54941 -0.0973,0.85388 0.4014,1.44889 4.96,5.91795 7.62131,7.47168 10.63776,10.97901 12.592,14.64105 1.54912,2.90292 2.04822,3.59005 2.61673,3.60269 0.12135,0.003 2.06535,-1.5287 4.32,-3.40307 27.50285,-22.86413 52.38346,-50.62333 70.08356,-78.19203 16.81942,-26.19702 29.75065,-53.29888 39.39219,-82.56 5.2113,-15.81577 8.07802,-26.9599 10.5777,-41.12 3.99635,-22.63807 5.59974,-41.05526 5.59974,-64.31999 0,-23.26474 -1.60339,-41.68192 -5.59974,-64.32 -5.05466,-28.63328 -15.74381,-59.97069 -30.52173,-89.48058 -16.15984,-32.26946 -34.95728,-58.96819 -59.22672,-84.122 -30.88007,-32.00534 -61.67021,-54.25478 -101.63348,-73.44194 -22.48458,-10.79529 -51.0439,-20.72329 -73.07248,-25.402 -39.88458,-8.471188 -84.06016,-9.885476 -125.25632,-4.0101 -21.12503,3.01284 -34.58432,6.14992 -54.40333,12.68028 -28.58663,9.41928 -55.50474,22.16467 -80.75728,38.23758 -29.54841,18.80716 -57.93456,44.28495 -81.71511,73.34283 -25.85776,31.59606 -46.83927,70.37914 -60.35137,111.55593 -6.38875,19.46909 -9.52913,33.00233 -12.51287,53.92333 -6.85498,48.06476 -3.75648,100.24326 8.4939,143.03666 12.74644,44.52627 35.11575,88.24896 62.65317,122.46086 1.16026,1.44148 2.28166,2.69392 2.49201,2.78324 0.21035,0.0893 1.21835,-0.24944 2.24,-0.75277 1.02165,-0.5033 2.92989,-1.13082 4.24053,-1.39447 1.97577,-0.39744 2.49092,-0.63465 3.01459,-1.38812 1.19119,-1.71389 4.09088,-4.2592 5.67774,-4.98381 1.24866,-0.57021 2.16275,-1.42154 4.28298,-3.98896 3.00353,-3.63703 3.43445,-3.98573 6.12028,-4.95255 1.64999,-0.59392 2.86553,-0.70249 9.88143,-0.88246 7.98449,-0.2048 8.00341,-0.20694 9.76,-1.11533 0.968,-0.50057 2.21622,-1.30838 2.77382,-1.79513 0.55761,-0.48676 2.35761,-1.52855 4,-2.31514 4.00977,-1.92038 5.40986,-3.01856 6.65001,-5.216 1.27811,-2.26467 3.86557,-5.05037 5.67705,-6.11197 2.22115,-1.30166 2.19134,-2.0184 -0.24574,-5.90704 -2.1098,-3.36646 -5.15632,-9.52124 -6.23699,-12.60035 -0.81076,-2.31008 -1.13957,-2.79734 -3.36823,-4.99126 -4.19928,-4.13386 -4.49233,-5.16771 -3.76847,-13.29501 0.28169,-3.16262 0.27292,-4.52758 -0.0397,-6.18448 -0.39152,-2.07498 -0.36826,-2.2567 0.96592,-7.54771 0.75191,-2.98186 1.75013,-6.14154 2.21829,-7.02154 0.82709,-1.55472 4.93247,-7.02217 6.72783,-8.96 0.48918,-0.528 1.05055,-1.27424 1.24749,-1.65833 0.76264,-1.48739 1.63574,-6.12925 1.67435,-8.90167 0.022,-1.584 0.13106,-3.28332 0.24224,-3.77625 0.25045,-1.1105 3.29365,-4.8056 4.64619,-5.64154 1.11665,-0.69011 6.78702,-1.94221 8.79575,-1.94221 1.22469,0 9.5031,-1.22096 13.0002,-1.91734 0.88,-0.17523 3.06171,-0.72726 4.84824,-1.22672 2.90267,-0.81152 3.44737,-1.08618 5.12,-2.58176 1.02947,-0.92051 2.91166,-2.16877 4.18264,-2.77389 2.21456,-1.05443 2.46137,-1.09997 5.92,-1.09248 4.04832,0.009 5.96905,0.34803 7.23088,1.27715 0.47203,0.34759 1.65024,0.84058 2.61824,1.09556 2.90752,0.76588 7.24201,2.81248 9.52857,4.49907 3.06151,2.25817 7.55812,6.65177 9.55101,9.33222 2.43738,3.27831 4.82445,5.07821 8.16861,6.1592 0.77776,0.25143 2.06998,1.31312 3.86659,3.17683 2.32416,2.41092 2.82119,3.13024 3.5833,5.1857 1.38973,3.74829 2.88598,6.80205 3.92131,8.00307 0.52314,0.60688 1.73178,2.68579 2.68586,4.61984 1.73024,3.50726 1.73465,3.52394 1.69536,6.4 -0.0461,3.36995 -0.69911,5.39338 -2.75303,8.53021 -1.15021,1.75661 -1.34934,2.32153 -1.4632,4.15097 -0.10496,1.68589 0.0109,2.43616 0.56746,3.68 0.91405,2.04228 1.26867,5.79037 1.27949,13.52311 l 0.009,6.2007 -4.03556,4.16525 c -2.21952,2.29091 -4.24867,4.67542 -4.50921,5.29894 -0.26051,0.62355 -0.81994,1.58768 -1.24314,2.14253 -0.4232,0.55485 -0.93904,1.4952 -1.14627,2.0897 -0.20723,0.59446 -0.79898,1.6798 -1.31498,2.41187 -0.74934,1.0631 -0.97081,1.77379 -1.10028,3.53065 -0.11719,1.59002 -0.3961,2.59869 -1.00634,3.63962 l -0.84422,1.44 v 26.72 26.72 l 0.88,1.59744 c 0.84067,1.52608 0.88035,1.79782 0.8878,6.08 0.009,4.94678 0.31264,6.81501 1.3448,8.26454 0.53927,0.75731 0.73466,1.64083 0.90452,4.09034 0.17699,2.55209 0.3711,3.38784 1.05977,4.56301 0.50551,0.86256 0.84592,1.92835 0.85015,2.66166 0.006,1.12003 0.52614,2.48154 1.7495,4.58301 0.25613,0.44 0.76333,1.448 1.12704,2.24 0.64397,1.40214 2.40262,4.66445 3.65914,6.78774 0.76563,1.29379 0.7496,3.44365 -0.0545,7.29226 l -0.56825,2.72 -1.53972,0.38003 c -0.84681,0.20899 -2.0087,0.65674 -2.58195,0.99494 -0.57325,0.33821 -1.71225,0.71543 -2.53113,0.83821 -0.92477,0.13869 -2.2048,0.70135 -3.3784,1.48506 -1.03924,0.69395 -2.004,1.26176 -2.14397,1.26176 -0.13994,0 -0.49027,0.21344 -0.77856,0.4743 -0.28826,0.26087 -1.09981,0.80087 -1.80349,1.2 -1.83005,1.03802 -3.99251,2.62723 -7.18038,5.2769 -3.26778,2.71606 -4.82535,4.40454 -4.60141,4.98812 0.15299,0.39869 6.30486,3.10359 7.05411,3.1016 0.1953,0 1.80013,-1.20924 3.56627,-2.68611 6.22199,-5.20278 10.82387,-7.70464 17.67863,-9.61113 4.94025,-1.37402 7.92393,-2.4369 9.75347,-3.4745 1.56528,-0.88771 2.71603,-2.81529 2.71587,-4.54918 -1.9e-4,-2.03485 -1.8215,-5.95933 -5.56912,-12 -1.91082,-3.08 -4.16957,-6.968 -5.01942,-8.64 -3.14602,-6.18928 -6.06791,-19.02794 -7.53767,-33.12 -0.86198,-8.26483 -0.90115,-9.3417 -0.90214,-24.8 v -16.16 l 0.90774,-5.58835 c 1.5745,-9.69312 3.88583,-13.96611 11.87255,-21.94909 7.01219,-7.00893 13.25808,-11.48262 22.41971,-16.05846 8.18099,-4.08605 19.40813,-7.81811 27.68,-9.20122 1.672,-0.27958 3.76,-0.75459 4.64,-1.05558 1.3768,-0.47095 3.00627,-0.5473 11.68,-0.5473 9.40189,0 10.25222,0.0474 12.64,0.70503 1.408,0.38774 3.90515,0.93446 5.54922,1.21491 5.00793,0.85424 9.58736,2.9608 16.50608,7.59293 5.38329,3.60412 14.13414,12.34982 18.17785,18.16713 3.66007,5.26541 7.05818,11.43526 9.83895,17.86432 1.24284,2.87334 2.54115,5.77597 2.88512,6.45024 0.82588,1.61885 1.06233,2.27693 5.13171,14.28186 2.47699,7.30723 3.83053,11.8839 4.68464,15.84 l 1.20122,5.56358 -0.006,8.48 c -0.005,6.39917 -0.1864,10.32525 -0.73981,16 -0.65395,6.70515 -0.73856,9.40976 -0.78099,24.96 l -0.0476,17.44 1.06256,4.89552 c 0.58442,2.69251 1.32039,5.64451 1.63546,6.56 1.50883,4.3838 5.39386,10.66905 9.65424,15.61868 1.42298,1.65319 3.54474,4.1218 4.71504,5.4858 2.40707,2.80547 2.1943,2.74163 6.6127,1.98432 z M 445.63819,575.02897 c -1.96157,-0.58732 -3.04624,-2.42902 -2.60736,-4.4272 0.11206,-0.51014 1.55744,-2.46553 3.25244,-4.4 4.06916,-4.64403 6.94368,-9.04828 10.31332,-15.80179 3.24006,-6.49379 5.2735,-11.52444 8.16112,-20.19033 2.49017,-7.47309 3.17747,-10.0457 2.90944,-10.89021 -0.25146,-0.79229 -0.6232,-0.93306 -7.50714,-2.84282 -13.26163,-3.679 -24.4192,-8.13673 -34.61213,-13.82835 -19.56029,-10.92227 -33.5751,-23.29107 -45.23142,-39.91907 -2.65872,-3.7927 -3.60989,-4.80921 -4.5,-4.80921 -0.45431,0 -1.75332,0.81017 -3.24685,2.02502 -13.09703,10.65302 -27.452,16.91434 -43.7696,19.0913 -4.1856,0.5584 -14.03742,0.75363 -18.46177,0.36579 -2.23398,-0.19581 -4.26933,-0.27639 -4.52301,-0.17901 -0.91932,0.35277 -2.54189,11.69277 -3.11021,21.73689 -0.41529,7.33972 -0.19573,13.01044 0.68145,17.6 0.81851,4.2826 0.82746,4.23392 -0.58646,3.18986 -4.82551,-3.5632 -8.90028,-9.47309 -12.02733,-17.4439 -2.78343,-7.09495 -4.58371,-14.07635 -6.46876,-25.08551 -0.92077,-5.37753 -1.21085,-6.5096 -1.81965,-7.10131 -0.39835,-0.38713 -2.66826,-1.81187 -5.04426,-3.16601 -7.70007,-4.38852 -13.62661,-8.97524 -19.68276,-15.23306 -10.63102,-10.98502 -18.04295,-24.76179 -21.4125,-39.80006 -1.44445,-6.44653 -1.90302,-10.72378 -1.90409,-17.76 -0.002,-14.47219 2.78062,-26.4721 8.95833,-38.6297 6.60292,-12.99443 16.22636,-23.77216 28.60191,-32.0326 9.43798,-6.29966 19.26628,-10.32517 31.09986,-12.73797 3.92897,-0.80109 4.99126,-0.87873 13.69925,-1.00117 10.67814,-0.15015 13.86838,0.15077 21.44,2.02234 14.90889,3.68522 27.39888,10.54768 38.36406,21.07862 4.60909,4.42653 6.33085,5.94048 6.75594,5.94048 0.50019,0 2.4952,-1.89962 3.21049,-3.05699 l 0.67504,-1.09226 -1.12166,-5.04537 c -2.82029,-12.68611 -3.50531,-19.94531 -3.32378,-35.22267 0.15648,-13.16818 0.48794,-16.47093 2.80042,-27.90271 2.86899,-14.18307 7.03574,-26.59982 13.26192,-39.52 9.57645,-19.87252 22.26502,-36.96245 39.57597,-53.30388 27.93766,-26.37303 65.35024,-44.17232 102.8416,-48.92763 15.80538,-2.00471 32.49344,-1.88907 47.59917,0.32985 26.13408,3.83889 51.10131,14.33383 71.12083,29.89552 8.76336,6.81198 19.64112,17.92798 26.15341,26.72614 25.66708,34.67662 33.87428,78.43933 22.93828,122.31242 -2.8658,11.49704 -7.69527,24.35971 -13.24922,35.28758 -10.70269,21.05843 -24.6432,38.79677 -43.36247,55.17574 -1.672,1.46298 -3.12915,2.82291 -3.23814,3.02211 -0.10896,0.19917 -0.28301,3.02615 -0.38672,6.28215 -0.3071,9.64118 -1.62515,18.08425 -4.22074,27.03712 -1.74051,6.00348 -3.59388,10.6462 -7.02841,17.60617 -2.6392,5.34826 -2.70637,5.54387 -3.84589,11.2 -3.64262,18.08061 -8.53712,30.49206 -15.88266,40.2752 -2.19971,2.9297 -7.36054,8.2015 -8.02883,8.2015 -0.13133,0 -0.13299,-0.9 -0.004,-2 0.31402,-2.67129 0.30147,-17.68761 -0.016,-19.18195 -0.28608,-1.34656 -1.0903,-1.779 -2.2168,-1.19206 -0.40266,0.20979 -2.6041,1.78531 -4.8921,3.50115 -16.47593,12.3559 -34.12096,20.6945 -54.77945,25.88736 -9.03347,2.27072 -15.41943,3.41213 -25.22055,4.5079 -3.55757,0.39773 -6.36697,0.86554 -6.77174,1.12752 -0.38045,0.24631 -2.77482,3.2248 -5.3208,6.61895 -21.37171,28.49104 -40.84599,43.38262 -59.73907,45.68124 -3.12813,0.38058 -3.976,0.38039 -5.25021,0 z m 28.15382,-24.25545 c 2.09798,-1.52384 7.79261,-6.80179 11.13469,-10.32 6.52265,-6.8664 12.21408,-13.80573 19.36416,-23.61002 3.2199,-4.41516 4.54531,-5.98499 5.33011,-6.31289 0.57581,-0.24058 3.96464,-0.6616 7.55178,-0.93821 3.57901,-0.27597 8.47283,-0.77661 10.87517,-1.11251 25.46163,-3.56039 50.18979,-13.916 69.39209,-29.05987 4.17341,-3.29136 16.28893,-15.51562 19.24733,-19.42003 10.60647,-13.99824 17.2216,-29.57728 18.81911,-44.32 1.21299,-11.19437 0.93702,-19.39789 -0.97168,-28.88429 -2.58628,-12.85405 -9.65988,-27.43337 -19.05578,-39.27571 -2.85427,-3.59744 -12.83203,-13.55222 -17.1817,-17.14211 -18.79107,-15.50883 -45.53472,-26.64902 -72.14838,-30.05372 -8.98096,-1.14894 -24.55184,-1.50713 -34.13079,-0.78514 -18.67427,1.40754 -36.67891,6.27496 -53.87862,14.56567 -14.89549,7.18004 -24.79588,14.26551 -36.24397,25.93898 -7.01975,7.15792 -11.87815,13.60064 -16.47341,21.84537 -13.26349,23.79709 -14.86106,51.22778 -4.43309,76.11773 4.20704,10.04154 9.68237,18.67491 17.29687,27.27322 18.46041,20.84556 44.00889,34.97852 75.45885,41.74249 6.5919,1.41773 7.65459,1.82829 8.31062,3.21075 0.27754,0.5849 0.50464,1.27085 0.50464,1.52432 0,0.63459 -2.69549,11.49447 -3.87264,15.60243 -1.47334,5.14173 -4.00822,12.78221 -5.92179,17.84912 -1.64365,4.35216 -1.9889,5.78087 -1.51223,6.25754 0.43287,0.43286 1.32301,0.18982 2.53866,-0.69312 z m 19.0935,-69.83097 c -2.09936,-0.41431 -3.61968,-1.27002 -4.47692,-2.51981 -0.43108,-0.62851 -2.12679,-3.27907 -3.76823,-5.89011 l -2.98441,-4.74733 0.62521,-2.29267 c 1.48611,-5.44954 1.99888,-6.73271 3.1481,-7.87773 1.31699,-1.31219 4.73181,-3.21491 5.76979,-3.21491 0.39021,0 1.61264,0.43104 2.71654,0.95788 2.31869,1.1066 4.8442,3.62861 7.56458,7.55405 2.2583,3.25872 2.50883,3.88304 2.7336,6.81264 0.3624,4.72394 -0.96298,7.89267 -4.30102,10.28301 -1.6289,1.16643 -1.93917,1.2695 -3.72484,1.23734 -1.07136,-0.0192 -2.55744,-0.15532 -3.3024,-0.30236 z m -4.69948,-41.02336 c -0.0895,-0.57156 -0.67316,-7.1592 -1.29706,-14.6392 -0.62387,-7.48 -1.2177,-14.27712 -1.31958,-15.10474 l -0.18525,-1.50473 2.18793,-0.0953 2.18794,-0.0953 V 407.526 c 0,-0.85481 -0.21626,-1.06147 -2.08,-1.98758 -1.144,-0.56845 -2.18438,-1.07517 -2.31194,-1.12602 -0.33468,-0.13334 -3.01884,-19.15744 -3.59308,-25.46617 -1.69018,-18.56845 -2.13252,-34.3151 -1.02378,-36.44653 1.38333,-2.65939 5.68998,-4.54256 13.3288,-5.82829 5.51706,-0.9286 6.34531,-1.01881 6.53501,-0.71184 0.33059,0.53488 2.07376,15.26192 2.40995,20.36042 0.1857,2.816 0.5513,12.75913 0.81248,22.09587 0.33395,11.9399 0.62125,17.81555 0.96838,19.80627 0.27149,1.55671 0.56861,2.95178 0.66032,3.10016 0.0917,0.14839 -0.78256,2.73904 -1.94278,5.75699 -3.26474,8.49204 -4.05382,11.60295 -5.91386,23.31514 -0.50908,3.20557 -0.97148,5.86534 -1.02755,5.91059 -0.30473,0.24589 -5.87469,3.45008 -6.95885,4.0032 l -1.2744,0.65014 z m -189.31351,70.32982 c 0.2515,-0.30304 0.49332,-2.61363 0.67818,-6.48 0.15802,-3.30496 0.5056,-8.16903 0.77239,-10.80903 0.55223,-5.46451 2.34674,-16.82326 2.72233,-17.23161 0.13741,-0.14941 2.25834,-0.0414 4.71318,0.24 5.04862,0.57872 15.04355,0.67475 19.44141,0.18685 12.45152,-1.38144 25.4831,-6.08055 36.16,-13.03907 4.78941,-3.12141 11.04,-8.35056 11.04,-9.23588 0,-0.24854 -0.70199,-1.85331 -1.56,-3.56611 -6.23555,-12.44797 -9.76343,-25.06739 -10.93699,-39.12256 -1.18503,-14.19193 1.84723,-31.82409 7.91644,-46.0336 2.33632,-5.46982 3.84042,-8.26911 8.85453,-16.47916 1.29181,-2.1152 2.12602,-3.83415 2.12602,-4.38083 0,-1.55556 -8.24327,-9.69072 -14.63034,-14.43847 -3.19401,-2.37424 -9.69853,-6.1263 -13.85337,-7.99123 -11.43469,-5.13243 -22.17505,-7.4613 -34.23629,-7.42359 -17.94268,0.0561 -36.49091,6.62173 -50.56,17.89703 -3.48983,2.79683 -9.49533,8.81098 -12.28055,12.29824 -9.50979,11.90685 -16.23845,28.46896 -17.51925,43.1224 -0.43851,5.01689 -0.17203,15.38377 0.50753,19.74422 2.07796,13.33347 7.59799,26.39034 15.6988,37.13338 7.24868,9.61296 16.78113,17.57443 27.86338,23.27142 l 4.18515,2.15146 0.55124,3.92854 c 1.74668,12.44826 4.74951,23.95494 8.4992,32.56857 1.65309,3.79741 2.82467,4.92087 3.84701,3.68903 z m 10.06999,-74.05782 c -1.01824,-0.44036 -2.71599,-2.54333 -3.58414,-4.43962 -0.67012,-1.46374 -0.7529,-1.98534 -0.56006,-3.52886 0.12447,-0.9962 0.44495,-2.3577 0.71218,-3.02557 0.5746,-1.43606 3.46063,-4.07715 4.45529,-4.07715 2.13823,0 8.48538,7.10384 9.56331,10.70342 0.56583,1.88944 0.16138,2.61955 -2.00455,3.61875 -1.51136,0.69722 -2.39364,0.86739 -4.88453,0.94215 -1.672,0.0502 -3.33588,-0.0367 -3.6975,-0.19312 z m -4.08907,-23.9512 c -0.30567,-0.50829 -2.77343,-9.6825 -2.77343,-10.31059 0,-0.42836 0.52904,-1.02794 1.49642,-1.696 5.01394,-3.46253 8.36256,-6.17757 11.48905,-9.31527 2.8544,-2.86461 3.77528,-4.02595 4.72445,-5.95814 1.50064,-3.05479 2.25305,-6.53379 1.98972,-9.20019 -0.772,-7.81767 -5.56524,-12.60048 -12.65238,-12.62484 -3.96475,-0.0138 -10.75343,2.54938 -12.29662,4.6425 -0.5511,0.74749 -0.67947,1.46938 -0.76817,4.32 l -0.10649,3.42253 1.15341,1.76 c 2.06085,3.1447 1.26724,4.78528 -2.31967,4.79529 -2.8878,0.008 -5.20244,-1.38185 -6.49903,-3.90256 -0.84071,-1.6344 -0.83038,-5.559 0.0219,-8.29904 1.63523,-5.2575 5.7423,-9.13712 12.48746,-11.79587 2.68155,-1.05699 9.28439,-2.87782 10.43575,-2.87782 1.23189,0 6.79868,1.89917 9.66899,3.29866 4.07235,1.98559 6.46864,4.96787 8.92019,11.10134 l 1.21507,3.04 -0.0557,4.48 c -0.0925,7.4424 -1.01721,10.41808 -4.22429,13.59321 -2.33395,2.31069 -5.76444,4.53546 -13.11776,8.5072 -5.09814,2.75364 -5.97623,3.33728 -6.05843,4.02682 -0.0529,0.44352 0.48714,2.15117 1.2,3.79478 0.71287,1.64359 1.29613,3.16285 1.29613,3.3761 0,0.21325 -1.01624,0.76442 -2.25831,1.2248 -2.43362,0.90208 -2.74694,0.96509 -2.96825,0.59709 z m 311.24824,88.15999 c 4.88041,-6.00924 9.79539,-17.00191 13.17715,-29.47158 1.0041,-3.70233 0.90643,-4.68841 -0.46435,-4.68841 -0.77875,0 -1.26477,0.41081 -2.93408,2.48 -3.03882,3.76675 -5.83187,6.90486 -9.75479,10.96 -1.95801,2.024 -3.7232,3.9944 -3.92265,4.37865 -0.26,0.50093 -0.27642,1.54234 -0.058,3.68 0.16752,1.63975 0.40259,5.21334 0.5224,7.94134 0.11981,2.728 0.34774,5.212 0.50653,5.52 0.51645,1.00189 1.73478,0.669 2.92781,-0.8 z m 35.6296,-106.42479 c 2.34797,-1.8569 9.43395,-8.66295 13.33613,-12.80931 34.13622,-36.27248 51.18061,-85.54032 45.33718,-131.05013 -2.03094,-15.81765 -6.54899,-30.59361 -13.77478,-45.04955 -4.97636,-9.95571 -12.20314,-20.64224 -19.11501,-28.26621 -4.28259,-4.72378 -12.67456,-12.92091 -16.28442,-15.90636 -27.23334,-22.52258 -66.09187,-34.95688 -103.85245,-33.23161 -26.30185,1.20172 -49.86954,7.37131 -73.6897,19.29061 -35.69212,17.85987 -65.08189,47.11074 -82.07526,81.68736 -12.38631,25.20265 -18.40413,53.83694 -16.64477,79.2 0.5664,8.16527 2.61459,21.60963 3.69283,24.24 0.71757,1.7505 1.42647,1.4065 5.8393,-2.83366 15.62355,-15.01208 33.79229,-26.0885 54.77968,-33.39598 19.50141,-6.79008 42.82605,-10.18348 62.99984,-9.16555 15.45459,0.7798 26.93799,2.6755 41.99226,6.93216 6.53117,1.84672 7.09824,1.90297 7.67817,0.76165 0.12816,-0.25224 0.91882,-1.93496 1.757,-3.73937 0.8382,-1.80442 1.75523,-3.49002 2.03785,-3.74578 0.44947,-0.40678 0.97367,-0.40517 4.18435,0.0129 2.01879,0.26284 4.24653,0.62795 4.95053,0.81135 1.66752,0.43442 11.33603,5.41532 13.27591,6.83932 1.73523,1.27377 3.10432,3.10414 3.38988,4.532 0.24877,1.24374 -0.61859,3.27917 -2.19801,5.15821 -2.06045,2.45127 -1.90163,3.26692 0.99257,5.09805 22.1784,14.03193 37.36941,29.91407 47.22615,49.37474 4.99101,9.85399 7.83382,18.43303 9.96749,30.08 0.83712,4.56944 1.17849,5.69075 1.87392,6.15511 0.55536,0.37081 0.68397,0.3166 2.32336,-0.97991 z M 545.80036,272.32075 c -3.80617,-4.22358 -6.92035,-7.81018 -6.92035,-7.97023 0,-0.16004 0.86397,-1.74602 1.91994,-3.52439 5.34227,-8.99704 10.87673,-21.63268 12.36553,-28.23157 0.80596,-3.57218 0.7329,-9.61133 -0.16009,-13.23457 -2.70813,-10.988 -11.86413,-19.36 -21.17296,-19.36 -3.69389,0 -9.92381,2.41774 -13.61437,5.28352 -2.23581,1.73613 -8.53533,8.75864 -9.29725,10.36428 -1.30096,2.7416 -0.90928,4.83025 1.99792,10.65374 l 1.7081,3.42153 2.8904,1.49282 c 3.10156,1.6019 3.95532,2.41745 4.52653,4.32389 0.50227,1.67649 -0.35498,3.27855 -2.5977,4.85475 -2.70435,1.9006 -4.78125,2.5327 -8.34954,2.54115 -2.82358,0.007 -3.23248,-0.0747 -5.09299,-1.0139 -2.7312,-1.37871 -4.81958,-3.60463 -6.39184,-6.8128 -2.01053,-4.10243 -2.38358,-5.98028 -2.36582,-11.90898 0.0179,-5.97045 0.55542,-8.541 2.69772,-12.90009 2.61693,-5.32483 9.2744,-12.89472 17.66202,-20.08269 l 3.44563,-2.95279 2.85847,-0.52532 c 7.62061,-1.40047 17.00883,-1.89246 21.31152,-1.11682 3.7648,0.67866 8.02118,3.3411 14.54537,9.09835 4.66272,4.11459 6.15879,6.03733 8.63565,11.09845 3.96455,8.10106 5.55747,14.74997 4.8152,20.09893 -0.89785,6.46999 -6.26105,15.9253 -17.8439,31.45886 -1.81146,2.42928 -3.29354,4.56275 -3.29354,4.74104 0,0.81661 0.94746,1.73016 5.74983,5.5441 l 5.1415,4.08326 -3.88202,4.12736 c -2.13513,2.27005 -3.99152,4.12736 -4.12531,4.12736 -0.13379,0 -3.35744,-3.45566 -7.16365,-7.67924 z m 127.61348,412.60499 c 1.06585,-0.40899 0.59427,-1.99091 -1.14026,-3.82493 -1.71907,-1.81766 -3.18291,-2.31981 -3.59933,-1.23465 -0.32288,0.8414 -0.2591,0.96665 1.60324,3.14822 1.77068,2.07424 2.13436,2.29587 3.13635,1.91136 z"
       id="path22"
       inkscape:connector-curvature="0"
       inkscape:export-xdpi="300"
       inkscape:export-ydpi="300" />
  </g>
</svg>
